<svg version="1.1" id="Calque_1" xmlns="http://www.w3.org/2000/svg" x="0" y="0" viewBox="0 0 218.8 54.6" xml:space="preserve"><style>.st0{fill:#36476c}</style><path class="st0" d="M20.8 30.4c3.6 0 6.8-1.8 9.7-5.4l6.4 7.2c-5 5.2-10.4 7.8-16.2 7.8S10 38.1 6 34.5C2 30.8 0 26 0 20.1c0-6 2-10.8 6.1-14.5C10.1 1.9 15 0 20.5 0c2.8 0 5.6.6 8.5 1.7 2.9 1.2 5.4 2.9 7.5 5.1l-5.6 7.3c-1.2-1.5-2.8-2.6-4.6-3.5-1.8-.8-3.6-1.2-5.4-1.2-2.8 0-5.3.9-7.3 2.8-2 1.8-3.1 4.4-3.1 7.7s1 5.8 3.1 7.7c2.1 1.9 4.5 2.8 7.2 2.8zM82.2 20c0 5.6-1.9 10.3-5.8 14.2C72.5 38 67.6 40 61.7 40c-5.8 0-10.7-2-14.6-5.8s-5.8-8.6-5.8-14.2 1.9-10.4 5.8-14.2C51 1.9 55.9 0 61.7 0c5.9 0 10.8 1.9 14.7 5.8s5.8 8.6 5.8 14.2zm-30.1 0c0 3.2.9 5.7 2.7 7.7s4.1 3 6.9 3c2.8 0 5.1-1 6.9-3 1.8-2 2.7-4.6 2.7-7.7s-.9-5.8-2.7-7.8c-1.8-2-4.1-3-6.9-3-2.8 0-5.1 1-6.9 3-1.8 2.1-2.7 4.6-2.7 7.8zM101 17.8v21.6H90.2V.6H101V5c3.3-3.3 6.9-5 11-5s7.5 1.4 10.3 4.3 4.1 6.7 4.1 11.5v23.5h-10.8V17.5c0-6-2.2-8.9-6.6-8.9-2.2 0-4 .8-5.7 2.3-1.5 1.6-2.3 3.9-2.3 6.9zM146 39.4L130.7.6h11.2l9.6 24.4L161.1.6h11.2L157 39.4h-11zM188.5 54.6c-3.8 0-7.4-1.5-10.7-4.6l4.9-8c1.8 1.8 3.7 2.7 5.6 2.7 1 0 1.9-.5 2.6-1.5.7-1 1.1-2 1.1-3.1s-5-14.3-15-39.5h11.5l9.4 24.1L207.3.6h11.5l-18 45.6c-1.1 2.6-2.7 4.7-4.9 6.2s-4.7 2.2-7.4 2.2z"/></svg>