<?xml version="1.0" standalone="no"?>
<!DOCTYPE svg PUBLIC "-//W3C//DTD SVG 20010904//EN"
 "http://www.w3.org/TR/2001/REC-SVG-20010904/DTD/svg10.dtd">
<svg version="1.0" xmlns="http://www.w3.org/2000/svg"
 width="1070.000000pt" height="1070.000000pt" viewBox="0 0 1070.000000 1070.000000"
 preserveAspectRatio="xMidYMid meet">
<metadata>
Created by potrace 1.11, written by Peter Selinger 2001-2013
</metadata>
<g transform="translate(0.000000,1070.000000) scale(0.100000,-0.100000)"
fill="#000000" stroke="none">
<path d="M5579 10696 c-2 -2 -57 -7 -121 -10 -65 -4 -128 -9 -140 -11 -13 -2
-54 -6 -91 -10 -37 -3 -76 -8 -85 -10 -9 -1 -42 -6 -73 -9 -31 -4 -65 -8 -75
-10 -11 -2 -41 -7 -68 -10 -27 -4 -52 -9 -55 -11 -3 -1 -31 -6 -61 -10 -30 -4
-58 -9 -61 -11 -4 -2 -24 -6 -45 -9 -22 -4 -47 -8 -56 -11 -9 -3 -27 -7 -40
-9 -56 -11 -281 -69 -373 -96 -624 -186 -1207 -482 -1740 -882 -66 -50 -122
-93 -125 -96 -3 -4 -43 -37 -90 -75 -634 -511 -1163 -1204 -1455 -1906 -26
-63 -53 -128 -60 -145 -65 -158 -188 -564 -219 -725 -4 -23 -18 -92 -30 -148
-8 -38 -45 -263 -51 -312 -3 -25 -8 -56 -10 -70 -3 -14 -7 -52 -10 -85 -3 -33
-7 -76 -10 -95 -20 -154 -28 -871 -12 -1055 29 -334 55 -530 103 -761 27 -134
81 -351 114 -459 12 -38 23 -77 25 -85 10 -40 82 -238 127 -350 52 -127 188
-412 254 -530 155 -277 382 -595 598 -840 145 -163 552 -547 684 -644 16 -12
80 -60 143 -107 154 -115 505 -349 524 -349 2 0 30 -15 62 -34 237 -137 548
-278 854 -387 126 -44 411 -131 469 -143 14 -3 54 -12 90 -21 79 -20 242 -54
290 -61 19 -3 42 -7 50 -9 8 -3 33 -7 55 -10 22 -4 81 -13 130 -20 50 -8 111
-16 138 -19 26 -3 66 -8 90 -11 169 -21 376 -30 712 -30 296 0 508 7 571 19
11 2 48 7 84 11 36 4 67 8 70 10 3 2 34 6 70 10 36 3 72 8 81 11 10 3 30 7 45
9 16 2 38 6 49 8 11 2 38 8 60 11 256 46 767 204 1003 312 29 13 54 24 57 24
8 0 164 74 300 142 256 128 579 322 790 476 33 24 71 51 84 60 104 74 354 272
496 394 11 9 31 26 44 38 94 80 212 190 375 351 l190 187 -28 33 c-27 32 -110
127 -166 189 -34 37 -155 172 -210 235 -25 28 -76 85 -113 127 -37 42 -76 86
-87 98 -11 12 -48 54 -83 94 -35 39 -124 139 -197 221 -73 83 -149 168 -169
190 -20 22 -147 164 -281 315 -134 151 -249 280 -255 286 -5 6 -37 41 -69 78
l-59 67 -31 -38 c-421 -514 -864 -884 -1343 -1121 -155 -77 -434 -181 -526
-198 -17 -3 -33 -7 -37 -9 -8 -5 -32 -10 -190 -39 -107 -20 -152 -26 -260 -33
-174 -12 -472 -6 -580 11 -14 3 -45 7 -70 10 -47 6 -88 13 -130 21 -14 3 -34
7 -45 9 -63 12 -236 60 -329 91 -313 105 -630 286 -917 525 -57 47 -246 234
-289 286 -282 336 -465 744 -544 1214 -24 142 -24 140 -30 205 -16 163 -18
224 -18 400 0 205 7 329 27 475 3 19 7 53 10 75 3 22 10 63 15 90 5 28 12 61
14 75 16 93 75 301 113 400 29 77 31 83 77 183 20 44 36 80 36 82 0 8 105 185
147 248 108 162 252 325 414 467 106 93 125 109 169 140 19 13 37 27 40 31 3
4 61 44 130 89 237 155 549 292 830 365 27 7 224 46 260 51 19 3 46 7 59 9
122 20 636 28 766 12 114 -14 201 -29 320 -54 66 -13 131 -27 144 -29 13 -3
31 -9 40 -13 9 -5 18 -9 21 -9 17 0 241 -68 290 -89 8 -3 20 -7 25 -9 13 -3
181 -73 265 -110 64 -28 130 -62 240 -121 331 -178 666 -445 919 -731 l64 -72
41 53 c23 30 52 69 66 87 14 18 30 38 35 44 6 6 56 72 112 146 115 152 199
261 561 735 139 182 263 343 275 359 89 116 300 394 310 406 7 8 33 43 59 76
l47 62 -83 83 c-109 110 -227 221 -307 289 -35 30 -66 57 -69 60 -40 42 -319
255 -460 351 -102 70 -338 219 -346 219 -2 0 -21 11 -42 23 -200 126 -587 304
-935 431 -333 122 -669 215 -987 275 -30 6 -68 13 -85 16 -16 3 -59 10 -95 16
-36 5 -72 11 -80 14 -8 2 -42 6 -75 10 -33 3 -71 7 -85 10 -14 2 -56 7 -95 11
-38 3 -88 8 -110 10 -49 5 -751 14 -756 10z"/>
</g>
</svg>
