<svg style="position: absolute; width: 0; height: 0; overflow: hidden;" version="1.1" xmlns="http://www.w3.org/2000/svg" xmlns:xlink="http://www.w3.org/1999/xlink">
<defs>
<symbol id="convy_logo_app">
<title>convy_logo_app</title>

<path fill="#00D3E1" d="M20.8,30.4c3.6,0,6.8-1.8,9.7-5.4l6.4,7.2c-5,5.2-10.4,7.8-16.2,7.8C14.9,40,10,38.1,6,34.5
	C2,30.8,0,26,0,20.1C0,14.1,2,9.3,6.1,5.6C10.1,1.9,15,0,20.5,0c2.8,0,5.6,0.6,8.5,1.7c2.9,1.2,5.4,2.9,7.5,5.1l-5.6,7.3
	c-1.2-1.5-2.8-2.6-4.6-3.5c-1.8-0.8-3.6-1.2-5.4-1.2c-2.8,0-5.3,0.9-7.3,2.8c-2,1.8-3.1,4.4-3.1,7.7c0,3.3,1,5.8,3.1,7.7
	C15.7,29.5,18.1,30.4,20.8,30.4z"/>
<path fill="#00D3E1" d="M82.2,20c0,5.6-1.9,10.3-5.8,14.2C72.5,38,67.6,40,61.7,40C55.9,40,51,38,47.1,34.2
	c-3.9-3.8-5.8-8.6-5.8-14.2c0-5.6,1.9-10.4,5.8-14.2C51,1.9,55.9,0,61.7,0c5.9,0,10.8,1.9,14.7,5.8C80.3,9.7,82.2,14.4,82.2,20z
	 M52.1,20c0,3.2,0.9,5.7,2.7,7.7c1.8,2,4.1,3,6.9,3c2.8,0,5.1-1,6.9-3c1.8-2,2.7-4.6,2.7-7.7s-0.9-5.8-2.7-7.8c-1.8-2-4.1-3-6.9-3
	c-2.8,0-5.1,1-6.9,3C53,14.3,52.1,16.8,52.1,20z"/>
<path fill="#00D3E1" d="M101,17.8v21.6H90.2V0.6H101V5c3.3-3.3,6.9-5,11-5c4.1,0,7.5,1.4,10.3,4.3c2.8,2.9,4.1,6.7,4.1,11.5v23.5
	h-10.8V17.5c0-6-2.2-8.9-6.6-8.9c-2.2,0-4,0.8-5.7,2.3C101.8,12.5,101,14.8,101,17.8z"/>
<path fill="#00D3E1" d="M146,39.4L130.7,0.6h11.2l9.6,24.4l9.6-24.4h11.2l-15.3,38.8H146z"/>
<path fill="#00D3E1" d="M188.5,54.6c-3.8,0-7.4-1.5-10.7-4.6l4.9-8c1.8,1.8,3.7,2.7,5.6,2.7c1,0,1.9-0.5,2.6-1.5
	c0.7-1,1.1-2,1.1-3.1c0-1.1-5-14.3-15-39.5h11.5l9.4,24.1l9.4-24.1h11.5l-18,45.6c-1.1,2.6-2.7,4.7-4.9,6.2
	C193.7,53.9,191.2,54.6,188.5,54.6z"/>

</symbol>



</defs>
</svg>
