<?xml version="1.0" encoding="utf-8"?>
<!-- Generator: Adobe Illustrator 18.0.0, SVG Export Plug-In . SVG Version: 6.00 Build 0)  -->
<!DOCTYPE svg PUBLIC "-//W3C//DTD SVG 1.1//EN" "http://www.w3.org/Graphics/SVG/1.1/DTD/svg11.dtd">
<svg version="1.1" id="Calque_1" xmlns="http://www.w3.org/2000/svg" xmlns:xlink="http://www.w3.org/1999/xlink" x="0px" y="0px"
	 viewBox="-4.8 83.8 769 330.9" enable-background="new -4.8 83.8 769 330.9" xml:space="preserve">
<rect x="-4.8" y="83.8" fill="#36BADF" width="769" height="330.9"/>
<g>
	<path fill="#FFFFFF" d="M13.4,119.9c1.8,0.4,2,2.5,2.8,4.1c-1.5,0-1.6,1.7-3.6,1.1C11.6,123.2,11.9,121,13.4,119.9z"/>
	<path fill="#FFFFFF" d="M13.9,95.4c0.3,0,0.5,0,0.8,0C14.6,95.9,13.9,96,13.9,95.4z"/>
	<path fill="#FFFFFF" d="M14.2,150.6c0.4-2.3,0.8-1.7,2-3c0.1,2.1,1.9,3,0.4,4.5C15.1,152.5,15.2,150.8,14.2,150.6z"/>
	<path fill="#FFFFFF" d="M16.6,176.1c1.6-0.2,1.1,2.4,2.5,2.5c-0.5,1.1-1.3,1.8-2.4,2C14.6,179.7,14.8,177.1,16.6,176.1z"/>
	<path fill="#FFFFFF" d="M17.4,359.1C17.2,359.3,17.6,358.8,17.4,359.1L17.4,359.1z"/>
	<path fill="#FFFFFF" d="M18.2,212.2c0-2.9-0.5-6.3,2-6c0,2.6,1.8,3.1,2,5.5C21.1,213.1,19.7,213.5,18.2,212.2z"/>
	<path fill="#FFFFFF" d="M20.2,264.3c1.1,0.7,1.3-0.4,2.4,0.5c-0.4,2.2,0,1.7,0.4,3.5c0.5-0.2,0.8-0.6,0.8-1.5
		C27.3,274,15.2,273.7,20.2,264.3z"/>
	<path fill="#FFFFFF" d="M19.9,233.2c1.9-0.5,2.4,1.1,3.6,1.5c-1.1,1.7,0.4,3.2,1.1,4.1C22.4,244.2,17,236.9,19.9,233.2z"/>
	<path fill="#FFFFFF" d="M20.6,309.5c0.1-2.6,0.6-4.5,2.4-5c2,0.2,1.5,3.5,2,5.5C23.6,311.2,21.5,311.2,20.6,309.5z"/>
	<path fill="#FFFFFF" d="M22.2,395.7c-1.6-2.9-2.2-10.6,1.1-10.5C26.3,385.3,28.3,395.9,22.2,395.7z"/>
	<path fill="#FFFFFF" d="M23,354.6c0.3,0.1,0.4,0.5,0.8,0.5c3.2,1.9,3.3,10-0.4,9.5C20.6,364.3,19.9,356.3,23,354.6z"/>
	<path fill="#FFFFFF" d="M21.8,327.6c5.2-1.9,5.6,9.4,2,9.5C20.8,337.1,20.1,331.4,21.8,327.6z"/>
	<path fill="#FFFFFF" d="M23.5,265.8C23.3,266.1,23.7,265.5,23.5,265.8L23.5,265.8z"/>
	<path fill="#FFFFFF" d="M25.1,238.3c-0.5-0.1-0.4-0.9-0.4-1.5C25.1,236.9,25,237.6,25.1,238.3z"/>
	<path fill="#FFFFFF" d="M37.1,188.7c1.3,1.2,0.6,5.2,2.8,5.5c-0.9,2.7-0.5,7-4.4,6C33.8,197.4,33.4,189,37.1,188.7z"/>
	<path fill="#FFFFFF" d="M36.3,97.9c2.8,0.2,3.1,3.5,4.1,6c-0.8-0.2-0.7,0.7-0.8,1.5c-0.9,0-1.9,0-2.8,0
		C35.5,103.7,34.2,99.5,36.3,97.9z"/>
	<path fill="#FFFFFF" d="M39.9,404.2c-1.1,0-2.2,0-3.2,0c-1.2-1.4-0.8-5.5,1.6-6C39.7,399,39.6,402.7,39.9,404.2z"/>
	<path fill="#FFFFFF" d="M37.5,122c0.5,0,1.1,0,1.6,0c1.7,2.3,1.8,6.5,3.2,9c-0.6,1.6-1.8,2.5-4,2C36.8,130.8,35.1,124.5,37.5,122z"
		/>
	<path fill="#FFFFFF" d="M41.9,363.1c2.6,3.4,1.4,14.3-2.4,13.6C35.4,375.8,37.9,363.6,41.9,363.1z M40.3,366.6
		C40.6,366.3,40.1,366.8,40.3,366.6L40.3,366.6z"/>
	<path fill="#FFFFFF" d="M40.3,158.1c0.6,1.5,0.9,3.5,2,4.5C39.7,169.8,34.3,158.9,40.3,158.1z"/>
	<path fill="#FFFFFF" d="M39.9,332.1c0.8,0,1.6,0,2.4,0c0.7,2.3-0.5,4.1,1.1,4.5C42.7,345.2,36.2,336.8,39.9,332.1z"/>
	<path fill="#FFFFFF" d="M39.5,298.4c0.6,0,1.6,0.2,1.6-0.5c1.8,1.8,0.8,3.9,2,6.5C40.1,308.7,37.1,302.1,39.5,298.4z"/>
	<path fill="#FFFFFF" d="M39.5,327C39.4,327.2,39.8,326.7,39.5,327L39.5,327z"/>
	<path fill="#FFFFFF" d="M39.5,235.8c1.1-0.6,2-0.6,3.2,0c0,1.8-0.4,4.1,0.8,4.5C42,245.7,37.3,240.9,39.5,235.8z"/>
	<path fill="#FFFFFF" d="M43.1,267.4c-0.4,2.6,0.4,4.1,1.6,5C42,283.6,35.4,265.1,43.1,267.4z"/>
	<path fill="#FFFFFF" d="M41.9,127.5c0.7,0.1,0.9,0.9,0.8,2C42,129.4,41.8,128.7,41.9,127.5z"/>
	<path fill="#FFFFFF" d="M43.5,203.1c-0.5-0.1-0.4-1.1,0-1.1C44.1,202.4,43.5,202.6,43.5,203.1z"/>
	<path fill="#FFFFFF" d="M44.3,270.8c-0.1-0.1-0.7-1.1-0.4-1.5C44.2,269,45,271.4,44.3,270.8z"/>
	<path fill="#FFFFFF" d="M57.2,181.2c3.5,1.4,1.4,8.5-2,6.5C53.9,184.9,55.5,181.9,57.2,181.2z M58,185.1
		C58.1,184.8,57.8,185.3,58,185.1L58,185.1z M58,184.1C58.1,183.8,57.8,184.4,58,184.1L58,184.1z"/>
	<path fill="#FFFFFF" d="M55.1,128.5c1.1-0.1,1.7-1,2.8-1.1c2.2,1.8,1.9,6.7-0.4,8C54.2,135.6,54.9,132,55.1,128.5z"/>
	<path fill="#FFFFFF" d="M59.2,97.9c3.6,2.4,0.4,11.4-3.2,7.5C56.6,102.3,56.3,98.1,59.2,97.9z"/>
	<path fill="#FFFFFF" d="M56.4,161.6c0-2.4-0.2-4.9,0.4-6.5c1.7,0.1,1.6-0.6,2.8,0C61.7,157.8,59.6,163.9,56.4,161.6z"/>
	<path fill="#FFFFFF" d="M58.8,213.2c3.8,0.6,2.4,9.2-1.6,6.5C56.3,215.9,58,215.9,58.8,213.2z"/>
	<path fill="#FFFFFF" d="M59.9,302.9c0.9-0.1,0.9-1.3,0-1.5c0.1-0.4,0.4-0.6,0.8-0.5c0.3,0.7,0.5,0,0,0c-0.7-1,0.2-0.9,0-2.5
		c0.5,0,1.1,0,1.6,0c1.1,2.6,1.1,6.2-1.1,7.1c-0.4-1.1-2-0.4-2-2C59.5,303.4,59.9,303.5,59.9,302.9z M61.6,302c0.1,0.4,0,1,0.4,1.1
		C61.9,302.6,61.9,302,61.6,302z"/>
	<path fill="#FFFFFF" d="M59.6,302C59.1,302,59.3,301.2,59.6,302L59.6,302z"/>
	<path fill="#FFFFFF" d="M62,241.3c0,0.6-0.5,0.7-0.4,1.5c-1.9,0.3-2.2-1.2-2.4-3c1.9,1.6,0.4-1.6,2-1.5
		C61.1,239.6,61,241.3,62,241.3z"/>
	<path fill="#FFFFFF" d="M59.6,328.5c-0.3-1.8,0.6-1.9,0.4-3.5c2.8,0.4,0.3-0.9,1.1-2c1.3,0.6,1.9,2.4,1.6,5
		C61.2,327.6,61.1,328.9,59.6,328.5z M61.6,325.5c0.1,0.4,0,1,0.4,1.1C61.9,326.1,61.9,325.5,61.6,325.5z"/>
	<path fill="#FFFFFF" d="M59.9,302.9c-0.4-0.1-0.5-0.4-0.4-1.1C59.9,302.1,60,302.3,59.9,302.9z"/>
	<path fill="#FFFFFF" d="M61.1,397.7c0-1.2,0.6-1.9,1.6-2c-1.4-1.8,0.9-1.5,0.4-4c2.3-0.1,2.4,2.4,2.4,5
		C63.6,398.3,63.1,398.7,61.1,397.7z"/>
	<path fill="#FFFFFF" d="M61.1,375.1c-0.2-1.7,0.3-2.4,0.4-3.5c1.2,0.1,0.6,0.8,2.4,1.1c-0.6-0.8-1.4-1.2-1.1-3c1.9,0.7,1.9,3,2,5
		c-1.1-0.4-1.4,0.2-1.1,1.5C62.6,376,61.9,375.6,61.1,375.1z"/>
	<path fill="#FFFFFF" d="M63.2,279.9c0,0.5,0,1.1,0,1.5c0.3-0.1,0.4-0.5,0.8-0.5C64.1,280.1,63.6,280,63.2,279.9
		c0.3-0.6,0.9-1,1.6-1.1c-0.1,2.8,0,4.1-2,5c-0.7-0.1-1.3-0.3-1.6-1.1c0.4-1.1,0.8-2,1.1-3C62.6,279.9,62.9,279.9,63.2,279.9z"/>
	<path fill="#FFFFFF" d="M63.5,349.1c2.6,1.8,1.9,5.1,0.4,7.5C60.6,356,62.4,350.9,63.5,349.1z"/>
	<path fill="#FFFFFF" d="M62,241.3c0-0.6,0.1-1.1,0.8-1.1c0,0.4,0,0.6,0,1.1C62.5,241.3,62.3,241.3,62,241.3z"/>
	<path fill="#FFFFFF" d="M62.8,278.9C61.1,278.3,64.3,278.3,62.8,278.9L62.8,278.9z"/>
	<path fill="#FFFFFF" d="M62.8,239.3C62.6,239.5,63,239,62.8,239.3L62.8,239.3z"/>
	<path fill="#FFFFFF" d="M63.5,260.3c0.1,0,0.3,0,0.4,0C63.9,259.8,63.5,260.1,63.5,260.3c-0.3,0-0.5,0-0.8,0
		c-0.2-2.5,1.1-0.3,1.1-2.5c0.6,0,0.9,3.7-0.4,3C63.5,260.7,63.5,260.5,63.5,260.3z"/>
	<path fill="#FFFFFF" d="M72.8,122.5c1.2-0.7,1.4,0.2,3.2,0C80.3,131.3,67.9,132.4,72.8,122.5z M74,125.5
		C74.3,125.1,73.9,125.7,74,125.5L74,125.5z M74.8,123.5c-0.4,0-0.5,0.9,0,1.1C74.8,123.9,75.4,123.7,74.8,123.5z"/>
	<path fill="#FFFFFF" d="M72.8,98.4c2.3,0.4,1.5,1.9,3.6,0.5c0.8,2.6-0.2,4.3-1.1,6C71.2,105.6,71.2,101.1,72.8,98.4z M75.3,100.9
		C75.4,100.6,75.1,101.1,75.3,100.9L75.3,100.9z"/>
	<path fill="#FFFFFF" d="M74,178.6c4.2-2.9,7.4,8.1,2.8,10.5C73.9,188.2,73.7,182.1,74,178.6z"/>
	<path fill="#FFFFFF" d="M77.2,154.1c-0.4,0-0.8,0-1.1,0c0,1.4,1,1.4,2,1.5c-0.6,1.7-1.4,2.9-3.2,3c-0.9-0.9-1.3-2.4-1.1-4.5
		C74.8,154.4,77.3,152.1,77.2,154.1z M76.4,156C76.7,155.8,76.2,156.2,76.4,156L76.4,156z"/>
	<path fill="#FFFFFF" d="M80.8,239.3c1.1,1.9,1.9,4,1.6,7.5C77.8,254.6,73.1,236,80.8,239.3z"/>
	<path fill="#FFFFFF" d="M78.1,209.7c4.9,0,5.1,9.8,1.6,9.5C77.1,219,74.7,212.3,78.1,209.7z"/>
	<path fill="#FFFFFF" d="M77.2,154.1C77.7,154,77.5,154.8,77.2,154.1L77.2,154.1z"/>
	<path fill="#FFFFFF" d="M84,286.4c-1.7,0.8-2.9,1.9-4.4,0.5c-1.4-4.3-1.8-11.3,2-10.5C83.9,276.8,85,282.4,84,286.4z"/>
	<path fill="#FFFFFF" d="M82.1,360.6c4.4,0.6,4.1,11.5-0.4,11.6c-0.1-1.1-1.1-1.1-1.6-1.5c0.3-4.5-1.9-7.8,0.4-10.5
		C81.4,359.4,81.4,362.4,82.1,360.6z"/>
	<path fill="#FFFFFF" d="M84.9,340.5c0-0.2,0-0.4,0-0.5C84.4,340.2,84.6,340.5,84.9,340.5c0,0.6,0,1.3,0,2c-4.1,4-6.4-6.8-1.1-6.5
		c1.1,0.7,1.4,2.6,1.6,4.5C85.1,340.5,85,340.5,84.9,340.5z M83.2,337.5C83.5,337.2,83.1,337.7,83.2,337.5L83.2,337.5z M83.6,340.5
		c0.1,0.4,0,1,0.4,1.1C83.9,341.1,84,340.5,83.6,340.5z"/>
	<path fill="#FFFFFF" d="M84.4,315.5c0-0.2,0-0.4,0-0.5C84,315.1,84.3,315.5,84.4,315.5c-2.8,4.6-5.5-4.9-3.2-8.6
		C84.4,305.6,87.8,313.4,84.4,315.5z M83.6,309.5c-0.4,0-0.5,0.9,0,1.1C83.6,309.9,84.3,309.7,83.6,309.5z"/>
	<path fill="#FFFFFF" d="M82.1,360.6C80.8,360.5,82.4,358.5,82.1,360.6L82.1,360.6z"/>
	<path fill="#FFFFFF" d="M82.9,389.7c1.7,0.7,3.3-1.5,4,4C85.2,398.6,80.2,394.1,82.9,389.7z M85.2,391.7
		C85.5,391.4,85.1,391.9,85.2,391.7L85.2,391.7z"/>
	<path fill="#FFFFFF" d="M85.2,328C85.1,328.3,85.5,327.7,85.2,328L85.2,328z"/>
	<path fill="#FFFFFF" d="M100.1,104.9c0.1,0.4,0.4,0.6,0.8,0.5c-1.1,2-4.2,2.7-5.6,0.5c0.6-2.3-0.1-3.2,0-6c1.3-0.9,1.8,0.6,3.2,1.1
		C98.9,102.4,98.8,104.6,100.1,104.9z"/>
	<path fill="#FFFFFF" d="M97.3,121.4c2.2,0.3,1.9,3.5,2.4,6c0.5,1.2,1.2-0.9,1.6,0.5c-0.2,1.8-1.1,0.6-0.4,2.5
		C96.2,135.6,95.1,125.9,97.3,121.4z"/>
	<path fill="#FFFFFF" d="M97.3,153c1.8-0.6,2,0,3.2,1.1c-0.2,1.9-0.2,2.8-0.8,5C96.7,158.6,97.3,155.1,97.3,153z"/>
	<path fill="#FFFFFF" d="M98.9,185.7c1.1-0.2,1.1-1.7,2.8-1.1c1.1,2,0,3.8,1.6,5C101.4,194.9,97.7,190.1,98.9,185.7z"/>
	<path fill="#FFFFFF" d="M100.5,125.9C100.4,126.2,100.8,125.7,100.5,125.9L100.5,125.9z"/>
	<path fill="#FFFFFF" d="M100.1,104.9C99.7,102.6,102,105.5,100.1,104.9L100.1,104.9z"/>
	<path fill="#FFFFFF" d="M102.2,381.2c6.2-2.4,5.7,10.1,1.6,10.1C100.4,391.1,100.9,384.7,102.2,381.2z"/>
	<path fill="#FFFFFF" d="M102.5,358.1c1.7,0.1,1.9-0.8,3.2,0c0.4,1.9,0.5,4,0.4,6.5c-1.3-0.8-1.4,1.8-2.8,1.5
		C100.6,365.6,100.8,360.9,102.5,358.1z M102.5,362.6C102.8,362.3,102.4,362.9,102.5,362.6L102.5,362.6z"/>
	<path fill="#FFFFFF" d="M102.2,329.1c5.9-3,5.6,8.7,1.6,8.6C100.5,337.4,101.5,332.8,102.2,329.1z"/>
	<path fill="#FFFFFF" d="M101.7,157.1C101.6,157.3,102,156.7,101.7,157.1L101.7,157.1z"/>
	<path fill="#FFFFFF" d="M107.7,312c-1.8-0.9-2,1.5-2.4,1.5c-3.3-0.1-3.3-8.1,0-8.6C107.6,304.7,108.7,307.1,107.7,312z M105.7,310
		C106,309.6,105.5,310.2,105.7,310L105.7,310z"/>
	<path fill="#FFFFFF" d="M107.4,224.2c0,1.2,0.2,2.4,0.8,3c-3.1,6.6-7-5.3-2.8-6.5C106.6,221.2,106.3,223.5,107.4,224.2z"/>
	<path fill="#FFFFFF" d="M105.7,253.8c2,0.4,2.5,2.9,4.1,4.1c0,1.8-0.6,2.9-0.8,4.5c-1.1,0-1.4,1.2-3.6,1.1
		C103.5,261.6,104.1,255.6,105.7,253.8z"/>
	<path fill="#FFFFFF" d="M105.7,278.4c2.6,1.3,4.5,3.7,4.1,9c-1.3,0.3-1.8,1.8-3.6,1.5c-0.2-0.6-0.5-1.1-1.1-1.1
		C104.8,284.2,104.5,281.3,105.7,278.4z M106.5,283.9C108.1,283.3,104.9,283.3,106.5,283.9L106.5,283.9z"/>
	<path fill="#FFFFFF" d="M107.4,224.2c0-0.5,0-1.1,0-1.5c0.5,0.4,0.7,1.1,0.8,2C107.7,224.8,107.6,224.3,107.4,224.2z"/>
	<path fill="#FFFFFF" d="M108.5,226.3C108.4,226.4,108.8,225.9,108.5,226.3L108.5,226.3z"/>
	<path fill="#FFFFFF" d="M118.6,182.1c-0.5-0.1-0.4-1.1,0-1.1C119.1,181.4,118.5,181.5,118.6,182.1z"/>
	<path fill="#FFFFFF" d="M122.2,244.4c3,0.4,2.7,3.4,3.6,5.5C122.9,257.9,117.1,248.5,122.2,244.4z"/>
	<path fill="#FFFFFF" d="M124.2,210.2c4.1,1,3.9,7.1,0.8,9.5C119,220.7,122,211.8,124.2,210.2z"/>
	<path fill="#FFFFFF" d="M124.6,380.7c0.8-0.2,1.3,3.6,1.6,1.1c0.6,0.8,1.1,1.6,1.6,2.5c-0.4,2.5-1.1,4.5-2.8,5.5
		C121.4,389,122.6,382.4,124.6,380.7z M126.6,385.7c-0.2-0.7,0.5-2.6-0.4-2.5C126.4,384.7,125.3,385.2,126.6,385.7z"/>
	<path fill="#FFFFFF" d="M124.6,330.6c1.2-0.3,1.4,0.9,2.8,0.5c0.5,1.4,0.4,3.5,0.4,5.5C123.8,341.6,120.9,334.1,124.6,330.6z"/>
	<path fill="#FFFFFF" d="M128.6,278.4c0,0.9-0.1,1.6-0.4,2c-1.1-0.4-0.8,1.1-1.6,1.1c-2.1-0.9-2.9-3.4-3.2-6.5
		c1.1-1.9,3.3-0.4,4.8,0C127.9,275.9,127.2,278.1,128.6,278.4z"/>
	<path fill="#FFFFFF" d="M127.1,175.1c3,1.8,1.7,10.1-2,8c-2.5-1.9-2.4-8.1,0.4-8.6C126.5,174.5,126.4,177.1,127.1,175.1z
		 M127.1,177.1c0,0.6-0.1,1.4,0.4,1.5C127.3,178.1,127.5,177.2,127.1,177.1z"/>
	<path fill="#FFFFFF" d="M124.2,142c3.2-1.1,7.3,5.3,3.6,9.5c-1.4,0.2-2.6-0.1-3.6-0.5C123.5,147.7,122.9,145,124.2,142z"/>
	<path fill="#FFFFFF" d="M126.6,357.6c0.8,2-1,4.2,1.6,4.1c-0.3,1.4-1,2.5-1.6,3.5C122.7,365.5,123.1,357.4,126.6,357.6z"/>
	<path fill="#FFFFFF" d="M124.2,404.2c-0.4-2.4,0.7-3.1,2-3.5c0.5,2.5,2.6-0.2,2.4,3c-0.7,0.2-1.8-1.6-1.7,0.5
		C126.1,404.2,125.1,404.2,124.2,404.2z"/>
	<path fill="#FFFFFF" d="M127.9,303.9c1.1,0.9,0.7,3.7,1.6,5c-0.5,0.5-1.5,0.5-1.6,1.5C124.3,310.5,124.5,304.2,127.9,303.9z"/>
	<path fill="#FFFFFF" d="M128.2,280.4C128.7,280.4,128.5,281.1,128.2,280.4L128.2,280.4z"/>
	<path fill="#FFFFFF" d="M129,404.2c-0.1,0-0.3,0-0.4,0c0-0.2,0-0.4,0-0.5C128.9,403.7,129.1,403.8,129,404.2z"/>
	<path fill="#FFFFFF" d="M128.6,278.4C128.6,277.8,129.2,278.1,128.6,278.4L128.6,278.4z"/>
	<path fill="#FFFFFF" d="M129,276.4C128.8,276.6,129.3,276,129,276.4L129,276.4z"/>
	<path fill="#FFFFFF" d="M129.4,305C129.3,305.1,129.7,304.6,129.4,305L129.4,305z"/>
	<path fill="#FFFFFF" d="M129.4,279.9C129.3,280.1,129.7,279.6,129.4,279.9L129.4,279.9z"/>
	<path fill="#FFFFFF" d="M129.8,307.4c-0.4,0-0.3-0.6-0.4-1.1C129.8,306.5,129.7,307.1,129.8,307.4z"/>
	<path fill="#FFFFFF" d="M147.1,181.6c0-0.8-0.4-1.3-0.8-1.5C146.3,181,146.6,181.4,147.1,181.6c0,0.4,0,0.6,0,1.1
		c-3,1.9-4-2.1-4.4-5c1.7-3.7,6.3-2.6,6,3C147.9,180.6,148.1,182,147.1,181.6z M147.9,180.1c-0.2-1-0.1-2.1-1.1-2
		C146.6,179.4,147.4,179.7,147.9,180.1z"/>
	<path fill="#FFFFFF" d="M147.5,119.5c-0.5,0.1-0.4,0.9-0.4,1.5C147.5,120.9,147.4,120,147.5,119.5c3,2.6,2,10.9-2.4,9
		c-1.4-4.1-2.6-8.4-1.1-12.5C145.8,116.2,146.2,118.4,147.5,119.5z M147.9,122.5C148.1,122.1,147.7,122.7,147.9,122.5L147.9,122.5z"
		/>
</g>
<path fill="#36DFDE" d="M661.4,190.3H373.6c-11,0-20-9-20-20v-47.1c0-11,9-20,20-20h287.8c11,0,20,9,20,20v47.1
	C681.4,181.3,672.4,190.3,661.4,190.3z"/>
<path fill="#FFC26A" d="M551.4,295H263.6c-11,0-20-9-20-20v-47.1c0-11,9-20,20-20h287.8c11,0,20,9,20,20V275
	C571.4,286,562.4,295,551.4,295z"/>
<path fill="#36DFDE" d="M661.4,399.8H373.6c-11,0-20-9-20-20v-47.1c0-11,9-20,20-20h287.8c11,0,20,9,20,20v47.1
	C681.4,390.8,672.4,399.8,661.4,399.8z"/>
</svg>
