<?xml version="1.0" encoding="utf-8"?>
<!-- Generator: Adobe Illustrator 18.0.0, SVG Export Plug-In . SVG Version: 6.00 Build 0)  -->
<!DOCTYPE svg PUBLIC "-//W3C//DTD SVG 1.1//EN" "http://www.w3.org/Graphics/SVG/1.1/DTD/svg11.dtd">
<svg version="1.1" id="Calque_1" xmlns="http://www.w3.org/2000/svg" xmlns:xlink="http://www.w3.org/1999/xlink" x="0px" y="0px"
	 viewBox="0 0 300 300" enable-background="new 0 0 300 300" xml:space="preserve">
<g>
	<g>
		<path fill="#3A006D" d="M251.4,41.2c-0.1-0.6-0.3-1.1-0.5-1.6c-0.2-0.4-0.3-0.7-0.5-1c-0.9-1.5-2.1-2.8-3.6-3.7
			c-1.1-0.7-2.4-1.1-3.8-1.3l-82.5-11L78.2,11.6c-5.5-0.7-10.5,3.1-11.3,8.6L36.5,248.8c-0.7,5.5,3.1,10.5,8.6,11.3l82.3,10.9
			l82.5,11c2.1,0.3,4.1-0.1,5.8-1c0.6-0.3,1.1-0.6,1.6-1c0.3-0.2,0.5-0.4,0.7-0.6c0.5-0.4,0.9-0.9,1.3-1.4c0.2-0.3,0.4-0.5,0.5-0.8
			c0.7-1.1,1.1-2.4,1.3-3.8l30.4-228.5C251.8,43.5,251.7,42.3,251.4,41.2z M210.4,272.2L47.3,250.5L77.7,21.4l163.1,21.7
			L210.4,272.2z"/>
		<g>
			<g>
				<path fill="#FFFFFF" d="M191.7,54.4l-69.8-9.3c-3.7-0.5-6.3-3.9-5.8-7.6l1.5-11.1c0.5-3.7,3.9-6.3,7.6-5.8l69.8,9.3
					c3.7,0.5,6.3,3.9,5.8,7.6l-1.5,11.1C198.8,52.2,195.4,54.8,191.7,54.4z M124.7,24c-1.8-0.2-3.4,1-3.6,2.8l-1.5,11.1
					c-0.2,1.8,1,3.4,2.8,3.6l69.8,9.3c1.8,0.2,3.4-1,3.6-2.8l1.5-11.1c0.2-1.8-1-3.4-2.8-3.6L124.7,24z"/>
			</g>
		</g>
		<g>
			
				<rect x="126" y="19" transform="matrix(0.9913 0.1318 -0.1318 0.9913 4.8949 -20.862)" fill="#FFFFFF" width="68.1" height="15"/>
		</g>
	</g>
	<g>
		<g>
			
				<rect x="165" y="90.8" transform="matrix(0.9913 0.1318 -0.1318 0.9913 13.7594 -24.2677)" fill="#042840" width="50.4" height="2.1"/>
		</g>
		<g>
			
				<rect x="164.1" y="97.5" transform="matrix(0.9913 0.1318 -0.1318 0.9913 14.6418 -24.0904)" fill="#042840" width="50.4" height="2.1"/>
		</g>
		<g>
			
				<rect x="163.3" y="103.5" transform="matrix(0.9913 0.1318 -0.1318 0.9913 15.3649 -23.1199)" fill="#042840" width="38.1" height="2.1"/>
		</g>
	</g>
	<g>
		<g>
			
				<rect x="160.5" y="124.6" transform="matrix(0.9913 0.1318 -0.1318 0.9913 18.1744 -23.3807)" fill="#042840" width="50.4" height="2.1"/>
		</g>
		<g>
			
				<rect x="159.6" y="131.3" transform="matrix(0.9913 0.1318 -0.1318 0.9913 19.0568 -23.2034)" fill="#042840" width="50.4" height="2.1"/>
		</g>
		<g>
			
				<rect x="158.8" y="137.3" transform="matrix(0.9913 0.1318 -0.1318 0.9913 19.78 -22.233)" fill="#042840" width="38.1" height="2.1"/>
		</g>
	</g>
	<g>
		<g>
			
				<rect x="156.1" y="158.4" transform="matrix(0.9913 0.1318 -0.1318 0.9913 22.5894 -22.4938)" fill="#042840" width="50.4" height="2.1"/>
		</g>
		<g>
			
				<rect x="155.2" y="165.1" transform="matrix(0.9913 0.1318 -0.1318 0.9913 23.4718 -22.3165)" fill="#042840" width="50.4" height="2.1"/>
		</g>
		<g>
			
				<rect x="154.3" y="171.1" transform="matrix(0.9913 0.1318 -0.1318 0.9913 24.195 -21.346)" fill="#042840" width="38.1" height="2.1"/>
		</g>
	</g>
	<g>
		<g>
			
				<rect x="151.6" y="192.2" transform="matrix(0.9913 0.1318 -0.1318 0.9913 27.0044 -21.6068)" fill="#042840" width="50.4" height="2.1"/>
		</g>
		<g>
			
				<rect x="150.7" y="198.9" transform="matrix(0.9913 0.1318 -0.1318 0.9913 27.8868 -21.4295)" fill="#042840" width="50.4" height="2.1"/>
		</g>
		<g>
			
				<rect x="149.8" y="204.9" transform="matrix(0.9913 0.1318 -0.1318 0.9913 28.61 -20.4591)" fill="#042840" width="38.1" height="2.1"/>
		</g>
	</g>
	<g>
		<g>
			
				<rect x="147.1" y="226" transform="matrix(0.9913 0.1318 -0.1318 0.9913 31.4194 -20.7199)" fill="#042840" width="50.4" height="2.1"/>
		</g>
		<g>
			
				<rect x="146.2" y="232.7" transform="matrix(0.9913 0.1318 -0.1318 0.9913 32.3019 -20.5426)" fill="#042840" width="50.4" height="2.1"/>
		</g>
		<g>
			
				<rect x="145.3" y="238.7" transform="matrix(0.9913 0.1318 -0.1318 0.9913 33.025 -19.5722)" fill="#042840" width="38.1" height="2.1"/>
		</g>
	</g>
	<g>
		<g>
			
				<rect x="91.2" y="80.9" transform="matrix(-0.9913 -0.1318 0.1318 -0.9913 221.0083 178.6398)" fill="#FFFFFF" width="50.4" height="2.1"/>
		</g>
		<g>
			
				<rect x="90.3" y="87.7" transform="matrix(-0.9913 -0.1318 0.1318 -0.9913 218.3296 191.9738)" fill="#FFFFFF" width="50.4" height="2.1"/>
		</g>
		<g>
			
				<rect x="101.6" y="95.3" transform="matrix(-0.9913 -0.1318 0.1318 -0.9913 227.6357 207.7157)" fill="#FFFFFF" width="38.1" height="2.1"/>
		</g>
	</g>
	<g>
		<g>
			
				<rect x="86.7" y="114.7" transform="matrix(-0.9913 -0.1318 0.1318 -0.9913 207.6065 245.351)" fill="#FFFFFF" width="50.4" height="2.1"/>
		</g>
		<g>
			
				<rect x="85.8" y="121.5" transform="matrix(-0.9913 -0.1318 0.1318 -0.9913 204.9278 258.6852)" fill="#FFFFFF" width="50.4" height="2.1"/>
		</g>
		<g>
			
				<rect x="97.1" y="129.1" transform="matrix(-0.9913 -0.1318 0.1318 -0.9913 214.2339 274.4271)" fill="#FFFFFF" width="38.1" height="2.1"/>
		</g>
	</g>
	<g>
		<g>
			
				<rect x="82.2" y="148.5" transform="matrix(-0.9913 -0.1318 0.1318 -0.9913 194.2047 312.0624)" fill="#FFFFFF" width="50.4" height="2.1"/>
		</g>
		<g>
			
				<rect x="81.3" y="155.3" transform="matrix(-0.9913 -0.1318 0.1318 -0.9913 191.526 325.3967)" fill="#FFFFFF" width="50.4" height="2.1"/>
		</g>
		<g>
			
				<rect x="92.6" y="162.9" transform="matrix(-0.9913 -0.1318 0.1318 -0.9913 200.8321 341.1384)" fill="#FFFFFF" width="38.1" height="2.1"/>
		</g>
	</g>
	<g>
		<g>
			
				<rect x="77.8" y="182.3" transform="matrix(-0.9913 -0.1318 0.1318 -0.9913 180.803 378.7736)" fill="#FFFFFF" width="50.4" height="2.1"/>
		</g>
		<g>
			
				<rect x="76.9" y="189.1" transform="matrix(-0.9913 -0.1318 0.1318 -0.9913 178.1242 392.1078)" fill="#FFFFFF" width="50.4" height="2.1"/>
		</g>
		<g>
			
				<rect x="88.2" y="196.7" transform="matrix(-0.9913 -0.1318 0.1318 -0.9913 187.4303 407.8497)" fill="#FFFFFF" width="38.1" height="2.1"/>
		</g>
	</g>
	<g>
		<g>
			
				<rect x="73.3" y="216.1" transform="matrix(-0.9913 -0.1318 0.1318 -0.9913 167.4012 445.485)" fill="#FFFFFF" width="50.4" height="2.1"/>
		</g>
		<g>
			
				<rect x="72.4" y="222.9" transform="matrix(-0.9913 -0.1318 0.1318 -0.9913 164.7224 458.8192)" fill="#FFFFFF" width="50.4" height="2.1"/>
		</g>
		<g>
			
				<rect x="83.7" y="230.5" transform="matrix(-0.9913 -0.1318 0.1318 -0.9913 174.0285 474.5611)" fill="#FFFFFF" width="38.1" height="2.1"/>
		</g>
	</g>
</g>
<g>
	<path fill="#FFFFFF" d="M124.4,52.6l-1.1,8.1l7.8,1l-0.5,3.5l-7.8-1l-1.1,8.2l-3.6-0.5l1.1-8.2l-7.8-1l0.5-3.5l7.8,1l1.1-8.1
		L124.4,52.6z"/>
</g>
<g>
	<g>
		<path fill="#3A006D" d="M201.1,72.8l-0.6,4.5l-20.3-2.7l0.6-4.5L201.1,72.8z"/>
	</g>
</g>
</svg>
