<?xml version="1.0" encoding="utf-8"?>
<!-- Generator: Adobe Illustrator 18.0.0, SVG Export Plug-In . SVG Version: 6.00 Build 0)  -->
<!DOCTYPE svg PUBLIC "-//W3C//DTD SVG 1.1//EN" "http://www.w3.org/Graphics/SVG/1.1/DTD/svg11.dtd">
<svg version="1.1" id="Calque_1" xmlns="http://www.w3.org/2000/svg" xmlns:xlink="http://www.w3.org/1999/xlink" x="0px" y="0px"
	 viewBox="0 0 1280 800" enable-background="new 0 0 1280 800" xml:space="preserve">
<g>
	<g>
		<path fill="#FFFFFF" d="M642.3,563c-2.6,0-5.3-0.7-7.7-2c-0.7-0.4-1.4-0.8-2-1.3l-4.9-3.4c-11.8-8.2-39.5-27.4-57.8-41.6
			c-70.3-54.7-106.2-94.2-113.1-124.2c-3.3-9.9-5.2-21.8-5.4-34.1c-0.4-32.6,11.9-64.1,33.8-86.3c19.9-20.3,46.1-31.5,73.7-31.6h0
			c31.1,0,59.4,12.6,79.8,34.5c20-22.7,48.3-36,79-36.4l2,0c58.9,0,107.4,51.7,108.3,115.2c0.1,12.2-1.5,24.2-4.9,35.6
			c-5.7,28.8-41.6,70.4-109.3,125.9c-26,21.5-47.2,37.4-63,47.4C648.2,562.2,645.2,563,642.3,563L642.3,563z M560,270.2
			c-20,0.1-38.1,7.9-52.1,22.1c-16,16.2-25,39.4-24.6,63.6c0.1,9.1,1.5,17.8,4.2,26c3.2,13.7,20.1,43.8,101.9,107.5
			c16.1,12.5,40.2,29.3,53.1,38.3c13.6-9.4,31-22.8,51-39.3c80-65.5,96.1-96.3,98.6-108.9c2.8-9.7,4-18.5,3.9-27.6
			c-0.6-46.1-34.9-83.7-76.4-83.7c-0.1,0-1.6,0-1.6,0c-27.1,0.4-51.5,15-65.3,39.2c-2.8,4.9-8,8-13.6,8.1c-5.3,0-10.9-2.8-13.8-7.7
			C611.1,284.3,586.7,270.2,560,270.2L560,270.2z"/>
	</g>
	<g>
		<path fill="#FFFFFF" d="M760.9,381.3c-0.5,0-1.1-0.1-1.6-0.2c-4.3-0.9-7.1-5.1-6.2-9.4l1.1-4.6c1.4-4.7,2-9.6,2-14.5
			c-0.3-24.9-16.9-44.4-37.7-44.4c-4.4,0-8-3.6-8-8c0-4.4,3.5-8,7.9-8c29.7,0,53.2,26.4,53.6,60.1c0.1,6.5-0.8,13-2.6,19.2l-0.8,3.4
			C767.9,378.7,764.6,381.3,760.9,381.3L760.9,381.3z"/>
	</g>
</g>
</svg>
