<?xml version="1.0" encoding="utf-8"?>
<!-- Generator: Adobe Illustrator 22.0.0, SVG Export Plug-In . SVG Version: 6.00 Build 0)  -->
<svg version="1.1" id="Calque_1" xmlns="http://www.w3.org/2000/svg" xmlns:xlink="http://www.w3.org/1999/xlink" x="0px" y="0px"
	 viewBox="0 0 260 260" enable-background="new 0 0 260 260" xml:space="preserve">
<path fill="#F28B65" d="M244.7,144.3c-7.8-9-18.3-14.9-31.4-17.7c3.6-1.6,6.2-2.8,7.6-3.5c1.4-0.7,3.9-2.5,7.6-5.3
	c10.7-8.1,16.1-20.4,16.1-37c0-13.8-4.8-26.1-14.3-37c-5.3-5.9-13.1-10.5-23.5-14c-10.4-3.4-22.8-5.2-37.2-5.2H99H87.1H0v212h87.1
	H99h80.9c29.1,0,49.5-6.6,61.3-19.7c10.1-11.3,15.2-24.4,15.2-39.1C256.4,164.5,252.5,153.3,244.7,144.3z"/>
</svg>
