<svg xmlns="http://www.w3.org/2000/svg" viewBox="-10.1 83.8 769 330.9"><path fill="#36BADF" d="M-10.1 83.8h769v330.9h-769z"/><g fill="#36DFDE"><path d="M216.4 128.3c.8 1.6-.6 3.1-1.4 4.7-.9-1.2-2.3-.2-3.1-2.1.7-2 2.7-3.1 4.5-2.6zM235.7 113.2c.2.2.3.4.5.6-.4.3-.9-.1-.5-.6zM193 148.1c2.1-1.1 1.8-.4 3.6-.3-1.6 1.4-1.1 3.4-3.2 3.2-1.3-.9 0-1.9-.4-2.9zM174.6 166.1c1.1 1.1-1.2 2.3-.4 3.5-1.2.3-2.2.1-3.1-.6-.5-2.2 1.7-3.7 3.5-2.9zM32.7 281.6c-.2 0 .5 0 0 0zM147.5 190c2.3-1.8 4.5-4.3 5.9-2.2-2.1 1.7-1.3 3.3-3 5-1.7 0-2.9-.9-2.9-2.8zM108.3 224.3c.2 1.3 1.2.8 1.1 2.2-2 1-1.3 1.1-2.5 2.6.5.3 1 .2 1.7-.3-3.4 7-10.8-2.5-.3-4.5zM132.2 204.5c1.6 1.2.7 2.5 1.1 3.8-2 .2-2.2 2.3-2.4 3.4-5.6 1.6-3.3-7.1 1.3-7.2zM73.4 253c2-1.5 3.9-2.3 5.4-1.3 1.1 1.7-1.8 3.4-3 5-1.9-.3-3.2-1.9-2.4-3.7zM7.3 308.4c1.3-3.1 6.9-8.4 8.9-5.7 1.8 2.3-5.2 10.5-8.9 5.7zM39.8 283.2c.1.3-.1.7.1 1 .5 3.7-5.7 8.8-7.7 5.6-1.5-2.5 4.3-8 7.6-6.6zM60.1 265.2c4.7 2.9-3.9 10.3-6.1 7.6-2-2.3 2-6.4 6.1-7.6zM109.2 227.7c-.3.1.4.1 0 0zM131.6 211.7c-.3-.5.5-.8.9-1.3.3.5-.5.8-.9 1.3zM177.7 189.9c-.1 1.8-3.7 3.8-2.5 5.6-2.7 1-5.8 4-7.4.3 1.1-3 7.3-8.6 9.9-5.9zM247.9 132.2c1.6 2.3-.8 4.6-2.1 6.9-.4-.7-1-.1-1.7.3-.6-.7-1.2-1.4-1.8-2.2.5-1.9 3.1-5.6 5.6-5zM11.8 327.5c-.7-.8-1.4-1.7-2-2.5.3-1.8 3.8-4.1 5.7-2.5.2 1.6-2.7 3.8-3.7 5zM229.9 148.3c.3.4.7.8 1 1.2-.7 2.7-4 5.5-5 8.1-1.6.5-3 .2-4.1-1.8.8-2.5 4.6-7.7 8.1-7.5zM45 303.2c-1 4.1-10.2 10.1-12.1 6.7-1.8-3.8 9.2-9.6 12.1-6.7zm-3.7 1c.4 0-.3 0 0 0zM203.6 173.2c-.8 1.4-2.2 2.9-2.2 4.4-7.3 2.5-2.3-8.5 2.2-4.4zM67.9 282.1c.5.6 1 1.2 1.5 1.9-1.3 2-3.5 2.1-2.8 3.7-7.1 4.9-4.7-5.5 1.3-5.6zM93.9 260.7c.4.5.9 1.3 1.4.9-.3 2.5-2.5 3.1-3.8 5.7-5.2.4-2.1-6.2 2.4-6.6zM71.6 278.7c-.2 0 .5 0 0 0zM142.6 221.4c1.2.5 1.8 1.2 2 2.5-1.4 1.1-3.4 2.3-3 3.4-5.1 2.2-4.4-4.4 1-5.9zM120.3 244c-2.3 1.4-2.9 2.9-2.9 4.4-10.4 5-.2-11.8 2.9-4.4zM228.3 155.2c.4.6-.1 1.2-1.1 1.9-.2-.6.2-1.2 1.1-1.9zM170.5 204c-.3-.5.5-1 .8-.7.1.7-.4.3-.8.7z"/><path d="M118.4 247.1c0-.1.4-1.3.9-1.3.4.1-.9 2.2-.9 1.3zM196.2 200.8c1.1 3.6-5.7 6.4-6.4 2.5 1.5-2.7 4.8-3.3 6.4-2.5zm-2.6 3.1c.4-.1-.2 0 0 0zm.8-.6c.3-.1-.3 0 0 0zM235.9 166.1c.8.8 1.8.7 2.6 1.5 0 2.8-4 5.7-6.5 4.7-2.2-2.5 1-4.1 3.9-6.2zM262.3 150.1c.4 4.3-8.6 7.5-7.8 2.2 2.7-1.5 5.7-4.3 7.8-2.2zM210.9 187.9c1.9-1.5 3.7-3.2 5.4-3.8 1 1.4 1.5.8 1.8 2.2-.9 3.3-6.9 5.6-7.2 1.6zM172.3 222.2c1.9 3.3-5.6 7.6-6.1 2.9 2.4-3.1 3.5-1.9 6.1-2.9zM103.2 279.4c.6.6 1.6-.1 1.2-.9.4-.2.7-.1.9.3-.4.6.3.4 0 0 .3-1.2.8-.4 1.9-1.6.3.4.7.8 1 1.2-1.3 2.4-4.1 4.8-6.2 3.5.5-1-.9-1.9.3-2.9.3.4.5.8.9.4zm1.8.7c-.3.3-.8.6-.5 1 .2-.4.7-.7.5-1z"/><path d="M103.7 278.5c-.3-.3.5-.7 0 0zM152.5 242.3c-.5.4-.9 0-1.4.6-1.4-1.3-.4-2.5.8-3.7 0 2.5 1.5-.7 2.4.6-1.1.8-2.5 1.7-1.8 2.5zM83 295.2c1.2-1.3 1.9-.7 3-1.9 1.5 2.4.9-.3 2.3-.4.4 1.4-.7 2.9-2.9 4.4-.6-1.3-1.7-.7-2.4-2.1zm3.6-.3c-.3.3-.8.6-.5 1 .2-.4.8-.7.5-1z"/><path d="M103.2 279.4c-.2-.3 0-.7.5-1 .2.5 0 .7-.5 1zM30.2 339.9c1-.8 1.9-.7 2.6 0 .5-2.2 1.7-.3 3.4-2.2 1.5 1.7-.4 3.4-2.4 5-2.5-.5-3.1-.7-3.6-2.8zM47.8 325.7c1.2-1.2 2-1.3 3-1.9.7 1-.2 1 .7 2.5.2-1 .1-1.9 1.6-2.8.7 2-1.2 3.3-2.6 4.7-.4-1-1-1-1.9 0-.6-.7-.7-1.6-.8-2.5zM123.1 267.5c-.4.3-.8.7-1.2.9.2.2.7 0 .9.3.8-.3.5-.8.3-1.2.6-.2 1.3.1 1.8.6-2.3 1.7-3.2 2.5-5.2 1.6-.4-.6-.6-1.2-.2-1.9 1.1-.3 2.1-.7 3.1-1 .2.3.4.5.5.7zM69.5 311.2c.2 3.1-2.8 4.7-5.6 5.1-1.5-3 3.5-4.8 5.6-5.1zM152.5 242.3c.5-.4.9-.7 1.3 0-.3.2-.5.4-.8.7-.2-.3-.3-.5-.5-.7zM123.7 266.6c-.6-1.7 1.4.8 0 0zM154.5 241.7c-.2 0 .4-.1 0 0zM138.6 255.5l.3.3c.3-.4-.1-.5-.3-.3-.2-.2-.3-.4-.5-.6 1.8-1.7.9.7 2.6-.7.4.5-2.3 3-2.6 1.5.2 0 .4-.1.5-.2zM251.7 176.1c1.3.5.7 1.2 2 2.5-4.2 8.9-12.8-.1-2-2.5zm-1.6 2.9c.4-.1-.2-.1 0 0zm2.1-.7c-.3-.3-1 .1-.8.7.4-.4 1-.1.8-.7zM270.4 161c1.1 2.1-.5 2.3 1.9 3.1-1.6 2.3-3.5 2.6-5.4 2.9-3.1-2.8.4-5.6 3.5-6zm-.4 3.5c.4-.1-.3 0 0 0zM208.8 212.3c4.9 1.5-1.7 10.9-6.4 8.8-1.2-2.9 3.4-6.8 6.4-8.8zM229.9 199.4c-.3-.3-.5-.6-.7-.9-1.1.9-.5 1.6.1 2.5-1.7.6-3.2.7-4.3-.6.1-1.2 1-2.5 2.8-3.7.3 1.1 3.7 1.5 2.1 2.7zm-2.1.6c.4 0-.2 0 0 0zM165.8 255.7c-.8 2-1.9 3.9-4.8 5.9-9 1.4 2.5-14 4.8-5.9zM187.2 235c3.1 3.8-4.4 10.1-6.4 7.2-1.5-2.1 2.2-8.2 6.4-7.2z"/><path d="M229.9 199.4c.4.3-.4.6 0 0zM131.1 287.8c-1.7-.8-3.3-1.1-3.2-3.1 2.5-3.8 7.7-8.5 9.4-5 1.3 2-2.4 6.3-6.2 8.1zM72.2 332.9c2.3 3.8-6.4 10.4-9.3 6.9.8-.7.2-1.5.2-2.2 3.7-2.6 4.9-6.3 8.4-6.3 1.3.4-1.1 2.2.7 1.6zM89.6 322.5c.1-.1.3-.2.4-.3-.4-.4-.6.1-.4.3-.5.4-1 .8-1.6 1.3-5.7-.7 1.3-9.2 4.4-5 .2 1.3-1.1 2.7-2.5 4.1-.1-.2-.2-.4-.3-.4zm1.3-3.2c.4 0-.2 0 0 0zm-2.1 2.2c-.3.3-.8.6-.5 1 .2-.4.8-.7.5-1zM108.8 306.4c.1-.1.3-.2.4-.3-.4-.3-.5.1-.4.3-5.3.7.4-7.4 4.7-7.8 3 1.6-1 9.1-4.7 7.8zm4.2-4.4c-.3-.3-1 .1-.8.7.5-.4 1-.1.8-.7z"/><path d="M72.2 332.9c-.7-1.1 1.9-1 0 0zM50.1 351.8c.5 1.7 3.2 1.6-.6 5.6-4.8 1.8-4.5-4.9.6-5.6zm-.1 3.1c.5 0-.2 0 0 0zM99.6 314.9c-.3 0 .4 0 0 0zM282.5 186.3c-.3.3-.3.7.1 1-2.3.4-4.8-1.6-4-4.1 2.2-1 2.4-2.1 4.7-3.8 1.5.5.6 1.8 1.2 3.1-.8 1.3-2.6 2.6-2 3.8zM267.9 194.5c1.2 1.9-1.5 3.7-3.2 5.6-.6 1.2 1.5.4.6 1.6-1.5 1-1.2-.5-2.2 1.2-6.9-.4 0-7.3 4.8-8.4zM243.3 214.4c1.6 1 1.3 1.6 1.2 3.1-1.6 1-2.3 1.6-4.4 2.5-1.5-2.6 1.6-4.4 3.2-5.6zM218.9 236.1c.8.7 2-.2 2.6 1.5-.9 2.2-3 2.4-2.9 4.4-5.3 1.8-3.9-4.1.3-5.9z"/><path d="M266.4 199.8c-.3.1.4.1 0 0zM282.5 186.3c1.6-1.8.8 1.8 0 0zM68.8 361.5c5.7 3.3-4.3 10.8-6.8 7.6-2-2.8 3.2-6.4 6.8-7.6zM87 347.2c1 1.4 1.8.9 2 2.5-1.3 1.5-2.8 2.9-4.8 4.4-.2-1.5-2.3 0-2.9-1.3-1.3-2.4 2.4-5.2 5.7-5.6zm-3.5 2.9c.4 0-.3 0 0 0zM109.4 328.7c6 2.7-3.2 9.9-5.7 6.6-1.8-2.7 2.4-4.8 5.7-6.6zM242.9 220.4c-.2-.1.5-.1 0 0zM126.1 322.4c-.4-1.9-2.4-.6-2.7-.9-2-2.6 4.3-7.6 6.7-5.4 1.7 1.6.5 3.9-4 6.3zm.3-2.9c.5 0-.2 0 0 0zM194.2 266.9c-1 .8-1.7 1.6-1.8 2.5-7.1 1.8-.3-8.7 3.3-6.3.4 1.3-1.6 2.6-1.5 3.8zM170.2 284.2c.9 1.9-.7 3.8-.6 5.7-1.4 1.1-2.7 1.3-4 2.2-.7-.9-1.8-.3-3.1-2.1.2-2.6 5.2-5.9 7.7-5.8zM151 299.7c.6 2.9-.1 5.8-4.5 8.8-1-.9-2.5-.3-3.4-1.9.4-.5.5-1.1.1-1.6 2.7-2.4 4.8-4.5 7.8-5.3zm-3.7 4c1.4.9-.6-1.6 0 0zM194.2 266.9c.4-.3.8-.7 1.2-.9.1.6-.4 1.2-1.1 1.9-.3-.4 0-.7-.1-1zM193.4 269.1c-.3 0 .4 0 0 0zM234 249.2c-.3-.5.5-1 .8-.7.2.6-.4.3-.8.7zM187.9 291.1c1.5 2.6-1 4.3-2 6.3-8.1 2.8-4.5-7.7 2-6.3zM215.7 271.2c1.8 3.8-3.1 7.5-6.9 6.6-4.5-4 4.3-7.3 6.9-6.6zM83.3 378.6c.6.5-2 3.3.2 1.9-.2 1-.5 1.9-.9 2.8-2.2 1.2-4.2 1.9-6 1.2-1.7-3.2 4.1-6.4 6.7-5.9zm-2.6 4.7c.4-.6 2.3-1.2 1.6-1.9-1 1.2-2 .6-1.6 1.9zM122.3 347.1c1 .8.2 1.7 1.4 2.5-.8 1.3-2.5 2.6-4 3.8-6.5 0-2.5-7 2.6-6.3zM165.4 317.4c-.7.6-1.3.9-1.9.9-.4-1.1-1.3 0-1.8-.6-.6-2.2.8-4.4 3.1-6.6 2.2-.3 2.4 2.3 3 3.7-.9.6-3 1.4-2.4 2.6zM244.8 251.4c.5 3.4-6.8 7.6-7.5 3.5-.1-3.1 4.8-7 6.9-5 .8.7-1.4 2.2.6 1.5zm-1.5 1.2c-.5.4-1.2.8-.9 1.3.3-.4 1.1-.9.9-1.3zM268.8 228.4c2.9 1.8.5 9-5.1 8.8-1-1-1.5-2-1.9-3.1 2.1-2.7 3.8-4.9 7-5.7zM102.6 365.6c-1.1 1.9-3.9 1.9-2.2 3.8-1.3.7-2.5.8-3.7 1-2.7-2.8 3.8-7.6 5.9-4.8zM64.8 393.1c1.6-1.8 2.8-1.4 4-.6-1.6 2 1.8 1.9-.8 3.7-.6-.4.1-2.4-1.5-1-.6-.7-1.2-1.4-1.7-2.1zM145.1 332.9c0 1.4-2.4 2.9-2.9 4.4-.7-.1-1.4-.8-2.2-.3-2.3-2.7 2.8-6.5 5.1-4.1zM163.6 318.4c.4.4-.4.7 0 0zM67.8 396.8l-.3-.3c.1-.1.3-.2.4-.3.2.2.3.4-.1.6zM165.4 317.4c.5-.4.6.3 0 0zM167.2 316.5c-.3 0 .5 0 0 0zM145.3 334.8c-.3 0 .4 0 0 0zM164.8 319.1c-.3-.1.4-.1 0 0zM143.6 336.6c-.3-.3.3-.6.5-1 .2.4-.3.7-.5 1zM252.3 271.1c.6-.5.8-1.1.7-1.6-.7.5-.9 1-.7 1.6-.3.2-.5.4-.8.7-3.4-1.1-.8-4.4 1.1-6.6 3.9-1 6 3.2 1.4 6.6-.4-.7-1.3.3-1.7-.7zm1.7-.4c.6-.7 1.6-1.4.9-2.2-1.1.8-.9 1.5-.9 2.2zM300.9 232.4c-.4-.4-.9.3-1.4.6.3.3 1-.4 1.4-.6-.2 4-7.2 8.5-8.5 3.8 2.3-3.7 4.9-7.3 9-8.8 1 1.6-.4 3.2-.5 5zm-2.1 2.1c.5 0-.2 0 0 0z"/></g><path fill="#30ABAA" d="M526.2 146.6v23.3h-23.3v-23.3h23.3zm3.4-3.4h-30.2v30.2h30.2v-30.2z"/><path fill="#FFC26A" d="M505.7 194.8l2.5-2.3c2.9 1.4 4.7 2.4 7.9 4.7 6.1-6.9 10.1-10.4 17.5-15l.8 1.8c-6.1 5.4-10.6 11.3-17.1 23-4-4.6-6.7-7.6-11.6-12.2zm20.2 3v11.6h-23.1v-23.1h20.6c1.4-1.2 2.9-2.3 4.5-3.4h-28.5v29.9h29.9v-19.7c-1.1 1.5-2.3 3-3.4 4.7zM505.7 232.7l2.5-2.3c2.9 1.4 4.7 2.4 7.9 4.7 6.1-6.9 10.1-10.4 17.5-15l.8 1.8c-6.1 5.4-10.6 11.3-17.1 23-4-4.7-6.7-7.7-11.6-12.2zm20.2 3v11.6h-23.1v-23.1h20.6c1.4-1.2 2.9-2.3 4.5-3.4h-28.5v29.9h29.9V231c-1.1 1.4-2.3 3-3.4 4.7z"/><g fill="#FFC26A"><path d="M556.3 188.6c.8.6 1.5 1.3 2 2.3.5.9.8 2 .8 3.1s-.3 2.1-.8 3.1-1.2 1.7-2 2.3c-.8.6-1.7.8-2.7.8h-4.8v5.2c0 .5-.1.9-.4 1.2-.3.3-.7.5-1.2.5s-.8-.2-1.1-.5c-.3-.3-.4-.7-.4-1.2v-15.9c0-.5.2-.9.5-1.2.3-.3.7-.5 1.2-.5h6.3c.8 0 1.7.3 2.6.8zm-1.7 8c.3-.3.6-.7.8-1.1.2-.5.3-1 .3-1.5s-.1-1-.3-1.5c-.2-.5-.5-.8-.8-1.1-.3-.3-.7-.4-1-.4h-4.8v6.1h4.8c.3-.1.7-.2 1-.5zM574.4 200.4c-.3.3-.7.4-1.2.4h-9.1c.2 1.1.7 1.9 1.5 2.5.8.6 1.7.9 2.7.9.8 0 1.3-.1 1.8-.2.4-.1.8-.3 1-.4.2-.2.4-.3.5-.3.3-.2.6-.2.9-.2.4 0 .7.1 1 .4.3.3.4.6.4 1 0 .5-.3.9-.8 1.3s-1.2.8-2.1 1.1c-.9.3-1.7.4-2.6.4-1.5 0-2.9-.3-4-1-1.1-.6-2-1.5-2.7-2.7-.6-1.1-.9-2.4-.9-3.8 0-1.6.3-3 1-4.2.7-1.2 1.5-2.1 2.6-2.7 1.1-.6 2.2-1 3.5-1 1.2 0 2.4.3 3.4 1 1.1.7 1.9 1.6 2.6 2.7.6 1.1 1 2.3 1 3.6 0 .6-.2.9-.5 1.2zm-10.2-2.3h7.2v-.2c-.1-.8-.5-1.4-1.1-2-.7-.6-1.5-.8-2.3-.8-2.2 0-3.4 1-3.8 3zM586.7 192.5c.4.3.6.7.6 1.1 0 .6-.1 1-.4 1.3-.3.3-.6.4-1 .4-.3 0-.6-.1-.9-.2-.1 0-.2-.1-.4-.1-.2-.1-.4-.1-.6-.1-.5 0-.9.1-1.4.4-.4.3-.8.7-1.1 1.3-.3.6-.4 1.3-.4 2.1v6.5c0 .5-.2.9-.5 1.2-.3.3-.7.5-1.2.5s-.9-.2-1.2-.5c-.3-.3-.5-.7-.5-1.2V194c0-.5.2-.9.5-1.2.3-.3.7-.5 1.2-.5s.9.2 1.2.5c.3.3.5.7.5 1.2v.4c.4-.8 1-1.3 1.8-1.7.8-.4 1.6-.6 2.5-.6.5-.1 1 .1 1.3.4zM595.4 190.1c-.3.4-.4.7-.4 1.2v1.3h2.5c.4 0 .8.1 1.1.4.3.3.4.6.4 1.1 0 .4-.1.8-.4 1.1-.3.3-.7.4-1.1.4H595v9.8c0 .5-.2.9-.5 1.2-.3.3-.7.5-1.2.5s-.9-.2-1.2-.5c-.3-.3-.5-.7-.5-1.2v-9.8h-1.5c-.4 0-.8-.1-1.1-.4-.3-.3-.4-.6-.4-1.1 0-.4.1-.8.4-1.1.3-.3.7-.4 1.1-.4h1.5v-1.3c0-1.4.5-2.5 1.4-3.4.9-.9 2.3-1.3 4.1-1.3.7 0 1.3.1 1.8.4.5.3.8.7.8 1.3 0 .4-.1.8-.4 1.1-.3.3-.6.4-.9.4h-.3c-.1 0-.2 0-.3-.1-.4-.1-.8-.2-1.1-.2-.6.1-1 .3-1.3.6zM614.3 203.7c-.7 1.2-1.6 2.1-2.7 2.7-1.1.6-2.4 1-3.8 1s-2.7-.3-3.8-1c-1.1-.6-2-1.5-2.7-2.7-.7-1.2-1-2.5-1-4s.3-2.8 1-4c.7-1.2 1.6-2.1 2.7-2.7 1.1-.7 2.4-1 3.8-1s2.6.3 3.8 1c1.1.7 2.1 1.6 2.7 2.7.7 1.2 1 2.5 1 4s-.3 2.8-1 4zm-2.9-6.4c-.4-.7-.9-1.3-1.5-1.6-.6-.4-1.3-.6-2.1-.6s-1.5.2-2.1.6c-.6.4-1.1.9-1.5 1.6-.4.7-.6 1.5-.6 2.4 0 .9.2 1.7.6 2.4.4.7.9 1.2 1.5 1.6.6.4 1.3.6 2.1.6s1.5-.2 2.1-.6c.6-.4 1.1-.9 1.5-1.6.4-.7.6-1.5.6-2.4 0-.9-.2-1.7-.6-2.4zM627.1 192.5c.4.3.6.7.6 1.1 0 .6-.1 1-.4 1.3-.3.3-.6.4-1 .4-.3 0-.6-.1-.9-.2-.1 0-.2-.1-.4-.1s-.4-.1-.6-.1c-.5 0-.9.1-1.4.4-.4.3-.8.7-1.1 1.3-.3.6-.4 1.3-.4 2.1v6.5c0 .5-.2.9-.5 1.2-.3.3-.7.5-1.2.5s-.9-.2-1.2-.5c-.3-.3-.5-.7-.5-1.2V194c0-.5.2-.9.5-1.2.3-.3.7-.5 1.2-.5s.9.2 1.2.5c.3.3.5.7.5 1.2v.4c.4-.8 1-1.3 1.8-1.7.8-.4 1.6-.6 2.5-.6.5-.1.9.1 1.3.4zM650.8 193.7c.7 1.1 1 2.6 1 4.6v7.1c0 .5-.2.9-.5 1.2-.3.3-.7.5-1.2.5s-.9-.2-1.2-.5c-.3-.3-.5-.7-.5-1.2v-7.1c0-1-.2-1.8-.6-2.4-.4-.6-1.1-.9-2.1-.9s-1.8.3-2.4.9c-.6.6-.9 1.4-.9 2.3v7.1c0 .5-.2.9-.5 1.2-.3.3-.7.5-1.2.5s-.9-.2-1.2-.5c-.3-.3-.5-.7-.5-1.2v-7.1c0-1-.2-1.8-.6-2.4-.4-.6-1.1-.9-2.1-.9s-1.8.3-2.4.9c-.6.6-.9 1.4-.9 2.3v7.1c0 .5-.2.9-.5 1.2-.3.3-.7.5-1.2.5s-.9-.2-1.2-.5c-.3-.3-.5-.7-.5-1.2V194c0-.5.2-.9.5-1.2.3-.3.7-.5 1.2-.5s.9.2 1.2.5c.3.3.5.7.5 1.2v.4c.5-.7 1.1-1.2 1.9-1.7.8-.5 1.6-.7 2.5-.7 2.3 0 3.8 1 4.4 3 .4-.8 1.1-1.5 1.9-2.1.9-.6 1.8-.9 2.9-.9 2.2 0 3.5.6 4.2 1.7zM668.5 192.5c.3.3.5.7.5 1.2v11.7c0 .5-.2.9-.5 1.2-.3.3-.7.5-1.2.5s-.9-.2-1.2-.5c-.3-.3-.5-.7-.5-1.2-.5.5-1.1 1-1.9 1.4-.8.4-1.6.6-2.5.6-1.3 0-2.4-.3-3.4-1s-1.8-1.6-2.4-2.7c-.6-1.2-.9-2.5-.9-3.9 0-1.5.3-2.8.9-4 .6-1.2 1.4-2.1 2.4-2.7 1-.7 2.1-1 3.4-1 .9 0 1.7.2 2.5.5s1.4.7 2 1.2c0-.5.2-.9.5-1.2.3-.3.7-.5 1.2-.5.4-.1.8.1 1.1.4zm-3.8 10.5c.8-.9 1.1-2 1.1-3.3 0-1.3-.4-2.4-1.1-3.3-.8-.9-1.7-1.3-2.9-1.3s-2.1.4-2.9 1.3c-.8.9-1.1 2-1.1 3.3 0 1.3.4 2.4 1.1 3.3.7.9 1.7 1.3 2.9 1.3s2.1-.4 2.9-1.3zM684.3 193.7c.7 1.1 1.1 2.6 1.1 4.6v7.1c0 .5-.2.9-.5 1.2-.3.3-.7.5-1.2.5s-.9-.2-1.2-.5c-.3-.3-.5-.7-.5-1.2v-7.1c0-1-.2-1.8-.6-2.4-.4-.6-1.1-.9-2.2-.9s-1.9.3-2.5.9c-.6.6-.9 1.4-.9 2.3v7.1c0 .5-.2.9-.5 1.2-.3.3-.7.5-1.2.5s-.9-.2-1.2-.5c-.3-.3-.5-.7-.5-1.2V194c0-.5.2-.9.5-1.2.3-.3.7-.5 1.2-.5s.9.2 1.2.5c.3.3.5.7.5 1.2v.5c.5-.7 1.1-1.2 1.9-1.7.8-.5 1.7-.7 2.6-.7 2-.1 3.3.5 4 1.6zM699.2 192.8c1 .5 1.4 1.1 1.4 1.9 0 .4-.1.8-.4 1.1-.2.3-.6.5-.9.5-.3 0-.5 0-.7-.1-.2-.1-.4-.2-.5-.3-.2-.1-.3-.3-.5-.3-.2-.1-.5-.2-.8-.2-.4-.1-.6-.1-.9-.1-1.4 0-2.5.4-3.2 1.3-.8.9-1.2 2-1.2 3.3 0 1.3.4 2.4 1.2 3.3.8.9 1.8 1.3 3 1.3.9 0 1.6-.1 2-.3.1-.1.3-.2.5-.3.2-.1.4-.2.5-.3.2-.1.4-.1.6-.1.5 0 .8.1 1.1.4.3.3.4.7.4 1.1 0 .4-.3.9-.8 1.2-.5.4-1.2.7-2 .9-.8.2-1.7.3-2.7.3-1.4 0-2.7-.3-3.7-1-1.1-.7-1.9-1.6-2.5-2.7-.6-1.2-.9-2.5-.9-3.9 0-1.5.3-2.8.9-4 .6-1.2 1.5-2.1 2.6-2.7 1.1-.7 2.4-1 3.7-1 1.6-.1 2.8.2 3.8.7zM715.9 200.4c-.3.3-.7.4-1.2.4h-9.1c.2 1.1.7 1.9 1.5 2.5.8.6 1.7.9 2.7.9.8 0 1.3-.1 1.8-.2.4-.1.8-.3 1-.4.2-.2.4-.3.5-.3.3-.2.6-.2.9-.2.4 0 .7.1 1 .4.3.3.4.6.4 1 0 .5-.3.9-.8 1.3s-1.2.8-2.1 1.1c-.9.3-1.7.4-2.6.4-1.5 0-2.9-.3-4-1-1.1-.6-2-1.5-2.7-2.7-.6-1.1-.9-2.4-.9-3.8 0-1.6.3-3 1-4.2.7-1.2 1.5-2.1 2.6-2.7 1.1-.6 2.2-1 3.5-1 1.2 0 2.4.3 3.4 1 1.1.7 1.9 1.6 2.6 2.7.6 1.1 1 2.3 1 3.6 0 .6-.2.9-.5 1.2zm-10.2-2.3h7.2v-.2c-.1-.8-.4-1.4-1.1-2-.7-.6-1.5-.8-2.3-.8-2.2 0-3.5 1-3.8 3z"/></g><g fill="#FFC26A"><path d="M547.2 245.7c-.9-.4-1.6-1-2.2-1.8-.2-.3-.3-.7-.3-1 0-.4.2-.8.5-1.1.3-.3.7-.5 1.1-.5.5 0 1 .3 1.5.8.3.3.7.6 1.1.7.4.1.8.2 1.2.2.5 0 1-.1 1.5-.4.5-.3.9-.6 1.2-1.1.3-.5.4-1 .4-1.5v-11.6c0-.5.2-.9.5-1.2.3-.3.8-.5 1.2-.5.5 0 .9.2 1.2.5.3.3.5.7.5 1.2V240c0 1.1-.3 2.1-.9 3.1-.6 1-1.4 1.7-2.4 2.3-1 .6-2.1.9-3.3.9-.9.1-1.9-.1-2.8-.6zM573.7 231.5c.3.3.5.7.5 1.2v11.7c0 .5-.2.9-.5 1.2-.3.3-.7.5-1.2.5s-.9-.2-1.2-.5c-.3-.3-.5-.7-.5-1.2-.5.5-1.1 1-1.9 1.4-.8.4-1.6.6-2.5.6-1.3 0-2.4-.3-3.4-1s-1.8-1.6-2.4-2.7c-.6-1.2-.9-2.5-.9-3.9 0-1.5.3-2.8.9-4 .6-1.2 1.4-2.1 2.4-2.7 1-.7 2.1-1 3.4-1 .9 0 1.7.2 2.5.5s1.4.7 2 1.2c0-.5.2-.9.5-1.2.3-.3.7-.5 1.2-.5.4 0 .8.1 1.1.4zm-3.8 10.5c.8-.9 1.1-2 1.1-3.3 0-1.3-.4-2.4-1.1-3.3-.8-.9-1.7-1.3-2.9-1.3s-2.1.4-2.9 1.3c-.8.9-1.1 2-1.1 3.3 0 1.3.4 2.4 1.1 3.3.7.9 1.7 1.3 2.9 1.3 1.1 0 2.1-.4 2.9-1.3zM589.8 231.8c.3.3.4.6.4 1.1 0 .2-.1.5-.2.8l-5.2 11.4c-.1.3-.3.6-.6.7-.2.2-.5.3-.8.3h-.2c-.3 0-.6-.1-.9-.3-.3-.2-.5-.5-.6-.8l-5.1-11.4c-.1-.3-.2-.6-.2-.9 0-.4.2-.7.5-1 .3-.3.7-.5 1.2-.5.3 0 .7.1 1 .3.3.2.5.4.7.8l3.8 8.7 3.8-8.7c.1-.3.3-.6.6-.8.3-.2.5-.3.9-.2.3.1.6.2.9.5zM605.9 231.5c.3.3.5.7.5 1.2v11.7c0 .5-.2.9-.5 1.2-.3.3-.7.5-1.2.5s-.9-.2-1.2-.5c-.3-.3-.5-.7-.5-1.2-.5.5-1.1 1-1.9 1.4-.8.4-1.6.6-2.5.6-1.3 0-2.4-.3-3.4-1s-1.8-1.6-2.4-2.7c-.6-1.2-.9-2.5-.9-3.9 0-1.5.3-2.8.9-4 .6-1.2 1.4-2.1 2.4-2.7 1-.7 2.1-1 3.4-1 .9 0 1.7.2 2.5.5s1.4.7 2 1.2c0-.5.2-.9.5-1.2.3-.3.7-.5 1.2-.5.4 0 .8.1 1.1.4zm-3.8 10.5c.8-.9 1.1-2 1.1-3.3 0-1.3-.4-2.4-1.1-3.3-.8-.9-1.7-1.3-2.9-1.3s-2.1.4-2.9 1.3c-.8.9-1.1 2-1.1 3.3 0 1.3.4 2.4 1.1 3.3.7.9 1.7 1.3 2.9 1.3s2.2-.4 2.9-1.3zM608.9 243c0-.5.2-.9.7-1.2.3-.2.5-.2.8-.2.4 0 .8.2 1.1.5.6.6 1.1 1 1.7 1.3.6.3 1.3.4 2.2.4 1.4-.1 2.1-.6 2.1-1.6 0-.5-.2-.9-.7-1.2-.5-.3-1.2-.6-2.3-.8-1.1-.3-1.9-.6-2.6-.9-.7-.3-1.2-.7-1.7-1.3-.5-.6-.7-1.4-.7-2.4 0-.9.3-1.6.8-2.3.5-.7 1.2-1.2 2-1.5.8-.4 1.7-.5 2.6-.5.9 0 1.9.2 2.8.5.9.3 1.7.9 2.2 1.5.2.3.4.6.4 1s-.2.8-.5 1c-.3.2-.6.3-.9.3-.4 0-.7-.1-1-.4-.3-.4-.8-.7-1.3-1-.5-.2-1.1-.4-1.8-.4-1.4 0-2.1.5-2.1 1.5 0 .4.1.7.4 1 .3.2.6.4 1 .6.4.1 1 .3 1.7.5 1 .3 1.8.6 2.5.9.7.3 1.2.7 1.7 1.3.5.6.7 1.4.7 2.4 0 .9-.3 1.7-.8 2.4s-1.2 1.2-2.1 1.5c-.8.3-1.7.5-2.6.5-1.2 0-2.3-.2-3.4-.6-1-.4-1.9-1.1-2.6-2-.2-.2-.3-.5-.3-.8zM633.5 231.8c1 .5 1.4 1.1 1.4 1.9 0 .4-.1.8-.4 1.1-.2.3-.6.5-.9.5-.3 0-.5 0-.7-.1-.2-.1-.4-.2-.5-.3-.2-.1-.3-.3-.5-.3-.2-.1-.5-.2-.8-.2-.4-.1-.6-.1-.9-.1-1.4 0-2.5.4-3.2 1.3-.8.9-1.2 2-1.2 3.3 0 1.3.4 2.4 1.2 3.3.8.9 1.8 1.3 3 1.3.9 0 1.6-.1 2-.3.1-.1.3-.2.5-.3.2-.1.4-.2.5-.3.2-.1.4-.1.6-.1.5 0 .8.1 1.1.4.3.3.4.7.4 1.1 0 .4-.3.9-.8 1.2-.5.4-1.2.7-2 .9-.8.2-1.7.3-2.7.3-1.4 0-2.7-.3-3.7-1-1.1-.7-1.9-1.6-2.5-2.7-.6-1.2-.9-2.5-.9-3.9 0-1.5.3-2.8.9-4 .6-1.2 1.5-2.1 2.6-2.7 1.1-.7 2.4-1 3.7-1 1.6 0 2.8.2 3.8.7zM646.5 231.5c.4.3.6.7.6 1.1 0 .6-.1 1-.4 1.3-.3.3-.6.4-1 .4-.3 0-.6-.1-.9-.2-.1 0-.2-.1-.4-.1-.2-.1-.4-.1-.6-.1-.5 0-.9.1-1.4.4-.4.3-.8.7-1.1 1.3-.3.6-.4 1.3-.4 2.1v6.5c0 .5-.2.9-.5 1.2-.3.3-.7.5-1.2.5s-.9-.2-1.2-.5c-.3-.3-.5-.7-.5-1.2V233c0-.5.2-.9.5-1.2.3-.3.7-.5 1.2-.5s.9.2 1.2.5c.3.3.5.7.5 1.2v.4c.4-.8 1-1.3 1.8-1.7.8-.4 1.6-.6 2.5-.6.5 0 .9.1 1.3.4zM649.5 229.3c-.3-.2-.4-.6-.4-1.1v-.5c0-.5.1-.9.4-1.1.3-.2.7-.3 1.3-.3.6 0 1.1.1 1.3.3.3.2.4.6.4 1.1v.5c0 .5-.1.9-.4 1.1-.3.2-.7.3-1.4.3-.5 0-.9-.1-1.2-.3zm2.6 16.3c-.3.3-.7.5-1.2.5s-.9-.2-1.2-.5c-.3-.3-.5-.7-.5-1.2V233c0-.5.2-.9.5-1.2.3-.3.7-.5 1.2-.5s.9.2 1.2.5c.3.3.5.7.5 1.2v11.4c-.1.5-.2.9-.5 1.2zM667 232.1c1 .7 1.8 1.6 2.4 2.7.6 1.2.9 2.5.9 3.9 0 1.5-.3 2.8-.9 4-.6 1.2-1.4 2.1-2.4 2.7-1 .7-2.1 1-3.4 1-.9 0-1.7-.2-2.5-.5-.8-.4-1.4-.8-1.9-1.3v5.4c0 .5-.2.9-.5 1.2-.3.3-.7.5-1.2.5s-.9-.2-1.2-.5c-.3-.3-.5-.7-.5-1.2v-17c0-.5.2-.9.5-1.2.3-.3.7-.5 1.2-.5s.9.2 1.2.5c.3.3.5.7.5 1.2v.1c.4-.6 1.1-1 1.8-1.4.8-.4 1.6-.6 2.5-.6 1.3 0 2.5.3 3.5 1zm-1 9.9c.8-.9 1.1-2 1.1-3.3s-.4-2.4-1.1-3.3c-.7-.9-1.7-1.3-2.9-1.3s-2.2.4-2.9 1.3c-.8.9-1.1 2-1.1 3.3s.4 2.4 1.1 3.3c.8.9 1.7 1.3 2.9 1.3s2.2-.4 2.9-1.3zM680.9 243.3c.2.2.3.6.3 1 0 .5-.3.9-.8 1.3-.5.3-1.2.5-1.8.5-1.1 0-2.1-.2-2.9-.7-.8-.5-1.2-1.5-1.2-3.1v-7.6h-1.3c-.4 0-.8-.1-1.1-.4-.3-.3-.4-.7-.4-1.1 0-.4.1-.8.4-1.1.3-.3.7-.4 1.1-.4h1.3v-1.8c0-.5.2-.9.5-1.2.3-.3.7-.5 1.2-.5s.8.2 1.2.5c.3.3.5.7.5 1.2v1.8h2c.4 0 .8.1 1.1.4.3.3.4.7.4 1.1 0 .4-.1.8-.4 1.1-.3.3-.7.4-1.1.4h-2v7.5c0 .4.1.7.3.8.2.2.5.3.8.3.1 0 .3 0 .6-.1.2-.1.4-.1.6-.1.3-.1.5 0 .7.2z"/></g><g fill="#30ABAA"><path d="M568.5 149.2c.4.3.6.8.6 1.3 0 .2 0 .3-.1.6l-5.4 16c-.1.3-.3.6-.6.7-.3.2-.6.3-.9.3-.3 0-.6-.1-.9-.3-.3-.2-.5-.4-.7-.8l-3.9-8.9-3.9 8.9c-.2.3-.4.6-.7.8-.3.2-.6.3-.9.3-.3 0-.6-.1-.9-.3-.3-.2-.5-.4-.6-.7l-5.4-16c-.1-.2-.1-.4-.1-.6 0-.5.2-.9.6-1.3.4-.3.8-.5 1.3-.5.4 0 .7.1 1 .3.3.2.5.5.6.8l4.1 12.5 3.6-8.6c.1-.3.4-.6.6-.8.3-.2.6-.3.9-.3.3 0 .7.1.9.3.3.2.5.5.6.8l3.4 8.5 4.1-12.4c.1-.3.3-.6.6-.8.3-.2.6-.3 1-.3s.8.1 1.1.5zM583.6 161.4c-.3.3-.7.4-1.2.4h-9.1c.2 1.1.7 1.9 1.5 2.5.8.6 1.7.9 2.7.9.8 0 1.3-.1 1.8-.2.4-.1.8-.3 1-.4.2-.2.4-.3.5-.3.3-.2.6-.2.9-.2.4 0 .7.1 1 .4.3.3.4.6.4 1 0 .5-.3.9-.8 1.3s-1.2.8-2.1 1.1c-.9.3-1.7.4-2.6.4-1.5 0-2.9-.3-4-1-1.1-.6-2-1.5-2.7-2.7-.6-1.1-.9-2.4-.9-3.8 0-1.6.3-3 1-4.2.7-1.2 1.5-2.1 2.6-2.7 1.1-.6 2.2-1 3.5-1 1.2 0 2.4.3 3.4 1 1.1.7 1.9 1.6 2.6 2.7.6 1.1 1 2.3 1 3.6 0 .6-.1.9-.5 1.2zm-10.2-2.4h7.2v-.2c-.1-.8-.5-1.4-1.1-2-.7-.6-1.5-.8-2.3-.8-2.1 0-3.4 1-3.8 3zM598 154c1 .7 1.8 1.6 2.4 2.7.6 1.2.9 2.5.9 3.9 0 1.5-.3 2.8-.9 4-.6 1.2-1.4 2.1-2.4 2.7-1 .7-2.1 1-3.4 1-.9 0-1.7-.2-2.5-.5-.8-.4-1.4-.8-1.9-1.3v.2c0 .5-.2.9-.5 1.2-.3.3-.7.5-1.2.5s-.9-.2-1.2-.5c-.3-.3-.5-.7-.5-1.2v-17.3c0-.5.2-.9.5-1.2.3-.3.7-.5 1.2-.5s.9.2 1.2.5c.3.3.5.7.5 1.2v5.8c.4-.6 1.1-1 1.8-1.4.8-.4 1.6-.6 2.5-.6 1.3-.2 2.5.1 3.5.8zm-1 10c.8-.9 1.1-2 1.1-3.3s-.4-2.4-1.1-3.3c-.7-.9-1.7-1.3-2.9-1.3s-2.2.4-2.9 1.3c-.8.9-1.1 2-1.1 3.3s.4 2.4 1.1 3.3c.8.9 1.7 1.3 2.9 1.3s2.2-.5 2.9-1.3zM609.8 151.1c-.3.4-.4.7-.4 1.2v1.3h2.5c.4 0 .8.1 1.1.4.3.3.4.6.4 1.1 0 .4-.1.8-.4 1.1-.3.3-.7.4-1.1.4h-2.5v9.8c0 .5-.2.9-.5 1.2-.3.3-.7.5-1.2.5s-.9-.2-1.2-.5c-.3-.3-.5-.7-.5-1.2v-9.8h-1.5c-.4 0-.8-.1-1.1-.4-.3-.3-.4-.6-.4-1.1 0-.4.1-.8.4-1.1.3-.3.7-.4 1.1-.4h1.5v-1.3c0-1.4.5-2.5 1.4-3.4.9-.9 2.3-1.3 4.1-1.3.7 0 1.3.1 1.8.4.5.3.8.7.8 1.3 0 .4-.1.8-.4 1.1-.3.3-.6.4-.9.4h-.3c-.1 0-.2 0-.3-.1-.4-.1-.8-.2-1.1-.2-.6.1-1 .2-1.3.6zM628.7 164.6c-.7 1.2-1.6 2.1-2.7 2.7-1.1.6-2.4 1-3.8 1s-2.7-.3-3.8-1c-1.1-.6-2-1.5-2.7-2.7-.7-1.2-1-2.5-1-4s.3-2.8 1-4c.7-1.2 1.6-2.1 2.7-2.7 1.1-.7 2.4-1 3.8-1s2.6.3 3.8 1c1.1.7 2.1 1.6 2.7 2.7.7 1.2 1 2.5 1 4s-.3 2.9-1 4zm-2.8-6.3c-.4-.7-.9-1.3-1.5-1.6-.6-.4-1.3-.6-2.1-.6s-1.5.2-2.1.6c-.6.4-1.1.9-1.5 1.6-.4.7-.6 1.5-.6 2.4 0 .9.2 1.7.6 2.4.4.7.9 1.2 1.5 1.6.6.4 1.3.6 2.1.6s1.5-.2 2.1-.6c.6-.4 1.1-.9 1.5-1.6.4-.7.6-1.5.6-2.4-.1-.9-.3-1.7-.6-2.4zM644.2 154.7c.7 1.1 1.1 2.6 1.1 4.6v7.1c0 .5-.2.9-.5 1.2-.3.3-.7.5-1.2.5s-.9-.2-1.2-.5c-.3-.3-.5-.7-.5-1.2v-7.1c0-1-.2-1.8-.6-2.4-.4-.6-1.1-.9-2.2-.9s-1.9.3-2.5.9c-.6.6-.9 1.4-.9 2.3v7.1c0 .5-.2.9-.5 1.2-.3.3-.7.5-1.2.5s-.9-.2-1.2-.5c-.3-.3-.5-.7-.5-1.2V155c0-.5.2-.9.5-1.2.3-.3.7-.5 1.2-.5s.9.2 1.2.5c.3.3.5.7.5 1.2v.5c.5-.7 1.1-1.2 1.9-1.7.8-.5 1.7-.7 2.6-.7 2-.1 3.3.5 4 1.6zM656.7 165.3c.2.2.3.6.3 1 0 .5-.3.9-.8 1.3-.5.3-1.2.5-1.8.5-1.1 0-2.1-.2-2.9-.7-.8-.5-1.2-1.5-1.2-3.1v-7.6H649c-.4 0-.8-.1-1.1-.4-.3-.3-.4-.7-.4-1.1 0-.4.1-.8.4-1.1.3-.3.7-.4 1.1-.4h1.3v-1.8c0-.5.2-.9.5-1.2.3-.3.7-.5 1.2-.5s.8.2 1.2.5c.3.3.5.7.5 1.2v1.8h2c.4 0 .8.1 1.1.4.3.3.4.7.4 1.1 0 .4-.1.8-.4 1.1-.3.3-.7.4-1.1.4h-2v7.5c0 .4.1.7.3.8.2.2.5.3.8.3.1 0 .3 0 .6-.1.2-.1.4-.1.6-.1.3-.2.5-.1.7.2zM659.6 164.9c0-.5.2-.9.7-1.2.3-.2.5-.2.8-.2.4 0 .8.2 1.1.5.6.6 1.1 1 1.7 1.3.6.3 1.3.4 2.2.4 1.4-.1 2.1-.6 2.1-1.6 0-.5-.2-.9-.7-1.2-.5-.3-1.2-.6-2.3-.8-1.1-.3-1.9-.6-2.6-.9-.7-.3-1.2-.7-1.7-1.3-.5-.6-.7-1.4-.7-2.4 0-.9.3-1.6.8-2.3.5-.7 1.2-1.2 2-1.5.8-.4 1.7-.5 2.6-.5.9 0 1.9.2 2.8.5.9.3 1.7.9 2.2 1.5.2.3.4.6.4 1s-.2.8-.5 1c-.3.2-.6.3-.9.3-.4 0-.7-.1-1-.4-.3-.4-.8-.7-1.3-1-.5-.2-1.1-.4-1.8-.4-1.4 0-2.1.5-2.1 1.5 0 .4.1.7.4 1 .3.2.6.4 1 .6.4.1 1 .3 1.7.5 1 .3 1.8.6 2.5.9.7.3 1.2.7 1.7 1.3.5.6.7 1.4.7 2.4 0 .9-.3 1.7-.8 2.4s-1.2 1.2-2.1 1.5c-.8.3-1.7.5-2.6.5-1.2 0-2.3-.2-3.4-.6-1-.4-1.9-1.1-2.6-2-.2-.2-.3-.5-.3-.8z"/></g></svg>