<svg xmlns="http://www.w3.org/2000/svg" viewBox="-10.1 84.6 769 330.9"><path fill="#36BADF" d="M-10.1 84.6h769v330.9h-769z"/><g fill="#FFF"><path d="M613.4 117.5c1.8.4 2 2.5 2.8 4.1-1.5 0-1.6 1.7-3.6 1.1-1.1-1.9-.7-4.1.8-5.2zM613.8 93h.8c-.1.4-.7.6-.8 0zM614.1 148.1c.4-2.3.8-1.7 2-3 .1 2.1 1.9 3 .4 4.5-1.5.5-1.4-1.2-2.4-1.5zM616.5 173.7c1.6-.2 1.1 2.4 2.5 2.5-.5 1.1-1.3 1.8-2.4 2-2-.9-1.8-3.5-.1-4.5zM617.3 356.7c-.2.2.3-.3 0 0zM618.1 209.8c0-2.9-.5-6.3 2-6 0 2.6 1.8 3.1 2 5.5-1.1 1.4-2.5 1.8-4 .5zM620.1 261.9c1.1.7 1.3-.4 2.4.5-.4 2.2 0 1.7.4 3.5.5-.2.8-.6.8-1.5 3.5 7.2-8.6 6.9-3.6-2.5zM619.8 230.8c1.9-.5 2.4 1.1 3.6 1.5-1.1 1.7.4 3.2 1.1 4.1-2.1 5.4-7.5-1.9-4.7-5.6zM620.6 307.1c.1-2.6.6-4.5 2.4-5 2 .2 1.5 3.5 2 5.5-1.4 1.2-3.5 1.2-4.4-.5zM622.2 393.3c-1.6-2.9-2.2-10.6 1.1-10.5 2.9 0 5 10.6-1.1 10.5zM623 352.2c.3.1.4.5.8.5 3.2 1.9 3.3 10-.4 9.5-2.9-.4-3.6-8.3-.4-10zM621.7 325.1c5.2-1.9 5.6 9.4 2 9.5-2.9.1-3.6-5.6-2-9.5zM623.4 263.4c-.2.2.3-.3 0 0zM625 235.8c-.5-.1-.4-.9-.4-1.5.5.1.3.9.4 1.5zM637 186.3c1.3 1.2.6 5.2 2.8 5.5-.9 2.7-.5 7-4.4 6-1.7-2.8-2.1-11.2 1.6-11.5zM636.2 95.5c2.8.2 3.1 3.5 4.1 6-.8-.2-.7.7-.8 1.5h-2.8c-1.3-1.7-2.5-5.9-.5-7.5zM639.8 401.8h-3.2c-1.2-1.4-.8-5.5 1.6-6 1.4.8 1.4 4.5 1.6 6zM637.4 119.6h1.6c1.7 2.3 1.8 6.5 3.2 9-.6 1.6-1.8 2.5-4 2-1.5-2.2-3.1-8.5-.8-11zM641.9 360.7c2.6 3.4 1.4 14.3-2.4 13.6-4.2-.9-1.7-13.2 2.4-13.6zm-1.6 3.5c.2-.3-.2.2 0 0zM640.3 155.6c.6 1.5.9 3.5 2 4.5-2.7 7.3-8-3.6-2-4.5zM639.8 329.6h2.4c.7 2.3-.5 4.1 1.1 4.5-.7 8.7-7.2.3-3.5-4.5zM639.5 296c.6 0 1.6.2 1.6-.5 1.8 1.8.8 3.9 2 6.5-3 4.3-6.1-2.3-3.6-6zM639.5 324.6c-.2.2.2-.3 0 0zM639.5 233.4c1.1-.6 2-.6 3.2 0 0 1.8-.4 4.1.8 4.5-1.6 5.4-6.2.6-4-4.5zM643.1 265c-.4 2.6.4 4.1 1.6 5-2.8 11.2-9.4-7.3-1.6-5zM641.9 125.1c.7.1.9.9.8 2-.8-.1-.9-.8-.8-2zM643.4 200.7c-.5-.1-.4-1.1 0-1.1.7.4 0 .6 0 1.1z"/><path d="M644.2 268.4c-.1-.1-.7-1.1-.4-1.5.3-.3 1.1 2 .4 1.5zM657.1 178.8c3.5 1.4 1.4 8.5-2 6.5-1.2-2.8.3-5.8 2-6.5zm.8 3.9c.2-.3-.2.2 0 0zm0-1c.2-.3-.2.2 0 0zM655.1 126.1c1.1-.1 1.7-1 2.8-1.1 2.2 1.8 1.9 6.7-.4 8-3.4.1-2.7-3.4-2.4-6.9zM659.1 95.5c3.6 2.4.4 11.4-3.2 7.5.6-3.1.3-7.3 3.2-7.5zM656.3 159.2c0-2.4-.2-4.9.4-6.5 1.7.1 1.6-.6 2.8 0 2.1 2.7.1 8.8-3.2 6.5zM658.7 210.8c3.8.6 2.4 9.2-1.6 6.5-.9-3.8.8-3.9 1.6-6.5zM659.9 300.5c.9-.1.9-1.3 0-1.5.1-.4.4-.6.8-.5.3.7.5 0 0 0-.7-1 .2-.9 0-2.5h1.6c1.1 2.6 1.1 6.2-1.1 7.1-.4-1.1-2-.4-2-2 .2-.1.7 0 .7-.6zm1.6-.9c.1.4 0 1 .4 1.1-.1-.5 0-1.1-.4-1.1zM659.5 299.6c-.4 0-.3-.8 0 0zM662 238.8c0 .6-.5.7-.4 1.5-1.9.3-2.2-1.2-2.4-3 1.9 1.6.4-1.6 2-1.5-.1 1.4-.3 3 .8 3zM659.5 326.1c-.3-1.8.6-1.9.4-3.5 2.8.4.3-.9 1.1-2 1.3.6 1.9 2.4 1.6 5-1.4-.4-1.6.9-3.1.5zm2-3c.1.4 0 1 .4 1.1-.1-.5 0-1.1-.4-1.1z"/><path d="M659.9 300.5c-.4-.1-.5-.4-.4-1.1.4.2.4.5.4 1.1zM661.1 395.3c0-1.2.6-1.9 1.6-2-1.4-1.8.9-1.5.4-4 2.3-.1 2.4 2.4 2.4 5-1.9 1.6-2.5 2-4.4 1zM661.1 372.7c-.2-1.7.3-2.4.4-3.5 1.2.1.6.8 2.4 1.1-.6-.8-1.4-1.2-1.1-3 1.9.7 1.9 3 2 5-1.1-.4-1.4.2-1.1 1.5-1.1-.2-1.9-.7-2.6-1.1zM663.1 277.5v1.5c.3-.1.4-.5.8-.5.2-.8-.3-.9-.8-1 .3-.6.9-1 1.6-1.1-.1 2.8 0 4.1-2 5-.7-.1-1.3-.3-1.6-1.1.4-1.1.8-2 1.1-3 .4.2.7.2.9.2zM663.5 346.7c2.6 1.8 1.9 5.1.4 7.5-3.3-.6-1.6-5.7-.4-7.5zM662 238.8c0-.6.1-1.1.8-1.1v1.1h-.8zM662.8 276.5c-1.7-.6 1.5-.6 0 0zM662.8 236.9c-.2.2.1-.3 0 0zM663.5 257.9h.4c-.1-.5-.4-.3-.4 0h-.8c-.2-2.5 1.1-.3 1.1-2.5.6 0 .9 3.7-.4 3 .1-.1.1-.3.1-.5zM672.7 120.1c1.2-.7 1.4.2 3.2 0 4.3 8.8-8.1 9.9-3.2 0zm1.3 3c.2-.4-.2.2 0 0zm.8-2c-.4 0-.5.9 0 1.1 0-.7.6-.9 0-1.1zM672.7 96c2.3.4 1.5 1.9 3.6.5.8 2.6-.2 4.3-1.1 6-4.1.6-4.1-3.9-2.5-6.5zm2.5 2.5c.2-.3-.2.2 0 0zM674 176.2c4.2-2.9 7.4 8.1 2.8 10.5-3-.9-3.2-7-2.8-10.5zM677.1 151.7H676c0 1.4 1 1.4 2 1.5-.6 1.7-1.4 2.9-3.2 3-.9-.9-1.3-2.4-1.1-4.5 1.1.3 3.5-2.1 3.4 0zm-.7 1.9c.2-.3-.2.2 0 0zM680.8 236.9c1.1 1.9 1.9 4 1.6 7.5-4.6 7.8-9.4-10.8-1.6-7.5zM678 207.3c4.9 0 5.1 9.8 1.6 9.5-2.5-.2-4.9-6.9-1.6-9.5z"/><path d="M677.1 151.7c.6-.1.3.7 0 0zM683.9 284c-1.7.8-2.9 1.9-4.4.5-1.4-4.3-1.8-11.3 2-10.5 2.4.4 3.4 6 2.4 10zM682 358.2c4.4.6 4.1 11.5-.4 11.6-.1-1.1-1.1-1.1-1.6-1.5.3-4.5-1.9-7.8.4-10.5 1-.8.9 2.2 1.6.4zM684.8 338.1v-.5c-.5.2-.2.5 0 .5v2c-4.1 4-6.4-6.8-1.1-6.5 1.1.7 1.4 2.6 1.6 4.5h-.5zm-1.7-3c.3-.3 0 .2 0 0zm.5 3c.1.4 0 1 .4 1.1-.1-.5-.1-1.1-.4-1.1zM684.4 313.1v-.5c-.5.1-.2.5 0 .5-2.8 4.6-5.5-4.9-3.2-8.6 3.2-1.3 6.5 6.5 3.2 8.6zm-.8-6c-.4 0-.5.9 0 1.1 0-.7.6-.9 0-1.1z"/><path d="M682 358.2c-1.2-.1.4-2.1 0 0zM682.8 387.3c1.7.7 3.3-1.5 4 4-1.6 4.9-6.7.4-4-4zm2.4 2c.2-.4-.2.2 0 0zM685.2 325.6c-.2.2.2-.3 0 0zM700 102.5c.1.4.4.6.8.5-1.1 2-4.2 2.7-5.6.5.6-2.3-.1-3.2 0-6 1.3-.9 1.8.6 3.2 1.1.5 1.4.4 3.6 1.6 3.9zM697.3 119c2.2.3 1.9 3.5 2.4 6 .5 1.2 1.2-.9 1.6.5-.2 1.8-1.1.6-.4 2.5-4.8 5.1-5.8-4.6-3.6-9zM697.3 150.6c1.8-.6 2 0 3.2 1.1-.2 1.9-.2 2.8-.8 5-3.1-.5-2.4-4.1-2.4-6.1zM698.9 183.3c1.1-.2 1.1-1.7 2.8-1.1 1.1 2 0 3.8 1.6 5-2 5.2-5.7.5-4.4-3.9z"/><path d="M700.4 123.5c0 .3.3-.2 0 0zM700 102.5c-.4-2.4 1.9.6 0 0zM702.1 378.8c6.2-2.4 5.7 10.1 1.6 10.1-3.3-.2-2.9-6.6-1.6-10.1zM702.5 355.7c1.7.1 1.9-.8 3.2 0 .4 1.9.5 4 .4 6.5-1.3-.8-1.4 1.8-2.8 1.5-2.8-.5-2.6-5.2-.8-8zm0 4.5c.2-.3-.2.2 0 0zM702.1 326.6c5.9-3 5.6 8.7 1.6 8.6-3.3-.3-2.3-4.9-1.6-8.6zM701.7 154.7c-.2.1.2-.4 0 0zM707.7 309.6c-1.8-.9-2 1.5-2.4 1.5-3.3-.1-3.3-8.1 0-8.6 2.3-.2 3.3 2.2 2.4 7.1zm-2.1-2c.3-.4-.1.2 0 0zM707.3 221.8c0 1.2.2 2.4.8 3-3.1 6.6-7-5.3-2.8-6.5 1.2.5 1 2.8 2 3.5zM705.6 251.4c2 .4 2.5 2.9 4.1 4.1 0 1.8-.6 2.9-.8 4.5-1.1 0-1.4 1.2-3.6 1.1-1.9-1.9-1.2-7.9.3-9.7zM705.6 276c2.6 1.3 4.5 3.7 4.1 9-1.3.3-1.8 1.8-3.6 1.5-.2-.6-.5-1.1-1.1-1.1-.2-3.6-.6-6.5.6-9.4zm.8 5.5c1.6-.7-1.5-.7 0 0zM707.3 221.8v-1.5c.5.4.7 1.1.8 2-.4 0-.5-.4-.8-.5zM708.5 223.8c-.2.2.2-.3 0 0zM718.5 179.7c-.5-.1-.4-1.1 0-1.1.6.3-.1.5 0 1.1zM722.1 241.9c3 .4 2.7 3.4 3.6 5.5-2.8 8.1-8.7-1.3-3.6-5.5zM724.2 207.8c4.1 1 3.9 7.1.8 9.5-6 1-3-7.9-.8-9.5zM724.5 378.3c.8-.2 1.3 3.6 1.6 1.1.6.8 1.1 1.6 1.6 2.5-.4 2.5-1.1 4.5-2.8 5.5-3.5-.8-2.4-7.4-.4-9.1zm2.1 5c-.2-.7.5-2.6-.4-2.5.2 1.5-1 2 .4 2.5zM724.5 328.1c1.2-.3 1.4.9 2.8.5.5 1.4.4 3.5.4 5.5-4 5.1-6.9-2.4-3.2-6zM728.5 276c0 .9-.1 1.6-.4 2-1.1-.4-.8 1.1-1.6 1.1-2.1-.9-2.9-3.4-3.2-6.5 1.1-1.9 3.3-.4 4.8 0-.2.9-.9 3.1.4 3.4zM727 172.7c3 1.8 1.7 10.1-2 8-2.5-1.9-2.4-8.1.4-8.6 1.1 0 .9 2.6 1.6.6zm0 2c0 .6-.1 1.4.4 1.5-.1-.5 0-1.4-.4-1.5zM724.2 139.6c3.2-1.1 7.3 5.3 3.6 9.5-1.4.2-2.6-.1-3.6-.5-.7-3.3-1.3-6 0-9zM726.6 355.1c.8 2-1 4.2 1.6 4.1-.3 1.4-1 2.5-1.6 3.5-3.9.4-3.6-7.7 0-7.6zM724.2 401.8c-.4-2.4.7-3.1 2-3.5.5 2.5 2.6-.2 2.4 3-.7.2-1.8-1.6-1.7.5h-2.7zM727.8 301.5c1.1.9.7 3.7 1.6 5-.5.5-1.5.5-1.6 1.5-3.5.1-3.4-6.2 0-6.5z"/><path d="M728.1 277.9c.6 0 .3.8 0 0zM728.9 401.8h-.4v-.5c.4 0 .5.1.4.5zM728.5 276c0-.6.6-.4 0 0zM728.9 274c-.1.2.3-.4 0 0zM729.4 302.6c-.2.1.2-.4 0 0zM729.4 277.5c-.2.2.2-.4 0 0zM729.7 305c-.4 0-.3-.6-.4-1.1.4.2.3.8.4 1.1zM747 179.2c0-.8-.4-1.3-.8-1.5 0 .9.3 1.3.8 1.5v1.1c-3 1.9-4-2.1-4.4-5 1.7-3.7 6.3-2.6 6 3-.8-.1-.5 1.3-1.6.9zm.8-1.5c-.2-1-.1-2.1-1.1-2-.1 1.3.6 1.6 1.1 2zM747.5 117.1c-.5.1-.4.9-.4 1.5.4-.1.3-1 .4-1.5 3 2.6 2 10.9-2.4 9-1.4-4.1-2.6-8.4-1.1-12.5 1.7.2 2.1 2.3 3.5 3.5zm.3 3c.3-.4-.2.2 0 0z"/></g><path fill="#FFF" d="M327.8 187.8c2.7 0 4.8-2.2 4.8-4.8s-2.2-4.8-4.8-4.8c-2.7 0-4.8 2.2-4.8 4.8 0 2.6 2.2 4.8 4.8 4.8"/><path fill="#FD953A" d="M512.5 153H310.3c-2 0-3.7 1.7-3.7 3.8V359c0 2.1 1.7 3.8 3.7 3.8h202.2c2.1 0 3.8-1.7 3.8-3.8V156.7c-.1-2-1.8-3.7-3.8-3.7m-3.8 50.5H314v-43h194.7v43zM314 211h194.7v144.1H314V211z"/><path fill="#FFF" d="M366 188c2.7 0 4.9-2.2 4.9-5 0-2.7-2.2-5-4.9-5s-5 2.2-5 5c.1 2.7 2.3 5 5 5M346.9 188c2.7 0 4.9-2.2 4.9-5 0-2.7-2.2-5-4.9-5s-5 2.2-5 5c0 2.7 2.2 5 5 5M509.1 398.3c-.1.1-.3.1-.5.1l-13.4-2.1-6.2 12.1c-.2.3-.5.5-.8.4-.3-.1-.6-.3-.7-.7l-2.1-13.4-13.4-2.1c-.3-.1-.6-.3-.7-.7-.1-.3.1-.7.4-.8l12.1-6.2-2.1-13.4c-.1-.3.1-.7.4-.8.3-.2.7-.1.9.1l9.6 9.6 12.1-6.2c.3-.2.7-.1.9.1.2.2.3.6.1.9l-6.2 12.1 9.6 9.6c.2.2.3.6.1.9.1.3 0 .4-.1.5zm-34.5-6.9l11.6 1.8c.3.1.6.3.7.7l1.8 11.6L494 395c.2-.3.5-.5.8-.4l11.6 1.8-8.3-8.3c-.2-.2-.3-.6-.1-.9l5.3-10.4-10.4 5.3c-.3.2-.7.1-.9-.1l-8.3-8.3 1.8 11.6c.1.3-.1.7-.4.8l-10.5 5.3z"/><path fill="#36DFDE" d="M564.8 378.9c-.2 0-.3-.1-.4-.2l-9.6-9.3-11.8 6.3c-.3.2-.7.1-.9-.1-.2-.2-.3-.6-.2-.9l5.8-12-9.6-9.3c-.2-.2-.3-.6-.2-.9.1-.3.5-.5.8-.4l13.2 1.9 5.8-12c.1-.3.5-.5.8-.4.3 0 .6.3.7.6l2.3 13.1 13.2 1.9c.3 0 .6.3.7.6s-.1.7-.4.8l-11.8 6.3 2.3 13.1c.1.3-.1.7-.4.8 0 .1-.1.1-.3.1zM541 354l8.3 8c.2.2.3.6.2.9l-5 10.3 10.2-5.4c.3-.2.7-.1.9.1l8.3 8-2-11.3c-.1-.3.1-.7.4-.8l10.2-5.4-11.4-1.6c-.3 0-.6-.3-.7-.6l-2-11.3-5 10.3c-.1.3-.5.5-.8.4L541 354z"/><path fill="#FD8A39" d="M584.9 325.3c-.3 0-.5 0-.8-.2l-19.1-12-17.3 14.4c-.4.4-1.1.4-1.6.1-.5-.3-.7-.9-.6-1.4l5.5-21.9-19.1-12c-.5-.3-.7-.9-.6-1.4.1-.6.6-1 1.2-1l22.5-1.5 5.5-21.9c.1-.6.6-1 1.2-1s1.1.3 1.3.8l8.4 20.9 22.5-1.5c.6 0 1.1.3 1.3.8.2.5.1 1.1-.4 1.5l-17.3 14.4 8.4 20.9c.2.5.1 1.1-.4 1.5-.1.4-.3.5-.6.5zm-48.1-33.1l16.5 10.4c.5.3.7.9.6 1.4l-4.8 18.8 14.9-12.4c.4-.4 1.1-.4 1.6-.1l16.5 10.4-7.2-18c-.2-.5-.1-1.1.4-1.5l14.9-12.5-19.4 1.3c-.6 0-1.1-.3-1.3-.8l-7.2-18-4.8 18.8c-.1.6-.6 1-1.2 1l-19.5 1.2z"/><path fill="#FD953A" d="M226.1 141.1c-.2.1-.4.1-.6.1l-17.4-2.8-8 15.7c-.2.4-.6.6-1.1.6-.4-.1-.8-.4-.9-.9l-2.7-17.4-17.4-2.8c-.4-.1-.8-.4-.9-.9-.1-.4.2-.9.6-1.1l15.7-8-2.7-17.4c-.1-.4.2-.9.6-1.1.4-.2.9-.1 1.2.2l12.4 12.4 15.7-8c.4-.2.9-.1 1.2.2.3.3.4.8.2 1.2l-8 15.7 12.4 12.4c.3.3.4.8.2 1.2-.2.5-.3.6-.5.7zm-44.6-8.9l15 2.4c.4.1.8.4.9.9l2.4 15 6.9-13.5c.2-.4.6-.6 1.1-.6l15 2.4-10.9-10.8c-.3-.3-.4-.8-.2-1.2l6.9-13.5-13.5 6.9c-.4.2-.9.1-1.2-.2l-10.7-10.7 2.4 15c.1.4-.2.9-.6 1.1l-13.5 6.8z"/><path fill="#FFF" d="M398.3 136c-.2 0-.3-.1-.4-.2l-9.6-9.3-11.8 6.3c-.3.2-.7.1-.9-.1-.2-.2-.3-.6-.2-.9l5.8-12-9.6-9.3c-.2-.2-.3-.6-.2-.9.1-.3.5-.5.8-.4l13.2 1.9 5.8-12c.1-.3.5-.5.8-.4.3 0 .6.3.7.6l2.3 13.1 13.2 1.9c.3 0 .6.3.7.6.1.3-.1.7-.4.8l-11.8 6.3 2.3 13.1c.1.3-.1.7-.4.8.1.1-.1.1-.3.1zm-23.8-25l8.3 8c.2.2.3.6.2.9l-5 10.3 10.2-5.4c.3-.2.7-.1.9.1l8.3 8-2-11.3c-.1-.3.1-.7.4-.8l10.2-5.4-11.4-1.6c-.3 0-.6-.3-.7-.6l-2-11.3-5 10.3c-.1.3-.5.5-.8.4l-11.6-1.6z"/><path fill="#36DFDE" d="M305.8 150.6c-.3 0-.5 0-.8-.2l-19.1-12-17.3 14.4c-.4.4-1.1.4-1.6.1-.5-.3-.7-.9-.6-1.4l5.5-21.9-19.1-12c-.5-.3-.7-.9-.6-1.4.1-.6.6-1 1.2-1l22.5-1.5 5.5-21.9c.1-.6.6-1 1.2-1s1.1.3 1.3.8l8.4 20.9 22.5-1.5c.6 0 1.1.3 1.3.8.2.5.1 1.1-.4 1.5l-17.3 14.4 8.4 20.9c.2.5.1 1.1-.4 1.5-.1.4-.4.5-.6.5zm-48.1-33.1l16.5 10.4c.5.3.7.9.6 1.4l-4.8 18.8 14.9-12.4c.4-.4 1.1-.4 1.6-.1L303 146l-7.2-18c-.2-.5-.1-1.1.4-1.5L311 114l-19.4 1.3c-.6 0-1.1-.3-1.3-.8l-7.2-18.1-4.8 18.8c-.1.6-.6 1-1.2 1l-19.4 1.3z"/><path fill="#FD8A39" d="M276.9 213.7c-.2 0-.3-.1-.4-.2l-9.6-9.3-11.8 6.3c-.3.2-.7.1-.9-.1-.2-.2-.3-.6-.2-.9l5.8-12-9.6-9.3c-.2-.2-.3-.6-.2-.9.1-.3.5-.5.8-.4l13.2 1.9 5.8-12c.1-.3.5-.5.8-.4.3 0 .6.3.7.6l2.3 13.1 13.2 1.9c.3 0 .6.3.7.6.1.3-.1.7-.4.8l-11.8 6.3 2.3 13.1c.1.3-.1.7-.4.8 0 .1-.2.2-.3.1zm-23.8-24.9l8.3 8c.2.2.3.6.2.9l-5 10.3 10.2-5.4c.3-.2.7-.1.9.1l8.3 8-2-11.3c-.1-.3.1-.7.4-.8l10.2-5.4-11.4-1.6c-.3 0-.6-.3-.7-.6l-2-11.3-5 10.3c-.1.3-.5.5-.8.4l-11.6-1.6z"/><path fill="#FD953A" d="M410.8 226.7c-30.2 0-54.7 24.5-54.7 54.7s24.5 54.7 54.7 54.7c30.2 0 54.7-24.5 54.7-54.7s-24.5-54.7-54.7-54.7zm0 9.1c16.8 0 31.5 9.2 39.4 22.8h-78.8c7.9-13.6 22.6-22.8 39.4-22.8zm0 91.2c-25.1 0-45.6-20.4-45.6-45.6 0-4.8.7-9.4 2.1-13.7h8.5c2.8 6.9 8.8 13.7 18.2 13.7 11.3 0 9.8-10.5 16.8-10.5s5.6 10.5 16.8 10.5c9.4 0 15.4-6.8 18.2-13.7h8.5c1.4 4.3 2.1 8.9 2.1 13.7 0 25.1-20.5 45.6-45.6 45.6zm25.1-36.8l2.2 2.2c-5.1 7.8-14.6 16.3-27.3 16.3-12.8 0-22.2-8.4-27.4-16.3l2.2-2.2c6.9 5.4 14.5 8.8 25.1 8.8 10.7 0 18.3-3.3 25.2-8.8z"/></svg>