<svg xmlns="http://www.w3.org/2000/svg" viewBox="-5.1 350.5 750 322.7"><path fill="#36BADF" d="M-5.1 350.5h750v322.7h-750z"/><g fill="#36DFDE"><path d="M83 636.1c.3-1.8 2.4-2 3.9-2.7 0 1.5 1.7 1.6 1.1 3.5-1.8.9-4 .7-5-.8zM59.1 635.7v-.8c.4.3.5.8 0 .8zM112.9 635.2c-2.2-.4-1.7-.8-2.9-2 2-.1 2.9-2 4.4-.5.3 1.6-1.3 1.5-1.5 2.5zM137.8 632.7c-.2-1.6 2.3-1.1 2.4-2.4 1.1.5 1.8 1.3 2 2.3-.9 2.1-3.5 1.8-4.4.1zM316.2 630.8c.2.4-.3-.1 0 0zM173 631.1c-2.8 0-6.1.6-5.9-2 2.5 0 3-1.8 5.4-2 1.3 1 1.6 2.3.5 4zM223.8 628.7c.7-1.2-.4-1.3.5-2.3 2.1.4 1.7 0 3.4-.5-.2-.5-.6-.8-1.5-.8 6.9-3.4 6.8 8.5-2.4 3.6zM193.5 629.2c-.5-1.9 1-2.3 1.5-3.5 1.7 1.1 3.1-.5 4-1.2 5.1 2.2-1.9 7.3-5.5 4.7zM267.8 628.1c-2.5-.1-4.4-.6-4.9-2.3.2-2 3.4-1.5 5.4-2 1.2 1.3 1.2 3.4-.5 4.3zM351.8 626.1c-2.8 1.6-10.3 2.2-10.2-1.1.1-2.8 10.4-4.9 10.2 1.1zM311.9 625.4c.1-.3.5-.4.5-.8 1.9-3.1 9.8-3.2 9.3.4-.5 2.7-8.2 3.6-9.8.4zM285.4 626.8c-1.9-5.1 9.2-5.5 9.3-2 .1 2.9-5.5 3.6-9.3 2zM225.1 625.6c.3.1-.1-.4 0 0zM198.3 624.1c-.1.5-.9.4-1.5.4.2-.7.9-.3 1.5-.4zM150 612.7c1.2-1.3 5.1-.6 5.4-2.8 2.6.9 6.8.5 5.9 4.3-2.9 1.5-11.1 2-11.3-1.5zM61.4 613.8c.2-2.7 3.4-3 5.9-4-.2.8.7.7 1.5.8v2.7c-1.7 1.4-5.8 2.5-7.4.5zM360.1 608.7v3.1c-1.4 1.2-5.4.8-5.9-1.6.9-1.4 4.5-1.1 5.9-1.5zM84.9 612.6V611c2.2-1.7 6.3-1.8 8.8-3.1 1.6.6 2.4 1.8 2 3.9-2.2 1.4-8.4 3-10.8.8zM320 607.1c3.2-2.5 13.9-1.5 13.3 2.2-.9 4-12.9 1.8-13.3-2.2zm3.5 1.5c-.3-.4.2.1 0 0zM120 609.7c1.5-.6 3.4-.9 4.4-2 7.1 2.5-3.5 7.7-4.4 2zM289.7 609.2v-2.3c2.2-.7 4 .5 4.4-1.2 8.5.6.3 7-4.4 3.5zM256.9 609.7c0-.6.2-1.6-.5-1.6 1.8-1.8 3.8-.8 6.3-2 4.2 3-2.1 6-5.8 3.6zM284.8 609.6c.2.1-.4-.4 0 0zM195.9 610.1c-.6-1.1-.6-2 0-3.1 1.8 0 4 .3 4.4-.8 5.1 1.2.6 6-4.4 3.9zM226.6 606.3c2.5.3 4-.5 4.9-1.6 11 2.6-7 9.1-4.9 1.6zM90.3 608.2c.1-.7.9-.9 2-.8-.3.8-1 .9-2 .8zM164 606.3c-.1.5-1.1.4-1.1 0 .4-.6.6 0 1.1 0z"/><path d="M230 605.2c-.1.1-1.1.7-1.5.4-.3-.4 2-1.2 1.5-.4zM142.4 593.1c1.4-3.4 8.3-1.5 6.3 2-2.6 1.1-5.5-.4-6.3-2zm3.9-.9c-.2-.1.2.2 0 0zm-.9 0c-.3-.1.2.2 0 0zM91.1 595.3c-.1-1.1-1-1.7-1.1-2.7 1.8-2.1 6.5-2 7.8.4.2 3.2-3.2 2.7-6.7 2.3zM61.2 591.7c2.3-3.5 11.1-.5 7.3 3-2.9-.5-7-.3-7.3-3zM123.4 593.8c-2.3 0-4.8.2-6.3-.4.1-1.7-.6-1.6 0-2.7 2.5-1.9 8.5 0 6.3 3.1zM173.8 591.4c.6-3.7 9-2.3 6.3 1.6-3.7.7-3.8-.9-6.3-1.6zM261.2 589.7c-.1-.9-1.3-.9-1.5 0-.4-.1-.6-.3-.5-.8.7-.3 0-.5 0 0-1 .7-.9-.2-2.4 0v-1.6c2.5-1.1 6-1.2 6.9 1.1-1.1.4-.4 2-2 2-.1-.2 0-.7-.5-.7zm-.9-1.5c.4-.1 1 0 1.1-.4-.6 0-1.1-.1-1.1.4zM260.3 590.2c0 .4-.8.2 0 0zM201.1 587.8c.6 0 .7.5 1.5.4.3 1.9-1.2 2.1-2.9 2.3 1.6-1.9-1.6-.3-1.5-2 1.2.3 2.9.6 2.9-.7zM286.2 589.8c-1.8.3-1.9-.6-3.4-.4.3-2.7-.9-.3-2-1.1.6-1.3 2.3-1.9 4.9-1.6-.4 1.6.8 1.7.5 3.1zm-2.9-2c.4-.1 1 0 1.1-.4-.5.3-1.1.3-1.1.4z"/><path d="M261.2 589.7c-.1.4-.4.5-1.1.4.3-.4.5-.4 1.1-.4zM353.7 588.1c-1.2 0-1.9-.6-2-1.6-1.8 1.4-1.5-.9-3.9-.4-.1-2.2 2.3-2.3 4.9-2.3 1.6 1.9 1.9 2.4 1 4.3zM331.7 588.2c-1.7.2-2.3-.3-3.4-.4.1-1.2.8-.6 1-2.3-.8.6-1.2 1.4-2.9 1.2.7-1.9 2.9-1.9 4.9-2-.3 1.1.2 1.4 1.5 1.1-.4.9-.8 1.8-1.1 2.4zM238.7 586.7h1.5c-.1-.3-.5-.4-.5-.8-.8-.2-.9.3-1 .8-.6-.3-1-.9-1.1-1.6 2.7.1 4 0 4.9 2-.1.7-.3 1.3-1.1 1.6-1.1-.4-2-.8-2.9-1.1.3-.4.3-.5.2-.9zM306.2 586.1c1.8-2.5 5-1.9 7.3-.5-.6 3.1-5.5 1.6-7.3.5zM201.1 587.8c-.6 0-1.1-.1-1.1-.8h1.1v.8zM237.8 587.1c-.6 1.6-.6-1.6 0 0zM199.2 587.3c.1.1-.4-.1 0 0zM219.7 586.4v-.4c-.6.2-.3.4 0 .4v.8c-2.4.2-.3-1.1-2.4-1.1 0-.6 3.6-.9 2.9.4-.2-.1-.4-.1-.5-.1zM85.2 578.2c-.7-1.2.2-1.4 0-3.1 8.6-4.3 9.6 7.7 0 3.1zm2.9-1.4c-.4-.1.2.4 0 0zm-2-.6c0 .4.9.5 1.1 0-.6 0-.8-.5-1.1 0zM61.7 578.3c.4-2.2 1.8-1.5.5-3.5 2.5-.8 4.2.2 5.9 1.1.6 3.9-3.8 3.9-6.4 2.4zm2.4-2.5c-.3-.1.2.2 0 0zM139.9 576.7c-2.8-4.1 7.9-7.3 10.2-2.8-.8 2.8-6.8 2.9-10.2 2.8zM116 573.7v1.1c1.4 0 1.4-1 1.5-2 1.7.6 2.8 1.4 2.9 3.1-.9.9-2.3 1.3-4.4 1.2.3-1.3-2-3.4 0-3.4zm1.9.7c-.3-.2.2.3 0 0zM199.1 569.7c1.9-1.1 3.9-1.9 7.3-1.6 7.5 4.4-10.5 9.1-7.3 1.6zM170.1 572.5c0-4.8 9.6-5.1 9.3-1.6-.1 2.5-6.6 4.9-9.3 1.6z"/><path d="M116 573.7c-.1-.5.7-.3 0 0zM245 566.3c.8 1.7 1.9 2.8.6 4.3-4.2 1.4-11 1.8-10.2-2 .2-2.1 5.6-3.2 9.6-2.3zM317.4 567.8c.6-4.3 11.1-4 11.3.4-1.1.1-1.1 1.1-1.5 1.6-4.4-.2-7.6 1.9-10.2-.4-.9-1 2.1-.9.4-1.6zM297.7 565.2h-.5c.2.5.5.2.5 0h2c3.9 4-6.6 6.2-6.3 1.2.7-1.2 2.5-1.4 4.4-1.6-.1 0-.1.4-.1.4zm-2.8 1.6c-.4-.1.1 0 0 0zm2.9-.4c.4-.1 1 0 1.1-.4-.5.2-1.1 0-1.1.4zM273.3 565.7h-.5c.1.5.5.1.5 0 4.5 2.7-4.8 5.4-8.3 3.1-1.3-3 6.3-6.3 8.3-3.1zm-5.8 1c0 .4.9.5 1.1 0-.7 0-.8-.9-1.1 0z"/><path d="M317.4 567.8c-.2 1.2-2-.3 0 0zM345.7 566.8c.7-1.7-1.5-3.2 3.8-3.9 4.9 1.6.5 6.5-3.8 3.9zm1.9-2.3c-.2-.2.2.2 0 0zM285.5 564.8c.3.2-.2-.1 0 0zM67.9 551.7c.4-.1.6-.4.5-.8 2 1.1 2.7 4.1.6 5.5-2.2-.6-3.1.1-5.9 0-.9-1.3.6-1.8 1-3.1 1.3-.6 3.4-.5 3.8-1.6zM84 554.2c.3-2.1 3.4-2 5.9-2.3 1.2-.5-.9-1.2.5-1.6 1.8.2.6 1.1 2.4.4 5 4.6-4.5 5.6-8.8 3.5zM114.8 554c-.6-1.8 0-2 1-3.1 1.9.2 2.7.2 4.9.8-.5 3-3.9 2.3-5.9 2.3zM146.6 552.3c-.2-1.1-1.7-1.1-1.1-2.7 2-1.2 3.7 0 4.9-1.6 5.2 1.8.5 5.5-3.8 4.3z"/><path d="M88.4 551.2c.2 0-.3-.4 0 0zM67.9 551.7c-2.3.3.5-2 0 0zM337.3 548.2c-2.3-6 9.9-5.7 9.8-1.6-.1 3.1-6.3 2.7-9.8 1.6zM314.8 547.8c.1-1.7-.8-1.8 0-3.1 1.9-.4 3.9-.6 6.3-.5-.8 1.3 1.8 1.4 1.5 2.7-.5 2.8-5.1 2.8-7.8.9zm4.4 0c-.3-.1.3.4 0 0zM286.5 548.3c-2.9-5.8 8.5-5.6 8.4-1.6-.3 3.1-4.8 2.3-8.4 1.6zM118.7 549.7c.2.1-.2-.3 0 0zM269.8 543.2c-.9 1.8 1.5 2 1.5 2.3-.1 3.2-7.9 3.2-8.4 0-.2-2.3 2.1-3.3 6.9-2.3zm-1.9 1.8c-.3-.3.2.2 0 0zM184.2 543.8c1.2 0 2.3-.2 2.9-.8 6.4 3-5.2 6.8-6.3 2.8.5-1.1 2.7-1 3.4-2zM213.1 545.3c.4-2 2.8-2.4 3.9-4 1.8 0 2.8.6 4.4.8 0 1.1 1.2 1.4 1.1 3.5-1.7 1.9-7.6 1.2-9.4-.3zM237 545.2c1.3-2.6 3.6-4.4 8.8-4 .3 1.3 1.8 1.8 1.5 3.5-.6.2-1.1.5-1.1 1.2-3.5.1-6.3.5-9.2-.7zm5.4-.9c-.6-1.5-.6 1.5 0 0zM184.2 543.8h-1.5c.4-.5 1.1-.7 2-.8.1.5-.4.7-.5.8zM186.2 542.7c.1.1-.4-.2 0 0zM143.1 533.2c-.1.5-1.1.4-1.1 0 .3-.5.5 0 1.1 0zM203.8 529.3c.4-2.9 3.3-2.7 5.4-3.5 7.9 2.7-1.4 8.4-5.4 3.5zM170.4 527.5c.9-4 6.8-3.8 9.3-.8 1 5.8-7.7 3-9.3.8zM336.7 526.2c-.2-.8 3.5-1.3 1.1-1.6.8-.6 1.6-1.2 2.4-1.6 2.4.4 4.4 1.1 5.4 2.7-.8 3.6-7.1 2.5-8.9.5zm4.9-1.9c-.7.2-2.5-.5-2.4.5 1.4-.4 1.9.7 2.4-.5zM287.9 526.5c-.3-1.2.9-1.4.5-2.7 1.4-.5 3.4-.5 5.4-.5 4.8 3.9-2.5 6.9-5.9 3.2zM236.9 522.8c.9 0 1.6.1 2 .4-.3 1.1 1.1.8 1.1 1.6-.9 2-3.2 2.8-6.3 3.1-1.9-1.1-.5-3.2 0-4.7.8.3 3 1 3.2-.4zM136.2 524.8c1.7-2.9 9.8-1.7 7.8 2-1.8 2.4-7.9 2.3-8.4-.4 0-1 2.6-.7.6-1.6zm2 0c.6 0 1.4.1 1.5-.4-.6.3-1.5.1-1.5.4zM103.9 527.8c-1.2-3.1 5.2-7.2 9.3-3.6.2 1.4-.1 2.5-.5 3.5-3.2.8-5.9 1.5-8.8.1zM314.1 524.4c2-.8 4.1.9 4-1.6 1.4.3 2.4 1 3.4 1.6.4 3.8-7.5 3.4-7.4 0zM359.6 526.4c-2.3.4-3-.7-3.4-2 2.4-.5-.2-2.5 2.9-2.3.2.7-1.6 1.8.5 1.7v2.6zM261.8 523.5c.9-1.2 3.6-.7 4.9-1.6.5.5.5 1.5 1.5 1.6.1 3.3-6.1 3.2-6.4 0z"/><path d="M238.8 523.3c0-.6.8-.3 0 0zM359.6 521.8v.4h-.5c.1-.4.2-.5.5-.4zM236.9 522.8c-.5 0-.3-.5 0 0zM235 522.5c.2.2-.4-.3 0 0zM262.8 521.8c.2.4-.3-.1 0 0zM238.4 522c.2.2-.4-.2 0 0zM265.2 521.5c0 .4-.6.3-1.1.4.2-.4.8-.2 1.1-.4zM142.4 505.4c-.8 0-1.3.4-1.5.8 1-.1 1.3-.3 1.5-.8h1.1c2 2.9-2 3.9-4.9 4.3-3.6-1.7-2.6-6.1 2.9-5.9 0 .8 1.2.6.9 1.6zm-1.4-.8c-1 .2-2 .1-2 1.2 1.3.1 1.6-.7 2-1.2zM81.9 505.1c.1.5.9.3 1.5.4-.2-.4-1-.1-1.5-.4 2.5-2.9 10.6-2 8.8 2.2-4 1.4-8.2 2.5-12.2 1.2.2-1.5 2.2-2 3.4-3.4zm2.9-.2c-.4-.3.2.1 0 0z"/></g><path fill="#FFC26A" d="M509.2 423.4s-13.1-.8-17.7 4.6c5.1-11.5 17.7-14 17.7-14v-4.7l12.6 9.5-12.6 9.5v-4.9zm-47.8 35.2h60.3l-30.1-27.4-30.2 27.4zm4.2-33.1l25.9-17.7 7.7 5.3c1.8-1.1 3.5-1.9 4.9-2.4l-12.6-8.6-30.2 20.6v29.5l18.5-16.8c.1-.3-14.2-9.9-14.2-9.9zm39.7 11.5l16.5 15v-27.4L505.3 437z"/><path fill="#36DFDE" d="M568.9 437.9l-29.7-24.1h59.5l-29.8 24.1zm-13.5-4.5L539 420.1v31l16.4-17.7zm27 0l16.3 17.8v-31.1l-16.3 13.3zm-3.9 3.2l-9.6 7.8-9.6-7.8-20.1 21.9h59.5l-20.2-21.9zM648.1 438.9l-29.7-24.2h59.5l-29.8 24.2zm-13.5-4.5l-16.3-13.3v31c.1 0 16.3-17.7 16.3-17.7zm27 0l16.3 17.8v-31c-.1-.2-16.3 13.2-16.3 13.2zm-3.9 3l-9.6 7.8-9.6-7.8-20.1 21.9h59.5l-20.2-21.9z"/><path fill="#FFC26A" d="M588.8 497.6s-12.8-.8-17.2 4.6c4.9-11.5 17.2-14 17.2-14v-4.6l12.3 9.5-12.3 9.5v-5zM542.2 533H601l-29.4-27.4-29.4 27.4zm4.1-33l25.3-17.7 7.5 5.3c1.8-1.1 3.4-1.9 4.8-2.4l-12.3-8.6-29.5 20.6v29.4l18-16.8c.1-.2-13.8-9.8-13.8-9.8zm38.7 11.5l16.1 15v-27.4L585 511.5zM509.8 573.3s-12.6-.8-17 4.6c4.9-11.5 17-14 17-14v-4.7l12.1 9.5-12.1 9.5v-4.9zm-45.9 35.4h58l-29-27.4c-.1-.1-29 27.4-29 27.4zm4.1-33.2l25-17.7 7.4 5.3c1.8-1.1 3.4-1.9 4.8-2.4l-12.1-8.6-29.1 20.6v29.5l17.8-16.8c-.2-.2-13.8-9.9-13.8-9.9zm38.1 11.5l15.9 15v-27.4L506.1 587zM590.3 573.5s-12.9-.8-17.4 4.6c5-11.5 17.4-14 17.4-14v-4.8l12.4 9.5-12.4 9.5v-4.8zm-47.1 35.2h59.6L573 581.3c-.1.1-29.8 27.4-29.8 27.4zm4.1-33l25.6-17.7 7.6 5.3c1.8-1.1 3.4-1.9 4.9-2.4l-12.5-8.6-29.9 20.5v29.5l18.2-16.8c.1-.1-13.9-9.8-13.9-9.8zm39.2 11.5l16.3 15v-27.4c-.1 0-16.3 12.4-16.3 12.4z"/><path fill="#36DFDE" d="M648.9 511.1L619.2 487h59.5l-29.8 24.1zm-13.5-4.5L619 493.4v31l16.4-17.8zm26.9 0l16.3 17.8v-31.1c0 .1-16.3 13.3-16.3 13.3zm-3.9 3l-9.6 7.8-9.6-7.8-20.1 22h59.5l-20.2-22zM650.5 588.4l-29.7-24.1h59.5l-29.8 24.1zm-13.4-4.6l-16.3-13.2v31c0 .2 16.3-17.8 16.3-17.8zm26.9 0l16.3 17.8v-31c.1.2-16.3 13.2-16.3 13.2zm-3.8 3.2l-9.6 7.8-9.6-7.8-20 22h59.5l-20.3-22zM491.9 511.5l-29.7-24.1h59.5l-29.8 24.1zm-13.5-4.5l-16.3-13.3v31c0 .1 16.3-17.7 16.3-17.7zm26.9 0l16.3 17.8v-31c0-.2-16.3 13.2-16.3 13.2zm-3.9 3.1l-9.6 7.8-9.6-7.8-20.1 21.9h59.5l-20.2-21.9z"/><path fill="#FFC26A" d="M279.7 503V587.9c0 .7 0 1-.3 1.7v1c-1 5.9-.7 10.2-5.9 11.2-2 1-4.6 1.7-6.9 1.7H210c-5 .7-9.9-1-13.6-4.6l-60.8-60.8c-6.6-6.6-8.6-13.6-2-19.8 6.6-6.6 16.9-6.6 23.5 0l29.4 24.8v-89.6c0-9.3 1.7-16.5 10.6-16.5 4.3 0 6.3 1.7 7.6 4 3-3 4.3-7.3 4.3-12.2 0-6.6-2.3-12.2-7.6-14.5v-6.9c8.9 2.6 13.9 11.2 13.9 21.5 0 7.9-3.3 15.2-8.9 19.2v49.2h6.6v-13.9c0-4.6.3-8.9 2-11.9-1.7.7-3 1.7-4.6 2.3v-7.5c13.6-6.3 23.1-19.8 23.1-36s-9.6-29.7-23.1-36V387c17.5 6.6 29.7 23.5 29.7 43.3 0 14.9-6.9 28.1-17.8 36.4h1.3c9.3 0 9.6 7.3 9.6 16.5v13.9h6.6v2.6c0-9.3.7-23.1 9.9-23.1 8.3 0 6.9 11.6 6.9 20.5v0h6.6c.3 0 .3 1 .3 1.7v0c.3-5.9 1-12.6 6.6-12.6 6.3 0 8.6 7.9 9.9 14.5.1 1.9-.3.3-.3 2.3zm-107.4-74.4c0-10.2 5-18.8 13.9-21.5v6.9c-5.3 2.3-7.6 8.3-7.6 14.5 0 6.3 2.3 12.2 7.6 14.5v6.9c-8.9-2.8-13.9-11-13.9-21.3zm-18.2 1.8c0 15.9 9.6 29.7 23.1 36v7.3c-17.5-6.6-29.7-23.5-29.7-43.3s12.2-36.7 29.7-43.3v7.3c-13.5 6.2-23.1 20-23.1 36z"/></svg>