<svg xmlns="http://www.w3.org/2000/svg" viewBox="-4.8 83.8 769 330.9"><path fill="#36BADF" d="M-4.8 83.8h769v330.9h-769z"/><g fill="#FFF"><path d="M13.4 119.9c1.8.4 2 2.5 2.8 4.1-1.5 0-1.6 1.7-3.6 1.1-1-1.9-.7-4.1.8-5.2zM13.9 95.4h.8c-.1.5-.8.6-.8 0zM14.2 150.6c.4-2.3.8-1.7 2-3 .1 2.1 1.9 3 .4 4.5-1.5.4-1.4-1.3-2.4-1.5zM16.6 176.1c1.6-.2 1.1 2.4 2.5 2.5-.5 1.1-1.3 1.8-2.4 2-2.1-.9-1.9-3.5-.1-4.5zM17.4 359.1c-.2.2.2-.3 0 0zM18.2 212.2c0-2.9-.5-6.3 2-6 0 2.6 1.8 3.1 2 5.5-1.1 1.4-2.5 1.8-4 .5zM20.2 264.3c1.1.7 1.3-.4 2.4.5-.4 2.2 0 1.7.4 3.5.5-.2.8-.6.8-1.5 3.5 7.2-8.6 6.9-3.6-2.5zM19.9 233.2c1.9-.5 2.4 1.1 3.6 1.5-1.1 1.7.4 3.2 1.1 4.1-2.2 5.4-7.6-1.9-4.7-5.6zM20.6 309.5c.1-2.6.6-4.5 2.4-5 2 .2 1.5 3.5 2 5.5-1.4 1.2-3.5 1.2-4.4-.5zM22.2 395.7c-1.6-2.9-2.2-10.6 1.1-10.5 3 .1 5 10.7-1.1 10.5zM23 354.6c.3.1.4.5.8.5 3.2 1.9 3.3 10-.4 9.5-2.8-.3-3.5-8.3-.4-10zM21.8 327.6c5.2-1.9 5.6 9.4 2 9.5-3 0-3.7-5.7-2-9.5zM23.5 265.8c-.2.3.2-.3 0 0zM25.1 238.3c-.5-.1-.4-.9-.4-1.5.4.1.3.8.4 1.5zM37.1 188.7c1.3 1.2.6 5.2 2.8 5.5-.9 2.7-.5 7-4.4 6-1.7-2.8-2.1-11.2 1.6-11.5zM36.3 97.9c2.8.2 3.1 3.5 4.1 6-.8-.2-.7.7-.8 1.5h-2.8c-1.3-1.7-2.6-5.9-.5-7.5zM39.9 404.2h-3.2c-1.2-1.4-.8-5.5 1.6-6 1.4.8 1.3 4.5 1.6 6zM37.5 122h1.6c1.7 2.3 1.8 6.5 3.2 9-.6 1.6-1.8 2.5-4 2-1.5-2.2-3.2-8.5-.8-11zM41.9 363.1c2.6 3.4 1.4 14.3-2.4 13.6-4.1-.9-1.6-13.1 2.4-13.6zm-1.6 3.5c.3-.3-.2.2 0 0zM40.3 158.1c.6 1.5.9 3.5 2 4.5-2.6 7.2-8-3.7-2-4.5zM39.9 332.1h2.4c.7 2.3-.5 4.1 1.1 4.5-.7 8.6-7.2.2-3.5-4.5zM39.5 298.4c.6 0 1.6.2 1.6-.5 1.8 1.8.8 3.9 2 6.5-3 4.3-6-2.3-3.6-6zM39.5 327c-.1.2.3-.3 0 0zM39.5 235.8c1.1-.6 2-.6 3.2 0 0 1.8-.4 4.1.8 4.5-1.5 5.4-6.2.6-4-4.5zM43.1 267.4c-.4 2.6.4 4.1 1.6 5-2.7 11.2-9.3-7.3-1.6-5zM41.9 127.5c.7.1.9.9.8 2-.7-.1-.9-.8-.8-2zM43.5 203.1c-.5-.1-.4-1.1 0-1.1.6.4 0 .6 0 1.1z"/><path d="M44.3 270.8c-.1-.1-.7-1.1-.4-1.5.3-.3 1.1 2.1.4 1.5zM57.2 181.2c3.5 1.4 1.4 8.5-2 6.5-1.3-2.8.3-5.8 2-6.5zm.8 3.9c.1-.3-.2.2 0 0zm0-1c.1-.3-.2.3 0 0zM55.1 128.5c1.1-.1 1.7-1 2.8-1.1 2.2 1.8 1.9 6.7-.4 8-3.3.2-2.6-3.4-2.4-6.9zM59.2 97.9c3.6 2.4.4 11.4-3.2 7.5.6-3.1.3-7.3 3.2-7.5zM56.4 161.6c0-2.4-.2-4.9.4-6.5 1.7.1 1.6-.6 2.8 0 2.1 2.7 0 8.8-3.2 6.5zM58.8 213.2c3.8.6 2.4 9.2-1.6 6.5-.9-3.8.8-3.8 1.6-6.5zM59.9 302.9c.9-.1.9-1.3 0-1.5.1-.4.4-.6.8-.5.3.7.5 0 0 0-.7-1 .2-.9 0-2.5h1.6c1.1 2.6 1.1 6.2-1.1 7.1-.4-1.1-2-.4-2-2 .3-.1.7 0 .7-.6zm1.7-.9c.1.4 0 1 .4 1.1-.1-.5-.1-1.1-.4-1.1zM59.6 302c-.5 0-.3-.8 0 0zM62 241.3c0 .6-.5.7-.4 1.5-1.9.3-2.2-1.2-2.4-3 1.9 1.6.4-1.6 2-1.5-.1 1.3-.2 3 .8 3zM59.6 328.5c-.3-1.8.6-1.9.4-3.5 2.8.4.3-.9 1.1-2 1.3.6 1.9 2.4 1.6 5-1.5-.4-1.6.9-3.1.5zm2-3c.1.4 0 1 .4 1.1-.1-.5-.1-1.1-.4-1.1z"/><path d="M59.9 302.9c-.4-.1-.5-.4-.4-1.1.4.3.5.5.4 1.1zM61.1 397.7c0-1.2.6-1.9 1.6-2-1.4-1.8.9-1.5.4-4 2.3-.1 2.4 2.4 2.4 5-1.9 1.6-2.4 2-4.4 1zM61.1 375.1c-.2-1.7.3-2.4.4-3.5 1.2.1.6.8 2.4 1.1-.6-.8-1.4-1.2-1.1-3 1.9.7 1.9 3 2 5-1.1-.4-1.4.2-1.1 1.5-1.1-.2-1.8-.6-2.6-1.1zM63.2 279.9v1.5c.3-.1.4-.5.8-.5.1-.8-.4-.9-.8-1 .3-.6.9-1 1.6-1.1-.1 2.8 0 4.1-2 5-.7-.1-1.3-.3-1.6-1.1.4-1.1.8-2 1.1-3 .3.2.6.2.9.2zM63.5 349.1c2.6 1.8 1.9 5.1.4 7.5-3.3-.6-1.5-5.7-.4-7.5zM62 241.3c0-.6.1-1.1.8-1.1v1.1H62zM62.8 278.9c-1.7-.6 1.5-.6 0 0zM62.8 239.3c-.2.2.2-.3 0 0zM63.5 260.3h.4c0-.5-.4-.2-.4 0h-.8c-.2-2.5 1.1-.3 1.1-2.5.6 0 .9 3.7-.4 3 .1-.1.1-.3.1-.5zM72.8 122.5c1.2-.7 1.4.2 3.2 0 4.3 8.8-8.1 9.9-3.2 0zm1.2 3c.3-.4-.1.2 0 0zm.8-2c-.4 0-.5.9 0 1.1 0-.7.6-.9 0-1.1zM72.8 98.4c2.3.4 1.5 1.9 3.6.5.8 2.6-.2 4.3-1.1 6-4.1.7-4.1-3.8-2.5-6.5zm2.5 2.5c.1-.3-.2.2 0 0zM74 178.6c4.2-2.9 7.4 8.1 2.8 10.5-2.9-.9-3.1-7-2.8-10.5zM77.2 154.1h-1.1c0 1.4 1 1.4 2 1.5-.6 1.7-1.4 2.9-3.2 3-.9-.9-1.3-2.4-1.1-4.5 1 .3 3.5-2 3.4 0zm-.8 1.9c.3-.2-.2.2 0 0zM80.8 239.3c1.1 1.9 1.9 4 1.6 7.5-4.6 7.8-9.3-10.8-1.6-7.5zM78.1 209.7c4.9 0 5.1 9.8 1.6 9.5-2.6-.2-5-6.9-1.6-9.5z"/><path d="M77.2 154.1c.5-.1.3.7 0 0zM84 286.4c-1.7.8-2.9 1.9-4.4.5-1.4-4.3-1.8-11.3 2-10.5 2.3.4 3.4 6 2.4 10zM82.1 360.6c4.4.6 4.1 11.5-.4 11.6-.1-1.1-1.1-1.1-1.6-1.5.3-4.5-1.9-7.8.4-10.5.9-.8.9 2.2 1.6.4zM84.9 340.5v-.5c-.5.2-.3.5 0 .5v2c-4.1 4-6.4-6.8-1.1-6.5 1.1.7 1.4 2.6 1.6 4.5h-.5zm-1.7-3c.3-.3-.1.2 0 0zm.4 3c.1.4 0 1 .4 1.1-.1-.5 0-1.1-.4-1.1zM84.4 315.5v-.5c-.4.1-.1.5 0 .5-2.8 4.6-5.5-4.9-3.2-8.6 3.2-1.3 6.6 6.5 3.2 8.6zm-.8-6c-.4 0-.5.9 0 1.1 0-.7.7-.9 0-1.1z"/><path d="M82.1 360.6c-1.3-.1.3-2.1 0 0zM82.9 389.7c1.7.7 3.3-1.5 4 4-1.7 4.9-6.7.4-4-4zm2.3 2c.3-.3-.1.2 0 0zM85.2 328c-.1.3.3-.3 0 0zM100.1 104.9c.1.4.4.6.8.5-1.1 2-4.2 2.7-5.6.5.6-2.3-.1-3.2 0-6 1.3-.9 1.8.6 3.2 1.1.4 1.4.3 3.6 1.6 3.9zM97.3 121.4c2.2.3 1.9 3.5 2.4 6 .5 1.2 1.2-.9 1.6.5-.2 1.8-1.1.6-.4 2.5-4.7 5.2-5.8-4.5-3.6-9zM97.3 153c1.8-.6 2 0 3.2 1.1-.2 1.9-.2 2.8-.8 5-3-.5-2.4-4-2.4-6.1zM98.9 185.7c1.1-.2 1.1-1.7 2.8-1.1 1.1 2 0 3.8 1.6 5-1.9 5.3-5.6.5-4.4-3.9z"/><path d="M100.5 125.9c-.1.3.3-.2 0 0zM100.1 104.9c-.4-2.3 1.9.6 0 0zM102.2 381.2c6.2-2.4 5.7 10.1 1.6 10.1-3.4-.2-2.9-6.6-1.6-10.1zM102.5 358.1c1.7.1 1.9-.8 3.2 0 .4 1.9.5 4 .4 6.5-1.3-.8-1.4 1.8-2.8 1.5-2.7-.5-2.5-5.2-.8-8zm0 4.5c.3-.3-.1.3 0 0zM102.2 329.1c5.9-3 5.6 8.7 1.6 8.6-3.3-.3-2.3-4.9-1.6-8.6zM101.7 157.1c-.1.2.3-.4 0 0zM107.7 312c-1.8-.9-2 1.5-2.4 1.5-3.3-.1-3.3-8.1 0-8.6 2.3-.2 3.4 2.2 2.4 7.1zm-2-2c.3-.4-.2.2 0 0zM107.4 224.2c0 1.2.2 2.4.8 3-3.1 6.6-7-5.3-2.8-6.5 1.2.5.9 2.8 2 3.5zM105.7 253.8c2 .4 2.5 2.9 4.1 4.1 0 1.8-.6 2.9-.8 4.5-1.1 0-1.4 1.2-3.6 1.1-1.9-1.9-1.3-7.9.3-9.7zM105.7 278.4c2.6 1.3 4.5 3.7 4.1 9-1.3.3-1.8 1.8-3.6 1.5-.2-.6-.5-1.1-1.1-1.1-.3-3.6-.6-6.5.6-9.4zm.8 5.5c1.6-.6-1.6-.6 0 0zM107.4 224.2v-1.5c.5.4.7 1.1.8 2-.5.1-.6-.4-.8-.5zM108.5 226.3c-.1.1.3-.4 0 0zM118.6 182.1c-.5-.1-.4-1.1 0-1.1.5.4-.1.5 0 1.1zM122.2 244.4c3 .4 2.7 3.4 3.6 5.5-2.9 8-8.7-1.4-3.6-5.5zM124.2 210.2c4.1 1 3.9 7.1.8 9.5-6 1-3-7.9-.8-9.5zM124.6 380.7c.8-.2 1.3 3.6 1.6 1.1.6.8 1.1 1.6 1.6 2.5-.4 2.5-1.1 4.5-2.8 5.5-3.6-.8-2.4-7.4-.4-9.1zm2 5c-.2-.7.5-2.6-.4-2.5.2 1.5-.9 2 .4 2.5zM124.6 330.6c1.2-.3 1.4.9 2.8.5.5 1.4.4 3.5.4 5.5-4 5-6.9-2.5-3.2-6zM128.6 278.4c0 .9-.1 1.6-.4 2-1.1-.4-.8 1.1-1.6 1.1-2.1-.9-2.9-3.4-3.2-6.5 1.1-1.9 3.3-.4 4.8 0-.3.9-1 3.1.4 3.4zM127.1 175.1c3 1.8 1.7 10.1-2 8-2.5-1.9-2.4-8.1.4-8.6 1 0 .9 2.6 1.6.6zm0 2c0 .6-.1 1.4.4 1.5-.2-.5 0-1.4-.4-1.5zM124.2 142c3.2-1.1 7.3 5.3 3.6 9.5-1.4.2-2.6-.1-3.6-.5-.7-3.3-1.3-6 0-9zM126.6 357.6c.8 2-1 4.2 1.6 4.1-.3 1.4-1 2.5-1.6 3.5-3.9.3-3.5-7.8 0-7.6zM124.2 404.2c-.4-2.4.7-3.1 2-3.5.5 2.5 2.6-.2 2.4 3-.7.2-1.8-1.6-1.7.5h-2.7zM127.9 303.9c1.1.9.7 3.7 1.6 5-.5.5-1.5.5-1.6 1.5-3.6.1-3.4-6.2 0-6.5zM128.2 280.4c.5 0 .3.7 0 0zM129 404.2h-.4v-.5c.3 0 .5.1.4.5zM128.6 278.4c0-.6.6-.3 0 0zM129 276.4c-.2.2.3-.4 0 0zM129.4 305c-.1.1.3-.4 0 0zM129.4 279.9c-.1.2.3-.3 0 0zM129.8 307.4c-.4 0-.3-.6-.4-1.1.4.2.3.8.4 1.1zM147.1 181.6c0-.8-.4-1.3-.8-1.5 0 .9.3 1.3.8 1.5v1.1c-3 1.9-4-2.1-4.4-5 1.7-3.7 6.3-2.6 6 3-.8-.1-.6 1.3-1.6.9zm.8-1.5c-.2-1-.1-2.1-1.1-2-.2 1.3.6 1.6 1.1 2zM147.5 119.5c-.5.1-.4.9-.4 1.5.4-.1.3-1 .4-1.5 3 2.6 2 10.9-2.4 9-1.4-4.1-2.6-8.4-1.1-12.5 1.8.2 2.2 2.4 3.5 3.5zm.4 3c.2-.4-.2.2 0 0z"/></g><path fill="#36DFDE" d="M661.4 190.3H373.6c-11 0-20-9-20-20v-47.1c0-11 9-20 20-20h287.8c11 0 20 9 20 20v47.1c0 11-9 20-20 20z"/><path fill="#FFC26A" d="M551.4 295H263.6c-11 0-20-9-20-20v-47.1c0-11 9-20 20-20h287.8c11 0 20 9 20 20V275c0 11-9 20-20 20z"/><path fill="#36DFDE" d="M661.4 399.8H373.6c-11 0-20-9-20-20v-47.1c0-11 9-20 20-20h287.8c11 0 20 9 20 20v47.1c0 11-9 20-20 20z"/></svg>