<svg version="1.1" id="Calque_1" xmlns="http://www.w3.org/2000/svg" x="0" y="0" viewBox="0 0 1280 800" xml:space="preserve"><style>.st0{fill:#36dfde}.st1{fill:#dbdbdb}.st2{fill:#fecba7}.st3{fill:none;stroke:#dbdbdb;stroke-width:4;stroke-miterlimit:10}</style><path class="st0" d="M310.8 495.3v-96.1h-45v96.1h-15.7l38.2 45.9 37.8-45.9z"/><path class="st1" d="M258.1 334.2H126.3c-1.3 0-2.1.8-2.1 2.1s.8 2.1 2.1 2.1H257c.1-1.4.4-2.9 1.1-4.2zM510.2 334.2H318.8c.4 1.4.5 2.8.2 4.2h191.3c1.3 0 2.1-.8 2.1-2.1-.1-1.3-.9-2.1-2.2-2.1zM478.4 375.4H91.9c-1.3 0-2.1-.8-2.1-2.1s.8-2.1 2.1-2.1h386.5c1.3 0 2.1.8 2.1 2.1s-.8 2.1-2.1 2.1zM445.6 415H57.9c-1.3 0-2.1-.8-2.1-2.1s.8-2.1 2.1-2.1h387.7c1.3 0 2.1.8 2.1 2.1 0 .8-.8 2.1-2.1 2.1z"/><path class="st1" d="M83 436.6c-.4 0-1.3 0-1.3-.4-.8-.8-.8-2.1 0-3l122.5-122.5c.8-.8 2.1-.8 3 0 .8.8.8 2.1 0 3L84.7 436.2c-.4.4-.9.4-1.7.4zM257.1 328.9L152.7 433.2c-.8.8-.8 2.1 0 3 0 .4.8.4 1.3.4.4 0 .8 0 1.7-.4L259 332.8c-.9-1.1-1.6-2.4-1.9-3.9zM305.8 351.1l-82.1 82.1c-.8.8-.8 2.1 0 3 0 .4.8.4 1.3.4.4 0 .8 0 1.3-.4l83.3-83c-1.6-.4-2.8-1.1-3.8-2.1zM349.1 310.8c-.8-.8-2.1-.8-3 0l-29 29c1 1.1 1.6 2.5 1.9 4l30.1-30c.9-.9.9-2.2 0-3zM295.6 436.6c-.4 0-1.3 0-1.3-.4-.8-.8-.8-2.1 0-3l122.5-122.5c.8-.8 2.1-.8 3 0 .8.8.8 2.1 0 3L297.3 436.2c-.5.4-1.3.4-1.7.4zM366.5 436.6c-.4 0-1.3 0-1.3-.4-.8-.8-.8-2.1 0-3l122.5-122.4c.8-.8 2.1-.8 3 0 .8.8.8 2.1 0 3L368.2 436.2c-.8.4-1.3.4-1.7.4z"/><path class="st2" d="M113.6 13.7h349.5v33.2H113.6z"/><path class="st2" d="M463 49.3H113.6c-1.3 0-2.1-.8-2.1-2.1V14.1c0-1.3.8-2.1 2.1-2.1H463c1.3 0 2.1.8 2.1 2.1v33.2c0 .8-1.2 2-2.1 2zm-347.3-4.2h345.2V16.2H115.7v28.9z"/><path class="st3" d="M315.9 351.9h-45.3c-7.1 0-12.9-5.8-12.9-12.9 0-51.6-20.8-101.1-57.7-137.2-76.4-74.8-88.5-150.3-88.5-151.3 0-.4 0-1.3.4-1.7.4-.4.8-.8 1.7-.8H463c.4 0 1.3.4 1.7.8s.4 1.3.4 1.7c0 1-11.7 73.6-84.6 147.2-40.1 40.4-62.5 95.1-62.5 152.1.1 1.2-.8 2.1-2.1 2.1z"/><g><path class="st1" d="M343.2 204.9c-.4 0-1.3-.4-1.7-.8-.8-.8-.8-2.1 0-3 62.9-59.1 80.4-111.4 80.8-111.8.4-1.3 1.7-1.7 2.5-1.3 1.3.4 1.7 1.7 1.3 2.5 0 .4-18.3 53.5-81.6 113.5 0 .5-.9.9-1.3.9z"/></g><g><path class="st2" d="M331 298.5c.1.2.5.5.8.5.6.1 1.2-.2 1.4-.8 12.6-42.9 32.9-64.1 33.1-64.4.5-.5.4-1.2 0-1.4-.5-.5-1.2-.3-1.5.1-.2.1-20.8 21.9-33.7 65.2-.2.1-.2.6-.1.8zM345.3 292.2c.1.1.3.3.5.3.4.1.8-.2 1-.5 9.9-28.7 24.6-43.2 24.7-43.4.4-.4.3-.8 0-1-.3-.3-.8-.2-1 .1-.1.1-15 15-25.1 44-.2.1-.2.4-.1.5zM372.8 255.7c1 0 1.8.8 1.9 1.7 2.1 15.6 12.4 19.6 19.6 20.5l-.1-7.6c0-.7.4-1.4 1.1-1.7.7-.3 1.5-.3 2.1.2l19.7 14.8c.5.4.8.9.8 1.5s-.3 1.1-.7 1.5L397.9 302c-.6.5-1.4.6-2 .2-.7-.3-1.1-1-1.1-1.7l-.1-6.6c-9.1-1.3-15.8-4.9-19.9-10.6-4.7-6.4-6-15.5-3.8-25.7l.1-.3c-.2-.9.6-1.6 1.7-1.6-.1 0-.1 0 0 0zm23.5 26.2h-.1c-5.4-.3-16.9-2.3-22.5-14.1.1 4.4 1.1 9.2 4.1 13.3 3.8 5.2 10.1 8.3 18.9 9.2 1 .1 1.7.9 1.7 1.9l.1 4.3 14.3-11.4-14.6-10.9.1 5.8c0 .5-.2 1-.6 1.4-.4.3-.9.5-1.4.5z"/></g><g><path class="st2" d="M248.8 304.2c-12.9-43.3-33.5-65.1-33.7-65.2-.3-.4-1-.5-1.5-.1-.4.3-.5.9 0 1.4.1.3 20.5 21.5 33.1 64.4.2.6.8.9 1.4.8.3-.1.7-.4.8-.5.1-.2.2-.7-.1-.8zM234.5 298.2c-10.1-29-25-43.9-25.1-44-.2-.3-.7-.4-1-.1-.3.2-.3.6 0 1 .1.2 14.8 14.7 24.7 43.4.2.4.6.6 1 .5.2 0 .5-.2.5-.3.1 0 .1-.4-.1-.5zM207.2 262.2c1 0 1.8.7 1.9 1.7l.1.3c2.2 10.1.9 19.2-3.8 25.7-4.2 5.7-10.9 9.3-19.9 10.6l-.1 6.6c0 .7-.4 1.4-1.1 1.7-.7.3-1.5.2-2-.2L163 293.2c-.5-.4-.7-.9-.7-1.5s.3-1.1.8-1.5l19.7-14.8c.6-.4 1.4-.5 2.1-.2.7.3 1.1 1 1.1 1.7l-.1 7.6c7.2-.9 17.6-4.9 19.6-20.5-.1-1 .7-1.8 1.7-1.8zm-23.6 26.3c-.5 0-1-.2-1.3-.5-.4-.4-.6-.9-.6-1.4l.1-5.8-14.6 10.9 14.3 11.4.1-4.3c0-1 .7-1.8 1.7-1.9 8.8-1 15.1-4.1 18.9-9.2 3-4.1 4-8.9 4.1-13.3-5.6 11.8-17.1 13.8-22.5 14.1h-.2z"/></g><g><path class="st0" d="M994.5 493.1V397h-45.1v96.1h-15.7L972 539l37.8-45.9z"/><path class="st1" d="M941.7 332H810c-1.3 0-2.1.8-2.1 2.1s.8 2.1 2.1 2.1h130.7c0-1.4.4-2.9 1-4.2zM1193.9 332h-191.5c.4 1.4.5 2.8.2 4.2h191.3c1.3 0 2.1-.8 2.1-2.1s-.8-2.1-2.1-2.1zM1162 373.2H775.6c-1.3 0-2.1-.8-2.1-2.1s.8-2.1 2.1-2.1H1162c1.3 0 2.1.8 2.1 2.1 0 1.2-.8 2.1-2.1 2.1zM1129.3 412.7H741.6c-1.3 0-2.1-.8-2.1-2.1s.8-2.1 2.1-2.1h387.7c1.3 0 2.1.8 2.1 2.1 0 .8-.9 2.1-2.1 2.1z"/><path class="st1" d="M766.6 434.4c-.4 0-1.3 0-1.3-.4-.8-.8-.8-2.1 0-3l122.5-122.5c.8-.8 2.1-.8 3 0 .8.8.8 2.1 0 3L768.3 434c-.4.4-.8.4-1.7.4zM940.7 326.6L836.3 431c-.8.8-.8 2.1 0 3 0 .4.8.4 1.3.4.4 0 .8 0 1.7-.4l103.4-103.4c-1-1.1-1.6-2.5-2-4zM989.5 348.8L907.4 431c-.8.8-.8 2.1 0 3 0 .4.8.4 1.3.4.4 0 .8 0 1.3-.4l83.3-83c-1.6-.4-2.9-1.1-3.8-2.2zM1032.7 308.6c-.8-.8-2.1-.8-3 0l-29 29c1 1.1 1.6 2.5 1.9 4l30.1-30c.9-.9.9-2.2 0-3zM979.2 434.4c-.4 0-1.3 0-1.3-.4-.8-.8-.8-2.1 0-3l122.5-122.5c.8-.8 2.1-.8 3 0 .8.8.8 2.1 0 3L980.9 434c-.4.4-1.3.4-1.7.4zM1050.2 434.4c-.4 0-1.3 0-1.3-.4-.8-.8-.8-2.1 0-3l122.5-122.4c.8-.8 2.1-.8 3 0 .8.8.8 2.1 0 3L1051.9 434c-.8.4-1.3.4-1.7.4z"/><path class="st2" d="M797.2 11.4h349.5v33.2H797.2z"/><path class="st2" d="M1146.7 47.1H797.2c-1.3 0-2.1-.8-2.1-2.1V11.8c0-1.3.8-2.1 2.1-2.1h349.5c1.3 0 2.1.8 2.1 2.1V45c0 .9-1.2 2.1-2.1 2.1zm-347.4-4.2h345.2V14H799.3v28.9z"/><path class="st3" d="M999.6 349.7h-45.3c-7.1 0-12.9-5.8-12.9-12.9 0-51.6-20.8-101.1-57.7-137.2-76.4-74.8-88.5-150.3-88.5-151.3 0-.4 0-1.3.4-1.7.4-.4.8-.8 1.7-.8h349.5c.4 0 1.3.4 1.7.8.4.4.4 1.3.4 1.7 0 1-11.7 73.6-84.6 147.2-40.1 40.4-62.5 95.1-62.5 152.1 0 1.2-.9 2.1-2.2 2.1z"/><g><path class="st1" d="M1026.8 202.7c-.4 0-1.3-.4-1.7-.8-.8-.8-.8-2.1 0-3 62.9-59.1 80.4-111.4 80.8-111.8.4-1.3 1.7-1.7 2.5-1.3 1.3.4 1.7 1.7 1.3 2.5 0 .4-18.3 53.5-81.6 113.5 0 .5-.9.9-1.3.9z"/></g><g><path class="st2" d="M1014.7 296.2c.1.2.5.5.8.5.6.1 1.2-.2 1.4-.8 12.6-42.9 32.9-64.1 33.1-64.4.5-.5.4-1.2 0-1.4-.5-.5-1.2-.3-1.5.1-.2.1-20.8 21.9-33.7 65.2-.3.2-.2.7-.1.8zM1029 290c.1.1.3.3.5.3.4.1.8-.2 1-.5 9.9-28.7 24.6-43.2 24.7-43.4.4-.4.3-.8 0-1-.3-.3-.8-.2-1 .1-.1.1-15 15-25.1 44-.2.1-.2.4-.1.5zM1056.4 253.5c1 0 1.8.8 1.9 1.7 2.1 15.6 12.4 19.6 19.6 20.5l-.1-7.6c0-.7.4-1.4 1.1-1.7.7-.3 1.5-.3 2.1.2l19.7 14.8c.5.4.8.9.8 1.5s-.3 1.1-.7 1.5l-19.3 15.4c-.6.5-1.4.6-2 .2-.7-.3-1.1-1-1.1-1.7l-.1-6.6c-9.1-1.3-15.8-4.9-19.9-10.6-4.7-6.4-6-15.5-3.8-25.7l.1-.3c-.1-.9.7-1.6 1.7-1.6zm23.6 26.2h-.1c-5.4-.3-16.9-2.3-22.5-14.1.1 4.4 1.1 9.2 4.1 13.3 3.8 5.2 10.1 8.3 18.9 9.2 1 .1 1.7.9 1.7 1.9l.1 4.3 14.3-11.4-14.6-10.9.1 5.8c0 .5-.2 1-.6 1.4-.5.3-.9.5-1.4.5z"/></g><g><path class="st2" d="M932.5 302c-12.9-43.3-33.5-65.1-33.7-65.2-.3-.4-1-.5-1.5-.1-.4.3-.5.9 0 1.4.1.3 20.5 21.5 33.1 64.4.2.6.8.9 1.4.8.3-.1.7-.4.8-.5.1-.2.1-.7-.1-.8zM918.2 296c-10.1-29-25-43.9-25.1-44-.2-.3-.7-.4-1-.1-.3.2-.3.6 0 1 .1.2 14.8 14.7 24.7 43.4.2.4.6.6 1 .5.2 0 .5-.2.5-.3 0-.1 0-.4-.1-.5zM890.8 260c1 0 1.8.7 1.9 1.7l.1.3c2.2 10.1.9 19.2-3.8 25.7-4.2 5.7-10.9 9.3-19.9 10.6l-.1 6.6c0 .7-.4 1.4-1.1 1.7-.7.3-1.5.2-2-.2L846.6 291c-.5-.4-.7-.9-.7-1.5s.3-1.1.8-1.5l19.7-14.8c.6-.4 1.4-.5 2.1-.2.7.3 1.1 1 1.1 1.7l-.1 7.6c7.2-.9 17.6-4.9 19.6-20.5-.1-1 .8-1.8 1.7-1.8zm-23.5 26.2c-.5 0-1-.2-1.3-.5-.4-.4-.6-.9-.6-1.4l.1-5.8-14.6 10.9 14.3 11.4.1-4.3c0-1 .8-1.8 1.7-1.9 8.8-1 15.1-4.1 18.9-9.2 3-4.1 4-8.9 4.1-13.3-5.6 11.8-17.1 13.8-22.5 14.1h-.2z"/></g></g><g><path class="st0" d="M647.8 745.1V649h-45v96.1H587l38.3 45.9 37.8-45.9z"/><path class="st1" d="M595.1 583.9H463.3c-1.3 0-2.1.8-2.1 2.1s.8 2.1 2.1 2.1H594c0-1.4.4-2.9 1.1-4.2zM847.2 583.9H655.7c.4 1.4.5 2.8.2 4.2h191.3c1.3 0 2.1-.8 2.1-2.1s-.8-2.1-2.1-2.1zM815.3 625.2H428.9c-1.3 0-2.1-.8-2.1-2.1s.8-2.1 2.1-2.1h386.5c1.3 0 2.1.8 2.1 2.1-.1 1.2-.9 2.1-2.2 2.1zM782.6 664.7H394.9c-1.3 0-2.1-.8-2.1-2.1s.8-2.1 2.1-2.1h387.7c1.3 0 2.1.8 2.1 2.1 0 .8-.8 2.1-2.1 2.1z"/><path class="st1" d="M419.9 686.4c-.4 0-1.3 0-1.3-.4-.8-.8-.8-2.1 0-3l122.5-122.5c.8-.8 2.1-.8 3 0 .8.8.8 2.1 0 3L421.6 686c-.4.4-.8.4-1.7.4zM594 578.6L489.6 683c-.8.8-.8 2.1 0 3 0 .4.8.4 1.3.4.4 0 .8 0 1.7-.4L596 582.6c-.9-1.1-1.6-2.5-2-4zM642.8 600.8L560.7 683c-.8.8-.8 2.1 0 3 0 .4.8.4 1.3.4.4 0 .8 0 1.3-.4l83.3-83c-1.6-.4-2.8-1.1-3.8-2.2zM686 560.6c-.8-.8-2.1-.8-3 0l-29 29c1 1.1 1.6 2.5 1.9 4l30.1-30c.9-.9.9-2.2 0-3zM632.5 686.4c-.4 0-1.3 0-1.3-.4-.8-.8-.8-2.1 0-3l122.5-122.5c.8-.8 2.1-.8 3 0 .8.8.8 2.1 0 3L634.2 686c-.4.4-1.3.4-1.7.4zM703.5 686.4c-.4 0-1.3 0-1.3-.4-.8-.8-.8-2.1 0-3l122.5-122.4c.8-.8 2.1-.8 3 0 .8.8.8 2.1 0 3L705.2 686c-.8.4-1.3.4-1.7.4z"/><path class="st2" d="M450.5 263.4H800v33.2H450.5z"/><path class="st2" d="M800 299.1H450.5c-1.3 0-2.1-.8-2.1-2.1v-33.2c0-1.3.8-2.1 2.1-2.1H800c1.3 0 2.1.8 2.1 2.1V297c0 .9-1.2 2.1-2.1 2.1zm-347.4-4.2h345.2V266H452.6v28.9z"/><path d="M652.9 601.7h-45.3c-7.1 0-12.9-5.8-12.9-12.9v0c0-51.6-20.8-101.1-57.7-137.2-76.4-74.8-88.5-150.3-88.5-151.3 0-.4 0-1.3.4-1.7s.8-.8 1.7-.8H800c.4 0 1.3.4 1.7.8s.4 1.3.4 1.7c0 1-11.7 73.6-84.6 147.2-40.1 40.4-62.5 95.1-62.5 152.1v0c.1 1.2-.8 2.1-2.1 2.1z" fill="#fff" stroke="#dbdbdb" stroke-width="4" stroke-miterlimit="10"/><g><path class="st1" d="M680.1 454.7c-.4 0-1.3-.4-1.7-.8-.8-.8-.8-2.1 0-3 62.9-59.1 80.4-111.4 80.8-111.8.4-1.3 1.7-1.7 2.5-1.3 1.3.4 1.7 1.7 1.3 2.5 0 .4-18.3 53.5-81.6 113.5 0 .5-.9.9-1.3.9z"/></g><g><path class="st2" d="M668 548.2c.1.2.5.5.8.5.6.1 1.2-.2 1.4-.8 12.6-42.9 32.9-64.1 33.1-64.4.5-.5.4-1.2 0-1.4-.5-.5-1.2-.3-1.5.1-.2.1-20.8 21.9-33.7 65.2-.3.2-.2.6-.1.8zM682.3 542c.1.1.3.3.5.3.4.1.8-.2 1-.5 9.9-28.7 24.6-43.2 24.7-43.4.4-.4.3-.8 0-1-.3-.3-.8-.2-1 .1-.1.1-15 15-25.1 44-.2.1-.2.4-.1.5zM709.7 505.5c1 0 1.8.8 1.9 1.7 2.1 15.6 12.4 19.6 19.6 20.5l-.1-7.6c0-.7.4-1.4 1.1-1.7.7-.3 1.5-.3 2.1.2l19.7 14.8c.5.4.8.9.8 1.5s-.3 1.1-.7 1.5l-19.3 15.4c-.6.5-1.4.6-2 .2-.7-.3-1.1-1-1.1-1.7l-.1-6.6c-9.1-1.3-15.8-4.9-19.9-10.6-4.7-6.4-6-15.5-3.8-25.7l.1-.3c-.1-.9.7-1.6 1.7-1.6zm23.6 26.2h-.1c-5.4-.3-16.9-2.3-22.5-14.1.1 4.4 1.1 9.2 4.1 13.3 3.8 5.2 10.1 8.3 18.9 9.2 1 .1 1.7.9 1.7 1.9l.1 4.3 14.3-11.4-14.7-10.9.1 5.8c0 .5-.2 1-.6 1.4-.3.3-.8.5-1.3.5z"/></g><g><path class="st2" d="M585.8 554c-12.9-43.3-33.5-65.1-33.7-65.2-.3-.4-1-.5-1.5-.1-.4.3-.5.9 0 1.4.1.3 20.5 21.5 33.1 64.4.2.6.8.9 1.4.8.3-.1.7-.4.8-.5.1-.2.1-.7-.1-.8zM571.5 548c-10.1-29-25-43.9-25.1-44-.2-.3-.7-.4-1-.1-.3.2-.3.6 0 1 .1.2 14.8 14.7 24.7 43.4.2.4.6.6 1 .5.2 0 .5-.2.5-.3s.1-.4-.1-.5zM544.1 512s.1 0 0 0c1 0 1.8.7 1.9 1.7l.1.3c2.2 10.1.9 19.2-3.8 25.7-4.2 5.7-10.9 9.3-19.9 10.6l-.1 6.6c0 .7-.4 1.4-1.1 1.7-.7.3-1.5.2-2-.2L499.9 543c-.5-.4-.7-.9-.7-1.5s.3-1.1.8-1.5l19.7-14.8c.6-.4 1.4-.5 2.1-.2.7.3 1.1 1 1.1 1.7l-.1 7.6c7.2-.9 17.6-4.9 19.6-20.5-.1-1 .8-1.8 1.7-1.8zm-23.5 26.2c-.5 0-1-.2-1.3-.5-.4-.4-.6-.9-.6-1.4l.1-5.8-14.6 10.9 14.3 11.4.1-4.3c0-1 .7-1.8 1.7-1.9 8.8-1 15.1-4.1 18.9-9.2 3-4.1 4-8.9 4.1-13.3-5.6 11.8-17.1 13.8-22.5 14.1h-.2z"/></g></g></svg>