<svg version="1.1" id="Calque_1" xmlns="http://www.w3.org/2000/svg" x="0" y="0" viewBox="0 0 1280 800" xml:space="preserve"><style>.st0{fill:#25dddf}.st1{fill:#ffcba4}.st2{fill:#3ad29f}.st4{fill:#fff;stroke:#f1f1f1;stroke-miterlimit:10}.st5{fill:#b8e9f4}.st7{fill:#fff}.st8{fill:none;stroke:#dbdbdb;stroke-width:2;stroke-miterlimit:10}.st9{fill:#dbdbdb}.st13{fill:#fff;stroke:#dbdbdb;stroke-miterlimit:10}.st15{fill:#606263}.st16{fill:#76b6d7}.st18{opacity:.2}.st21{fill:#30abaa}.st23{fill:#4d8af0}</style><path class="st0" d="M985.4 234.1c-4.4-3.2-10.5-2.6-14.2 1.3-4.1 4.4-3.9 11.3.4 15.5l13.6 13.5c.9.9 2.3.9 3.2 0l13.5-13.6c4.3-4.2 4.4-11.1.3-15.5-3.8-3.9-9.8-4.4-14.2-1.2-.7.6-1.8.6-2.6 0z"/><path class="st1" d="M1075.1 326.3c-4.4-3.2-10.5-2.6-14.2 1.3-4.1 4.4-3.9 11.3.4 15.5l13.6 13.5c.9.9 2.3.9 3.2 0l13.5-13.6c4.3-4.2 4.4-11.1.4-15.5-3.8-3.9-9.8-4.4-14.2-1.2-.8.6-1.9.6-2.7 0z"/><path class="st2" d="M1206.7 447.1h3v17h-3z"/><path class="st2" d="M1199.7 454.1h17v3h-17zm-17.1-157.7h3v17h-3z"/><path class="st2" d="M1175.6 303.4h17v3h-17z"/><path d="M963.9 367.3c-1.7-.8-2.6-2.7-2-4.4 0-.1.1-.3.1-.4.1-1-.7-1.9-1.7-2-.6 0-1.2.2-1.6.7-.1.1-.1.2-.2.4-.8 1.7-2.7 2.6-4.4 2-.1 0-.3-.1-.4-.1-1-.1-1.9.7-2 1.7 0 .6.2 1.2.7 1.6.1.1.2.1.4.2 1.7.8 2.6 2.7 2 4.4 0 .1-.1.3-.1.4-.1 1 .7 1.9 1.7 2 .6 0 1.2-.2 1.6-.7.1-.1.1-.2.2-.4.8-1.7 2.7-2.6 4.4-2 .1 0 .3.1.4.1 1 .1 1.9-.7 2-1.7 0-.6-.2-1.2-.7-1.6-.1-.1-.2-.2-.4-.2zm-34.1 135.1c-1.7-.8-2.6-2.7-2-4.4 0-.1.1-.3.1-.4.1-1-.7-1.9-1.7-2-.6 0-1.2.2-1.6.7-.1.1-.1.2-.2.4-.8 1.7-2.7 2.6-4.4 2-.1 0-.3-.1-.4-.1-1-.1-1.9.7-2 1.7 0 .6.2 1.2.7 1.6.1.1.2.1.4.2 1.7.8 2.6 2.7 2 4.4 0 .1-.1.3-.1.4-.1 1 .7 1.9 1.7 2 .6 0 1.2-.2 1.6-.7.1-.1.1-.2.2-.4.8-1.7 2.7-2.6 4.4-2 .1 0 .3.1.4.1 1 .1 1.9-.7 2-1.7 0-.6-.2-1.2-.7-1.6-.2-.1-.3-.1-.4-.2z" fill="#f55f44"/><path class="st4" d="M352.2 288.8C236 141.7 119.7 440.8 3.5 293.7 2.3 237.6 1.2 181.6 0 125.5 118.5 278.8 237.1-23 355.7 130.4c-1.2 52.8-2.3 105.6-3.5 158.4zm383.4-106.6c-78.3 65.1-156.6-67.2-234.8-2.1l-2.4 74.4c79.9-67.9 159.7 65.7 239.6-2.2-.8-23.4-1.6-46.7-2.4-70.1z"/><path class="st4" d="M484.4 305.3H371.5c-11 0-20-9-20-20V134c0-11 9-20 20-20h112.9c11 0 20 9 20 20v151.3c0 11-9 20-20 20zm382.8 46.3H754.3c-11 0-20-9-20-20V180.3c0-11 9-20 20-20h112.9c11 0 20 9 20 20v151.3c0 11-9 20-20 20z"/><path class="st5" d="M898.7 390.7L1161 347v129.1l-262.3 8.3z"/><linearGradient id="SVGID_1_" gradientUnits="userSpaceOnUse" x1="1076.85" y1="607.3" x2="1076.85" y2="498" gradientTransform="translate(0 -278)"><stop offset="0" stop-color="gray" stop-opacity=".25"/><stop offset=".54" stop-color="gray" stop-opacity=".12"/><stop offset="1" stop-color="gray" stop-opacity=".1"/></linearGradient><path fill="url(#SVGID_1_)" d="M1171 220l-188.3 53.6v55.7l188.3-40.4z"/><path class="st7" d="M1165.9 222.1l-179 52.1v52l179-41.6z"/><path class="st8" d="M1016 292.8c0 7.7-3.7 14.9-8.3 16s-8.2-4.1-8.2-11.7 3.6-14.8 8.2-16 8.3 4 8.3 11.7z"/><path class="st9" d="M1145.1 257.5l-113.8 29.9V281l113.8-30.7zm0 14.6L1031.3 302v-6.4l113.8-30.7z"/><path class="st7" d="M957.7 433c0-14.7-6.6-25.7-14.6-24.6-7.8 1.1-14 13.4-14 27.5s6.2 25.2 14 24.6c8-.5 14.6-12.9 14.6-27.5zm168-11.1l-156.9 17.4v-9.8l156.9-19.2z"/><linearGradient id="SVGID_2_" gradientUnits="userSpaceOnUse" x1="1068.3" y1="880.5" x2="1068.3" y2="806.7" gradientTransform="translate(0 -278)"><stop offset="0" stop-color="gray" stop-opacity=".25"/><stop offset=".54" stop-color="gray" stop-opacity=".12"/><stop offset="1" stop-color="gray" stop-opacity=".1"/></linearGradient><path fill="url(#SVGID_2_)" d="M1160 530.9l-185.4-2.2v56.5l187.4 17.3z"/><path class="st7" d="M1158.9 534.4l-179-2.1v50l179 14.5z"/><path class="st8" d="M1018.1 559.8c0 7.7-3.7 13.7-8.3 13.4s-8.2-6.7-8.2-14.3 3.6-13.6 8.2-13.4 8.3 6.6 8.3 14.3z"/><path class="st9" d="M1145.1 561.4l-110.1-5.2v-6.5l110.1 4.4zm0 14.6l-110.1-5.3v-6.5l110.1 4.5z"/><linearGradient id="SVGID_3_" gradientUnits="userSpaceOnUse" x1="1077.35" y1="505.3" x2="1077.35" y2="374.2" gradientTransform="translate(0 -278)"><stop offset="0" stop-color="gray" stop-opacity=".25"/><stop offset=".54" stop-color="gray" stop-opacity=".12"/><stop offset="1" stop-color="gray" stop-opacity=".1"/></linearGradient><path fill="url(#SVGID_3_)" d="M1171 96.2l-187.3 75v56.1l187.3-62.4z"/><path class="st7" d="M1168 99.3l-181.1 74.9v47.9l181.1-60.3z"/><path class="st8" d="M1024.3 183.5c0 7.7-3.7 15.3-8.3 17s-8.2-3.1-8.2-10.6 3.6-15.1 8.2-16.9c4.5-1.8 8.3 2.8 8.3 10.5z"/><path class="st9" d="M1149.2 132.6l-110 42.8V168l110-43.8zm0 18.7l-110 42.9v-7.5l110-43.8z"/><linearGradient id="SVGID_4_" gradientUnits="userSpaceOnUse" x1="862.183" y1="73.793" x2="875.745" y2="73.793" gradientTransform="matrix(1 0 0 -1 0 522)"><stop offset="0" stop-color="gray" stop-opacity=".25"/><stop offset=".54" stop-color="gray" stop-opacity=".12"/><stop offset="1" stop-color="gray" stop-opacity=".1"/></linearGradient><path d="M864.3 441.1s-3.6 15.1 0 17.3l10.8-6.5-7.2-13.7-3.6 2.9z" fill="#fff" stroke="url(#SVGID_4_)" stroke-miterlimit="10"/><path class="st13" d="M904.1 574.5l-9.5-39.7-9.5 12.7s7.9 25.4 12.7 28.6l6.3-1.6zm6.4-136.7s-6.4-9.5-12.7 0c0 0 1.6 6.4 0 9.5s-6.4 14.3-6.4 14.3h-14.3v7.9l17.5 4.8 11.1-27V441l4.8-3.2z"/><path fill="#5989a1" d="M888.2 456.9l-3.2 17.5-12.7-3.2v-14.3z"/><circle class="st13" cx="862.8" cy="431.4" r="14.3"/><path class="st15" d="M859.6 429.9l12.7-15.9s-8.1-2.2-15.8.8c-14.2 5.4-14.2 26.1 0 31.6 2 .8 4.1 1.2 6.3 1v-9.5H858l1.6-8z"/><path class="st13" d="M894.6 396.5l-1.6 28.6-12.7 15.9-7.9-4.8 11.1-17.5 4.8-27s-2.8-6.9 11-10.4c1.4-.4 2.9.5 3.3 1.9.1.3.1.6.1.8-.4 4.1-1.8 10.4-8.1 12.5zm-12.7 125.6l1.6 12.7s-14.3 11.1-14.3 27l-1.6 3.2 4.8 4.8 25.4-30.2s0-17.5-4.8-22.3l-11.1 4.8z"/><path class="st5" d="M873.8 567.9l.1 8.2s12.7 1.6 9.5 9.5h-12.7L858 569.7l9.5-7.9 6.3 6.1zm28.7 5l6.4 4.8s20.7-1.6 12.7 9.5h-27v-12.7l7.9-1.6z"/><path class="st1" d="M897.7 520.5s-14.3 11.1-20.7 7.9l-4.8-22.3s-6.4 0-9.5-7.9v-9.6l30.2 9.5c.1.1.1 17.6 4.8 22.4z"/><path class="st16" d="M885 441l-12.7-9.5s-6.4 19.1-9.5 19.1c-3.2 0-3.2 17.5 1.6 20.7l-1.6 17.5 30.2 9.5s-4.8-31.8-14.3-42.9L885 441z"/><path fill="#47e6b1" d="M1008.4 184.6l3.6-.6 3.7 3.7 4.1-7.8h4.5l-8.6 10.8z"/><path class="st0" d="M930.5 433.9l5.8-.9 5.8 5.8 6.6-12.4h7.2l-13.8 17.3z"/><path class="st0" d="M930.5 433.9l5.8-.9 5.8 5.8 6.6-12.4h7.2l-13.8 17.3z"/><g class="st18"><linearGradient id="SVGID_5_" gradientUnits="userSpaceOnUse" x1="1352.771" y1="716.31" x2="1352.771" y2="715.82" gradientTransform="translate(-178 -366.36)"><stop offset="0" stop-color="gray" stop-opacity=".25"/><stop offset=".54" stop-color="gray" stop-opacity=".12"/><stop offset="1" stop-color="gray" stop-opacity=".1"/></linearGradient><path d="M1174.4 349.5l.1.4c1.5-.7-.1-.4-.1-.4z" fill="url(#SVGID_5_)"/></g><g class="st18"><linearGradient id="SVGID_6_" gradientUnits="userSpaceOnUse" x1="1294.944" y1="1037.66" x2="1294.944" y2="706.79" gradientTransform="translate(-178 -366.36)"><stop offset="0" stop-color="gray" stop-opacity=".25"/><stop offset=".54" stop-color="gray" stop-opacity=".12"/><stop offset="1" stop-color="gray" stop-opacity=".1"/></linearGradient><path d="M1158.6 671l31.2-5-4.3-19.1-.1-.3h-.1l-22.1-101.5v-74c0-.9-.1-1.9-.2-2.8 33-43.8 13.3-112.4 11.5-118.4-.3.2-.9.4-1.6.7-.2-2.7-.7-5.3-1.5-7.9 0 0-9.6-6.1-14.8 1.7-4.5 6.8-1.2 11-.2 12l-.6.2c1.5 2.3 2.5 4.9 3 7.5-.3-.7-.6-1.3-1-1.9-1.2-.2-2-.4-2-.4l-.2-.2-.6.2c3.3 4.8 4.5 13.3 4.3 23.5-1.1-1.6-2.4-3.1-3.8-4.4-6.1-5.8-14-9.1-22.4-9.3h-1.6c-.9 0-1.7.1-2.6.2l-.6.1-1.1.1c-.4.1-.8.2-1.2.2l-.9.2c-.5.1-1 .3-1.5.4l-.6.2c-.7.2-1.3.4-1.9.7-2.1 1-4.3 1.8-6.6 2.4-.3 0-.6.1-.9.1-2.6.2-5.1-.5-7.2-2-.2-.2-.5-.4-.7-.5-.3-.2-.5-.5-.8-.7-.3.7-.4 1.4-.3 2.1.1 1.7.9 3.3 2.2 4.3.4.3.8.6 1.2.8.6.3 1.3.5 2 .6h.7l-.2.1c-.4.2-.9.4-1.3.6h-.1c-.5.2-1 .3-1.5.5h-.1c-2.5.6-5.1.7-7.7.1l-.8-.2c-.4-.1-.8-.2-1.2-.4.1.3.3.6.4.8l.2.3c.1.2.2.4.3.5l.2.3c.1.2.2.3.4.5l.2.2.5.5.2.2c.2.2.5.4.7.6l.2.2.5.4.3.2.5.3.4.2.5.2.4.2.5.2.7.2.5.1.5.1.4.1h2.3c1-.1 2-.3 2.9-.7-.6.3-1.2.5-1.8.7l-.9.3-.9.3-.9.3-.9.3-.9.2-1 .2-.9.2-1 .2-.8.1-1.1.1-.8.1-1.2.1h-2.6c.7 0 1.8.8 2.9 1.5.5.4 1.1.7 1.8 1 .3.1.6.1.9.2h.2l.6.1h2.6c.3 0 .6 0 .8.1 1.8.2 3.5.7 5 1.6.8.5 1.5 1.1 2.1 1.9-.3.4-.5.9-.8 1.3s-.4.8-.6 1.2c-.4.8-.7 1.6-1 2.4-1.1 3-1.6 6.1-1.6 9.3 0 .6 0 1.2.1 1.7v.5c0 .5.1.9.2 1.4v.3c.1.6.2 1.1.3 1.7l.1.3c.1.5.2.9.3 1.3l.1.4c.3 1.1.7 2.1 1.2 3.2l.1.3c.2.5.4.9.7 1.4l.1.1.9 1.5.1.1c.3.5.6.9.9 1.3l.1.2c.7.9 1.4 1.8 2.2 2.7l.1.1c2.1 2.2 4.5 4 7.2 5.4-.1.4-.2.8-.2 1.2 0 .4-.1.9-.1 1.3v10.1c-.6.3-1.1.6-1.7 1-24-10.9-59.7-88.1-59.7-88.1h-.9c3.5-2.6 0-13.9 0-13.9-2-1.2-4.3-2-6.7-2.2h-2.3l-.3.1h-.2l-.4.1-.1.2-.6.2-.5.2-.2.1-.4.2-.2.1-.3.2-.2.2-.3.3-.2.2-.3.3-.2.2-.3.4-.2.2c-.2.2-.3.4-.5.7-5.2 7.8 0 12.2 0 12.2-.3 3-.5 6-.5 9.1-.4 56.4 59.9 100.1 63 102.3-1.4 3.5-12.6 34.7.1 73.7 0 .1.1.2.2.3-29.5 27.1-42.4 67.8-33.9 106.9l.2 1.2h.6c-.1.3-.1.5-.2.8-.1.5-.3.9-.6 1.3-.4.7-.8 1.4-1.4 2l-.1.1c-.6.7-1.3 1.4-2 2.1l-.8.7c-3 2.9-6.1 5.7-3.8 6.9h32.9v-14.3h.6s-.2-.5-.6-1.3v-.3h-.1c-1.7-4.5-5.7-18.2.7-39.3 7.8-26.1 38.3-39.2 38.3-39.2l.6 1.8-.1.1 23.8 78.5c0 .3 0 .6-.1.9-.1.7-.3 1.5-.5 2.2-.2.5-.4 1.1-.7 1.6-1.5 3-4 6.6-5.1 9.3-.2.4-.3.7-.4 1.1-.1.4-.2.9-.1 1.3.1.6.4 1.1 1 1.3l.4-.1.8-.2zm-9.2-223.4l-1.8-.9v-9.5c0-.7-.1-1.4-.2-2.2 2.1-1 4-2.2 5.8-3.7-1.4 5.9-2.7 11.5-3.8 16.3z" fill="url(#SVGID_6_)"/></g><path class="st13" d="M1045.5 368.5s-5.8-4.8 0-13.5 16.4-1.9 16.4-1.9 3.9 12.5 0 15.4c-3.9 2.8-16.4 0-16.4 0z"/><path id="a3c32856-4a80-4c98-bc66-0983250df946" class="st21" d="M1105.1 691.2h-26.6s.6 3.2-2.5 6.8c-3.6 4.1-10.8 9.1-7.4 10.8h36.5v-17.6z"/><path id="d5cddcd9-79b8-465c-ad2b-bd849a7889d8" class="st21" d="M1199.8 685.7l-24.9 4.1c.7 3 .3 6.1-1.1 8.8-2.7 5.7-8.8 12.9-5.2 14.5l36-5.8-4.8-21.6z"/><path class="st9" d="M1187.6 356.7s28.5 89.7-19.2 139.5l-13.8-10.5s28.2-98 12.4-121c27.8-9.4 20.6-8 20.6-8z"/><path class="st13" d="M1167.7 364.6s-6.7-4.8 0-13.5 19.1-1.9 19.1-1.9 4.5 12.5 0 15.4c-4.5 2.9-19.1 0-19.1 0zm-25.2 75.7h3.7c6.4 0 11.7 5.2 11.7 11.7v16.7c0 6.4-5.2 11.7-11.7 11.7h-3.7c-6.4 0-11.7-5.2-11.7-11.7V452c0-6.5 5.2-11.7 11.7-11.7z"/><circle class="st13" cx="1144.8" cy="424.4" r="29.9"/><path class="st9" d="M1175.2 573.4s-57.7 6.5-59.8 0c-14.9-45.8 0-82 0-82 0-16.5 13.4-29.9 29.9-29.9s29.9 13.4 29.9 29.9v82z"/><path d="M1175.2 573.4l26 119.6h-26l-27-88.7s-33.8 14.5-42.4 43.4c-8.7 28.9 0 45.3 0 45.3h-28l-.3-1.3c-9.4-43.4 5.1-88.4 37.9-118.3" fill="#3393af"/><path class="st9" d="M1114.9 490.9s-77.1-54-69.4-122.5h17.4s41.5 89.7 68 98.4-16 24.1-16 24.1z"/><path class="st15" d="M1121 411c2 3.7 2.5 8 3.5 12 2 8.4 6.2 16.7 13.7 21.1 4.1 2.3 8.7 3.5 13.4 3.7 7.1.5 14.8-.9 19.9-6 3.3-3.3 5.1-7.7 6.1-12.2 3-13.5-1-28.4-10.9-38s-25.4-13.2-38.2-8c-2.4 1-4.7 2.2-7.3 2.6-3.9.6-7.8-.7-10.6-3.5-1.6 4 2.2 9 6.4 8.7-4.5 2.1-9.6 2.4-14.3.8 2.7 5.7 9.3 8.3 15.2 6.1-5.5 2.4-11.4 3.6-17.4 3.5 1.2 0 3.7 2.3 5.2 2.8 2.1.6 3.8.1 5.7.4 4.4.4 7.4 1.9 9.6 6z"/><path class="st13" d="M743.2 447.3l17.3 8.2 4.3-28h-21.6z"/><ellipse class="st1" cx="754.9" cy="411.7" rx="23.5" ry="24.7"/><path class="st13" d="M760.1 674.7v12.7h18.5l-1.5-10.8zm-50.7-9.9l1.5 17h-1c-7.3 0-14.3-2.5-19.7-6.9l-5.4-4.4 13.8-12.7 10.8 7z"/><path class="st23" d="M747.8 585.7l-1.5 18.4-27.7 56.5-21.5-9.9 27.7-59.4 1.5-45.2h24.6z"/><path class="st9" d="M747.8 585.7l-1.5 18.4-27.7 56.5-21.5-9.9 27.7-59.4 1.5-45.2h24.6z"/><path class="st13" d="M754 482.6l26.1 48s8.4 17.6-.6 18.1c-12.9-2.1-10.6-6.7-12.3-10.8l-16.3-51.1 3.1-4.2z"/><ellipse class="st13" cx="759.7" cy="414.3" rx="24.6" ry="22.6"/><path class="st9" d="M760.1 529.2s18.4 87.6 17 135.7H754l-6.1-67.8-17-36.7s-23-7.1-15.3-31.1h44.5v-.1z"/><path class="st23" d="M754 662.8h23.1v14.7H754z"/><path class="st9" d="M754 662.8h23.1v14.7H754zm-34.7-3.6l-6.5 11.3-20.3-9.8 5.4-11.6z"/><path class="st15" d="M776.4 682l25.6 7c2.6.7 4.3 2.9 4.3 5.3 0 3.1-2.7 5.6-6.1 5.6h-.2l-34-1c-3.3-.1-5.9-2.6-5.9-5.6v-6c0-3.1 2.7-5.6 6.1-5.6h8.4c.6 0 1.2.1 1.8.3z"/><path class="st5" d="M743.1 440.1l21.7 15.7c5 3.5 8.1 8.8 8.5 14.6.4 6-2.3 13-14.6 16.5 0 0 4.6 45.2 12.3 48h-58.4s3.9-20.9 6-43.8c2.2-26.5 3.9-48.8 24.5-51z"/><path class="st13" d="M743.2 468.4L729.4 491l1.5 50.9s7.7 11.3 1.5 12.7-15.4-2.8-13.8-11.3v-57.9s4.6-24 9.2-29.7l15.4 12.7z"/><path class="st15" d="M701.7 671.2l20.2 16.1c2 1.6 2.6 4.2 1.5 6.5-1.4 2.8-5 4-8 2.8-.1 0-.1-.1-.2-.1l-30.5-13.8c-2.9-1.3-4.2-4.5-2.8-7.3l2.7-5.5c1.4-2.8 4.9-4 8-2.7l7.7 3.2c.4.2.9.5 1.4.8z"/><path class="st1" d="M730.8 397l5.6 2.5 3.9-6.2-5.5-2.7z"/><path class="st1" d="M734.8 390.6s-36.9-35.7-29.2 51c0 0 8.9-23.5 25.2-44.6l4-6.4z"/><ellipse class="st1" cx="752.6" cy="411.7" rx="21.3" ry="21.6"/><ellipse class="st1" cx="765.8" cy="397.3" rx="12.6" ry="7.2"/><path class="st16" d="M1216.4 324.2c1.3.2 2.5.5 3.4 1s1.7 1.2 2.4 1.9l-.9 1.3c-.3.4-.6.6-.9.6-.2 0-.4-.1-.6-.3-.2-.2-.5-.4-.9-.6s-.8-.4-1.3-.7c-.5-.2-1-.4-1.7-.5l-1.8 9.6c.8.3 1.7.6 2.5.9s1.6.7 2.2 1.2 1.2 1.1 1.6 1.8c.4.7.6 1.6.6 2.6 0 1.2-.2 2.4-.7 3.5s-1.1 2.1-2 3-1.9 1.6-3.1 2.1-2.6.9-4.1.9l-.7 3.5c0 .2-.1.4-.4.6-.2.2-.4.3-.7.3h-1.3l.8-4.4c-1.6-.1-2.9-.5-4.2-1.2-1.2-.6-2.2-1.4-3.1-2.4l1.2-1.5.4-.4c.2-.1.3-.1.5-.1s.5.1.8.4c.3.2.6.5 1.1.9.4.3.9.6 1.5.9s1.4.5 2.2.6l2-10.6c-.8-.2-1.6-.5-2.4-.9-.8-.3-1.5-.7-2.1-1.2s-1.1-1.1-1.5-1.8c-.4-.7-.6-1.6-.6-2.7s.2-2.1.6-3.1 1.1-1.9 1.9-2.7c.8-.8 1.8-1.4 3-1.9s2.5-.8 3.9-.8l.5-2.8c0-.2.2-.5.4-.7.2-.2.4-.3.7-.3h1.3l-.5 4zm-2.6 2.8c-.9.1-1.8.3-2.5.6s-1.3.7-1.7 1.1c-.5.4-.8.9-1 1.5s-.3 1.1-.3 1.8c0 .5.1 1 .3 1.4.2.4.5.8.8 1.1.3.3.8.6 1.2.8.5.2 1 .5 1.5.7l1.7-9zm-2.2 22.8c1-.1 1.8-.3 2.6-.6s1.4-.8 1.9-1.3.9-1.1 1.2-1.8c.3-.7.4-1.4.4-2.2 0-.6-.1-1.1-.3-1.5-.2-.4-.5-.8-.9-1.1-.4-.3-.8-.6-1.3-.8-.5-.2-1.1-.4-1.6-.6l-2 9.9z"/><path class="st5" d="M1067 502.8c-.1.2-.2.3-.4.4l-5.2 1.5.8 4.3c.2.8.2 1.6.2 2.2-.1.6-.2 1.2-.5 1.8.2-.1.5-.3.7-.4.2-.1.5-.2.7-.3l8.4-2.4.2 1.2v.5c0 .2 0 .3-.1.5-.1.1-.1.3-.2.4-.1.1-.2.2-.4.2l-11.9 3.4-.4-1.9c.3-.2.5-.4.7-.6.2-.2.3-.5.4-.8s.2-.7.2-1c0-.4 0-.8-.1-1.4l-1-5-2 .6-.2-1.2c0-.2 0-.4.1-.6s.2-.3.4-.4l1.4-.4-.8-4.4c-.2-1-.3-2.1-.2-3 .1-1 .3-1.9.6-2.7.3-.8.8-1.5 1.4-2.1s1.4-1 2.3-1.3c.7-.2 1.3-.3 1.9-.2.6.1 1.1.2 1.5.5.5.3.9.6 1.3 1s.7.9 1 1.4l-.7 1c-.2.2-.4.3-.5.3-.2 0-.4-.1-.6-.3-.2-.3-.5-.5-.7-.7s-.5-.4-.7-.5c-.3-.1-.5-.2-.9-.2-.3 0-.7 0-1.1.1-.5.2-1 .4-1.4.8s-.7.8-.9 1.3c-.2.5-.3 1.1-.4 1.8 0 .7 0 1.4.2 2.1l.8 4.4 5.8-1.7.2 1.2c.2.2.1.4.1.6z"/><path class="st9" d="M996.9 350.2h2.4c.4-1.5.9-2.8 1.6-3.9.7-1.2 1.5-2.2 2.4-3s2-1.4 3.1-1.9c1.1-.4 2.3-.7 3.6-.7 1.5 0 2.8.3 3.8.9s1.9 1.4 2.5 2.4l-1.2 1.1-.3.3c-.1.1-.2.1-.4.1s-.4-.1-.6-.3c-.2-.2-.5-.5-.8-.7-.3-.3-.8-.5-1.3-.7s-1.2-.3-2.1-.3-1.7.1-2.5.4-1.5.7-2.1 1.3c-.6.6-1.2 1.3-1.7 2.2-.5.9-.9 1.8-1.2 2.9h9.6l-.1.9c0 .2-.1.4-.3.5-.2.2-.4.2-.7.2h-8.9c-.1.4-.1.8-.2 1.2 0 .4-.1.8-.1 1.3h8.2l-.1.9c0 .2-.1.4-.3.5-.2.2-.4.2-.7.2h-7.1c.1 2.3.6 4.1 1.6 5.4 1 1.2 2.3 1.9 3.9 1.9.9 0 1.7-.1 2.4-.4.6-.3 1.2-.5 1.6-.9.4-.3.8-.6 1-.9.3-.3.5-.4.7-.4h.2c.1 0 .1.1.2.2l1.1 1.2c-1 1.2-2.1 2.1-3.3 2.7-1.3.6-2.7 1-4.3 1-1.3 0-2.4-.2-3.4-.7s-1.8-1.1-2.5-2-1.2-1.9-1.6-3.1-.6-2.5-.6-4h-2.5l.2-1.7h2.3c0-.8.1-1.7.3-2.5h-2.3l.5-1.6zM974.5 144.4h2.4c.4-1.5.9-2.8 1.6-3.9.7-1.2 1.5-2.2 2.4-3s2-1.4 3.1-1.9c1.1-.4 2.3-.7 3.6-.7 1.5 0 2.8.3 3.8.9 1 .6 1.9 1.4 2.5 2.4l-1.2 1.1-.3.3c-.1.1-.2.1-.4.1s-.4-.1-.6-.3-.5-.5-.8-.7c-.3-.3-.8-.5-1.3-.7s-1.2-.3-2.1-.3c-.9 0-1.7.1-2.5.4-.8.3-1.5.7-2.1 1.3s-1.2 1.3-1.7 2.2-.9 1.8-1.2 2.9h9.6l-.1.9c0 .2-.1.4-.3.5-.2.2-.4.2-.7.2h-8.9c-.1.4-.1.8-.2 1.2 0 .4-.1.8-.1 1.3h8.2l-.1.9c0 .2-.1.4-.3.5-.2.2-.4.2-.7.2H979c.1 2.3.6 4.1 1.6 5.4 1 1.2 2.3 1.9 3.9 1.9.9 0 1.7-.1 2.4-.4.6-.3 1.2-.5 1.6-.9.4-.3.8-.6 1-.9.3-.3.5-.4.7-.4h.2c.1 0 .1.1.2.2l1.1 1.2c-1 1.2-2.1 2.1-3.3 2.7-1.3.6-2.7 1-4.3 1-1.3 0-2.4-.2-3.4-.7s-1.8-1.1-2.5-2-1.2-1.9-1.6-3.1c-.4-1.2-.6-2.5-.6-4h-2.5l.2-1.7h2.3c0-.8.1-1.7.3-2.5H974l.5-1.6zM1177.7 264.1h2.4c.4-1.5.9-2.8 1.6-3.9.7-1.2 1.5-2.2 2.4-3s2-1.4 3.1-1.9c1.1-.4 2.3-.7 3.6-.7 1.5 0 2.8.3 3.8.9s1.9 1.4 2.5 2.4l-1.2 1.1-.3.3c-.1.1-.2.1-.4.1s-.4-.1-.6-.3c-.2-.2-.5-.5-.8-.7-.3-.3-.8-.5-1.3-.7s-1.2-.3-2.1-.3-1.7.1-2.5.4-1.5.7-2.1 1.3c-.6.6-1.2 1.3-1.7 2.2-.5.9-.9 1.8-1.2 2.9h9.6l-.1.9c0 .2-.1.4-.3.5-.2.2-.4.2-.7.2h-8.9c-.1.4-.1.8-.2 1.2 0 .4-.1.8-.1 1.3h8.2l-.1.9c0 .2-.1.4-.3.5-.2.2-.4.2-.7.2h-7.1c.1 2.3.6 4.1 1.6 5.4 1 1.2 2.3 1.9 3.9 1.9.9 0 1.7-.1 2.4-.4.6-.3 1.2-.5 1.6-.9.4-.3.8-.6 1-.9.3-.3.5-.4.7-.4h.2c.1 0 .1.1.2.2l1.1 1.2c-1 1.2-2.1 2.1-3.3 2.7-1.3.6-2.7 1-4.3 1-1.3 0-2.4-.2-3.4-.7s-1.8-1.1-2.5-2-1.2-1.9-1.6-3.1-.6-2.5-.6-4h-2.5l.2-1.7h2.3c0-.8.1-1.7.3-2.5h-2.3l.5-1.6z"/></svg>