<svg xmlns="http://www.w3.org/2000/svg" viewBox="0 0 1280 800"><linearGradient id="a" gradientUnits="userSpaceOnUse" x1="437.307" y1="521.95" x2="437.307" y2="534.67" gradientTransform="matrix(1 0 0 -1 0 800)"><stop offset="0" stop-color="gray" stop-opacity=".25"/><stop offset=".54" stop-color="gray" stop-opacity=".12"/><stop offset="1" stop-color="gray" stop-opacity=".1"/></linearGradient><path fill="url(#a)" d="M241 265.3h392.5V278H241z"/><linearGradient id="b" gradientUnits="userSpaceOnUse" x1="437.307" y1="503.77" x2="437.307" y2="516.49" gradientTransform="matrix(1 0 0 -1 0 800)"><stop offset="0" stop-color="gray" stop-opacity=".25"/><stop offset=".54" stop-color="gray" stop-opacity=".12"/><stop offset="1" stop-color="gray" stop-opacity=".1"/></linearGradient><path fill="url(#b)" d="M241 283.5h392.5v12.7H241z"/><linearGradient id="c" gradientUnits="userSpaceOnUse" x1="437.307" y1="485.6" x2="437.307" y2="498.32" gradientTransform="matrix(1 0 0 -1 0 800)"><stop offset="0" stop-color="gray" stop-opacity=".25"/><stop offset=".54" stop-color="gray" stop-opacity=".12"/><stop offset="1" stop-color="gray" stop-opacity=".1"/></linearGradient><path fill="url(#c)" d="M241 301.7h392.5v12.7H241z"/><linearGradient id="d" gradientUnits="userSpaceOnUse" x1="437.307" y1="467.43" x2="437.307" y2="480.15" gradientTransform="matrix(1 0 0 -1 0 800)"><stop offset="0" stop-color="gray" stop-opacity=".25"/><stop offset=".54" stop-color="gray" stop-opacity=".12"/><stop offset="1" stop-color="gray" stop-opacity=".1"/></linearGradient><path fill="url(#d)" d="M241 319.8h392.5v12.7H241z"/><path fill="#E0E0E0" d="M242.9 267.1h388.9v9.1H242.9zM242.9 285.3h388.9v9.1H242.9zM242.9 303.5h388.9v9.1H242.9zM242.9 321.7h388.9v9.1H242.9z"/><linearGradient id="e" gradientUnits="userSpaceOnUse" x1="938.055" y1="16.75" x2="938.055" y2="562.941" gradientTransform="matrix(1 0 0 -1 -147 692.7)"><stop offset="0" stop-color="gray" stop-opacity=".25"/><stop offset=".54" stop-color="gray" stop-opacity=".12"/><stop offset="1" stop-color="gray" stop-opacity=".1"/></linearGradient><path fill="url(#e)" d="M980.3 468.2l-3.5-25.6-8.2-22.1-22.1-82.7-.2.1-.1.1c.4-1.3.4-2.6 0-3.9-2.3-11.7-6.5-22.9-11.1-33.9-4.1-9.8-8.6-19.4-15-27.9l-.9-1.2c1.5.7 2.9 1.4 4.4 2s3.2 1.4 4.8 2.2l.8.4c.5.3 1 .6 1.4 1 .2.2.4.3.7.5.4.4.8.7 1.2 1.1.2.2.4.4.5.6.5.7.9 1.4 1.2 2.2l.3.9c.2.6.3 1.2.4 1.8.2.9.3 1.8.5 2.7 1.2 4.7 5.4 7.8 10.2 8.8l1.8.3c.6.1 1.2.1 1.8.1 2.1 0 4.1-.5 5.9-1.5 1.3-.7 2.5-1.7 3.4-2.8 3.8-4.9 3.8-11.9 7.1-17.1 1.7-2.7 4.2-4.9 5.7-7.7 4.6-8.7-1.7-18.8-4-28.4-2.4-10-.4-20.4-.7-30.6-.6-21.2-11.6-41.5-27.8-55.2-16.2-13.7-37.3-21-58.5-22.3-12.9-.8-26.8 1-37.4 7.8l-2.1 1.5-.6.5-1.5 1.2-.6.5c-.7.6-1.3 1.2-1.9 1.8-1.6 1.7-3.1 3.5-4.4 5.4-4.4 6.3-7.5 13.6-11.5 20.2-.3.5-.6 1-1 1.5l-.3.5-.7 1-.4.6-.6.8-.5.7-.6.8-.6.7-.6.7-.6.7-.6.6-.7.7-.6.6c-.2.2-.5.4-.7.6-2.6 2.4-5.6 4.3-8.8 5.5-.4.1-.9.3-1.3.4l-.3.1c-.4.1-.7.2-1.1.3l-.7.1-.8.1c-.6.1-1.1.1-1.7.1.2 3 3.8 3.4 7.1 2.6.8-.2 1.5-.4 2.3-.8 1.6-.7 3.7-1.9 6-3.2l1-.6 2.1-1.2 1.1-.6 2.3-1.2c1.1-.6 2.3-1.2 3.5-1.8l.4-.2c-9.4 12.8-6.6 30.8 6.2 40.2 1.2.9 2.4 1.6 3.7 2.3v8.9h-3c-2.6 0-5.2.9-7.3 2.5-1.8.7-4 1.6-6.2 2.8-.7.4-1.5.7-2.2 1.1l-1.1.6c-.8.4-1.5.8-2.2 1.3-1.5.9-3 1.9-4.3 2.9-2 1.5-3.9 3.2-5.5 5.1-.3.4-.6.7-1 1-.1.1-.2.2-.4.3s-.5.4-.7.5l-.5.3c-.2.1-.4.3-.7.4l-.6.3-.6.2c-.2.1-.5.2-.7.2l-.5.1c-1.1.3-2.3.5-3.4.6-4.2.4-9-.2-13.3-.4h-1.9c-14.4.1-29.2.3-43.6.4l-70.8-1.7h-3.5v-.6h-65.2c-2.8 1.9-1.1 3.8-.3 4.4.3.3.6.6.9.8l16.3 3.4-1.2 2-.8-.2-2 3.4c1 1.2 1.9 2.2 2.8 3.1 14.6 15.4 19.9-2.6 19.9-2.6l30.3 3.5 37.6 5.5 37 5.5v-.1c1.1.5 2.6.3 4 .7 14.1 3.4 28.6 3.3 43.2 3.5h4.7c1.5 0 3.1.2 4.6.5.6.1 1.2.3 1.7.5 1.9.6 3.6 1.8 4.6 3.6.7 1.5 1.1 3.1 1.2 4.8l2.5 19.3c.2 1.4.4 2.8.4 4.2 0 .5 0 1 .1 1.5.1 1.9-.2 3.8-.9 5.6-.4 1-.9 2-1.6 3-.4.6-.9 1.2-1.3 1.8-.4.6-.9 1.2-1.4 1.8l-.7.9c-1.8 2.4-3.3 5-4.6 7.8l-.9 2.1c-2.2 5.6-3.1 11.7-2.8 17.7 0 .8.1 1.5.2 2.2.2 1.5.4 3 .8 4.5.1.6.3 1.1.5 1.7.2.6.6 1.2 1 1.7 0 0 .1.1.1.2.2.2.5.4.8.6l.6.3c.4.2.8.3 1.2.4.5.1 1 .2 1.5.2h.7-.3l-6.4 109.1s-10.5 8.2-1.2 14h1.1L777.1 648s-7 7-29.1 0c-4.3-1.4-6.1-.6-5.8 1.3-.8 6.1 25.9 29.6 50 26.1 6.1-.9 11-5.7 11.9-11.9L828 491.1c1-1 3.4-4.2-.4-9l11.7-90.9 8.2 90.9s-7.7 2.2-1.7 8.7c0 0-15.2 23.3 73.4 142.1 0 0 7 7-3.5 21 0 0-11.7 0-9.3 9.3h.4c0 .2.1.4.1.6h21s19.8-23.3 18.6-29.1c-1.2-5.8-60.6-128.2-60.6-128.2v-15.1h3.5s4.7-2.3 0-9.3l-1.7-108.6c0-1.3-.4-2.5-1.2-3.5 5.2-16.1 4.5-33.5-2.1-49.1-2-4.8-4.7-9.5-5.4-14.6-.8-5.2.8-11.1 5.3-13.8l27.7 57.8.1.1c.2.5.5 1 .9 1.4.1.1.3.3.5.4.2.1.4.2.7.2h.1l32.3 77.3 12.8 24.5 3.5 29.1 12.8 12.8h.6l.4-.1c1-.2 2.4-.7 2.4-2.2 0 0 3.5-1.2 3.5-3.5 0 0 4.7-1.2 4.7-3.5 1.9 0 3.5-1.4 3.5-3.3v-.2l-10.5-15.1zM857.9 221.5c1.8-.9 3.5-2 5-3.3 1.4 3.5 3.2 6.8 5.4 9.9.9 1.4 1.9 2.7 2.9 4l1.2 1.5c-1.1-.3-2.2-.6-3.2-.9l-.3-.1-1-.2c-2-1.4-4.4-2.1-6.8-2.1h-3.2v-8.8z"/><path fill="#25DDDF" d="M793.2 370L787 474.4l39.1 4.5 11.2-87.2 7.8 87.2h40.2l-1.6-104.1c0-3.3-2.7-5.9-6-5.8l-84.5 1z"/><g opacity=".2" fill="#FFF"><path d="M797.7 372.2l84.6-1h.2c-1.1-1.4-2.9-2.3-4.7-2.2l-84.6 1-6.2 104.4 4.6.5 6.1-102.7z"/><path d="M837.9 392.3l1.4 21.3 5.8 65.3h4.3z"/></g><path fill="#263238" d="M844 487.8s-14.5 22.3 70.4 136.3c0 0 6.7 6.7-3.3 20.1 0 0-11.2 0-8.9 8.9h20.1s19-22.3 17.9-27.9C939 619.7 882 502.4 882 502.4v-14.5h-38z"/><path opacity=".2" fill="#FFF" d="M915 643.7c10.1-13.4 3.3-20.1 3.3-20.1-84.9-114-70.4-136.3-70.4-136.3h-4.5s-14.5 22.3 70.4 136.3c0 0 6.7 6.7-3.3 20.1 0 0-11.2 0-8.9 8.9h4.5c-2.3-8.9 8.9-8.9 8.9-8.9z"/><path fill="#263238" d="M787 487.8l-10 150.9s-6.7 6.7-27.9 0c-18.9-6 13.7 29.8 42.4 25.7 5.9-.9 10.5-5.5 11.4-11.4l23.9-166.9-39.8 1.7z"/><path opacity=".2" fill="#FFF" d="M753.5 642.6c21.2 6.7 27.9 0 27.9 0L792 487.2h-5l-10 150.9s-6.7 6.7-27.9 0c-9-2.8-6.4 3.7 1.9 10.9-4.4-5.1-4.5-8.6 2.5-6.4z"/><path fill="#25DDDF" d="M828.1 237.5h29.6c6.6 0 12 5.4 12 12v20.7c0 6.6-5.4 12-12 12h-29.6c-6.6 0-12-5.4-12-12v-20.7c0-6.6 5.4-12 12-12z"/><circle fill="#FFBEC5" cx="842.9" cy="205.1" r="26.8"/><path fill="#FFBEC5" d="M838.8 220.2h8.2c4.5 0 8.2 3.7 8.2 8.2V240c0 6.1-4.9 11-11 11h-2.6c-6.1 0-11-4.9-11-11v-11.6c0-4.5 3.7-8.2 8.2-8.2z"/><path fill="#25DDDF" d="M664.1 255.4l71 1.7 1.1 25.7-72.1-10.6z"/><path fill="#FFBEC5" d="M601.6 255.4h62.6v16.8l-29.1-3.4s-5.6 19-21.2 0l3.3-5.6-15.6-3.4c0 .1-3.4-2.1 0-4.4z"/><path fill="#25DDDF" d="M908.8 353.8l31.3 74.8 21.3-8.9-21.3-79.4z"/><path fill="#FFBEC5" d="M940.1 428.6l12.3 23.5 3.3 27.9 12.3 12.3s3.3 0 3.3-2.2c0 0 3.3-1.1 3.3-3.3 0 0 4.5-1.1 4.5-3.3 1.8 0 3.3-1.4 3.3-3.2v-.1l-10.1-14.5-3.3-24.6-7.8-21.2-21.1 8.7z"/><path fill="#25DDDF" d="M787 474.4s-10.1 7.8-1.1 13.4h40.2s4.5-3.3 0-8.9l-39.1-4.5zM845.1 478.9s-7.8 2.2-1.1 8.9h41.3s4.5-2.2 0-8.9h-40.2z"/><path opacity=".2" d="M787 474.4s-10.1 7.8-1.1 13.4h40.2s4.5-3.3 0-8.9l-39.1-4.5zM845.1 478.9s-7.8 2.2-1.1 8.9h41.3s4.5-2.2 0-8.9h-40.2zM666.9 272.2v-16.7l-2.2-.1v16.8l70.9 10.6v-.3zM940.1 340.3l-.2.1 20.3 75.9-21.2 9-29.9-71.7-.3.2 31.3 74.8 21.3-8.9z"/><path opacity=".2" fill="#FFF" d="M821.1 204.6c0-13.7 10.4-25.2 24-26.7-.9-.1-1.9-.1-2.8-.1-14.8-.3-27 11.5-27.3 26.3-.3 14.8 11.5 27 26.3 27.3h1c.9 0 1.9 0 2.8-.1-13.6-1.5-24-13-24-26.7z"/><g opacity=".2" fill="#FFF"><path d="M604.3 258.2h59.2v-3.4H601c-3.3 2.2 0 4.5 0 4.5l2 .4c.3-.6.7-1.1 1.3-1.5zM616.6 271.6l3.3-5.6-4.8-1-2 3.2c1.4 1.7 2.9 3.3 4.5 4.7-.2-.3-.6-.8-1-1.3z"/></g><path fill="#00695C" d="M828 263.5c8.1 4.6 17.9 5.2 27.2 4.8 2.2 0 4.4-.4 6.4-1.4 5.6-3.1 2.1-21.4.9-27.7 19.3 2.1 40.6 22.8 52.3 38.3 6.1 8.1 10.4 17.4 14.4 26.7 4.4 10.5 8.5 21.3 10.7 32.5.4 1.3.3 2.6-.1 3.9-.7 1.5-2.3 2.2-3.7 2.8l-24.4 10.5c-1 .4-2.2.9-3.2.3-.6-.4-1.1-1.1-1.3-1.8L880.6 297c-4.3 2.5-5.8 8.2-5 13.2.8 5 3.3 9.4 5.2 14 6.4 15.1 7 32 1.9 47.5-29.4-.1-58.8-.7-88.2-1.8-1.9-.1-4-.2-5.3-1.6-.8-1-1.3-2.1-1.5-3.4-2.6-11.4-.1-23.4 6.9-32.9 1.7-2.3 3.7-4.5 4.7-7.1 1.3-3.4.8-7.2.4-10.8l-2.4-18.5c-.1-1.6-.5-3.1-1.2-4.6-2.2-4-7.7-4.4-12.2-4.4-14.9-.2-29.7.2-44.2-3.3-1.9-.5-3.9.1-4.9-1.6-.7-1.3-.9-2.8-.7-4.3.1-5.8 0-14.7.1-20.4 14.1-.1 28.6-.3 42.7-.4 7.9 0 18.2 2.6 23.2-3.5 7.8-9.5 25.7-15.1 25.7-15.1s-4.7 21.5 2.2 25.5z"/><path fill="none" stroke="#FFF" stroke-width="2" stroke-miterlimit="10" d="M842.9 268l-1.6 100.8"/><g opacity=".2" fill="#FFF"><path d="M861.9 268.2c2.2 0 4.4-.4 6.4-1.4 5.2-2.9 2.5-18.9 1.2-26.2-2.3-.7-4.6-1.2-7-1.5 1.2 6.2 4.7 24.6-.9 27.7-2 .9-4.2 1.4-6.4 1.4h-1.3c2.6.2 5.3.2 8 0zM806.6 253.2c4.6-5.6 12.6-9.8 18.5-12.3.3-1.7.5-2.8.5-2.8s-17.9 5.6-25.7 15.1c-2.1 2.6-5.2 3.6-8.7 3.9 6 .3 11.9.3 15.4-3.9zM913.8 352.5l-26.6-55.4c-2 1.2-3.5 3-4.2 5.2l24.1 50.3c.3.7.7 1.3 1.3 1.8 1 .5 2.2.1 3.2-.3l2.3-1-.1-.6zM801 370c-1.9-.1-4-.2-5.3-1.6-.8-1-1.3-2.1-1.5-3.4-2.6-11.4-.1-23.4 6.9-32.9 1.7-2.3 3.7-4.5 4.7-7.1 1.3-3.4.8-7.2.4-10.8l-2.4-18.5c-.1-1.6-.5-3.1-1.2-4.6-2.2-4-7.7-4.4-12.2-4.4-14.9-.2-29.7.2-44.2-3.3-1.9-.5-3.9.1-4.9-1.6-.7-1.3-.9-2.8-.7-4.3.1-5.8 0-14.7.1-20.4 12.5 0 25.3-.3 37.8-.4h-1.8c-14.1.1-28.6.3-42.7.4-.1 5.8 0 14.7-.1 20.4-.2 1.5.1 3 .7 4.3 1 1.6 3.1 1.1 4.9 1.6 14.5 3.5 29.3 3.1 44.2 3.3 4.5.1 10 .5 12.2 4.4.7 1.4 1.1 3 1.2 4.6l2.4 18.5c.5 3.6.9 7.4-.4 10.8-1 2.7-3 4.8-4.7 7.1-7 9.4-9.5 21.4-6.9 32.9.2 1.2.7 2.4 1.5 3.4 1.3 1.4 3.4 1.5 5.3 1.6 29.4 1.1 58.8 1.7 88.2 1.8-27.1-.2-54.3-.8-81.5-1.8z"/></g><path fill="#5D4037" d="M849.4 201.5c1.3.4 2.8.3 4.1.7 5.2 1.7 4.5 9.1 4.6 14.6.2 8.3 4.7 15.8 9.8 22.4 13.2 17.1 30.5 30.5 50.3 39.1 4 1.8 8.6 3.7 10.2 7.8.5 1.7.9 3.4 1.2 5.2 2.3 9 16.3 12 22.1 4.7 3.7-4.7 3.6-11.4 6.8-16.4 1.6-2.6 4-4.7 5.5-7.4 4.4-8.3-1.6-18.1-3.8-27.2-2.3-9.5-.4-19.5-.7-29.4-.6-20.4-11.1-39.9-26.7-53-15.6-13.1-35.8-20.1-56.1-21.4-15.2-.9-31.8 1.9-42.4 12.8-6.7 6.9-10.2 16.3-15.2 24.6s-12.7 16.1-22.3 16.5c.2 3.6 5.7 3.3 9 1.8 7-3.2 23.4-14.9 31.3-12.6 7.5 2.2 4.8 14.3 12.3 17.2z"/><g opacity=".2" fill="#FFF"><path d="M823.3 175.1c5-8.3 8.5-17.6 15.2-24.6.7-.7 1.4-1.3 2.1-2-2.4 1.5-4.6 3.3-6.5 5.3-6.7 6.9-10.2 16.3-15.2 24.6-2.2 3.7-4.9 7.1-8.1 10.1 5.1-3.1 9.3-8.2 12.5-13.4zM934 287.9c-.3-1.7-.7-3.5-1.2-5.2-1.6-4.1-6.2-6-10.2-7.8-19.8-8.6-37.1-22-50.2-39.1-5.1-6.6-9.6-14.1-9.8-22.4-.1-5.5.6-12.9-4.6-14.6-1.3-.4-2.8-.3-4.1-.7-7.6-2.8-4.8-15-12.7-17.3-7.9-2.3-24.3 9.4-31.3 12.6-2.3 1.1-5.8 1.5-7.7.4-1.8.7-3.8 1.1-5.8 1.2.2 3.6 5.7 3.3 9 1.8 7-3.2 23.5-14.9 31.3-12.6 7.8 2.3 5.1 14.5 12.7 17.3 1.3.4 2.8.3 4.1.7 5.2 1.7 4.5 9.1 4.6 14.6.2 8.3 4.7 15.8 9.8 22.4 13.2 17 30.4 30.5 50.2 39.1 4 1.8 8.6 3.7 10.2 7.8.5 1.7.9 3.4 1.2 5.2 2.3 9 16.3 12 22.1 4.7l.1-.1c-6.6 2.5-15.9-.8-17.7-8z"/></g><path opacity=".2" fill="#FFF" d="M956.9 480l-3.3-27.9-12.3-23.5 20.3-8.5-.2-.4-21.2 8.9 12.3 23.5 3.3 27.9 12.3 12.3c.3 0 .7 0 1-.1L956.9 480zM943.5 426.4l-31-74.2-3.7 1.6 31.3 74.8 21.3-8.9-.2-.8z"/><linearGradient id="f" gradientUnits="userSpaceOnUse" x1="436.977" y1="542.897" x2="436.977" y2="677.537" gradientTransform="matrix(1 0 0 -1 0 800)"><stop offset="0" stop-color="gray" stop-opacity=".25"/><stop offset=".54" stop-color="gray" stop-opacity=".12"/><stop offset="1" stop-color="gray" stop-opacity=".1"/></linearGradient><path fill="url(#f)" d="M245.6 122.5h382.8v134.6H245.6z"/><path fill="#FFF" d="M256.7 128h365v105.7h-365z"/><linearGradient id="g" gradientUnits="userSpaceOnUse" x1="297.329" y1="589.632" x2="297.329" y2="650.832" gradientTransform="matrix(1 0 0 -1 0 800)"><stop offset="0" stop-color="gray" stop-opacity=".25"/><stop offset=".54" stop-color="gray" stop-opacity=".12"/><stop offset="1" stop-color="gray" stop-opacity=".1"/></linearGradient><path fill="url(#g)" d="M272.3 149.2h50.1v61.2h-50.1z"/><path fill="#25DDDF" d="M275.1 151.9h44.5v56.7h-44.5z"/><path fill="#69F0AE" d="M553.8 192.6h44.5v17.8h-44.5z"/><path fill="#FF9800" d="M470.4 169.2h44.5v40.1h-44.5z"/><path fill="#FF5252" d="M372.4 175.9h44.5v33.4h-44.5z"/></svg>