<?xml version="1.0" encoding="utf-8"?>
<!-- Generator: Adobe Illustrator 22.0.0, SVG Export Plug-In . SVG Version: 6.00 Build 0)  -->
<svg version="1.1" id="Layer_1" xmlns="http://www.w3.org/2000/svg" xmlns:xlink="http://www.w3.org/1999/xlink" x="0px" y="0px"
	 viewBox="0 0 826.7 1598.1" style="enable-background:new 0 0 826.7 1598.1;" xml:space="preserve">
<style type="text/css">
	.st0{fill:none;stroke:#FFFFFF;stroke-width:5;stroke-miterlimit:10;}
	.st1{fill:#3A006D;stroke:#3A006D;stroke-miterlimit:10;}
	.st2{fill:none;stroke:#3A006D;stroke-width:5;stroke-miterlimit:10;}
	.st3{fill:#FFFFFF;}
	.st4{fill:#3A006D;}
	.st5{fill:#042840;}
	.st6{fill:none;stroke:#3A006D;stroke-miterlimit:10;}
</style>
<polygon class="st0" points="161.4,201.2 140.9,196.1 125,210.1 123.6,189 105.4,178.2 125,170.3 129.7,149.7 143.2,165.9 
	164.3,163.9 153,181.8 "/>
<polygon class="st0" points="336.2,361.5 317.2,352.1 298.7,362.4 301.8,341.5 286.3,327.1 307.1,323.5 316,304.4 325.8,323.1 
	346.8,325.6 332.1,340.7 "/>
<rect x="125" y="291" transform="matrix(0.6867 -0.7269 0.7269 0.6867 -156.656 233.8492)" class="st1" width="136" height="15.3"/>
<polyline class="st2" points="241.1,237 262.5,214.5 273.6,225 252.2,247.7 "/>
<path class="st2" d="M291.4,392.6c-20,12.2-43.6,19.3-68.7,19.3c-73,0-132.2-59.2-132.2-132.2c0-21.9,5.3-42.5,14.7-60.6"/>
<path class="st2" d="M222.7,147.6c73,0,132.2,59.2,132.2,132.2"/>
<path class="st0" d="M133.9,322.1c-8.8-14.9-13.9-32.3-13.9-50.9"/>
<path class="st0" d="M221.7,380.9"/>
<circle class="st3" cx="222.5" cy="169.6" r="9.6"/>
<circle class="st3" cx="202.5" cy="202.9" r="9.6"/>
<circle class="st3" cx="254.5" cy="296.9" r="9.6"/>
<circle class="st3" cx="112.5" cy="397.6" r="9.6"/>
<circle class="st3" cx="327.1" cy="408.9" r="9.6"/>
<circle class="st3" cx="81.8" cy="202.3" r="9.6"/>
<circle class="st3" cx="357.4" cy="198.9" r="9.6"/>
<path class="st0" d="M328.8,274.5c0.3-17.3-3.9-34.9-13-51"/>
<ellipse class="st3" cx="152.5" cy="224" rx="3.6" ry="3.2"/>
<ellipse class="st3" cx="160" cy="235.3" rx="3.6" ry="3.2"/>
<ellipse class="st3" cx="140.6" cy="267.2" rx="3.6" ry="3.2"/>
<ellipse class="st3" cx="205" cy="235.1" rx="3.6" ry="3.2"/>
<ellipse class="st3" cx="200.5" cy="342.1" rx="3.6" ry="3.2"/>
<ellipse class="st3" cx="208" cy="353.4" rx="3.6" ry="3.2"/>
<ellipse class="st3" cx="188.6" cy="385.3" rx="3.6" ry="3.2"/>
<ellipse class="st3" cx="253" cy="353.2" rx="3.6" ry="3.2"/>
<ellipse class="st3" cx="302.8" cy="139.6" rx="3.6" ry="3.2"/>
<ellipse class="st3" cx="310.3" cy="150.9" rx="3.6" ry="3.2"/>
<ellipse class="st3" cx="283.9" cy="174.8" rx="3.6" ry="3.2"/>
<ellipse class="st3" cx="355.3" cy="150.7" rx="3.6" ry="3.2"/>
<polygon class="st0" points="251.3,199.3 247.8,194 241.4,193.9 245.4,188.9 243.5,182.8 249.5,185 254.7,181.4 254.4,187.7 
	259.5,191.6 253.4,193.3 "/>
<polygon class="st0" points="290.7,222.5 287.1,217.2 280.8,217.1 284.7,212.1 282.8,206 288.8,208.2 294,204.5 293.8,210.9 
	298.9,214.7 292.7,216.4 "/>
<polygon class="st0" points="267.4,264.5 267.8,258.2 262.8,254.2 269,252.6 271.2,246.6 274.6,252 281,252.2 276.9,257.2 
	278.7,263.3 272.7,261 "/>
<ellipse class="st3" cx="89.9" cy="355.5" rx="3.6" ry="3.2"/>
<ellipse class="st3" cx="97.3" cy="366.8" rx="3.6" ry="3.2"/>
<g>
	<g>
		<path class="st4" d="M517.4,484.2c-0.1-0.6-0.3-1.1-0.5-1.6c-0.2-0.4-0.3-0.7-0.5-1c-0.9-1.5-2.1-2.8-3.6-3.7
			c-1.1-0.7-2.4-1.1-3.8-1.3l-82.5-11l-82.3-11c-5.5-0.7-10.5,3.1-11.3,8.6l-30.4,228.6c-0.7,5.5,3.1,10.5,8.6,11.3l82.3,10.9
			l82.5,11c2.1,0.3,4.1-0.1,5.8-1c0.6-0.3,1.1-0.6,1.6-1c0.3-0.2,0.5-0.4,0.7-0.6c0.5-0.4,0.9-0.9,1.3-1.4c0.2-0.3,0.4-0.5,0.5-0.8
			c0.7-1.1,1.1-2.4,1.3-3.8l30.4-228.5C517.8,486.5,517.7,485.3,517.4,484.2z M476.4,715.2l-163.1-21.7l30.4-229.1l163.1,21.7
			L476.4,715.2z"/>
		<g>
			<g>
				<path class="st3" d="M457.7,497.4l-69.8-9.3c-3.7-0.5-6.3-3.9-5.8-7.6l1.5-11.1c0.5-3.7,3.9-6.3,7.6-5.8l69.8,9.3
					c3.7,0.5,6.3,3.9,5.8,7.6l-1.5,11.1C464.8,495.2,461.4,497.8,457.7,497.4z M390.7,467c-1.8-0.2-3.4,1-3.6,2.8l-1.5,11.1
					c-0.2,1.8,1,3.4,2.8,3.6l69.8,9.3c1.8,0.2,3.4-1,3.6-2.8l1.5-11.1c0.2-1.8-1-3.4-2.8-3.6L390.7,467z"/>
			</g>
		</g>
		<g>
			
				<rect x="418.6" y="435.5" transform="matrix(0.1318 -0.9913 0.9913 0.1318 -95.5 829.9662)" class="st3" width="15" height="68.1"/>
		</g>
	</g>
	<g>
		<g>
			
				<rect x="455.1" y="509.7" transform="matrix(0.1318 -0.9913 0.9913 0.1318 -134.1127 916.579)" class="st5" width="2.1" height="50.4"/>
		</g>
		<g>
			
				<rect x="454.3" y="516.4" transform="matrix(0.1318 -0.9913 0.9913 0.1318 -141.5298 921.5114)" class="st5" width="2.1" height="50.4"/>
		</g>
		<g>
			
				<rect x="447.3" y="528.5" transform="matrix(0.1318 -0.9913 0.9913 0.1318 -153.52 919.826)" class="st5" width="2.1" height="38.1"/>
		</g>
	</g>
	<g>
		<g>
			
				<rect x="450.6" y="543.5" transform="matrix(0.1318 -0.9913 0.9913 0.1318 -171.5252 941.4628)" class="st5" width="2.1" height="50.4"/>
		</g>
		<g>
			
				<rect x="449.8" y="550.2" transform="matrix(0.1318 -0.9913 0.9913 0.1318 -178.9423 946.395)" class="st5" width="2.1" height="50.4"/>
		</g>
		<g>
			
				<rect x="442.8" y="562.3" transform="matrix(0.1318 -0.9913 0.9913 0.1318 -190.9323 944.7097)" class="st5" width="2.1" height="38.1"/>
		</g>
	</g>
	<g>
		<g>
			
				<rect x="446.2" y="577.3" transform="matrix(0.1318 -0.9913 0.9913 0.1318 -208.8646 966.4561)" class="st5" width="2.1" height="50.4"/>
		</g>
		<g>
			
				<rect x="445.4" y="584" transform="matrix(0.1318 -0.9913 0.9913 0.1318 -216.2817 971.3884)" class="st5" width="2.1" height="50.4"/>
		</g>
		<g>
			
				<rect x="438.3" y="596.1" transform="matrix(0.1318 -0.9913 0.9913 0.1318 -228.3448 969.5934)" class="st5" width="2.1" height="38.1"/>
		</g>
	</g>
	<g>
		<g>
			
				<rect x="441.7" y="611.1" transform="matrix(0.1318 -0.9913 0.9913 0.1318 -246.2771 991.3398)" class="st5" width="2.1" height="50.4"/>
		</g>
		<g>
			
				<rect x="440.9" y="617.8" transform="matrix(0.1318 -0.9913 0.9913 0.1318 -253.6942 996.272)" class="st5" width="2.1" height="50.4"/>
		</g>
		<g>
			
				<rect x="433.8" y="629.9" transform="matrix(0.1318 -0.9913 0.9913 0.1318 -265.7572 994.477)" class="st5" width="2.1" height="38.1"/>
		</g>
	</g>
	<g>
		<g>
			
				<rect x="437.2" y="644.9" transform="matrix(0.1318 -0.9913 0.9913 0.1318 -283.6895 1016.2234)" class="st5" width="2.1" height="50.4"/>
		</g>
		<g>
			
				<rect x="436.4" y="651.6" transform="matrix(0.1318 -0.9913 0.9913 0.1318 -291.1065 1021.1558)" class="st5" width="2.1" height="50.4"/>
		</g>
		<g>
			
				<rect x="429.3" y="663.7" transform="matrix(0.1318 -0.9913 0.9913 0.1318 -303.1696 1019.3606)" class="st5" width="2.1" height="38.1"/>
		</g>
	</g>
	<g>
		<g>
			
				<rect x="381.4" y="499.9" transform="matrix(0.1318 -0.9913 0.9913 0.1318 -188.461 834.9458)" class="st3" width="2.1" height="50.4"/>
		</g>
		<g>
			
				<rect x="380.5" y="506.6" transform="matrix(0.1318 -0.9913 0.9913 0.1318 -195.8872 839.8905)" class="st3" width="2.1" height="50.4"/>
		</g>
		<g>
			
				<rect x="385.7" y="520.3" transform="matrix(0.1318 -0.9913 0.9913 0.1318 -198.8339 851.5846)" class="st3" width="2.1" height="38.1"/>
		</g>
	</g>
	<g>
		<g>
			
				<rect x="376.9" y="533.7" transform="matrix(0.1318 -0.9913 0.9913 0.1318 -225.8594 859.8427)" class="st3" width="2.1" height="50.4"/>
		</g>
		<g>
			
				<rect x="376" y="540.4" transform="matrix(0.1318 -0.9913 0.9913 0.1318 -233.2858 864.7875)" class="st3" width="2.1" height="50.4"/>
		</g>
		<g>
			
				<rect x="381.2" y="554.1" transform="matrix(0.1318 -0.9913 0.9913 0.1318 -236.2325 876.4816)" class="st3" width="2.1" height="38.1"/>
		</g>
	</g>
	<g>
		<g>
			
				<rect x="372.4" y="567.5" transform="matrix(0.1318 -0.9913 0.9913 0.1318 -263.258 884.7397)" class="st3" width="2.1" height="50.4"/>
		</g>
		<g>
			
				<rect x="371.5" y="574.2" transform="matrix(0.1318 -0.9913 0.9913 0.1318 -270.6845 889.6846)" class="st3" width="2.1" height="50.4"/>
		</g>
		<g>
			
				<rect x="376.7" y="587.8" transform="matrix(0.1318 -0.9913 0.9913 0.1318 -273.631 901.3786)" class="st3" width="2.1" height="38.1"/>
		</g>
	</g>
	<g>
		<g>
			
				<rect x="367.8" y="601.2" transform="matrix(0.1318 -0.9913 0.9913 0.1318 -300.7293 909.527)" class="st3" width="2.1" height="50.4"/>
		</g>
		<g>
			
				<rect x="366.9" y="608" transform="matrix(0.1318 -0.9913 0.9913 0.1318 -308.1558 914.4717)" class="st3" width="2.1" height="50.4"/>
		</g>
		<g>
			
				<rect x="372.1" y="621.6" transform="matrix(0.1318 -0.9913 0.9913 0.1318 -311.1024 926.1658)" class="st3" width="2.1" height="38.1"/>
		</g>
	</g>
	<g>
		<g>
			
				<rect x="363.3" y="635" transform="matrix(0.1318 -0.9913 0.9913 0.1318 -338.1279 934.424)" class="st3" width="2.1" height="50.4"/>
		</g>
		<g>
			
				<rect x="362.4" y="641.8" transform="matrix(0.1318 -0.9913 0.9913 0.1318 -345.5544 939.3688)" class="st3" width="2.1" height="50.4"/>
		</g>
		<g>
			
				<rect x="367.6" y="655.4" transform="matrix(0.1318 -0.9913 0.9913 0.1318 -348.501 951.0629)" class="st3" width="2.1" height="38.1"/>
		</g>
	</g>
</g>
<g>
	<path class="st3" d="M390.4,495.6l-1.1,8.1l7.8,1l-0.5,3.5l-7.8-1l-1.1,8.2l-3.6-0.5l1.1-8.2l-7.8-1l0.5-3.5l7.8,1l1.1-8.1
		L390.4,495.6z"/>
</g>
<g>
	<g>
		<path class="st4" d="M467.1,515.8l-0.6,4.5l-20.3-2.7l0.6-4.5L467.1,515.8z"/>
	</g>
</g>
<g>
	<g>
		<path class="st1" d="M243.4,1215.1c-0.8,0.2-1.7,0-2.4-0.5c-1.1-0.7-1.6-2.1-1.3-3.4c3-13.6-1.5-28-11.6-37.8
			c-2.4,0.2-4.5,0.3-6.7,0.3c-1.3,0-2.5-0.8-3-2c-0.8-1.9-1.5-4-2.1-6.3c-12.7-5.8-28-4.7-39.5,2.9c-1.1,0.7-2.5,0.7-3.6,0
			c-1.1-0.7-1.6-2.1-1.3-3.4c1.3-5.9,3.6-11.4,7-16.3c8.3-12.1,21.9-19.5,36.7-20.1c2.3-10.4,6.6-20.1,12.6-28.9
			c12.2-17.9,30.7-30.3,50.5-34c4.4-0.8,8.8-1.2,13.2-1.2c1.3,0,2.5,0.8,3,2c9,22.5,5.3,50.2-9.7,72.1c-6,8.8-13.6,16.3-22.4,22.2
			c4.8,14,2.9,29.3-5.5,41.5c-3.3,4.9-7.6,9.1-12.7,12.4C244.2,1214.8,243.8,1215,243.4,1215.1L243.4,1215.1z M223.7,1167.2
			c1.6-0.1,3.3-0.2,5.2-0.4c0.9-0.1,1.9,0.2,2.5,0.8c10.5,9.5,16.1,23.1,15.6,36.8c1.8-1.8,3.5-3.7,4.9-5.8
			c7.6-11.1,9.1-25.2,3.9-37.9c-0.6-1.5-0.1-3.1,1.3-4c9.1-5.7,16.7-13,22.8-21.8c13.4-19.6,17.1-43.9,9.8-64
			c-21.3,0.5-42.8,12.9-56.1,32.3c-6,8.8-10.1,18.6-12.1,29.1c-0.3,1.5-1.7,2.7-3.2,2.6c-13.5-0.2-26.4,6.3-33.9,17.3
			c-1.4,2.1-2.7,4.3-3.7,6.7c12.4-5.3,27.5-4.9,39.9,1.3c0.8,0.4,1.4,1.2,1.7,2.1C222.7,1164.1,223.2,1165.7,223.7,1167.2
			L223.7,1167.2z"/>
	</g>
	<g>
		<g id="XMLID_1_">
			<g>
				<path class="st4" d="M274.4,1105.3c0.5,2.5-0.1,5.1-1.5,7.3c-2.9,4.3-9.2,5.4-13.5,2.5c-4.4-3-5.6-9.1-2.5-13.5
					c1.5-2.1,3.7-3.6,6.2-4.1s5.1,0.1,7.3,1.5C272.5,1100.5,273.9,1102.7,274.4,1105.3z"/>
				<path class="st4" d="M280.8,1104.1c0.8,4.2-0.1,8.6-2.5,12.1c-2.4,3.6-6.1,6-10.4,6.8c-4.2,0.8-8.5-0.1-12.1-2.6
					c-7.4-5-9.3-15.1-4.2-22.5c4.9-7.1,15.4-9.1,22.5-4.2C277.6,1096.2,280,1099.8,280.8,1104.1z M272.9,1112.6
					c1.5-2.1,2-4.7,1.5-7.3c-0.5-2.6-1.9-4.8-4-6.2c-2.2-1.5-4.7-2-7.3-1.5c-2.5,0.5-4.8,1.9-6.2,4.1c-3,4.4-1.9,10.5,2.5,13.5
					C263.7,1118,269.9,1116.8,272.9,1112.6z"/>
			</g>
			<g>
				<path class="st6" d="M267.8,1123c-4.2,0.8-8.5-0.1-12.1-2.6c-7.4-5-9.3-15.1-4.2-22.5c4.9-7.1,15.4-9.1,22.5-4.2
					c3.6,2.4,6,6.1,6.8,10.4c0.8,4.2-0.1,8.6-2.5,12.1C275.8,1119.8,272.1,1122.2,267.8,1123z"/>
				<path class="st6" d="M263.1,1097.5c-2.5,0.5-4.8,1.9-6.2,4.1c-3,4.4-1.9,10.5,2.5,13.5c4.3,2.9,10.5,1.8,13.5-2.5
					c1.5-2.1,2-4.7,1.5-7.3c-0.5-2.6-1.9-4.8-4-6.2C268.2,1097.6,265.6,1097.1,263.1,1097.5z"/>
			</g>
		</g>
	</g>
	<g>
		<path class="st1" d="M207.8,1202.4c-2.1,0.4-4.3,0.6-6.4,0.7c-1.4,0-2.6-0.8-3.1-2.1c-4.6-12.7-2.5-27.4,5.8-39.5
			c1-1.5,3-1.9,4.5-0.8c1.5,1,1.9,3,0.8,4.5c-6.6,9.6-8.7,21.1-5.7,31.3c10.5-0.9,20.5-7.1,27.1-16.7c1-1.5,3-1.9,4.5-0.8
			c1.5,1,1.9,3,0.8,4.5C229.2,1193.5,218.9,1200.3,207.8,1202.4L207.8,1202.4z"/>
	</g>
</g>
<ellipse transform="matrix(0.2425 -0.9701 0.9701 0.2425 -711.5862 1118.2172)" class="st3" cx="360.3" cy="1014.8" rx="23.1" ry="23.1"/>
<circle class="st3" cx="48.4" cy="1109.9" r="9.6"/>
<polygon class="st0" points="150.9,1161.4 147.4,1156.1 141,1156 145,1151 143.1,1144.9 149.1,1147.1 154.3,1143.5 154,1149.8 
	159.1,1153.7 153,1155.4 "/>
<polygon class="st0" points="308.9,1207.5 305.3,1202.2 299,1202.1 302.9,1197.1 301,1191 307,1193.2 312.2,1189.5 312,1195.9 
	317.1,1199.7 310.9,1201.4 "/>
<polygon class="st0" points="137.4,1016.3 137.8,1010 132.8,1006 139,1004.4 141.2,998.4 144.6,1003.8 151,1004 146.9,1009 
	148.7,1015.1 142.7,1012.8 "/>
<path class="st2" d="M364.7,1057.3c13.8,19,22.7,41.9,24.7,66.9c5.8,72.8-48.5,136.5-121.2,142.3c-21.8,1.7-42.8-1.9-61.6-9.8"/>
<path class="st2" d="M126,1145.3c-5.9-72.8,48.4-136.5,121.2-142.3"/>
<ellipse class="st3" cx="134.5" cy="1033.9" rx="3.6" ry="3.2"/>
<ellipse class="st3" cx="392.9" cy="1203.6" rx="3.6" ry="3.2"/>
<ellipse class="st3" cx="187" cy="1045" rx="3.6" ry="3.2"/>
<ellipse transform="matrix(0.45 -0.893 0.893 0.45 -1022.9969 774.2424)" class="st3" cx="117.1" cy="1217.6" rx="3.6" ry="3.2"/>
<ellipse transform="matrix(0.45 -0.893 0.893 0.45 -998.8987 774.5249)" class="st3" cx="129.4" cy="1198.2" rx="3.6" ry="3.2"/>
<ellipse transform="matrix(0.45 -0.893 0.893 0.45 -967.1513 781.1964)" class="st3" cx="150.6" cy="1175.8" rx="3.6" ry="3.2"/>
<ellipse transform="matrix(0.45 -0.893 0.893 0.45 -908.2654 753.2585)" class="st3" cx="157.4" cy="1114" rx="3.6" ry="3.2"/>
<ellipse transform="matrix(0.45 -0.893 0.893 0.45 -899.5131 764.3689)" class="st3" cx="170.8" cy="1112.5" rx="3.6" ry="3.2"/>
<ellipse transform="matrix(0.45 -0.893 0.893 0.45 -866.9121 956.8377)" class="st3" cx="343.4" cy="1182.2" rx="3.6" ry="3.2"/>
<ellipse class="st3" cx="310" cy="1272.2" rx="3.6" ry="3.2"/>
<ellipse class="st3" cx="124" cy="1082.2" rx="3.6" ry="3.2"/>
<ellipse class="st3" cx="204.1" cy="1106.6" rx="10" ry="9.6"/>
<ellipse class="st3" cx="220.9" cy="1032.9" rx="10" ry="9.6"/>
<ellipse class="st3" cx="218.3" cy="1065.1" rx="3.7" ry="3.2"/>
<polygon class="st0" points="263.9,1053 260.4,1047.7 254,1047.6 258,1042.6 256.1,1036.5 262.1,1038.7 267.3,1035.1 267,1041.4 
	272.1,1045.3 266,1047 "/>
<ellipse transform="matrix(0.45 -0.893 0.893 0.45 -903.0045 900.2325)" class="st3" cx="279.4" cy="1183.2" rx="3.6" ry="3.2"/>
<ellipse class="st3" cx="319" cy="1122" rx="3.6" ry="3.2"/>
<path class="st0" d="M345.3,1067.5"/>
<ellipse class="st3" cx="324.1" cy="1028.7" rx="3.6" ry="3.2"/>
<ellipse class="st3" cx="340.6" cy="1057" rx="3.6" ry="3.2"/>
<ellipse class="st3" cx="312.2" cy="1071.9" rx="3.6" ry="3.2"/>
<ellipse class="st3" cx="333" cy="992.8" rx="3.6" ry="3.2"/>
<circle class="st3" cx="353.6" cy="1250.9" r="9.6"/>
<ellipse class="st3" cx="277.9" cy="994.5" rx="3.6" ry="3.2"/>
<ellipse class="st3" cx="290.3" cy="1029.8" rx="3.6" ry="3.2"/>
<ellipse transform="matrix(0.5285 -0.8489 0.8489 0.5285 -797.7974 859.6349)" class="st3" cx="375" cy="1148" rx="3.2" ry="3.6"/>
<ellipse transform="matrix(8.992974e-02 -0.9959 0.9959 8.992974e-02 -771.2365 1384.8049)" class="st3" cx="372.1" cy="1114.4" rx="10" ry="9.6"/>
<ellipse transform="matrix(0.45 -0.893 0.893 0.45 -749.4543 944.7423)" class="st3" cx="392.3" cy="1080.8" rx="3.6" ry="3.2"/>
<line class="st0" x1="228.3" y1="1209.6" x2="202.7" y2="1244.4"/>
<line class="st0" x1="183.3" y1="1178.6" x2="157.7" y2="1213.4"/>
<line class="st0" x1="192" y1="1209" x2="154" y2="1265"/>
<circle class="st3" cx="280.8" cy="1228.3" r="18.6"/>
<ellipse class="st3" cx="240.3" cy="1228.8" rx="3.6" ry="3.2"/>
<ellipse class="st3" cx="108.6" cy="1279.4" rx="3.6" ry="3.2"/>
<polygon class="st0" points="313.1,1015.1 307,1013.4 302.1,1017.3 301.9,1011 296.5,1007.5 302.5,1005.4 304.1,999.2 308.1,1004.2 
	314.4,1003.9 310.8,1009.2 "/>
<polygon class="st0" points="180.9,1277.5 177.3,1272.2 171,1272.1 174.9,1267.1 173,1261 179,1263.2 184.2,1259.5 184,1265.9 
	189.1,1269.7 182.9,1271.4 "/>
<ellipse class="st3" cx="337" cy="1206" rx="3.6" ry="3.2"/>
<ellipse transform="matrix(0.5285 -0.8489 0.8489 0.5285 -700.2896 834.1854)" class="st3" cx="400.8" cy="1047.5" rx="3.2" ry="3.6"/>
<ellipse transform="matrix(8.992471e-02 -0.9959 0.9959 8.992471e-02 -896.2979 1481.5162)" class="st3" cx="362.5" cy="1231.2" rx="3.6" ry="3.2"/>
<line class="st2" x1="365.1" y1="1055.3" x2="362.2" y2="1071.8"/>
<line class="st2" x1="378.7" y1="1060.1" x2="363.8" y2="1057.7"/>
<g>
	<g>
		<path class="st4" d="M755.4,1323.2c-0.1-0.6-0.3-1.1-0.5-1.6c-0.2-0.4-0.3-0.7-0.5-1c-0.9-1.5-2.1-2.8-3.6-3.7
			c-1.1-0.7-2.4-1.1-3.8-1.3l-82.5-11l-82.3-11c-5.5-0.7-10.5,3.1-11.3,8.6l-30.4,228.6c-0.7,5.5,3.1,10.5,8.6,11.3l82.3,10.9
			l82.5,11c2.1,0.3,4.1-0.1,5.8-1c0.6-0.3,1.1-0.6,1.6-1c0.3-0.2,0.5-0.4,0.7-0.6c0.5-0.4,0.9-0.9,1.3-1.4c0.2-0.3,0.4-0.5,0.5-0.8
			c0.7-1.1,1.1-2.4,1.3-3.8l30.4-228.5C755.8,1325.5,755.7,1324.3,755.4,1323.2z M714.4,1554.2l-163.1-21.7l30.4-229.1l163.1,21.7
			L714.4,1554.2z"/>
		<g>
			<g>
				<path class="st3" d="M695.7,1336.4l-69.8-9.3c-3.7-0.5-6.3-3.9-5.8-7.6l1.5-11.1c0.5-3.7,3.9-6.3,7.6-5.8l69.8,9.3
					c3.7,0.5,6.3,3.9,5.8,7.6l-1.5,11.1C702.8,1334.2,699.4,1336.8,695.7,1336.4z M628.7,1306c-1.8-0.2-3.4,1-3.6,2.8l-1.5,11.1
					c-0.2,1.8,1,3.4,2.8,3.6l69.8,9.3c1.8,0.2,3.4-1,3.6-2.8l1.5-11.1c0.2-1.8-1-3.4-2.8-3.6L628.7,1306z"/>
			</g>
		</g>
		<g>
			
				<rect x="656.6" y="1274.5" transform="matrix(0.1318 -0.9913 0.9913 0.1318 -720.5489 1794.3125)" class="st3" width="15" height="68.1"/>
		</g>
	</g>
	<g>
		<g>
			
				<rect x="693.1" y="1348.7" transform="matrix(0.1318 -0.9913 0.9913 0.1318 -759.1616 1880.9253)" class="st5" width="2.1" height="50.4"/>
		</g>
		<g>
			
				<rect x="692.3" y="1355.4" transform="matrix(0.1318 -0.9913 0.9913 0.1318 -766.5786 1885.8575)" class="st5" width="2.1" height="50.4"/>
		</g>
		<g>
			
				<rect x="685.3" y="1367.5" transform="matrix(0.1318 -0.9913 0.9913 0.1318 -778.5688 1884.1722)" class="st5" width="2.1" height="38.1"/>
		</g>
	</g>
	<g>
		<g>
			
				<rect x="688.6" y="1382.5" transform="matrix(0.1318 -0.9913 0.9913 0.1318 -796.574 1905.8091)" class="st5" width="2.1" height="50.4"/>
		</g>
		<g>
			
				<rect x="687.8" y="1389.2" transform="matrix(0.1318 -0.9913 0.9913 0.1318 -803.9911 1910.7413)" class="st5" width="2.1" height="50.4"/>
		</g>
		<g>
			
				<rect x="680.8" y="1401.3" transform="matrix(0.1318 -0.9913 0.9913 0.1318 -815.9812 1909.0559)" class="st5" width="2.1" height="38.1"/>
		</g>
	</g>
	<g>
		<g>
			
				<rect x="684.2" y="1416.3" transform="matrix(0.1318 -0.9913 0.9913 0.1318 -833.9135 1930.8024)" class="st5" width="2.1" height="50.4"/>
		</g>
		<g>
			
				<rect x="683.4" y="1423" transform="matrix(0.1318 -0.9913 0.9913 0.1318 -841.3306 1935.7346)" class="st5" width="2.1" height="50.4"/>
		</g>
		<g>
			
				<rect x="676.3" y="1435.1" transform="matrix(0.1318 -0.9913 0.9913 0.1318 -853.3937 1933.9397)" class="st5" width="2.1" height="38.1"/>
		</g>
	</g>
	<g>
		<g>
			
				<rect x="679.7" y="1450.1" transform="matrix(0.1318 -0.9913 0.9913 0.1318 -871.3259 1955.686)" class="st5" width="2.1" height="50.4"/>
		</g>
		<g>
			
				<rect x="678.9" y="1456.8" transform="matrix(0.1318 -0.9913 0.9913 0.1318 -878.743 1960.6183)" class="st5" width="2.1" height="50.4"/>
		</g>
		<g>
			
				<rect x="671.8" y="1468.9" transform="matrix(0.1318 -0.9913 0.9913 0.1318 -890.8061 1958.8232)" class="st5" width="2.1" height="38.1"/>
		</g>
	</g>
	<g>
		<g>
			
				<rect x="675.2" y="1483.9" transform="matrix(0.1318 -0.9913 0.9913 0.1318 -908.7383 1980.5697)" class="st5" width="2.1" height="50.4"/>
		</g>
		<g>
			
				<rect x="674.4" y="1490.6" transform="matrix(0.1318 -0.9913 0.9913 0.1318 -916.1554 1985.502)" class="st5" width="2.1" height="50.4"/>
		</g>
		<g>
			
				<rect x="667.3" y="1502.7" transform="matrix(0.1318 -0.9913 0.9913 0.1318 -928.2185 1983.7069)" class="st5" width="2.1" height="38.1"/>
		</g>
	</g>
	<g>
		<g>
			
				<rect x="619.4" y="1338.9" transform="matrix(0.1318 -0.9913 0.9913 0.1318 -813.5099 1799.2921)" class="st3" width="2.1" height="50.4"/>
		</g>
		<g>
			
				<rect x="618.5" y="1345.6" transform="matrix(0.1318 -0.9913 0.9913 0.1318 -820.9361 1804.2367)" class="st3" width="2.1" height="50.4"/>
		</g>
		<g>
			
				<rect x="623.7" y="1359.3" transform="matrix(0.1318 -0.9913 0.9913 0.1318 -823.8828 1815.9309)" class="st3" width="2.1" height="38.1"/>
		</g>
	</g>
	<g>
		<g>
			
				<rect x="614.9" y="1372.7" transform="matrix(0.1318 -0.9913 0.9913 0.1318 -850.9083 1824.189)" class="st3" width="2.1" height="50.4"/>
		</g>
		<g>
			
				<rect x="614" y="1379.4" transform="matrix(0.1318 -0.9913 0.9913 0.1318 -858.3347 1829.1338)" class="st3" width="2.1" height="50.4"/>
		</g>
		<g>
			
				<rect x="619.2" y="1393.1" transform="matrix(0.1318 -0.9913 0.9913 0.1318 -861.2813 1840.8279)" class="st3" width="2.1" height="38.1"/>
		</g>
	</g>
	<g>
		<g>
			
				<rect x="610.4" y="1406.5" transform="matrix(0.1318 -0.9913 0.9913 0.1318 -888.3069 1849.0859)" class="st3" width="2.1" height="50.4"/>
		</g>
		<g>
			
				<rect x="609.5" y="1413.2" transform="matrix(0.1318 -0.9913 0.9913 0.1318 -895.7333 1854.0309)" class="st3" width="2.1" height="50.4"/>
		</g>
		<g>
			
				<rect x="614.7" y="1426.8" transform="matrix(0.1318 -0.9913 0.9913 0.1318 -898.6798 1865.7249)" class="st3" width="2.1" height="38.1"/>
		</g>
	</g>
	<g>
		<g>
			
				<rect x="605.8" y="1440.2" transform="matrix(0.1318 -0.9913 0.9913 0.1318 -925.7781 1873.8732)" class="st3" width="2.1" height="50.4"/>
		</g>
		<g>
			
				<rect x="604.9" y="1447" transform="matrix(0.1318 -0.9913 0.9913 0.1318 -933.2046 1878.818)" class="st3" width="2.1" height="50.4"/>
		</g>
		<g>
			
				<rect x="610.1" y="1460.6" transform="matrix(0.1318 -0.9913 0.9913 0.1318 -936.1513 1890.5121)" class="st3" width="2.1" height="38.1"/>
		</g>
	</g>
	<g>
		<g>
			
				<rect x="601.3" y="1474" transform="matrix(0.1318 -0.9913 0.9913 0.1318 -963.1767 1898.7703)" class="st3" width="2.1" height="50.4"/>
		</g>
		<g>
			
				<rect x="600.4" y="1480.8" transform="matrix(0.1318 -0.9913 0.9913 0.1318 -970.6032 1903.7151)" class="st3" width="2.1" height="50.4"/>
		</g>
		<g>
			
				<rect x="605.6" y="1494.4" transform="matrix(0.1318 -0.9913 0.9913 0.1318 -973.5499 1915.4092)" class="st3" width="2.1" height="38.1"/>
		</g>
	</g>
</g>
</svg>
