<?xml version="1.0" encoding="utf-8"?>
<!-- Generator: Adobe Illustrator 18.0.0, SVG Export Plug-In . SVG Version: 6.00 Build 0)  -->
<!DOCTYPE svg PUBLIC "-//W3C//DTD SVG 1.1//EN" "http://www.w3.org/Graphics/SVG/1.1/DTD/svg11.dtd">
<svg version="1.1" id="Calque_1" xmlns="http://www.w3.org/2000/svg" xmlns:xlink="http://www.w3.org/1999/xlink" x="0px" y="0px"
	 viewBox="-5.1 261.9 750 322.7" enable-background="new -5.1 261.9 750 322.7" xml:space="preserve">
<rect x="-5.1" y="261.9" fill="#36BADF" width="750" height="322.7"/>
<g>
	<path fill="#FFFFFF" d="M439,562.4c0.3-1.8,2.4-2,3.9-2.7c0,1.5,1.7,1.6,1.1,3.5C442.2,564.2,440,563.9,439,562.4z"/>
	<path fill="#FFFFFF" d="M415.1,562c0-0.3,0-0.5,0-0.8C415.5,561.5,415.6,562,415.1,562z"/>
	<path fill="#FFFFFF" d="M468.9,561.5c-2.2-0.4-1.7-0.8-2.9-2c2-0.1,2.9-2,4.4-0.5C470.7,560.7,469.1,560.5,468.9,561.5z"/>
	<path fill="#FFFFFF" d="M493.8,559c-0.2-1.6,2.3-1.1,2.4-2.4c1.1,0.5,1.8,1.3,2,2.3C497.3,561,494.7,560.8,493.8,559z"/>
	<path fill="#FFFFFF" d="M672.2,557.2C672.4,557.5,671.9,557,672.2,557.2L672.2,557.2z"/>
	<path fill="#FFFFFF" d="M529,557.4c-2.8,0-6.1,0.6-5.9-2c2.5,0,3-1.8,5.4-2C529.8,554.4,530.1,555.8,529,557.4z"/>
	<path fill="#FFFFFF" d="M579.8,555c0.7-1.2-0.4-1.3,0.5-2.3c2.1,0.4,1.7,0,3.4-0.5c-0.2-0.5-0.6-0.8-1.5-0.8
		C589.1,548,589,559.9,579.8,555z"/>
	<path fill="#FFFFFF" d="M549.5,555.5c-0.5-1.9,1-2.3,1.5-3.5c1.7,1.1,3.1-0.5,4-1.2C560.1,553,553.1,558.2,549.5,555.5z"/>
	<path fill="#FFFFFF" d="M623.8,554.4c-2.5-0.1-4.4-0.6-4.9-2.3c0.2-2,3.4-1.5,5.4-2C625.5,551.4,625.5,553.5,623.8,554.4z"/>
	<path fill="#FFFFFF" d="M707.8,552.4c-2.8,1.6-10.3,2.2-10.2-1.1C697.7,548.5,708,546.4,707.8,552.4z"/>
	<path fill="#FFFFFF" d="M667.9,551.8c0.1-0.3,0.5-0.4,0.5-0.8c1.9-3.1,9.8-3.2,9.3,0.4C677.2,554,669.5,554.9,667.9,551.8z"/>
	<path fill="#FFFFFF" d="M641.4,553.2c-1.9-5.1,9.2-5.5,9.3-2C650.8,554,645.2,554.8,641.4,553.2z"/>
	<path fill="#FFFFFF" d="M581.1,551.9C581.4,552,581,551.5,581.1,551.9L581.1,551.9z"/>
	<path fill="#FFFFFF" d="M554.3,550.4c-0.1,0.5-0.9,0.4-1.5,0.4C553,550.2,553.7,550.5,554.3,550.4z"/>
	<path fill="#FFFFFF" d="M506,539c1.2-1.3,5.1-0.6,5.4-2.8c2.6,0.9,6.8,0.5,5.9,4.3C514.4,542,506.2,542.5,506,539z"/>
	<path fill="#FFFFFF" d="M417.4,540.2c0.2-2.7,3.4-3,5.9-4c-0.2,0.8,0.7,0.7,1.5,0.8c0,0.9,0,1.9,0,2.7
		C423.1,541,419,542.2,417.4,540.2z"/>
	<path fill="#FFFFFF" d="M716.1,535c0,1.1,0,2.1,0,3.1c-1.4,1.2-5.4,0.8-5.9-1.6C711.1,535.2,714.7,535.4,716.1,535z"/>
	<path fill="#FFFFFF" d="M440.9,538.9c0-0.5,0-1.1,0-1.6c2.2-1.7,6.3-1.8,8.8-3.1c1.6,0.6,2.4,1.8,2,3.9
		C449.5,539.5,443.3,541.2,440.9,538.9z"/>
	<path fill="#FFFFFF" d="M676,533.4c3.2-2.5,13.9-1.5,13.3,2.2C688.4,539.7,676.4,537.4,676,533.4z M679.5,534.9
		C679.2,534.5,679.7,535,679.5,534.9L679.5,534.9z"/>
	<path fill="#FFFFFF" d="M476,536c1.5-0.6,3.4-0.9,4.4-2C487.5,536.5,476.9,541.8,476,536z"/>
	<path fill="#FFFFFF" d="M645.7,535.5c0-0.8,0-1.6,0-2.3c2.2-0.7,4,0.5,4.4-1.2C658.6,532.7,650.4,539,645.7,535.5z"/>
	<path fill="#FFFFFF" d="M612.9,536c0-0.6,0.2-1.6-0.5-1.6c1.8-1.8,3.8-0.8,6.3-2C622.9,535.4,616.6,538.4,612.9,536z"/>
	<path fill="#FFFFFF" d="M640.8,535.9C641,536,640.4,535.5,640.8,535.9L640.8,535.9z"/>
	<path fill="#FFFFFF" d="M551.9,536.4c-0.6-1.1-0.6-2,0-3.1c1.8,0,4,0.3,4.4-0.8C561.4,533.8,556.9,538.5,551.9,536.4z"/>
	<path fill="#FFFFFF" d="M582.6,532.7c2.5,0.3,4-0.5,4.9-1.6C598.5,533.7,580.5,540.2,582.6,532.7z"/>
	<path fill="#FFFFFF" d="M446.3,534.5c0.1-0.7,0.9-0.9,2-0.8C448,534.5,447.3,534.7,446.3,534.5z"/>
	<path fill="#FFFFFF" d="M520,532.7c-0.1,0.5-1.1,0.4-1.1,0C519.3,532,519.5,532.7,520,532.7z"/>
	<path fill="#FFFFFF" d="M586,531.5c-0.1,0.1-1.1,0.7-1.5,0.4C584.2,531.5,586.5,530.8,586,531.5z"/>
	<path fill="#FFFFFF" d="M498.4,519.4c1.4-3.4,8.3-1.5,6.3,2C502.1,522.5,499.2,521,498.4,519.4z M502.3,518.5
		C502.1,518.4,502.5,518.8,502.3,518.5L502.3,518.5z M501.4,518.5C501.1,518.4,501.6,518.8,501.4,518.5L501.4,518.5z"/>
	<path fill="#FFFFFF" d="M447.1,521.7c-0.1-1.1-1-1.7-1.1-2.7c1.8-2.1,6.5-2,7.8,0.4C454,522.5,450.6,522,447.1,521.7z"/>
	<path fill="#FFFFFF" d="M417.2,518c2.3-3.5,11.1-0.5,7.3,3C421.6,520.5,417.5,520.8,417.2,518z"/>
	<path fill="#FFFFFF" d="M479.4,520.2c-2.3,0-4.8,0.2-6.3-0.4c0.1-1.7-0.6-1.6,0-2.7C475.6,515.2,481.6,517,479.4,520.2z"/>
	<path fill="#FFFFFF" d="M529.8,517.8c0.6-3.7,9-2.3,6.3,1.6C532.4,520,532.3,518.4,529.8,517.8z"/>
	<path fill="#FFFFFF" d="M617.2,516c-0.1-0.9-1.3-0.9-1.5,0c-0.4-0.1-0.6-0.3-0.5-0.8c0.7-0.3,0-0.5,0,0c-1,0.7-0.9-0.2-2.4,0
		c0-0.5,0-1.1,0-1.6c2.5-1.1,6-1.2,6.9,1.1c-1.1,0.4-0.4,2-2,2C617.6,516.5,617.7,516,617.2,516z M616.3,514.5c0.4-0.1,1,0,1.1-0.4
		C616.8,514.2,616.3,514,616.3,514.5z"/>
	<path fill="#FFFFFF" d="M616.3,516.5C616.3,516.9,615.5,516.8,616.3,516.5L616.3,516.5z"/>
	<path fill="#FFFFFF" d="M557.1,514.2c0.6,0,0.7,0.5,1.5,0.4c0.3,1.9-1.2,2.1-2.9,2.3c1.6-1.9-1.6-0.3-1.5-2
		C555.4,515.2,557.1,515.4,557.1,514.2z"/>
	<path fill="#FFFFFF" d="M642.2,516.2c-1.8,0.3-1.9-0.6-3.4-0.4c0.3-2.7-0.9-0.3-2-1.1c0.6-1.3,2.3-1.9,4.9-1.6
		C641.3,514.7,642.5,514.8,642.2,516.2z M639.3,514.2c0.4-0.1,1,0,1.1-0.4C639.9,514,639.3,514,639.3,514.2z"/>
	<path fill="#FFFFFF" d="M617.2,516c-0.1,0.4-0.4,0.5-1.1,0.4C616.4,516,616.6,516,617.2,516z"/>
	<path fill="#FFFFFF" d="M709.7,514.4c-1.2,0-1.9-0.6-2-1.6c-1.8,1.4-1.5-0.9-3.9-0.4c-0.1-2.2,2.3-2.3,4.9-2.3
		C710.3,512,710.6,512.5,709.7,514.4z"/>
	<path fill="#FFFFFF" d="M687.7,514.5c-1.7,0.2-2.3-0.3-3.4-0.4c0.1-1.2,0.8-0.6,1-2.3c-0.8,0.6-1.2,1.4-2.9,1.2
		c0.7-1.9,2.9-1.9,4.9-2c-0.3,1.1,0.2,1.4,1.5,1.1C688.4,513,688,513.9,687.7,514.5z"/>
	<path fill="#FFFFFF" d="M594.7,513c0.5,0,1.1,0,1.5,0c-0.1-0.3-0.5-0.4-0.5-0.8C594.9,512,594.8,512.5,594.7,513
		c-0.6-0.3-1-0.9-1.1-1.6c2.7,0.1,4,0,4.9,2c-0.1,0.7-0.3,1.3-1.1,1.6c-1.1-0.4-2-0.8-2.9-1.1C594.8,513.5,594.8,513.4,594.7,513z"
		/>
	<path fill="#FFFFFF" d="M662.2,512.4c1.8-2.5,5-1.9,7.3-0.5C668.9,515,664,513.5,662.2,512.4z"/>
	<path fill="#FFFFFF" d="M557.1,514.2c-0.6,0-1.1-0.1-1.1-0.8c0.4,0,0.6,0,1.1,0C557.1,514,557.1,514,557.1,514.2z"/>
	<path fill="#FFFFFF" d="M593.8,513.4C593.2,515,593.2,511.9,593.8,513.4L593.8,513.4z"/>
	<path fill="#FFFFFF" d="M555.2,513.7C555.3,513.8,554.8,513.5,555.2,513.7L555.2,513.7z"/>
	<path fill="#FFFFFF" d="M575.7,512.8c0-0.1,0-0.3,0-0.4C575.1,512.5,575.4,512.8,575.7,512.8c0,0.3,0,0.5,0,0.8
		c-2.4,0.2-0.3-1.1-2.4-1.1c0-0.6,3.6-0.9,2.9,0.4C576,512.8,575.8,512.8,575.7,512.8z"/>
	<path fill="#FFFFFF" d="M441.2,504.5c-0.7-1.2,0.2-1.4,0-3.1C449.8,497.2,450.8,509.2,441.2,504.5z M444.1,503.2
		C443.7,503,444.3,503.5,444.1,503.2L444.1,503.2z M442.1,502.5c0,0.4,0.9,0.5,1.1,0C442.6,502.5,442.4,502,442.1,502.5z"/>
	<path fill="#FFFFFF" d="M417.7,504.7c0.4-2.2,1.8-1.5,0.5-3.5c2.5-0.8,4.2,0.2,5.9,1.1C424.7,506.2,420.3,506.2,417.7,504.7z
		 M420.1,502.2C419.8,502,420.3,502.4,420.1,502.2L420.1,502.2z"/>
	<path fill="#FFFFFF" d="M495.9,503c-2.8-4.1,7.9-7.3,10.2-2.8C505.3,503,499.3,503.2,495.9,503z"/>
	<path fill="#FFFFFF" d="M472,500c0,0.4,0,0.8,0,1.1c1.4,0,1.4-1,1.5-2c1.7,0.6,2.8,1.4,2.9,3.1c-0.9,0.9-2.3,1.3-4.4,1.2
		C472.3,502.2,470,500,472,500z M473.9,500.8C473.6,500.5,474.1,501,473.9,500.8L473.9,500.8z"/>
	<path fill="#FFFFFF" d="M555.1,496c1.9-1.1,3.9-1.9,7.3-1.6C569.9,498.9,551.9,503.5,555.1,496z"/>
	<path fill="#FFFFFF" d="M526.1,498.9c0-4.8,9.6-5.1,9.3-1.6C535.3,499.8,528.8,502.2,526.1,498.9z"/>
	<path fill="#FFFFFF" d="M472,500C471.9,499.5,472.7,499.8,472,500L472,500z"/>
	<path fill="#FFFFFF" d="M601,492.7c0.8,1.7,1.9,2.8,0.6,4.3c-4.2,1.4-11,1.8-10.2-2C591.6,492.9,597,491.8,601,492.7z"/>
	<path fill="#FFFFFF" d="M673.4,494.2c0.6-4.3,11.1-4,11.3,0.4c-1.1,0.1-1.1,1.1-1.5,1.6c-4.4-0.2-7.6,1.9-10.2-0.4
		C672.1,494.8,675.1,494.9,673.4,494.2z"/>
	<path fill="#FFFFFF" d="M653.7,491.5c-0.2,0-0.4,0-0.5,0C653.4,492,653.7,491.8,653.7,491.5c0.6,0,1.3,0,2,0c3.9,4-6.6,6.2-6.3,1.2
		c0.7-1.2,2.5-1.4,4.4-1.6C653.7,491.2,653.7,491.5,653.7,491.5z M650.9,493.2C650.5,493,651,493.2,650.9,493.2L650.9,493.2z
		 M653.8,492.8c0.4-0.1,1,0,1.1-0.4C654.4,492.5,653.8,492.4,653.8,492.8z"/>
	<path fill="#FFFFFF" d="M629.3,492c-0.2,0-0.4,0-0.5,0C628.9,492.5,629.3,492.2,629.3,492c4.5,2.7-4.8,5.4-8.3,3.1
		C619.7,492.2,627.3,488.9,629.3,492z M623.5,493c0,0.4,0.9,0.5,1.1,0C623.9,493,623.8,492.2,623.5,493z"/>
	<path fill="#FFFFFF" d="M673.4,494.2C673.2,495.4,671.4,493.9,673.4,494.2L673.4,494.2z"/>
	<path fill="#FFFFFF" d="M701.7,493.2c0.7-1.7-1.5-3.2,3.8-3.9C710.4,490.9,706,495.8,701.7,493.2z M703.6,490.9
		C703.4,490.7,703.8,491,703.6,490.9L703.6,490.9z"/>
	<path fill="#FFFFFF" d="M641.5,491.2C641.8,491.4,641.3,491,641.5,491.2L641.5,491.2z"/>
	<path fill="#FFFFFF" d="M423.9,478c0.4-0.1,0.6-0.4,0.5-0.8c2,1.1,2.7,4.1,0.6,5.5c-2.2-0.6-3.1,0.1-5.9,0c-0.9-1.3,0.6-1.8,1-3.1
		C421.4,479,423.5,479.2,423.9,478z"/>
	<path fill="#FFFFFF" d="M440,480.5c0.3-2.1,3.4-2,5.9-2.3c1.2-0.5-0.9-1.2,0.5-1.6c1.8,0.2,0.6,1.1,2.4,0.4
		C453.8,481.7,444.3,482.7,440,480.5z"/>
	<path fill="#FFFFFF" d="M470.8,480.4c-0.6-1.8,0-2,1-3.1c1.9,0.2,2.7,0.2,4.9,0.8C476.2,481,472.8,480.4,470.8,480.4z"/>
	<path fill="#FFFFFF" d="M502.6,478.7c-0.2-1.1-1.7-1.1-1.1-2.7c2-1.2,3.7,0,4.9-1.6C511.6,476.2,506.9,479.9,502.6,478.7z"/>
	<path fill="#FFFFFF" d="M444.4,477.5C444.6,477.5,444.1,477.2,444.4,477.5L444.4,477.5z"/>
	<path fill="#FFFFFF" d="M423.9,478C421.6,478.4,424.4,476,423.9,478L423.9,478z"/>
	<path fill="#FFFFFF" d="M693.3,474.5c-2.3-6,9.9-5.7,9.8-1.6C703,476,696.8,475.7,693.3,474.5z"/>
	<path fill="#FFFFFF" d="M670.8,474.2c0.1-1.7-0.8-1.8,0-3.1c1.9-0.4,3.9-0.6,6.3-0.5c-0.8,1.3,1.8,1.4,1.5,2.7
		C678.1,476,673.5,476,670.8,474.2z M675.2,474.2C674.9,474,675.5,474.5,675.2,474.2L675.2,474.2z"/>
	<path fill="#FFFFFF" d="M642.5,474.7c-2.9-5.8,8.5-5.6,8.4-1.6C650.6,476.2,646.1,475.4,642.5,474.7z"/>
	<path fill="#FFFFFF" d="M474.7,476C474.9,476.2,474.5,475.8,474.7,476L474.7,476z"/>
	<path fill="#FFFFFF" d="M625.8,469.5c-0.9,1.8,1.5,2,1.5,2.3c-0.1,3.2-7.9,3.2-8.4,0C618.7,469.5,621,468.5,625.8,469.5z
		 M623.9,471.4C623.6,471,624.1,471.5,623.9,471.4L623.9,471.4z"/>
	<path fill="#FFFFFF" d="M540.2,470.2c1.2,0,2.3-0.2,2.9-0.8c6.4,3-5.2,6.8-6.3,2.8C537.3,471,539.5,471.2,540.2,470.2z"/>
	<path fill="#FFFFFF" d="M569.1,471.7c0.4-2,2.8-2.4,3.9-4c1.8,0,2.8,0.6,4.4,0.8c0,1.1,1.2,1.4,1.1,3.5
		C576.8,473.9,570.9,473.2,569.1,471.7z"/>
	<path fill="#FFFFFF" d="M593,471.5c1.3-2.6,3.6-4.4,8.8-4c0.3,1.3,1.8,1.8,1.5,3.5c-0.6,0.2-1.1,0.5-1.1,1.2
		C598.7,472.4,595.9,472.8,593,471.5z M598.4,470.7C597.8,469.2,597.8,472.2,598.4,470.7L598.4,470.7z"/>
	<path fill="#FFFFFF" d="M540.2,470.2c-0.5,0-1.1,0-1.5,0c0.4-0.5,1.1-0.7,2-0.8C540.8,469.9,540.3,470,540.2,470.2z"/>
	<path fill="#FFFFFF" d="M542.2,469C542.3,469.2,541.8,468.9,542.2,469L542.2,469z"/>
	<path fill="#FFFFFF" d="M499.1,459.5c-0.1,0.5-1.1,0.4-1.1,0C498.3,459,498.5,459.5,499.1,459.5z"/>
	<path fill="#FFFFFF" d="M559.8,455.7c0.4-2.9,3.3-2.7,5.4-3.5C573.1,454.9,563.8,460.5,559.8,455.7z"/>
	<path fill="#FFFFFF" d="M526.4,453.9c0.9-4,6.8-3.8,9.3-0.8C536.7,458.9,528,456,526.4,453.9z"/>
	<path fill="#FFFFFF" d="M692.7,452.5c-0.2-0.8,3.5-1.3,1.1-1.6c0.8-0.6,1.6-1.2,2.4-1.6c2.4,0.4,4.4,1.1,5.4,2.7
		C700.8,455.7,694.5,454.5,692.7,452.5z M697.6,450.7c-0.7,0.2-2.5-0.5-2.4,0.5C696.6,450.8,697.1,451.9,697.6,450.7z"/>
	<path fill="#FFFFFF" d="M643.9,452.9c-0.3-1.2,0.9-1.4,0.5-2.7c1.4-0.5,3.4-0.5,5.4-0.5C654.6,453.5,647.3,456.5,643.9,452.9z"/>
	<path fill="#FFFFFF" d="M592.9,449.2c0.9,0,1.6,0.1,2,0.4c-0.3,1.1,1.1,0.8,1.1,1.6c-0.9,2-3.2,2.8-6.3,3.1c-1.9-1.1-0.5-3.2,0-4.7
		C590.5,449.9,592.7,450.5,592.9,449.2z"/>
	<path fill="#FFFFFF" d="M492.2,451.2c1.7-2.9,9.8-1.7,7.8,2c-1.8,2.4-7.9,2.3-8.4-0.4C491.6,451.8,494.2,452,492.2,451.2z
		 M494.2,451.2c0.6,0,1.4,0.1,1.5-0.4C495.1,451,494.2,450.9,494.2,451.2z"/>
	<path fill="#FFFFFF" d="M459.9,454.2c-1.2-3.1,5.2-7.2,9.3-3.6c0.2,1.4-0.1,2.5-0.5,3.5C465.5,454.9,462.8,455.5,459.9,454.2z"/>
	<path fill="#FFFFFF" d="M670.1,450.8c2-0.8,4.1,0.9,4-1.6c1.4,0.3,2.4,1,3.4,1.6C677.9,454.5,670,454.2,670.1,450.8z"/>
	<path fill="#FFFFFF" d="M715.6,452.8c-2.3,0.4-3-0.7-3.4-2c2.4-0.5-0.2-2.5,2.9-2.3c0.2,0.7-1.6,1.8,0.5,1.7
		C715.6,451,715.6,452,715.6,452.8z"/>
	<path fill="#FFFFFF" d="M617.8,449.9c0.9-1.2,3.6-0.7,4.9-1.6c0.5,0.5,0.5,1.5,1.5,1.6C624.3,453.2,618.1,453,617.8,449.9z"/>
	<path fill="#FFFFFF" d="M594.8,449.7C594.8,449,595.6,449.4,594.8,449.7L594.8,449.7z"/>
	<path fill="#FFFFFF" d="M715.6,448.2c0,0.1,0,0.3,0,0.4c-0.2,0-0.4,0-0.5,0C715.2,448.2,715.3,448,715.6,448.2z"/>
	<path fill="#FFFFFF" d="M592.9,449.2C592.4,449.2,592.6,448.7,592.9,449.2L592.9,449.2z"/>
	<path fill="#FFFFFF" d="M591,448.9C591.2,449,590.6,448.5,591,448.9L591,448.9z"/>
	<path fill="#FFFFFF" d="M618.8,448.2C619,448.5,618.5,448,618.8,448.2L618.8,448.2z"/>
	<path fill="#FFFFFF" d="M594.4,448.4C594.6,448.5,594,448.2,594.4,448.4L594.4,448.4z"/>
	<path fill="#FFFFFF" d="M621.2,447.9c0,0.4-0.6,0.3-1.1,0.4C620.3,447.9,620.9,448,621.2,447.9z"/>
	<path fill="#FFFFFF" d="M498.4,431.7c-0.8,0-1.3,0.4-1.5,0.8C497.9,432.5,498.2,432.2,498.4,431.7c0.4,0,0.6,0,1.1,0
		c2,2.9-2,3.9-4.9,4.3c-3.6-1.7-2.6-6.1,2.9-5.9C497.5,431,498.7,430.8,498.4,431.7z M497,431c-1,0.2-2,0.1-2,1.2
		C496.3,432.2,496.6,431.5,497,431z"/>
	<path fill="#FFFFFF" d="M437.9,431.5c0.1,0.5,0.9,0.3,1.5,0.4C439.2,431.5,438.4,431.7,437.9,431.5c2.5-2.9,10.6-2,8.8,2.2
		c-4,1.4-8.2,2.5-12.2,1.2C434.7,433.4,436.7,432.9,437.9,431.5z M440.8,431.2C440.4,431,441,431.4,440.8,431.2L440.8,431.2z"/>
</g>
<path fill="#FFFFFF" d="M148.2,334.7c0,0-13.1-0.8-17.7,4.6c5.1-11.5,17.7-14,17.7-14v-4.7l12.6,9.5l-12.6,9.5
	C148.2,339.5,148.2,334.7,148.2,334.7z M100.4,370h60.3l-30.1-27.4L100.4,370z M104.6,336.9l25.9-17.7l7.7,5.3
	c1.8-1.1,3.5-1.9,4.9-2.4l-12.6-8.6l-30.2,20.6v29.5l18.5-16.8C118.9,346.5,104.6,336.9,104.6,336.9z M144.3,348.4l16.5,15V336
	C160.8,336,144.3,348.4,144.3,348.4z"/>
<path fill="#36DFDE" d="M207.9,349.2l-29.7-24.1h59.5L207.9,349.2z M194.4,344.8L178,331.5v31L194.4,344.8z M221.4,344.8l16.3,17.8
	v-31.1L221.4,344.8z M217.5,348l-9.6,7.8l-9.6-7.8l-20.1,21.9h59.5L217.5,348z"/>
<path fill="#36DFDE" d="M287.1,350.2L257.4,326h59.5L287.1,350.2z M273.6,345.7l-16.3-13.3v31C257.4,363.5,273.6,345.7,273.6,345.7z
	 M300.6,345.7l16.3,17.8v-31C316.8,332.4,300.6,345.7,300.6,345.7z M296.7,348.8l-9.6,7.8l-9.6-7.8l-20.1,21.9h59.5L296.7,348.8z"/>
<path fill="#FFFFFF" d="M227.8,409c0,0-12.8-0.8-17.2,4.6c4.9-11.5,17.2-14,17.2-14V395l12.3,9.5l-12.3,9.5V409z M181.2,444.4H240
	L210.6,417C210.6,417,181.2,444.4,181.2,444.4z M185.3,411.4l25.3-17.7l7.5,5.3c1.8-1.1,3.4-1.9,4.8-2.4l-12.3-8.6l-29.5,20.6V438
	l18-16.8C199.2,421,185.3,411.4,185.3,411.4z M224,422.9l16.1,15v-27.4L224,422.9z"/>
<path fill="#FFFFFF" d="M148.8,484.7c0,0-12.6-0.8-17,4.6c4.9-11.5,17-14,17-14v-4.7l12.1,9.5l-12.1,9.5
	C148.8,489.5,148.8,484.7,148.8,484.7z M102.9,520h58l-29-27.4C131.8,492.5,102.9,520,102.9,520z M107,486.9l25-17.7l7.4,5.3
	c1.8-1.1,3.4-1.9,4.8-2.4l-12.1-8.6L103,484v29.5l17.8-16.8C120.6,496.5,107,486.9,107,486.9z M145.1,498.4l15.9,15V486L145.1,498.4
	z"/>
<path fill="#FFFFFF" d="M229.3,484.9c0,0-12.9-0.8-17.4,4.6c5-11.5,17.4-14,17.4-14v-4.8l12.4,9.5l-12.4,9.5V484.9z M182.2,520h59.6
	L212,492.7C211.9,492.8,182.2,520,182.2,520z M186.3,487l25.6-17.7l7.6,5.3c1.8-1.1,3.4-1.9,4.9-2.4l-12.5-8.6L182,484.2v29.5
	l18.2-16.8C200.3,496.8,186.3,487,186.3,487z M225.5,498.5l16.3,15v-27.4C241.7,486.2,225.5,498.5,225.5,498.5z"/>
<path fill="#36DFDE" d="M287.9,422.5l-29.7-24.1h59.5L287.9,422.5z M274.4,418L258,404.7v31L274.4,418z M301.3,418l16.3,17.8v-31.1
	C317.6,404.7,301.3,418,301.3,418z M297.4,421l-9.6,7.8l-9.6-7.8L258.1,443h59.5L297.4,421z"/>
<path fill="#36DFDE" d="M289.5,499.8l-29.7-24.1h59.5L289.5,499.8z M276.1,495.2L259.8,482v31C259.8,513.2,276.1,495.2,276.1,495.2z
	 M303,495.2l16.3,17.8v-31C319.4,482.2,303,495.2,303,495.2z M299.2,498.4l-9.6,7.8l-9.6-7.8l-20,22h59.5L299.2,498.4z"/>
<path fill="#36DFDE" d="M130.9,422.9l-29.7-24.1h59.5L130.9,422.9z M117.4,418.4l-16.3-13.3v31C101.1,436.2,117.4,418.4,117.4,418.4
	z M144.3,418.4l16.3,17.8v-31C160.6,405,144.3,418.4,144.3,418.4z M140.4,421.5l-9.6,7.8l-9.6-7.8l-20.1,21.9h59.5L140.4,421.5z"/>
<path fill="#FFC26A" d="M635.7,429.4V512v0.3v1c0,0.3,0,0.7,0,1c0,0.7,0,1-0.3,1.7c0,0.3,0,0.7,0,1c-1,5.9-0.7,10.2-5.9,11.2
	c-2,1-4.6,1.7-6.9,1.7h-56.2H566c-5,0.7-9.9-1-13.6-4.6l-60.8-60.8c-6.6-6.6-8.6-13.6-2-19.8c6.6-6.6,16.9-6.6,23.5,0l29.4,24.8
	v-89.6c0-9.3,1.7-16.5,10.6-16.5c4.3,0,6.3,1.7,7.6,4c3-3,4.3-7.3,4.3-12.2c0-6.6-2.3-12.2-7.6-14.5v-6.9
	c8.9,2.6,13.9,11.2,13.9,21.5c0,7.9-3.3,15.2-8.9,19.2c0,1.7,0,3.6,0,5.6v43.6h6.6v-13.9c0-4.6,0.3-8.9,2-11.9
	c-1.7,0.7-3,1.7-4.6,2.3v-7.5c13.6-6.3,23.1-19.8,23.1-36s-9.6-29.7-23.1-36v-7.3c17.5,6.6,29.7,23.5,29.7,43.3
	c0,14.9-6.9,28.1-17.8,36.4c0.3,0,1,0,1.3,0c9.3,0,9.6,7.3,9.6,16.5v13.9h6.6v2.6c0-9.3,0.7-23.1,9.9-23.1c8.3,0,6.9,11.6,6.9,20.5
	l0,0v2.6c0-0.7,0-1.7,0-2.6c0.3,0,5.6,0,6.6,0c0.3,0,0.3,1,0.3,1.7s0,1,0,1.7c0,0,0-0.7,0-1.7c0.3-5.9,1-12.6,6.6-12.6
	c6.3,0,8.6,7.9,9.9,14.5C636.1,429,635.7,427.4,635.7,429.4z M528.3,355c0-10.2,5-18.8,13.9-21.5v6.9c-5.3,2.3-7.6,8.3-7.6,14.5
	c0,6.3,2.3,12.2,7.6,14.5v6.9C533.3,373.5,528.3,365.2,528.3,355z M510.1,356.7c0,15.9,9.6,29.7,23.1,36v7.3
	c-17.5-6.6-29.7-23.5-29.7-43.3s12.2-36.7,29.7-43.3v7.3C519.7,327,510.1,340.8,510.1,356.7z"/>
</svg>
