<?xml version="1.0" encoding="utf-8"?>
<!-- Generator: Adobe Illustrator 18.0.0, SVG Export Plug-In . SVG Version: 6.00 Build 0)  -->
<!DOCTYPE svg PUBLIC "-//W3C//DTD SVG 1.1//EN" "http://www.w3.org/Graphics/SVG/1.1/DTD/svg11.dtd">
<svg version="1.1" id="Calque_1" xmlns="http://www.w3.org/2000/svg" xmlns:xlink="http://www.w3.org/1999/xlink" x="0px" y="0px"
	 viewBox="-10.1 84.6 769 330.9" enable-background="new -10.1 84.6 769 330.9" xml:space="preserve">
<rect x="-10.1" y="84.6" fill="#36BADF" width="769" height="330.9"/>
<g>
	<path fill="#FFFFFF" d="M1.4,119.9c1.8,0.4,2,2.5,2.8,4.1c-1.5,0-1.6,1.7-3.6,1.1C-0.4,123.2-0.1,121,1.4,119.9z"/>
	<path fill="#FFFFFF" d="M1.9,95.4c0.3,0,0.5,0,0.8,0C2.6,95.9,1.9,96,1.9,95.4z"/>
	<path fill="#FFFFFF" d="M2.2,150.6c0.4-2.3,0.8-1.7,2-3c0.1,2.1,1.9,3,0.4,4.5C3.1,152.5,3.2,150.8,2.2,150.6z"/>
	<path fill="#FFFFFF" d="M4.6,176.1c1.6-0.2,1.1,2.4,2.5,2.5c-0.5,1.1-1.3,1.8-2.4,2C2.6,179.7,2.8,177.1,4.6,176.1z"/>
	<path fill="#FFFFFF" d="M5.4,359.1C5.2,359.3,5.6,358.8,5.4,359.1L5.4,359.1z"/>
	<path fill="#FFFFFF" d="M6.2,212.2c0-2.9-0.5-6.3,2-6c0,2.6,1.8,3.1,2,5.5C9.1,213.1,7.7,213.5,6.2,212.2z"/>
	<path fill="#FFFFFF" d="M8.2,264.3c1.1,0.7,1.3-0.4,2.4,0.5c-0.4,2.2,0,1.7,0.4,3.5c0.5-0.2,0.8-0.6,0.8-1.5
		C15.3,274,3.2,273.7,8.2,264.3z"/>
	<path fill="#FFFFFF" d="M7.9,233.2c1.9-0.5,2.4,1.1,3.6,1.5c-1.1,1.7,0.4,3.2,1.1,4.1C10.4,244.2,5,236.9,7.9,233.2z"/>
	<path fill="#FFFFFF" d="M8.6,309.5c0.1-2.6,0.6-4.5,2.4-5c2,0.2,1.5,3.5,2,5.5C11.6,311.2,9.5,311.2,8.6,309.5z"/>
	<path fill="#FFFFFF" d="M10.2,395.7c-1.6-2.9-2.2-10.6,1.1-10.5C14.3,385.3,16.3,395.9,10.2,395.7z"/>
	<path fill="#FFFFFF" d="M11,354.6c0.3,0.1,0.4,0.5,0.8,0.5c3.2,1.9,3.3,10-0.4,9.5C8.6,364.3,7.9,356.3,11,354.6z"/>
	<path fill="#FFFFFF" d="M9.8,327.6c5.2-1.9,5.6,9.4,2,9.5C8.8,337.1,8.1,331.4,9.8,327.6z"/>
	<path fill="#FFFFFF" d="M11.5,265.8C11.3,266.1,11.7,265.5,11.5,265.8L11.5,265.8z"/>
	<path fill="#FFFFFF" d="M13.1,238.3c-0.5-0.1-0.4-0.9-0.4-1.5C13.1,236.9,13,237.6,13.1,238.3z"/>
	<path fill="#FFFFFF" d="M25.1,188.7c1.3,1.2,0.6,5.2,2.8,5.5c-0.9,2.7-0.5,7-4.4,6C21.8,197.4,21.4,189,25.1,188.7z"/>
	<path fill="#FFFFFF" d="M24.3,97.9c2.8,0.2,3.1,3.5,4.1,6c-0.8-0.2-0.7,0.7-0.8,1.5c-0.9,0-1.9,0-2.8,0
		C23.5,103.7,22.2,99.5,24.3,97.9z"/>
	<path fill="#FFFFFF" d="M27.9,404.2c-1.1,0-2.2,0-3.2,0c-1.2-1.4-0.8-5.5,1.6-6C27.7,399,27.6,402.7,27.9,404.2z"/>
	<path fill="#FFFFFF" d="M25.5,122c0.5,0,1.1,0,1.6,0c1.7,2.3,1.8,6.5,3.2,9c-0.6,1.6-1.8,2.5-4,2C24.8,130.8,23.1,124.5,25.5,122z"
		/>
	<path fill="#FFFFFF" d="M29.9,363.1c2.6,3.4,1.4,14.3-2.4,13.6C23.4,375.8,25.9,363.6,29.9,363.1z M28.3,366.6
		C28.6,366.3,28.1,366.8,28.3,366.6L28.3,366.6z"/>
	<path fill="#FFFFFF" d="M28.3,158.1c0.6,1.5,0.9,3.5,2,4.5C27.7,169.8,22.3,158.9,28.3,158.1z"/>
	<path fill="#FFFFFF" d="M27.9,332.1c0.8,0,1.6,0,2.4,0c0.7,2.3-0.5,4.1,1.1,4.5C30.7,345.2,24.2,336.8,27.9,332.1z"/>
	<path fill="#FFFFFF" d="M27.5,298.4c0.6,0,1.6,0.2,1.6-0.5c1.8,1.8,0.8,3.9,2,6.5C28.1,308.7,25.1,302.1,27.5,298.4z"/>
	<path fill="#FFFFFF" d="M27.5,327C27.4,327.2,27.8,326.7,27.5,327L27.5,327z"/>
	<path fill="#FFFFFF" d="M27.5,235.8c1.1-0.6,2-0.6,3.2,0c0,1.8-0.4,4.1,0.8,4.5C30,245.7,25.3,240.9,27.5,235.8z"/>
	<path fill="#FFFFFF" d="M31.1,267.4c-0.4,2.6,0.4,4.1,1.6,5C30,283.6,23.4,265.1,31.1,267.4z"/>
	<path fill="#FFFFFF" d="M29.9,127.5c0.7,0.1,0.9,0.9,0.8,2C30,129.4,29.8,128.7,29.9,127.5z"/>
	<path fill="#FFFFFF" d="M31.5,203.1c-0.5-0.1-0.4-1.1,0-1.1C32.1,202.4,31.5,202.6,31.5,203.1z"/>
	<path fill="#FFFFFF" d="M32.3,270.8c-0.1-0.1-0.7-1.1-0.4-1.5C32.2,269,33,271.4,32.3,270.8z"/>
	<path fill="#FFFFFF" d="M45.2,181.2c3.5,1.4,1.4,8.5-2,6.5C41.9,184.9,43.5,181.9,45.2,181.2z M46,185.1
		C46.1,184.8,45.8,185.3,46,185.1L46,185.1z M46,184.1C46.1,183.8,45.8,184.4,46,184.1L46,184.1z"/>
	<path fill="#FFFFFF" d="M43.1,128.5c1.1-0.1,1.7-1,2.8-1.1c2.2,1.8,1.9,6.7-0.4,8C42.2,135.6,42.9,132,43.1,128.5z"/>
	<path fill="#FFFFFF" d="M47.2,97.9c3.6,2.4,0.4,11.4-3.2,7.5C44.6,102.3,44.3,98.1,47.2,97.9z"/>
	<path fill="#FFFFFF" d="M44.4,161.6c0-2.4-0.2-4.9,0.4-6.5c1.7,0.1,1.6-0.6,2.8,0C49.7,157.8,47.6,163.9,44.4,161.6z"/>
	<path fill="#FFFFFF" d="M46.8,213.2c3.8,0.6,2.4,9.2-1.6,6.5C44.3,215.9,46,215.9,46.8,213.2z"/>
	<path fill="#FFFFFF" d="M47.9,302.9c0.9-0.1,0.9-1.3,0-1.5c0.1-0.4,0.4-0.6,0.8-0.5c0.3,0.7,0.5,0,0,0c-0.7-1,0.2-0.9,0-2.5
		c0.5,0,1.1,0,1.6,0c1.1,2.6,1.1,6.2-1.1,7.1c-0.4-1.1-2-0.4-2-2C47.5,303.4,47.9,303.5,47.9,302.9z M49.6,302c0.1,0.4,0,1,0.4,1.1
		C49.9,302.6,49.9,302,49.6,302z"/>
	<path fill="#FFFFFF" d="M47.6,302C47.1,302,47.3,301.2,47.6,302L47.6,302z"/>
	<path fill="#FFFFFF" d="M50,241.3c0,0.6-0.5,0.7-0.4,1.5c-1.9,0.3-2.2-1.2-2.4-3c1.9,1.6,0.4-1.6,2-1.5
		C49.1,239.6,49,241.3,50,241.3z"/>
	<path fill="#FFFFFF" d="M47.6,328.5c-0.3-1.8,0.6-1.9,0.4-3.5c2.8,0.4,0.3-0.9,1.1-2c1.3,0.6,1.9,2.4,1.6,5
		C49.2,327.6,49.1,328.9,47.6,328.5z M49.6,325.5c0.1,0.4,0,1,0.4,1.1C49.9,326.1,49.9,325.5,49.6,325.5z"/>
	<path fill="#FFFFFF" d="M47.9,302.9c-0.4-0.1-0.5-0.4-0.4-1.1C47.9,302.1,48,302.3,47.9,302.9z"/>
	<path fill="#FFFFFF" d="M49.1,397.7c0-1.2,0.6-1.9,1.6-2c-1.4-1.8,0.9-1.5,0.4-4c2.3-0.1,2.4,2.4,2.4,5
		C51.6,398.3,51.1,398.7,49.1,397.7z"/>
	<path fill="#FFFFFF" d="M49.1,375.1c-0.2-1.7,0.3-2.4,0.4-3.5c1.2,0.1,0.6,0.8,2.4,1.1c-0.6-0.8-1.4-1.2-1.1-3c1.9,0.7,1.9,3,2,5
		c-1.1-0.4-1.4,0.2-1.1,1.5C50.6,376,49.9,375.6,49.1,375.1z"/>
	<path fill="#FFFFFF" d="M51.2,279.9c0,0.5,0,1.1,0,1.5c0.3-0.1,0.4-0.5,0.8-0.5C52.1,280.1,51.6,280,51.2,279.9
		c0.3-0.6,0.9-1,1.6-1.1c-0.1,2.8,0,4.1-2,5c-0.7-0.1-1.3-0.3-1.6-1.1c0.4-1.1,0.8-2,1.1-3C50.6,279.9,50.9,279.9,51.2,279.9z"/>
	<path fill="#FFFFFF" d="M51.5,349.1c2.6,1.8,1.9,5.1,0.4,7.5C48.6,356,50.4,350.9,51.5,349.1z"/>
	<path fill="#FFFFFF" d="M50,241.3c0-0.6,0.1-1.1,0.8-1.1c0,0.4,0,0.6,0,1.1C50.5,241.3,50.3,241.3,50,241.3z"/>
	<path fill="#FFFFFF" d="M50.8,278.9C49.1,278.3,52.3,278.3,50.8,278.9L50.8,278.9z"/>
	<path fill="#FFFFFF" d="M50.8,239.3C50.6,239.5,51,239,50.8,239.3L50.8,239.3z"/>
	<path fill="#FFFFFF" d="M51.5,260.3c0.1,0,0.3,0,0.4,0C51.9,259.8,51.5,260.1,51.5,260.3c-0.3,0-0.5,0-0.8,0
		c-0.2-2.5,1.1-0.3,1.1-2.5c0.6,0,0.9,3.7-0.4,3C51.5,260.7,51.5,260.5,51.5,260.3z"/>
	<path fill="#FFFFFF" d="M60.8,122.5c1.2-0.7,1.4,0.2,3.2,0C68.3,131.3,55.9,132.4,60.8,122.5z M62,125.5
		C62.3,125.1,61.9,125.7,62,125.5L62,125.5z M62.8,123.5c-0.4,0-0.5,0.9,0,1.1C62.8,123.9,63.4,123.7,62.8,123.5z"/>
	<path fill="#FFFFFF" d="M60.8,98.4c2.3,0.4,1.5,1.9,3.6,0.5c0.8,2.6-0.2,4.3-1.1,6C59.2,105.6,59.2,101.1,60.8,98.4z M63.3,100.9
		C63.4,100.6,63.1,101.1,63.3,100.9L63.3,100.9z"/>
	<path fill="#FFFFFF" d="M62,178.6c4.2-2.9,7.4,8.1,2.8,10.5C61.9,188.2,61.7,182.1,62,178.6z"/>
	<path fill="#FFFFFF" d="M65.2,154.1c-0.4,0-0.8,0-1.1,0c0,1.4,1,1.4,2,1.5c-0.6,1.7-1.4,2.9-3.2,3c-0.9-0.9-1.3-2.4-1.1-4.5
		C62.8,154.4,65.3,152.1,65.2,154.1z M64.4,156C64.7,155.8,64.2,156.2,64.4,156L64.4,156z"/>
	<path fill="#FFFFFF" d="M68.8,239.3c1.1,1.9,1.9,4,1.6,7.5C65.8,254.6,61.1,236,68.8,239.3z"/>
	<path fill="#FFFFFF" d="M66.1,209.7c4.9,0,5.1,9.8,1.6,9.5C65.1,219,62.7,212.3,66.1,209.7z"/>
	<path fill="#FFFFFF" d="M65.2,154.1C65.7,154,65.5,154.8,65.2,154.1L65.2,154.1z"/>
	<path fill="#FFFFFF" d="M72,286.4c-1.7,0.8-2.9,1.9-4.4,0.5c-1.4-4.3-1.8-11.3,2-10.5C71.9,276.8,73,282.4,72,286.4z"/>
	<path fill="#FFFFFF" d="M70.1,360.6c4.4,0.6,4.1,11.5-0.4,11.6c-0.1-1.1-1.1-1.1-1.6-1.5c0.3-4.5-1.9-7.8,0.4-10.5
		C69.4,359.4,69.4,362.4,70.1,360.6z"/>
	<path fill="#FFFFFF" d="M72.9,340.5c0-0.2,0-0.4,0-0.5C72.4,340.2,72.6,340.5,72.9,340.5c0,0.6,0,1.3,0,2c-4.1,4-6.4-6.8-1.1-6.5
		c1.1,0.7,1.4,2.6,1.6,4.5C73.1,340.5,73,340.5,72.9,340.5z M71.2,337.5C71.5,337.2,71.1,337.7,71.2,337.5L71.2,337.5z M71.6,340.5
		c0.1,0.4,0,1,0.4,1.1C71.9,341.1,72,340.5,71.6,340.5z"/>
	<path fill="#FFFFFF" d="M72.4,315.5c0-0.2,0-0.4,0-0.5C72,315.1,72.3,315.5,72.4,315.5c-2.8,4.6-5.5-4.9-3.2-8.6
		C72.4,305.6,75.8,313.4,72.4,315.5z M71.6,309.5c-0.4,0-0.5,0.9,0,1.1C71.6,309.9,72.3,309.7,71.6,309.5z"/>
	<path fill="#FFFFFF" d="M70.1,360.6C68.8,360.5,70.4,358.5,70.1,360.6L70.1,360.6z"/>
	<path fill="#FFFFFF" d="M70.9,389.7c1.7,0.7,3.3-1.5,4,4C73.2,398.6,68.2,394.1,70.9,389.7z M73.2,391.7
		C73.5,391.4,73.1,391.9,73.2,391.7L73.2,391.7z"/>
	<path fill="#FFFFFF" d="M73.2,328C73.1,328.3,73.5,327.7,73.2,328L73.2,328z"/>
	<path fill="#FFFFFF" d="M88.1,104.9c0.1,0.4,0.4,0.6,0.8,0.5c-1.1,2-4.2,2.7-5.6,0.5c0.6-2.3-0.1-3.2,0-6c1.3-0.9,1.8,0.6,3.2,1.1
		C86.9,102.4,86.8,104.6,88.1,104.9z"/>
	<path fill="#FFFFFF" d="M85.3,121.4c2.2,0.3,1.9,3.5,2.4,6c0.5,1.2,1.2-0.9,1.6,0.5c-0.2,1.8-1.1,0.6-0.4,2.5
		C84.2,135.6,83.1,125.9,85.3,121.4z"/>
	<path fill="#FFFFFF" d="M85.3,153c1.8-0.6,2,0,3.2,1.1c-0.2,1.9-0.2,2.8-0.8,5C84.7,158.6,85.3,155.1,85.3,153z"/>
	<path fill="#FFFFFF" d="M86.9,185.7c1.1-0.2,1.1-1.7,2.8-1.1c1.1,2,0,3.8,1.6,5C89.4,194.9,85.7,190.1,86.9,185.7z"/>
	<path fill="#FFFFFF" d="M88.5,125.9C88.4,126.2,88.8,125.7,88.5,125.9L88.5,125.9z"/>
	<path fill="#FFFFFF" d="M88.1,104.9C87.7,102.6,90,105.5,88.1,104.9L88.1,104.9z"/>
	<path fill="#FFFFFF" d="M90.2,381.2c6.2-2.4,5.7,10.1,1.6,10.1C88.4,391.1,88.9,384.7,90.2,381.2z"/>
	<path fill="#FFFFFF" d="M90.5,358.1c1.7,0.1,1.9-0.8,3.2,0c0.4,1.9,0.5,4,0.4,6.5c-1.3-0.8-1.4,1.8-2.8,1.5
		C88.6,365.6,88.8,360.9,90.5,358.1z M90.5,362.6C90.8,362.3,90.4,362.9,90.5,362.6L90.5,362.6z"/>
	<path fill="#FFFFFF" d="M90.2,329.1c5.9-3,5.6,8.7,1.6,8.6C88.5,337.4,89.5,332.8,90.2,329.1z"/>
	<path fill="#FFFFFF" d="M89.7,157.1C89.6,157.3,90,156.7,89.7,157.1L89.7,157.1z"/>
	<path fill="#FFFFFF" d="M95.7,312c-1.8-0.9-2,1.5-2.4,1.5c-3.3-0.1-3.3-8.1,0-8.6C95.6,304.7,96.7,307.1,95.7,312z M93.7,310
		C94,309.6,93.5,310.2,93.7,310L93.7,310z"/>
	<path fill="#FFFFFF" d="M95.4,224.2c0,1.2,0.2,2.4,0.8,3c-3.1,6.6-7-5.3-2.8-6.5C94.6,221.2,94.3,223.5,95.4,224.2z"/>
	<path fill="#FFFFFF" d="M93.7,253.8c2,0.4,2.5,2.9,4.1,4.1c0,1.8-0.6,2.9-0.8,4.5c-1.1,0-1.4,1.2-3.6,1.1
		C91.5,261.6,92.1,255.6,93.7,253.8z"/>
	<path fill="#FFFFFF" d="M93.7,278.4c2.6,1.3,4.5,3.7,4.1,9c-1.3,0.3-1.8,1.8-3.6,1.5c-0.2-0.6-0.5-1.1-1.1-1.1
		C92.8,284.2,92.5,281.3,93.7,278.4z M94.5,283.9C96.1,283.3,92.9,283.3,94.5,283.9L94.5,283.9z"/>
	<path fill="#FFFFFF" d="M95.4,224.2c0-0.5,0-1.1,0-1.5c0.5,0.4,0.7,1.1,0.8,2C95.7,224.8,95.6,224.3,95.4,224.2z"/>
	<path fill="#FFFFFF" d="M96.5,226.3C96.4,226.4,96.8,225.9,96.5,226.3L96.5,226.3z"/>
	<path fill="#FFFFFF" d="M106.6,182.1c-0.5-0.1-0.4-1.1,0-1.1C107.1,181.4,106.5,181.5,106.6,182.1z"/>
	<path fill="#FFFFFF" d="M110.2,244.4c3,0.4,2.7,3.4,3.6,5.5C110.9,257.9,105.1,248.5,110.2,244.4z"/>
	<path fill="#FFFFFF" d="M112.2,210.2c4.1,1,3.9,7.1,0.8,9.5C107,220.7,110,211.8,112.2,210.2z"/>
	<path fill="#FFFFFF" d="M112.6,380.7c0.8-0.2,1.3,3.6,1.6,1.1c0.6,0.8,1.1,1.6,1.6,2.5c-0.4,2.5-1.1,4.5-2.8,5.5
		C109.4,389,110.6,382.4,112.6,380.7z M114.6,385.7c-0.2-0.7,0.5-2.6-0.4-2.5C114.4,384.7,113.3,385.2,114.6,385.7z"/>
	<path fill="#FFFFFF" d="M112.6,330.6c1.2-0.3,1.4,0.9,2.8,0.5c0.5,1.4,0.4,3.5,0.4,5.5C111.8,341.6,108.9,334.1,112.6,330.6z"/>
	<path fill="#FFFFFF" d="M116.6,278.4c0,0.9-0.1,1.6-0.4,2c-1.1-0.4-0.8,1.1-1.6,1.1c-2.1-0.9-2.9-3.4-3.2-6.5
		c1.1-1.9,3.3-0.4,4.8,0C115.9,275.9,115.2,278.1,116.6,278.4z"/>
	<path fill="#FFFFFF" d="M115.1,175.1c3,1.8,1.7,10.1-2,8c-2.5-1.9-2.4-8.1,0.4-8.6C114.5,174.5,114.4,177.1,115.1,175.1z
		 M115.1,177.1c0,0.6-0.1,1.4,0.4,1.5C115.3,178.1,115.5,177.2,115.1,177.1z"/>
	<path fill="#FFFFFF" d="M112.2,142c3.2-1.1,7.3,5.3,3.6,9.5c-1.4,0.2-2.6-0.1-3.6-0.5C111.5,147.7,110.9,145,112.2,142z"/>
	<path fill="#FFFFFF" d="M114.6,357.6c0.8,2-1,4.2,1.6,4.1c-0.3,1.4-1,2.5-1.6,3.5C110.7,365.5,111.1,357.4,114.6,357.6z"/>
	<path fill="#FFFFFF" d="M112.2,404.2c-0.4-2.4,0.7-3.1,2-3.5c0.5,2.5,2.6-0.2,2.4,3c-0.7,0.2-1.8-1.6-1.7,0.5
		C114.1,404.2,113.1,404.2,112.2,404.2z"/>
	<path fill="#FFFFFF" d="M115.9,303.9c1.1,0.9,0.7,3.7,1.6,5c-0.5,0.5-1.5,0.5-1.6,1.5C112.3,310.5,112.5,304.2,115.9,303.9z"/>
	<path fill="#FFFFFF" d="M116.2,280.4C116.7,280.4,116.5,281.1,116.2,280.4L116.2,280.4z"/>
	<path fill="#FFFFFF" d="M117,404.2c-0.1,0-0.3,0-0.4,0c0-0.2,0-0.4,0-0.5C116.9,403.7,117.1,403.8,117,404.2z"/>
	<path fill="#FFFFFF" d="M116.6,278.4C116.6,277.8,117.2,278.1,116.6,278.4L116.6,278.4z"/>
	<path fill="#FFFFFF" d="M117,276.4C116.8,276.6,117.3,276,117,276.4L117,276.4z"/>
	<path fill="#FFFFFF" d="M117.4,305C117.3,305.1,117.7,304.6,117.4,305L117.4,305z"/>
	<path fill="#FFFFFF" d="M117.4,279.9C117.3,280.1,117.7,279.6,117.4,279.9L117.4,279.9z"/>
	<path fill="#FFFFFF" d="M117.8,307.4c-0.4,0-0.3-0.6-0.4-1.1C117.8,306.5,117.7,307.1,117.8,307.4z"/>
	<path fill="#FFFFFF" d="M135.1,181.6c0-0.8-0.4-1.3-0.8-1.5C134.3,181,134.6,181.4,135.1,181.6c0,0.4,0,0.6,0,1.1
		c-3,1.9-4-2.1-4.4-5c1.7-3.7,6.3-2.6,6,3C135.9,180.6,136.1,182,135.1,181.6z M135.9,180.1c-0.2-1-0.1-2.1-1.1-2
		C134.6,179.4,135.4,179.7,135.9,180.1z"/>
	<path fill="#FFFFFF" d="M135.5,119.5c-0.5,0.1-0.4,0.9-0.4,1.5C135.5,120.9,135.4,120,135.5,119.5c3,2.6,2,10.9-2.4,9
		c-1.4-4.1-2.6-8.4-1.1-12.5C133.8,116.2,134.2,118.4,135.5,119.5z M135.9,122.5C136.1,122.1,135.7,122.7,135.9,122.5L135.9,122.5z"
		/>
</g>
<path fill="#FFFFFF" d="M327.8,187.8c2.7,0,4.8-2.2,4.8-4.8s-2.2-4.8-4.8-4.8c-2.7,0-4.8,2.2-4.8,4.8
	C323,185.6,325.2,187.8,327.8,187.8"/>
<path fill="#FFFFFF" d="M512.5,153H310.3c-2,0-3.7,1.7-3.7,3.8v202.2c0,2.1,1.7,3.8,3.7,3.8h202.2c2.1,0,3.8-1.7,3.8-3.8V156.7
	C516.2,154.7,514.5,153,512.5,153 M508.7,203.5H314v-43h194.7L508.7,203.5L508.7,203.5z M314,211h194.7v144.1H314V211z"/>
<path fill="#FFFFFF" d="M366,188c2.7,0,4.9-2.2,4.9-5c0-2.7-2.2-5-4.9-5c-2.7,0-5,2.2-5,5C361.1,185.7,363.3,188,366,188"/>
<path fill="#FFFFFF" d="M346.9,188c2.7,0,4.9-2.2,4.9-5c0-2.7-2.2-5-4.9-5c-2.7,0-5,2.2-5,5C341.9,185.7,344.1,188,346.9,188"/>
<g>
	<g>
		<path fill="#FFFFFF" d="M509.1,398.3c-0.1,0.1-0.3,0.1-0.5,0.1l-13.4-2.1l-6.2,12.1c-0.2,0.3-0.5,0.5-0.8,0.4
			c-0.3-0.1-0.6-0.3-0.7-0.7l-2.1-13.4l-13.4-2.1c-0.3-0.1-0.6-0.3-0.7-0.7c-0.1-0.3,0.1-0.7,0.4-0.8l12.1-6.2l-2.1-13.4
			c-0.1-0.3,0.1-0.7,0.4-0.8l0,0c0.3-0.2,0.7-0.1,0.9,0.1l9.6,9.6l12.1-6.2c0.3-0.2,0.7-0.1,0.9,0.1c0.2,0.2,0.3,0.6,0.1,0.9
			l-6.2,12.1l9.6,9.6c0.2,0.2,0.3,0.6,0.1,0.9C509.3,398.1,509.2,398.2,509.1,398.3L509.1,398.3z M474.6,391.4l11.6,1.8
			c0.3,0.1,0.6,0.3,0.7,0.7l1.8,11.6L494,395c0.2-0.3,0.5-0.5,0.8-0.4l11.6,1.8l-8.3-8.3c-0.2-0.2-0.3-0.6-0.1-0.9l5.3-10.4
			l-10.4,5.3c-0.3,0.2-0.7,0.1-0.9-0.1l-8.3-8.3l1.8,11.6c0.1,0.3-0.1,0.7-0.4,0.8L474.6,391.4L474.6,391.4z"/>
	</g>
</g>
<g>
	<g>
		<path fill="#36DFDE" d="M564.8,378.9c-0.2,0-0.3-0.1-0.4-0.2l-9.6-9.3l-11.8,6.3c-0.3,0.2-0.7,0.1-0.9-0.1
			c-0.2-0.2-0.3-0.6-0.2-0.9l5.8-12l-9.6-9.3c-0.2-0.2-0.3-0.6-0.2-0.9c0.1-0.3,0.5-0.5,0.8-0.4l13.2,1.9l5.8-12
			c0.1-0.3,0.5-0.5,0.8-0.4l0,0c0.3,0,0.6,0.3,0.7,0.6l2.3,13.1l13.2,1.9c0.3,0,0.6,0.3,0.7,0.6s-0.1,0.7-0.4,0.8l-11.8,6.3
			l2.3,13.1c0.1,0.3-0.1,0.7-0.4,0.8C565.1,378.9,565,378.9,564.8,378.9L564.8,378.9z M541,354l8.3,8c0.2,0.2,0.3,0.6,0.2,0.9
			l-5,10.3l10.2-5.4c0.3-0.2,0.7-0.1,0.9,0.1l8.3,8l-2-11.3c-0.1-0.3,0.1-0.7,0.4-0.8l10.2-5.4l-11.4-1.6c-0.3,0-0.6-0.3-0.7-0.6
			l-2-11.3l-5,10.3c-0.1,0.3-0.5,0.5-0.8,0.4L541,354L541,354z"/>
	</g>
</g>
<g>
	<g>
		<path fill="#FD8A39" d="M584.9,325.3c-0.3,0-0.5,0-0.8-0.2l-19.1-12l-17.3,14.4c-0.4,0.4-1.1,0.4-1.6,0.1
			c-0.5-0.3-0.7-0.9-0.6-1.4l5.5-21.9l-19.1-12c-0.5-0.3-0.7-0.9-0.6-1.4c0.1-0.6,0.6-1,1.2-1l22.5-1.5l5.5-21.9
			c0.1-0.6,0.6-1,1.2-1l0,0c0.6,0,1.1,0.3,1.3,0.8l8.4,20.9l22.5-1.5c0.6,0,1.1,0.3,1.3,0.8c0.2,0.5,0.1,1.1-0.4,1.5l-17.3,14.4
			l8.4,20.9c0.2,0.5,0.1,1.1-0.4,1.5C585.4,325.2,585.2,325.3,584.9,325.3L584.9,325.3z M536.8,292.2l16.5,10.4
			c0.5,0.3,0.7,0.9,0.6,1.4l-4.8,18.8l14.9-12.4c0.4-0.4,1.1-0.4,1.6-0.1l16.5,10.4l-7.2-18c-0.2-0.5-0.1-1.1,0.4-1.5l14.9-12.5
			l-19.4,1.3c-0.6,0-1.1-0.3-1.3-0.8l-7.2-18l-4.8,18.8c-0.1,0.6-0.6,1-1.2,1L536.8,292.2L536.8,292.2z"/>
	</g>
</g>
<g>
	<g>
		<path fill="#FD953A" d="M226.1,141.1c-0.2,0.1-0.4,0.1-0.6,0.1l-17.4-2.8l-8,15.7c-0.2,0.4-0.6,0.6-1.1,0.6
			c-0.4-0.1-0.8-0.4-0.9-0.9l-2.7-17.4l-17.4-2.8c-0.4-0.1-0.8-0.4-0.9-0.9c-0.1-0.4,0.2-0.9,0.6-1.1l15.7-8l-2.7-17.4
			c-0.1-0.4,0.2-0.9,0.6-1.1l0,0c0.4-0.2,0.9-0.1,1.2,0.2l12.4,12.4l15.7-8c0.4-0.2,0.9-0.1,1.2,0.2c0.3,0.3,0.4,0.8,0.2,1.2
			l-8,15.7l12.4,12.4c0.3,0.3,0.4,0.8,0.2,1.2C226.4,140.9,226.3,141,226.1,141.1L226.1,141.1z M181.5,132.2l15,2.4
			c0.4,0.1,0.8,0.4,0.9,0.9l2.4,15l6.9-13.5c0.2-0.4,0.6-0.6,1.1-0.6l15,2.4L211.9,128c-0.3-0.3-0.4-0.8-0.2-1.2l6.9-13.5l-13.5,6.9
			c-0.4,0.2-0.9,0.1-1.2-0.2l-10.7-10.7l2.4,15c0.1,0.4-0.2,0.9-0.6,1.1L181.5,132.2L181.5,132.2z"/>
	</g>
</g>
<g>
	<g>
		<path fill="#FFFFFF" d="M398.3,136c-0.2,0-0.3-0.1-0.4-0.2l-9.6-9.3l-11.8,6.3c-0.3,0.2-0.7,0.1-0.9-0.1c-0.2-0.2-0.3-0.6-0.2-0.9
			l5.8-12l-9.6-9.3c-0.2-0.2-0.3-0.6-0.2-0.9c0.1-0.3,0.5-0.5,0.8-0.4l13.2,1.9l5.8-12c0.1-0.3,0.5-0.5,0.8-0.4l0,0
			c0.3,0,0.6,0.3,0.7,0.6l2.3,13.1l13.2,1.9c0.3,0,0.6,0.3,0.7,0.6c0.1,0.3-0.1,0.7-0.4,0.8l-11.8,6.3l2.3,13.1
			c0.1,0.3-0.1,0.7-0.4,0.8C398.7,136,398.5,136,398.3,136L398.3,136z M374.5,111l8.3,8c0.2,0.2,0.3,0.6,0.2,0.9l-5,10.3l10.2-5.4
			c0.3-0.2,0.7-0.1,0.9,0.1l8.3,8l-2-11.3c-0.1-0.3,0.1-0.7,0.4-0.8l10.2-5.4l-11.4-1.6c-0.3,0-0.6-0.3-0.7-0.6l-2-11.3l-5,10.3
			c-0.1,0.3-0.5,0.5-0.8,0.4L374.5,111L374.5,111z"/>
	</g>
</g>
<g>
	<g>
		<path fill="#36DFDE" d="M305.8,150.6c-0.3,0-0.5,0-0.8-0.2l-19.1-12l-17.3,14.4c-0.4,0.4-1.1,0.4-1.6,0.1
			c-0.5-0.3-0.7-0.9-0.6-1.4l5.5-21.9l-19.1-12c-0.5-0.3-0.7-0.9-0.6-1.4c0.1-0.6,0.6-1,1.2-1l22.5-1.5l5.5-21.9
			c0.1-0.6,0.6-1,1.2-1l0,0c0.6,0,1.1,0.3,1.3,0.8l8.4,20.9l22.5-1.5c0.6,0,1.1,0.3,1.3,0.8c0.2,0.5,0.1,1.1-0.4,1.5l-17.3,14.4
			l8.4,20.9c0.2,0.5,0.1,1.1-0.4,1.5C306.3,150.5,306,150.6,305.8,150.6L305.8,150.6z M257.7,117.5l16.5,10.4
			c0.5,0.3,0.7,0.9,0.6,1.4l-4.8,18.8l14.9-12.4c0.4-0.4,1.1-0.4,1.6-0.1l16.5,10.4l-7.2-18c-0.2-0.5-0.1-1.1,0.4-1.5L311,114
			l-19.4,1.3c-0.6,0-1.1-0.3-1.3-0.8l-7.2-18.1l-4.8,18.8c-0.1,0.6-0.6,1-1.2,1L257.7,117.5L257.7,117.5z"/>
	</g>
</g>
<g>
	<g>
		<path fill="#FD8A39" d="M276.9,213.7c-0.2,0-0.3-0.1-0.4-0.2l-9.6-9.3l-11.8,6.3c-0.3,0.2-0.7,0.1-0.9-0.1
			c-0.2-0.2-0.3-0.6-0.2-0.9l5.8-12l-9.6-9.3c-0.2-0.2-0.3-0.6-0.2-0.9c0.1-0.3,0.5-0.5,0.8-0.4l13.2,1.9l5.8-12
			c0.1-0.3,0.5-0.5,0.8-0.4l0,0c0.3,0,0.6,0.3,0.7,0.6l2.3,13.1l13.2,1.9c0.3,0,0.6,0.3,0.7,0.6c0.1,0.3-0.1,0.7-0.4,0.8l-11.8,6.3
			l2.3,13.1c0.1,0.3-0.1,0.7-0.4,0.8C277.2,213.7,277,213.8,276.9,213.7L276.9,213.7z M253.1,188.8l8.3,8c0.2,0.2,0.3,0.6,0.2,0.9
			l-5,10.3l10.2-5.4c0.3-0.2,0.7-0.1,0.9,0.1l8.3,8l-2-11.3c-0.1-0.3,0.1-0.7,0.4-0.8l10.2-5.4l-11.4-1.6c-0.3,0-0.6-0.3-0.7-0.6
			l-2-11.3l-5,10.3c-0.1,0.3-0.5,0.5-0.8,0.4L253.1,188.8L253.1,188.8z"/>
	</g>
</g>
<path fill="#FFFFFF" d="M410.8,226.7c-30.2,0-54.7,24.5-54.7,54.7s24.5,54.7,54.7,54.7c30.2,0,54.7-24.5,54.7-54.7
	S441,226.7,410.8,226.7z M410.8,235.8c16.8,0,31.5,9.2,39.4,22.8h-78.8C379.3,245,394,235.8,410.8,235.8z M410.8,327
	c-25.1,0-45.6-20.4-45.6-45.6c0-4.8,0.7-9.4,2.1-13.7h8.5c2.8,6.9,8.8,13.7,18.2,13.7c11.3,0,9.8-10.5,16.8-10.5s5.6,10.5,16.8,10.5
	c9.4,0,15.4-6.8,18.2-13.7h8.5c1.4,4.3,2.1,8.9,2.1,13.7C456.4,306.5,435.9,327,410.8,327z M435.9,290.2l2.2,2.2
	c-5.1,7.8-14.6,16.3-27.3,16.3c-12.8,0-22.2-8.4-27.4-16.3l2.2-2.2c6.9,5.4,14.5,8.8,25.1,8.8C421.4,299,429,295.7,435.9,290.2z"/>
</svg>
