<?xml version="1.0" encoding="utf-8"?>
<!-- Generator: Adobe Illustrator 18.0.0, SVG Export Plug-In . SVG Version: 6.00 Build 0)  -->
<!DOCTYPE svg PUBLIC "-//W3C//DTD SVG 1.1//EN" "http://www.w3.org/Graphics/SVG/1.1/DTD/svg11.dtd">
<svg version="1.1" id="Calque_1" xmlns="http://www.w3.org/2000/svg" xmlns:xlink="http://www.w3.org/1999/xlink" x="0px" y="0px"
	 viewBox="-5.1 350.5 750 322.7" enable-background="new -5.1 350.5 750 322.7" xml:space="preserve">
<rect x="-5.1" y="350.5" fill="#36BADF" width="750" height="322.7"/>
<g>
	<path fill="#36DFDE" d="M83,636.1c0.3-1.8,2.4-2,3.9-2.7c0,1.5,1.7,1.6,1.1,3.5C86.2,637.8,84,637.6,83,636.1z"/>
	<path fill="#36DFDE" d="M59.1,635.7c0-0.3,0-0.5,0-0.8C59.5,635.2,59.6,635.7,59.1,635.7z"/>
	<path fill="#36DFDE" d="M112.9,635.2c-2.2-0.4-1.7-0.8-2.9-2c2-0.1,2.9-2,4.4-0.5C114.7,634.3,113.1,634.2,112.9,635.2z"/>
	<path fill="#36DFDE" d="M137.8,632.7c-0.2-1.6,2.3-1.1,2.4-2.4c1.1,0.5,1.8,1.3,2,2.3C141.3,634.7,138.7,634.4,137.8,632.7z"/>
	<path fill="#36DFDE" d="M316.2,630.8C316.4,631.2,315.9,630.7,316.2,630.8L316.2,630.8z"/>
	<path fill="#36DFDE" d="M173,631.1c-2.8,0-6.1,0.6-5.9-2c2.5,0,3-1.8,5.4-2C173.8,628.1,174.1,629.4,173,631.1z"/>
	<path fill="#36DFDE" d="M223.8,628.7c0.7-1.2-0.4-1.3,0.5-2.3c2.1,0.4,1.7,0,3.4-0.5c-0.2-0.5-0.6-0.8-1.5-0.8
		C233.1,621.7,233,633.6,223.8,628.7z"/>
	<path fill="#36DFDE" d="M193.5,629.2c-0.5-1.9,1-2.3,1.5-3.5c1.7,1.1,3.1-0.5,4-1.2C204.1,626.7,197.1,631.8,193.5,629.2z"/>
	<path fill="#36DFDE" d="M267.8,628.1c-2.5-0.1-4.4-0.6-4.9-2.3c0.2-2,3.4-1.5,5.4-2C269.5,625.1,269.5,627.2,267.8,628.1z"/>
	<path fill="#36DFDE" d="M351.8,626.1c-2.8,1.6-10.3,2.2-10.2-1.1C341.7,622.2,352,620.1,351.8,626.1z"/>
	<path fill="#36DFDE" d="M311.9,625.4c0.1-0.3,0.5-0.4,0.5-0.8c1.9-3.1,9.8-3.2,9.3,0.4C321.2,627.7,313.5,628.6,311.9,625.4z"/>
	<path fill="#36DFDE" d="M285.4,626.8c-1.9-5.1,9.2-5.5,9.3-2C294.8,627.7,289.2,628.4,285.4,626.8z"/>
	<path fill="#36DFDE" d="M225.1,625.6C225.4,625.7,225,625.2,225.1,625.6L225.1,625.6z"/>
	<path fill="#36DFDE" d="M198.3,624.1c-0.1,0.5-0.9,0.4-1.5,0.4C197,623.8,197.7,624.2,198.3,624.1z"/>
	<path fill="#36DFDE" d="M150,612.7c1.2-1.3,5.1-0.6,5.4-2.8c2.6,0.9,6.8,0.5,5.9,4.3C158.4,615.7,150.2,616.2,150,612.7z"/>
	<path fill="#36DFDE" d="M61.4,613.8c0.2-2.7,3.4-3,5.9-4c-0.2,0.8,0.7,0.7,1.5,0.8c0,0.9,0,1.9,0,2.7
		C67.1,614.7,63,615.8,61.4,613.8z"/>
	<path fill="#36DFDE" d="M360.1,608.7c0,1.1,0,2.1,0,3.1c-1.4,1.2-5.4,0.8-5.9-1.6C355.1,608.8,358.7,609.1,360.1,608.7z"/>
	<path fill="#36DFDE" d="M84.9,612.6c0-0.5,0-1.1,0-1.6c2.2-1.7,6.3-1.8,8.8-3.1c1.6,0.6,2.4,1.8,2,3.9
		C93.5,613.2,87.3,614.8,84.9,612.6z"/>
	<path fill="#36DFDE" d="M320,607.1c3.2-2.5,13.9-1.5,13.3,2.2C332.4,613.3,320.4,611.1,320,607.1z M323.5,608.6
		C323.2,608.2,323.7,608.7,323.5,608.6L323.5,608.6z"/>
	<path fill="#36DFDE" d="M120,609.7c1.5-0.6,3.4-0.9,4.4-2C131.5,610.2,120.9,615.4,120,609.7z"/>
	<path fill="#36DFDE" d="M289.7,609.2c0-0.8,0-1.6,0-2.3c2.2-0.7,4,0.5,4.4-1.2C302.6,606.3,294.4,612.7,289.7,609.2z"/>
	<path fill="#36DFDE" d="M256.9,609.7c0-0.6,0.2-1.6-0.5-1.6c1.8-1.8,3.8-0.8,6.3-2C266.9,609.1,260.6,612.1,256.9,609.7z"/>
	<path fill="#36DFDE" d="M284.8,609.6C285,609.7,284.4,609.2,284.8,609.6L284.8,609.6z"/>
	<path fill="#36DFDE" d="M195.9,610.1c-0.6-1.1-0.6-2,0-3.1c1.8,0,4,0.3,4.4-0.8C205.4,607.4,200.9,612.2,195.9,610.1z"/>
	<path fill="#36DFDE" d="M226.6,606.3c2.5,0.3,4-0.5,4.9-1.6C242.5,607.3,224.5,613.8,226.6,606.3z"/>
	<path fill="#36DFDE" d="M90.3,608.2c0.1-0.7,0.9-0.9,2-0.8C92,608.2,91.3,608.3,90.3,608.2z"/>
	<path fill="#36DFDE" d="M164,606.3c-0.1,0.5-1.1,0.4-1.1,0C163.3,605.7,163.5,606.3,164,606.3z"/>
	<path fill="#36DFDE" d="M230,605.2c-0.1,0.1-1.1,0.7-1.5,0.4C228.2,605.2,230.5,604.4,230,605.2z"/>
	<path fill="#36DFDE" d="M142.4,593.1c1.4-3.4,8.3-1.5,6.3,2C146.1,596.2,143.2,594.7,142.4,593.1z M146.3,592.2
		C146.1,592.1,146.5,592.4,146.3,592.2L146.3,592.2z M145.4,592.2C145.1,592.1,145.6,592.4,145.4,592.2L145.4,592.2z"/>
	<path fill="#36DFDE" d="M91.1,595.3c-0.1-1.1-1-1.7-1.1-2.7c1.8-2.1,6.5-2,7.8,0.4C98,596.2,94.6,595.7,91.1,595.3z"/>
	<path fill="#36DFDE" d="M61.2,591.7c2.3-3.5,11.1-0.5,7.3,3C65.6,594.2,61.5,594.4,61.2,591.7z"/>
	<path fill="#36DFDE" d="M123.4,593.8c-2.3,0-4.8,0.2-6.3-0.4c0.1-1.7-0.6-1.6,0-2.7C119.6,588.8,125.6,590.7,123.4,593.8z"/>
	<path fill="#36DFDE" d="M173.8,591.4c0.6-3.7,9-2.3,6.3,1.6C176.4,593.7,176.3,592.1,173.8,591.4z"/>
	<path fill="#36DFDE" d="M261.2,589.7c-0.1-0.9-1.3-0.9-1.5,0c-0.4-0.1-0.6-0.3-0.5-0.8c0.7-0.3,0-0.5,0,0c-1,0.7-0.9-0.2-2.4,0
		c0-0.5,0-1.1,0-1.6c2.5-1.1,6-1.2,6.9,1.1c-1.1,0.4-0.4,2-2,2C261.6,590.2,261.7,589.7,261.2,589.7z M260.3,588.2
		c0.4-0.1,1,0,1.1-0.4C260.8,587.8,260.3,587.7,260.3,588.2z"/>
	<path fill="#36DFDE" d="M260.3,590.2C260.3,590.6,259.5,590.4,260.3,590.2L260.3,590.2z"/>
	<path fill="#36DFDE" d="M201.1,587.8c0.6,0,0.7,0.5,1.5,0.4c0.3,1.9-1.2,2.1-2.9,2.3c1.6-1.9-1.6-0.3-1.5-2
		C199.4,588.8,201.1,589.1,201.1,587.8z"/>
	<path fill="#36DFDE" d="M286.2,589.8c-1.8,0.3-1.9-0.6-3.4-0.4c0.3-2.7-0.9-0.3-2-1.1c0.6-1.3,2.3-1.9,4.9-1.6
		C285.3,588.3,286.5,588.4,286.2,589.8z M283.3,587.8c0.4-0.1,1,0,1.1-0.4C283.9,587.7,283.3,587.7,283.3,587.8z"/>
	<path fill="#36DFDE" d="M261.2,589.7c-0.1,0.4-0.4,0.5-1.1,0.4C260.4,589.7,260.6,589.7,261.2,589.7z"/>
	<path fill="#36DFDE" d="M353.7,588.1c-1.2,0-1.9-0.6-2-1.6c-1.8,1.4-1.5-0.9-3.9-0.4c-0.1-2.2,2.3-2.3,4.9-2.3
		C354.3,585.7,354.6,586.2,353.7,588.1z"/>
	<path fill="#36DFDE" d="M331.7,588.2c-1.7,0.2-2.3-0.3-3.4-0.4c0.1-1.2,0.8-0.6,1-2.3c-0.8,0.6-1.2,1.4-2.9,1.2
		c0.7-1.9,2.9-1.9,4.9-2c-0.3,1.1,0.2,1.4,1.5,1.1C332.4,586.7,332,587.6,331.7,588.2z"/>
	<path fill="#36DFDE" d="M238.7,586.7c0.5,0,1.1,0,1.5,0c-0.1-0.3-0.5-0.4-0.5-0.8C238.9,585.7,238.8,586.2,238.7,586.7
		c-0.6-0.3-1-0.9-1.1-1.6c2.7,0.1,4,0,4.9,2c-0.1,0.7-0.3,1.3-1.1,1.6c-1.1-0.4-2-0.8-2.9-1.1C238.8,587.2,238.8,587.1,238.7,586.7z
		"/>
	<path fill="#36DFDE" d="M306.2,586.1c1.8-2.5,5-1.9,7.3-0.5C312.9,588.7,308,587.2,306.2,586.1z"/>
	<path fill="#36DFDE" d="M201.1,587.8c-0.6,0-1.1-0.1-1.1-0.8c0.4,0,0.6,0,1.1,0C201.1,587.7,201.1,587.7,201.1,587.8z"/>
	<path fill="#36DFDE" d="M237.8,587.1C237.2,588.7,237.2,585.5,237.8,587.1L237.8,587.1z"/>
	<path fill="#36DFDE" d="M199.2,587.3C199.3,587.4,198.8,587.2,199.2,587.3L199.2,587.3z"/>
	<path fill="#36DFDE" d="M219.7,586.4c0-0.1,0-0.3,0-0.4C219.1,586.2,219.4,586.4,219.7,586.4c0,0.3,0,0.5,0,0.8
		c-2.4,0.2-0.3-1.1-2.4-1.1c0-0.6,3.6-0.9,2.9,0.4C220,586.4,219.8,586.4,219.7,586.4z"/>
	<path fill="#36DFDE" d="M85.2,578.2c-0.7-1.2,0.2-1.4,0-3.1C93.8,570.8,94.8,582.8,85.2,578.2z M88.1,576.8
		C87.7,576.7,88.3,577.2,88.1,576.8L88.1,576.8z M86.1,576.2c0,0.4,0.9,0.5,1.1,0C86.6,576.2,86.4,575.7,86.1,576.2z"/>
	<path fill="#36DFDE" d="M61.7,578.3c0.4-2.2,1.8-1.5,0.5-3.5c2.5-0.8,4.2,0.2,5.9,1.1C68.7,579.8,64.3,579.8,61.7,578.3z
		 M64.1,575.8C63.8,575.7,64.3,576,64.1,575.8L64.1,575.8z"/>
	<path fill="#36DFDE" d="M139.9,576.7c-2.8-4.1,7.9-7.3,10.2-2.8C149.3,576.7,143.3,576.8,139.9,576.7z"/>
	<path fill="#36DFDE" d="M116,573.7c0,0.4,0,0.8,0,1.1c1.4,0,1.4-1,1.5-2c1.7,0.6,2.8,1.4,2.9,3.1c-0.9,0.9-2.3,1.3-4.4,1.2
		C116.3,575.8,114,573.7,116,573.7z M117.9,574.4C117.6,574.2,118.1,574.7,117.9,574.4L117.9,574.4z"/>
	<path fill="#36DFDE" d="M199.1,569.7c1.9-1.1,3.9-1.9,7.3-1.6C213.9,572.5,195.9,577.2,199.1,569.7z"/>
	<path fill="#36DFDE" d="M170.1,572.5c0-4.8,9.6-5.1,9.3-1.6C179.3,573.4,172.8,575.8,170.1,572.5z"/>
	<path fill="#36DFDE" d="M116,573.7C115.9,573.2,116.7,573.4,116,573.7L116,573.7z"/>
	<path fill="#36DFDE" d="M245,566.3c0.8,1.7,1.9,2.8,0.6,4.3c-4.2,1.4-11,1.8-10.2-2C235.6,566.5,241,565.4,245,566.3z"/>
	<path fill="#36DFDE" d="M317.4,567.8c0.6-4.3,11.1-4,11.3,0.4c-1.1,0.1-1.1,1.1-1.5,1.6c-4.4-0.2-7.6,1.9-10.2-0.4
		C316.1,568.4,319.1,568.5,317.4,567.8z"/>
	<path fill="#36DFDE" d="M297.7,565.2c-0.2,0-0.4,0-0.5,0C297.4,565.7,297.7,565.4,297.7,565.2c0.6,0,1.3,0,2,0
		c3.9,4-6.6,6.2-6.3,1.2c0.7-1.2,2.5-1.4,4.4-1.6C297.7,564.8,297.7,565.2,297.7,565.2z M294.9,566.8
		C294.5,566.7,295,566.8,294.9,566.8L294.9,566.8z M297.8,566.4c0.4-0.1,1,0,1.1-0.4C298.4,566.2,297.8,566,297.8,566.4z"/>
	<path fill="#36DFDE" d="M273.3,565.7c-0.2,0-0.4,0-0.5,0C272.9,566.2,273.3,565.8,273.3,565.7c4.5,2.7-4.8,5.4-8.3,3.1
		C263.7,565.8,271.3,562.5,273.3,565.7z M267.5,566.7c0,0.4,0.9,0.5,1.1,0C267.9,566.7,267.8,565.8,267.5,566.7z"/>
	<path fill="#36DFDE" d="M317.4,567.8C317.2,569,315.4,567.5,317.4,567.8L317.4,567.8z"/>
	<path fill="#36DFDE" d="M345.7,566.8c0.7-1.7-1.5-3.2,3.8-3.9C354.4,564.5,350,569.4,345.7,566.8z M347.6,564.5
		C347.4,564.3,347.8,564.7,347.6,564.5L347.6,564.5z"/>
	<path fill="#36DFDE" d="M285.5,564.8C285.8,565,285.3,564.7,285.5,564.8L285.5,564.8z"/>
	<path fill="#36DFDE" d="M67.9,551.7c0.4-0.1,0.6-0.4,0.5-0.8c2,1.1,2.7,4.1,0.6,5.5c-2.2-0.6-3.1,0.1-5.9,0c-0.9-1.3,0.6-1.8,1-3.1
		C65.4,552.7,67.5,552.8,67.9,551.7z"/>
	<path fill="#36DFDE" d="M84,554.2c0.3-2.1,3.4-2,5.9-2.3c1.2-0.5-0.9-1.2,0.5-1.6c1.8,0.2,0.6,1.1,2.4,0.4
		C97.8,555.3,88.3,556.3,84,554.2z"/>
	<path fill="#36DFDE" d="M114.8,554c-0.6-1.8,0-2,1-3.1c1.9,0.2,2.7,0.2,4.9,0.8C120.2,554.7,116.8,554,114.8,554z"/>
	<path fill="#36DFDE" d="M146.6,552.3c-0.2-1.1-1.7-1.1-1.1-2.7c2-1.2,3.7,0,4.9-1.6C155.6,549.8,150.9,553.5,146.6,552.3z"/>
	<path fill="#36DFDE" d="M88.4,551.2C88.6,551.2,88.1,550.8,88.4,551.2L88.4,551.2z"/>
	<path fill="#36DFDE" d="M67.9,551.7C65.6,552,68.4,549.7,67.9,551.7L67.9,551.7z"/>
	<path fill="#36DFDE" d="M337.3,548.2c-2.3-6,9.9-5.7,9.8-1.6C347,549.7,340.8,549.3,337.3,548.2z"/>
	<path fill="#36DFDE" d="M314.8,547.8c0.1-1.7-0.8-1.8,0-3.1c1.9-0.4,3.9-0.6,6.3-0.5c-0.8,1.3,1.8,1.4,1.5,2.7
		C322.1,549.7,317.5,549.7,314.8,547.8z M319.2,547.8C318.9,547.7,319.5,548.2,319.2,547.8L319.2,547.8z"/>
	<path fill="#36DFDE" d="M286.5,548.3c-2.9-5.8,8.5-5.6,8.4-1.6C294.6,549.8,290.1,549,286.5,548.3z"/>
	<path fill="#36DFDE" d="M118.7,549.7C118.9,549.8,118.5,549.4,118.7,549.7L118.7,549.7z"/>
	<path fill="#36DFDE" d="M269.8,543.2c-0.9,1.8,1.5,2,1.5,2.3c-0.1,3.2-7.9,3.2-8.4,0C262.7,543.2,265,542.2,269.8,543.2z
		 M267.9,545C267.6,544.7,268.1,545.2,267.9,545L267.9,545z"/>
	<path fill="#36DFDE" d="M184.2,543.8c1.2,0,2.3-0.2,2.9-0.8c6.4,3-5.2,6.8-6.3,2.8C181.3,544.7,183.5,544.8,184.2,543.8z"/>
	<path fill="#36DFDE" d="M213.1,545.3c0.4-2,2.8-2.4,3.9-4c1.8,0,2.8,0.6,4.4,0.8c0,1.1,1.2,1.4,1.1,3.5
		C220.8,547.5,214.9,546.8,213.1,545.3z"/>
	<path fill="#36DFDE" d="M237,545.2c1.3-2.6,3.6-4.4,8.8-4c0.3,1.3,1.8,1.8,1.5,3.5c-0.6,0.2-1.1,0.5-1.1,1.2
		C242.7,546,239.9,546.4,237,545.2z M242.4,544.3C241.8,542.8,241.8,545.8,242.4,544.3L242.4,544.3z"/>
	<path fill="#36DFDE" d="M184.2,543.8c-0.5,0-1.1,0-1.5,0c0.4-0.5,1.1-0.7,2-0.8C184.8,543.5,184.3,543.7,184.2,543.8z"/>
	<path fill="#36DFDE" d="M186.2,542.7C186.3,542.8,185.8,542.5,186.2,542.7L186.2,542.7z"/>
	<path fill="#36DFDE" d="M143.1,533.2c-0.1,0.5-1.1,0.4-1.1,0C142.3,532.7,142.5,533.2,143.1,533.2z"/>
	<path fill="#36DFDE" d="M203.8,529.3c0.4-2.9,3.3-2.7,5.4-3.5C217.1,528.5,207.8,534.2,203.8,529.3z"/>
	<path fill="#36DFDE" d="M170.4,527.5c0.9-4,6.8-3.8,9.3-0.8C180.7,532.5,172,529.7,170.4,527.5z"/>
	<path fill="#36DFDE" d="M336.7,526.2c-0.2-0.8,3.5-1.3,1.1-1.6c0.8-0.6,1.6-1.2,2.4-1.6c2.4,0.4,4.4,1.1,5.4,2.7
		C344.8,529.3,338.5,528.2,336.7,526.2z M341.6,524.3c-0.7,0.2-2.5-0.5-2.4,0.5C340.6,524.4,341.1,525.5,341.6,524.3z"/>
	<path fill="#36DFDE" d="M287.9,526.5c-0.3-1.2,0.9-1.4,0.5-2.7c1.4-0.5,3.4-0.5,5.4-0.5C298.6,527.2,291.3,530.2,287.9,526.5z"/>
	<path fill="#36DFDE" d="M236.9,522.8c0.9,0,1.6,0.1,2,0.4c-0.3,1.1,1.1,0.8,1.1,1.6c-0.9,2-3.2,2.8-6.3,3.1c-1.9-1.1-0.5-3.2,0-4.7
		C234.5,523.5,236.7,524.2,236.9,522.8z"/>
	<path fill="#36DFDE" d="M136.2,524.8c1.7-2.9,9.8-1.7,7.8,2c-1.8,2.4-7.9,2.3-8.4-0.4C135.6,525.4,138.2,525.7,136.2,524.8z
		 M138.2,524.8c0.6,0,1.4,0.1,1.5-0.4C139.1,524.7,138.2,524.5,138.2,524.8z"/>
	<path fill="#36DFDE" d="M103.9,527.8c-1.2-3.1,5.2-7.2,9.3-3.6c0.2,1.4-0.1,2.5-0.5,3.5C109.5,528.5,106.8,529.2,103.9,527.8z"/>
	<path fill="#36DFDE" d="M314.1,524.4c2-0.8,4.1,0.9,4-1.6c1.4,0.3,2.4,1,3.4,1.6C321.9,528.2,314,527.8,314.1,524.4z"/>
	<path fill="#36DFDE" d="M359.6,526.4c-2.3,0.4-3-0.7-3.4-2c2.4-0.5-0.2-2.5,2.9-2.3c0.2,0.7-1.6,1.8,0.5,1.7
		C359.6,524.7,359.6,525.7,359.6,526.4z"/>
	<path fill="#36DFDE" d="M261.8,523.5c0.9-1.2,3.6-0.7,4.9-1.6c0.5,0.5,0.5,1.5,1.5,1.6C268.3,526.8,262.1,526.7,261.8,523.5z"/>
	<path fill="#36DFDE" d="M238.8,523.3C238.8,522.7,239.6,523,238.8,523.3L238.8,523.3z"/>
	<path fill="#36DFDE" d="M359.6,521.8c0,0.1,0,0.3,0,0.4c-0.2,0-0.4,0-0.5,0C359.2,521.8,359.3,521.7,359.6,521.8z"/>
	<path fill="#36DFDE" d="M236.9,522.8C236.4,522.8,236.6,522.3,236.9,522.8L236.9,522.8z"/>
	<path fill="#36DFDE" d="M235,522.5C235.2,522.7,234.6,522.2,235,522.5L235,522.5z"/>
	<path fill="#36DFDE" d="M262.8,521.8C263,522.2,262.5,521.7,262.8,521.8L262.8,521.8z"/>
	<path fill="#36DFDE" d="M238.4,522C238.6,522.2,238,521.8,238.4,522L238.4,522z"/>
	<path fill="#36DFDE" d="M265.2,521.5c0,0.4-0.6,0.3-1.1,0.4C264.3,521.5,264.9,521.7,265.2,521.5z"/>
	<path fill="#36DFDE" d="M142.4,505.4c-0.8,0-1.3,0.4-1.5,0.8C141.9,506.1,142.2,505.9,142.4,505.4c0.4,0,0.6,0,1.1,0
		c2,2.9-2,3.9-4.9,4.3c-3.6-1.7-2.6-6.1,2.9-5.9C141.5,504.6,142.7,504.4,142.4,505.4z M141,504.6c-1,0.2-2,0.1-2,1.2
		C140.3,505.9,140.6,505.1,141,504.6z"/>
	<path fill="#36DFDE" d="M81.9,505.1c0.1,0.5,0.9,0.3,1.5,0.4C83.2,505.1,82.4,505.4,81.9,505.1c2.5-2.9,10.6-2,8.8,2.2
		c-4,1.4-8.2,2.5-12.2,1.2C78.7,507,80.7,506.5,81.9,505.1z M84.8,504.9C84.4,504.6,85,505,84.8,504.9L84.8,504.9z"/>
</g>
<path fill="#FFC26A" d="M509.2,423.4c0,0-13.1-0.8-17.7,4.6c5.1-11.5,17.7-14,17.7-14v-4.7l12.6,9.5l-12.6,9.5
	C509.2,428.1,509.2,423.4,509.2,423.4z M461.4,458.6h60.3l-30.1-27.4L461.4,458.6z M465.6,425.5l25.9-17.7l7.7,5.3
	c1.8-1.1,3.5-1.9,4.9-2.4l-12.6-8.6l-30.2,20.6v29.5l18.5-16.8C479.9,435.1,465.6,425.5,465.6,425.5z M505.3,437l16.5,15v-27.4
	L505.3,437z"/>
<path fill="#36DFDE" d="M568.9,437.9l-29.7-24.1h59.5L568.9,437.9z M555.4,433.4L539,420.1v31L555.4,433.4z M582.4,433.4l16.3,17.8
	v-31.1L582.4,433.4z M578.5,436.6l-9.6,7.8l-9.6-7.8l-20.1,21.9h59.5L578.5,436.6z"/>
<path fill="#36DFDE" d="M648.1,438.9l-29.7-24.2h59.5L648.1,438.9z M634.6,434.4l-16.3-13.3v31C618.4,452.1,634.6,434.4,634.6,434.4
	z M661.6,434.4l16.3,17.8v-31C677.8,421,661.6,434.4,661.6,434.4z M657.7,437.4l-9.6,7.8l-9.6-7.8l-20.1,21.9h59.5L657.7,437.4z"/>
<path fill="#FFC26A" d="M588.8,497.6c0,0-12.8-0.8-17.2,4.6c4.9-11.5,17.2-14,17.2-14v-4.6l12.3,9.5l-12.3,9.5V497.6z M542.2,533
	H601l-29.4-27.4L542.2,533z M546.3,500l25.3-17.7l7.5,5.3c1.8-1.1,3.4-1.9,4.8-2.4l-12.3-8.6l-29.5,20.6v29.4l18-16.8
	C560.2,509.6,546.3,500,546.3,500z M585,511.5l16.1,15v-27.4L585,511.5z"/>
<path fill="#FFC26A" d="M509.8,573.3c0,0-12.6-0.8-17,4.6c4.9-11.5,17-14,17-14v-4.7l12.1,9.5l-12.1,9.5
	C509.8,578.2,509.8,573.3,509.8,573.3z M463.9,608.7h58l-29-27.4C492.8,581.2,463.9,608.7,463.9,608.7z M468,575.5l25-17.7l7.4,5.3
	c1.8-1.1,3.4-1.9,4.8-2.4l-12.1-8.6L464,572.7v29.5l17.8-16.8C481.6,585.2,468,575.5,468,575.5z M506.1,587l15.9,15v-27.4L506.1,587
	z"/>
<path fill="#FFC26A" d="M590.3,573.5c0,0-12.9-0.8-17.4,4.6c5-11.5,17.4-14,17.4-14v-4.8l12.4,9.5l-12.4,9.5V573.5z M543.2,608.7
	h59.6L573,581.3C572.9,581.4,543.2,608.7,543.2,608.7z M547.3,575.7l25.6-17.7l7.6,5.3c1.8-1.1,3.4-1.9,4.9-2.4l-12.5-8.6L543,572.8
	v29.5l18.2-16.8C561.3,585.4,547.3,575.7,547.3,575.7z M586.5,587.2l16.3,15v-27.4C602.7,574.8,586.5,587.2,586.5,587.2z"/>
<path fill="#36DFDE" d="M648.9,511.1L619.2,487h59.5L648.9,511.1z M635.4,506.6L619,493.4v31L635.4,506.6z M662.3,506.6l16.3,17.8
	v-31.1C678.6,493.4,662.3,506.6,662.3,506.6z M658.4,509.6l-9.6,7.8l-9.6-7.8l-20.1,22h59.5L658.4,509.6z"/>
<path fill="#36DFDE" d="M650.5,588.4l-29.7-24.1h59.5L650.5,588.4z M637.1,583.8l-16.3-13.2v31C620.8,601.8,637.1,583.8,637.1,583.8
	z M664,583.8l16.3,17.8v-31C680.4,570.8,664,583.8,664,583.8z M660.2,587l-9.6,7.8L641,587l-20,22h59.5L660.2,587z"/>
<path fill="#36DFDE" d="M491.9,511.5l-29.7-24.1h59.5L491.9,511.5z M478.4,507l-16.3-13.3v31C462.1,524.8,478.4,507,478.4,507z
	 M505.3,507l16.3,17.8v-31C521.6,493.6,505.3,507,505.3,507z M501.4,510.1l-9.6,7.8l-9.6-7.8L462.1,532h59.5L501.4,510.1z"/>
<path fill="#FFC26A" d="M279.7,503v82.6v0.3v1c0,0.3,0,0.7,0,1c0,0.7,0,1-0.3,1.7c0,0.3,0,0.7,0,1c-1,5.9-0.7,10.2-5.9,11.2
	c-2,1-4.6,1.7-6.9,1.7h-56.2H210c-5,0.7-9.9-1-13.6-4.6l-60.8-60.8c-6.6-6.6-8.6-13.6-2-19.8c6.6-6.6,16.9-6.6,23.5,0l29.4,24.8
	v-89.6c0-9.3,1.7-16.5,10.6-16.5c4.3,0,6.3,1.7,7.6,4c3-3,4.3-7.3,4.3-12.2c0-6.6-2.3-12.2-7.6-14.5v-6.9
	c8.9,2.6,13.9,11.2,13.9,21.5c0,7.9-3.3,15.2-8.9,19.2c0,1.7,0,3.6,0,5.6v43.6h6.6v-13.9c0-4.6,0.3-8.9,2-11.9
	c-1.7,0.7-3,1.7-4.6,2.3v-7.5c13.6-6.3,23.1-19.8,23.1-36s-9.6-29.7-23.1-36v-7.3c17.5,6.6,29.7,23.5,29.7,43.3
	c0,14.9-6.9,28.1-17.8,36.4c0.3,0,1,0,1.3,0c9.3,0,9.6,7.3,9.6,16.5v13.9h6.6v2.6c0-9.3,0.7-23.1,9.9-23.1c8.3,0,6.9,11.6,6.9,20.5
	l0,0v2.6c0-0.7,0-1.7,0-2.6c0.3,0,5.6,0,6.6,0c0.3,0,0.3,1,0.3,1.7s0,1,0,1.7c0,0,0-0.7,0-1.7c0.3-5.9,1-12.6,6.6-12.6
	c6.3,0,8.6,7.9,9.9,14.5C280.1,502.6,279.7,501,279.7,503z M172.3,428.6c0-10.2,5-18.8,13.9-21.5v6.9c-5.3,2.3-7.6,8.3-7.6,14.5
	c0,6.3,2.3,12.2,7.6,14.5v6.9C177.3,447.1,172.3,438.9,172.3,428.6z M154.1,430.4c0,15.9,9.6,29.7,23.1,36v7.3
	c-17.5-6.6-29.7-23.5-29.7-43.3s12.2-36.7,29.7-43.3v7.3C163.7,400.6,154.1,414.4,154.1,430.4z"/>
</svg>
