<?xml version="1.0" encoding="utf-8"?>
<!-- Generator: Adobe Illustrator 18.0.0, SVG Export Plug-In . SVG Version: 6.00 Build 0)  -->
<!DOCTYPE svg PUBLIC "-//W3C//DTD SVG 1.1//EN" "http://www.w3.org/Graphics/SVG/1.1/DTD/svg11.dtd">
<svg version="1.1" id="Calque_1" xmlns="http://www.w3.org/2000/svg" xmlns:xlink="http://www.w3.org/1999/xlink" x="0px" y="0px"
	 viewBox="-10.1 83.8 769 330.9" enable-background="new -10.1 83.8 769 330.9" xml:space="preserve">
<rect x="-10.1" y="83.8" fill="#36BADF" width="769" height="330.9"/>
<g>
	<path fill="#36DFDE" d="M634.7,135.6c0.8,1.6-0.6,3.1-1.4,4.7c-0.9-1.2-2.3-0.2-3.1-2.1C631,136.2,632.9,135.1,634.7,135.6z"/>
	<path fill="#36DFDE" d="M654,120.5c0.2,0.2,0.3,0.4,0.5,0.6C654.1,121.4,653.6,121,654,120.5z"/>
	<path fill="#36DFDE" d="M611.3,155.4c2.1-1.1,1.8-0.4,3.6-0.3c-1.6,1.4-1.1,3.4-3.2,3.2C610.4,157.3,611.7,156.4,611.3,155.4z"/>
	<path fill="#36DFDE" d="M592.9,173.4c1.1,1.1-1.2,2.3-0.4,3.5c-1.2,0.3-2.2,0.1-3.1-0.6C589,174.1,591.1,172.6,592.9,173.4z"/>
	<path fill="#36DFDE" d="M451,288.9C450.8,288.9,451.5,288.9,451,288.9L451,288.9z"/>
	<path fill="#36DFDE" d="M565.8,197.3c2.3-1.8,4.5-4.3,5.9-2.2c-2.1,1.7-1.3,3.3-3,5C567,200.1,565.8,199.2,565.8,197.3z"/>
	<path fill="#36DFDE" d="M526.6,231.6c0.2,1.3,1.2,0.8,1.1,2.2c-2,1-1.3,1.1-2.5,2.6c0.5,0.3,1,0.2,1.7-0.3
		C523.5,243.1,516.1,233.6,526.6,231.6z"/>
	<path fill="#36DFDE" d="M550.6,211.8c1.6,1.2,0.7,2.5,1.1,3.8c-2,0.2-2.2,2.3-2.4,3.4C543.6,220.6,545.9,211.9,550.6,211.8z"/>
	<path fill="#36DFDE" d="M491.7,260.3c2-1.5,3.9-2.3,5.4-1.3c1.1,1.7-1.8,3.4-3,5C492.2,263.7,490.9,262.1,491.7,260.3z"/>
	<path fill="#36DFDE" d="M425.7,315.7c1.3-3.1,6.9-8.4,8.9-5.7C436.3,312.3,429.3,320.5,425.7,315.7z"/>
	<path fill="#36DFDE" d="M458.1,290.5c0.1,0.3-0.1,0.7,0.1,1c0.5,3.7-5.7,8.8-7.7,5.6C449,294.6,454.8,289.1,458.1,290.5z"/>
	<path fill="#36DFDE" d="M478.4,272.5c4.7,2.9-3.9,10.3-6.1,7.6C470.4,277.8,474.3,273.7,478.4,272.5z"/>
	<path fill="#36DFDE" d="M527.5,235C527.2,235.1,527.9,235.1,527.5,235L527.5,235z"/>
	<path fill="#36DFDE" d="M549.9,219c-0.3-0.5,0.5-0.8,0.9-1.3C551.1,218.2,550.3,218.5,549.9,219z"/>
	<path fill="#36DFDE" d="M596,197.2c-0.1,1.8-3.7,3.8-2.5,5.6c-2.7,1-5.8,4-7.4,0.3C587.2,200.1,593.4,194.5,596,197.2z"/>
	<path fill="#36DFDE" d="M666.2,139.5c1.6,2.3-0.8,4.6-2.1,6.9c-0.4-0.7-1-0.1-1.7,0.3c-0.6-0.7-1.2-1.4-1.8-2.2
		C661.1,142.6,663.7,138.9,666.2,139.5z"/>
	<path fill="#36DFDE" d="M430.1,334.8c-0.7-0.8-1.4-1.7-2-2.5c0.3-1.8,3.8-4.1,5.7-2.5C434,331.4,431.1,333.6,430.1,334.8z"/>
	<path fill="#36DFDE" d="M648.2,155.6c0.3,0.4,0.7,0.8,1,1.2c-0.7,2.7-4,5.5-5,8.1c-1.6,0.5-3,0.2-4.1-1.8
		C640.9,160.6,644.7,155.4,648.2,155.6z"/>
	<path fill="#36DFDE" d="M463.3,310.5c-1,4.1-10.2,10.1-12.1,6.7C449.4,313.4,460.5,307.6,463.3,310.5z M459.6,311.5
		C460,311.5,459.4,311.5,459.6,311.5L459.6,311.5z"/>
	<path fill="#36DFDE" d="M621.9,180.5c-0.8,1.4-2.2,2.9-2.2,4.4C612.4,187.4,617.4,176.4,621.9,180.5z"/>
	<path fill="#36DFDE" d="M486.2,289.4c0.5,0.6,1,1.2,1.5,1.9c-1.3,2-3.5,2.1-2.8,3.7C477.8,299.9,480.2,289.5,486.2,289.4z"/>
	<path fill="#36DFDE" d="M512.2,268c0.4,0.5,0.9,1.3,1.4,0.9c-0.3,2.5-2.5,3.1-3.8,5.7C504.6,274.9,507.7,268.4,512.2,268z"/>
	<path fill="#36DFDE" d="M489.9,286C489.7,286,490.4,286,489.9,286L489.9,286z"/>
	<path fill="#36DFDE" d="M560.9,228.7c1.2,0.5,1.8,1.2,2,2.5c-1.4,1.1-3.4,2.3-3,3.4C554.8,236.8,555.6,230.2,560.9,228.7z"/>
	<path fill="#36DFDE" d="M538.6,251.3c-2.3,1.4-2.9,2.9-2.9,4.4C525.3,260.6,535.5,243.9,538.6,251.3z"/>
	<path fill="#36DFDE" d="M646.7,162.5c0.4,0.6-0.1,1.2-1.1,1.9C645.3,163.8,645.7,163.2,646.7,162.5z"/>
	<path fill="#36DFDE" d="M588.8,211.3c-0.3-0.5,0.5-1,0.8-0.7C589.8,211.3,589.2,210.9,588.8,211.3z"/>
	<path fill="#36DFDE" d="M536.7,254.4c0-0.1,0.4-1.3,0.9-1.3C538,253.2,536.7,255.3,536.7,254.4z"/>
	<path fill="#36DFDE" d="M614.5,208.1c1.1,3.6-5.7,6.4-6.4,2.5C609.6,207.9,612.9,207.2,614.5,208.1z M611.9,211.2
		C612.3,211.1,611.7,211.2,611.9,211.2L611.9,211.2z M612.7,210.6C613.1,210.5,612.4,210.6,612.7,210.6L612.7,210.6z"/>
	<path fill="#36DFDE" d="M654.2,173.4c0.8,0.8,1.8,0.7,2.6,1.5c0,2.8-4,5.7-6.5,4.7C648.1,177.1,651.3,175.5,654.2,173.4z"/>
	<path fill="#36DFDE" d="M680.6,157.4c0.4,4.3-8.6,7.5-7.8,2.2C675.5,158.1,678.6,155.3,680.6,157.4z"/>
	<path fill="#36DFDE" d="M629.2,195.2c1.9-1.5,3.7-3.2,5.4-3.8c1,1.4,1.5,0.8,1.8,2.2C635.5,196.9,629.5,199.2,629.2,195.2z"/>
	<path fill="#36DFDE" d="M590.6,229.5c1.9,3.3-5.6,7.6-6.1,2.9C586.9,229.3,588,230.5,590.6,229.5z"/>
	<path fill="#36DFDE" d="M521.5,286.7c0.6,0.6,1.6-0.1,1.2-0.9c0.4-0.2,0.7-0.1,0.9,0.3c-0.4,0.6,0.3,0.4,0,0
		c0.3-1.2,0.8-0.4,1.9-1.6c0.3,0.4,0.7,0.8,1,1.2c-1.3,2.4-4.1,4.8-6.2,3.5c0.5-1-0.9-1.9,0.3-2.9
		C520.9,286.7,521.1,287.1,521.5,286.7z M523.3,287.4c-0.3,0.3-0.8,0.6-0.5,1C523,288,523.5,287.7,523.3,287.4z"/>
	<path fill="#36DFDE" d="M522,285.8C521.7,285.5,522.5,285.1,522,285.8L522,285.8z"/>
	<path fill="#36DFDE" d="M570.8,249.6c-0.5,0.4-0.9,0-1.4,0.6c-1.4-1.3-0.4-2.5,0.8-3.7c0,2.5,1.5-0.7,2.4,0.6
		C571.5,247.9,570.1,248.8,570.8,249.6z"/>
	<path fill="#36DFDE" d="M501.3,302.5c1.2-1.3,1.9-0.7,3-1.9c1.5,2.4,0.9-0.3,2.3-0.4c0.4,1.4-0.7,2.9-2.9,4.4
		C503.1,303.3,502,303.9,501.3,302.5z M505,302.2c-0.3,0.3-0.8,0.6-0.5,1C504.6,302.8,505.2,302.5,505,302.2z"/>
	<path fill="#36DFDE" d="M521.5,286.7c-0.2-0.3,0-0.7,0.5-1C522.2,286.2,522,286.4,521.5,286.7z"/>
	<path fill="#36DFDE" d="M448.5,347.2c1-0.8,1.9-0.7,2.6,0c0.5-2.2,1.7-0.3,3.4-2.2c1.5,1.7-0.4,3.4-2.4,5
		C449.6,349.5,449,349.3,448.5,347.2z"/>
	<path fill="#36DFDE" d="M466.1,333c1.2-1.2,2-1.3,3-1.9c0.7,1-0.2,1,0.7,2.5c0.2-1,0.1-1.9,1.6-2.8c0.7,2-1.2,3.3-2.6,4.7
		c-0.4-1-1-1-1.9,0C466.3,334.7,466.2,333.8,466.1,333z"/>
	<path fill="#36DFDE" d="M541.4,274.8c-0.4,0.3-0.8,0.7-1.2,0.9c0.2,0.2,0.7,0,0.9,0.3C541.9,275.7,541.7,275.2,541.4,274.8
		c0.6-0.2,1.3,0.1,1.8,0.6c-2.3,1.7-3.2,2.5-5.2,1.6c-0.4-0.6-0.6-1.2-0.2-1.9c1.1-0.3,2.1-0.7,3.1-1
		C541.1,274.4,541.3,274.6,541.4,274.8z"/>
	<path fill="#36DFDE" d="M487.8,318.5c0.2,3.1-2.8,4.7-5.6,5.1C480.7,320.6,485.7,318.8,487.8,318.5z"/>
	<path fill="#36DFDE" d="M570.8,249.6c0.5-0.4,0.9-0.7,1.3,0c-0.3,0.2-0.5,0.4-0.8,0.7C571.1,250,571,249.8,570.8,249.6z"/>
	<path fill="#36DFDE" d="M542,273.9C541.4,272.2,543.4,274.7,542,273.9L542,273.9z"/>
	<path fill="#36DFDE" d="M572.8,249C572.6,249,573.2,248.9,572.8,249L572.8,249z"/>
	<path fill="#36DFDE" d="M556.9,262.8c0.1,0.1,0.2,0.2,0.3,0.3C557.5,262.7,557.1,262.6,556.9,262.8c-0.2-0.2-0.3-0.4-0.5-0.6
		c1.8-1.7,0.9,0.7,2.6-0.7c0.4,0.5-2.3,3-2.6,1.5C556.6,263,556.8,262.9,556.9,262.8z"/>
	<path fill="#36DFDE" d="M670,183.4c1.3,0.5,0.7,1.2,2,2.5C667.8,194.8,659.2,185.8,670,183.4z M668.4,186.2
		C668.9,186.2,668.2,186.2,668.4,186.2L668.4,186.2z M670.5,185.6c-0.3-0.3-1,0.1-0.8,0.7C670.1,185.9,670.7,186.2,670.5,185.6z"/>
	<path fill="#36DFDE" d="M688.7,168.3c1.1,2.1-0.5,2.3,1.9,3.1c-1.6,2.3-3.5,2.6-5.4,2.9C682.2,171.5,685.7,168.7,688.7,168.3z
		 M688.3,171.7C688.7,171.7,688,171.8,688.3,171.7L688.3,171.7z"/>
	<path fill="#36DFDE" d="M627.1,219.6c4.9,1.5-1.7,10.9-6.4,8.8C619.5,225.5,624.1,221.6,627.1,219.6z"/>
	<path fill="#36DFDE" d="M648.2,206.7c-0.3-0.3-0.5-0.6-0.7-0.9c-1.1,0.9-0.5,1.6,0.1,2.5c-1.7,0.6-3.2,0.7-4.3-0.6
		c0.1-1.2,1-2.5,2.8-3.7C646.4,205,649.8,205.5,648.2,206.7z M646.2,207.3C646.5,207.3,645.9,207.3,646.2,207.3L646.2,207.3z"/>
	<path fill="#36DFDE" d="M584.1,263c-0.8,2-1.9,3.9-4.8,5.9C570.4,270.3,581.8,254.9,584.1,263z"/>
	<path fill="#36DFDE" d="M605.5,242.3c3.1,3.8-4.4,10.1-6.4,7.2C597.6,247.4,601.3,241.3,605.5,242.3z"/>
	<path fill="#36DFDE" d="M648.2,206.7C648.6,207,647.8,207.3,648.2,206.7L648.2,206.7z"/>
	<path fill="#36DFDE" d="M549.4,295.1c-1.7-0.8-3.3-1.1-3.2-3.1c2.5-3.8,7.7-8.5,9.4-5C556.9,289,553.2,293.3,549.4,295.1z"/>
	<path fill="#36DFDE" d="M490.5,340.2c2.3,3.8-6.4,10.4-9.3,6.9c0.8-0.7,0.2-1.5,0.2-2.2c3.7-2.6,4.9-6.3,8.4-6.3
		C491.1,338.9,488.7,340.8,490.5,340.2z"/>
	<path fill="#36DFDE" d="M507.9,329.8c0.1-0.1,0.3-0.2,0.4-0.3C507.9,329.1,507.7,329.6,507.9,329.8c-0.5,0.4-1,0.8-1.6,1.3
		c-5.7-0.7,1.3-9.2,4.4-5c0.2,1.3-1.1,2.7-2.5,4.1C508.1,330,508,329.8,507.9,329.8z M509.2,326.6
		C509.6,326.6,509,326.6,509.2,326.6L509.2,326.6z M507.1,328.8c-0.3,0.3-0.8,0.6-0.5,1C506.8,329.4,507.4,329.1,507.1,328.8z"/>
	<path fill="#36DFDE" d="M527.1,313.7c0.1-0.1,0.3-0.2,0.4-0.3C527.1,313.1,527,313.5,527.1,313.7c-5.3,0.7,0.4-7.4,4.7-7.8
		C534.8,307.5,530.8,315,527.1,313.7z M531.3,309.3c-0.3-0.3-1,0.1-0.8,0.7C531,309.6,531.5,309.9,531.3,309.3z"/>
	<path fill="#36DFDE" d="M490.5,340.2C489.9,339.1,492.4,339.1,490.5,340.2L490.5,340.2z"/>
	<path fill="#36DFDE" d="M468.4,359.1c0.5,1.7,3.2,1.6-0.6,5.6C463,366.5,463.3,359.8,468.4,359.1z M468.3,362.2
		C468.8,362.2,468.1,362.2,468.3,362.2L468.3,362.2z"/>
	<path fill="#36DFDE" d="M517.9,322.2C517.6,322.2,518.3,322.2,517.9,322.2L517.9,322.2z"/>
	<path fill="#36DFDE" d="M700.8,193.6c-0.3,0.3-0.3,0.7,0.1,1c-2.3,0.4-4.8-1.6-4-4.1c2.2-1,2.4-2.1,4.7-3.8
		c1.5,0.5,0.6,1.8,1.2,3.1C702,191.1,700.3,192.4,700.8,193.6z"/>
	<path fill="#36DFDE" d="M686.2,201.8c1.2,1.9-1.5,3.7-3.2,5.6c-0.6,1.2,1.5,0.4,0.6,1.6c-1.5,1-1.2-0.5-2.2,1.2
		C674.5,209.8,681.4,202.9,686.2,201.8z"/>
	<path fill="#36DFDE" d="M661.6,221.7c1.6,1,1.3,1.6,1.2,3.1c-1.6,1-2.3,1.6-4.4,2.5C656.9,224.7,660,222.9,661.6,221.7z"/>
	<path fill="#36DFDE" d="M637.2,243.4c0.8,0.7,2-0.2,2.6,1.5c-0.9,2.2-3,2.4-2.9,4.4C631.6,251.1,633,245.2,637.2,243.4z"/>
	<path fill="#36DFDE" d="M684.7,207.1C684.4,207.2,685.1,207.2,684.7,207.1L684.7,207.1z"/>
	<path fill="#36DFDE" d="M700.8,193.6C702.4,191.8,701.6,195.4,700.8,193.6L700.8,193.6z"/>
	<path fill="#36DFDE" d="M487.1,368.8c5.7,3.3-4.3,10.8-6.8,7.6C478.3,373.6,483.6,370,487.1,368.8z"/>
	<path fill="#36DFDE" d="M505.3,354.5c1,1.4,1.8,0.9,2,2.5c-1.3,1.5-2.8,2.9-4.8,4.4c-0.2-1.5-2.3,0-2.9-1.3
		C498.3,357.7,502,354.9,505.3,354.5z M501.8,357.4C502.2,357.4,501.5,357.4,501.8,357.4L501.8,357.4z"/>
	<path fill="#36DFDE" d="M527.7,336c6,2.7-3.2,9.9-5.7,6.6C520.2,339.9,524.4,337.8,527.7,336z"/>
	<path fill="#36DFDE" d="M661.2,227.6C661,227.6,661.7,227.6,661.2,227.6L661.2,227.6z"/>
	<path fill="#36DFDE" d="M544.4,329.6c-0.4-1.9-2.4-0.6-2.7-0.9c-2-2.6,4.3-7.6,6.7-5.4C550.1,325,548.9,327.3,544.4,329.6z
		 M544.8,326.8C545.2,326.8,544.5,326.8,544.8,326.8L544.8,326.8z"/>
	<path fill="#36DFDE" d="M612.5,274.2c-1,0.8-1.7,1.6-1.8,2.5c-7.1,1.8-0.3-8.7,3.3-6.3C614.4,271.7,612.4,273,612.5,274.2z"/>
	<path fill="#36DFDE" d="M588.5,291.5c0.9,1.9-0.7,3.8-0.6,5.7c-1.4,1.1-2.7,1.3-4,2.2c-0.7-0.9-1.8-0.3-3.1-2.1
		C581,294.7,586,291.4,588.5,291.5z"/>
	<path fill="#36DFDE" d="M569.3,306.9c0.6,2.9-0.1,5.8-4.5,8.8c-1-0.9-2.5-0.3-3.4-1.9c0.4-0.5,0.5-1.1,0.1-1.6
		C564.2,309.9,566.3,307.8,569.3,306.9z M565.6,311C567,311.8,565.1,309.4,565.6,311L565.6,311z"/>
	<path fill="#36DFDE" d="M612.5,274.2c0.4-0.3,0.8-0.7,1.2-0.9c0.1,0.6-0.4,1.2-1.1,1.9C612.3,274.8,612.6,274.5,612.5,274.2z"/>
	<path fill="#36DFDE" d="M611.7,276.4C611.4,276.4,612.1,276.4,611.7,276.4L611.7,276.4z"/>
	<path fill="#36DFDE" d="M652.3,256.5c-0.3-0.5,0.5-1,0.8-0.7C653.3,256.4,652.7,256,652.3,256.5z"/>
	<path fill="#36DFDE" d="M606.2,298.4c1.5,2.6-1,4.3-2,6.3C596.1,307.5,599.8,297,606.2,298.4z"/>
	<path fill="#36DFDE" d="M634,278.5c1.8,3.8-3.1,7.5-6.9,6.6C622.6,281.1,631.4,277.8,634,278.5z"/>
	<path fill="#36DFDE" d="M501.6,385.9c0.6,0.5-2,3.3,0.2,1.9c-0.2,1-0.5,1.9-0.9,2.8c-2.2,1.2-4.2,1.9-6,1.2
		C493.2,388.6,499,385.4,501.6,385.9z M499,390.6c0.4-0.6,2.3-1.2,1.6-1.9C499.6,389.9,498.6,389.3,499,390.6z"/>
	<path fill="#36DFDE" d="M540.6,354.4c1,0.8,0.2,1.7,1.4,2.5c-0.8,1.3-2.5,2.6-4,3.8C531.5,360.7,535.5,353.7,540.6,354.4z"/>
	<path fill="#36DFDE" d="M583.7,324.7c-0.7,0.6-1.3,0.9-1.9,0.9c-0.4-1.1-1.3,0-1.8-0.6c-0.6-2.2,0.8-4.4,3.1-6.6
		c2.2-0.3,2.4,2.3,3,3.7C585.2,322.7,583.1,323.5,583.7,324.7z"/>
	<path fill="#36DFDE" d="M663.1,258.7c0.5,3.4-6.8,7.6-7.5,3.5c-0.1-3.1,4.8-7,6.9-5C663.3,257.9,661.1,259.4,663.1,258.7z
		 M661.6,259.9c-0.5,0.4-1.2,0.8-0.9,1.3C661,260.7,661.8,260.3,661.6,259.9z"/>
	<path fill="#36DFDE" d="M687.1,235.7c2.9,1.8,0.5,9-5.1,8.8c-1-1-1.5-2-1.9-3.1C682.2,238.7,683.9,236.5,687.1,235.7z"/>
	<path fill="#36DFDE" d="M520.9,372.9c-1.1,1.9-3.9,1.9-2.2,3.8c-1.3,0.7-2.5,0.8-3.7,1C512.3,374.9,518.8,370.1,520.9,372.9z"/>
	<path fill="#36DFDE" d="M483.1,400.4c1.6-1.8,2.8-1.4,4-0.6c-1.6,2,1.8,1.9-0.8,3.7c-0.6-0.4,0.1-2.4-1.5-1
		C484.2,401.8,483.6,401.1,483.1,400.4z"/>
	<path fill="#36DFDE" d="M563.4,340.2c0,1.4-2.4,2.9-2.9,4.4c-0.7-0.1-1.4-0.8-2.2-0.3C556,341.6,561.1,337.8,563.4,340.2z"/>
	<path fill="#36DFDE" d="M582,325.7C582.3,326.1,581.5,326.4,582,325.7L582,325.7z"/>
	<path fill="#36DFDE" d="M486.1,404.1c-0.1-0.1-0.2-0.2-0.3-0.3c0.1-0.1,0.3-0.2,0.4-0.3C486.4,403.7,486.5,403.9,486.1,404.1z"/>
	<path fill="#36DFDE" d="M583.7,324.7C584.2,324.3,584.3,325,583.7,324.7L583.7,324.7z"/>
	<path fill="#36DFDE" d="M585.5,323.8C585.2,323.8,586,323.8,585.5,323.8L585.5,323.8z"/>
	<path fill="#36DFDE" d="M563.6,342.1C563.3,342.1,564,342.1,563.6,342.1L563.6,342.1z"/>
	<path fill="#36DFDE" d="M583.1,326.4C582.8,326.3,583.5,326.3,583.1,326.4L583.1,326.4z"/>
	<path fill="#36DFDE" d="M561.9,343.9c-0.3-0.3,0.3-0.6,0.5-1C562.6,343.3,562.1,343.6,561.9,343.9z"/>
	<path fill="#36DFDE" d="M670.6,278.3c0.6-0.5,0.8-1.1,0.7-1.6C670.6,277.3,670.4,277.8,670.6,278.3c-0.3,0.2-0.5,0.4-0.8,0.7
		c-3.4-1.1-0.8-4.4,1.1-6.6c3.9-1,6,3.2,1.4,6.6C671.9,278.4,671,279.4,670.6,278.3z M672.3,278c0.6-0.7,1.6-1.4,0.9-2.2
		C672.1,276.6,672.3,277.3,672.3,278z"/>
	<path fill="#36DFDE" d="M719.2,239.7c-0.4-0.4-0.9,0.3-1.4,0.6C718.1,240.6,718.8,239.9,719.2,239.7c-0.2,4-7.2,8.5-8.5,3.8
		c2.3-3.7,4.9-7.3,9-8.8C720.7,236.2,719.3,237.9,719.2,239.7z M717.1,241.8C717.6,241.8,716.9,241.8,717.1,241.8L717.1,241.8z"/>
</g>
<path id="checkbox-9-icon" fill="#30ABAA" d="M88.6,128.7v38.2H50.4v-38.2H88.6z M94.2,123H44.8v49.5h49.5V123z"/>
<path id="checkbox-2-icon" fill="#FFFFFF" d="M55.1,207.5l4-3.7c4.7,2.3,7.7,4,13,7.8c9.9-11.3,16.5-17,28.7-24.6l1.3,3
	c-10.1,8.8-17.4,18.6-28,37.6C67.5,219.9,63.1,215,55.1,207.5z M88.1,212.4v18.9H50.4v-37.7h33.7c2.3-1.9,4.7-3.8,7.4-5.6H44.8V237
	h48.9v-32.2C91.8,207.1,90,209.6,88.1,212.4z"/>
<path id="checkbox-2-icon_1_" fill="#FFFFFF" d="M55.1,269.5l4-3.7c4.7,2.3,7.7,4,13,7.8c9.9-11.3,16.5-17,28.7-24.6l1.3,3
	c-10.1,8.8-17.4,18.6-28,37.6C67.5,281.9,63.1,277,55.1,269.5z M88.1,274.4v18.9H50.4v-37.7h33.7c2.3-1.9,4.7-3.8,7.4-5.6H44.8v48.9
	h48.9v-32.2C91.8,269.1,90,271.6,88.1,274.4z"/>
<g>
	<path fill="#FFFFFF" d="M137.8,197.4c1.4,0.9,2.5,2.1,3.3,3.7c0.8,1.5,1.3,3.2,1.3,5.1c0,1.8-0.4,3.5-1.3,5c-0.8,1.6-2,2.8-3.3,3.7
		c-1.4,0.9-2.8,1.4-4.4,1.4h-7.8v8.5c0,0.8-0.2,1.5-0.7,2c-0.5,0.5-1.1,0.8-1.9,0.8c-0.8,0-1.4-0.3-1.8-0.8c-0.5-0.5-0.7-1.2-0.7-2
		v-26.1c0-0.8,0.3-1.4,0.8-2c0.5-0.5,1.2-0.8,2-0.8h10.3C135,196,136.4,196.5,137.8,197.4z M135.1,210.4c0.6-0.5,1-1.1,1.4-1.9
		c0.3-0.8,0.5-1.6,0.5-2.4c0-0.8-0.2-1.6-0.5-2.4c-0.3-0.8-0.8-1.4-1.4-1.8c-0.6-0.5-1.1-0.7-1.7-0.7h-7.8v10h7.8
		C134,211.2,134.6,210.9,135.1,210.4z"/>
	<path fill="#FFFFFF" d="M167.5,216.7c-0.5,0.5-1.2,0.7-1.9,0.7h-14.9c0.4,1.8,1.2,3.2,2.5,4.2c1.3,1,2.8,1.5,4.4,1.5
		c1.2,0,2.2-0.1,2.9-0.3c0.7-0.2,1.2-0.5,1.6-0.7c0.4-0.3,0.7-0.4,0.8-0.5c0.5-0.3,1.1-0.4,1.5-0.4c0.6,0,1.2,0.2,1.6,0.7
		c0.5,0.5,0.7,1,0.7,1.6c0,0.8-0.4,1.5-1.3,2.2c-0.8,0.7-2,1.3-3.4,1.8c-1.4,0.5-2.8,0.7-4.3,0.7c-2.5,0-4.7-0.5-6.6-1.6
		c-1.9-1.1-3.3-2.5-4.4-4.4c-1-1.8-1.5-3.9-1.5-6.2c0-2.6,0.5-4.9,1.6-6.8c1.1-2,2.5-3.4,4.3-4.5c1.8-1,3.7-1.6,5.7-1.6
		c2,0,3.9,0.5,5.6,1.6c1.8,1.1,3.2,2.5,4.2,4.4c1.1,1.8,1.6,3.8,1.6,6C168.3,215.7,168,216.2,167.5,216.7z M150.8,212.9h11.8v-0.3
		c-0.1-1.3-0.7-2.3-1.8-3.2c-1.1-0.9-2.4-1.4-3.8-1.4C153.4,208,151.4,209.6,150.8,212.9z"/>
	<path fill="#FFFFFF" d="M187.7,203.8c0.6,0.5,0.9,1.1,0.9,1.8c0,0.9-0.2,1.6-0.7,2.1c-0.5,0.5-1.1,0.7-1.7,0.7
		c-0.5,0-1-0.1-1.5-0.3c-0.1,0-0.3-0.1-0.6-0.2c-0.3-0.1-0.7-0.1-1-0.1c-0.8,0-1.5,0.2-2.3,0.7c-0.7,0.5-1.3,1.2-1.8,2.2
		c-0.5,1-0.7,2.1-0.7,3.5v10.7c0,0.8-0.3,1.4-0.8,2c-0.5,0.5-1.2,0.8-1.9,0.8c-0.8,0-1.4-0.3-1.9-0.8c-0.5-0.5-0.8-1.2-0.8-2v-18.6
		c0-0.8,0.3-1.4,0.8-2c0.5-0.5,1.2-0.8,1.9-0.8c0.8,0,1.4,0.3,1.9,0.8c0.5,0.5,0.8,1.2,0.8,2v0.6c0.7-1.2,1.7-2.2,3-2.8
		c1.3-0.6,2.7-1,4.1-1C186.3,203,187,203.3,187.7,203.8z"/>
	<path fill="#FFFFFF" d="M201.8,199.9c-0.4,0.6-0.6,1.2-0.6,1.9v2.1h4.1c0.7,0,1.3,0.2,1.8,0.7c0.5,0.5,0.7,1.1,0.7,1.8
		c0,0.7-0.2,1.3-0.7,1.8c-0.5,0.5-1.1,0.7-1.8,0.7h-4.1v16c0,0.8-0.3,1.4-0.8,2c-0.5,0.5-1.2,0.8-1.9,0.8c-0.8,0-1.4-0.3-1.9-0.8
		c-0.5-0.5-0.8-1.2-0.8-2v-16h-2.4c-0.7,0-1.3-0.2-1.8-0.7c-0.5-0.5-0.7-1.1-0.7-1.8c0-0.7,0.2-1.3,0.7-1.8c0.5-0.5,1.1-0.7,1.8-0.7
		h2.4v-2.1c0-2.3,0.8-4.1,2.3-5.5c1.5-1.4,3.8-2.1,6.7-2.1c1.1,0,2.1,0.2,2.9,0.7c0.8,0.5,1.2,1.1,1.2,2.1c0,0.7-0.2,1.3-0.6,1.8
		c-0.4,0.5-0.9,0.7-1.5,0.7c-0.2,0-0.3,0-0.5,0c-0.2,0-0.3-0.1-0.5-0.1c-0.7-0.2-1.3-0.3-1.8-0.3C203,199,202.3,199.3,201.8,199.9z"
		/>
	<path fill="#FFFFFF" d="M232.8,222c-1.1,1.9-2.6,3.4-4.4,4.4c-1.9,1.1-3.9,1.6-6.2,1.6c-2.3,0-4.4-0.5-6.2-1.6
		c-1.9-1.1-3.3-2.5-4.4-4.4c-1.1-1.9-1.6-4.1-1.6-6.5c0-2.4,0.5-4.6,1.6-6.5c1.1-1.9,2.6-3.4,4.4-4.5c1.9-1.1,3.9-1.6,6.2-1.6
		c2.3,0,4.3,0.5,6.2,1.6c1.9,1.1,3.4,2.6,4.4,4.5c1.1,1.9,1.6,4.1,1.6,6.5C234.4,217.9,233.8,220.1,232.8,222z M228,211.6
		c-0.6-1.2-1.4-2.1-2.5-2.7c-1-0.6-2.2-0.9-3.4-0.9s-2.4,0.3-3.4,0.9c-1,0.6-1.9,1.5-2.5,2.7c-0.6,1.2-0.9,2.5-0.9,3.9
		c0,1.5,0.3,2.8,0.9,3.9c0.6,1.1,1.4,2,2.5,2.7c1,0.6,2.2,0.9,3.4,0.9s2.4-0.3,3.4-0.9c1-0.6,1.9-1.5,2.5-2.7
		c0.6-1.1,0.9-2.4,0.9-3.9C229,214.1,228.7,212.7,228,211.6z"/>
	<path fill="#FFFFFF" d="M253.7,203.8c0.6,0.5,0.9,1.1,0.9,1.8c0,0.9-0.2,1.6-0.7,2.1c-0.5,0.5-1.1,0.7-1.7,0.7
		c-0.5,0-1-0.1-1.5-0.3c-0.1,0-0.3-0.1-0.6-0.2c-0.3-0.1-0.7-0.1-1-0.1c-0.8,0-1.5,0.2-2.3,0.7c-0.7,0.5-1.3,1.2-1.8,2.2
		c-0.5,1-0.7,2.1-0.7,3.5v10.7c0,0.8-0.3,1.4-0.8,2c-0.5,0.5-1.2,0.8-1.9,0.8c-0.8,0-1.4-0.3-1.9-0.8c-0.5-0.5-0.8-1.2-0.8-2v-18.6
		c0-0.8,0.3-1.4,0.8-2c0.5-0.5,1.2-0.8,1.9-0.8c0.8,0,1.4,0.3,1.9,0.8c0.5,0.5,0.8,1.2,0.8,2v0.6c0.7-1.2,1.7-2.2,3-2.8
		c1.3-0.6,2.7-1,4.1-1C252.3,203,253.1,203.3,253.7,203.8z"/>
	<path fill="#FFFFFF" d="M292.4,205.7c1.1,1.8,1.7,4.3,1.7,7.6v11.5c0,0.8-0.3,1.4-0.8,2c-0.5,0.5-1.2,0.8-1.9,0.8
		c-0.8,0-1.4-0.3-1.9-0.8c-0.5-0.5-0.8-1.2-0.8-2v-11.5c0-1.7-0.3-3-1-3.9c-0.6-0.9-1.8-1.4-3.4-1.4c-1.7,0-3,0.5-3.9,1.5
		c-0.9,1-1.4,2.3-1.4,3.8v11.5c0,0.8-0.3,1.4-0.8,2c-0.5,0.5-1.2,0.8-1.9,0.8c-0.8,0-1.4-0.3-1.9-0.8c-0.5-0.5-0.8-1.2-0.8-2v-11.5
		c0-1.7-0.3-3-1-3.9c-0.6-0.9-1.8-1.4-3.4-1.4c-1.7,0-3,0.5-3.9,1.5c-0.9,1-1.4,2.3-1.4,3.8v11.5c0,0.8-0.3,1.4-0.8,2
		c-0.5,0.5-1.2,0.8-1.9,0.8c-0.8,0-1.4-0.3-1.9-0.8c-0.5-0.5-0.8-1.2-0.8-2v-18.6c0-0.8,0.3-1.4,0.8-2c0.5-0.5,1.2-0.8,1.9-0.8
		c0.8,0,1.4,0.3,1.9,0.8c0.5,0.5,0.8,1.2,0.8,2v0.7c0.8-1.1,1.8-2,3.1-2.8c1.2-0.8,2.6-1.1,4.2-1.1c3.8,0,6.2,1.7,7.3,5
		c0.7-1.3,1.7-2.4,3.1-3.4c1.4-1,3-1.5,4.8-1.5C289.2,203,291.3,203.9,292.4,205.7z"/>
	<path fill="#FFFFFF" d="M321.5,203.8c0.5,0.5,0.8,1.2,0.8,2v19.1c0,0.8-0.3,1.4-0.8,2c-0.5,0.5-1.2,0.8-1.9,0.8
		c-0.8,0-1.4-0.3-1.9-0.8c-0.5-0.5-0.8-1.2-0.8-1.9c-0.8,0.9-1.8,1.6-3,2.2c-1.3,0.6-2.6,0.9-4,0.9c-2.1,0-4-0.5-5.6-1.6
		c-1.7-1.1-3-2.5-4-4.4c-1-1.9-1.5-4-1.5-6.4c0-2.4,0.5-4.6,1.4-6.5c1-1.9,2.3-3.4,3.9-4.5c1.7-1.1,3.5-1.6,5.5-1.6
		c1.4,0,2.8,0.3,4.1,0.8c1.3,0.5,2.3,1.2,3.2,2v0c0-0.8,0.3-1.4,0.8-2c0.5-0.5,1.2-0.8,1.9-0.8C320.3,203,321,203.3,321.5,203.8z
		 M315.2,220.9c1.2-1.4,1.8-3.2,1.8-5.4c0-2.2-0.6-4-1.8-5.4c-1.2-1.4-2.8-2.2-4.8-2.2c-1.9,0-3.5,0.7-4.7,2.2
		c-1.2,1.4-1.8,3.2-1.8,5.4c0,2.2,0.6,4,1.8,5.4c1.2,1.4,2.8,2.1,4.8,2.1C312.4,223.1,314,222.3,315.2,220.9z"/>
	<path fill="#FFFFFF" d="M347.4,205.7c1.2,1.8,1.8,4.3,1.8,7.6v11.5c0,0.8-0.3,1.4-0.8,2c-0.5,0.5-1.2,0.8-1.9,0.8
		c-0.8,0-1.4-0.3-1.9-0.8c-0.5-0.5-0.8-1.2-0.8-2v-11.5c0-1.7-0.3-3-1-3.9c-0.7-0.9-1.9-1.4-3.6-1.4c-1.7,0-3.1,0.5-4.1,1.5
		c-1,1-1.5,2.3-1.5,3.8v11.5c0,0.8-0.3,1.4-0.8,2c-0.5,0.5-1.2,0.8-1.9,0.8c-0.8,0-1.4-0.3-1.9-0.8c-0.5-0.5-0.8-1.2-0.8-2v-18.6
		c0-0.8,0.3-1.4,0.8-2c0.5-0.5,1.2-0.8,1.9-0.8c0.8,0,1.4,0.3,1.9,0.8c0.5,0.5,0.8,1.2,0.8,2v0.8c0.8-1.1,1.9-2,3.2-2.8
		c1.3-0.8,2.7-1.2,4.3-1.2C344.1,203,346.2,203.9,347.4,205.7z"/>
	<path fill="#FFFFFF" d="M371.7,204.2c1.6,0.8,2.3,1.9,2.3,3.2c0,0.7-0.2,1.2-0.6,1.7c-0.4,0.5-0.9,0.7-1.5,0.7
		c-0.5,0-0.9-0.1-1.2-0.2c-0.3-0.1-0.6-0.3-0.9-0.5c-0.3-0.2-0.6-0.4-0.8-0.6c-0.3-0.2-0.7-0.3-1.3-0.4c-0.6-0.1-1.1-0.2-1.4-0.2
		c-2.3,0-4,0.7-5.3,2.1c-1.3,1.4-1.9,3.2-1.9,5.5c0,2.2,0.6,4,1.9,5.4c1.3,1.4,2.9,2.1,5,2.1c1.5,0,2.6-0.2,3.3-0.5
		c0.2-0.1,0.4-0.2,0.7-0.5c0.3-0.2,0.6-0.4,0.9-0.5c0.3-0.1,0.6-0.2,1-0.2c0.8,0,1.3,0.2,1.8,0.7c0.4,0.5,0.7,1.1,0.7,1.8
		c0,0.7-0.4,1.4-1.3,2c-0.8,0.6-2,1.1-3.3,1.5c-1.4,0.4-2.9,0.6-4.4,0.6c-2.3,0-4.3-0.5-6.1-1.6c-1.8-1.1-3.1-2.6-4.1-4.5
		c-1-1.9-1.4-4-1.4-6.4c0-2.4,0.5-4.6,1.5-6.5c1-1.9,2.4-3.4,4.2-4.4c1.8-1.1,3.8-1.6,6.1-1.6C368,203,370.1,203.4,371.7,204.2z"/>
	<path fill="#FFFFFF" d="M399,216.7c-0.5,0.5-1.2,0.7-1.9,0.7h-14.9c0.4,1.8,1.2,3.2,2.5,4.2c1.3,1,2.8,1.5,4.4,1.5
		c1.2,0,2.2-0.1,2.9-0.3c0.7-0.2,1.2-0.5,1.6-0.7c0.4-0.3,0.7-0.4,0.8-0.5c0.5-0.3,1.1-0.4,1.5-0.4c0.6,0,1.2,0.2,1.6,0.7
		c0.5,0.5,0.7,1,0.7,1.6c0,0.8-0.4,1.5-1.3,2.2c-0.8,0.7-2,1.3-3.4,1.8c-1.4,0.5-2.8,0.7-4.3,0.7c-2.5,0-4.7-0.5-6.6-1.6
		c-1.9-1.1-3.3-2.5-4.4-4.4c-1-1.8-1.5-3.9-1.5-6.2c0-2.6,0.5-4.9,1.6-6.8c1.1-2,2.5-3.4,4.3-4.5c1.8-1,3.7-1.6,5.7-1.6
		c2,0,3.9,0.5,5.6,1.6c1.8,1.1,3.2,2.5,4.2,4.4c1.1,1.8,1.6,3.8,1.6,6C399.8,215.7,399.5,216.2,399,216.7z M382.2,212.9h11.8v-0.3
		c-0.1-1.3-0.7-2.3-1.8-3.2c-1.1-0.9-2.4-1.4-3.8-1.4C384.9,208,382.9,209.6,382.2,212.9z"/>
</g>
<g>
	<path fill="#FFFFFF" d="M123,290.8c-1.5-0.7-2.7-1.7-3.6-3c-0.4-0.5-0.5-1.1-0.5-1.6c0-0.7,0.3-1.3,0.9-1.9
		c0.6-0.5,1.2-0.8,1.8-0.8c0.8,0,1.6,0.5,2.5,1.4c0.6,0.5,1.2,0.9,1.8,1.1c0.6,0.2,1.3,0.3,2,0.3c0.9,0,1.7-0.2,2.5-0.7
		c0.8-0.5,1.4-1.1,1.9-1.8c0.5-0.8,0.7-1.6,0.7-2.4v-18.9c0-0.8,0.3-1.4,0.9-2c0.6-0.5,1.2-0.8,2-0.8c0.8,0,1.5,0.3,2,0.8
		c0.5,0.5,0.8,1.2,0.8,2v18.9c0,1.8-0.5,3.5-1.4,5.1c-1,1.6-2.3,2.9-3.9,3.8c-1.7,0.9-3.5,1.4-5.4,1.4
		C126,291.9,124.5,291.5,123,290.8z"/>
	<path fill="#FFFFFF" d="M166.3,267.6c0.5,0.5,0.8,1.2,0.8,2v19.1c0,0.8-0.3,1.4-0.8,2c-0.5,0.5-1.2,0.8-1.9,0.8
		c-0.8,0-1.4-0.3-1.9-0.8c-0.5-0.5-0.8-1.2-0.8-1.9c-0.8,0.9-1.8,1.6-3,2.2c-1.3,0.6-2.6,0.9-4,0.9c-2.1,0-4-0.5-5.6-1.6
		c-1.7-1.1-3-2.5-4-4.4c-1-1.9-1.5-4-1.5-6.4c0-2.4,0.5-4.6,1.4-6.5c1-1.9,2.3-3.4,3.9-4.5c1.7-1.1,3.5-1.6,5.5-1.6
		c1.4,0,2.8,0.3,4.1,0.8c1.3,0.5,2.3,1.2,3.2,2v0c0-0.8,0.3-1.4,0.8-2c0.5-0.5,1.2-0.8,1.9-0.8C165.1,266.9,165.8,267.1,166.3,267.6
		z M160,284.8c1.2-1.4,1.8-3.2,1.8-5.4c0-2.2-0.6-4-1.8-5.4c-1.2-1.4-2.8-2.2-4.8-2.2c-1.9,0-3.5,0.7-4.7,2.2
		c-1.2,1.4-1.8,3.2-1.8,5.4c0,2.2,0.6,4,1.8,5.4c1.2,1.4,2.8,2.1,4.8,2.1C157.2,286.9,158.8,286.2,160,284.8z"/>
	<path fill="#FFFFFF" d="M192.7,268.1c0.5,0.5,0.7,1,0.7,1.7c0,0.4-0.1,0.8-0.4,1.4l-8.4,18.6c-0.2,0.5-0.5,0.9-0.9,1.2
		c-0.4,0.3-0.9,0.5-1.4,0.5l-0.4,0c-0.5,0-1-0.2-1.4-0.5c-0.4-0.3-0.8-0.7-1-1.3l-8.4-18.6c-0.2-0.5-0.3-1-0.3-1.4
		c0-0.6,0.3-1.1,0.8-1.6c0.5-0.5,1.1-0.7,1.9-0.7c0.6,0,1.1,0.2,1.6,0.5c0.5,0.3,0.8,0.7,1.1,1.3l6.2,14.2l6.2-14.2
		c0.2-0.6,0.6-1,1-1.3c0.4-0.3,0.9-0.4,1.4-0.4C191.6,267.4,192.2,267.6,192.7,268.1z"/>
	<path fill="#FFFFFF" d="M219.1,267.6c0.5,0.5,0.8,1.2,0.8,2v19.1c0,0.8-0.3,1.4-0.8,2c-0.5,0.5-1.2,0.8-1.9,0.8
		c-0.8,0-1.4-0.3-1.9-0.8c-0.5-0.5-0.8-1.2-0.8-1.9c-0.8,0.9-1.8,1.6-3,2.2c-1.3,0.6-2.6,0.9-4,0.9c-2.1,0-4-0.5-5.6-1.6
		c-1.7-1.1-3-2.5-4-4.4c-1-1.9-1.5-4-1.5-6.4c0-2.4,0.5-4.6,1.4-6.5c1-1.9,2.3-3.4,3.9-4.5c1.7-1.1,3.5-1.6,5.5-1.6
		c1.4,0,2.8,0.3,4.1,0.8c1.3,0.5,2.3,1.2,3.2,2v0c0-0.8,0.3-1.4,0.8-2c0.5-0.5,1.2-0.8,1.9-0.8C217.9,266.9,218.6,267.1,219.1,267.6
		z M212.8,284.8c1.2-1.4,1.8-3.2,1.8-5.4c0-2.2-0.6-4-1.8-5.4c-1.2-1.4-2.8-2.2-4.8-2.2c-1.9,0-3.5,0.7-4.7,2.2
		c-1.2,1.4-1.8,3.2-1.8,5.4c0,2.2,0.6,4,1.8,5.4c1.2,1.4,2.8,2.1,4.8,2.1C210,286.9,211.6,286.2,212.8,284.8z"/>
	<path fill="#FFFFFF" d="M223.9,286.3c0-0.8,0.4-1.4,1.2-2c0.4-0.3,0.9-0.4,1.3-0.4c0.6,0,1.2,0.3,1.8,0.9c0.9,0.9,1.8,1.6,2.8,2.1
		c1,0.5,2.2,0.7,3.5,0.7c2.3-0.1,3.5-1,3.5-2.7c0-0.9-0.4-1.5-1.2-2c-0.8-0.5-2-0.9-3.7-1.4c-1.7-0.5-3.2-1-4.3-1.4
		c-1.1-0.5-2-1.2-2.8-2.2c-0.8-1-1.2-2.3-1.2-3.9c0-1.4,0.4-2.7,1.2-3.8c0.8-1.1,1.9-1.9,3.2-2.5c1.3-0.6,2.8-0.9,4.3-0.9
		c1.5,0,3.1,0.3,4.6,0.9c1.5,0.6,2.7,1.4,3.6,2.5c0.4,0.5,0.6,1,0.6,1.6c0,0.7-0.3,1.3-0.9,1.7c-0.4,0.3-0.9,0.5-1.4,0.5
		c-0.7,0-1.2-0.2-1.6-0.6c-0.5-0.7-1.2-1.2-2.1-1.6c-0.9-0.4-1.8-0.6-2.9-0.6c-2.3,0-3.4,0.8-3.4,2.5c0,0.7,0.2,1.2,0.6,1.6
		c0.4,0.4,1,0.7,1.6,0.9c0.6,0.2,1.6,0.5,2.7,0.8c1.6,0.5,3,0.9,4.1,1.4c1.1,0.5,2,1.2,2.7,2.2c0.8,1,1.1,2.3,1.1,3.9
		c0,1.5-0.4,2.8-1.3,3.9c-0.9,1.1-2,1.9-3.4,2.5c-1.4,0.6-2.8,0.9-4.2,0.9c-2,0-3.8-0.3-5.5-1c-1.7-0.7-3.1-1.7-4.2-3.2
		C224.1,287.3,223.9,286.9,223.9,286.3z"/>
	<path fill="#FFFFFF" d="M264.1,268.1c1.6,0.8,2.3,1.9,2.3,3.2c0,0.7-0.2,1.2-0.6,1.7c-0.4,0.5-0.9,0.7-1.5,0.7
		c-0.5,0-0.9-0.1-1.2-0.2s-0.6-0.3-0.9-0.5c-0.3-0.2-0.6-0.4-0.8-0.6c-0.3-0.1-0.7-0.3-1.3-0.4c-0.6-0.1-1.1-0.2-1.4-0.2
		c-2.3,0-4,0.7-5.3,2.1c-1.3,1.4-1.9,3.2-1.9,5.5c0,2.2,0.6,4,1.9,5.4c1.3,1.4,2.9,2.1,5,2.1c1.5,0,2.6-0.2,3.3-0.5
		c0.2-0.1,0.4-0.2,0.7-0.5c0.3-0.2,0.6-0.4,0.9-0.5c0.3-0.1,0.6-0.2,1-0.2c0.8,0,1.3,0.2,1.8,0.7c0.4,0.5,0.7,1.1,0.7,1.8
		c0,0.7-0.4,1.4-1.3,2c-0.8,0.6-2,1.1-3.3,1.5c-1.4,0.4-2.9,0.6-4.4,0.6c-2.3,0-4.3-0.5-6.1-1.6c-1.8-1.1-3.1-2.6-4.1-4.5
		c-1-1.9-1.4-4-1.4-6.4c0-2.4,0.5-4.6,1.5-6.5c1-1.9,2.4-3.4,4.2-4.4c1.8-1.1,3.8-1.6,6.1-1.6C260.5,266.9,262.6,267.3,264.1,268.1z
		"/>
	<path fill="#FFFFFF" d="M285.5,267.6c0.6,0.5,0.9,1.1,0.9,1.8c0,0.9-0.2,1.6-0.7,2.1c-0.5,0.5-1.1,0.7-1.7,0.7
		c-0.5,0-1-0.1-1.5-0.3c-0.1,0-0.3-0.1-0.6-0.2c-0.3-0.1-0.7-0.1-1-0.1c-0.8,0-1.5,0.2-2.3,0.7c-0.7,0.5-1.3,1.2-1.8,2.2
		c-0.5,1-0.7,2.1-0.7,3.5v10.7c0,0.8-0.3,1.4-0.8,2c-0.5,0.5-1.2,0.8-1.9,0.8c-0.8,0-1.4-0.3-1.9-0.8c-0.5-0.5-0.8-1.2-0.8-2v-18.6
		c0-0.8,0.3-1.4,0.8-2c0.5-0.5,1.2-0.8,1.9-0.8c0.8,0,1.4,0.3,1.9,0.8c0.5,0.5,0.8,1.2,0.8,2v0.6c0.7-1.2,1.7-2.2,3-2.8
		c1.3-0.6,2.7-1,4.1-1C284.1,266.9,284.9,267.1,285.5,267.6z"/>
	<path fill="#FFFFFF" d="M290.4,263.9c-0.4-0.3-0.6-0.9-0.6-1.8v-0.9c0-0.8,0.2-1.4,0.7-1.8c0.5-0.3,1.2-0.5,2.2-0.5
		c1.1,0,1.8,0.2,2.2,0.5c0.4,0.3,0.6,0.9,0.6,1.8v0.9c0,0.9-0.2,1.5-0.7,1.8c-0.4,0.3-1.2,0.5-2.2,0.5
		C291.6,264.4,290.8,264.2,290.4,263.9z M294.6,290.6c-0.5,0.5-1.2,0.8-1.9,0.8c-0.8,0-1.4-0.3-1.9-0.8c-0.5-0.5-0.8-1.2-0.8-2
		v-18.6c0-0.8,0.3-1.4,0.8-2c0.5-0.5,1.2-0.8,1.9-0.8c0.8,0,1.4,0.3,1.9,0.8c0.5,0.5,0.8,1.2,0.8,2v18.6
		C295.3,289.5,295.1,290.1,294.6,290.6z"/>
	<path fill="#FFFFFF" d="M319,268.5c1.7,1.1,3,2.5,4,4.4c1,1.9,1.5,4,1.5,6.4c0,2.4-0.5,4.6-1.4,6.5c-1,1.9-2.3,3.4-3.9,4.5
		c-1.7,1.1-3.5,1.6-5.5,1.6c-1.4,0-2.8-0.3-4.1-0.9c-1.3-0.6-2.3-1.3-3.2-2.1v8.8c0,0.8-0.3,1.4-0.8,2c-0.5,0.5-1.2,0.8-1.9,0.8
		c-0.8,0-1.4-0.3-1.9-0.8c-0.5-0.5-0.8-1.2-0.8-2v-27.6c0-0.8,0.3-1.4,0.8-2c0.5-0.5,1.2-0.8,1.9-0.8c0.8,0,1.4,0.3,1.9,0.8
		c0.5,0.5,0.8,1.2,0.8,2v0.2c0.7-0.9,1.7-1.7,3-2.4c1.3-0.7,2.6-1,4.1-1C315.4,266.9,317.3,267.4,319,268.5z M317.4,284.8
		c1.2-1.4,1.8-3.2,1.8-5.4c0-2.2-0.6-4-1.8-5.4c-1.2-1.4-2.8-2.1-4.8-2.1c-2,0-3.5,0.7-4.8,2.1c-1.2,1.4-1.8,3.2-1.8,5.4
		c0,2.2,0.6,4,1.8,5.4c1.2,1.4,2.8,2.2,4.8,2.2C314.6,286.9,316.2,286.2,317.4,284.8z"/>
	<path fill="#FFFFFF" d="M341.7,286.9c0.3,0.4,0.5,0.9,0.5,1.6c0,0.8-0.4,1.5-1.3,2.1c-0.9,0.6-1.9,0.8-3,0.8
		c-1.9,0-3.4-0.4-4.7-1.2c-1.3-0.8-1.9-2.5-1.9-5.1v-12.4h-2.1c-0.7,0-1.3-0.2-1.8-0.7c-0.5-0.5-0.7-1.1-0.7-1.8
		c0-0.7,0.2-1.3,0.7-1.7c0.5-0.5,1.1-0.7,1.8-0.7h2.1v-2.9c0-0.8,0.3-1.4,0.8-2c0.5-0.5,1.2-0.8,2-0.8c0.8,0,1.4,0.3,1.9,0.8
		c0.5,0.5,0.8,1.2,0.8,2v2.9h3.2c0.7,0,1.3,0.2,1.8,0.7c0.5,0.5,0.7,1.1,0.7,1.8c0,0.7-0.2,1.3-0.7,1.7c-0.5,0.5-1.1,0.7-1.8,0.7
		h-3.2v12.2c0,0.6,0.2,1.1,0.5,1.4c0.3,0.3,0.8,0.4,1.4,0.4c0.2,0,0.6-0.1,1-0.2c0.4-0.2,0.7-0.2,1-0.2
		C341,286.3,341.4,286.5,341.7,286.9z"/>
</g>
<g>
	<path fill="#30ABAA" d="M157.9,132.8c0.6,0.6,0.9,1.3,0.9,2.1c0,0.3,0,0.6-0.1,0.9l-8.9,26.1c-0.2,0.5-0.5,0.9-0.9,1.2
		c-0.5,0.3-0.9,0.5-1.5,0.5c-0.5,0-1.1-0.2-1.5-0.5c-0.5-0.3-0.9-0.7-1.1-1.3l-6.4-14.6l-6.4,14.6c-0.3,0.6-0.6,1-1.1,1.3
		c-0.5,0.3-1,0.5-1.5,0.5c-0.5,0-1-0.2-1.5-0.5c-0.5-0.3-0.8-0.7-0.9-1.2l-8.9-26.1c-0.1-0.3-0.1-0.6-0.1-0.9c0-0.8,0.3-1.5,0.9-2.1
		c0.6-0.6,1.3-0.8,2.1-0.8c0.6,0,1.1,0.2,1.6,0.5c0.5,0.3,0.8,0.7,1,1.3l6.7,20.4l5.9-14.1c0.2-0.5,0.6-1,1-1.3
		c0.5-0.3,1-0.5,1.5-0.4c0.6,0,1.1,0.1,1.5,0.4c0.4,0.3,0.8,0.7,1,1.3l5.5,13.9l6.7-20.2c0.2-0.5,0.5-1,1-1.3c0.5-0.3,1-0.5,1.6-0.5
		C156.6,132,157.3,132.3,157.9,132.8z"/>
	<path fill="#30ABAA" d="M182.6,152.8c-0.5,0.5-1.2,0.7-1.9,0.7h-14.9c0.4,1.8,1.2,3.2,2.5,4.2c1.3,1,2.8,1.5,4.4,1.5
		c1.2,0,2.2-0.1,2.9-0.3c0.7-0.2,1.2-0.5,1.6-0.7c0.4-0.3,0.7-0.4,0.8-0.5c0.5-0.3,1.1-0.4,1.5-0.4c0.6,0,1.2,0.2,1.6,0.7
		c0.5,0.5,0.7,1,0.7,1.6c0,0.8-0.4,1.5-1.3,2.2c-0.8,0.7-2,1.3-3.4,1.8c-1.4,0.5-2.8,0.7-4.3,0.7c-2.5,0-4.7-0.5-6.6-1.6
		c-1.9-1.1-3.3-2.5-4.4-4.4c-1-1.8-1.5-3.9-1.5-6.2c0-2.6,0.5-4.9,1.6-6.8c1.1-2,2.5-3.4,4.3-4.5c1.8-1,3.7-1.6,5.7-1.6
		c2,0,3.9,0.5,5.6,1.6c1.8,1.1,3.2,2.5,4.2,4.4c1.1,1.8,1.6,3.8,1.6,6C183.4,151.8,183.1,152.4,182.6,152.8z M165.9,149h11.8v-0.3
		c-0.1-1.3-0.7-2.3-1.8-3.2c-1.1-0.9-2.4-1.4-3.8-1.4C168.5,144.1,166.5,145.7,165.9,149z"/>
	<path fill="#30ABAA" d="M206.1,140.7c1.7,1.1,3,2.5,4,4.4c1,1.9,1.5,4,1.5,6.4c0,2.4-0.5,4.6-1.4,6.5c-1,1.9-2.3,3.4-3.9,4.5
		c-1.7,1.1-3.5,1.6-5.5,1.6c-1.4,0-2.8-0.3-4.1-0.9c-1.3-0.6-2.3-1.3-3.2-2.1v0.3c0,0.8-0.3,1.4-0.8,2c-0.5,0.5-1.2,0.8-1.9,0.8
		c-0.8,0-1.4-0.3-1.9-0.8c-0.5-0.5-0.8-1.2-0.8-2v-28.3c0-0.8,0.3-1.4,0.8-2c0.5-0.5,1.2-0.8,1.9-0.8c0.8,0,1.4,0.3,1.9,0.8
		c0.5,0.5,0.8,1.2,0.8,2v9.4c0.7-0.9,1.7-1.7,3-2.4c1.3-0.7,2.6-1,4.1-1C202.5,139.1,204.4,139.7,206.1,140.7z M204.5,157
		c1.2-1.4,1.8-3.2,1.8-5.4s-0.6-4-1.8-5.4c-1.2-1.4-2.8-2.1-4.8-2.1c-2,0-3.5,0.7-4.8,2.1c-1.2,1.4-1.8,3.2-1.8,5.4s0.6,4,1.8,5.4
		c1.2,1.4,2.8,2.2,4.8,2.2C201.7,159.2,203.3,158.5,204.5,157z"/>
	<path fill="#30ABAA" d="M225.5,136c-0.4,0.6-0.6,1.2-0.6,1.9v2.1h4.1c0.7,0,1.3,0.2,1.8,0.7c0.5,0.5,0.7,1.1,0.7,1.8
		c0,0.7-0.2,1.3-0.7,1.8c-0.5,0.5-1.1,0.7-1.8,0.7h-4.1v16c0,0.8-0.3,1.4-0.8,2c-0.5,0.5-1.2,0.8-1.9,0.8c-0.8,0-1.4-0.3-1.9-0.8
		c-0.5-0.5-0.8-1.2-0.8-2v-16H217c-0.7,0-1.3-0.2-1.8-0.7c-0.5-0.5-0.7-1.1-0.7-1.8c0-0.7,0.2-1.3,0.7-1.8c0.5-0.5,1.1-0.7,1.8-0.7
		h2.4V138c0-2.3,0.8-4.1,2.3-5.5c1.5-1.4,3.8-2.1,6.7-2.1c1.1,0,2.1,0.2,2.9,0.7c0.8,0.5,1.2,1.1,1.2,2.1c0,0.7-0.2,1.3-0.6,1.8
		c-0.4,0.5-0.9,0.7-1.5,0.7c-0.2,0-0.3,0-0.5,0c-0.2,0-0.3-0.1-0.5-0.1c-0.7-0.2-1.3-0.3-1.8-0.3C226.6,135.1,225.9,135.4,225.5,136
		z"/>
	<path fill="#30ABAA" d="M256.4,158.1c-1.1,1.9-2.6,3.4-4.4,4.4c-1.9,1.1-3.9,1.6-6.2,1.6c-2.3,0-4.4-0.5-6.2-1.6
		c-1.9-1.1-3.3-2.5-4.4-4.4c-1.1-1.9-1.6-4.1-1.6-6.5c0-2.4,0.5-4.6,1.6-6.5c1.1-1.9,2.6-3.4,4.4-4.5c1.9-1.1,3.9-1.6,6.2-1.6
		c2.3,0,4.3,0.5,6.2,1.6c1.9,1.1,3.4,2.6,4.4,4.5c1.1,1.9,1.6,4.1,1.6,6.5C258,154.1,257.5,156.2,256.4,158.1z M251.7,147.7
		c-0.6-1.2-1.4-2.1-2.5-2.7c-1-0.6-2.2-0.9-3.4-0.9s-2.4,0.3-3.4,0.9c-1,0.6-1.9,1.5-2.5,2.7c-0.6,1.2-0.9,2.5-0.9,3.9
		c0,1.5,0.3,2.8,0.9,3.9c0.6,1.1,1.4,2,2.5,2.7c1,0.6,2.2,0.9,3.4,0.9s2.4-0.3,3.4-0.9c1-0.6,1.9-1.5,2.5-2.7
		c0.6-1.1,0.9-2.4,0.9-3.9C252.6,150.2,252.3,148.9,251.7,147.7z"/>
	<path fill="#30ABAA" d="M281.8,141.9c1.2,1.8,1.8,4.3,1.8,7.6v11.5c0,0.8-0.3,1.4-0.8,2c-0.5,0.5-1.2,0.8-1.9,0.8
		c-0.8,0-1.4-0.3-1.9-0.8c-0.5-0.5-0.8-1.2-0.8-2v-11.5c0-1.7-0.3-3-1-3.9c-0.7-0.9-1.9-1.4-3.6-1.4c-1.7,0-3.1,0.5-4.1,1.5
		c-1,1-1.5,2.3-1.5,3.8v11.5c0,0.8-0.3,1.4-0.8,2c-0.5,0.5-1.2,0.8-1.9,0.8c-0.8,0-1.4-0.3-1.9-0.8c-0.5-0.5-0.8-1.2-0.8-2v-18.6
		c0-0.8,0.3-1.4,0.8-2c0.5-0.5,1.2-0.8,1.9-0.8c0.8,0,1.4,0.3,1.9,0.8c0.5,0.5,0.8,1.2,0.8,2v0.8c0.8-1.1,1.9-2,3.2-2.8
		c1.3-0.8,2.7-1.2,4.3-1.2C278.5,139.1,280.6,140,281.8,141.9z"/>
	<path fill="#30ABAA" d="M302.2,159.2c0.3,0.4,0.5,0.9,0.5,1.6c0,0.8-0.4,1.5-1.3,2.1c-0.9,0.6-1.9,0.8-3,0.8
		c-1.9,0-3.4-0.4-4.7-1.2c-1.3-0.8-1.9-2.5-1.9-5.1V145h-2.1c-0.7,0-1.3-0.2-1.8-0.7c-0.5-0.5-0.7-1.1-0.7-1.8
		c0-0.7,0.2-1.3,0.7-1.7c0.5-0.5,1.1-0.7,1.8-0.7h2.1v-2.9c0-0.8,0.3-1.4,0.8-2c0.5-0.5,1.2-0.8,2-0.8c0.8,0,1.4,0.3,1.9,0.8
		c0.5,0.5,0.8,1.2,0.8,2v2.9h3.2c0.7,0,1.3,0.2,1.8,0.7c0.5,0.5,0.7,1.1,0.7,1.8c0,0.7-0.2,1.3-0.7,1.7c-0.5,0.5-1.1,0.7-1.8,0.7
		h-3.2v12.2c0,0.6,0.2,1.1,0.5,1.4c0.3,0.3,0.8,0.4,1.4,0.4c0.2,0,0.6-0.1,1-0.2c0.4-0.2,0.7-0.2,1-0.2
		C301.4,158.6,301.8,158.8,302.2,159.2z"/>
	<path fill="#30ABAA" d="M306.9,158.6c0-0.8,0.4-1.4,1.2-2c0.4-0.3,0.9-0.4,1.3-0.4c0.6,0,1.2,0.3,1.8,0.9c0.9,0.9,1.8,1.6,2.8,2.1
		c1,0.5,2.2,0.7,3.5,0.7c2.3-0.1,3.5-1,3.5-2.7c0-0.9-0.4-1.5-1.2-2c-0.8-0.5-2-0.9-3.7-1.4c-1.7-0.5-3.2-1-4.3-1.4
		c-1.1-0.5-2-1.2-2.8-2.2c-0.8-1-1.2-2.3-1.2-3.9c0-1.4,0.4-2.7,1.2-3.8c0.8-1.1,1.9-1.9,3.2-2.5c1.3-0.6,2.8-0.9,4.3-0.9
		c1.5,0,3.1,0.3,4.6,0.9c1.5,0.6,2.7,1.4,3.6,2.5c0.4,0.5,0.6,1,0.6,1.6c0,0.7-0.3,1.3-0.9,1.7c-0.4,0.3-0.9,0.5-1.4,0.5
		c-0.7,0-1.2-0.2-1.6-0.6c-0.5-0.7-1.2-1.2-2.1-1.6c-0.9-0.4-1.8-0.6-2.9-0.6c-2.3,0-3.4,0.8-3.4,2.5c0,0.7,0.2,1.2,0.6,1.6
		c0.4,0.4,1,0.7,1.6,0.9c0.6,0.2,1.6,0.5,2.7,0.8c1.6,0.5,3,0.9,4.1,1.4c1.1,0.5,2,1.2,2.8,2.2c0.8,1,1.1,2.3,1.1,3.9
		c0,1.5-0.4,2.8-1.3,3.9c-0.9,1.1-2,1.9-3.4,2.5c-1.4,0.6-2.8,0.9-4.2,0.9c-2,0-3.8-0.3-5.5-1c-1.7-0.7-3.1-1.7-4.2-3.2
		C307,159.6,306.9,159.1,306.9,158.6z"/>
</g>
</svg>
