<?xml version="1.0" encoding="utf-8"?>
<!-- Generator: Adobe Illustrator 18.0.0, SVG Export Plug-In . SVG Version: 6.00 Build 0)  -->
<!DOCTYPE svg PUBLIC "-//W3C//DTD SVG 1.1//EN" "http://www.w3.org/Graphics/SVG/1.1/DTD/svg11.dtd">
<svg version="1.1" id="Calque_1" xmlns="http://www.w3.org/2000/svg" xmlns:xlink="http://www.w3.org/1999/xlink" x="0px" y="0px"
	 viewBox="-10.1 84.6 769 330.9" enable-background="new -10.1 84.6 769 330.9" xml:space="preserve">
<rect x="-10.1" y="84.6" fill="#36BADF" width="769" height="330.9"/>
<g>
	<path fill="#FFFFFF" d="M613.4,117.5c1.8,0.4,2,2.5,2.8,4.1c-1.5,0-1.6,1.7-3.6,1.1C611.5,120.8,611.9,118.6,613.4,117.5z"/>
	<path fill="#FFFFFF" d="M613.8,93c0.3,0,0.5,0,0.8,0C614.5,93.4,613.9,93.6,613.8,93z"/>
	<path fill="#FFFFFF" d="M614.1,148.1c0.4-2.3,0.8-1.7,2-3c0.1,2.1,1.9,3,0.4,4.5C615,150.1,615.1,148.4,614.1,148.1z"/>
	<path fill="#FFFFFF" d="M616.5,173.7c1.6-0.2,1.1,2.4,2.5,2.5c-0.5,1.1-1.3,1.8-2.4,2C614.6,177.3,614.8,174.7,616.5,173.7z"/>
	<path fill="#FFFFFF" d="M617.3,356.7C617.1,356.9,617.6,356.4,617.3,356.7L617.3,356.7z"/>
	<path fill="#FFFFFF" d="M618.1,209.8c0-2.9-0.5-6.3,2-6c0,2.6,1.8,3.1,2,5.5C621,210.7,619.6,211.1,618.1,209.8z"/>
	<path fill="#FFFFFF" d="M620.1,261.9c1.1,0.7,1.3-0.4,2.4,0.5c-0.4,2.2,0,1.7,0.4,3.5c0.5-0.2,0.8-0.6,0.8-1.5
		C627.2,271.6,615.1,271.3,620.1,261.9z"/>
	<path fill="#FFFFFF" d="M619.8,230.8c1.9-0.5,2.4,1.1,3.6,1.5c-1.1,1.7,0.4,3.2,1.1,4.1C622.4,241.8,617,234.5,619.8,230.8z"/>
	<path fill="#FFFFFF" d="M620.6,307.1c0.1-2.6,0.6-4.5,2.4-5c2,0.2,1.5,3.5,2,5.5C623.6,308.8,621.5,308.8,620.6,307.1z"/>
	<path fill="#FFFFFF" d="M622.2,393.3c-1.6-2.9-2.2-10.6,1.1-10.5C626.2,382.8,628.3,393.4,622.2,393.3z"/>
	<path fill="#FFFFFF" d="M623,352.2c0.3,0.1,0.4,0.5,0.8,0.5c3.2,1.9,3.3,10-0.4,9.5C620.5,361.8,619.8,353.9,623,352.2z"/>
	<path fill="#FFFFFF" d="M621.7,325.1c5.2-1.9,5.6,9.4,2,9.5C620.8,334.7,620.1,329,621.7,325.1z"/>
	<path fill="#FFFFFF" d="M623.4,263.4C623.2,263.6,623.7,263.1,623.4,263.4L623.4,263.4z"/>
	<path fill="#FFFFFF" d="M625,235.8c-0.5-0.1-0.4-0.9-0.4-1.5C625.1,234.4,624.9,235.2,625,235.8z"/>
	<path fill="#FFFFFF" d="M637,186.3c1.3,1.2,0.6,5.2,2.8,5.5c-0.9,2.7-0.5,7-4.4,6C633.7,195,633.3,186.6,637,186.3z"/>
	<path fill="#FFFFFF" d="M636.2,95.5c2.8,0.2,3.1,3.5,4.1,6c-0.8-0.2-0.7,0.7-0.8,1.5c-0.9,0-1.9,0-2.8,0
		C635.4,101.3,634.2,97.1,636.2,95.5z"/>
	<path fill="#FFFFFF" d="M639.8,401.8c-1.1,0-2.2,0-3.2,0c-1.2-1.4-0.8-5.5,1.6-6C639.6,396.6,639.6,400.3,639.8,401.8z"/>
	<path fill="#FFFFFF" d="M637.4,119.6c0.5,0,1.1,0,1.6,0c1.7,2.3,1.8,6.5,3.2,9c-0.6,1.6-1.8,2.5-4,2
		C636.7,128.4,635.1,122.1,637.4,119.6z"/>
	<path fill="#FFFFFF" d="M641.9,360.7c2.6,3.4,1.4,14.3-2.4,13.6C635.3,373.4,637.8,361.1,641.9,360.7z M640.3,364.2
		C640.5,363.9,640.1,364.4,640.3,364.2L640.3,364.2z"/>
	<path fill="#FFFFFF" d="M640.3,155.6c0.6,1.5,0.9,3.5,2,4.5C639.6,167.4,634.3,156.5,640.3,155.6z"/>
	<path fill="#FFFFFF" d="M639.8,329.6c0.8,0,1.6,0,2.4,0c0.7,2.3-0.5,4.1,1.1,4.5C642.6,342.8,636.1,334.4,639.8,329.6z"/>
	<path fill="#FFFFFF" d="M639.5,296c0.6,0,1.6,0.2,1.6-0.5c1.8,1.8,0.8,3.9,2,6.5C640.1,306.3,637,299.7,639.5,296z"/>
	<path fill="#FFFFFF" d="M639.5,324.6C639.3,324.8,639.7,324.3,639.5,324.6L639.5,324.6z"/>
	<path fill="#FFFFFF" d="M639.5,233.4c1.1-0.6,2-0.6,3.2,0c0,1.8-0.4,4.1,0.8,4.5C641.9,243.3,637.3,238.5,639.5,233.4z"/>
	<path fill="#FFFFFF" d="M643.1,265c-0.4,2.6,0.4,4.1,1.6,5C641.9,281.2,635.3,262.7,643.1,265z"/>
	<path fill="#FFFFFF" d="M641.9,125.1c0.7,0.1,0.9,0.9,0.8,2C641.9,127,641.8,126.3,641.9,125.1z"/>
	<path fill="#FFFFFF" d="M643.4,200.7c-0.5-0.1-0.4-1.1,0-1.1C644.1,200,643.4,200.2,643.4,200.7z"/>
	<path fill="#FFFFFF" d="M644.2,268.4c-0.1-0.1-0.7-1.1-0.4-1.5C644.1,266.6,644.9,268.9,644.2,268.4z"/>
	<path fill="#FFFFFF" d="M657.1,178.8c3.5,1.4,1.4,8.5-2,6.5C653.9,182.5,655.4,179.5,657.1,178.8z M657.9,182.7
		C658.1,182.4,657.7,182.9,657.9,182.7L657.9,182.7z M657.9,181.7C658.1,181.4,657.7,181.9,657.9,181.7L657.9,181.7z"/>
	<path fill="#FFFFFF" d="M655.1,126.1c1.1-0.1,1.7-1,2.8-1.1c2.2,1.8,1.9,6.7-0.4,8C654.1,133.1,654.8,129.6,655.1,126.1z"/>
	<path fill="#FFFFFF" d="M659.1,95.5c3.6,2.4,0.4,11.4-3.2,7.5C656.5,99.9,656.2,95.7,659.1,95.5z"/>
	<path fill="#FFFFFF" d="M656.3,159.2c0-2.4-0.2-4.9,0.4-6.5c1.7,0.1,1.6-0.6,2.8,0C661.6,155.4,659.6,161.5,656.3,159.2z"/>
	<path fill="#FFFFFF" d="M658.7,210.8c3.8,0.6,2.4,9.2-1.6,6.5C656.2,213.5,657.9,213.4,658.7,210.8z"/>
	<path fill="#FFFFFF" d="M659.9,300.5c0.9-0.1,0.9-1.3,0-1.5c0.1-0.4,0.4-0.6,0.8-0.5c0.3,0.7,0.5,0,0,0c-0.7-1,0.2-0.9,0-2.5
		c0.5,0,1.1,0,1.6,0c1.1,2.6,1.1,6.2-1.1,7.1c-0.4-1.1-2-0.4-2-2C659.4,301,659.9,301.1,659.9,300.5z M661.5,299.6
		c0.1,0.4,0,1,0.4,1.1C661.8,300.2,661.9,299.6,661.5,299.6z"/>
	<path fill="#FFFFFF" d="M659.5,299.6C659.1,299.6,659.2,298.8,659.5,299.6L659.5,299.6z"/>
	<path fill="#FFFFFF" d="M662,238.8c0,0.6-0.5,0.7-0.4,1.5c-1.9,0.3-2.2-1.2-2.4-3c1.9,1.6,0.4-1.6,2-1.5
		C661.1,237.2,660.9,238.8,662,238.8z"/>
	<path fill="#FFFFFF" d="M659.5,326.1c-0.3-1.8,0.6-1.9,0.4-3.5c2.8,0.4,0.3-0.9,1.1-2c1.3,0.6,1.9,2.4,1.6,5
		C661.2,325.2,661,326.5,659.5,326.1z M661.5,323.1c0.1,0.4,0,1,0.4,1.1C661.8,323.7,661.9,323.1,661.5,323.1z"/>
	<path fill="#FFFFFF" d="M659.9,300.5c-0.4-0.1-0.5-0.4-0.4-1.1C659.9,299.6,659.9,299.9,659.9,300.5z"/>
	<path fill="#FFFFFF" d="M661.1,395.3c0-1.2,0.6-1.9,1.6-2c-1.4-1.8,0.9-1.5,0.4-4c2.3-0.1,2.4,2.4,2.4,5
		C663.6,395.9,663,396.3,661.1,395.3z"/>
	<path fill="#FFFFFF" d="M661.1,372.7c-0.2-1.7,0.3-2.4,0.4-3.5c1.2,0.1,0.6,0.8,2.4,1.1c-0.6-0.8-1.4-1.2-1.1-3c1.9,0.7,1.9,3,2,5
		c-1.1-0.4-1.4,0.2-1.1,1.5C662.6,373.6,661.8,373.1,661.1,372.7z"/>
	<path fill="#FFFFFF" d="M663.1,277.5c0,0.5,0,1.1,0,1.5c0.3-0.1,0.4-0.5,0.8-0.5C664.1,277.7,663.6,277.6,663.1,277.5
		c0.3-0.6,0.9-1,1.6-1.1c-0.1,2.8,0,4.1-2,5c-0.7-0.1-1.3-0.3-1.6-1.1c0.4-1.1,0.8-2,1.1-3C662.6,277.5,662.9,277.5,663.1,277.5z"/>
	<path fill="#FFFFFF" d="M663.5,346.7c2.6,1.8,1.9,5.1,0.4,7.5C660.6,353.6,662.3,348.5,663.5,346.7z"/>
	<path fill="#FFFFFF" d="M662,238.8c0-0.6,0.1-1.1,0.8-1.1c0,0.4,0,0.6,0,1.1C662.4,238.8,662.2,238.8,662,238.8z"/>
	<path fill="#FFFFFF" d="M662.8,276.5C661.1,275.9,664.3,275.9,662.8,276.5L662.8,276.5z"/>
	<path fill="#FFFFFF" d="M662.8,236.9C662.6,237.1,662.9,236.6,662.8,236.9L662.8,236.9z"/>
	<path fill="#FFFFFF" d="M663.5,257.9c0.1,0,0.3,0,0.4,0C663.8,257.4,663.5,257.6,663.5,257.9c-0.3,0-0.5,0-0.8,0
		c-0.2-2.5,1.1-0.3,1.1-2.5c0.6,0,0.9,3.7-0.4,3C663.5,258.3,663.5,258.1,663.5,257.9z"/>
	<path fill="#FFFFFF" d="M672.7,120.1c1.2-0.7,1.4,0.2,3.2,0C680.2,128.9,667.8,130,672.7,120.1z M674,123.1
		C674.2,122.7,673.8,123.3,674,123.1L674,123.1z M674.8,121.1c-0.4,0-0.5,0.9,0,1.1C674.8,121.5,675.4,121.3,674.8,121.1z"/>
	<path fill="#FFFFFF" d="M672.7,96c2.3,0.4,1.5,1.9,3.6,0.5c0.8,2.6-0.2,4.3-1.1,6C671.1,103.1,671.1,98.6,672.7,96z M675.2,98.5
		C675.4,98.2,675,98.7,675.2,98.5L675.2,98.5z"/>
	<path fill="#FFFFFF" d="M674,176.2c4.2-2.9,7.4,8.1,2.8,10.5C673.8,185.8,673.6,179.7,674,176.2z"/>
	<path fill="#FFFFFF" d="M677.1,151.7c-0.4,0-0.8,0-1.1,0c0,1.4,1,1.4,2,1.5c-0.6,1.7-1.4,2.9-3.2,3c-0.9-0.9-1.3-2.4-1.1-4.5
		C674.8,152,677.2,149.6,677.1,151.7z M676.4,153.6C676.6,153.3,676.2,153.8,676.4,153.6L676.4,153.6z"/>
	<path fill="#FFFFFF" d="M680.8,236.9c1.1,1.9,1.9,4,1.6,7.5C677.8,252.2,673,233.6,680.8,236.9z"/>
	<path fill="#FFFFFF" d="M678,207.3c4.9,0,5.1,9.8,1.6,9.5C677.1,216.6,674.7,209.9,678,207.3z"/>
	<path fill="#FFFFFF" d="M677.1,151.7C677.7,151.6,677.4,152.4,677.1,151.7L677.1,151.7z"/>
	<path fill="#FFFFFF" d="M683.9,284c-1.7,0.8-2.9,1.9-4.4,0.5c-1.4-4.3-1.8-11.3,2-10.5C683.9,274.4,684.9,280,683.9,284z"/>
	<path fill="#FFFFFF" d="M682,358.2c4.4,0.6,4.1,11.5-0.4,11.6c-0.1-1.1-1.1-1.1-1.6-1.5c0.3-4.5-1.9-7.8,0.4-10.5
		C681.4,357,681.3,360,682,358.2z"/>
	<path fill="#FFFFFF" d="M684.8,338.1c0-0.2,0-0.4,0-0.5C684.3,337.8,684.6,338.1,684.8,338.1c0,0.6,0,1.3,0,2
		c-4.1,4-6.4-6.8-1.1-6.5c1.1,0.7,1.4,2.6,1.6,4.5C685.1,338.1,684.9,338.1,684.8,338.1z M683.1,335.1
		C683.4,334.8,683.1,335.3,683.1,335.1L683.1,335.1z M683.6,338.1c0.1,0.4,0,1,0.4,1.1C683.9,338.7,683.9,338.1,683.6,338.1z"/>
	<path fill="#FFFFFF" d="M684.4,313.1c0-0.2,0-0.4,0-0.5C683.9,312.7,684.2,313.1,684.4,313.1c-2.8,4.6-5.5-4.9-3.2-8.6
		C684.4,303.2,687.7,311,684.4,313.1z M683.6,307.1c-0.4,0-0.5,0.9,0,1.1C683.6,307.5,684.2,307.3,683.6,307.1z"/>
	<path fill="#FFFFFF" d="M682,358.2C680.8,358.1,682.4,356.1,682,358.2L682,358.2z"/>
	<path fill="#FFFFFF" d="M682.8,387.3c1.7,0.7,3.3-1.5,4,4C685.2,396.2,680.1,391.7,682.8,387.3z M685.2,389.3
		C685.4,388.9,685,389.5,685.2,389.3L685.2,389.3z"/>
	<path fill="#FFFFFF" d="M685.2,325.6C685,325.8,685.4,325.3,685.2,325.6L685.2,325.6z"/>
	<path fill="#FFFFFF" d="M700,102.5c0.1,0.4,0.4,0.6,0.8,0.5c-1.1,2-4.2,2.7-5.6,0.5c0.6-2.3-0.1-3.2,0-6c1.3-0.9,1.8,0.6,3.2,1.1
		C698.9,100,698.8,102.2,700,102.5z"/>
	<path fill="#FFFFFF" d="M697.3,119c2.2,0.3,1.9,3.5,2.4,6c0.5,1.2,1.2-0.9,1.6,0.5c-0.2,1.8-1.1,0.6-0.4,2.5
		C696.1,133.1,695.1,123.4,697.3,119z"/>
	<path fill="#FFFFFF" d="M697.3,150.6c1.8-0.6,2,0,3.2,1.1c-0.2,1.9-0.2,2.8-0.8,5C696.6,156.2,697.3,152.6,697.3,150.6z"/>
	<path fill="#FFFFFF" d="M698.9,183.3c1.1-0.2,1.1-1.7,2.8-1.1c1.1,2,0,3.8,1.6,5C701.3,192.4,697.6,187.7,698.9,183.3z"/>
	<path fill="#FFFFFF" d="M700.4,123.5C700.4,123.8,700.7,123.3,700.4,123.5L700.4,123.5z"/>
	<path fill="#FFFFFF" d="M700,102.5C699.6,100.1,701.9,103.1,700,102.5L700,102.5z"/>
	<path fill="#FFFFFF" d="M702.1,378.8c6.2-2.4,5.7,10.1,1.6,10.1C700.4,388.7,700.8,382.3,702.1,378.8z"/>
	<path fill="#FFFFFF" d="M702.5,355.7c1.7,0.1,1.9-0.8,3.2,0c0.4,1.9,0.5,4,0.4,6.5c-1.3-0.8-1.4,1.8-2.8,1.5
		C700.5,363.2,700.7,358.5,702.5,355.7z M702.5,360.2C702.7,359.9,702.3,360.4,702.5,360.2L702.5,360.2z"/>
	<path fill="#FFFFFF" d="M702.1,326.6c5.9-3,5.6,8.7,1.6,8.6C700.4,334.9,701.4,330.3,702.1,326.6z"/>
	<path fill="#FFFFFF" d="M701.7,154.7C701.5,154.8,701.9,154.3,701.7,154.7L701.7,154.7z"/>
	<path fill="#FFFFFF" d="M707.7,309.6c-1.8-0.9-2,1.5-2.4,1.5c-3.3-0.1-3.3-8.1,0-8.6C707.6,302.3,708.6,304.7,707.7,309.6z
		 M705.6,307.6C705.9,307.2,705.5,307.8,705.6,307.6L705.6,307.6z"/>
	<path fill="#FFFFFF" d="M707.3,221.8c0,1.2,0.2,2.4,0.8,3c-3.1,6.6-7-5.3-2.8-6.5C706.5,218.8,706.3,221.1,707.3,221.8z"/>
	<path fill="#FFFFFF" d="M705.6,251.4c2,0.4,2.5,2.9,4.1,4.1c0,1.8-0.6,2.9-0.8,4.5c-1.1,0-1.4,1.2-3.6,1.1
		C703.4,259.2,704.1,253.2,705.6,251.4z"/>
	<path fill="#FFFFFF" d="M705.6,276c2.6,1.3,4.5,3.7,4.1,9c-1.3,0.3-1.8,1.8-3.6,1.5c-0.2-0.6-0.5-1.1-1.1-1.1
		C704.8,281.8,704.4,278.9,705.6,276z M706.4,281.5C708,280.8,704.9,280.8,706.4,281.5L706.4,281.5z"/>
	<path fill="#FFFFFF" d="M707.3,221.8c0-0.5,0-1.1,0-1.5c0.5,0.4,0.7,1.1,0.8,2C707.7,222.3,707.6,221.9,707.3,221.8z"/>
	<path fill="#FFFFFF" d="M708.5,223.8C708.3,224,708.7,223.5,708.5,223.8L708.5,223.8z"/>
	<path fill="#FFFFFF" d="M718.5,179.7c-0.5-0.1-0.4-1.1,0-1.1C719.1,178.9,718.4,179.1,718.5,179.7z"/>
	<path fill="#FFFFFF" d="M722.1,241.9c3,0.4,2.7,3.4,3.6,5.5C722.9,255.5,717,246.1,722.1,241.9z"/>
	<path fill="#FFFFFF" d="M724.2,207.8c4.1,1,3.9,7.1,0.8,9.5C719,218.3,722,209.4,724.2,207.8z"/>
	<path fill="#FFFFFF" d="M724.5,378.3c0.8-0.2,1.3,3.6,1.6,1.1c0.6,0.8,1.1,1.6,1.6,2.5c-0.4,2.5-1.1,4.5-2.8,5.5
		C721.4,386.6,722.5,380,724.5,378.3z M726.6,383.3c-0.2-0.7,0.5-2.6-0.4-2.5C726.4,382.3,725.2,382.8,726.6,383.3z"/>
	<path fill="#FFFFFF" d="M724.5,328.1c1.2-0.3,1.4,0.9,2.8,0.5c0.5,1.4,0.4,3.5,0.4,5.5C723.7,339.2,720.8,331.7,724.5,328.1z"/>
	<path fill="#FFFFFF" d="M728.5,276c0,0.9-0.1,1.6-0.4,2c-1.1-0.4-0.8,1.1-1.6,1.1c-2.1-0.9-2.9-3.4-3.2-6.5c1.1-1.9,3.3-0.4,4.8,0
		C727.9,273.5,727.2,275.7,728.5,276z"/>
	<path fill="#FFFFFF" d="M727,172.7c3,1.8,1.7,10.1-2,8c-2.5-1.9-2.4-8.1,0.4-8.6C726.5,172.1,726.3,174.7,727,172.7z M727,174.7
		c0,0.6-0.1,1.4,0.4,1.5C727.3,175.7,727.4,174.8,727,174.7z"/>
	<path fill="#FFFFFF" d="M724.2,139.6c3.2-1.1,7.3,5.3,3.6,9.5c-1.4,0.2-2.6-0.1-3.6-0.5C723.5,145.3,722.9,142.6,724.2,139.6z"/>
	<path fill="#FFFFFF" d="M726.6,355.1c0.8,2-1,4.2,1.6,4.1c-0.3,1.4-1,2.5-1.6,3.5C722.7,363.1,723,355,726.6,355.1z"/>
	<path fill="#FFFFFF" d="M724.2,401.8c-0.4-2.4,0.7-3.1,2-3.5c0.5,2.5,2.6-0.2,2.4,3c-0.7,0.2-1.8-1.6-1.7,0.5
		C726,401.8,725.1,401.8,724.2,401.8z"/>
	<path fill="#FFFFFF" d="M727.8,301.5c1.1,0.9,0.7,3.7,1.6,5c-0.5,0.5-1.5,0.5-1.6,1.5C724.3,308.1,724.4,301.8,727.8,301.5z"/>
	<path fill="#FFFFFF" d="M728.1,277.9C728.7,277.9,728.4,278.7,728.1,277.9L728.1,277.9z"/>
	<path fill="#FFFFFF" d="M728.9,401.8c-0.1,0-0.3,0-0.4,0c0-0.2,0-0.4,0-0.5C728.9,401.3,729,401.4,728.9,401.8z"/>
	<path fill="#FFFFFF" d="M728.5,276C728.5,275.4,729.1,275.6,728.5,276L728.5,276z"/>
	<path fill="#FFFFFF" d="M728.9,274C728.8,274.2,729.2,273.6,728.9,274L728.9,274z"/>
	<path fill="#FFFFFF" d="M729.4,302.6C729.2,302.7,729.6,302.2,729.4,302.6L729.4,302.6z"/>
	<path fill="#FFFFFF" d="M729.4,277.5C729.2,277.7,729.6,277.1,729.4,277.5L729.4,277.5z"/>
	<path fill="#FFFFFF" d="M729.7,305c-0.4,0-0.3-0.6-0.4-1.1C729.7,304.1,729.6,304.7,729.7,305z"/>
	<path fill="#FFFFFF" d="M747,179.2c0-0.8-0.4-1.3-0.8-1.5C746.2,178.6,746.5,179,747,179.2c0,0.4,0,0.6,0,1.1c-3,1.9-4-2.1-4.4-5
		c1.7-3.7,6.3-2.6,6,3C747.8,178.2,748.1,179.6,747,179.2z M747.8,177.7c-0.2-1-0.1-2.1-1.1-2C746.6,177,747.3,177.3,747.8,177.7z"
		/>
	<path fill="#FFFFFF" d="M747.5,117.1c-0.5,0.1-0.4,0.9-0.4,1.5C747.5,118.5,747.4,117.6,747.5,117.1c3,2.6,2,10.9-2.4,9
		c-1.4-4.1-2.6-8.4-1.1-12.5C745.7,113.8,746.1,115.9,747.5,117.1z M747.8,120.1C748.1,119.7,747.6,120.3,747.8,120.1L747.8,120.1z"
		/>
</g>
<path fill="#FFFFFF" d="M327.8,187.8c2.7,0,4.8-2.2,4.8-4.8s-2.2-4.8-4.8-4.8c-2.7,0-4.8,2.2-4.8,4.8
	C323,185.6,325.2,187.8,327.8,187.8"/>
<path fill="#FD953A" d="M512.5,153H310.3c-2,0-3.7,1.7-3.7,3.8v202.2c0,2.1,1.7,3.8,3.7,3.8h202.2c2.1,0,3.8-1.7,3.8-3.8V156.7
	C516.2,154.7,514.5,153,512.5,153 M508.7,203.5H314v-43h194.7L508.7,203.5L508.7,203.5z M314,211h194.7v144.1H314V211z"/>
<path fill="#FFFFFF" d="M366,188c2.7,0,4.9-2.2,4.9-5c0-2.7-2.2-5-4.9-5c-2.7,0-5,2.2-5,5C361.1,185.7,363.3,188,366,188"/>
<path fill="#FFFFFF" d="M346.9,188c2.7,0,4.9-2.2,4.9-5c0-2.7-2.2-5-4.9-5c-2.7,0-5,2.2-5,5C341.9,185.7,344.1,188,346.9,188"/>
<g>
	<g>
		<path fill="#FFFFFF" d="M509.1,398.3c-0.1,0.1-0.3,0.1-0.5,0.1l-13.4-2.1l-6.2,12.1c-0.2,0.3-0.5,0.5-0.8,0.4
			c-0.3-0.1-0.6-0.3-0.7-0.7l-2.1-13.4l-13.4-2.1c-0.3-0.1-0.6-0.3-0.7-0.7c-0.1-0.3,0.1-0.7,0.4-0.8l12.1-6.2l-2.1-13.4
			c-0.1-0.3,0.1-0.7,0.4-0.8l0,0c0.3-0.2,0.7-0.1,0.9,0.1l9.6,9.6l12.1-6.2c0.3-0.2,0.7-0.1,0.9,0.1c0.2,0.2,0.3,0.6,0.1,0.9
			l-6.2,12.1l9.6,9.6c0.2,0.2,0.3,0.6,0.1,0.9C509.3,398.1,509.2,398.2,509.1,398.3L509.1,398.3z M474.6,391.4l11.6,1.8
			c0.3,0.1,0.6,0.3,0.7,0.7l1.8,11.6L494,395c0.2-0.3,0.5-0.5,0.8-0.4l11.6,1.8l-8.3-8.3c-0.2-0.2-0.3-0.6-0.1-0.9l5.3-10.4
			l-10.4,5.3c-0.3,0.2-0.7,0.1-0.9-0.1l-8.3-8.3l1.8,11.6c0.1,0.3-0.1,0.7-0.4,0.8L474.6,391.4L474.6,391.4z"/>
	</g>
</g>
<g>
	<g>
		<path fill="#36DFDE" d="M564.8,378.9c-0.2,0-0.3-0.1-0.4-0.2l-9.6-9.3l-11.8,6.3c-0.3,0.2-0.7,0.1-0.9-0.1
			c-0.2-0.2-0.3-0.6-0.2-0.9l5.8-12l-9.6-9.3c-0.2-0.2-0.3-0.6-0.2-0.9c0.1-0.3,0.5-0.5,0.8-0.4l13.2,1.9l5.8-12
			c0.1-0.3,0.5-0.5,0.8-0.4l0,0c0.3,0,0.6,0.3,0.7,0.6l2.3,13.1l13.2,1.9c0.3,0,0.6,0.3,0.7,0.6s-0.1,0.7-0.4,0.8l-11.8,6.3
			l2.3,13.1c0.1,0.3-0.1,0.7-0.4,0.8C565.1,378.9,565,378.9,564.8,378.9L564.8,378.9z M541,354l8.3,8c0.2,0.2,0.3,0.6,0.2,0.9
			l-5,10.3l10.2-5.4c0.3-0.2,0.7-0.1,0.9,0.1l8.3,8l-2-11.3c-0.1-0.3,0.1-0.7,0.4-0.8l10.2-5.4l-11.4-1.6c-0.3,0-0.6-0.3-0.7-0.6
			l-2-11.3l-5,10.3c-0.1,0.3-0.5,0.5-0.8,0.4L541,354L541,354z"/>
	</g>
</g>
<g>
	<g>
		<path fill="#FD8A39" d="M584.9,325.3c-0.3,0-0.5,0-0.8-0.2l-19.1-12l-17.3,14.4c-0.4,0.4-1.1,0.4-1.6,0.1
			c-0.5-0.3-0.7-0.9-0.6-1.4l5.5-21.9l-19.1-12c-0.5-0.3-0.7-0.9-0.6-1.4c0.1-0.6,0.6-1,1.2-1l22.5-1.5l5.5-21.9
			c0.1-0.6,0.6-1,1.2-1l0,0c0.6,0,1.1,0.3,1.3,0.8l8.4,20.9l22.5-1.5c0.6,0,1.1,0.3,1.3,0.8c0.2,0.5,0.1,1.1-0.4,1.5l-17.3,14.4
			l8.4,20.9c0.2,0.5,0.1,1.1-0.4,1.5C585.4,325.2,585.2,325.3,584.9,325.3L584.9,325.3z M536.8,292.2l16.5,10.4
			c0.5,0.3,0.7,0.9,0.6,1.4l-4.8,18.8l14.9-12.4c0.4-0.4,1.1-0.4,1.6-0.1l16.5,10.4l-7.2-18c-0.2-0.5-0.1-1.1,0.4-1.5l14.9-12.5
			l-19.4,1.3c-0.6,0-1.1-0.3-1.3-0.8l-7.2-18l-4.8,18.8c-0.1,0.6-0.6,1-1.2,1L536.8,292.2L536.8,292.2z"/>
	</g>
</g>
<g>
	<g>
		<path fill="#FD953A" d="M226.1,141.1c-0.2,0.1-0.4,0.1-0.6,0.1l-17.4-2.8l-8,15.7c-0.2,0.4-0.6,0.6-1.1,0.6
			c-0.4-0.1-0.8-0.4-0.9-0.9l-2.7-17.4l-17.4-2.8c-0.4-0.1-0.8-0.4-0.9-0.9c-0.1-0.4,0.2-0.9,0.6-1.1l15.7-8l-2.7-17.4
			c-0.1-0.4,0.2-0.9,0.6-1.1l0,0c0.4-0.2,0.9-0.1,1.2,0.2l12.4,12.4l15.7-8c0.4-0.2,0.9-0.1,1.2,0.2c0.3,0.3,0.4,0.8,0.2,1.2
			l-8,15.7l12.4,12.4c0.3,0.3,0.4,0.8,0.2,1.2C226.4,140.9,226.3,141,226.1,141.1L226.1,141.1z M181.5,132.2l15,2.4
			c0.4,0.1,0.8,0.4,0.9,0.9l2.4,15l6.9-13.5c0.2-0.4,0.6-0.6,1.1-0.6l15,2.4L211.9,128c-0.3-0.3-0.4-0.8-0.2-1.2l6.9-13.5l-13.5,6.9
			c-0.4,0.2-0.9,0.1-1.2-0.2l-10.7-10.7l2.4,15c0.1,0.4-0.2,0.9-0.6,1.1L181.5,132.2L181.5,132.2z"/>
	</g>
</g>
<g>
	<g>
		<path fill="#FFFFFF" d="M398.3,136c-0.2,0-0.3-0.1-0.4-0.2l-9.6-9.3l-11.8,6.3c-0.3,0.2-0.7,0.1-0.9-0.1c-0.2-0.2-0.3-0.6-0.2-0.9
			l5.8-12l-9.6-9.3c-0.2-0.2-0.3-0.6-0.2-0.9c0.1-0.3,0.5-0.5,0.8-0.4l13.2,1.9l5.8-12c0.1-0.3,0.5-0.5,0.8-0.4l0,0
			c0.3,0,0.6,0.3,0.7,0.6l2.3,13.1l13.2,1.9c0.3,0,0.6,0.3,0.7,0.6c0.1,0.3-0.1,0.7-0.4,0.8l-11.8,6.3l2.3,13.1
			c0.1,0.3-0.1,0.7-0.4,0.8C398.7,136,398.5,136,398.3,136L398.3,136z M374.5,111l8.3,8c0.2,0.2,0.3,0.6,0.2,0.9l-5,10.3l10.2-5.4
			c0.3-0.2,0.7-0.1,0.9,0.1l8.3,8l-2-11.3c-0.1-0.3,0.1-0.7,0.4-0.8l10.2-5.4l-11.4-1.6c-0.3,0-0.6-0.3-0.7-0.6l-2-11.3l-5,10.3
			c-0.1,0.3-0.5,0.5-0.8,0.4L374.5,111L374.5,111z"/>
	</g>
</g>
<g>
	<g>
		<path fill="#36DFDE" d="M305.8,150.6c-0.3,0-0.5,0-0.8-0.2l-19.1-12l-17.3,14.4c-0.4,0.4-1.1,0.4-1.6,0.1
			c-0.5-0.3-0.7-0.9-0.6-1.4l5.5-21.9l-19.1-12c-0.5-0.3-0.7-0.9-0.6-1.4c0.1-0.6,0.6-1,1.2-1l22.5-1.5l5.5-21.9
			c0.1-0.6,0.6-1,1.2-1l0,0c0.6,0,1.1,0.3,1.3,0.8l8.4,20.9l22.5-1.5c0.6,0,1.1,0.3,1.3,0.8c0.2,0.5,0.1,1.1-0.4,1.5l-17.3,14.4
			l8.4,20.9c0.2,0.5,0.1,1.1-0.4,1.5C306.3,150.5,306,150.6,305.8,150.6L305.8,150.6z M257.7,117.5l16.5,10.4
			c0.5,0.3,0.7,0.9,0.6,1.4l-4.8,18.8l14.9-12.4c0.4-0.4,1.1-0.4,1.6-0.1l16.5,10.4l-7.2-18c-0.2-0.5-0.1-1.1,0.4-1.5L311,114
			l-19.4,1.3c-0.6,0-1.1-0.3-1.3-0.8l-7.2-18.1l-4.8,18.8c-0.1,0.6-0.6,1-1.2,1L257.7,117.5L257.7,117.5z"/>
	</g>
</g>
<g>
	<g>
		<path fill="#FD8A39" d="M276.9,213.7c-0.2,0-0.3-0.1-0.4-0.2l-9.6-9.3l-11.8,6.3c-0.3,0.2-0.7,0.1-0.9-0.1
			c-0.2-0.2-0.3-0.6-0.2-0.9l5.8-12l-9.6-9.3c-0.2-0.2-0.3-0.6-0.2-0.9c0.1-0.3,0.5-0.5,0.8-0.4l13.2,1.9l5.8-12
			c0.1-0.3,0.5-0.5,0.8-0.4l0,0c0.3,0,0.6,0.3,0.7,0.6l2.3,13.1l13.2,1.9c0.3,0,0.6,0.3,0.7,0.6c0.1,0.3-0.1,0.7-0.4,0.8l-11.8,6.3
			l2.3,13.1c0.1,0.3-0.1,0.7-0.4,0.8C277.2,213.7,277,213.8,276.9,213.7L276.9,213.7z M253.1,188.8l8.3,8c0.2,0.2,0.3,0.6,0.2,0.9
			l-5,10.3l10.2-5.4c0.3-0.2,0.7-0.1,0.9,0.1l8.3,8l-2-11.3c-0.1-0.3,0.1-0.7,0.4-0.8l10.2-5.4l-11.4-1.6c-0.3,0-0.6-0.3-0.7-0.6
			l-2-11.3l-5,10.3c-0.1,0.3-0.5,0.5-0.8,0.4L253.1,188.8L253.1,188.8z"/>
	</g>
</g>
<path fill="#FD953A" d="M410.8,226.7c-30.2,0-54.7,24.5-54.7,54.7s24.5,54.7,54.7,54.7c30.2,0,54.7-24.5,54.7-54.7
	S441,226.7,410.8,226.7z M410.8,235.8c16.8,0,31.5,9.2,39.4,22.8h-78.8C379.3,245,394,235.8,410.8,235.8z M410.8,327
	c-25.1,0-45.6-20.4-45.6-45.6c0-4.8,0.7-9.4,2.1-13.7h8.5c2.8,6.9,8.8,13.7,18.2,13.7c11.3,0,9.8-10.5,16.8-10.5s5.6,10.5,16.8,10.5
	c9.4,0,15.4-6.8,18.2-13.7h8.5c1.4,4.3,2.1,8.9,2.1,13.7C456.4,306.5,435.9,327,410.8,327z M435.9,290.2l2.2,2.2
	c-5.1,7.8-14.6,16.3-27.3,16.3c-12.8,0-22.2-8.4-27.4-16.3l2.2-2.2c6.9,5.4,14.5,8.8,25.1,8.8C421.4,299,429,295.7,435.9,290.2z"/>
</svg>
