<?xml version="1.0" encoding="utf-8"?>
<!-- Generator: Adobe Illustrator 18.0.0, SVG Export Plug-In . SVG Version: 6.00 Build 0)  -->
<!DOCTYPE svg PUBLIC "-//W3C//DTD SVG 1.1//EN" "http://www.w3.org/Graphics/SVG/1.1/DTD/svg11.dtd">
<svg version="1.1" id="Calque_1" xmlns="http://www.w3.org/2000/svg" xmlns:xlink="http://www.w3.org/1999/xlink" x="0px" y="0px"
	 viewBox="-10.1 83.8 769 330.9" enable-background="new -10.1 83.8 769 330.9" xml:space="preserve">
<rect x="-10.1" y="83.8" fill="#36BADF" width="769" height="330.9"/>
<g>
	<path fill="#36DFDE" d="M216.4,128.3c0.8,1.6-0.6,3.1-1.4,4.7c-0.9-1.2-2.3-0.2-3.1-2.1C212.6,128.9,214.6,127.8,216.4,128.3z"/>
	<path fill="#36DFDE" d="M235.7,113.2c0.2,0.2,0.3,0.4,0.5,0.6C235.8,114.1,235.3,113.7,235.7,113.2z"/>
	<path fill="#36DFDE" d="M193,148.1c2.1-1.1,1.8-0.4,3.6-0.3c-1.6,1.4-1.1,3.4-3.2,3.2C192.1,150.1,193.4,149.1,193,148.1z"/>
	<path fill="#36DFDE" d="M174.6,166.1c1.1,1.1-1.2,2.3-0.4,3.5c-1.2,0.3-2.2,0.1-3.1-0.6C170.6,166.8,172.8,165.3,174.6,166.1z"/>
	<path fill="#36DFDE" d="M32.7,281.6C32.5,281.6,33.2,281.6,32.7,281.6L32.7,281.6z"/>
	<path fill="#36DFDE" d="M147.5,190c2.3-1.8,4.5-4.3,5.9-2.2c-2.1,1.7-1.3,3.3-3,5C148.7,192.8,147.5,191.9,147.5,190z"/>
	<path fill="#36DFDE" d="M108.3,224.3c0.2,1.3,1.2,0.8,1.1,2.2c-2,1-1.3,1.1-2.5,2.6c0.5,0.3,1,0.2,1.7-0.3
		C105.2,235.8,97.8,226.3,108.3,224.3z"/>
	<path fill="#36DFDE" d="M132.2,204.5c1.6,1.2,0.7,2.5,1.1,3.8c-2,0.2-2.2,2.3-2.4,3.4C125.3,213.3,127.6,204.6,132.2,204.5z"/>
	<path fill="#36DFDE" d="M73.4,253c2-1.5,3.9-2.3,5.4-1.3c1.1,1.7-1.8,3.4-3,5C73.9,256.4,72.6,254.8,73.4,253z"/>
	<path fill="#36DFDE" d="M7.3,308.4c1.3-3.1,6.9-8.4,8.9-5.7C18,305,11,313.2,7.3,308.4z"/>
	<path fill="#36DFDE" d="M39.8,283.2c0.1,0.3-0.1,0.7,0.1,1c0.5,3.7-5.7,8.8-7.7,5.6C30.7,287.3,36.5,281.8,39.8,283.2z"/>
	<path fill="#36DFDE" d="M60.1,265.2c4.7,2.9-3.9,10.3-6.1,7.6C52,270.5,56,266.4,60.1,265.2z"/>
	<path fill="#36DFDE" d="M109.2,227.7C108.9,227.8,109.6,227.8,109.2,227.7L109.2,227.7z"/>
	<path fill="#36DFDE" d="M131.6,211.7c-0.3-0.5,0.5-0.8,0.9-1.3C132.8,210.9,132,211.2,131.6,211.7z"/>
	<path fill="#36DFDE" d="M177.7,189.9c-0.1,1.8-3.7,3.8-2.5,5.6c-2.7,1-5.8,4-7.4,0.3C168.9,192.8,175.1,187.2,177.7,189.9z"/>
	<path fill="#36DFDE" d="M247.9,132.2c1.6,2.3-0.8,4.6-2.1,6.9c-0.4-0.7-1-0.1-1.7,0.3c-0.6-0.7-1.2-1.4-1.8-2.2
		C242.8,135.3,245.4,131.6,247.9,132.2z"/>
	<path fill="#36DFDE" d="M11.8,327.5c-0.7-0.8-1.4-1.7-2-2.5c0.3-1.8,3.8-4.1,5.7-2.5C15.7,324.1,12.8,326.3,11.8,327.5z"/>
	<path fill="#36DFDE" d="M229.9,148.3c0.3,0.4,0.7,0.8,1,1.2c-0.7,2.7-4,5.5-5,8.1c-1.6,0.5-3,0.2-4.1-1.8
		C222.6,153.3,226.4,148.1,229.9,148.3z"/>
	<path fill="#36DFDE" d="M45,303.2c-1,4.1-10.2,10.1-12.1,6.7C31.1,306.1,42.1,300.3,45,303.2z M41.3,304.2
		C41.7,304.2,41,304.2,41.3,304.2L41.3,304.2z"/>
	<path fill="#36DFDE" d="M203.6,173.2c-0.8,1.4-2.2,2.9-2.2,4.4C194.1,180.1,199.1,169.1,203.6,173.2z"/>
	<path fill="#36DFDE" d="M67.9,282.1c0.5,0.6,1,1.2,1.5,1.9c-1.3,2-3.5,2.1-2.8,3.7C59.5,292.6,61.9,282.2,67.9,282.1z"/>
	<path fill="#36DFDE" d="M93.9,260.7c0.4,0.5,0.9,1.3,1.4,0.9c-0.3,2.5-2.5,3.1-3.8,5.7C86.3,267.7,89.4,261.1,93.9,260.7z"/>
	<path fill="#36DFDE" d="M71.6,278.7C71.4,278.7,72.1,278.7,71.6,278.7L71.6,278.7z"/>
	<path fill="#36DFDE" d="M142.6,221.4c1.2,0.5,1.8,1.2,2,2.5c-1.4,1.1-3.4,2.3-3,3.4C136.5,229.5,137.2,222.9,142.6,221.4z"/>
	<path fill="#36DFDE" d="M120.3,244c-2.3,1.4-2.9,2.9-2.9,4.4C107,253.4,117.2,236.6,120.3,244z"/>
	<path fill="#36DFDE" d="M228.3,155.2c0.4,0.6-0.1,1.2-1.1,1.9C227,156.5,227.4,155.9,228.3,155.2z"/>
	<path fill="#36DFDE" d="M170.5,204c-0.3-0.5,0.5-1,0.8-0.7C171.4,204,170.9,203.6,170.5,204z"/>
	<path fill="#36DFDE" d="M118.4,247.1c0-0.1,0.4-1.3,0.9-1.3C119.7,245.9,118.4,248,118.4,247.1z"/>
	<path fill="#36DFDE" d="M196.2,200.8c1.1,3.6-5.7,6.4-6.4,2.5C191.3,200.6,194.6,200,196.2,200.8z M193.6,203.9
		C194,203.8,193.4,203.9,193.6,203.9L193.6,203.9z M194.4,203.3C194.7,203.2,194.1,203.3,194.4,203.3L194.4,203.3z"/>
	<path fill="#36DFDE" d="M235.9,166.1c0.8,0.8,1.8,0.7,2.6,1.5c0,2.8-4,5.7-6.5,4.7C229.8,169.8,233,168.2,235.9,166.1z"/>
	<path fill="#36DFDE" d="M262.3,150.1c0.4,4.3-8.6,7.5-7.8,2.2C257.2,150.8,260.2,148,262.3,150.1z"/>
	<path fill="#36DFDE" d="M210.9,187.9c1.9-1.5,3.7-3.2,5.4-3.8c1,1.4,1.5,0.8,1.8,2.2C217.2,189.6,211.2,191.9,210.9,187.9z"/>
	<path fill="#36DFDE" d="M172.3,222.2c1.9,3.3-5.6,7.6-6.1,2.9C168.6,222,169.7,223.2,172.3,222.2z"/>
	<path fill="#36DFDE" d="M103.2,279.4c0.6,0.6,1.6-0.1,1.2-0.9c0.4-0.2,0.7-0.1,0.9,0.3c-0.4,0.6,0.3,0.4,0,0
		c0.3-1.2,0.8-0.4,1.9-1.6c0.3,0.4,0.7,0.8,1,1.2c-1.3,2.4-4.1,4.8-6.2,3.5c0.5-1-0.9-1.9,0.3-2.9
		C102.6,279.4,102.8,279.8,103.2,279.4z M105,280.1c-0.3,0.3-0.8,0.6-0.5,1C104.7,280.7,105.2,280.4,105,280.1z"/>
	<path fill="#36DFDE" d="M103.7,278.5C103.4,278.2,104.2,277.8,103.7,278.5L103.7,278.5z"/>
	<path fill="#36DFDE" d="M152.5,242.3c-0.5,0.4-0.9,0-1.4,0.6c-1.4-1.3-0.4-2.5,0.8-3.7c0,2.5,1.5-0.7,2.4,0.6
		C153.2,240.6,151.8,241.5,152.5,242.3z"/>
	<path fill="#36DFDE" d="M83,295.2c1.2-1.3,1.9-0.7,3-1.9c1.5,2.4,0.9-0.3,2.3-0.4c0.4,1.4-0.7,2.9-2.9,4.4
		C84.8,296,83.7,296.6,83,295.2z M86.6,294.9c-0.3,0.3-0.8,0.6-0.5,1C86.3,295.5,86.9,295.2,86.6,294.9z"/>
	<path fill="#36DFDE" d="M103.2,279.4c-0.2-0.3,0-0.7,0.5-1C103.9,278.9,103.7,279.1,103.2,279.4z"/>
	<path fill="#36DFDE" d="M30.2,339.9c1-0.8,1.9-0.7,2.6,0c0.5-2.2,1.7-0.3,3.4-2.2c1.5,1.7-0.4,3.4-2.4,5
		C31.3,342.2,30.7,342,30.2,339.9z"/>
	<path fill="#36DFDE" d="M47.8,325.7c1.2-1.2,2-1.3,3-1.9c0.7,1-0.2,1,0.7,2.5c0.2-1,0.1-1.9,1.6-2.8c0.7,2-1.2,3.3-2.6,4.7
		c-0.4-1-1-1-1.9,0C48,327.5,47.9,326.6,47.8,325.7z"/>
	<path fill="#36DFDE" d="M123.1,267.5c-0.4,0.3-0.8,0.7-1.2,0.9c0.2,0.2,0.7,0,0.9,0.3C123.6,268.4,123.3,267.9,123.1,267.5
		c0.6-0.2,1.3,0.1,1.8,0.6c-2.3,1.7-3.2,2.5-5.2,1.6c-0.4-0.6-0.6-1.2-0.2-1.9c1.1-0.3,2.1-0.7,3.1-1
		C122.8,267.1,123,267.3,123.1,267.5z"/>
	<path fill="#36DFDE" d="M69.5,311.2c0.2,3.1-2.8,4.7-5.6,5.1C62.4,313.3,67.4,311.5,69.5,311.2z"/>
	<path fill="#36DFDE" d="M152.5,242.3c0.5-0.4,0.9-0.7,1.3,0c-0.3,0.2-0.5,0.4-0.8,0.7C152.8,242.7,152.7,242.5,152.5,242.3z"/>
	<path fill="#36DFDE" d="M123.7,266.6C123.1,264.9,125.1,267.4,123.7,266.6L123.7,266.6z"/>
	<path fill="#36DFDE" d="M154.5,241.7C154.3,241.7,154.9,241.6,154.5,241.7L154.5,241.7z"/>
	<path fill="#36DFDE" d="M138.6,255.5c0.1,0.1,0.2,0.2,0.3,0.3C139.2,255.4,138.8,255.3,138.6,255.5c-0.2-0.2-0.3-0.4-0.5-0.6
		c1.8-1.7,0.9,0.7,2.6-0.7c0.4,0.5-2.3,3-2.6,1.5C138.3,255.7,138.5,255.6,138.6,255.5z"/>
	<path fill="#36DFDE" d="M251.7,176.1c1.3,0.5,0.7,1.2,2,2.5C249.5,187.5,240.9,178.5,251.7,176.1z M250.1,179
		C250.5,178.9,249.9,178.9,250.1,179L250.1,179z M252.2,178.3c-0.3-0.3-1,0.1-0.8,0.7C251.8,178.6,252.4,178.9,252.2,178.3z"/>
	<path fill="#36DFDE" d="M270.4,161c1.1,2.1-0.5,2.3,1.9,3.1c-1.6,2.3-3.5,2.6-5.4,2.9C263.8,164.2,267.3,161.4,270.4,161z
		 M270,164.5C270.4,164.4,269.7,164.5,270,164.5L270,164.5z"/>
	<path fill="#36DFDE" d="M208.8,212.3c4.9,1.5-1.7,10.9-6.4,8.8C201.2,218.2,205.8,214.3,208.8,212.3z"/>
	<path fill="#36DFDE" d="M229.9,199.4c-0.3-0.3-0.5-0.6-0.7-0.9c-1.1,0.9-0.5,1.6,0.1,2.5c-1.7,0.6-3.2,0.7-4.3-0.6
		c0.1-1.2,1-2.5,2.8-3.7C228.1,197.8,231.5,198.2,229.9,199.4z M227.8,200C228.2,200,227.6,200,227.8,200L227.8,200z"/>
	<path fill="#36DFDE" d="M165.8,255.7c-0.8,2-1.9,3.9-4.8,5.9C152,263,163.5,247.6,165.8,255.7z"/>
	<path fill="#36DFDE" d="M187.2,235c3.1,3.8-4.4,10.1-6.4,7.2C179.3,240.1,183,234,187.2,235z"/>
	<path fill="#36DFDE" d="M229.9,199.4C230.3,199.7,229.5,200,229.9,199.4L229.9,199.4z"/>
	<path fill="#36DFDE" d="M131.1,287.8c-1.7-0.8-3.3-1.1-3.2-3.1c2.5-3.8,7.7-8.5,9.4-5C138.6,281.7,134.9,286,131.1,287.8z"/>
	<path fill="#36DFDE" d="M72.2,332.9c2.3,3.8-6.4,10.4-9.3,6.9c0.8-0.7,0.2-1.5,0.2-2.2c3.7-2.6,4.9-6.3,8.4-6.3
		C72.8,331.7,70.4,333.5,72.2,332.9z"/>
	<path fill="#36DFDE" d="M89.6,322.5c0.1-0.1,0.3-0.2,0.4-0.3C89.6,321.8,89.4,322.3,89.6,322.5c-0.5,0.4-1,0.8-1.6,1.3
		c-5.7-0.7,1.3-9.2,4.4-5c0.2,1.3-1.1,2.7-2.5,4.1C89.8,322.7,89.7,322.5,89.6,322.5z M90.9,319.3C91.3,319.3,90.7,319.3,90.9,319.3
		L90.9,319.3z M88.8,321.5c-0.3,0.3-0.8,0.6-0.5,1C88.5,322.1,89.1,321.8,88.8,321.5z"/>
	<path fill="#36DFDE" d="M108.8,306.4c0.1-0.1,0.3-0.2,0.4-0.3C108.8,305.8,108.7,306.2,108.8,306.4c-5.3,0.7,0.4-7.4,4.7-7.8
		C116.5,300.2,112.5,307.7,108.8,306.4z M113,302c-0.3-0.3-1,0.1-0.8,0.7C112.7,302.3,113.2,302.6,113,302z"/>
	<path fill="#36DFDE" d="M72.2,332.9C71.5,331.8,74.1,331.9,72.2,332.9L72.2,332.9z"/>
	<path fill="#36DFDE" d="M50.1,351.8c0.5,1.7,3.2,1.6-0.6,5.6C44.7,359.2,45,352.5,50.1,351.8z M50,354.9
		C50.5,354.9,49.8,354.9,50,354.9L50,354.9z"/>
	<path fill="#36DFDE" d="M99.6,314.9C99.3,314.9,100,314.9,99.6,314.9L99.6,314.9z"/>
	<path fill="#36DFDE" d="M282.5,186.3c-0.3,0.3-0.3,0.7,0.1,1c-2.3,0.4-4.8-1.6-4-4.1c2.2-1,2.4-2.1,4.7-3.8
		c1.5,0.5,0.6,1.8,1.2,3.1C283.7,183.8,281.9,185.1,282.5,186.3z"/>
	<path fill="#36DFDE" d="M267.9,194.5c1.2,1.9-1.5,3.7-3.2,5.6c-0.6,1.2,1.5,0.4,0.6,1.6c-1.5,1-1.2-0.5-2.2,1.2
		C256.2,202.5,263.1,195.6,267.9,194.5z"/>
	<path fill="#36DFDE" d="M243.3,214.4c1.6,1,1.3,1.6,1.2,3.1c-1.6,1-2.3,1.6-4.4,2.5C238.6,217.4,241.7,215.6,243.3,214.4z"/>
	<path fill="#36DFDE" d="M218.9,236.1c0.8,0.7,2-0.2,2.6,1.5c-0.9,2.2-3,2.4-2.9,4.4C213.3,243.8,214.7,237.9,218.9,236.1z"/>
	<path fill="#36DFDE" d="M266.4,199.8C266.1,199.9,266.8,199.9,266.4,199.8L266.4,199.8z"/>
	<path fill="#36DFDE" d="M282.5,186.3C284.1,184.5,283.3,188.1,282.5,186.3L282.5,186.3z"/>
	<path fill="#36DFDE" d="M68.8,361.5c5.7,3.3-4.3,10.8-6.8,7.6C60,366.3,65.2,362.7,68.8,361.5z"/>
	<path fill="#36DFDE" d="M87,347.2c1,1.4,1.8,0.9,2,2.5c-1.3,1.5-2.8,2.9-4.8,4.4c-0.2-1.5-2.3,0-2.9-1.3
		C80,350.4,83.7,347.6,87,347.2z M83.5,350.1C83.9,350.1,83.2,350.1,83.5,350.1L83.5,350.1z"/>
	<path fill="#36DFDE" d="M109.4,328.7c6,2.7-3.2,9.9-5.7,6.6C101.9,332.6,106.1,330.5,109.4,328.7z"/>
	<path fill="#36DFDE" d="M242.9,220.4C242.7,220.3,243.4,220.3,242.9,220.4L242.9,220.4z"/>
	<path fill="#36DFDE" d="M126.1,322.4c-0.4-1.9-2.4-0.6-2.7-0.9c-2-2.6,4.3-7.6,6.7-5.4C131.8,317.7,130.6,320,126.1,322.4z
		 M126.4,319.5C126.9,319.5,126.2,319.5,126.4,319.5L126.4,319.5z"/>
	<path fill="#36DFDE" d="M194.2,266.9c-1,0.8-1.7,1.6-1.8,2.5c-7.1,1.8-0.3-8.7,3.3-6.3C196.1,264.4,194.1,265.7,194.2,266.9z"/>
	<path fill="#36DFDE" d="M170.2,284.2c0.9,1.9-0.7,3.8-0.6,5.7c-1.4,1.1-2.7,1.3-4,2.2c-0.7-0.9-1.8-0.3-3.1-2.1
		C162.7,287.4,167.7,284.1,170.2,284.2z"/>
	<path fill="#36DFDE" d="M151,299.7c0.6,2.9-0.1,5.8-4.5,8.8c-1-0.9-2.5-0.3-3.4-1.9c0.4-0.5,0.5-1.1,0.1-1.6
		C145.9,302.6,148,300.5,151,299.7z M147.3,303.7C148.7,304.6,146.7,302.1,147.3,303.7L147.3,303.7z"/>
	<path fill="#36DFDE" d="M194.2,266.9c0.4-0.3,0.8-0.7,1.2-0.9c0.1,0.6-0.4,1.2-1.1,1.9C194,267.5,194.3,267.2,194.2,266.9z"/>
	<path fill="#36DFDE" d="M193.4,269.1C193.1,269.1,193.8,269.1,193.4,269.1L193.4,269.1z"/>
	<path fill="#36DFDE" d="M234,249.2c-0.3-0.5,0.5-1,0.8-0.7C235,249.1,234.4,248.8,234,249.2z"/>
	<path fill="#36DFDE" d="M187.9,291.1c1.5,2.6-1,4.3-2,6.3C177.8,300.2,181.4,289.7,187.9,291.1z"/>
	<path fill="#36DFDE" d="M215.7,271.2c1.8,3.8-3.1,7.5-6.9,6.6C204.3,273.8,213.1,270.5,215.7,271.2z"/>
	<path fill="#36DFDE" d="M83.3,378.6c0.6,0.5-2,3.3,0.2,1.9c-0.2,1-0.5,1.9-0.9,2.8c-2.2,1.2-4.2,1.9-6,1.2
		C74.9,381.3,80.7,378.1,83.3,378.6z M80.7,383.3c0.4-0.6,2.3-1.2,1.6-1.9C81.3,382.6,80.3,382,80.7,383.3z"/>
	<path fill="#36DFDE" d="M122.3,347.1c1,0.8,0.2,1.7,1.4,2.5c-0.8,1.3-2.5,2.6-4,3.8C113.2,353.4,117.2,346.4,122.3,347.1z"/>
	<path fill="#36DFDE" d="M165.4,317.4c-0.7,0.6-1.3,0.9-1.9,0.9c-0.4-1.1-1.3,0-1.8-0.6c-0.6-2.2,0.8-4.4,3.1-6.6
		c2.2-0.3,2.4,2.3,3,3.7C166.9,315.4,164.8,316.2,165.4,317.4z"/>
	<path fill="#36DFDE" d="M244.8,251.4c0.5,3.4-6.8,7.6-7.5,3.5c-0.1-3.1,4.8-7,6.9-5C245,250.6,242.8,252.1,244.8,251.4z
		 M243.3,252.6c-0.5,0.4-1.2,0.8-0.9,1.3C242.7,253.5,243.5,253,243.3,252.6z"/>
	<path fill="#36DFDE" d="M268.8,228.4c2.9,1.8,0.5,9-5.1,8.8c-1-1-1.5-2-1.9-3.1C263.9,231.4,265.6,229.2,268.8,228.4z"/>
	<path fill="#36DFDE" d="M102.6,365.6c-1.1,1.9-3.9,1.9-2.2,3.8c-1.3,0.7-2.5,0.8-3.7,1C94,367.6,100.5,362.8,102.6,365.6z"/>
	<path fill="#36DFDE" d="M64.8,393.1c1.6-1.8,2.8-1.4,4-0.6c-1.6,2,1.8,1.9-0.8,3.7c-0.6-0.4,0.1-2.4-1.5-1
		C65.9,394.5,65.3,393.8,64.8,393.1z"/>
	<path fill="#36DFDE" d="M145.1,332.9c0,1.4-2.4,2.9-2.9,4.4c-0.7-0.1-1.4-0.8-2.2-0.3C137.7,334.3,142.8,330.5,145.1,332.9z"/>
	<path fill="#36DFDE" d="M163.6,318.4C164,318.8,163.2,319.1,163.6,318.4L163.6,318.4z"/>
	<path fill="#36DFDE" d="M67.8,396.8c-0.1-0.1-0.2-0.2-0.3-0.3c0.1-0.1,0.3-0.2,0.4-0.3C68.1,396.4,68.2,396.6,67.8,396.8z"/>
	<path fill="#36DFDE" d="M165.4,317.4C165.9,317,166,317.7,165.4,317.4L165.4,317.4z"/>
	<path fill="#36DFDE" d="M167.2,316.5C166.9,316.5,167.7,316.5,167.2,316.5L167.2,316.5z"/>
	<path fill="#36DFDE" d="M145.3,334.8C145,334.8,145.7,334.8,145.3,334.8L145.3,334.8z"/>
	<path fill="#36DFDE" d="M164.8,319.1C164.5,319,165.2,319,164.8,319.1L164.8,319.1z"/>
	<path fill="#36DFDE" d="M143.6,336.6c-0.3-0.3,0.3-0.6,0.5-1C144.3,336,143.8,336.3,143.6,336.6z"/>
	<path fill="#36DFDE" d="M252.3,271.1c0.6-0.5,0.8-1.1,0.7-1.6C252.3,270,252.1,270.5,252.3,271.1c-0.3,0.2-0.5,0.4-0.8,0.7
		c-3.4-1.1-0.8-4.4,1.1-6.6c3.9-1,6,3.2,1.4,6.6C253.6,271.1,252.7,272.1,252.3,271.1z M254,270.7c0.6-0.7,1.6-1.4,0.9-2.2
		C253.8,269.3,254,270,254,270.7z"/>
	<path fill="#36DFDE" d="M300.9,232.4c-0.4-0.4-0.9,0.3-1.4,0.6C299.8,233.3,300.5,232.6,300.9,232.4c-0.2,4-7.2,8.5-8.5,3.8
		c2.3-3.7,4.9-7.3,9-8.8C302.4,229,301,230.6,300.9,232.4z M298.8,234.5C299.3,234.5,298.6,234.5,298.8,234.5L298.8,234.5z"/>
</g>
<path id="checkbox-9-icon" fill="#30ABAA" d="M526.2,146.6v23.3h-23.3v-23.3H526.2z M529.6,143.2h-30.2v30.2h30.2V143.2z"/>
<path id="checkbox-2-icon" fill="#FFC26A" d="M505.7,194.8l2.5-2.3c2.9,1.4,4.7,2.4,7.9,4.7c6.1-6.9,10.1-10.4,17.5-15l0.8,1.8
	c-6.1,5.4-10.6,11.3-17.1,23C513.3,202.4,510.6,199.4,505.7,194.8z M525.9,197.8v11.6h-23.1v-23.1h20.6c1.4-1.2,2.9-2.3,4.5-3.4
	h-28.5v29.9h29.9v-19.7C528.2,194.6,527,196.1,525.9,197.8z"/>
<path id="checkbox-2-icon_1_" fill="#FFC26A" d="M505.7,232.7l2.5-2.3c2.9,1.4,4.7,2.4,7.9,4.7c6.1-6.9,10.1-10.4,17.5-15l0.8,1.8
	c-6.1,5.4-10.6,11.3-17.1,23C513.3,240.2,510.6,237.2,505.7,232.7z M525.9,235.7v11.6h-23.1v-23.1h20.6c1.4-1.2,2.9-2.3,4.5-3.4
	h-28.5v29.9h29.9V231C528.2,232.4,527,234,525.9,235.7z"/>
<g>
	<path fill="#FFC26A" d="M556.3,188.6c0.8,0.6,1.5,1.3,2,2.3c0.5,0.9,0.8,2,0.8,3.1c0,1.1-0.3,2.1-0.8,3.1c-0.5,1-1.2,1.7-2,2.3
		c-0.8,0.6-1.7,0.8-2.7,0.8h-4.8v5.2c0,0.5-0.1,0.9-0.4,1.2c-0.3,0.3-0.7,0.5-1.2,0.5c-0.5,0-0.8-0.2-1.1-0.5
		c-0.3-0.3-0.4-0.7-0.4-1.2v-15.9c0-0.5,0.2-0.9,0.5-1.2c0.3-0.3,0.7-0.5,1.2-0.5h6.3C554.5,187.8,555.4,188.1,556.3,188.6z
		 M554.6,196.6c0.3-0.3,0.6-0.7,0.8-1.1c0.2-0.5,0.3-1,0.3-1.5c0-0.5-0.1-1-0.3-1.5c-0.2-0.5-0.5-0.8-0.8-1.1
		c-0.3-0.3-0.7-0.4-1-0.4h-4.8v6.1h4.8C553.9,197,554.3,196.9,554.6,196.6z"/>
	<path fill="#FFC26A" d="M574.4,200.4c-0.3,0.3-0.7,0.4-1.2,0.4h-9.1c0.2,1.1,0.7,1.9,1.5,2.5c0.8,0.6,1.7,0.9,2.7,0.9
		c0.8,0,1.3-0.1,1.8-0.2c0.4-0.1,0.8-0.3,1-0.4c0.2-0.2,0.4-0.3,0.5-0.3c0.3-0.2,0.6-0.2,0.9-0.2c0.4,0,0.7,0.1,1,0.4
		c0.3,0.3,0.4,0.6,0.4,1c0,0.5-0.3,0.9-0.8,1.3c-0.5,0.4-1.2,0.8-2.1,1.1c-0.9,0.3-1.7,0.4-2.6,0.4c-1.5,0-2.9-0.3-4-1
		c-1.1-0.6-2-1.5-2.7-2.7c-0.6-1.1-0.9-2.4-0.9-3.8c0-1.6,0.3-3,1-4.2c0.7-1.2,1.5-2.1,2.6-2.7c1.1-0.6,2.2-1,3.5-1
		c1.2,0,2.4,0.3,3.4,1c1.1,0.7,1.9,1.6,2.6,2.7c0.6,1.1,1,2.3,1,3.6C574.9,199.8,574.7,200.1,574.4,200.4z M564.2,198.1h7.2v-0.2
		c-0.1-0.8-0.5-1.4-1.1-2c-0.7-0.6-1.5-0.8-2.3-0.8C565.8,195.1,564.6,196.1,564.2,198.1z"/>
	<path fill="#FFC26A" d="M586.7,192.5c0.4,0.3,0.6,0.7,0.6,1.1c0,0.6-0.1,1-0.4,1.3c-0.3,0.3-0.6,0.4-1,0.4c-0.3,0-0.6-0.1-0.9-0.2
		c-0.1,0-0.2-0.1-0.4-0.1c-0.2-0.1-0.4-0.1-0.6-0.1c-0.5,0-0.9,0.1-1.4,0.4c-0.4,0.3-0.8,0.7-1.1,1.3c-0.3,0.6-0.4,1.3-0.4,2.1v6.5
		c0,0.5-0.2,0.9-0.5,1.2c-0.3,0.3-0.7,0.5-1.2,0.5c-0.5,0-0.9-0.2-1.2-0.5c-0.3-0.3-0.5-0.7-0.5-1.2V194c0-0.5,0.2-0.9,0.5-1.2
		c0.3-0.3,0.7-0.5,1.2-0.5c0.5,0,0.9,0.2,1.2,0.5c0.3,0.3,0.5,0.7,0.5,1.2v0.4c0.4-0.8,1-1.3,1.8-1.7c0.8-0.4,1.6-0.6,2.5-0.6
		C585.9,192,586.4,192.2,586.7,192.5z"/>
	<path fill="#FFC26A" d="M595.4,190.1c-0.3,0.4-0.4,0.7-0.4,1.2v1.3h2.5c0.4,0,0.8,0.1,1.1,0.4c0.3,0.3,0.4,0.6,0.4,1.1
		c0,0.4-0.1,0.8-0.4,1.1c-0.3,0.3-0.7,0.4-1.1,0.4H595v9.8c0,0.5-0.2,0.9-0.5,1.2c-0.3,0.3-0.7,0.5-1.2,0.5c-0.5,0-0.9-0.2-1.2-0.5
		c-0.3-0.3-0.5-0.7-0.5-1.2v-9.8h-1.5c-0.4,0-0.8-0.1-1.1-0.4c-0.3-0.3-0.4-0.6-0.4-1.1c0-0.4,0.1-0.8,0.4-1.1
		c0.3-0.3,0.7-0.4,1.1-0.4h1.5v-1.3c0-1.4,0.5-2.5,1.4-3.4c0.9-0.9,2.3-1.3,4.1-1.3c0.7,0,1.3,0.1,1.8,0.4c0.5,0.3,0.8,0.7,0.8,1.3
		c0,0.4-0.1,0.8-0.4,1.1c-0.3,0.3-0.6,0.4-0.9,0.4c-0.1,0-0.2,0-0.3,0c-0.1,0-0.2,0-0.3-0.1c-0.4-0.1-0.8-0.2-1.1-0.2
		C596.1,189.6,595.7,189.8,595.4,190.1z"/>
	<path fill="#FFC26A" d="M614.3,203.7c-0.7,1.2-1.6,2.1-2.7,2.7c-1.1,0.6-2.4,1-3.8,1c-1.4,0-2.7-0.3-3.8-1c-1.1-0.6-2-1.5-2.7-2.7
		c-0.7-1.2-1-2.5-1-4c0-1.5,0.3-2.8,1-4c0.7-1.2,1.6-2.1,2.7-2.7c1.1-0.7,2.4-1,3.8-1c1.4,0,2.6,0.3,3.8,1c1.1,0.7,2.1,1.6,2.7,2.7
		c0.7,1.2,1,2.5,1,4C615.3,201.2,615,202.5,614.3,203.7z M611.4,197.3c-0.4-0.7-0.9-1.3-1.5-1.6c-0.6-0.4-1.3-0.6-2.1-0.6
		s-1.5,0.2-2.1,0.6c-0.6,0.4-1.1,0.9-1.5,1.6c-0.4,0.7-0.6,1.5-0.6,2.4c0,0.9,0.2,1.7,0.6,2.4c0.4,0.7,0.9,1.2,1.5,1.6
		c0.6,0.4,1.3,0.6,2.1,0.6s1.5-0.2,2.1-0.6c0.6-0.4,1.1-0.9,1.5-1.6c0.4-0.7,0.6-1.5,0.6-2.4C612,198.8,611.8,198,611.4,197.3z"/>
	<path fill="#FFC26A" d="M627.1,192.5c0.4,0.3,0.6,0.7,0.6,1.1c0,0.6-0.1,1-0.4,1.3c-0.3,0.3-0.6,0.4-1,0.4c-0.3,0-0.6-0.1-0.9-0.2
		c-0.1,0-0.2-0.1-0.4-0.1s-0.4-0.1-0.6-0.1c-0.5,0-0.9,0.1-1.4,0.4c-0.4,0.3-0.8,0.7-1.1,1.3c-0.3,0.6-0.4,1.3-0.4,2.1v6.5
		c0,0.5-0.2,0.9-0.5,1.2c-0.3,0.3-0.7,0.5-1.2,0.5c-0.5,0-0.9-0.2-1.2-0.5c-0.3-0.3-0.5-0.7-0.5-1.2V194c0-0.5,0.2-0.9,0.5-1.2
		c0.3-0.3,0.7-0.5,1.2-0.5c0.5,0,0.9,0.2,1.2,0.5c0.3,0.3,0.5,0.7,0.5,1.2v0.4c0.4-0.8,1-1.3,1.8-1.7c0.8-0.4,1.6-0.6,2.5-0.6
		C626.3,192,626.7,192.2,627.1,192.5z"/>
	<path fill="#FFC26A" d="M650.8,193.7c0.7,1.1,1,2.6,1,4.6v7.1c0,0.5-0.2,0.9-0.5,1.2c-0.3,0.3-0.7,0.5-1.2,0.5
		c-0.5,0-0.9-0.2-1.2-0.5c-0.3-0.3-0.5-0.7-0.5-1.2v-7.1c0-1-0.2-1.8-0.6-2.4c-0.4-0.6-1.1-0.9-2.1-0.9c-1,0-1.8,0.3-2.4,0.9
		c-0.6,0.6-0.9,1.4-0.9,2.3v7.1c0,0.5-0.2,0.9-0.5,1.2c-0.3,0.3-0.7,0.5-1.2,0.5c-0.5,0-0.9-0.2-1.2-0.5c-0.3-0.3-0.5-0.7-0.5-1.2
		v-7.1c0-1-0.2-1.8-0.6-2.4c-0.4-0.6-1.1-0.9-2.1-0.9c-1,0-1.8,0.3-2.4,0.9c-0.6,0.6-0.9,1.4-0.9,2.3v7.1c0,0.5-0.2,0.9-0.5,1.2
		c-0.3,0.3-0.7,0.5-1.2,0.5c-0.5,0-0.9-0.2-1.2-0.5c-0.3-0.3-0.5-0.7-0.5-1.2V194c0-0.5,0.2-0.9,0.5-1.2c0.3-0.3,0.7-0.5,1.2-0.5
		c0.5,0,0.9,0.2,1.2,0.5c0.3,0.3,0.5,0.7,0.5,1.2v0.4c0.5-0.7,1.1-1.2,1.9-1.7c0.8-0.5,1.6-0.7,2.5-0.7c2.3,0,3.8,1,4.4,3
		c0.4-0.8,1.1-1.5,1.9-2.1c0.9-0.6,1.8-0.9,2.9-0.9C648.8,192,650.1,192.6,650.8,193.7z"/>
	<path fill="#FFC26A" d="M668.5,192.5c0.3,0.3,0.5,0.7,0.5,1.2v11.7c0,0.5-0.2,0.9-0.5,1.2c-0.3,0.3-0.7,0.5-1.2,0.5
		c-0.5,0-0.9-0.2-1.2-0.5c-0.3-0.3-0.5-0.7-0.5-1.2c-0.5,0.5-1.1,1-1.9,1.4c-0.8,0.4-1.6,0.6-2.5,0.6c-1.3,0-2.4-0.3-3.4-1
		c-1-0.7-1.8-1.6-2.4-2.7c-0.6-1.2-0.9-2.5-0.9-3.9c0-1.5,0.3-2.8,0.9-4c0.6-1.2,1.4-2.1,2.4-2.7c1-0.7,2.1-1,3.4-1
		c0.9,0,1.7,0.2,2.5,0.5c0.8,0.3,1.4,0.7,2,1.2v0c0-0.5,0.2-0.9,0.5-1.2c0.3-0.3,0.7-0.5,1.2-0.5C667.8,192,668.2,192.2,668.5,192.5
		z M664.7,203c0.8-0.9,1.1-2,1.1-3.3c0-1.3-0.4-2.4-1.1-3.3c-0.8-0.9-1.7-1.3-2.9-1.3c-1.2,0-2.1,0.4-2.9,1.3
		c-0.8,0.9-1.1,2-1.1,3.3c0,1.3,0.4,2.4,1.1,3.3c0.7,0.9,1.7,1.3,2.9,1.3C663,204.3,663.9,203.9,664.7,203z"/>
	<path fill="#FFC26A" d="M684.3,193.7c0.7,1.1,1.1,2.6,1.1,4.6v7.1c0,0.5-0.2,0.9-0.5,1.2c-0.3,0.3-0.7,0.5-1.2,0.5
		c-0.5,0-0.9-0.2-1.2-0.5c-0.3-0.3-0.5-0.7-0.5-1.2v-7.1c0-1-0.2-1.8-0.6-2.4c-0.4-0.6-1.1-0.9-2.2-0.9c-1.1,0-1.9,0.3-2.5,0.9
		c-0.6,0.6-0.9,1.4-0.9,2.3v7.1c0,0.5-0.2,0.9-0.5,1.2c-0.3,0.3-0.7,0.5-1.2,0.5c-0.5,0-0.9-0.2-1.2-0.5c-0.3-0.3-0.5-0.7-0.5-1.2
		V194c0-0.5,0.2-0.9,0.5-1.2c0.3-0.3,0.7-0.5,1.2-0.5c0.5,0,0.9,0.2,1.2,0.5c0.3,0.3,0.5,0.7,0.5,1.2v0.5c0.5-0.7,1.1-1.2,1.9-1.7
		c0.8-0.5,1.7-0.7,2.6-0.7C682.3,192,683.6,192.6,684.3,193.7z"/>
	<path fill="#FFC26A" d="M699.2,192.8c1,0.5,1.4,1.1,1.4,1.9c0,0.4-0.1,0.8-0.4,1.1c-0.2,0.3-0.6,0.5-0.9,0.5c-0.3,0-0.5,0-0.7-0.1
		c-0.2-0.1-0.4-0.2-0.5-0.3c-0.2-0.1-0.3-0.3-0.5-0.3c-0.2-0.1-0.5-0.2-0.8-0.2c-0.4-0.1-0.6-0.1-0.9-0.1c-1.4,0-2.5,0.4-3.2,1.3
		c-0.8,0.9-1.2,2-1.2,3.3c0,1.3,0.4,2.4,1.2,3.3c0.8,0.9,1.8,1.3,3,1.3c0.9,0,1.6-0.1,2-0.3c0.1-0.1,0.3-0.2,0.5-0.3
		c0.2-0.1,0.4-0.2,0.5-0.3c0.2-0.1,0.4-0.1,0.6-0.1c0.5,0,0.8,0.1,1.1,0.4c0.3,0.3,0.4,0.7,0.4,1.1c0,0.4-0.3,0.9-0.8,1.2
		c-0.5,0.4-1.2,0.7-2,0.9c-0.8,0.2-1.7,0.3-2.7,0.3c-1.4,0-2.7-0.3-3.7-1c-1.1-0.7-1.9-1.6-2.5-2.7c-0.6-1.2-0.9-2.5-0.9-3.9
		c0-1.5,0.3-2.8,0.9-4c0.6-1.2,1.5-2.1,2.6-2.7c1.1-0.7,2.4-1,3.7-1C697,192,698.2,192.3,699.2,192.8z"/>
	<path fill="#FFC26A" d="M715.9,200.4c-0.3,0.3-0.7,0.4-1.2,0.4h-9.1c0.2,1.1,0.7,1.9,1.5,2.5c0.8,0.6,1.7,0.9,2.7,0.9
		c0.8,0,1.3-0.1,1.8-0.2c0.4-0.1,0.8-0.3,1-0.4c0.2-0.2,0.4-0.3,0.5-0.3c0.3-0.2,0.6-0.2,0.9-0.2c0.4,0,0.7,0.1,1,0.4
		c0.3,0.3,0.4,0.6,0.4,1c0,0.5-0.3,0.9-0.8,1.3c-0.5,0.4-1.2,0.8-2.1,1.1c-0.9,0.3-1.7,0.4-2.6,0.4c-1.5,0-2.9-0.3-4-1
		c-1.1-0.6-2-1.5-2.7-2.7c-0.6-1.1-0.9-2.4-0.9-3.8c0-1.6,0.3-3,1-4.2c0.7-1.2,1.5-2.1,2.6-2.7c1.1-0.6,2.2-1,3.5-1
		c1.2,0,2.4,0.3,3.4,1c1.1,0.7,1.9,1.6,2.6,2.7c0.6,1.1,1,2.3,1,3.6C716.4,199.8,716.2,200.1,715.9,200.4z M705.7,198.1h7.2v-0.2
		c-0.1-0.8-0.4-1.4-1.1-2c-0.7-0.6-1.5-0.8-2.3-0.8C707.3,195.1,706,196.1,705.7,198.1z"/>
</g>
<g>
	<path fill="#FFC26A" d="M547.2,245.7c-0.9-0.4-1.6-1-2.2-1.8c-0.2-0.3-0.3-0.7-0.3-1c0-0.4,0.2-0.8,0.5-1.1
		c0.3-0.3,0.7-0.5,1.1-0.5c0.5,0,1,0.3,1.5,0.8c0.3,0.3,0.7,0.6,1.1,0.7c0.4,0.1,0.8,0.2,1.2,0.2c0.5,0,1-0.1,1.5-0.4
		c0.5-0.3,0.9-0.6,1.2-1.1c0.3-0.5,0.4-1,0.4-1.5v-11.6c0-0.5,0.2-0.9,0.5-1.2c0.3-0.3,0.8-0.5,1.2-0.5c0.5,0,0.9,0.2,1.2,0.5
		c0.3,0.3,0.5,0.7,0.5,1.2v11.6c0,1.1-0.3,2.1-0.9,3.1c-0.6,1-1.4,1.7-2.4,2.3c-1,0.6-2.1,0.9-3.3,0.9
		C549.1,246.4,548.1,246.2,547.2,245.7z"/>
	<path fill="#FFC26A" d="M573.7,231.5c0.3,0.3,0.5,0.7,0.5,1.2v11.7c0,0.5-0.2,0.9-0.5,1.2c-0.3,0.3-0.7,0.5-1.2,0.5
		c-0.5,0-0.9-0.2-1.2-0.5c-0.3-0.3-0.5-0.7-0.5-1.2c-0.5,0.5-1.1,1-1.9,1.4c-0.8,0.4-1.6,0.6-2.5,0.6c-1.3,0-2.4-0.3-3.4-1
		c-1-0.7-1.8-1.6-2.4-2.7c-0.6-1.2-0.9-2.5-0.9-3.9c0-1.5,0.3-2.8,0.9-4c0.6-1.2,1.4-2.1,2.4-2.7c1-0.7,2.1-1,3.4-1
		c0.9,0,1.7,0.2,2.5,0.5c0.8,0.3,1.4,0.7,2,1.2v0c0-0.5,0.2-0.9,0.5-1.2c0.3-0.3,0.7-0.5,1.2-0.5C573,231.1,573.4,231.2,573.7,231.5
		z M569.9,242c0.8-0.9,1.1-2,1.1-3.3c0-1.3-0.4-2.4-1.1-3.3c-0.8-0.9-1.7-1.3-2.9-1.3c-1.2,0-2.1,0.4-2.9,1.3
		c-0.8,0.9-1.1,2-1.1,3.3c0,1.3,0.4,2.4,1.1,3.3c0.7,0.9,1.7,1.3,2.9,1.3C568.1,243.3,569.1,242.9,569.9,242z"/>
	<path fill="#FFC26A" d="M589.8,231.8c0.3,0.3,0.4,0.6,0.4,1.1c0,0.2-0.1,0.5-0.2,0.8l-5.2,11.4c-0.1,0.3-0.3,0.6-0.6,0.7
		c-0.2,0.2-0.5,0.3-0.8,0.3l-0.2,0c-0.3,0-0.6-0.1-0.9-0.3c-0.3-0.2-0.5-0.5-0.6-0.8l-5.1-11.4c-0.1-0.3-0.2-0.6-0.2-0.9
		c0-0.4,0.2-0.7,0.5-1c0.3-0.3,0.7-0.5,1.2-0.5c0.3,0,0.7,0.1,1,0.3c0.3,0.2,0.5,0.4,0.7,0.8l3.8,8.7l3.8-8.7
		c0.1-0.3,0.3-0.6,0.6-0.8c0.3-0.2,0.5-0.3,0.9-0.2C589.2,231.4,589.5,231.5,589.8,231.8z"/>
	<path fill="#FFC26A" d="M605.9,231.5c0.3,0.3,0.5,0.7,0.5,1.2v11.7c0,0.5-0.2,0.9-0.5,1.2c-0.3,0.3-0.7,0.5-1.2,0.5
		c-0.5,0-0.9-0.2-1.2-0.5c-0.3-0.3-0.5-0.7-0.5-1.2c-0.5,0.5-1.1,1-1.9,1.4c-0.8,0.4-1.6,0.6-2.5,0.6c-1.3,0-2.4-0.3-3.4-1
		c-1-0.7-1.8-1.6-2.4-2.7c-0.6-1.2-0.9-2.5-0.9-3.9c0-1.5,0.3-2.8,0.9-4c0.6-1.2,1.4-2.1,2.4-2.7c1-0.7,2.1-1,3.4-1
		c0.9,0,1.7,0.2,2.5,0.5c0.8,0.3,1.4,0.7,2,1.2v0c0-0.5,0.2-0.9,0.5-1.2c0.3-0.3,0.7-0.5,1.2-0.5
		C605.2,231.1,605.6,231.2,605.9,231.5z M602.1,242c0.8-0.9,1.1-2,1.1-3.3c0-1.3-0.4-2.4-1.1-3.3c-0.8-0.9-1.7-1.3-2.9-1.3
		c-1.2,0-2.1,0.4-2.9,1.3c-0.8,0.9-1.1,2-1.1,3.3c0,1.3,0.4,2.4,1.1,3.3c0.7,0.9,1.7,1.3,2.9,1.3C600.4,243.3,601.4,242.9,602.1,242
		z"/>
	<path fill="#FFC26A" d="M608.9,243c0-0.5,0.2-0.9,0.7-1.2c0.3-0.2,0.5-0.2,0.8-0.2c0.4,0,0.8,0.2,1.1,0.5c0.6,0.6,1.1,1,1.7,1.3
		c0.6,0.3,1.3,0.4,2.2,0.4c1.4-0.1,2.1-0.6,2.1-1.6c0-0.5-0.2-0.9-0.7-1.2c-0.5-0.3-1.2-0.6-2.3-0.8c-1.1-0.3-1.9-0.6-2.6-0.9
		c-0.7-0.3-1.2-0.7-1.7-1.3c-0.5-0.6-0.7-1.4-0.7-2.4c0-0.9,0.3-1.6,0.8-2.3c0.5-0.7,1.2-1.2,2-1.5c0.8-0.4,1.7-0.5,2.6-0.5
		c0.9,0,1.9,0.2,2.8,0.5c0.9,0.3,1.7,0.9,2.2,1.5c0.2,0.3,0.4,0.6,0.4,1c0,0.4-0.2,0.8-0.5,1c-0.3,0.2-0.6,0.3-0.9,0.3
		c-0.4,0-0.7-0.1-1-0.4c-0.3-0.4-0.8-0.7-1.3-1c-0.5-0.2-1.1-0.4-1.8-0.4c-1.4,0-2.1,0.5-2.1,1.5c0,0.4,0.1,0.7,0.4,1
		c0.3,0.2,0.6,0.4,1,0.6c0.4,0.1,1,0.3,1.7,0.5c1,0.3,1.8,0.6,2.5,0.9c0.7,0.3,1.2,0.7,1.7,1.3c0.5,0.6,0.7,1.4,0.7,2.4
		c0,0.9-0.3,1.7-0.8,2.4c-0.5,0.7-1.2,1.2-2.1,1.5c-0.8,0.3-1.7,0.5-2.6,0.5c-1.2,0-2.3-0.2-3.4-0.6c-1-0.4-1.9-1.1-2.6-2
		C609,243.6,608.9,243.3,608.9,243z"/>
	<path fill="#FFC26A" d="M633.5,231.8c1,0.5,1.4,1.1,1.4,1.9c0,0.4-0.1,0.8-0.4,1.1c-0.2,0.3-0.6,0.5-0.9,0.5c-0.3,0-0.5,0-0.7-0.1
		c-0.2-0.1-0.4-0.2-0.5-0.3c-0.2-0.1-0.3-0.3-0.5-0.3c-0.2-0.1-0.5-0.2-0.8-0.2c-0.4-0.1-0.6-0.1-0.9-0.1c-1.4,0-2.5,0.4-3.2,1.3
		c-0.8,0.9-1.2,2-1.2,3.3c0,1.3,0.4,2.4,1.2,3.3c0.8,0.9,1.8,1.3,3,1.3c0.9,0,1.6-0.1,2-0.3c0.1-0.1,0.3-0.2,0.5-0.3
		c0.2-0.1,0.4-0.2,0.5-0.3c0.2-0.1,0.4-0.1,0.6-0.1c0.5,0,0.8,0.1,1.1,0.4c0.3,0.3,0.4,0.7,0.4,1.1c0,0.4-0.3,0.9-0.8,1.2
		c-0.5,0.4-1.2,0.7-2,0.9c-0.8,0.2-1.7,0.3-2.7,0.3c-1.4,0-2.7-0.3-3.7-1c-1.1-0.7-1.9-1.6-2.5-2.7c-0.6-1.2-0.9-2.5-0.9-3.9
		c0-1.5,0.3-2.8,0.9-4c0.6-1.2,1.5-2.1,2.6-2.7c1.1-0.7,2.4-1,3.7-1C631.3,231.1,632.5,231.3,633.5,231.8z"/>
	<path fill="#FFC26A" d="M646.5,231.5c0.4,0.3,0.6,0.7,0.6,1.1c0,0.6-0.1,1-0.4,1.3c-0.3,0.3-0.6,0.4-1,0.4c-0.3,0-0.6-0.1-0.9-0.2
		c-0.1,0-0.2-0.1-0.4-0.1c-0.2-0.1-0.4-0.1-0.6-0.1c-0.5,0-0.9,0.1-1.4,0.4c-0.4,0.3-0.8,0.7-1.1,1.3c-0.3,0.6-0.4,1.3-0.4,2.1v6.5
		c0,0.5-0.2,0.9-0.5,1.2c-0.3,0.3-0.7,0.5-1.2,0.5c-0.5,0-0.9-0.2-1.2-0.5c-0.3-0.3-0.5-0.7-0.5-1.2V233c0-0.5,0.2-0.9,0.5-1.2
		c0.3-0.3,0.7-0.5,1.2-0.5c0.5,0,0.9,0.2,1.2,0.5c0.3,0.3,0.5,0.7,0.5,1.2v0.4c0.4-0.8,1-1.3,1.8-1.7c0.8-0.4,1.6-0.6,2.5-0.6
		C645.7,231.1,646.1,231.2,646.5,231.5z"/>
	<path fill="#FFC26A" d="M649.5,229.3c-0.3-0.2-0.4-0.6-0.4-1.1v-0.5c0-0.5,0.1-0.9,0.4-1.1c0.3-0.2,0.7-0.3,1.3-0.3
		c0.6,0,1.1,0.1,1.3,0.3c0.3,0.2,0.4,0.6,0.4,1.1v0.5c0,0.5-0.1,0.9-0.4,1.1c-0.3,0.2-0.7,0.3-1.4,0.3
		C650.2,229.6,649.8,229.5,649.5,229.3z M652.1,245.6c-0.3,0.3-0.7,0.5-1.2,0.5c-0.5,0-0.9-0.2-1.2-0.5c-0.3-0.3-0.5-0.7-0.5-1.2
		V233c0-0.5,0.2-0.9,0.5-1.2c0.3-0.3,0.7-0.5,1.2-0.5c0.5,0,0.9,0.2,1.2,0.5c0.3,0.3,0.5,0.7,0.5,1.2v11.4
		C652.5,244.9,652.4,245.3,652.1,245.6z"/>
	<path fill="#FFC26A" d="M667,232.1c1,0.7,1.8,1.6,2.4,2.7c0.6,1.2,0.9,2.5,0.9,3.9c0,1.5-0.3,2.8-0.9,4c-0.6,1.2-1.4,2.1-2.4,2.7
		c-1,0.7-2.1,1-3.4,1c-0.9,0-1.7-0.2-2.5-0.5c-0.8-0.4-1.4-0.8-1.9-1.3v5.4c0,0.5-0.2,0.9-0.5,1.2c-0.3,0.3-0.7,0.5-1.2,0.5
		c-0.5,0-0.9-0.2-1.2-0.5c-0.3-0.3-0.5-0.7-0.5-1.2V233c0-0.5,0.2-0.9,0.5-1.2c0.3-0.3,0.7-0.5,1.2-0.5c0.5,0,0.9,0.2,1.2,0.5
		c0.3,0.3,0.5,0.7,0.5,1.2v0.1c0.4-0.6,1.1-1,1.8-1.4c0.8-0.4,1.6-0.6,2.5-0.6C664.8,231.1,666,231.4,667,232.1z M666,242
		c0.8-0.9,1.1-2,1.1-3.3s-0.4-2.4-1.1-3.3c-0.7-0.9-1.7-1.3-2.9-1.3c-1.2,0-2.2,0.4-2.9,1.3c-0.8,0.9-1.1,2-1.1,3.3s0.4,2.4,1.1,3.3
		c0.8,0.9,1.7,1.3,2.9,1.3C664.3,243.3,665.3,242.9,666,242z"/>
	<path fill="#FFC26A" d="M680.9,243.3c0.2,0.2,0.3,0.6,0.3,1c0,0.5-0.3,0.9-0.8,1.3c-0.5,0.3-1.2,0.5-1.8,0.5
		c-1.1,0-2.1-0.2-2.9-0.7c-0.8-0.5-1.2-1.5-1.2-3.1v-7.6h-1.3c-0.4,0-0.8-0.1-1.1-0.4c-0.3-0.3-0.4-0.7-0.4-1.1
		c0-0.4,0.1-0.8,0.4-1.1c0.3-0.3,0.7-0.4,1.1-0.4h1.3v-1.8c0-0.5,0.2-0.9,0.5-1.2c0.3-0.3,0.7-0.5,1.2-0.5c0.5,0,0.8,0.2,1.2,0.5
		c0.3,0.3,0.5,0.7,0.5,1.2v1.8h2c0.4,0,0.8,0.1,1.1,0.4c0.3,0.3,0.4,0.7,0.4,1.1c0,0.4-0.1,0.8-0.4,1.1c-0.3,0.3-0.7,0.4-1.1,0.4h-2
		v7.5c0,0.4,0.1,0.7,0.3,0.8c0.2,0.2,0.5,0.3,0.8,0.3c0.1,0,0.3,0,0.6-0.1c0.2-0.1,0.4-0.1,0.6-0.1
		C680.5,243,680.7,243.1,680.9,243.3z"/>
</g>
<g>
	<path fill="#30ABAA" d="M568.5,149.2c0.4,0.3,0.6,0.8,0.6,1.3c0,0.2,0,0.3-0.1,0.6l-5.4,16c-0.1,0.3-0.3,0.6-0.6,0.7
		c-0.3,0.2-0.6,0.3-0.9,0.3c-0.3,0-0.6-0.1-0.9-0.3c-0.3-0.2-0.5-0.4-0.7-0.8l-3.9-8.9l-3.9,8.9c-0.2,0.3-0.4,0.6-0.7,0.8
		c-0.3,0.2-0.6,0.3-0.9,0.3c-0.3,0-0.6-0.1-0.9-0.3c-0.3-0.2-0.5-0.4-0.6-0.7l-5.4-16c-0.1-0.2-0.1-0.4-0.1-0.6
		c0-0.5,0.2-0.9,0.6-1.3c0.4-0.3,0.8-0.5,1.3-0.5c0.4,0,0.7,0.1,1,0.3c0.3,0.2,0.5,0.5,0.6,0.8l4.1,12.5l3.6-8.6
		c0.1-0.3,0.4-0.6,0.6-0.8c0.3-0.2,0.6-0.3,0.9-0.3c0.3,0,0.7,0.1,0.9,0.3c0.3,0.2,0.5,0.5,0.6,0.8l3.4,8.5l4.1-12.4
		c0.1-0.3,0.3-0.6,0.6-0.8c0.3-0.2,0.6-0.3,1-0.3C567.8,148.7,568.2,148.8,568.5,149.2z"/>
	<path fill="#30ABAA" d="M583.6,161.4c-0.3,0.3-0.7,0.4-1.2,0.4h-9.1c0.2,1.1,0.7,1.9,1.5,2.5c0.8,0.6,1.7,0.9,2.7,0.9
		c0.8,0,1.3-0.1,1.8-0.2c0.4-0.1,0.8-0.3,1-0.4c0.2-0.2,0.4-0.3,0.5-0.3c0.3-0.2,0.6-0.2,0.9-0.2c0.4,0,0.7,0.1,1,0.4
		c0.3,0.3,0.4,0.6,0.4,1c0,0.5-0.3,0.9-0.8,1.3c-0.5,0.4-1.2,0.8-2.1,1.1c-0.9,0.3-1.7,0.4-2.6,0.4c-1.5,0-2.9-0.3-4-1
		c-1.1-0.6-2-1.5-2.7-2.7c-0.6-1.1-0.9-2.4-0.9-3.8c0-1.6,0.3-3,1-4.2c0.7-1.2,1.5-2.1,2.6-2.7c1.1-0.6,2.2-1,3.5-1
		c1.2,0,2.4,0.3,3.4,1c1.1,0.7,1.9,1.6,2.6,2.7c0.6,1.1,1,2.3,1,3.6C584.1,160.8,584,161.1,583.6,161.4z M573.4,159h7.2v-0.2
		c-0.1-0.8-0.5-1.4-1.1-2c-0.7-0.6-1.5-0.8-2.3-0.8C575.1,156,573.8,157,573.4,159z"/>
	<path fill="#30ABAA" d="M598,154c1,0.7,1.8,1.6,2.4,2.7c0.6,1.2,0.9,2.5,0.9,3.9c0,1.5-0.3,2.8-0.9,4c-0.6,1.2-1.4,2.1-2.4,2.7
		c-1,0.7-2.1,1-3.4,1c-0.9,0-1.7-0.2-2.5-0.5c-0.8-0.4-1.4-0.8-1.9-1.3v0.2c0,0.5-0.2,0.9-0.5,1.2c-0.3,0.3-0.7,0.5-1.2,0.5
		c-0.5,0-0.9-0.2-1.2-0.5c-0.3-0.3-0.5-0.7-0.5-1.2v-17.3c0-0.5,0.2-0.9,0.5-1.2c0.3-0.3,0.7-0.5,1.2-0.5c0.5,0,0.9,0.2,1.2,0.5
		c0.3,0.3,0.5,0.7,0.5,1.2v5.8c0.4-0.6,1.1-1,1.8-1.4c0.8-0.4,1.6-0.6,2.5-0.6C595.8,153,597,153.3,598,154z M597,164
		c0.8-0.9,1.1-2,1.1-3.3s-0.4-2.4-1.1-3.3c-0.7-0.9-1.7-1.3-2.9-1.3c-1.2,0-2.2,0.4-2.9,1.3c-0.8,0.9-1.1,2-1.1,3.3s0.4,2.4,1.1,3.3
		c0.8,0.9,1.7,1.3,2.9,1.3C595.3,165.3,596.3,164.8,597,164z"/>
	<path fill="#30ABAA" d="M609.8,151.1c-0.3,0.4-0.4,0.7-0.4,1.2v1.3h2.5c0.4,0,0.8,0.1,1.1,0.4c0.3,0.3,0.4,0.6,0.4,1.1
		c0,0.4-0.1,0.8-0.4,1.1c-0.3,0.3-0.7,0.4-1.1,0.4h-2.5v9.8c0,0.5-0.2,0.9-0.5,1.2c-0.3,0.3-0.7,0.5-1.2,0.5c-0.5,0-0.9-0.2-1.2-0.5
		c-0.3-0.3-0.5-0.7-0.5-1.2v-9.8h-1.5c-0.4,0-0.8-0.1-1.1-0.4c-0.3-0.3-0.4-0.6-0.4-1.1c0-0.4,0.1-0.8,0.4-1.1
		c0.3-0.3,0.7-0.4,1.1-0.4h1.5v-1.3c0-1.4,0.5-2.5,1.4-3.4c0.9-0.9,2.3-1.3,4.1-1.3c0.7,0,1.3,0.1,1.8,0.4c0.5,0.3,0.8,0.7,0.8,1.3
		c0,0.4-0.1,0.8-0.4,1.1c-0.3,0.3-0.6,0.4-0.9,0.4c-0.1,0-0.2,0-0.3,0c-0.1,0-0.2,0-0.3-0.1c-0.4-0.1-0.8-0.2-1.1-0.2
		C610.5,150.6,610.1,150.7,609.8,151.1z"/>
	<path fill="#30ABAA" d="M628.7,164.6c-0.7,1.2-1.6,2.1-2.7,2.7c-1.1,0.6-2.4,1-3.8,1c-1.4,0-2.7-0.3-3.8-1c-1.1-0.6-2-1.5-2.7-2.7
		c-0.7-1.2-1-2.5-1-4c0-1.5,0.3-2.8,1-4c0.7-1.2,1.6-2.1,2.7-2.7c1.1-0.7,2.4-1,3.8-1c1.4,0,2.6,0.3,3.8,1c1.1,0.7,2.1,1.6,2.7,2.7
		c0.7,1.2,1,2.5,1,4C629.7,162.1,629.4,163.5,628.7,164.6z M625.9,158.3c-0.4-0.7-0.9-1.3-1.5-1.6c-0.6-0.4-1.3-0.6-2.1-0.6
		c-0.8,0-1.5,0.2-2.1,0.6c-0.6,0.4-1.1,0.9-1.5,1.6c-0.4,0.7-0.6,1.5-0.6,2.4c0,0.9,0.2,1.7,0.6,2.4c0.4,0.7,0.9,1.2,1.5,1.6
		c0.6,0.4,1.3,0.6,2.1,0.6c0.8,0,1.5-0.2,2.1-0.6c0.6-0.4,1.1-0.9,1.5-1.6c0.4-0.7,0.6-1.5,0.6-2.4
		C626.4,159.8,626.2,159,625.9,158.3z"/>
	<path fill="#30ABAA" d="M644.2,154.7c0.7,1.1,1.1,2.6,1.1,4.6v7.1c0,0.5-0.2,0.9-0.5,1.2c-0.3,0.3-0.7,0.5-1.2,0.5
		c-0.5,0-0.9-0.2-1.2-0.5c-0.3-0.3-0.5-0.7-0.5-1.2v-7.1c0-1-0.2-1.8-0.6-2.4c-0.4-0.6-1.1-0.9-2.2-0.9c-1.1,0-1.9,0.3-2.5,0.9
		c-0.6,0.6-0.9,1.4-0.9,2.3v7.1c0,0.5-0.2,0.9-0.5,1.2c-0.3,0.3-0.7,0.5-1.2,0.5c-0.5,0-0.9-0.2-1.2-0.5c-0.3-0.3-0.5-0.7-0.5-1.2
		V155c0-0.5,0.2-0.9,0.5-1.2c0.3-0.3,0.7-0.5,1.2-0.5c0.5,0,0.9,0.2,1.2,0.5c0.3,0.3,0.5,0.7,0.5,1.2v0.5c0.5-0.7,1.1-1.2,1.9-1.7
		c0.8-0.5,1.7-0.7,2.6-0.7C642.2,153,643.5,153.6,644.2,154.7z"/>
	<path fill="#30ABAA" d="M656.7,165.3c0.2,0.2,0.3,0.6,0.3,1c0,0.5-0.3,0.9-0.8,1.3c-0.5,0.3-1.2,0.5-1.8,0.5
		c-1.1,0-2.1-0.2-2.9-0.7c-0.8-0.5-1.2-1.5-1.2-3.1v-7.6h-1.3c-0.4,0-0.8-0.1-1.1-0.4c-0.3-0.3-0.4-0.7-0.4-1.1
		c0-0.4,0.1-0.8,0.4-1.1c0.3-0.3,0.7-0.4,1.1-0.4h1.3v-1.8c0-0.5,0.2-0.9,0.5-1.2c0.3-0.3,0.7-0.5,1.2-0.5c0.5,0,0.8,0.2,1.2,0.5
		c0.3,0.3,0.5,0.7,0.5,1.2v1.8h2c0.4,0,0.8,0.1,1.1,0.4c0.3,0.3,0.4,0.7,0.4,1.1c0,0.4-0.1,0.8-0.4,1.1c-0.3,0.3-0.7,0.4-1.1,0.4h-2
		v7.5c0,0.4,0.1,0.7,0.3,0.8c0.2,0.2,0.5,0.3,0.8,0.3c0.1,0,0.3,0,0.6-0.1c0.2-0.1,0.4-0.1,0.6-0.1
		C656.3,164.9,656.5,165,656.7,165.3z"/>
	<path fill="#30ABAA" d="M659.6,164.9c0-0.5,0.2-0.9,0.7-1.2c0.3-0.2,0.5-0.2,0.8-0.2c0.4,0,0.8,0.2,1.1,0.5c0.6,0.6,1.1,1,1.7,1.3
		c0.6,0.3,1.3,0.4,2.2,0.4c1.4-0.1,2.1-0.6,2.1-1.6c0-0.5-0.2-0.9-0.7-1.2c-0.5-0.3-1.2-0.6-2.3-0.8c-1.1-0.3-1.9-0.6-2.6-0.9
		c-0.7-0.3-1.2-0.7-1.7-1.3c-0.5-0.6-0.7-1.4-0.7-2.4c0-0.9,0.3-1.6,0.8-2.3c0.5-0.7,1.2-1.2,2-1.5c0.8-0.4,1.7-0.5,2.6-0.5
		c0.9,0,1.9,0.2,2.8,0.5c0.9,0.3,1.7,0.9,2.2,1.5c0.2,0.3,0.4,0.6,0.4,1c0,0.4-0.2,0.8-0.5,1c-0.3,0.2-0.6,0.3-0.9,0.3
		c-0.4,0-0.7-0.1-1-0.4c-0.3-0.4-0.8-0.7-1.3-1c-0.5-0.2-1.1-0.4-1.8-0.4c-1.4,0-2.1,0.5-2.1,1.5c0,0.4,0.1,0.7,0.4,1
		c0.3,0.2,0.6,0.4,1,0.6c0.4,0.1,1,0.3,1.7,0.5c1,0.3,1.8,0.6,2.5,0.9c0.7,0.3,1.2,0.7,1.7,1.3c0.5,0.6,0.7,1.4,0.7,2.4
		c0,0.9-0.3,1.7-0.8,2.4c-0.5,0.7-1.2,1.2-2.1,1.5c-0.8,0.3-1.7,0.5-2.6,0.5c-1.2,0-2.3-0.2-3.4-0.6c-1-0.4-1.9-1.1-2.6-2
		C659.7,165.5,659.6,165.2,659.6,164.9z"/>
</g>
</svg>
