<?xml version="1.0" encoding="utf-8"?>
<!-- Generator: Adobe Illustrator 18.0.0, SVG Export Plug-In . SVG Version: 6.00 Build 0)  -->
<!DOCTYPE svg PUBLIC "-//W3C//DTD SVG 1.1//EN" "http://www.w3.org/Graphics/SVG/1.1/DTD/svg11.dtd">
<svg version="1.1" id="Calque_1" xmlns="http://www.w3.org/2000/svg" xmlns:xlink="http://www.w3.org/1999/xlink" x="0px" y="0px"
	 viewBox="0 0 1280 800" enable-background="new 0 0 1280 800" xml:space="preserve">
<g>
	<path fill="#DBDBDB" d="M480.3,319.5h-72.5c-1.9,0-3.5-1.6-3.5-3.5v-72.5c0-1.9,1.6-3.5,3.5-3.5h72.5c1.9,0,3.5,1.6,3.5,3.5V316
		C483.7,317.9,482.1,319.5,480.3,319.5z M411.2,312.5h65.6v-65.6h-65.6V312.5z"/>
</g>
<g>
	<path fill="#DBDBDB" d="M603.7,319.5h-72.5c-1.9,0-3.5-1.6-3.5-3.5v-72.5c0-1.9,1.6-3.5,3.5-3.5h72.5c1.9,0,3.5,1.6,3.5,3.5V316
		C607.2,317.9,605.6,319.5,603.7,319.5z M534.7,312.5h65.6v-65.6h-65.6V312.5L534.7,312.5z"/>
</g>
<g>
	<path fill="#DBDBDB" d="M727.2,319.5h-72.5c-1.9,0-3.5-1.6-3.5-3.5v-72.5c0-1.9,1.6-3.5,3.5-3.5h72.5c1.9,0,3.5,1.6,3.5,3.5V316
		C730.7,317.9,729.1,319.5,727.2,319.5z M658.1,312.5h65.6v-65.6h-65.6V312.5z"/>
</g>
<g>
	<path fill="#DBDBDB" d="M480.3,432h-72.5c-1.9,0-3.5-1.6-3.5-3.5V356c0-1.9,1.6-3.5,3.5-3.5h72.5c1.9,0,3.5,1.6,3.5,3.5v72.5
		C483.7,430.4,482.1,432,480.3,432z M411.2,425.1h65.6v-65.6h-65.6V425.1z"/>
</g>
<g>
	<rect x="399.7" y="571.2" fill="#FECBA7" width="88.5" height="88.5"/>
</g>
<g>
	<path fill="#DBDBDB" d="M603.7,432h-72.5c-1.9,0-3.5-1.6-3.5-3.5V356c0-1.9,1.6-3.5,3.5-3.5h72.5c1.9,0,3.5,1.6,3.5,3.5v72.5
		C607.2,430.4,605.6,432,603.7,432z M534.7,425.1h65.6v-65.6h-65.6V425.1L534.7,425.1z"/>
</g>
<g>
	<path fill="#DBDBDB" d="M727.2,432h-72.5c-1.9,0-3.5-1.6-3.5-3.5V356c0-1.9,1.6-3.5,3.5-3.5h72.5c1.9,0,3.5,1.6,3.5,3.5v72.5
		C730.7,430.4,729.1,432,727.2,432z M658.1,425.1h65.6v-65.6h-65.6V425.1z"/>
</g>
<g>
	<path fill="#DBDBDB" d="M782.4,471.7H352.5c-1.9,0-3.5-1.6-3.5-3.5V204c0-1.9,1.6-3.5,3.5-3.5h429.9c1.9,0,3.5,1.6,3.5,3.5v264.3
		C785.9,470.1,784.3,471.7,782.4,471.7z M356,464.8h423.2V207.2H356V464.8z"/>
</g>
<g>
	<path fill="#DBDBDB" d="M444,541.3c-1.9,0-3.5-1.6-3.5-3.5V392.5c0-1.9,1.6-3.5,3.5-3.5s3.5,1.6,3.5,3.5v145.3
		C447.5,539.7,445.9,541.3,444,541.3z"/>
</g>
<g>
	<path fill="#DBDBDB" d="M852.3,283.2H690.7c-1.9,0-3.5-1.6-3.5-3.5s1.6-3.5,3.5-3.5h161.6c1.9,0,3.5,1.6,3.5,3.5
		C855.7,281.6,854.1,283.2,852.3,283.2z"/>
</g>
<g>
	<path fill="#DBDBDB" d="M852.3,395.7H690.7c-1.9,0-3.5-1.6-3.5-3.5c0-1.9,1.6-3.5,3.5-3.5h161.6c1.9,0,3.5,1.6,3.5,3.5
		C855.7,394.1,854.1,395.7,852.3,395.7z"/>
</g>
<g>
	<path fill="#DBDBDB" d="M782.7,204v-39.5c0-30.1-24.3-54.4-53.9-54.4H406.4c-29.9,0-53.9,24.3-53.9,54.4v39.2h430.1V204z"/>
	<path fill="#DBDBDB" d="M782.7,207.2H352.5c-1.9,0-3.5-1.6-3.5-3.5v-39.2c0-32,25.9-57.9,57.3-57.9h322.1
		c31.7,0,57.3,25.9,57.3,57.9v39.2C785.9,205.9,784.5,207.2,782.7,207.2z M356,200.5h423.2v-36c0-28-22.7-50.9-50.4-50.9H406.4
		c-27.7,0-50.4,22.9-50.4,50.9V200.5z"/>
</g>
<g>
	<polygon fill="#36DDDE" points="875.7,305.9 921.3,227.2 966.7,305.9 	"/>
</g>
<g>
	<circle fill="#78B7D6" cx="921.3" cy="392.3" r="39.7"/>
	<path fill="#78B7D6" d="M921.3,435.5c-23.7,0-43.2-19.5-43.2-43.2s19.5-43.2,43.2-43.2c23.7,0,43.2,19.5,43.2,43.2
		S945.1,435.5,921.3,435.5z M921.3,356c-20,0-36.3,16.3-36.3,36.3s16.3,36.3,36.3,36.3s36.3-16.3,36.3-36.3S941.3,356,921.3,356z"/>
</g>
<g>
	<path fill="#DBDBDB" d="M749.9,579.7H531.2c-1.9,0-3.5-1.6-3.5-3.5s1.6-3.5,3.5-3.5h218.7c1.9,0,3.5,1.6,3.5,3.5
		C753.3,578.4,751.7,579.7,749.9,579.7z"/>
</g>
<g>
	<path fill="#DBDBDB" d="M749.9,618.9H531.2c-1.9,0-3.5-1.6-3.5-3.5c0-1.9,1.6-3.5,3.5-3.5h218.7c1.9,0,3.5,1.6,3.5,3.5
		C753.3,617.3,751.7,618.9,749.9,618.9z"/>
</g>
<g>
	<path fill="#DBDBDB" d="M749.9,657.9H531.2c-1.9,0-3.5-1.6-3.5-3.5c0-1.9,1.6-3.5,3.5-3.5h218.7c1.9,0,3.5,1.6,3.5,3.5
		C753.3,656.3,751.7,657.9,749.9,657.9z"/>
</g>
<g>
	<path fill="#DBDBDB" d="M578.1,702.1H399.7c-1.9,0-3.5-1.6-3.5-3.5c0-1.9,1.6-3.5,3.5-3.5h178.4c1.9,0,3.5,1.6,3.5,3.5
		C581.3,700.5,580,702.1,578.1,702.1z"/>
</g>
<g>
	<path fill="#DBDBDB" d="M749.9,702.1H632c-1.9,0-3.5-1.6-3.5-3.5c0-1.9,1.6-3.5,3.5-3.5h117.6c1.9,0,3.5,1.6,3.5,3.5
		C753.3,700.5,751.7,702.1,749.9,702.1z"/>
</g>
</svg>
