<?xml version="1.0" encoding="utf-8"?>
<!-- Generator: Adobe Illustrator 18.0.0, SVG Export Plug-In . SVG Version: 6.00 Build 0)  -->
<!DOCTYPE svg PUBLIC "-//W3C//DTD SVG 1.1//EN" "http://www.w3.org/Graphics/SVG/1.1/DTD/svg11.dtd">
<svg version="1.1" id="Calque_1" xmlns="http://www.w3.org/2000/svg" xmlns:xlink="http://www.w3.org/1999/xlink" x="0px" y="0px"
	 viewBox="0 0 300 300" enable-background="new 0 0 300 300" xml:space="preserve">
<g>
	<g>
		<polygon fill="#10DDD0" points="87.9,144.6 87.9,122 77.3,122 77.3,144.6 73.6,144.6 82.6,155.4 91.5,144.6 		"/>
	</g>
	<g>
		<path d="M134.8,107.7H44.5c-0.3,0-0.5-0.2-0.5-0.5c0-0.3,0.2-0.5,0.5-0.5h90.3c0.3,0,0.5,0.2,0.5,0.5
			C135.3,107.5,135.1,107.7,134.8,107.7z"/>
	</g>
	<g>
		<path d="M127.3,116.4H36.4c-0.3,0-0.5-0.2-0.5-0.5c0-0.3,0.2-0.5,0.5-0.5h90.9c0.3,0,0.5,0.2,0.5,0.5
			C127.8,116.2,127.6,116.4,127.3,116.4z"/>
	</g>
	<g>
		<path d="M119.6,125.7H28.4c-0.3,0-0.5-0.2-0.5-0.5c0-0.3,0.2-0.5,0.5-0.5h91.2c0.3,0,0.5,0.2,0.5,0.5
			C120.1,125.4,119.9,125.7,119.6,125.7z"/>
	</g>
	<g>
		<path stroke="#321C52" stroke-width="2" stroke-miterlimit="10" d="M34.3,130.8c-0.1,0-0.3,0-0.3-0.1c-0.2-0.2-0.2-0.5,0-0.7
			l28.8-28.8c0.2-0.2,0.5-0.2,0.7,0c0.2,0.2,0.2,0.5,0,0.7l-28.8,28.8C34.6,130.8,34.5,130.8,34.3,130.8z"/>
	</g>
	<g>
		<path stroke="#321C52" stroke-width="2" stroke-miterlimit="10" d="M51,130.8c-0.1,0-0.3,0-0.3-0.1c-0.2-0.2-0.2-0.5,0-0.7
			l28.8-28.8c0.2-0.2,0.5-0.2,0.7,0c0.2,0.2,0.2,0.5,0,0.7l-28.8,28.8C51.2,130.8,51.1,130.8,51,130.8z"/>
	</g>
	<g>
		<path stroke="#321C52" stroke-width="2" stroke-miterlimit="10" d="M67.7,130.8c-0.1,0-0.3,0-0.3-0.1c-0.2-0.2-0.2-0.5,0-0.7
			l28.8-28.8c0.2-0.2,0.5-0.2,0.7,0c0.2,0.2,0.2,0.5,0,0.7L68,130.7C67.9,130.8,67.8,130.8,67.7,130.8z"/>
	</g>
	<g>
		<path stroke="#321C52" stroke-width="2" stroke-miterlimit="10" d="M84.3,130.8c-0.1,0-0.3,0-0.3-0.1c-0.2-0.2-0.2-0.5,0-0.7
			l28.8-28.8c0.2-0.2,0.5-0.2,0.7,0c0.2,0.2,0.2,0.5,0,0.7l-28.8,28.8C84.6,130.8,84.4,130.8,84.3,130.8z"/>
	</g>
	<g>
		<path stroke="#321C52" stroke-width="2" stroke-miterlimit="10" d="M101,130.8c-0.1,0-0.3,0-0.3-0.1c-0.2-0.2-0.2-0.5,0-0.7
			l28.8-28.8c0.2-0.2,0.5-0.2,0.7,0c0.2,0.2,0.2,0.5,0,0.7l-28.8,28.8C101.2,130.8,101.1,130.8,101,130.8z"/>
	</g>
	<g>
		<rect x="41.5" y="32.7" fill="#EFDE00" stroke="#321C52" stroke-width="3" stroke-miterlimit="10" width="82.2" height="7.8"/>
		<path fill="#EFDE00" stroke="#321C52" stroke-width="3" stroke-miterlimit="10" d="M123.7,41.1H41.5c-0.3,0-0.5-0.2-0.5-0.5v-7.8
			c0-0.3,0.2-0.5,0.5-0.5h82.2c0.3,0,0.5,0.2,0.5,0.5v7.8C124.2,40.8,123.9,41.1,123.7,41.1z M42,40.1h81.2v-6.8H42V40.1z"/>
	</g>
	<g>
		<path fill="#FFFFFF" stroke="#321C52" stroke-width="3" stroke-miterlimit="10" d="M82.6,40.6H41.5c0,0,3.8,25.9,34.4,46.4V111
			h13.2V86.9h0.1c30.6-20.5,34.4-46.4,34.4-46.4H82.6z"/>
		<path fill="#FFFFFF" stroke="#321C52" stroke-width="3" stroke-miterlimit="10" d="M89.1,111.5H75.9c-0.3,0-0.5-0.2-0.5-0.5V87.2
			C45.2,66.9,41,40.9,41,40.6c0-0.1,0-0.3,0.1-0.4c0.1-0.1,0.2-0.2,0.4-0.2h82.2c0.1,0,0.3,0.1,0.4,0.2c0.1,0.1,0.1,0.3,0.1,0.4
			c0,0.3-4.2,26.3-34.6,46.7V111C89.6,111.3,89.4,111.5,89.1,111.5z M76.4,110.5h12.2V86.9c0-0.3,0.2-0.5,0.5-0.5
			c27.5-18.4,33.2-41.5,34-45.4h-81c0.8,3.9,6.6,27,34.1,45.5c0.1,0.1,0.2,0.2,0.2,0.4V110.5z"/>
	</g>
	<g>
		<path stroke="#321C52" stroke-width="2" stroke-miterlimit="10" d="M84.4,111.5c-0.3,0-0.5-0.2-0.5-0.5V88c0-0.3,0.2-0.5,0.5-0.5
			c0.3,0,0.5,0.2,0.5,0.5v23C84.9,111.3,84.7,111.5,84.4,111.5z"/>
	</g>
	<g>
		<path stroke="#321C52" stroke-width="3" stroke-miterlimit="10" d="M95.5,76.3c-0.1,0-0.3-0.1-0.4-0.2c-0.2-0.2-0.2-0.5,0-0.7
			c14.8-13.9,18.9-26.2,19-26.3c0.1-0.3,0.4-0.4,0.6-0.3c0.3,0.1,0.4,0.4,0.3,0.6c0,0.1-4.3,12.6-19.2,26.7
			C95.8,76.2,95.6,76.3,95.5,76.3z"/>
	</g>
</g>
<g>
	<g>
		<polygon fill="#10DDD0" points="215.2,146.8 215.2,124.2 204.6,124.2 204.6,146.8 201,146.8 209.9,157.6 218.9,146.8 		"/>
	</g>
	<g>
		<path d="M262.2,109.9h-90.3c-0.3,0-0.5-0.2-0.5-0.5c0-0.3,0.2-0.5,0.5-0.5h90.3c0.3,0,0.5,0.2,0.5,0.5
			C262.7,109.7,262.4,109.9,262.2,109.9z"/>
	</g>
	<g>
		<path d="M254.6,118.6h-90.9c-0.3,0-0.5-0.2-0.5-0.5c0-0.3,0.2-0.5,0.5-0.5h90.9c0.3,0,0.5,0.2,0.5,0.5
			C255.1,118.4,254.9,118.6,254.6,118.6z"/>
	</g>
	<g>
		<path d="M247,127.8h-91.2c-0.3,0-0.5-0.2-0.5-0.5c0-0.3,0.2-0.5,0.5-0.5H247c0.3,0,0.5,0.2,0.5,0.5
			C247.5,127.6,247.2,127.8,247,127.8z"/>
	</g>
	<g>
		<path stroke="#321C52" stroke-width="2" stroke-miterlimit="10" d="M161.7,133c-0.1,0-0.3,0-0.3-0.1c-0.2-0.2-0.2-0.5,0-0.7
			l28.8-28.8c0.2-0.2,0.5-0.2,0.7,0c0.2,0.2,0.2,0.5,0,0.7L162,132.8C161.9,132.9,161.8,133,161.7,133z"/>
	</g>
	<g>
		<path stroke="#321C52" stroke-width="2" stroke-miterlimit="10" d="M178.3,133c-0.1,0-0.3,0-0.3-0.1c-0.2-0.2-0.2-0.5,0-0.7
			l28.8-28.8c0.2-0.2,0.5-0.2,0.7,0c0.2,0.2,0.2,0.5,0,0.7l-28.8,28.8C178.6,132.9,178.5,133,178.3,133z"/>
	</g>
	<g>
		<path stroke="#321C52" stroke-width="2" stroke-miterlimit="10" d="M195,133c-0.1,0-0.3,0-0.3-0.1c-0.2-0.2-0.2-0.5,0-0.7
			l28.8-28.8c0.2-0.2,0.5-0.2,0.7,0c0.2,0.2,0.2,0.5,0,0.7l-28.8,28.8C195.3,132.9,195.1,133,195,133z"/>
	</g>
	<g>
		<path stroke="#321C52" stroke-width="2" stroke-miterlimit="10" d="M211.7,133c-0.1,0-0.3,0-0.3-0.1c-0.2-0.2-0.2-0.5,0-0.7
			l28.8-28.8c0.2-0.2,0.5-0.2,0.7,0c0.2,0.2,0.2,0.5,0,0.7L212,132.8C211.9,132.9,211.8,133,211.7,133z"/>
	</g>
	<g>
		<path stroke="#321C52" stroke-width="2" stroke-miterlimit="10" d="M228.3,133c-0.1,0-0.3,0-0.3-0.1c-0.2-0.2-0.2-0.5,0-0.7
			l28.8-28.8c0.2-0.2,0.5-0.2,0.7,0c0.2,0.2,0.2,0.5,0,0.7l-28.8,28.8C228.6,132.9,228.5,133,228.3,133z"/>
	</g>
	<g>
		<rect x="168.8" y="34.9" fill="#EFDE00" stroke="#321C52" stroke-width="3" stroke-miterlimit="10" width="82.2" height="7.8"/>
		<path fill="#EFDE00" stroke="#321C52" stroke-width="3" stroke-miterlimit="10" d="M251,43.2h-82.2c-0.3,0-0.5-0.2-0.5-0.5v-7.8
			c0-0.3,0.2-0.5,0.5-0.5H251c0.3,0,0.5,0.2,0.5,0.5v7.8C251.5,43,251.3,43.2,251,43.2z M169.3,42.3h81.2v-6.8h-81.2V42.3z"/>
	</g>
	<g>
		<path fill="#FFFFFF" stroke="#321C52" stroke-width="3" stroke-miterlimit="10" d="M209.9,42.7h-41.1c0,0,3.8,25.9,34.4,46.4v24.1
			h13.2V89.1h0.1C247.2,68.6,251,42.7,251,42.7H209.9z"/>
		<path fill="#FFFFFF" stroke="#321C52" stroke-width="3" stroke-miterlimit="10" d="M216.5,113.7h-13.2c-0.3,0-0.5-0.2-0.5-0.5
			V89.4c-30.2-20.3-34.4-46.3-34.4-46.6c0-0.1,0-0.3,0.1-0.4c0.1-0.1,0.2-0.2,0.4-0.2H251c0.1,0,0.3,0.1,0.4,0.2
			c0.1,0.1,0.1,0.3,0.1,0.4c0,0.3-4.2,26.3-34.6,46.7v23.7C216.9,113.5,216.7,113.7,216.5,113.7z M203.8,112.7H216V89.1
			c0-0.3,0.2-0.5,0.5-0.5c27.5-18.4,33.2-41.5,34-45.4h-81c0.8,3.9,6.6,27,34.1,45.5c0.1,0.1,0.2,0.2,0.2,0.4V112.7z"/>
	</g>
	<g>
		<path stroke="#321C52" stroke-width="2" stroke-miterlimit="10" d="M211.7,113.7c-0.3,0-0.5-0.2-0.5-0.5v-23
			c0-0.3,0.2-0.5,0.5-0.5c0.3,0,0.5,0.2,0.5,0.5v23C212.2,113.5,212,113.7,211.7,113.7z"/>
	</g>
	<g>
		<path stroke="#321C52" stroke-width="3" stroke-miterlimit="10" d="M222.9,78.5c-0.1,0-0.3-0.1-0.4-0.2c-0.2-0.2-0.2-0.5,0-0.7
			c14.8-13.9,18.9-26.2,19-26.3c0.1-0.3,0.4-0.4,0.6-0.3c0.3,0.1,0.4,0.4,0.3,0.6c0,0.1-4.3,12.6-19.2,26.7
			C223.1,78.4,223,78.5,222.9,78.5z"/>
	</g>
</g>
<g>
	<g>
		<polygon fill="#10DDD0" points="153.6,266.4 153.6,243.8 143,243.8 143,266.4 139.3,266.4 148.3,277.2 157.2,266.4 		"/>
	</g>
	<g>
		<path d="M200.5,229.6h-90.3c-0.3,0-0.5-0.2-0.5-0.5c0-0.3,0.2-0.5,0.5-0.5h90.3c0.3,0,0.5,0.2,0.5,0.5
			C201,229.3,200.8,229.6,200.5,229.6z"/>
	</g>
	<g>
		<path d="M193,238.2H102c-0.3,0-0.5-0.2-0.5-0.5c0-0.3,0.2-0.5,0.5-0.5H193c0.3,0,0.5,0.2,0.5,0.5C193.5,238,193.2,238.2,193,238.2
			z"/>
	</g>
	<g>
		<path d="M185.3,247.5H94.1c-0.3,0-0.5-0.2-0.5-0.5c0-0.3,0.2-0.5,0.5-0.5h91.2c0.3,0,0.5,0.2,0.5,0.5
			C185.8,247.2,185.6,247.5,185.3,247.5z"/>
	</g>
	<g>
		<path stroke="#321C52" stroke-width="2" stroke-miterlimit="10" d="M100,252.6c-0.1,0-0.3,0-0.3-0.1c-0.2-0.2-0.2-0.5,0-0.7
			l28.8-28.8c0.2-0.2,0.5-0.2,0.7,0c0.2,0.2,0.2,0.5,0,0.7l-28.8,28.8C100.3,252.6,100.1,252.6,100,252.6z"/>
	</g>
	<g>
		<path stroke="#321C52" stroke-width="2" stroke-miterlimit="10" d="M116.7,252.6c-0.1,0-0.3,0-0.3-0.1c-0.2-0.2-0.2-0.5,0-0.7
			l28.8-28.8c0.2-0.2,0.5-0.2,0.7,0c0.2,0.2,0.2,0.5,0,0.7L117,252.5C116.9,252.6,116.8,252.6,116.7,252.6z"/>
	</g>
	<g>
		<path stroke="#321C52" stroke-width="2" stroke-miterlimit="10" d="M133.3,252.6c-0.1,0-0.3,0-0.3-0.1c-0.2-0.2-0.2-0.5,0-0.7
			l28.8-28.8c0.2-0.2,0.5-0.2,0.7,0c0.2,0.2,0.2,0.5,0,0.7l-28.8,28.8C133.6,252.6,133.5,252.6,133.3,252.6z"/>
	</g>
	<g>
		<path stroke="#321C52" stroke-width="2" stroke-miterlimit="10" d="M150,252.6c-0.1,0-0.3,0-0.3-0.1c-0.2-0.2-0.2-0.5,0-0.7
			l28.8-28.8c0.2-0.2,0.5-0.2,0.7,0c0.2,0.2,0.2,0.5,0,0.7l-28.8,28.8C150.2,252.6,150.1,252.6,150,252.6z"/>
	</g>
	<g>
		<path stroke="#321C52" stroke-width="2" stroke-miterlimit="10" d="M166.7,252.6c-0.1,0-0.3,0-0.3-0.1c-0.2-0.2-0.2-0.5,0-0.7
			l28.8-28.8c0.2-0.2,0.5-0.2,0.7,0c0.2,0.2,0.2,0.5,0,0.7L167,252.5C166.9,252.6,166.8,252.6,166.7,252.6z"/>
	</g>
	<g>
		<rect x="107.2" y="154.5" fill="#EFDE00" stroke="#321C52" stroke-width="3" stroke-miterlimit="10" width="82.2" height="7.8"/>
		<path fill="#EFDE00" stroke="#321C52" stroke-width="3" stroke-miterlimit="10" d="M189.4,162.9h-82.2c-0.3,0-0.5-0.2-0.5-0.5
			v-7.8c0-0.3,0.2-0.5,0.5-0.5h82.2c0.3,0,0.5,0.2,0.5,0.5v7.8C189.9,162.6,189.6,162.9,189.4,162.9z M107.7,161.9h81.2V155h-81.2
			V161.9z"/>
	</g>
	<g>
		<path fill="#FFFFFF" stroke="#321C52" stroke-width="3" stroke-miterlimit="10" d="M148.3,162.4h-41.1c0,0,3.8,25.9,34.4,46.4
			v24.1h13.2v-24.1h0.1c30.6-20.5,34.4-46.4,34.4-46.4H148.3z"/>
		<path fill="#FFFFFF" stroke="#321C52" stroke-width="3" stroke-miterlimit="10" d="M154.8,233.3h-13.2c-0.3,0-0.5-0.2-0.5-0.5V209
			c-30.2-20.3-34.4-46.3-34.4-46.6c0-0.1,0-0.3,0.1-0.4c0.1-0.1,0.2-0.2,0.4-0.2h82.2c0.1,0,0.3,0.1,0.4,0.2
			c0.1,0.1,0.1,0.3,0.1,0.4c0,0.3-4.2,26.3-34.6,46.7v23.7C155.3,233.1,155.1,233.3,154.8,233.3z M142.1,232.3h12.2v-23.6
			c0-0.3,0.2-0.5,0.5-0.5c27.5-18.4,33.2-41.5,34-45.4h-81c0.8,3.9,6.6,27,34.1,45.5c0.1,0.1,0.2,0.2,0.2,0.4V232.3z"/>
	</g>
	<g>
		<path stroke="#321C52" stroke-width="2" stroke-miterlimit="10" d="M150.1,233.3c-0.3,0-0.5-0.2-0.5-0.5v-23
			c0-0.3,0.2-0.5,0.5-0.5c0.3,0,0.5,0.2,0.5,0.5v23C150.6,233.1,150.3,233.3,150.1,233.3z"/>
	</g>
	<g>
		<path stroke="#321C52" stroke-width="3" stroke-miterlimit="10" d="M161.2,198.1c-0.1,0-0.3-0.1-0.4-0.2c-0.2-0.2-0.2-0.5,0-0.7
			c14.8-13.9,18.9-26.2,19-26.3c0.1-0.3,0.4-0.4,0.6-0.3c0.3,0.1,0.4,0.4,0.3,0.6c0,0.1-4.3,12.6-19.2,26.7
			C161.4,198,161.3,198.1,161.2,198.1z"/>
	</g>
</g>
</svg>
