<?xml version="1.0" encoding="utf-8"?>
<!-- Generator: Adobe Illustrator 18.0.0, SVG Export Plug-In . SVG Version: 6.00 Build 0)  -->
<!DOCTYPE svg PUBLIC "-//W3C//DTD SVG 1.1//EN" "http://www.w3.org/Graphics/SVG/1.1/DTD/svg11.dtd">
<svg version="1.1" id="Calque_1" xmlns="http://www.w3.org/2000/svg" xmlns:xlink="http://www.w3.org/1999/xlink" x="0px" y="0px"
	 viewBox="0 0 1280 800" enable-background="new 0 0 1280 800" xml:space="preserve">
<g>
	<g>
		<path fill="#DBDBDB" d="M937.9,184.3c0,0.5-0.3,1.1-0.5,1.6L798.1,468.8c-1.1,2.4-4,3.5-6.4,2.1L508.3,335.2L371.2,614.1
			c-1.1,2.4-4,3.5-6.4,2.1c-2.4-1.1-3.5-4-2.1-6.4l139.2-282.9c1.1-2.4,4-3.5,6.4-2.1l283.5,135.7l137.1-278.7
			c1.1-2.4,4-3.5,6.4-2.1C937.1,180.3,938.1,182.1,937.9,184.3z"/>
	</g>
	<g>
		<path fill="#FECBA7" d="M373.3,560.8c28.3,3.7,48.3,29.6,44.8,57.9c-3.7,28.3-29.6,48.3-57.9,44.8c-28.3-4-48.3-29.9-44.5-58.1
			C319.2,577.1,345.1,557.1,373.3,560.8z"/>
		<path fill="#FECBA7" d="M422.9,619.2c-4,30.9-32.3,52.8-63.2,48.8s-52.8-32.3-48.8-63.2c4-30.9,32.3-52.8,63.2-48.8
			S426.9,588.3,422.9,619.2z M320.5,606.1c-3.2,25.6,14.9,49.1,40.5,52.5c25.6,3.2,49.1-14.9,52.5-40.5
			c3.2-25.6-14.9-49.1-40.5-52.5C347.2,562.1,323.7,580.3,320.5,606.1z"/>
	</g>
	<g>
		<path fill="#FECBA7" d="M516,282.1c28.3,3.7,48.3,29.6,44.8,57.9c-3.7,28.3-29.6,48.3-57.9,44.8c-28.3-3.7-48.3-29.6-44.8-57.9
			C461.6,298.4,487.5,278.4,516,282.1z"/>
		<path fill="#FECBA7" d="M565.3,340.5c-4,30.9-32.3,52.8-63.2,48.8c-30.9-4-52.8-32.3-48.8-63.2c4-30.9,32.3-52.8,63.2-48.8
			S569.3,309.6,565.3,340.5z M462.9,327.5c-3.2,25.6,14.9,49.1,40.5,52.5c25.6,3.2,49.1-14.9,52.5-40.5
			c3.2-25.6-14.9-49.1-40.5-52.5C489.6,283.5,466.1,301.9,462.9,327.5z"/>
	</g>
	<g>
		<path fill="#36BADF" d="M797.1,411.2c28.3,3.7,48.3,29.6,44.8,57.9c-3.7,28.3-29.6,48.3-57.9,44.8c-28.3-3.7-48.3-29.6-44.8-57.9
			C742.9,427.7,768.8,407.5,797.1,411.2z"/>
		<path fill="#36BADF" d="M846.7,469.6c-4,30.9-32.3,52.8-63.2,48.8s-52.8-32.3-48.8-63.2s32.3-52.8,63.2-48.8
			C828.5,410.4,850.4,438.7,846.7,469.6z M744,456.5c-3.2,25.6,14.9,49.1,40.5,52.5c25.6,3.2,49.1-14.9,52.5-40.5
			c3.2-25.6-14.9-49.1-40.5-52.5C770.9,412.8,747.5,430.9,744,456.5z"/>
	</g>
	<g>
		<path fill="#0FDDD1" d="M939.5,132.3c28.3,3.7,48.3,29.6,44.8,57.9c-3.7,28.3-29.6,48.3-57.9,44.8c-28.3-3.7-48.3-29.6-44.8-57.9
			C885.3,148.8,911.2,128.8,939.5,132.3z"/>
		<path fill="#0FDDD1" d="M989.1,190.7c-4,30.9-32.3,52.8-63.2,48.8s-52.8-32.3-48.8-63.2s32.3-52.8,63.2-48.8
			C971.2,131.5,993.1,160,989.1,190.7z M886.7,177.6c-3.2,25.6,14.9,49.1,40.5,52.5c25.6,3.2,49.1-14.9,52.5-40.5
			c3.2-25.6-14.9-49.1-40.5-52.5C913.3,133.9,889.9,152,886.7,177.6z"/>
	</g>
</g>
</svg>
