<?xml version="1.0" encoding="utf-8"?>
<!-- Generator: Adobe Illustrator 18.0.0, SVG Export Plug-In . SVG Version: 6.00 Build 0)  -->
<!DOCTYPE svg PUBLIC "-//W3C//DTD SVG 1.1//EN" "http://www.w3.org/Graphics/SVG/1.1/DTD/svg11.dtd">
<svg version="1.1" id="Calque_1" xmlns="http://www.w3.org/2000/svg" xmlns:xlink="http://www.w3.org/1999/xlink" x="0px" y="0px"
	 viewBox="0 0 1280 800" enable-background="new 0 0 1280 800" xml:space="preserve">
<g>
	<g>
		<polygon fill="#36DFDE" points="669.3,721.5 669.3,580.4 603.2,580.4 603.2,721.5 580.1,721.5 636.3,788.9 691.8,721.5 		"/>
	</g>
	<g>
		<path fill="#DBDBDB" d="M591.9,484.9H398.4c-1.9,0-3.1,1.2-3.1,3.1c0,1.9,1.2,3.1,3.1,3.1h191.9
			C590.4,489,590.9,486.8,591.9,484.9z"/>
		<path fill="#DBDBDB" d="M962.1,484.9H681c0.6,2,0.7,4.1,0.3,6.2h280.8c1.9,0,3.1-1.2,3.1-3.1C965.2,486.1,964,484.9,962.1,484.9z"
			/>
	</g>
	<g>
		<path fill="#DBDBDB" d="M915.3,545.4H347.9c-1.9,0-3.1-1.2-3.1-3.1s1.2-3.1,3.1-3.1h567.4c1.9,0,3.1,1.2,3.1,3.1
			C918.4,544.2,917.2,545.4,915.3,545.4z"/>
	</g>
	<g>
		<path fill="#DBDBDB" d="M867.2,603.5H298c-1.9,0-3.1-1.2-3.1-3.1s1.2-3.1,3.1-3.1h569.3c1.9,0,3.1,1.2,3.1,3.1
			C870.3,601.6,869.1,603.5,867.2,603.5z"/>
	</g>
	<g>
		<path fill="#DBDBDB" d="M334.8,635.3c-0.6,0-1.9,0-1.9-0.6c-1.2-1.2-1.2-3.1,0-4.4l179.8-179.8c1.2-1.2,3.1-1.2,4.4,0
			c1.2,1.2,1.2,3.1,0,4.4L337.3,634.7C336.7,635.3,336,635.3,334.8,635.3z"/>
	</g>
	<g>
		<path fill="#DBDBDB" d="M590.4,477.1L437.1,630.3c-1.2,1.2-1.2,3.1,0,4.4c0,0.6,1.2,0.6,1.9,0.6c0.6,0,1.2,0,2.5-0.6l151.8-151.8
			C591.9,481.3,590.9,479.3,590.4,477.1z"/>
	</g>
	<g>
		<path fill="#DBDBDB" d="M662,509.7L541.4,630.3c-1.2,1.2-1.2,3.1,0,4.4c0,0.6,1.2,0.6,1.9,0.6c0.6,0,1.2,0,1.9-0.6l122.3-121.9
			C665.2,512.3,663.4,511.2,662,509.7z"/>
		<path fill="#DBDBDB" d="M725.5,450.6c-1.2-1.2-3.1-1.2-4.4,0l-42.6,42.6c1.5,1.6,2.4,3.7,2.8,5.8l44.2-44
			C726.8,453.7,726.8,451.8,725.5,450.6z"/>
	</g>
	<g>
		<path fill="#DBDBDB" d="M646.9,635.3c-0.6,0-1.9,0-1.9-0.6c-1.2-1.2-1.2-3.1,0-4.4l179.8-179.8c1.2-1.2,3.1-1.2,4.4,0
			c1.2,1.2,1.2,3.1,0,4.4L649.4,634.7C648.8,635.3,647.5,635.3,646.9,635.3z"/>
	</g>
	<g>
		<path fill="#DBDBDB" d="M751.1,635.3c-0.6,0-1.9,0-1.9-0.6c-1.2-1.2-1.2-3.1,0-4.4L929,450.6c1.2-1.2,3.1-1.2,4.4,0
			c1.2,1.2,1.2,3.1,0,4.4L753.6,634.7C752.4,635.3,751.7,635.3,751.1,635.3z"/>
	</g>
	<g>
		<rect x="379.7" y="18.3" fill="#FECBA7" width="513.1" height="48.7"/>
		<path fill="#FECBA7" d="M892.8,70.7H379.7c-1.9,0-3.1-1.2-3.1-3.1V18.9c0-1.9,1.2-3.1,3.1-3.1h513.1c1.9,0,3.1,1.2,3.1,3.1v48.7
			C895.9,68.9,894.1,70.7,892.8,70.7z M382.8,64.5h506.8V22.1H382.8V64.5z"/>
	</g>
	<g>
		<path fill="none" stroke="#DBDBDB" stroke-width="4" stroke-miterlimit="10" d="M676.8,514.9h-82.4c-1.9,0-3.1-1.2-3.1-3.1V363.2
			C402.8,236.5,376.6,74.2,376.6,72.3c0-0.6,0-1.9,0.6-2.5c0.6-0.6,1.2-1.2,2.5-1.2h513.1c0.6,0,1.9,0.6,2.5,1.2
			c0.6,0.6,0.6,1.9,0.6,2.5c0,1.9-26.2,164.2-216,291.5v147.9C680,513.6,678.7,514.9,676.8,514.9z"/>
	</g>
	<g>
		<path fill="#DBDBDB" d="M716.8,295.1c-0.6,0-1.9-0.6-2.5-1.2c-1.2-1.2-1.2-3.1,0-4.4c92.4-86.8,118-163.5,118.6-164.2
			c0.6-1.9,2.5-2.5,3.7-1.9c1.9,0.6,2.5,2.5,1.9,3.7c0,0.6-26.8,78.6-119.8,166.7C718.7,294.5,717.4,295.1,716.8,295.1z"/>
	</g>
</g>
</svg>
