<?xml version="1.0" encoding="utf-8"?>
<!-- Generator: Adobe Illustrator 18.0.0, SVG Export Plug-In . SVG Version: 6.00 Build 0)  -->
<!DOCTYPE svg PUBLIC "-//W3C//DTD SVG 1.1//EN" "http://www.w3.org/Graphics/SVG/1.1/DTD/svg11.dtd">
<svg version="1.1" id="Calque_1" xmlns="http://www.w3.org/2000/svg" xmlns:xlink="http://www.w3.org/1999/xlink" x="0px" y="0px"
	 viewBox="0 0 300 300" enable-background="new 0 0 300 300" xml:space="preserve">
<g>
	<path fill="#321C52" d="M90.1,119.8H62.9c-0.7,0-1.3-0.6-1.3-1.3V91.3c0-0.7,0.6-1.3,1.3-1.3h27.2c0.7,0,1.3,0.6,1.3,1.3v27.2
		C91.4,119.2,90.8,119.8,90.1,119.8z M64.2,117.2h24.6V92.6H64.2V117.2z"/>
</g>
<g>
	<path fill="#321C52" d="M136.4,119.8h-27.2c-0.7,0-1.3-0.6-1.3-1.3V91.3c0-0.7,0.6-1.3,1.3-1.3h27.2c0.7,0,1.3,0.6,1.3,1.3v27.2
		C137.7,119.2,137.1,119.8,136.4,119.8z M110.5,117.2h24.6V92.6h-24.6V117.2z"/>
</g>
<g>
	<path fill="#321C52" d="M182.7,119.8h-27.2c-0.7,0-1.3-0.6-1.3-1.3V91.3c0-0.7,0.6-1.3,1.3-1.3h27.2c0.7,0,1.3,0.6,1.3,1.3v27.2
		C184,119.2,183.4,119.8,182.7,119.8z M156.8,117.2h24.6V92.6h-24.6V117.2z"/>
</g>
<g>
	<path fill="#321C52" d="M90.1,162H62.9c-0.7,0-1.3-0.6-1.3-1.3v-27.2c0-0.7,0.6-1.3,1.3-1.3h27.2c0.7,0,1.3,0.6,1.3,1.3v27.2
		C91.4,161.4,90.8,162,90.1,162z M64.2,159.4h24.6v-24.6H64.2V159.4z"/>
</g>
<g>
	<rect x="59.9" y="214.2" fill="#EFDE00" width="33.2" height="33.2"/>
</g>
<g>
	<path fill="#321C52" d="M136.4,162h-27.2c-0.7,0-1.3-0.6-1.3-1.3v-27.2c0-0.7,0.6-1.3,1.3-1.3h27.2c0.7,0,1.3,0.6,1.3,1.3v27.2
		C137.7,161.4,137.1,162,136.4,162z M110.5,159.4h24.6v-24.6h-24.6V159.4z"/>
</g>
<g>
	<path fill="#321C52" d="M182.7,162h-27.2c-0.7,0-1.3-0.6-1.3-1.3v-27.2c0-0.7,0.6-1.3,1.3-1.3h27.2c0.7,0,1.3,0.6,1.3,1.3v27.2
		C184,161.4,183.4,162,182.7,162z M156.8,159.4h24.6v-24.6h-24.6V159.4z"/>
</g>
<g>
	<path fill="#321C52" stroke="#321C52" stroke-width="3" stroke-miterlimit="10" d="M203.4,176.9H42.2c-0.7,0-1.3-0.6-1.3-1.3V76.5
		c0-0.7,0.6-1.3,1.3-1.3h161.2c0.7,0,1.3,0.6,1.3,1.3v99.1C204.7,176.3,204.1,176.9,203.4,176.9z M43.5,174.3h158.7V77.7H43.5V174.3
		z"/>
</g>
<g>
	<path fill="#321C52" d="M76.5,203c-0.7,0-1.3-0.6-1.3-1.3v-54.5c0-0.7,0.6-1.3,1.3-1.3c0.7,0,1.3,0.6,1.3,1.3v54.5
		C77.8,202.4,77.2,203,76.5,203z"/>
</g>
<g>
	<path fill="#321C52" d="M229.6,106.2h-60.6c-0.7,0-1.3-0.6-1.3-1.3c0-0.7,0.6-1.3,1.3-1.3h60.6c0.7,0,1.3,0.6,1.3,1.3
		C230.9,105.6,230.3,106.2,229.6,106.2z"/>
</g>
<g>
	<path fill="#321C52" d="M229.6,148.4h-60.6c-0.7,0-1.3-0.6-1.3-1.3s0.6-1.3,1.3-1.3h60.6c0.7,0,1.3,0.6,1.3,1.3
		S230.3,148.4,229.6,148.4z"/>
</g>
<g>
	<path fill="#10DDD0" d="M203.5,76.5V61.7c0-11.3-9.1-20.4-20.2-20.4H62.4c-11.2,0-20.2,9.1-20.2,20.4v14.7H203.5z"/>
	<path stroke="#321C52" stroke-width="3" stroke-miterlimit="10" d="M203.5,77.7H42.2c-0.7,0-1.3-0.6-1.3-1.3V61.7
		c0-12,9.7-21.7,21.5-21.7h120.8c11.9,0,21.5,9.7,21.5,21.7v14.7C204.7,77.2,204.2,77.7,203.5,77.7z M43.5,75.2h158.7V61.7
		c0-10.5-8.5-19.1-18.9-19.1H62.4c-10.4,0-18.9,8.6-18.9,19.1V75.2z"/>
</g>
<g>
	<polygon fill="#0FDDD1" points="238.4,114.7 255.5,85.2 272.5,114.7 	"/>
</g>
<g>
	<circle fill="#94DD54" cx="255.5" cy="147.1" r="14.9"/>
	<path fill="#94DD54" d="M255.5,163.3c-8.9,0-16.2-7.3-16.2-16.2s7.3-16.2,16.2-16.2c8.9,0,16.2,7.3,16.2,16.2
		S264.4,163.3,255.5,163.3z M255.5,133.5c-7.5,0-13.6,6.1-13.6,13.6c0,7.5,6.1,13.6,13.6,13.6c7.5,0,13.6-6.1,13.6-13.6
		C269.1,139.6,263,133.5,255.5,133.5z"/>
</g>
<g>
	<path fill="#321C52" d="M191.2,217.4h-82c-0.7,0-1.3-0.6-1.3-1.3c0-0.7,0.6-1.3,1.3-1.3h82c0.7,0,1.3,0.6,1.3,1.3
		C192.5,216.9,191.9,217.4,191.2,217.4z"/>
</g>
<g>
	<path fill="#321C52" d="M191.2,232.1h-82c-0.7,0-1.3-0.6-1.3-1.3c0-0.7,0.6-1.3,1.3-1.3h82c0.7,0,1.3,0.6,1.3,1.3
		C192.5,231.5,191.9,232.1,191.2,232.1z"/>
</g>
<g>
	<path fill="#321C52" d="M191.2,246.7h-82c-0.7,0-1.3-0.6-1.3-1.3s0.6-1.3,1.3-1.3h82c0.7,0,1.3,0.6,1.3,1.3
		S191.9,246.7,191.2,246.7z"/>
</g>
<g>
	<path fill="#321C52" d="M126.8,263.3H59.9c-0.7,0-1.3-0.6-1.3-1.3c0-0.7,0.6-1.3,1.3-1.3h66.9c0.7,0,1.3,0.6,1.3,1.3
		C128,262.7,127.5,263.3,126.8,263.3z"/>
</g>
<g>
	<path fill="#321C52" d="M191.2,263.3H147c-0.7,0-1.3-0.6-1.3-1.3c0-0.7,0.6-1.3,1.3-1.3h44.1c0.7,0,1.3,0.6,1.3,1.3
		C192.5,262.7,191.9,263.3,191.2,263.3z"/>
</g>
</svg>
