<?xml version="1.0" encoding="utf-8"?>
<!-- Generator: Adobe Illustrator 18.0.0, SVG Export Plug-In . SVG Version: 6.00 Build 0)  -->
<!DOCTYPE svg PUBLIC "-//W3C//DTD SVG 1.1//EN" "http://www.w3.org/Graphics/SVG/1.1/DTD/svg11.dtd">
<svg version="1.1" id="Calque_1" xmlns="http://www.w3.org/2000/svg" xmlns:xlink="http://www.w3.org/1999/xlink" x="0px" y="0px"
	 viewBox="0 0 300 300" enable-background="new 0 0 300 300" xml:space="preserve">
<g>
	<g>
		<polygon fill="#10DDD0" points="158,255.8 158,212.9 137.8,212.9 137.8,255.8 130.8,255.8 147.9,276.4 164.9,255.8 		"/>
	</g>
	<g>
		<path d="M247.2,185.8H75.4c-0.5,0-0.9-0.4-0.9-0.9s0.4-0.9,0.9-0.9h171.7c0.5,0,0.9,0.4,0.9,0.9
			C248.1,185.4,247.7,185.8,247.2,185.8z"/>
	</g>
	<g>
		<path d="M232.9,202.3H60c-0.5,0-0.9-0.4-0.9-0.9s0.4-0.9,0.9-0.9h172.9c0.5,0,0.9,0.4,0.9,0.9
			C233.8,201.8,233.4,202.3,232.9,202.3z"/>
	</g>
	<g>
		<path d="M218.3,219.9H44.8c-0.5,0-0.9-0.4-0.9-0.9s0.4-0.9,0.9-0.9h173.5c0.5,0,0.9,0.4,0.9,0.9
			C219.2,219.4,218.8,219.9,218.3,219.9z"/>
	</g>
	<g>
		<path stroke="#321C52" stroke-width="2" stroke-miterlimit="10" d="M56.1,229.6c-0.2,0-0.5-0.1-0.7-0.3c-0.4-0.4-0.4-1,0-1.3
			l54.7-54.7c0.4-0.4,1-0.4,1.3,0c0.4,0.4,0.4,1,0,1.3l-54.7,54.7C56.6,229.5,56.4,229.6,56.1,229.6z"/>
	</g>
	<g>
		<path stroke="#321C52" stroke-width="2" stroke-miterlimit="10" d="M87.8,229.6c-0.2,0-0.5-0.1-0.7-0.3c-0.4-0.4-0.4-1,0-1.3
			l54.7-54.7c0.4-0.4,1-0.4,1.3,0c0.4,0.4,0.4,1,0,1.3l-54.7,54.7C88.3,229.5,88.1,229.6,87.8,229.6z"/>
	</g>
	<g>
		<path stroke="#321C52" stroke-width="2" stroke-miterlimit="10" d="M119.5,229.6c-0.2,0-0.5-0.1-0.7-0.3c-0.4-0.4-0.4-1,0-1.3
			l54.7-54.7c0.4-0.4,1-0.4,1.3,0c0.4,0.4,0.4,1,0,1.3l-54.7,54.7C120,229.5,119.7,229.6,119.5,229.6z"/>
	</g>
	<g>
		<path stroke="#321C52" stroke-width="2" stroke-miterlimit="10" d="M151.2,229.6c-0.2,0-0.5-0.1-0.7-0.3c-0.4-0.4-0.4-1,0-1.3
			l54.7-54.7c0.4-0.4,1-0.4,1.3,0c0.4,0.4,0.4,1,0,1.3l-54.7,54.7C151.6,229.5,151.4,229.6,151.2,229.6z"/>
	</g>
	<g>
		<path stroke="#321C52" stroke-width="2" stroke-miterlimit="10" d="M182.8,229.6c-0.2,0-0.5-0.1-0.7-0.3c-0.4-0.4-0.4-1,0-1.3
			l54.7-54.7c0.4-0.4,1-0.4,1.3,0c0.4,0.4,0.4,1,0,1.3l-54.7,54.7C183.3,229.5,183.1,229.6,182.8,229.6z"/>
	</g>
	<g>
		<rect x="69.7" y="43.2" fill="#EFDE00" stroke="#321C52" stroke-width="3" stroke-miterlimit="10" width="156.3" height="14.9"/>
		<path fill="#EFDE00" stroke="#321C52" stroke-width="3" stroke-miterlimit="10" d="M226,59H69.7c-0.5,0-0.9-0.4-0.9-0.9V43.2
			c0-0.5,0.4-0.9,0.9-0.9H226c0.5,0,0.9,0.4,0.9,0.9v14.9C226.9,58.6,226.5,59,226,59z M70.7,57.1h154.4v-13H70.7V57.1z"/>
	</g>
	<g>
		<path fill="#FFFFFF" stroke="#321C52" stroke-width="3" stroke-miterlimit="10" d="M147.9,58.1H69.7c0,0,7.3,49.2,65.5,88.2V192
			h25.1v-45.8h0.3c58.2-38.9,65.5-88.2,65.5-88.2L147.9,58.1L147.9,58.1z"/>
		<path fill="#FFFFFF" stroke="#321C52" stroke-width="3" stroke-miterlimit="10" d="M160.3,193h-25.1c-0.5,0-0.9-0.4-0.9-0.9v-45.3
			c-57.5-38.7-65.4-88-65.5-88.5c0-0.3,0-0.5,0.2-0.7s0.4-0.3,0.7-0.3H226c0.3,0,0.5,0.1,0.7,0.3s0.3,0.5,0.2,0.7
			c-0.1,0.5-8,50-65.7,88.7v45C161.2,192.5,160.8,193,160.3,193z M136.1,191.1h23.2v-44.9c0-0.5,0.4-0.9,0.9-0.9
			c52.2-35,63.1-78.9,64.6-86.3h-154c1.5,7.4,12.5,51.4,64.9,86.4c0.3,0.2,0.4,0.5,0.4,0.8L136.1,191.1L136.1,191.1z"/>
	</g>
	<g>
		<path stroke="#321C52" stroke-width="2" stroke-miterlimit="10" d="M151.3,193c-0.5,0-0.9-0.4-0.9-0.9v-43.7
			c0-0.5,0.4-0.9,0.9-0.9s0.9,0.4,0.9,0.9V192C152.2,192.5,151.8,193,151.3,193z"/>
	</g>
	<g>
		<path stroke="#321C52" stroke-width="3" stroke-miterlimit="10" d="M172.5,126c-0.2,0-0.5-0.1-0.7-0.3c-0.4-0.4-0.3-1,0-1.3
			c28.1-26.4,36-49.8,36.1-50c0.2-0.5,0.7-0.8,1.2-0.6c0.5,0.2,0.8,0.7,0.6,1.2c-0.1,0.2-8.1,24-36.6,50.8
			C172.9,125.9,172.7,126,172.5,126z"/>
	</g>
</g>
</svg>
