<?xml version="1.0" encoding="utf-8"?>
<!-- Generator: Adobe Illustrator 18.0.0, SVG Export Plug-In . SVG Version: 6.00 Build 0)  -->
<!DOCTYPE svg PUBLIC "-//W3C//DTD SVG 1.1//EN" "http://www.w3.org/Graphics/SVG/1.1/DTD/svg11.dtd">
<svg version="1.1" id="Calque_1" xmlns="http://www.w3.org/2000/svg" xmlns:xlink="http://www.w3.org/1999/xlink" x="0px" y="0px"
	 viewBox="0 0 300 300" enable-background="new 0 0 300 300" xml:space="preserve">
<g>
	<g>
		<path stroke="#321C52" stroke-width="2" stroke-miterlimit="10" d="M261.7,69.1c0,0.2-0.1,0.4-0.2,0.6l-52.2,106.1
			c-0.4,0.9-1.5,1.3-2.4,0.8l-106.3-50.9L49.2,230.3c-0.4,0.9-1.5,1.3-2.4,0.8c-0.9-0.4-1.3-1.5-0.8-2.4l52.2-106.1
			c0.4-0.9,1.5-1.3,2.4-0.8l106.3,50.9l51.4-104.5c0.4-0.9,1.5-1.3,2.4-0.8C261.4,67.6,261.8,68.3,261.7,69.1z"/>
	</g>
	<g>
		<path fill="#0FDDD1" stroke="#321C52" stroke-width="2" stroke-miterlimit="10" d="M50,210.3c10.6,1.4,18.1,11.1,16.8,21.7
			c-1.4,10.6-11.1,18.1-21.7,16.8C34.5,247.3,27,237.6,28.4,227C29.7,216.4,39.4,208.9,50,210.3z"/>
		<path fill="#0FDDD1" stroke="#321C52" stroke-width="2" stroke-miterlimit="10" d="M68.6,232.2c-1.5,11.6-12.1,19.8-23.7,18.3
			c-11.6-1.5-19.8-12.1-18.3-23.7c1.5-11.6,12.1-19.8,23.7-18.3C61.9,210,70.1,220.6,68.6,232.2z M30.2,227.3
			c-1.2,9.6,5.6,18.4,15.2,19.7c9.6,1.2,18.4-5.6,19.7-15.2c1.2-9.6-5.6-18.4-15.2-19.7C40.2,210.8,31.4,217.6,30.2,227.3z"/>
	</g>
	<g>
		<path fill="#EFDE00" stroke="#321C52" stroke-width="2" stroke-miterlimit="10" d="M103.5,105.8c10.6,1.4,18.1,11.1,16.8,21.7
			c-1.4,10.6-11.1,18.1-21.7,16.8c-10.6-1.4-18.1-11.1-16.8-21.7C83.1,111.9,92.8,104.4,103.5,105.8z"/>
		<path fill="#EFDE00" stroke="#321C52" stroke-width="2" stroke-miterlimit="10" d="M122,127.7c-1.5,11.6-12.1,19.8-23.7,18.3
			c-11.6-1.5-19.8-12.1-18.3-23.7c1.5-11.6,12.1-19.8,23.7-18.3C115.3,105.5,123.5,116.1,122,127.7z M83.6,122.8
			c-1.2,9.6,5.6,18.4,15.2,19.7c9.6,1.2,18.4-5.6,19.7-15.2c1.2-9.6-5.6-18.4-15.2-19.7C93.6,106.3,84.8,113.2,83.6,122.8z"/>
	</g>
	<g>
		<path fill="#94DD54" stroke="#321C52" stroke-width="2" stroke-miterlimit="10" d="M208.9,154.2c10.6,1.4,18.1,11.1,16.8,21.7
			c-1.4,10.6-11.1,18.1-21.7,16.8c-10.6-1.4-18.1-11.1-16.8-21.7C188.6,160.4,198.3,152.8,208.9,154.2z"/>
		<path fill="#94DD54" stroke="#321C52" stroke-width="2" stroke-miterlimit="10" d="M227.5,176.1c-1.5,11.6-12.1,19.8-23.7,18.3
			c-11.6-1.5-19.8-12.1-18.3-23.7c1.5-11.6,12.1-19.8,23.7-18.3C220.7,153.9,228.9,164.5,227.5,176.1z M189,171.2
			c-1.2,9.6,5.6,18.4,15.2,19.7c9.6,1.2,18.4-5.6,19.7-15.2c1.2-9.6-5.6-18.4-15.2-19.7C199.1,154.8,190.3,161.6,189,171.2z"/>
	</g>
	<g>
		<path fill="#0FDDD1" stroke="#321C52" stroke-width="2" stroke-miterlimit="10" d="M262.3,49.6c10.6,1.4,18.1,11.1,16.8,21.7
			c-1.4,10.6-11.1,18.1-21.7,16.8c-10.6-1.4-18.1-11.1-16.8-21.7C242,55.8,251.7,48.3,262.3,49.6z"/>
		<path fill="#0FDDD1" stroke="#321C52" stroke-width="2" stroke-miterlimit="10" d="M280.9,71.5c-1.5,11.6-12.1,19.8-23.7,18.3
			c-11.6-1.5-19.8-12.1-18.3-23.7c1.5-11.6,12.1-19.8,23.7-18.3C274.2,49.3,282.4,60,280.9,71.5z M242.5,66.6
			c-1.2,9.6,5.6,18.4,15.2,19.7c9.6,1.2,18.4-5.6,19.7-15.2c1.2-9.6-5.6-18.4-15.2-19.7C252.5,50.2,243.7,57,242.5,66.6z"/>
	</g>
</g>
</svg>
