<?xml version="1.0" encoding="utf-8"?>
<!-- Generator: Adobe Illustrator 18.0.0, SVG Export Plug-In . SVG Version: 6.00 Build 0)  -->
<!DOCTYPE svg PUBLIC "-//W3C//DTD SVG 1.1//EN" "http://www.w3.org/Graphics/SVG/1.1/DTD/svg11.dtd">
<svg version="1.1" id="Calque_1" xmlns="http://www.w3.org/2000/svg" xmlns:xlink="http://www.w3.org/1999/xlink" x="0px" y="0px"
	 viewBox="0 0 750 500" enable-background="new 0 0 750 500" xml:space="preserve">
<path fill="#FFFFFF" d="M71.3,260.6c12.3,0,23.3-6.2,33.2-18.5l21.9,24.7c-17.1,17.8-35.6,26.7-55.5,26.7s-36.7-6.5-50.4-18.9
	C6.9,262,0,245.5,0,225.3c0-20.6,6.9-37,20.9-49.7c13.7-12.7,30.5-19.2,49.4-19.2c9.6,0,19.2,2.1,29.1,5.8
	c9.9,4.1,18.5,9.9,25.7,17.5l-19.2,25c-4.1-5.1-9.6-8.9-15.8-12c-6.2-2.7-12.3-4.1-18.5-4.1c-9.6,0-18.2,3.1-25,9.6
	c-6.9,6.2-10.6,15.1-10.6,26.4c0,11.3,3.4,19.9,10.6,26.4S62,260.6,71.3,260.6z"/>
<path fill="#FFFFFF" d="M281.8,225c0,19.2-6.5,35.3-19.9,48.7c-13.4,13-30.2,19.9-50.4,19.9c-19.9,0-36.7-6.9-50-19.9
	c-13.4-13-19.9-29.5-19.9-48.7s6.5-35.6,19.9-48.7c13.4-13.4,30.2-19.9,50-19.9c20.2,0,37,6.5,50.4,19.9
	C275.3,189.7,281.8,205.8,281.8,225z M178.6,225c0,11,3.1,19.5,9.3,26.4s14.1,10.3,23.7,10.3s17.5-3.4,23.7-10.3
	c6.2-6.9,9.3-15.8,9.3-26.4s-3.1-19.9-9.3-26.7c-6.2-6.9-14.1-10.3-23.7-10.3c-9.6,0-17.5,3.4-23.7,10.3
	C181.7,205.4,178.6,214,178.6,225z"/>
<path fill="#FFFFFF" d="M346.2,217.4v74h-37v-133h37v15.1c11.3-11.3,23.7-17.1,37.7-17.1s25.7,4.8,35.3,14.7
	c9.6,9.9,14.1,23,14.1,39.4v80.6h-37v-74.7c0-20.6-7.5-30.5-22.6-30.5c-7.5,0-13.7,2.7-19.5,7.9
	C348.9,199.3,346.2,207.2,346.2,217.4z"/>
<path fill="#FFFFFF" d="M500.5,291.5l-52.4-133h38.4l32.9,83.6l32.9-83.6h38.4l-52.4,133H500.5z"/>
<path fill="#FFFFFF" d="M646.1,343.6c-13,0-25.4-5.1-36.7-15.8l16.8-27.4c6.2,6.2,12.7,9.3,19.2,9.3c3.4,0,6.5-1.7,8.9-5.1
	c2.4-3.4,3.8-6.9,3.8-10.6c0-3.8-17.1-49-51.4-135.4h39.4l32.2,82.6l32.2-82.6H750l-61.7,156.3c-3.8,8.9-9.3,16.1-16.8,21.3
	C664,341.2,655.4,343.6,646.1,343.6z"/>
</svg>
