<?xml version="1.0" encoding="utf-8"?>
<!-- Generator: Adobe Illustrator 18.0.0, SVG Export Plug-In . SVG Version: 6.00 Build 0)  -->
<!DOCTYPE svg PUBLIC "-//W3C//DTD SVG 1.1//EN" "http://www.w3.org/Graphics/SVG/1.1/DTD/svg11.dtd">
<svg version="1.1" id="Calque_1" xmlns="http://www.w3.org/2000/svg" xmlns:xlink="http://www.w3.org/1999/xlink" x="0px" y="0px"
	 viewBox="0 0 1280 800" enable-background="new 0 0 1280 800" xml:space="preserve">
<g>
	<path fill="#E6E6E6" d="M350.5,371.5C234.3,224.4,118,523.5,1.8,376.4c-1.2-56.1-2.3-112.1-3.5-168.2
		C116.8,361.5,235.4,59.7,354,213.1C352.8,265.9,351.7,318.7,350.5,371.5z"/>
</g>
<g>
	<path fill="#E6E6E6" d="M733.9,385.1c-78.3-97.6-156.6,100.8-234.8,3.2c-0.8-37.2-1.6-74.4-2.4-111.6
		c79.9,101.8,159.7-98.5,239.6,3.3C735.5,315.1,734.7,350.1,733.9,385.1z"/>
</g>
<path fill="#9FD5D9" d="M484.4,392.3H371.5c-11,0-20-9-20-20V221c0-11,9-20,20-20h112.9c11,0,20,9,20,20v151.3
	C504.4,383.3,495.4,392.3,484.4,392.3z"/>
<g>
	<path fill="#E6E6E6" d="M1120.2,423.8c-78.3-67.6-156.6,69.9-234.8,2.2c-0.8-25.8-1.6-51.6-2.4-77.3
		c79.9,70.5,159.7-68.2,239.6,2.3C1121.8,375.2,1121,399.5,1120.2,423.8z"/>
</g>
<path fill="#9FD5D9" d="M1254.5,517.6h-112.9c-11,0-20-9-20-20V346.2c0-11,9-20,20-20h112.9c11,0,20,9,20,20v151.3
	C1274.5,508.6,1265.5,517.6,1254.5,517.6z"/>
<path fill="#9FD5D9" d="M867.2,438.6H754.3c-11,0-20-9-20-20V267.3c0-11,9-20,20-20h112.9c11,0,20,9,20,20v151.3
	C887.2,429.6,878.2,438.6,867.2,438.6z"/>
</svg>
