<?xml version="1.0" encoding="utf-8"?>
<!-- Generator: Adobe Illustrator 18.0.0, SVG Export Plug-In . SVG Version: 6.00 Build 0)  -->
<!DOCTYPE svg PUBLIC "-//W3C//DTD SVG 1.1//EN" "http://www.w3.org/Graphics/SVG/1.1/DTD/svg11.dtd">
<svg version="1.1" id="Calque_1" xmlns="http://www.w3.org/2000/svg" xmlns:xlink="http://www.w3.org/1999/xlink" x="0px" y="0px"
	 viewBox="0 0 1280 800" enable-background="new 0 0 1280 800" xml:space="preserve">
<path fill="#25DDDF" d="M985.4,234.1c-4.4-3.2-10.5-2.6-14.2,1.3c-4.1,4.4-3.9,11.3,0.4,15.5l13.6,13.5c0.9,0.9,2.3,0.9,3.2,0
	l13.5-13.6c4.3-4.2,4.4-11.1,0.3-15.5c-3.8-3.9-9.8-4.4-14.2-1.2C987.3,234.7,986.2,234.7,985.4,234.1z"/>
<path fill="#FFCBA4" d="M1075.1,326.3c-4.4-3.2-10.5-2.6-14.2,1.3c-4.1,4.4-3.9,11.3,0.4,15.5l13.6,13.5c0.9,0.9,2.3,0.9,3.2,0
	l13.5-13.6c4.3-4.2,4.4-11.1,0.4-15.5c-3.8-3.9-9.8-4.4-14.2-1.2C1077,326.9,1075.9,326.9,1075.1,326.3z"/>
<rect x="1206.7" y="447.1" fill="#3AD29F" width="3" height="17"/>
<rect x="1199.7" y="454.1" fill="#3AD29F" width="17" height="3"/>
<rect x="1182.6" y="296.4" fill="#3AD29F" width="3" height="17"/>
<rect x="1175.6" y="303.4" fill="#3AD29F" width="17" height="3"/>
<path fill="#F55F44" d="M963.9,367.3c-1.7-0.8-2.6-2.7-2-4.4c0-0.1,0.1-0.3,0.1-0.4l0,0c0.1-1-0.7-1.9-1.7-2c-0.6,0-1.2,0.2-1.6,0.7
	l0,0c-0.1,0.1-0.1,0.2-0.2,0.4c-0.8,1.7-2.7,2.6-4.4,2c-0.1,0-0.3-0.1-0.4-0.1l0,0c-1-0.1-1.9,0.7-2,1.7c0,0.6,0.2,1.2,0.7,1.6l0,0
	c0.1,0.1,0.2,0.1,0.4,0.2c1.7,0.8,2.6,2.7,2,4.4c0,0.1-0.1,0.3-0.1,0.4l0,0c-0.1,1,0.7,1.9,1.7,2c0.6,0,1.2-0.2,1.6-0.7l0,0
	c0.1-0.1,0.1-0.2,0.2-0.4c0.8-1.7,2.7-2.6,4.4-2c0.1,0,0.3,0.1,0.4,0.1l0,0c1,0.1,1.9-0.7,2-1.7c0-0.6-0.2-1.2-0.7-1.6l0,0
	C964.2,367.4,964.1,367.3,963.9,367.3z"/>
<path fill="#F55F44" d="M929.8,502.4c-1.7-0.8-2.6-2.7-2-4.4c0-0.1,0.1-0.3,0.1-0.4l0,0c0.1-1-0.7-1.9-1.7-2c-0.6,0-1.2,0.2-1.6,0.7
	l0,0c-0.1,0.1-0.1,0.2-0.2,0.4c-0.8,1.7-2.7,2.6-4.4,2c-0.1,0-0.3-0.1-0.4-0.1l0,0c-1-0.1-1.9,0.7-2,1.7c0,0.6,0.2,1.2,0.7,1.6l0,0
	c0.1,0.1,0.2,0.1,0.4,0.2c1.7,0.8,2.6,2.7,2,4.4c0,0.1-0.1,0.3-0.1,0.4l0,0c-0.1,1,0.7,1.9,1.7,2c0.6,0,1.2-0.2,1.6-0.7l0,0
	c0.1-0.1,0.1-0.2,0.2-0.4c0.8-1.7,2.7-2.6,4.4-2c0.1,0,0.3,0.1,0.4,0.1l0,0c1,0.1,1.9-0.7,2-1.7c0-0.6-0.2-1.2-0.7-1.6l0,0
	C930,502.5,929.9,502.5,929.8,502.4z"/>
<g>
	<path fill="#FFFFFF" stroke="#F1F1F1" stroke-miterlimit="10" d="M352.2,288.8C236,141.7,119.7,440.8,3.5,293.7
		C2.3,237.6,1.2,181.6,0,125.5C118.5,278.8,237.1-23,355.7,130.4C354.5,183.2,353.4,236,352.2,288.8z"/>
</g>
<g>
	<path fill="#FFFFFF" stroke="#F1F1F1" stroke-miterlimit="10" d="M735.6,182.2c-78.3,65.1-156.6-67.2-234.8-2.1
		c-0.8,24.8-1.6,49.6-2.4,74.4c79.9-67.9,159.7,65.7,239.6-2.2C737.2,228.9,736.4,205.6,735.6,182.2z"/>
</g>
<path fill="#FFFFFF" stroke="#F1F1F1" stroke-miterlimit="10" d="M484.4,305.3H371.5c-11,0-20-9-20-20V134c0-11,9-20,20-20h112.9
	c11,0,20,9,20,20v151.3C504.4,296.3,495.4,305.3,484.4,305.3z"/>
<path fill="#FFFFFF" stroke="#F1F1F1" stroke-miterlimit="10" d="M867.2,351.6H754.3c-11,0-20-9-20-20V180.3c0-11,9-20,20-20h112.9
	c11,0,20,9,20,20v151.3C887.2,342.6,878.2,351.6,867.2,351.6z"/>
<linearGradient id="SVGID_1_" gradientUnits="userSpaceOnUse" x1="1027.2" y1="486.5" x2="1027.2001" y2="344.9">
	<stop  offset="0" style="stop-color:#808080;stop-opacity:0.25"/>
	<stop  offset="0.54" style="stop-color:#808080;stop-opacity:0.12"/>
	<stop  offset="1" style="stop-color:#808080;stop-opacity:0.1"/>
</linearGradient>
<polygon fill="url(#SVGID_1_)" points="1162.9,344.9 891.5,390 891.5,486.5 1162.9,482.1 "/>
<polygon fill="#25DDDF" points="898.7,390.7 1161,347 1161,476.1 898.7,484.4 "/>
<linearGradient id="SVGID_2_" gradientUnits="userSpaceOnUse" x1="1076.85" y1="329.3" x2="1076.85" y2="220">
	<stop  offset="0" style="stop-color:#808080;stop-opacity:0.25"/>
	<stop  offset="0.54" style="stop-color:#808080;stop-opacity:0.12"/>
	<stop  offset="1" style="stop-color:#808080;stop-opacity:0.1"/>
</linearGradient>
<polygon fill="url(#SVGID_2_)" points="1171,220 982.7,273.6 982.7,329.3 1171,288.9 "/>
<polygon fill="#FFFFFF" points="1165.9,222.1 986.9,274.2 986.9,326.2 1165.9,284.6 "/>
<path fill="none" stroke="#DBDBDB" stroke-width="2" stroke-miterlimit="10" d="M1016,292.8c0,7.7-3.7,14.9-8.3,16
	c-4.6,1.1-8.2-4.1-8.2-11.7s3.6-14.8,8.2-16S1016,285.1,1016,292.8z"/>
<polygon fill="#DBDBDB" points="1145.1,257.5 1031.3,287.4 1031.3,281 1145.1,250.3 "/>
<polygon fill="#DBDBDB" points="1145.1,272.1 1031.3,302 1031.3,295.6 1145.1,264.9 "/>
<path fill="#FFFFFF" d="M957.7,433c0-14.7-6.6-25.7-14.6-24.6c-7.8,1.1-14,13.4-14,27.5s6.2,25.2,14,24.6
	C951.1,460,957.7,447.6,957.7,433z"/>
<linearGradient id="SVGID_3_" gradientUnits="userSpaceOnUse" x1="970.8" y1="410.3" x2="1127.7" y2="410.3">
	<stop  offset="0" style="stop-color:#DADADA"/>
	<stop  offset="1" style="stop-color:#FFFFFF"/>
</linearGradient>
<polygon fill="url(#SVGID_3_)" points="1127.7,407.4 970.8,424.8 970.8,415 1127.7,395.8 "/>
<linearGradient id="SVGID_4_" gradientUnits="userSpaceOnUse" x1="970.8" y1="435.3" x2="1127.7" y2="435.3">
	<stop  offset="0" style="stop-color:#DADADA"/>
	<stop  offset="1" style="stop-color:#FFFFFF"/>
</linearGradient>
<polygon fill="url(#SVGID_4_)" points="1127.7,432.4 970.8,449.8 970.8,440 1127.7,420.8 "/>
<linearGradient id="SVGID_5_" gradientUnits="userSpaceOnUse" x1="1068.2999" y1="602.5" x2="1068.3" y2="528.7">
	<stop  offset="0" style="stop-color:#808080;stop-opacity:0.25"/>
	<stop  offset="0.54" style="stop-color:#808080;stop-opacity:0.12"/>
	<stop  offset="1" style="stop-color:#808080;stop-opacity:0.1"/>
</linearGradient>
<polygon fill="url(#SVGID_5_)" points="1160,530.9 974.6,528.7 974.6,585.2 1162,602.5 "/>
<polygon fill="#FFFFFF" points="1158.9,534.4 979.9,532.3 979.9,582.3 1158.9,596.8 "/>
<path fill="none" stroke="#DBDBDB" stroke-width="2" stroke-miterlimit="10" d="M1018.1,559.8c0,7.7-3.7,13.7-8.3,13.4
	c-4.6-0.3-8.2-6.7-8.2-14.3s3.6-13.6,8.2-13.4S1018.1,552.1,1018.1,559.8z"/>
<polygon fill="#DBDBDB" points="1145.1,561.4 1035,556.2 1035,549.7 1145.1,554.1 "/>
<polygon fill="#DBDBDB" points="1145.1,576 1035,570.7 1035,564.2 1145.1,568.7 "/>
<linearGradient id="SVGID_6_" gradientUnits="userSpaceOnUse" x1="1077.35" y1="227.3" x2="1077.35" y2="96.2">
	<stop  offset="0" style="stop-color:#808080;stop-opacity:0.25"/>
	<stop  offset="0.54" style="stop-color:#808080;stop-opacity:0.12"/>
	<stop  offset="1" style="stop-color:#808080;stop-opacity:0.1"/>
</linearGradient>
<polygon fill="url(#SVGID_6_)" points="1171,96.2 983.7,171.2 983.7,227.3 1171,164.9 "/>
<polygon fill="#FFFFFF" points="1168,99.3 986.9,174.2 986.9,222.1 1168,161.8 "/>
<path fill="none" stroke="#DBDBDB" stroke-width="2" stroke-miterlimit="10" d="M1024.3,183.5c0,7.7-3.7,15.3-8.3,17
	c-4.6,1.7-8.2-3.1-8.2-10.6s3.6-15.1,8.2-16.9C1020.5,171.2,1024.3,175.8,1024.3,183.5z"/>
<polygon fill="#DBDBDB" points="1149.2,132.6 1039.2,175.4 1039.2,168 1149.2,124.2 "/>
<polygon fill="#DBDBDB" points="1149.2,151.3 1039.2,194.2 1039.2,186.7 1149.2,142.9 "/>
<linearGradient id="SVGID_7_" gradientUnits="userSpaceOnUse" x1="862.1829" y1="351.793" x2="875.745" y2="351.793" gradientTransform="matrix(1 0 0 -1 0 800)">
	<stop  offset="0" style="stop-color:#808080;stop-opacity:0.25"/>
	<stop  offset="0.54" style="stop-color:#808080;stop-opacity:0.12"/>
	<stop  offset="1" style="stop-color:#808080;stop-opacity:0.1"/>
</linearGradient>
<path fill="#FFFFFF" stroke="url(#SVGID_7_)" stroke-miterlimit="10" d="M864.3,441.1c0,0-3.6,15.1,0,17.3l10.8-6.5l-7.2-13.7
	L864.3,441.1z"/>
<path fill="#FFFFFF" stroke="#DBDBDB" stroke-miterlimit="10" d="M904.1,574.5l-9.5-39.7l-9.5,12.7c0,0,7.9,25.4,12.7,28.6
	L904.1,574.5z"/>
<path fill="#FFFFFF" stroke="#DBDBDB" stroke-miterlimit="10" d="M910.5,437.8c0,0-6.4-9.5-12.7,0c0,0,1.6,6.4,0,9.5
	s-6.4,14.3-6.4,14.3h-14.3v7.9l17.5,4.8l11.1-27V441L910.5,437.8z"/>
<polygon fill="#5989A1" points="888.2,456.9 885,474.4 872.3,471.2 872.3,456.9 "/>
<circle fill="#FFFFFF" stroke="#DBDBDB" stroke-miterlimit="10" cx="862.8" cy="431.4" r="14.3"/>
<path fill="#606263" d="M859.6,429.9l12.7-15.9c0,0-8.1-2.2-15.8,0.8c-14.2,5.4-14.2,26.1,0,31.6c2,0.8,4.1,1.2,6.3,1v-9.5H858
	L859.6,429.9z"/>
<path fill="#FFFFFF" stroke="#DBDBDB" stroke-miterlimit="10" d="M894.6,396.5l-1.6,28.6L880.3,441l-7.9-4.8l11.1-17.5l4.8-27
	c0,0-2.8-6.9,11-10.4c1.4-0.4,2.9,0.5,3.3,1.9c0.1,0.3,0.1,0.6,0.1,0.8C902.3,388.1,900.9,394.4,894.6,396.5z"/>
<path fill="#FFFFFF" stroke="#DBDBDB" stroke-miterlimit="10" d="M881.9,522.1l1.6,12.7c0,0-14.3,11.1-14.3,27l-1.6,3.2l4.8,4.8
	l25.4-30.2c0,0,0-17.5-4.8-22.3L881.9,522.1z"/>
<path fill="#B8E9F4" d="M873.8,567.9l0.1,8.2c0,0,12.7,1.6,9.5,9.5h-12.7L858,569.7l9.5-7.9L873.8,567.9z"/>
<path fill="#B8E9F4" d="M902.5,572.9l6.4,4.8c0,0,20.7-1.6,12.7,9.5h-27v-12.7L902.5,572.9z"/>
<path fill="#FFCBA4" d="M897.7,520.5c0,0-14.3,11.1-20.7,7.9l-4.8-22.3c0,0-6.4,0-9.5-7.9v-9.6l30.2,9.5
	C893,498.2,893,515.7,897.7,520.5z"/>
<path fill="#76B6D7" d="M885,441l-12.7-9.5c0,0-6.4,19.1-9.5,19.1c-3.2,0-3.2,17.5,1.6,20.7l-1.6,17.5l30.2,9.5
	c0,0-4.8-31.8-14.3-42.9L885,441z"/>
<polygon fill="#47E6B1" points="1008.4,184.6 1012,184 1015.7,187.7 1019.8,179.9 1024.3,179.9 1015.7,190.7 "/>
<polygon fill="#25DDDF" points="930.5,433.9 936.3,433 942.1,438.8 948.7,426.4 955.9,426.4 942.1,443.7 "/>
<polygon fill="#25DDDF" points="930.5,433.9 936.3,433 942.1,438.8 948.7,426.4 955.9,426.4 942.1,443.7 "/>
<g>
	<g opacity="0.2">
		
			<linearGradient id="SVGID_8_" gradientUnits="userSpaceOnUse" x1="1352.7709" y1="438.3099" x2="1352.7709" y2="437.8199" gradientTransform="matrix(1 0 0 1 -178 -88.36)">
			<stop  offset="0" style="stop-color:#808080;stop-opacity:0.25"/>
			<stop  offset="0.54" style="stop-color:#808080;stop-opacity:0.12"/>
			<stop  offset="1" style="stop-color:#808080;stop-opacity:0.1"/>
		</linearGradient>
		<path fill="url(#SVGID_8_)" d="M1174.4,349.5l0.1,0.4C1176,349.2,1174.4,349.5,1174.4,349.5z"/>
	</g>
	<g opacity="0.2">
		
			<linearGradient id="SVGID_9_" gradientUnits="userSpaceOnUse" x1="1294.9443" y1="759.6603" x2="1294.9443" y2="428.7903" gradientTransform="matrix(1 0 0 1 -178 -88.36)">
			<stop  offset="0" style="stop-color:#808080;stop-opacity:0.25"/>
			<stop  offset="0.54" style="stop-color:#808080;stop-opacity:0.12"/>
			<stop  offset="1" style="stop-color:#808080;stop-opacity:0.1"/>
		</linearGradient>
		<path fill="url(#SVGID_9_)" d="M1158.6,671l31.2-5l-4.3-19.1l0,0l-0.1-0.3h-0.1l-22.1-101.5v-74c0-0.9-0.1-1.9-0.2-2.8
			c33-43.8,13.3-112.4,11.5-118.4c-0.3,0.2-0.9,0.4-1.6,0.7c-0.2-2.7-0.7-5.3-1.5-7.9c0,0-9.6-6.1-14.8,1.7c-4.5,6.8-1.2,11-0.2,12
			l-0.6,0.2c1.5,2.3,2.5,4.9,3,7.5c-0.3-0.7-0.6-1.3-1-1.9c-1.2-0.2-2-0.4-2-0.4l-0.2-0.2l-0.6,0.2c3.3,4.8,4.5,13.3,4.3,23.5
			c-1.1-1.6-2.4-3.1-3.8-4.4c-6.1-5.8-14-9.1-22.4-9.3l0,0c-0.5,0-1,0-1.5,0h-0.1c-0.9,0-1.7,0.1-2.6,0.2l-0.6,0.1l-1.1,0.1
			c-0.4,0.1-0.8,0.2-1.2,0.2l-0.9,0.2c-0.5,0.1-1,0.3-1.5,0.4l-0.6,0.2c-0.7,0.2-1.3,0.4-1.9,0.7c-2.1,1-4.3,1.8-6.6,2.4
			c-0.3,0-0.6,0.1-0.9,0.1l0,0c-2.6,0.2-5.1-0.5-7.2-2c-0.2-0.2-0.5-0.4-0.7-0.5c-0.3-0.2-0.5-0.5-0.8-0.7c-0.3,0.7-0.4,1.4-0.3,2.1
			c0.1,1.7,0.9,3.3,2.2,4.3c0.4,0.3,0.8,0.6,1.2,0.8c0.6,0.3,1.3,0.5,2,0.6c0.2,0,0.5,0,0.7,0l-0.2,0.1c-0.4,0.2-0.9,0.4-1.3,0.6
			h-0.1c-0.5,0.2-1,0.3-1.5,0.5h-0.1c-2.5,0.6-5.1,0.7-7.7,0.1l0,0l-0.8-0.2c-0.4-0.1-0.8-0.2-1.2-0.4c0.1,0.3,0.3,0.6,0.4,0.8
			l0.2,0.3c0.1,0.2,0.2,0.4,0.3,0.5l0.2,0.3c0.1,0.2,0.2,0.3,0.4,0.5l0.2,0.2c0.2,0.2,0.3,0.3,0.5,0.5l0.2,0.2
			c0.2,0.2,0.5,0.4,0.7,0.6l0.2,0.2l0.5,0.4l0.3,0.2l0.5,0.3l0.4,0.2l0.5,0.2l0.4,0.2l0.5,0.2l0.7,0.2l0.5,0.1l0.5,0.1l0.4,0.1h0.5
			h0.4h0.5h0.4h0.5l0,0c1-0.1,2-0.3,2.9-0.7c-0.6,0.3-1.2,0.5-1.8,0.7l0,0l-0.9,0.3l-0.9,0.3l-0.9,0.3l-0.9,0.3l-0.9,0.2l-1,0.2
			l-0.9,0.2l-1,0.2l-0.8,0.1l-1.1,0.1l-0.8,0.1l-1.2,0.1h-0.7c-0.6,0-1.2,0-1.9,0l0,0c0.7,0,1.8,0.8,2.9,1.5c0.5,0.4,1.1,0.7,1.8,1
			c0.3,0.1,0.6,0.1,0.9,0.2h0.2l0.6,0.1h2.6c0.3,0,0.6,0,0.8,0.1c1.8,0.2,3.5,0.7,5,1.6c0.8,0.5,1.5,1.1,2.1,1.9
			c-0.3,0.4-0.5,0.9-0.8,1.3s-0.4,0.8-0.6,1.2c-0.4,0.8-0.7,1.6-1,2.4c-1.1,3-1.6,6.1-1.6,9.3c0,0.6,0,1.2,0.1,1.7
			c0,0.2,0,0.3,0,0.5c0,0.5,0.1,0.9,0.2,1.4c0,0.1,0,0.2,0,0.3c0.1,0.6,0.2,1.1,0.3,1.7l0.1,0.3c0.1,0.5,0.2,0.9,0.3,1.3l0.1,0.4
			c0.3,1.1,0.7,2.1,1.2,3.2l0.1,0.3c0.2,0.5,0.4,0.9,0.7,1.4l0.1,0.1c0.3,0.5,0.6,1,0.9,1.5l0.1,0.1c0.3,0.5,0.6,0.9,0.9,1.3
			l0.1,0.2c0.7,0.9,1.4,1.8,2.2,2.7l0.1,0.1c2.1,2.2,4.5,4,7.2,5.4c-0.1,0.4-0.2,0.8-0.2,1.2l0,0c0,0.4-0.1,0.9-0.1,1.3v10.1
			c-0.6,0.3-1.1,0.6-1.7,1c-24-10.9-59.7-88.1-59.7-88.1h-0.9c3.5-2.6,0-13.9,0-13.9c-2-1.2-4.3-2-6.7-2.2h-0.5h-0.8h-0.3h-0.2h-0.3
			h-0.2l-0.3,0.1h-0.2l-0.4,0.1l-0.1,0.2l-0.6,0.2l0,0l-0.5,0.2l-0.2,0.1l-0.4,0.2l-0.2,0.1l-0.3,0.2l-0.2,0.2l-0.3,0.3l-0.2,0.2
			l-0.3,0.3l-0.2,0.2l-0.3,0.4l-0.2,0.2c-0.2,0.2-0.3,0.4-0.5,0.7c-5.2,7.8,0,12.2,0,12.2c-0.3,3-0.5,6-0.5,9.1
			c-0.4,56.4,59.9,100.1,63,102.3c-1.4,3.5-12.6,34.7,0.1,73.7c0,0.1,0.1,0.2,0.2,0.3c-29.5,27.1-42.4,67.8-33.9,106.9l0.2,1.2h0.6
			c-0.1,0.3-0.1,0.5-0.2,0.8c-0.1,0.5-0.3,0.9-0.6,1.3c-0.4,0.7-0.8,1.4-1.4,2l-0.1,0.1c-0.6,0.7-1.3,1.4-2,2.1l-0.8,0.7
			c-3,2.9-6.1,5.7-3.8,6.9h32.9v-14.3h0.6c0,0-0.2-0.5-0.6-1.3v-0.3h-0.1c-1.7-4.5-5.7-18.2,0.7-39.3c7.8-26.1,38.3-39.2,38.3-39.2
			l0.6,1.8l-0.1,0.1l23.8,78.5c0,0.3,0,0.6-0.1,0.9c-0.1,0.7-0.3,1.5-0.5,2.2c-0.2,0.5-0.4,1.1-0.7,1.6c-1.5,3-4,6.6-5.1,9.3
			c-0.2,0.4-0.3,0.7-0.4,1.1c-0.1,0.4-0.2,0.9-0.1,1.3c0.1,0.6,0.4,1.1,1,1.3l0,0l0.4-0.1L1158.6,671L1158.6,671z M1149.4,447.6
			c-0.6-0.3-1.2-0.6-1.8-0.9v-9.5c0-0.7-0.1-1.4-0.2-2.2c2.1-1,4-2.2,5.8-3.7C1151.8,437.2,1150.5,442.8,1149.4,447.6L1149.4,447.6z
			"/>
	</g>
	<path fill="#FFFFFF" stroke="#DBDBDB" stroke-miterlimit="10" d="M1045.5,368.5c0,0-5.8-4.8,0-13.5s16.4-1.9,16.4-1.9
		s3.9,12.5,0,15.4C1058,371.3,1045.5,368.5,1045.5,368.5z"/>
	<path id="a3c32856-4a80-4c98-bc66-0983250df946" fill="#30ABAA" d="M1105.1,691.2h-26.6c0,0,0.6,3.2-2.5,6.8
		c-3.6,4.1-10.8,9.1-7.4,10.8h36.5V691.2z"/>
	<path id="d5cddcd9-79b8-465c-ad2b-bd849a7889d8" fill="#30ABAA" d="M1199.8,685.7l-24.9,4.1c0.7,3,0.3,6.1-1.1,8.8
		c-2.7,5.7-8.8,12.9-5.2,14.5l36-5.8L1199.8,685.7z"/>
	<path fill="#DBDBDB" d="M1187.6,356.7c0,0,28.5,89.7-19.2,139.5l-13.8-10.5c0,0,28.2-98,12.4-121
		C1194.8,355.3,1187.6,356.7,1187.6,356.7z"/>
	<path fill="#FFFFFF" stroke="#DBDBDB" stroke-miterlimit="10" d="M1167.7,364.6c0,0-6.7-4.8,0-13.5s19.1-1.9,19.1-1.9
		s4.5,12.5,0,15.4C1182.3,367.5,1167.7,364.6,1167.7,364.6z"/>
	<path fill="#FFFFFF" stroke="#DBDBDB" stroke-miterlimit="10" d="M1142.5,440.3h3.7c6.4,0,11.7,5.2,11.7,11.7v16.7
		c0,6.4-5.2,11.7-11.7,11.7h-3.7c-6.4,0-11.7-5.2-11.7-11.7V452C1130.8,445.5,1136,440.3,1142.5,440.3z"/>
	<circle fill="#FFFFFF" stroke="#DBDBDB" stroke-miterlimit="10" cx="1144.8" cy="424.4" r="29.9"/>
	<path fill="#DBDBDB" d="M1175.2,573.4c0,0-57.7,6.5-59.8,0c-14.9-45.8,0-82,0-82c0-16.5,13.4-29.9,29.9-29.9l0,0l0,0
		c16.5,0,29.9,13.4,29.9,29.9l0,0V573.4z"/>
	<path fill="#3393AF" d="M1175.2,573.4l26,119.6h-26l-27-88.7c0,0-33.8,14.5-42.4,43.4c-8.7,28.9,0,45.3,0,45.3h-28l-0.3-1.3
		c-9.4-43.4,5.1-88.4,37.9-118.3l0,0"/>
	<path fill="#DBDBDB" d="M1114.9,490.9c0,0-77.1-54-69.4-122.5h17.4c0,0,41.5,89.7,68,98.4S1114.9,490.9,1114.9,490.9z"/>
	<path fill="#606263" d="M1121,411c2,3.7,2.5,8,3.5,12c2,8.4,6.2,16.7,13.7,21.1c4.1,2.3,8.7,3.5,13.4,3.7c7.1,0.5,14.8-0.9,19.9-6
		c3.3-3.3,5.1-7.7,6.1-12.2c3-13.5-1-28.4-10.9-38s-25.4-13.2-38.2-8c-2.4,1-4.7,2.2-7.3,2.6c-3.9,0.6-7.8-0.7-10.6-3.5
		c-1.6,4,2.2,9,6.4,8.7c-4.5,2.1-9.6,2.4-14.3,0.8c2.7,5.7,9.3,8.3,15.2,6.1c-5.5,2.4-11.4,3.6-17.4,3.5c1.2,0,3.7,2.3,5.2,2.8
		c2.1,0.6,3.8,0.1,5.7,0.4C1115.8,405.4,1118.8,406.9,1121,411z"/>
</g>
<g>
	<polygon fill="#FFFFFF" stroke="#DBDBDB" stroke-miterlimit="10" points="743.2,447.3 760.5,455.5 764.8,427.5 743.2,427.5 	"/>
	<ellipse fill="#FFCBA4" cx="754.9" cy="411.7" rx="23.5" ry="24.7"/>
	<polygon fill="#FFFFFF" stroke="#DBDBDB" stroke-miterlimit="10" points="760.1,674.7 760.1,687.4 778.6,687.4 777.1,676.6 	"/>
	<path fill="#FFFFFF" stroke="#DBDBDB" stroke-miterlimit="10" d="M709.4,664.8l1.5,17h-1c-7.3,0-14.3-2.5-19.7-6.9l-5.4-4.4
		l13.8-12.7L709.4,664.8z"/>
	<polygon fill="#4D8AF0" points="747.8,585.7 746.3,604.1 718.6,660.6 697.1,650.7 724.8,591.3 726.3,546.1 750.9,546.1 	"/>
	<polygon fill="#DBDBDB" points="747.8,585.7 746.3,604.1 718.6,660.6 697.1,650.7 724.8,591.3 726.3,546.1 750.9,546.1 	"/>
	<path fill="#FFFFFF" stroke="#DBDBDB" stroke-miterlimit="10" d="M754,482.6l26.1,48c0,0,8.4,17.6-0.6,18.1
		c-12.9-2.1-10.6-6.7-12.3-10.8l-16.3-51.1L754,482.6z"/>
	<ellipse fill="#FFFFFF" stroke="#DBDBDB" stroke-miterlimit="10" cx="759.7" cy="414.3" rx="24.6" ry="22.6"/>
	<path fill="#DBDBDB" d="M760.1,529.2c0,0,18.4,87.6,17,135.7H754l-6.1-67.8l-17-36.7c0,0-23-7.1-15.3-31.1h44.5V529.2z"/>
	<rect x="754" y="662.8" fill="#4D8AF0" width="23.1" height="14.7"/>
	<rect x="754" y="662.8" fill="#DBDBDB" width="23.1" height="14.7"/>
	<polygon fill="#DBDBDB" points="719.3,659.2 712.8,670.5 692.5,660.7 697.9,649.1 	"/>
	<path fill="#606263" d="M776.4,682l25.6,7c2.6,0.7,4.3,2.9,4.3,5.3l0,0c0,3.1-2.7,5.6-6.1,5.6c-0.1,0-0.1,0-0.2,0l-34-1
		c-3.3-0.1-5.9-2.6-5.9-5.6v-6c0-3.1,2.7-5.6,6.1-5.6l0,0h8.4C775.2,681.7,775.8,681.8,776.4,682z"/>
	<path fill="#B8E9F4" d="M743.1,440.1l21.7,15.7c5,3.5,8.1,8.8,8.5,14.6c0.4,6-2.3,13-14.6,16.5c0,0,4.6,45.2,12.3,48h-58.4
		c0,0,3.9-20.9,6-43.8C720.8,464.6,722.5,442.3,743.1,440.1z"/>
	<path fill="#FFFFFF" stroke="#DBDBDB" stroke-miterlimit="10" d="M743.2,468.4L729.4,491l1.5,50.9c0,0,7.7,11.3,1.5,12.7
		s-15.4-2.8-13.8-11.3v-57.9c0,0,4.6-24,9.2-29.7L743.2,468.4z"/>
	<path fill="#606263" d="M701.7,671.2l20.2,16.1c2,1.6,2.6,4.2,1.5,6.5l0,0c-1.4,2.8-5,4-8,2.8c-0.1,0-0.1-0.1-0.2-0.1l-30.5-13.8
		c-2.9-1.3-4.2-4.5-2.8-7.3l2.7-5.5c1.4-2.8,4.9-4,8-2.7l7.7,3.2C700.7,670.6,701.2,670.9,701.7,671.2z"/>
	<polygon fill="#FFCBA4" points="730.8,397 736.4,399.5 740.3,393.3 734.8,390.6 	"/>
	<path fill="#FFCBA4" d="M734.8,390.6c0,0-36.9-35.7-29.2,51c0,0,8.9-23.5,25.2-44.6L734.8,390.6z"/>
	<ellipse fill="#FFCBA4" cx="752.6" cy="411.7" rx="21.3" ry="21.6"/>
	<ellipse fill="#FFCBA4" cx="765.8" cy="397.3" rx="12.6" ry="7.2"/>
</g>
<g>
	<path fill="#76B6D7" d="M1216.4,324.2c1.3,0.2,2.5,0.5,3.4,1s1.7,1.2,2.4,1.9l-0.9,1.3c-0.3,0.4-0.6,0.6-0.9,0.6
		c-0.2,0-0.4-0.1-0.6-0.3c-0.2-0.2-0.5-0.4-0.9-0.6s-0.8-0.4-1.3-0.7c-0.5-0.2-1-0.4-1.7-0.5l-1.8,9.6c0.8,0.3,1.7,0.6,2.5,0.9
		s1.6,0.7,2.2,1.2s1.2,1.1,1.6,1.8c0.4,0.7,0.6,1.6,0.6,2.6c0,1.2-0.2,2.4-0.7,3.5s-1.1,2.1-2,3s-1.9,1.6-3.1,2.1s-2.6,0.9-4.1,0.9
		l-0.7,3.5c0,0.2-0.1,0.4-0.4,0.6c-0.2,0.2-0.4,0.3-0.7,0.3h-1.3l0.8-4.4c-1.6-0.1-2.9-0.5-4.2-1.2c-1.2-0.6-2.2-1.4-3.1-2.4
		l1.2-1.5c0.1-0.1,0.3-0.3,0.4-0.4c0.2-0.1,0.3-0.1,0.5-0.1s0.5,0.1,0.8,0.4c0.3,0.2,0.6,0.5,1.1,0.9c0.4,0.3,0.9,0.6,1.5,0.9
		s1.4,0.5,2.2,0.6l2-10.6c-0.8-0.2-1.6-0.5-2.4-0.9c-0.8-0.3-1.5-0.7-2.1-1.2s-1.1-1.1-1.5-1.8c-0.4-0.7-0.6-1.6-0.6-2.7
		s0.2-2.1,0.6-3.1s1.1-1.9,1.9-2.7c0.8-0.8,1.8-1.4,3-1.9s2.5-0.8,3.9-0.8l0.5-2.8c0-0.2,0.2-0.5,0.4-0.7c0.2-0.2,0.4-0.3,0.7-0.3
		h1.3L1216.4,324.2z M1213.8,327c-0.9,0.1-1.8,0.3-2.5,0.6c-0.7,0.3-1.3,0.7-1.7,1.1c-0.5,0.4-0.8,0.9-1,1.5s-0.3,1.1-0.3,1.8
		c0,0.5,0.1,1,0.3,1.4c0.2,0.4,0.5,0.8,0.8,1.1c0.3,0.3,0.8,0.6,1.2,0.8c0.5,0.2,1,0.5,1.5,0.7L1213.8,327z M1211.6,349.8
		c1-0.1,1.8-0.3,2.6-0.6c0.8-0.3,1.4-0.8,1.9-1.3s0.9-1.1,1.2-1.8c0.3-0.7,0.4-1.4,0.4-2.2c0-0.6-0.1-1.1-0.3-1.5
		c-0.2-0.4-0.5-0.8-0.9-1.1c-0.4-0.3-0.8-0.6-1.3-0.8c-0.5-0.2-1.1-0.4-1.6-0.6L1211.6,349.8z"/>
</g>
<g>
	<path fill="#B8E9F4" d="M1067,502.8c-0.1,0.2-0.2,0.3-0.4,0.4l-5.2,1.5l0.8,4.3c0.2,0.8,0.2,1.6,0.2,2.2c-0.1,0.6-0.2,1.2-0.5,1.8
		c0.2-0.1,0.5-0.3,0.7-0.4c0.2-0.1,0.5-0.2,0.7-0.3l8.4-2.4l0.2,1.2c0,0.1,0,0.3,0,0.5s0,0.3-0.1,0.5c-0.1,0.1-0.1,0.3-0.2,0.4
		c-0.1,0.1-0.2,0.2-0.4,0.2l-11.9,3.4l-0.4-1.9c0.3-0.2,0.5-0.4,0.7-0.6c0.2-0.2,0.3-0.5,0.4-0.8s0.2-0.7,0.2-1c0-0.4,0-0.8-0.1-1.4
		l-1-5l-2,0.6l-0.2-1.2c0-0.2,0-0.4,0.1-0.6s0.2-0.3,0.4-0.4l1.4-0.4l-0.8-4.4c-0.2-1-0.3-2.1-0.2-3c0.1-1,0.3-1.9,0.6-2.7
		c0.3-0.8,0.8-1.5,1.4-2.1s1.4-1,2.3-1.3c0.7-0.2,1.3-0.3,1.9-0.2c0.6,0.1,1.1,0.2,1.5,0.5c0.5,0.3,0.9,0.6,1.3,1s0.7,0.9,1,1.4
		l-0.7,1c-0.2,0.2-0.4,0.3-0.5,0.3c-0.2,0-0.4-0.1-0.6-0.3c-0.2-0.3-0.5-0.5-0.7-0.7s-0.5-0.4-0.7-0.5c-0.3-0.1-0.5-0.2-0.9-0.2
		c-0.3,0-0.7,0-1.1,0.1c-0.5,0.2-1,0.4-1.4,0.8s-0.7,0.8-0.9,1.3c-0.2,0.5-0.3,1.1-0.4,1.8c0,0.7,0,1.4,0.2,2.1l0.8,4.4l5.8-1.7
		l0.2,1.2C1067.1,502.4,1067,502.6,1067,502.8z"/>
</g>
<g>
	<path fill="#DBDBDB" d="M996.9,350.2h2.4c0.4-1.5,0.9-2.8,1.6-3.9c0.7-1.2,1.5-2.2,2.4-3s2-1.4,3.1-1.9c1.1-0.4,2.3-0.7,3.6-0.7
		c1.5,0,2.8,0.3,3.8,0.9s1.9,1.4,2.5,2.4l-1.2,1.1c-0.1,0.1-0.2,0.2-0.3,0.3c-0.1,0.1-0.2,0.1-0.4,0.1c-0.2,0-0.4-0.1-0.6-0.3
		c-0.2-0.2-0.5-0.5-0.8-0.7c-0.3-0.3-0.8-0.5-1.3-0.7s-1.2-0.3-2.1-0.3s-1.7,0.1-2.5,0.4s-1.5,0.7-2.1,1.3c-0.6,0.6-1.2,1.3-1.7,2.2
		c-0.5,0.9-0.9,1.8-1.2,2.9h9.6l-0.1,0.9c0,0.2-0.1,0.4-0.3,0.5c-0.2,0.2-0.4,0.2-0.7,0.2h-8.9c-0.1,0.4-0.1,0.8-0.2,1.2
		c0,0.4-0.1,0.8-0.1,1.3h8.2l-0.1,0.9c0,0.2-0.1,0.4-0.3,0.5c-0.2,0.2-0.4,0.2-0.7,0.2h-7.1c0.1,2.3,0.6,4.1,1.6,5.4
		c1,1.2,2.3,1.9,3.9,1.9c0.9,0,1.7-0.1,2.4-0.4c0.6-0.3,1.2-0.5,1.6-0.9c0.4-0.3,0.8-0.6,1-0.9c0.3-0.3,0.5-0.4,0.7-0.4
		c0.1,0,0.2,0,0.2,0c0.1,0,0.1,0.1,0.2,0.2l1.1,1.2c-1,1.2-2.1,2.1-3.3,2.7c-1.3,0.6-2.7,1-4.3,1c-1.3,0-2.4-0.2-3.4-0.7
		s-1.8-1.1-2.5-2s-1.2-1.9-1.6-3.1s-0.6-2.5-0.6-4h-2.5l0.2-1.7h2.3c0-0.8,0.1-1.7,0.3-2.5h-2.3L996.9,350.2z"/>
</g>
<g>
	<path fill="#DBDBDB" d="M974.5,144.4h2.4c0.4-1.5,0.9-2.8,1.6-3.9c0.7-1.2,1.5-2.2,2.4-3s2-1.4,3.1-1.9c1.1-0.4,2.3-0.7,3.6-0.7
		c1.5,0,2.8,0.3,3.8,0.9c1,0.6,1.9,1.4,2.5,2.4l-1.2,1.1c-0.1,0.1-0.2,0.2-0.3,0.3c-0.1,0.1-0.2,0.1-0.4,0.1c-0.2,0-0.4-0.1-0.6-0.3
		s-0.5-0.5-0.8-0.7c-0.3-0.3-0.8-0.5-1.3-0.7s-1.2-0.3-2.1-0.3c-0.9,0-1.7,0.1-2.5,0.4c-0.8,0.3-1.5,0.7-2.1,1.3s-1.2,1.3-1.7,2.2
		s-0.9,1.8-1.2,2.9h9.6l-0.1,0.9c0,0.2-0.1,0.4-0.3,0.5c-0.2,0.2-0.4,0.2-0.7,0.2h-8.9c-0.1,0.4-0.1,0.8-0.2,1.2
		c0,0.4-0.1,0.8-0.1,1.3h8.2l-0.1,0.9c0,0.2-0.1,0.4-0.3,0.5c-0.2,0.2-0.4,0.2-0.7,0.2H979c0.1,2.3,0.6,4.1,1.6,5.4
		c1,1.2,2.3,1.9,3.9,1.9c0.9,0,1.7-0.1,2.4-0.4c0.6-0.3,1.2-0.5,1.6-0.9c0.4-0.3,0.8-0.6,1-0.9c0.3-0.3,0.5-0.4,0.7-0.4
		c0.1,0,0.2,0,0.2,0c0.1,0,0.1,0.1,0.2,0.2l1.1,1.2c-1,1.2-2.1,2.1-3.3,2.7c-1.3,0.6-2.7,1-4.3,1c-1.3,0-2.4-0.2-3.4-0.7
		s-1.8-1.1-2.5-2s-1.2-1.9-1.6-3.1c-0.4-1.2-0.6-2.5-0.6-4h-2.5l0.2-1.7h2.3c0-0.8,0.1-1.7,0.3-2.5H974L974.5,144.4z"/>
</g>
<g>
	<path fill="#DBDBDB" d="M1177.7,264.1h2.4c0.4-1.5,0.9-2.8,1.6-3.9c0.7-1.2,1.5-2.2,2.4-3s2-1.4,3.1-1.9c1.1-0.4,2.3-0.7,3.6-0.7
		c1.5,0,2.8,0.3,3.8,0.9s1.9,1.4,2.5,2.4l-1.2,1.1c-0.1,0.1-0.2,0.2-0.3,0.3c-0.1,0.1-0.2,0.1-0.4,0.1c-0.2,0-0.4-0.1-0.6-0.3
		c-0.2-0.2-0.5-0.5-0.8-0.7c-0.3-0.3-0.8-0.5-1.3-0.7s-1.2-0.3-2.1-0.3s-1.7,0.1-2.5,0.4s-1.5,0.7-2.1,1.3c-0.6,0.6-1.2,1.3-1.7,2.2
		c-0.5,0.9-0.9,1.8-1.2,2.9h9.6l-0.1,0.9c0,0.2-0.1,0.4-0.3,0.5c-0.2,0.2-0.4,0.2-0.7,0.2h-8.9c-0.1,0.4-0.1,0.8-0.2,1.2
		c0,0.4-0.1,0.8-0.1,1.3h8.2l-0.1,0.9c0,0.2-0.1,0.4-0.3,0.5c-0.2,0.2-0.4,0.2-0.7,0.2h-7.1c0.1,2.3,0.6,4.1,1.6,5.4
		c1,1.2,2.3,1.9,3.9,1.9c0.9,0,1.7-0.1,2.4-0.4c0.6-0.3,1.2-0.5,1.6-0.9c0.4-0.3,0.8-0.6,1-0.9c0.3-0.3,0.5-0.4,0.7-0.4
		c0.1,0,0.2,0,0.2,0c0.1,0,0.1,0.1,0.2,0.2l1.1,1.2c-1,1.2-2.1,2.1-3.3,2.7c-1.3,0.6-2.7,1-4.3,1c-1.3,0-2.4-0.2-3.4-0.7
		s-1.8-1.1-2.5-2s-1.2-1.9-1.6-3.1s-0.6-2.5-0.6-4h-2.5l0.2-1.7h2.3c0-0.8,0.1-1.7,0.3-2.5h-2.3L1177.7,264.1z"/>
</g>
</svg>
