<?xml version="1.0" encoding="utf-8"?>
<!-- Generator: Adobe Illustrator 18.0.0, SVG Export Plug-In . SVG Version: 6.00 Build 0)  -->
<!DOCTYPE svg PUBLIC "-//W3C//DTD SVG 1.1//EN" "http://www.w3.org/Graphics/SVG/1.1/DTD/svg11.dtd">
<svg version="1.1" id="Calque_1" xmlns="http://www.w3.org/2000/svg" xmlns:xlink="http://www.w3.org/1999/xlink" x="0px" y="0px"
	 viewBox="0 240 800 800" enable-background="new 0 240 800 800" xml:space="preserve">
<g>
	<g>
		<path fill="#FFFFFF" d="M400,1040C179.6,1040,0,860.4,0,640s179.6-400,400-400s400,179.6,400,400S620.4,1040,400,1040L400,1040z
			 M400,257.8C188.4,257.8,17.8,428.4,17.8,640s170.7,382.2,382.2,382.2S782.2,851.6,782.2,640S611.6,257.8,400,257.8L400,257.8z"/>
	</g>
</g>
<g>
	<g>
		<g>
			<path fill="#FFFFFF" d="M593.8,842.7H206.2c-5.3,0-8.9-3.6-8.9-8.9V446.2c0-5.3,3.6-8.9,8.9-8.9h387.6c5.3,0,8.9,3.6,8.9,8.9
				v387.6C602.7,839.1,599.1,842.7,593.8,842.7L593.8,842.7z M215.1,824.9h369.8V455.1H215.1V824.9L215.1,824.9z"/>
		</g>
		<g>
			<path fill="#FFFFFF" d="M586.7,558.2H213.3c-5.3,0-8.9-3.6-8.9-8.9s3.6-8.9,8.9-8.9h373.3c5.3,0,8.9,3.6,8.9,8.9
				C595.6,554.7,592,558.2,586.7,558.2L586.7,558.2z"/>
		</g>
		<path fill="#FFFFFF" d="M257.8,478.2c-10.7,0-19.6,8.9-19.6,19.6c0,10.7,8.9,19.6,19.6,19.6c10.7,0,19.6-8.9,19.6-19.6
			C277.3,487.1,270.2,478.2,257.8,478.2L257.8,478.2z"/>
		<path fill="#FFFFFF" d="M314.7,478.2c-10.7,0-19.6,8.9-19.6,19.6c0,10.7,8.9,19.6,19.6,19.6c10.7,0,19.6-8.9,19.6-19.6
			C334.2,487.1,325.3,478.2,314.7,478.2L314.7,478.2z"/>
		<path fill="#FFFFFF" d="M371.6,478.2c-10.7,0-19.6,8.9-19.6,19.6c0,10.7,8.9,19.6,19.6,19.6c10.7,0,19.6-8.9,19.6-19.6
			C391.1,487.1,382.2,478.2,371.6,478.2L371.6,478.2z"/>
	</g>
	<g>
		<g>
			<path fill="#FFFFFF" stroke="#FFFFFF" stroke-width="9" stroke-miterlimit="10" d="M387,756.9c-44.1,0-79.9-35.9-79.9-79.9
				c0-44.1,35.9-80,80-80c44.1,0,80,35.9,80,80C467,721,431.1,756.9,387,756.9L387,756.9z M387.1,605.4c-39.4,0-71.5,32.1-71.5,71.5
				c0,39.4,32.1,71.5,71.5,71.5c39.5,0,71.6-32.1,71.6-71.5C458.6,637.5,426.5,605.4,387.1,605.4L387.1,605.4z"/>
		</g>
		<g>
			<path fill="#FFFFFF" stroke="#FFFFFF" stroke-width="9" stroke-miterlimit="10" d="M339.7,676.9h-8.4c0-30.8,25-55.8,55.8-55.8
				v8.4C361,629.6,339.7,650.8,339.7,676.9L339.7,676.9z"/>
		</g>
		<g>
			<path fill="#FFFFFF" stroke="#FFFFFF" stroke-width="9" stroke-miterlimit="10" d="M487.4,784.7c-1.1,0-2.2-0.4-3-1.2l-47-47
				c-1.6-1.6-1.6-4.3,0-6c1.6-1.6,4.3-1.6,6,0l47,47c1.6,1.6,1.6,4.3,0,6C489.5,784.3,488.5,784.7,487.4,784.7L487.4,784.7z"/>
		</g>
	</g>
</g>
</svg>
