<?xml version="1.0" encoding="utf-8"?>
<!-- Generator: Adobe Illustrator 18.0.0, SVG Export Plug-In . SVG Version: 6.00 Build 0)  -->
<!DOCTYPE svg PUBLIC "-//W3C//DTD SVG 1.1//EN" "http://www.w3.org/Graphics/SVG/1.1/DTD/svg11.dtd">
<svg version="1.1" id="Calque_1" xmlns="http://www.w3.org/2000/svg" xmlns:xlink="http://www.w3.org/1999/xlink" x="0px" y="0px"
	 viewBox="0 0 300 300" enable-background="new 0 0 300 300" xml:space="preserve">
<g>
	<g>
		<path fill="#3A006D" stroke="#3A006D" stroke-miterlimit="10" d="M138.4,229.1c-0.8,0.2-1.7,0-2.4-0.5c-1.1-0.7-1.6-2.1-1.3-3.4
			c3-13.6-1.5-28-11.6-37.8c-2.4,0.2-4.5,0.3-6.7,0.3c-1.3,0-2.5-0.8-3-2c-0.8-1.9-1.5-4-2.1-6.3c-12.7-5.8-28-4.7-39.5,2.9
			c-1.1,0.7-2.5,0.7-3.6,0c-1.1-0.7-1.6-2.1-1.3-3.4c1.3-5.9,3.6-11.4,7-16.3c8.3-12.1,21.9-19.5,36.7-20.1
			c2.3-10.4,6.6-20.1,12.6-28.9c12.2-17.9,30.7-30.3,50.5-34c4.4-0.8,8.8-1.2,13.2-1.2c1.3,0,2.5,0.8,3,2c9,22.5,5.3,50.2-9.7,72.1
			c-6,8.8-13.6,16.3-22.4,22.2c4.8,14,2.9,29.3-5.5,41.5c-3.3,4.9-7.6,9.1-12.7,12.4C139.2,228.8,138.8,229,138.4,229.1L138.4,229.1
			z M118.7,181.2c1.6-0.1,3.3-0.2,5.2-0.4c0.9-0.1,1.9,0.2,2.5,0.8c10.5,9.5,16.1,23.1,15.6,36.8c1.8-1.8,3.5-3.7,4.9-5.8
			c7.6-11.1,9.1-25.2,3.9-37.9c-0.6-1.5-0.1-3.1,1.3-4c9.1-5.7,16.7-13,22.8-21.8c13.4-19.6,17.1-43.9,9.8-64
			c-21.3,0.5-42.8,12.9-56.1,32.3c-6,8.8-10.1,18.6-12.1,29.1c-0.3,1.5-1.7,2.7-3.2,2.6c-13.5-0.2-26.4,6.3-33.9,17.3
			c-1.4,2.1-2.7,4.3-3.7,6.7c12.4-5.3,27.5-4.9,39.9,1.3c0.8,0.4,1.4,1.2,1.7,2.1C117.7,178.1,118.2,179.7,118.7,181.2L118.7,181.2z
			"/>
	</g>
	<g>
		<g id="XMLID_1_">
			<g>
				<path fill="#3A006D" d="M169.4,119.3c0.5,2.5-0.1,5.1-1.5,7.3c-2.9,4.3-9.2,5.4-13.5,2.5c-4.4-3-5.6-9.1-2.5-13.5
					c1.5-2.1,3.7-3.6,6.2-4.1c2.5-0.5,5.1,0.1,7.3,1.5C167.5,114.5,168.9,116.7,169.4,119.3z"/>
				<path fill="#3A006D" d="M175.8,118.1c0.8,4.2-0.1,8.6-2.5,12.1c-2.4,3.6-6.1,6-10.4,6.8c-4.2,0.8-8.5-0.1-12.1-2.6
					c-7.4-5-9.3-15.1-4.2-22.5c4.9-7.1,15.4-9.1,22.5-4.2C172.6,110.2,175,113.8,175.8,118.1z M167.9,126.6c1.5-2.1,2-4.7,1.5-7.3
					c-0.5-2.6-1.9-4.8-4-6.2c-2.2-1.5-4.7-2-7.3-1.5c-2.5,0.5-4.8,1.9-6.2,4.1c-3,4.4-1.9,10.5,2.5,13.5
					C158.7,132,164.9,130.8,167.9,126.6z"/>
			</g>
			<g>
				<path fill="none" stroke="#3A006D" stroke-miterlimit="10" d="M162.8,137c-4.2,0.8-8.5-0.1-12.1-2.6c-7.4-5-9.3-15.1-4.2-22.5
					c4.9-7.1,15.4-9.1,22.5-4.2c3.6,2.4,6,6.1,6.8,10.4c0.8,4.2-0.1,8.6-2.5,12.1C170.8,133.8,167.1,136.2,162.8,137z"/>
				<path fill="none" stroke="#3A006D" stroke-miterlimit="10" d="M158.1,111.5c-2.5,0.5-4.8,1.9-6.2,4.1c-3,4.4-1.9,10.5,2.5,13.5
					c4.3,2.9,10.5,1.8,13.5-2.5c1.5-2.1,2-4.7,1.5-7.3c-0.5-2.6-1.9-4.8-4-6.2C163.2,111.6,160.6,111.1,158.1,111.5z"/>
			</g>
		</g>
	</g>
	<g>
		<path fill="#3A006D" stroke="#3A006D" stroke-miterlimit="10" d="M102.8,216.4c-2.1,0.4-4.3,0.6-6.4,0.7c-1.4,0-2.6-0.8-3.1-2.1
			c-4.6-12.7-2.5-27.4,5.8-39.5c1-1.5,3-1.9,4.5-0.8c1.5,1,1.9,3,0.8,4.5c-6.6,9.6-8.7,21.1-5.7,31.3c10.5-0.9,20.5-7.1,27.1-16.7
			c1-1.5,3-1.9,4.5-0.8c1.5,1,1.9,3,0.8,4.5C124.2,207.5,113.9,214.3,102.8,216.4L102.8,216.4z"/>
	</g>
</g>
<polygon fill="none" stroke="#FFFFFF" stroke-width="5" stroke-miterlimit="10" points="-252.6,126.2 -273.1,121.1 -289,135.1 
	-290.4,114 -308.6,103.2 -289,95.3 -284.3,74.7 -270.8,90.9 -249.7,88.9 -261,106.8 "/>
<polygon fill="none" stroke="#FFFFFF" stroke-width="5" stroke-miterlimit="10" points="-77.8,286.5 -96.8,277.1 -115.3,287.4 
	-112.2,266.5 -127.7,252.1 -106.9,248.5 -98,229.4 -88.2,248.1 -67.2,250.6 -81.9,265.7 "/>
<rect x="-289" y="216" transform="matrix(-0.6867 0.7269 -0.7269 -0.6867 -210.2161 537.9077)" fill="#3A006D" stroke="#3A006D" stroke-miterlimit="10" width="136" height="15.3"/>
<polyline fill="none" stroke="#3A006D" stroke-width="5" stroke-miterlimit="10" points="-172.9,162 -151.5,139.5 -140.4,150 
	-161.8,172.7 "/>
<path fill="none" stroke="#FFFFFF" stroke-width="5" stroke-miterlimit="10" d="M-280.1,247.1c-8.8-14.9-13.9-32.3-13.9-50.9"/>
<path fill="none" stroke="#FFFFFF" stroke-width="5" stroke-miterlimit="10" d="M-192.3,305.9"/>
<circle fill="#FFFFFF" cx="-191.5" cy="94.6" r="9.6"/>
<circle fill="#FFFFFF" cx="-211.5" cy="127.9" r="9.6"/>
<circle fill="#FFFFFF" cx="-159.5" cy="221.9" r="9.6"/>
<circle fill="#FFFFFF" cx="-301.5" cy="322.6" r="9.6"/>
<circle fill="#FFFFFF" cx="-86.9" cy="333.9" r="9.6"/>
<circle fill="#FFFFFF" cx="255.3" cy="28.8" r="23.1"/>
<circle fill="#FFFFFF" cx="-56.6" cy="123.9" r="9.6"/>
<path fill="none" stroke="#FFFFFF" stroke-width="5" stroke-miterlimit="10" d="M-85.2,199.5c0.3-17.3-3.9-34.9-13-51"/>
<ellipse fill="#FFFFFF" cx="-261.5" cy="149" rx="3.6" ry="3.2"/>
<ellipse fill="#FFFFFF" cx="-254" cy="160.3" rx="3.6" ry="3.2"/>
<ellipse fill="#FFFFFF" cx="-273.4" cy="192.2" rx="3.6" ry="3.2"/>
<ellipse fill="#FFFFFF" cx="-209" cy="160.1" rx="3.6" ry="3.2"/>
<ellipse fill="#FFFFFF" cx="-213.5" cy="267.1" rx="3.6" ry="3.2"/>
<ellipse fill="#FFFFFF" cx="-206" cy="278.4" rx="3.6" ry="3.2"/>
<ellipse fill="#FFFFFF" cx="-225.4" cy="310.3" rx="3.6" ry="3.2"/>
<ellipse fill="#FFFFFF" cx="-161" cy="278.2" rx="3.6" ry="3.2"/>
<ellipse fill="#FFFFFF" cx="-111.2" cy="64.6" rx="3.6" ry="3.2"/>
<ellipse fill="#FFFFFF" cx="-103.7" cy="75.9" rx="3.6" ry="3.2"/>
<ellipse fill="#FFFFFF" cx="-58.7" cy="75.7" rx="3.6" ry="3.2"/>
<polygon fill="none" stroke="#FFFFFF" stroke-width="5" stroke-miterlimit="10" points="45.9,175.4 42.4,170.1 36,170 40,165 
	38.1,158.9 44.1,161.1 49.3,157.5 49,163.8 54.1,167.7 48,169.4 "/>
<polygon fill="none" stroke="#FFFFFF" stroke-width="5" stroke-miterlimit="10" points="203.9,221.5 200.3,216.2 194,216.1 
	197.9,211.1 196,205 202,207.2 207.2,203.5 207,209.9 212.1,213.7 205.9,215.4 "/>
<polygon fill="none" stroke="#FFFFFF" stroke-width="5" stroke-miterlimit="10" points="32.4,30.3 32.8,24 27.8,20 34,18.4 
	36.2,12.4 39.6,17.8 46,18 41.9,23 43.7,29.1 37.7,26.8 "/>
<ellipse fill="#FFFFFF" cx="-324.1" cy="280.5" rx="3.6" ry="3.2"/>
<ellipse fill="#FFFFFF" cx="-316.7" cy="291.8" rx="3.6" ry="3.2"/>
<path fill="none" stroke="#3A006D" stroke-width="5" stroke-miterlimit="10" d="M259.7,71.3c13.8,19,22.7,41.9,24.7,66.9
	c5.8,72.8-48.5,136.5-121.2,142.3c-21.8,1.7-42.8-1.9-61.6-9.8"/>
<path fill="none" stroke="#3A006D" stroke-width="5" stroke-miterlimit="10" d="M21,159.3C15.1,86.5,69.4,22.8,142.2,17"/>
<ellipse fill="#FFFFFF" cx="29.5" cy="47.9" rx="3.6" ry="3.2"/>
<ellipse fill="#FFFFFF" cx="287.9" cy="217.6" rx="3.6" ry="3.2"/>
<ellipse fill="#FFFFFF" cx="82" cy="59" rx="3.6" ry="3.2"/>
<ellipse transform="matrix(-0.893 -0.45 0.45 -0.893 -81.3849 444.0003)" fill="#FFFFFF" cx="12.1" cy="231.7" rx="3.2" ry="3.6"/>
<ellipse transform="matrix(-0.893 -0.45 0.45 -0.893 -49.3476 412.6988)" fill="#FFFFFF" cx="24.4" cy="212.2" rx="3.2" ry="3.6"/>
<ellipse transform="matrix(-0.893 -0.45 0.45 -0.893 0.954 379.797)" fill="#FFFFFF" cx="45.6" cy="189.8" rx="3.2" ry="3.6"/>
<ellipse transform="matrix(-0.893 -0.45 0.45 -0.893 41.5528 265.9832)" fill="#FFFFFF" cx="52.4" cy="128.1" rx="3.2" ry="3.6"/>
<ellipse transform="matrix(-0.893 -0.45 0.45 -0.893 67.7704 268.9906)" fill="#FFFFFF" cx="65.9" cy="126.4" rx="3.2" ry="3.6"/>
<ellipse transform="matrix(-0.893 -0.45 0.45 -0.893 362.9594 478.7131)" fill="#FFFFFF" cx="238.4" cy="196.2" rx="3.2" ry="3.6"/>
<ellipse fill="#FFFFFF" cx="205" cy="286.2" rx="3.6" ry="3.2"/>
<ellipse fill="#FFFFFF" cx="19" cy="96.2" rx="3.6" ry="3.2"/>
<ellipse fill="#FFFFFF" cx="99.1" cy="120.6" rx="10" ry="9.6"/>
<ellipse fill="#FFFFFF" cx="115.9" cy="46.9" rx="10" ry="9.6"/>
<ellipse fill="#FFFFFF" cx="113.3" cy="79.1" rx="3.7" ry="3.2"/>
<polygon fill="none" stroke="#FFFFFF" stroke-width="5" stroke-miterlimit="10" points="158.9,67 155.4,61.7 149,61.6 153,56.6 
	151.1,50.5 157.1,52.7 162.3,49.1 162,55.4 167.1,59.3 161,61 "/>
<ellipse transform="matrix(-0.893 -0.45 0.45 -0.893 241.3559 451.8053)" fill="#FFFFFF" cx="174.4" cy="197.2" rx="3.2" ry="3.6"/>
<ellipse fill="#FFFFFF" cx="214" cy="136" rx="3.6" ry="3.2"/>
<path fill="none" stroke="#FFFFFF" stroke-width="5" stroke-miterlimit="10" d="M240.3,81.5"/>
<ellipse fill="#FFFFFF" cx="219.1" cy="42.7" rx="3.6" ry="3.2"/>
<ellipse fill="#FFFFFF" cx="235.6" cy="71" rx="3.6" ry="3.2"/>
<ellipse fill="#FFFFFF" cx="207.2" cy="85.9" rx="3.6" ry="3.2"/>
<ellipse fill="#FFFFFF" cx="228" cy="6.8" rx="3.6" ry="3.2"/>
<circle fill="#FFFFFF" cx="248.6" cy="264.9" r="9.6"/>
<ellipse fill="#FFFFFF" cx="172.9" cy="8.5" rx="3.6" ry="3.2"/>
<ellipse fill="#FFFFFF" cx="185.3" cy="43.8" rx="3.6" ry="3.2"/>
<ellipse transform="matrix(-0.5285 0.8489 -0.8489 -0.5285 550.2183 18.4614)" fill="#FFFFFF" cx="270" cy="162" rx="3.2" ry="3.6"/>
<ellipse transform="matrix(-0.9959 -8.992539e-02 8.992539e-02 -0.9959 521.6801 280.3108)" fill="#FFFFFF" cx="267.2" cy="128.4" rx="9.6" ry="10"/>
<ellipse transform="matrix(-0.893 -0.45 0.45 -0.893 501.077 308.7164)" fill="#FFFFFF" cx="287.2" cy="94.8" rx="3.2" ry="3.6"/>
<line fill="none" stroke="#FFFFFF" stroke-width="5" stroke-miterlimit="10" x1="123.3" y1="223.6" x2="97.7" y2="258.4"/>
<line fill="none" stroke="#FFFFFF" stroke-width="5" stroke-miterlimit="10" x1="78.3" y1="192.6" x2="52.7" y2="227.4"/>
<line fill="none" stroke="#FFFFFF" stroke-width="5" stroke-miterlimit="10" x1="87" y1="223" x2="49" y2="279"/>
<circle fill="#FFFFFF" cx="175.8" cy="242.3" r="18.6"/>
<ellipse fill="#FFFFFF" cx="135.3" cy="242.8" rx="3.6" ry="3.2"/>
<ellipse fill="#FFFFFF" cx="3.6" cy="293.4" rx="3.6" ry="3.2"/>
<polygon fill="none" stroke="#FFFFFF" stroke-width="5" stroke-miterlimit="10" points="208.1,29.1 202,27.4 197.1,31.3 196.9,25 
	191.5,21.5 197.5,19.4 199.1,13.2 203.1,18.2 209.4,17.9 205.8,23.2 "/>
<polygon fill="none" stroke="#FFFFFF" stroke-width="5" stroke-miterlimit="10" points="75.9,291.5 72.3,286.2 66,286.1 69.9,281.1 
	68,275 74,277.2 79.2,273.5 79,279.9 84.1,283.7 77.9,285.4 "/>
<ellipse fill="#FFFFFF" cx="232" cy="220" rx="3.6" ry="3.2"/>
<ellipse transform="matrix(-0.5285 0.8489 -0.8489 -0.5285 504.4666 -157.0094)" fill="#FFFFFF" cx="295.8" cy="61.6" rx="3.2" ry="3.6"/>
<ellipse transform="matrix(-0.9959 -8.992539e-02 8.992539e-02 -0.9959 491.9095 512.4445)" fill="#FFFFFF" cx="257.5" cy="245.1" rx="3.2" ry="3.6"/>
<line fill="none" stroke="#3A006D" stroke-width="5" stroke-miterlimit="10" x1="260.1" y1="69.3" x2="257.2" y2="85.8"/>
<line fill="none" stroke="#3A006D" stroke-width="5" stroke-miterlimit="10" x1="273.7" y1="74.1" x2="258.8" y2="71.7"/>
</svg>
