<?xml version="1.0" encoding="utf-8"?>
<!-- Generator: Adobe Illustrator 18.0.0, SVG Export Plug-In . SVG Version: 6.00 Build 0)  -->
<!DOCTYPE svg PUBLIC "-//W3C//DTD SVG 1.1//EN" "http://www.w3.org/Graphics/SVG/1.1/DTD/svg11.dtd">
<svg version="1.1" id="Calque_1" xmlns="http://www.w3.org/2000/svg" xmlns:xlink="http://www.w3.org/1999/xlink" x="0px" y="0px"
	 viewBox="0 240 800 800" enable-background="new 0 240 800 800" xml:space="preserve">
<g>
	<g>
		<path fill="#FFFFFF" d="M400,1040C179.6,1040,0,860.4,0,640s179.6-400,400-400s400,179.6,400,400S620.4,1040,400,1040L400,1040z
			 M400,257.8C188.4,257.8,17.8,428.4,17.8,640s170.7,382.2,382.2,382.2S782.2,851.6,782.2,640S611.6,257.8,400,257.8L400,257.8z"/>
	</g>
</g>
<g>
	<g>
		<path fill="#FFFFFF" d="M401.4,875c-125.9,0-228.2-102.4-228.2-228.2c0-6.2,5-11.2,11.2-11.2s11.2,5,11.2,11.2
			c0,113.4,92.3,205.8,205.8,205.8c113.4,0,205.7-92.3,205.7-205.8c0-113.5-92.3-205.8-205.7-205.8c-6.2,0-11.2-5-11.2-11.2
			c0-6.2,5-11.2,11.2-11.2c125.8,0,228.2,102.4,228.2,228.3C629.6,772.6,527.2,875,401.4,875L401.4,875z"/>
	</g>
	<g>
		<path fill="#FFFFFF" d="M439.5,512.5c-3.1,0-6.1-1.3-8.4-3.7l-61.2-68.2c-3.8-4.3-3.8-10.7,0-15l61.2-68.2
			c4.2-4.6,11.3-5,15.9-0.9c4.6,4.1,5,11.2,0.9,15.9L393.4,433l54.5,60.7c4.1,4.6,3.8,11.7-0.9,15.9
			C444.8,511.5,442.2,512.5,439.5,512.5L439.5,512.5z"/>
	</g>
</g>
<g>
	<path fill="#FFFFFF" d="M366.1,723.8c-1,0-2-0.4-2.7-1.2l-49.1-51.5c-1.4-1.5-1.4-3.8,0.1-5.2c1.5-1.4,3.8-1.4,5.2,0.1l46.2,48.5
		l105.7-128.9c1.3-1.6,3.6-1.8,5.2-0.5c1.6,1.3,1.8,3.6,0.5,5.2L369,722.5c-0.7,0.8-1.7,1.3-2.7,1.4
		C366.2,723.8,366.2,723.8,366.1,723.8L366.1,723.8z"/>
</g>
</svg>
