<?xml version="1.0" encoding="utf-8"?>
<!-- Generator: Adobe Illustrator 18.0.0, SVG Export Plug-In . SVG Version: 6.00 Build 0)  -->
<!DOCTYPE svg PUBLIC "-//W3C//DTD SVG 1.1//EN" "http://www.w3.org/Graphics/SVG/1.1/DTD/svg11.dtd">
<svg version="1.1" id="Calque_1" xmlns="http://www.w3.org/2000/svg" xmlns:xlink="http://www.w3.org/1999/xlink" x="0px" y="0px"
	 viewBox="0 0 300 300" enable-background="new 0 0 300 300" xml:space="preserve">
<path fill="none" stroke="#FFFFFF" stroke-width="5" stroke-miterlimit="10" d="M196.6,268.5c0.2,2.6,2.3,4.6,4.9,4.7l18.2,1.6v1.8
	h-112v-1.8l20.1-1.6c2.6-0.2,4.6-2.3,4.9-4.7l3.2-35.7h57.8L196.6,268.5z"/>
<rect x="107.7" y="274.8" fill="#E0E0E0" width="112" height="1.8"/>
<path fill="#3A006D" d="M284.5,80.5H43c-3,0-5.3,2.3-5.3,5.3v143.5c0,3,2.3,5.3,5.3,5.3h241.5c3,0,5.3-2.3,5.3-5.3V85.8
	C289.8,82.8,287.5,80.5,284.5,80.5z M275.7,220.5h-224v-126h224V220.5z"/>
<circle fill="#FFFFFF" cx="163.7" cy="227.7" r="3.5"/>
<circle fill="#2B2B2B" cx="163.7" cy="87.5" r="0.9"/>
<circle fill="#383838" cx="163.7" cy="87.5" r="0.4"/>
<rect x="85.2" y="146.7" fill="#FFFFFF" width="44.6" height="73.8"/>
<rect x="142.6" y="122.4" fill="#FFFFFF" width="44.6" height="97.9"/>
<rect x="200" y="52.6" fill="#FFFFFF" width="44.6" height="167.6"/>
<g>
	<circle fill="#3A006D" cx="132.5" cy="135.2" r="15.3"/>
	<g>
		<g>
			<path fill="#FFFFFF" d="M51.7,97.3c-8,0-15.2-4.5-18.8-11.6L8.6,36.5C7.6,34.3,7,32,7,29.6C7,20.9,14,14,22.5,14h17.9v5.4H22.5
				c-5.6,0-10.1,4.5-10.1,10.1c0,1.6,0.4,3.2,1.1,4.6l24.3,49.2c2.6,5.3,8,8.6,13.9,8.6s11.3-3.3,13.9-8.6L90,34.1
				c0.7-1.4,1.1-2.9,1.1-4.5c0-5.7-4.5-10.2-10.1-10.2H63V14h17.9c8.6,0,15.5,7,15.5,15.5c0,2.4-0.6,4.8-1.6,7L70.5,85.6
				C66.9,92.8,59.7,97.3,51.7,97.3z"/>
		</g>
	</g>
	<path fill="#FFFFFF" d="M70.5,85.6l24.3-49.2c1.1-2.1,1.6-4.5,1.6-7c0-8.6-7-15.5-15.5-15.5H63v5.4h17.9c5.6,0,10.1,4.5,10.1,10.2
		c0,1.6-0.4,3.1-1.1,4.5L65.6,83.2c-2.6,5.3-8,8.6-13.9,8.6v5.4C59.7,97.3,66.9,92.8,70.5,85.6z"/>
	<path fill="#3A006D" d="M39.9,24.3L39.9,24.3c-1.8,0-3.2-1.4-3.2-3.2v-8.9c0-1.8,1.4-3.2,3.2-3.2l0,0c1.8,0,3.2,1.4,3.2,3.2v8.9
		C43.1,22.9,41.6,24.3,39.9,24.3z"/>
	<path fill="#3A006D" d="M62.5,24.3L62.5,24.3c-1.8,0-3.2-1.4-3.2-3.2v-8.9c0-1.8,1.4-3.2,3.2-3.2l0,0c1.8,0,3.2,1.4,3.2,3.2v8.9
		C65.7,22.9,64.3,24.3,62.5,24.3z"/>
	<path fill="#FFFFFF" d="M74,66.4l-8.3,16.8c-2.6,5.3-8,8.6-13.9,8.6s-11.3-3.3-13.9-8.6l-8.3-16.8h-6L33,85.6
		c3.6,7.2,10.7,11.6,18.8,11.6s15.2-4.5,18.8-11.6L80,66.4H74z"/>
	<path fill="#FFFFFF" d="M74,66.4l-8.3,16.8c-2.6,5.3-8,8.6-13.9,8.6v5.4c8,0,15.2-4.5,18.8-11.6L80,66.4H74z"/>
	<g>
		<g>
			<path fill="#FFFFFF" d="M71.9,142.6c-12.6,0-22.9-10.3-22.9-22.9V94.6h5.4v25.1c0,9.6,7.8,17.5,17.5,17.5
				c9.7,0,17.5-7.8,17.5-17.5V96.4c0-12.6,10.3-22.9,22.9-22.9c12.6,0,22.9,10.3,22.9,22.9v25.1h-5.4V96.4c0-9.6-7.8-17.5-17.5-17.5
				c-9.7,0-17.5,7.8-17.5,17.5v23.3C94.8,132.3,84.5,142.6,71.9,142.6z"/>
		</g>
	</g>
	<circle fill="#FFFFFF" cx="132.5" cy="135.2" r="7.6"/>
	<g>
		<path fill="#3A006D" d="M132.5,143.9c-4.8,0-8.7-3.9-8.7-8.7c0-4.8,3.9-8.7,8.7-8.7c4.8,0,8.7,3.9,8.7,8.7
			C141.2,140,137.3,143.9,132.5,143.9z M132.5,128.6c-3.6,0-6.6,2.9-6.6,6.6c0,3.6,2.9,6.6,6.6,6.6c3.6,0,6.6-2.9,6.6-6.6
			C139,131.6,136.1,128.6,132.5,128.6z"/>
	</g>
</g>
</svg>
