<?xml version="1.0" encoding="utf-8"?>
<!-- Generator: Adobe Illustrator 18.0.0, SVG Export Plug-In . SVG Version: 6.00 Build 0)  -->
<!DOCTYPE svg PUBLIC "-//W3C//DTD SVG 1.1//EN" "http://www.w3.org/Graphics/SVG/1.1/DTD/svg11.dtd">
<svg version="1.1" id="Calque_1" xmlns="http://www.w3.org/2000/svg" xmlns:xlink="http://www.w3.org/1999/xlink" x="0px" y="0px"
	 viewBox="0 0 640 1136" enable-background="new 0 0 640 1136" xml:space="preserve">
<rect x="-0.9" y="2.1" fill="none" width="640.4" height="1137.3"/>
<g id="Calque_2">
	<rect x="-1" y="-1.6" fill="#DBDBDB" width="641.7" height="1135.4"/>
</g>
<rect x="-0.1" y="-2.7" fill="#25DDDF" width="640.1" height="242.3"/>
<path fill="#FFFFFF" d="M618.5,59"/>
<g>
	<defs>
		<path id="SVGID_1_" d="M379.7,9h19.6c1.7,0,3.1,1.4,3.1,3.1v7c0,1.7-1.4,3.1-3.1,3.1h-19.6c-1.7,0-3.1-1.4-3.1-3.1v-7
			C376.5,10.4,377.9,9,379.7,9z"/>
	</defs>
	<clipPath id="SVGID_2_">
		<use xlink:href="#SVGID_1_"  overflow="visible"/>
	</clipPath>
	<g clip-path="url(#SVGID_2_)">
		<defs>
			<rect id="SVGID_3_" x="-18" y="-11.3" width="440.4" height="51.7"/>
		</defs>
		<clipPath id="SVGID_4_">
			<use xlink:href="#SVGID_3_"  overflow="visible"/>
		</clipPath>
		<path opacity="0.35" clip-path="url(#SVGID_4_)" fill="none" stroke="#FFFFFF" stroke-width="2" stroke-miterlimit="10" d="
			M379.7,9h19.6c1.7,0,3.1,1.4,3.1,3.1v7c0,1.7-1.4,3.1-3.1,3.1h-19.6c-1.7,0-3.1-1.4-3.1-3.1v-7C376.5,10.4,377.9,9,379.7,9z"/>
	</g>
</g>
<g>
	<defs>
		<path id="SVGID_5_" d="M403.6,13.3V18c0.9-0.4,1.6-1.3,1.6-2.3S404.5,13.7,403.6,13.3"/>
	</defs>
	<clipPath id="SVGID_6_">
		<use xlink:href="#SVGID_5_"  overflow="visible"/>
	</clipPath>
	<g clip-path="url(#SVGID_6_)">
		<defs>
			<rect id="SVGID_7_" x="-18" y="-11.3" width="440.4" height="51.7"/>
		</defs>
		<clipPath id="SVGID_8_">
			<use xlink:href="#SVGID_7_"  overflow="visible"/>
		</clipPath>
		<rect x="397.7" y="7.5" opacity="0.4" clip-path="url(#SVGID_8_)" fill="#FFFFFF" width="13.3" height="16.4"/>
	</g>
</g>
<g>
	<defs>
		<path id="SVGID_9_" d="M380.5,11.4h18c0.9,0,1.6,0.7,1.6,1.6v5.5c0,0.9-0.7,1.6-1.6,1.6h-18c-0.9,0-1.6-0.7-1.6-1.6v-5.5
			C378.9,12.1,379.6,11.4,380.5,11.4z"/>
	</defs>
	<clipPath id="SVGID_10_">
		<use xlink:href="#SVGID_9_"  overflow="visible"/>
	</clipPath>
	<g clip-path="url(#SVGID_10_)">
		<defs>
			<rect id="SVGID_11_" x="-18" y="-11.3" width="440.4" height="51.7"/>
		</defs>
		<clipPath id="SVGID_12_">
			<use xlink:href="#SVGID_11_"  overflow="visible"/>
		</clipPath>
		<rect x="373" y="5.5" clip-path="url(#SVGID_12_)" fill="#FFFFFF" width="32.9" height="20.4"/>
	</g>
</g>
<g>
	<defs>
		<path id="SVGID_13_" d="M364.3,19.4c0.1-0.1,0.1-0.2,0.1-0.3c0-0.1,0-0.2-0.1-0.3c-1.5-1.3-3.7-1.3-5.2,0
			c-0.1,0.1-0.1,0.2-0.1,0.3c0,0.1,0,0.2,0.1,0.3l2.3,2.4c0.1,0.1,0.2,0.1,0.3,0.1c0.1,0,0.2,0,0.3-0.1L364.3,19.4z M361.7,16.2
			c1.4,0,2.8,0.5,3.9,1.5c0.1,0.1,0.4,0.1,0.5,0l1.4-1.4c0.1-0.1,0.1-0.2,0.1-0.3c0-0.1,0-0.2-0.1-0.3c-3.2-3-8.2-3-11.5,0
			c-0.1,0.1-0.1,0.2-0.1,0.3c0,0.1,0,0.2,0.1,0.3l1.4,1.4c0.1,0.1,0.4,0.1,0.5,0C358.9,16.7,360.2,16.2,361.7,16.2z M361.7,11.7
			c2.6,0,5.1,1,7,2.8c0.1,0.1,0.4,0.1,0.5,0l1.4-1.4c0.1-0.1,0.1-0.2,0.1-0.3c0-0.1,0-0.2-0.1-0.3c-4.9-4.7-12.8-4.7-17.7,0
			c-0.1,0.1-0.1,0.2-0.1,0.3c0,0.1,0,0.2,0.1,0.3l1.4,1.4c0.1,0.1,0.4,0.1,0.5,0C356.6,12.7,359.1,11.7,361.7,11.7z"/>
	</defs>
	<clipPath id="SVGID_14_">
		<use xlink:href="#SVGID_13_"  overflow="visible"/>
	</clipPath>
	<g clip-path="url(#SVGID_14_)">
		<defs>
			<rect id="SVGID_15_" x="-18" y="-11.3" width="440.4" height="51.7"/>
		</defs>
		<clipPath id="SVGID_16_">
			<use xlink:href="#SVGID_15_"  overflow="visible"/>
		</clipPath>
		<rect x="346.8" y="3.2" clip-path="url(#SVGID_16_)" fill="#FFFFFF" width="29.7" height="24.6"/>
	</g>
</g>
<g>
	<defs>
		<path id="SVGID_17_" d="M344.4,9.4h1.2c0.6,0,1.2,0.5,1.2,1.2v10.2c0,0.6-0.5,1.2-1.2,1.2h-1.2c-0.6,0-1.2-0.5-1.2-1.2V10.6
			C343.3,10,343.8,9.4,344.4,9.4z M339,12.2h1.2c0.6,0,1.2,0.5,1.2,1.2v7.4c0,0.6-0.5,1.2-1.2,1.2H339c-0.6,0-1.2-0.5-1.2-1.2v-7.4
			C337.8,12.7,338.3,12.2,339,12.2z M333.5,14.9h1.2c0.6,0,1.2,0.5,1.2,1.2v4.7c0,0.6-0.5,1.2-1.2,1.2h-1.2c-0.6,0-1.2-0.5-1.2-1.2
			v-4.7C332.3,15.4,332.8,14.9,333.5,14.9z M328,17.3h1.2c0.6,0,1.2,0.5,1.2,1.2v2.3c0,0.6-0.5,1.2-1.2,1.2H328
			c-0.6,0-1.2-0.5-1.2-1.2v-2.3C326.8,17.8,327.4,17.3,328,17.3z"/>
	</defs>
	<clipPath id="SVGID_18_">
		<use xlink:href="#SVGID_17_"  overflow="visible"/>
	</clipPath>
	<g clip-path="url(#SVGID_18_)">
		<defs>
			<rect id="SVGID_19_" x="-18" y="-11.3" width="440.4" height="51.7"/>
		</defs>
		<clipPath id="SVGID_20_">
			<use xlink:href="#SVGID_19_"  overflow="visible"/>
		</clipPath>
		<rect x="321" y="3.6" clip-path="url(#SVGID_20_)" fill="#FFFFFF" width="31.7" height="24.3"/>
	</g>
</g>
<g>
	<defs>
		<path id="SVGID_21_" d="M573.7,22.7h18c0.9,0,1.6,0.7,1.6,1.6v5.5c0,0.9-0.7,1.6-1.6,1.6h-18c-0.9,0-1.6-0.7-1.6-1.6v-5.5
			C572.1,23.4,572.8,22.7,573.7,22.7z"/>
	</defs>
	<clipPath id="SVGID_22_">
		<use xlink:href="#SVGID_21_"  overflow="visible"/>
	</clipPath>
	<g clip-path="url(#SVGID_22_)">
		<defs>
			<rect id="SVGID_23_" x="175.2" width="440.4" height="51.7"/>
		</defs>
		<clipPath id="SVGID_24_">
			<use xlink:href="#SVGID_23_"  overflow="visible"/>
		</clipPath>
		<rect x="566.2" y="16.8" clip-path="url(#SVGID_24_)" fill="#FFFFFF" width="32.9" height="20.4"/>
	</g>
</g>
<g>
	<defs>
		<path id="SVGID_25_" d="M557.5,30.8c0.1-0.1,0.1-0.2,0.1-0.3c0-0.1,0-0.2-0.1-0.3c-1.5-1.3-3.7-1.3-5.2,0
			c-0.1,0.1-0.1,0.2-0.1,0.3c0,0.1,0,0.2,0.1,0.3l2.3,2.4c0.1,0.1,0.2,0.1,0.3,0.1c0.1,0,0.2,0,0.3-0.1L557.5,30.8z M554.9,27.5
			c1.4,0,2.8,0.5,3.9,1.5c0.1,0.1,0.4,0.1,0.5,0l1.4-1.4c0.1-0.1,0.1-0.2,0.1-0.3c0-0.1,0-0.2-0.1-0.3c-3.2-3-8.2-3-11.5,0
			c-0.1,0.1-0.1,0.2-0.1,0.3c0,0.1,0,0.2,0.1,0.3l1.4,1.4c0.1,0.1,0.4,0.1,0.5,0C552.1,28,553.4,27.5,554.9,27.5z M554.9,23
			c2.6,0,5.1,1,7,2.8c0.1,0.1,0.4,0.1,0.5,0l1.4-1.4c0.1-0.1,0.1-0.2,0.1-0.3c0-0.1,0-0.2-0.1-0.3c-4.9-4.7-12.8-4.7-17.7,0
			c-0.1,0.1-0.1,0.2-0.1,0.3c0,0.1,0,0.2,0.1,0.3l1.4,1.4c0.1,0.1,0.4,0.1,0.5,0C549.8,24,552.3,23,554.9,23z"/>
	</defs>
	<clipPath id="SVGID_26_">
		<use xlink:href="#SVGID_25_"  overflow="visible"/>
	</clipPath>
	<g clip-path="url(#SVGID_26_)">
		<defs>
			<rect id="SVGID_27_" x="175.2" width="440.4" height="51.7"/>
		</defs>
		<clipPath id="SVGID_28_">
			<use xlink:href="#SVGID_27_"  overflow="visible"/>
		</clipPath>
		<rect x="540" y="14.5" clip-path="url(#SVGID_28_)" fill="#FFFFFF" width="29.7" height="24.6"/>
	</g>
</g>
<g>
	<defs>
		<path id="SVGID_29_" d="M537.7,20.7h1.2c0.6,0,1.2,0.5,1.2,1.2v10.2c0,0.6-0.5,1.2-1.2,1.2h-1.2c-0.6,0-1.2-0.5-1.2-1.2V21.9
			C536.5,21.3,537,20.7,537.7,20.7z M532.2,23.5h1.2c0.6,0,1.2,0.5,1.2,1.2v7.4c0,0.6-0.5,1.2-1.2,1.2h-1.2c-0.6,0-1.2-0.5-1.2-1.2
			v-7.4C531,24,531.5,23.5,532.2,23.5z M526.7,26.2h1.2c0.6,0,1.2,0.5,1.2,1.2v4.7c0,0.6-0.5,1.2-1.2,1.2h-1.2
			c-0.6,0-1.2-0.5-1.2-1.2v-4.7C525.5,26.8,526,26.2,526.7,26.2z M521.2,28.6h1.2c0.6,0,1.2,0.5,1.2,1.2v2.3c0,0.6-0.5,1.2-1.2,1.2
			h-1.2c-0.6,0-1.2-0.5-1.2-1.2v-2.3C520,29.1,520.6,28.6,521.2,28.6z"/>
	</defs>
	<clipPath id="SVGID_30_">
		<use xlink:href="#SVGID_29_"  overflow="visible"/>
	</clipPath>
	<g clip-path="url(#SVGID_30_)">
		<defs>
			<rect id="SVGID_31_" x="175.2" width="440.4" height="51.7"/>
		</defs>
		<clipPath id="SVGID_32_">
			<use xlink:href="#SVGID_31_"  overflow="visible"/>
		</clipPath>
		<rect x="514.2" y="14.9" clip-path="url(#SVGID_32_)" fill="#FFFFFF" width="31.7" height="24.3"/>
	</g>
</g>
<path fill="#FFFFFF" d="M464.6,55.1H176c-22.3,0-40.6-18.3-40.6-40.6V-4.5c0-22.3,18.3-40.6,40.6-40.6l288.6,0
	c22.3,0,40.6,18.3,40.6,40.6v19.1C505.2,36.9,486.9,55.1,464.6,55.1z"/>
<g>
	<path fill="#FFFFFF" d="M71.7,26.7c0,4.6-1.7,7.2-4.7,7.2c-2.7,0-4.5-2.5-4.5-7c0-4.6,2-7.1,4.7-7.1C70.1,19.8,71.7,22.3,71.7,26.7
		z M64.3,26.9c0,3.5,1.1,5.6,2.8,5.6c1.9,0,2.8-2.2,2.8-5.7c0-3.4-0.9-5.6-2.8-5.6C65.5,21.2,64.3,23.2,64.3,26.9z"/>
	<path fill="#FFFFFF" d="M74.5,32.3c0.4,0,0.9,0,1.5-0.1c1.1-0.1,2.1-0.6,2.9-1.3c0.9-0.8,1.6-2,1.8-3.6h-0.1
		c-0.8,0.9-1.8,1.5-3.2,1.5c-2.5,0-4-1.8-4-4.2c0-2.6,1.9-4.9,4.7-4.9s4.5,2.3,4.5,5.8c0,3-1,5.1-2.4,6.4c-1,1-2.5,1.7-4,1.8
		c-0.7,0.1-1.3,0.1-1.7,0.1V32.3z M75.1,24.5c0,1.7,1,2.9,2.6,2.9c1.2,0,2.2-0.6,2.7-1.4c0.1-0.2,0.2-0.4,0.2-0.7
		c0-2.3-0.9-4.1-2.8-4.1C76.3,21.2,75.1,22.6,75.1,24.5z"/>
	<path fill="#FFFFFF" d="M84.3,25.2c0-0.8,0.5-1.3,1.3-1.3s1.2,0.5,1.2,1.3c0,0.7-0.5,1.3-1.3,1.3C84.8,26.5,84.3,25.9,84.3,25.2z
		 M84.3,32.6c0-0.8,0.5-1.3,1.3-1.3s1.2,0.5,1.2,1.3c0,0.7-0.5,1.3-1.3,1.3C84.8,33.9,84.3,33.3,84.3,32.6z"/>
	<path fill="#FFFFFF" d="M94.2,33.6v-3.7h-6.3v-1.2L94,20h2v8.5h1.9v1.4H96v3.7H94.2z M94.2,28.5v-4.6c0-0.7,0-1.4,0.1-2.1h-0.1
		c-0.4,0.8-0.8,1.4-1.1,2l-3.3,4.6v0H94.2z"/>
	<path fill="#FFFFFF" d="M103.3,21.7L103.3,21.7l-2.4,1.3l-0.4-1.4l3-1.6h1.6v13.6h-1.8V21.7z"/>
</g>
<g>
	<g>
		<polygon fill="#25DDDF" points="247.7,589 247.7,542.1 225.7,542.1 225.7,589 218,589 236.7,611.4 255.1,589 		"/>
	</g>
	<g>
		<path fill="#FFFFFF" stroke="#FFFFFF" stroke-miterlimit="10" d="M221.9,510.3h-64.3c-0.6,0-1,0.4-1,1c0,0.6,0.4,1,1,1h63.7
			C221.4,511.7,221.5,511,221.9,510.3z"/>
		<path fill="#FFFFFF" stroke="#FFFFFF" stroke-miterlimit="10" d="M345,510.3h-93.5c0.2,0.7,0.3,1.4,0.1,2.1H345c0.6,0,1-0.4,1-1
			C346,510.7,345.6,510.3,345,510.3z"/>
	</g>
	<g>
		<path fill="#FFFFFF" stroke="#FFFFFF" stroke-miterlimit="10" d="M329.4,530.5H140.7c-0.6,0-1-0.4-1-1s0.4-1,1-1h188.6
			c0.6,0,1,0.4,1,1S330,530.5,329.4,530.5z"/>
	</g>
	<g>
		<path fill="#FFFFFF" stroke="#FFFFFF" stroke-miterlimit="10" d="M313.4,549.8H124.2c-0.6,0-1-0.4-1-1c0-0.6,0.4-1,1-1h189.2
			c0.6,0,1,0.4,1,1C314.4,549.2,314,549.8,313.4,549.8z"/>
	</g>
	<g>
		<path fill="#FFFFFF" stroke="#FFFFFF" stroke-miterlimit="10" d="M136.4,560.4c-0.2,0-0.6,0-0.6-0.2c-0.4-0.4-0.4-1,0-1.5
			l59.8-59.8c0.4-0.4,1-0.4,1.5,0c0.5,0.4,0.4,1,0,1.5l-59.8,59.8C137.1,560.4,136.9,560.4,136.4,560.4z"/>
	</g>
	<g>
		<path fill="#FFFFFF" stroke="#FFFFFF" stroke-miterlimit="10" d="M221.4,507.7l-50.9,50.9c-0.4,0.4-0.4,1,0,1.5
			c0,0.2,0.4,0.2,0.6,0.2c0.2,0,0.4,0,0.8-0.2l50.5-50.5C221.9,509.1,221.6,508.5,221.4,507.7z"/>
	</g>
	<g>
		<path fill="#FFFFFF" stroke="#FFFFFF" stroke-miterlimit="10" d="M245.2,518.6l-40.1,40.1c-0.4,0.4-0.4,1,0,1.5
			c0,0.2,0.4,0.2,0.6,0.2s0.4,0,0.6-0.2l40.7-40.6C246.2,519.5,245.6,519.1,245.2,518.6z"/>
		<path fill="#FFFFFF" stroke="#FFFFFF" stroke-miterlimit="10" d="M266.3,499c-0.4-0.4-1-0.4-1.5,0l-14.1,14.1
			c0.5,0.5,0.8,1.2,0.9,1.9l14.7-14.6C266.7,500,266.7,499.4,266.3,499z"/>
	</g>
	<g>
		<path fill="#FFFFFF" stroke="#FFFFFF" stroke-miterlimit="10" d="M240.1,560.4c-0.2,0-0.6,0-0.6-0.2c-0.4-0.4-0.4-1,0-1.5
			l59.8-59.8c0.4-0.4,1-0.4,1.5,0c0.5,0.4,0.4,1,0,1.5L241,560.1C240.8,560.4,240.3,560.4,240.1,560.4z"/>
	</g>
	<g>
		<path fill="#FFFFFF" stroke="#FFFFFF" stroke-miterlimit="10" d="M274.8,560.4c-0.2,0-0.6,0-0.6-0.2c-0.4-0.4-0.4-1,0-1.5
			l59.8-59.8c0.4-0.4,1-0.4,1.5,0c0.4,0.4,0.4,1,0,1.5l-59.8,59.8C275.2,560.4,275,560.4,274.8,560.4z"/>
	</g>
	<g>
		<rect x="151.3" y="355.2" fill="#FECBA7" stroke="#FFFFFF" stroke-miterlimit="10" width="170.6" height="16.2"/>
		<path fill="#FECBA7" stroke="#FFFFFF" stroke-miterlimit="10" d="M321.9,372.7H151.3c-0.6,0-1-0.4-1-1v-16.2c0-0.6,0.4-1,1-1
			h170.6c0.6,0,1,0.4,1,1v16.2C322.9,372.1,322.3,372.7,321.9,372.7z M152.4,370.6h168.5v-14.1H152.4V370.6z"/>
	</g>
	<g>
		<path fill="none" stroke="#FFFFFF" stroke-width="4" stroke-miterlimit="10" d="M250.1,520.3h-27.4c-0.6,0-1-0.4-1-1v-49.4
			c-62.7-42.1-71.4-96.1-71.4-96.7c0-0.2,0-0.6,0.2-0.8c0.2-0.2,0.4-0.4,0.8-0.4h170.6c0.2,0,0.6,0.2,0.8,0.4
			c0.2,0.2,0.2,0.6,0.2,0.8c0,0.6-8.7,54.6-71.8,96.9v49.2C251.1,519.9,250.7,520.3,250.1,520.3z"/>
	</g>
	<g>
		<path fill="#FFFFFF" stroke="#FFFFFF" stroke-miterlimit="10" d="M263.4,447.3c-0.2,0-0.6-0.2-0.8-0.4c-0.4-0.4-0.4-1,0-1.5
			c30.7-28.8,39.2-54.4,39.4-54.6c0.2-0.6,0.8-0.8,1.3-0.6c0.6,0.2,0.8,0.8,0.6,1.3c0,0.2-8.9,26.1-39.8,55.4
			C264,447.1,263.6,447.3,263.4,447.3z"/>
	</g>
</g>
<linearGradient id="SVGID_33_" gradientUnits="userSpaceOnUse" x1="580.3585" y1="610.0339" x2="580.3585" y2="755.4683" gradientTransform="matrix(1 0 0 -1 -149.37 1037.75)">
	<stop  offset="0" style="stop-color:#808080;stop-opacity:0.25"/>
	<stop  offset="0.54" style="stop-color:#808080;stop-opacity:0.12"/>
	<stop  offset="1" style="stop-color:#808080;stop-opacity:0.1"/>
</linearGradient>
<path fill="url(#SVGID_33_)" d="M503.2,282.3l-170.5,55.6l26.1,80.3l24.3-7.9c0.1,3.5-0.1,14.6-5.7,17.4c0,0,11.9,0.4,19.3-21.8
	l132.6-43.3L503.2,282.3z"/>
<path fill="#25DDDF" d="M499.5,286.3L338,339l24.7,76l23-7.5c0.1,3.4-0.1,13.9-5.4,16.5c0,0,11.3,0.4,18.2-20.7l125.6-41
	L499.5,286.3z"/>
<line fill="none" stroke="#FFFFFF" stroke-linecap="round" stroke-linejoin="round" x1="354.1" y1="343.2" x2="354.1" y2="343.2"/>
<line fill="none" stroke="#FFFFFF" stroke-linecap="round" stroke-linejoin="round" stroke-dasharray="0,4.07" x1="354.9" y1="345.7" x2="371" y2="395.1"/>
<line fill="none" stroke="#FFFFFF" stroke-linecap="round" stroke-linejoin="round" x1="372.6" y1="401.8" x2="506.5" y2="358.1"/>
<line opacity="0.3" fill="none" stroke="#FFFFFF" stroke-linecap="round" stroke-linejoin="round" enable-background="new    " x1="375.6" y1="385.1" x2="488.6" y2="348.2"/>
<line opacity="0.3" fill="none" stroke="#FFFFFF" stroke-linecap="round" stroke-linejoin="round" enable-background="new    " x1="371" y1="370.8" x2="484" y2="333.9"/>
<line opacity="0.3" fill="none" stroke="#FFFFFF" stroke-linecap="round" stroke-linejoin="round" enable-background="new    " x1="366.3" y1="356.5" x2="479.3" y2="319.7"/>
<line opacity="0.3" fill="none" stroke="#FFFFFF" stroke-linecap="round" stroke-linejoin="round" enable-background="new    " x1="361.7" y1="342.3" x2="474.7" y2="305.4"/>
<path opacity="0.2" fill="#FFFFFF" enable-background="new    " d="M398.7,379c0-0.2-0.1-0.4,0-0.7c0.1-1.9,1.5-3.4,3.4-3.7l0.5-0.1
	c3.2-0.8,6.4-2,8.6-4.4c3.4-3.9,3-9.9,2.4-14.7c-0.2-1.5,0-3.1,0.6-4.5c2.1-4.6,6.7-3.4,10.6-3.6c6.7-0.5,12.3-5.4,13.6-12
	c0.5-2.8,0.2-5.6,0.6-8.4c0.6-3.8,2.4-7.3,5.3-9.9c2.9-2.6,6.8-4.1,10.4-5.4c2.9-1,6-1.5,9.1-1.5h0.2c5.3,0.2,10.1,3.6,11.9,8.6
	c0.8,2.1,1.5,4.3,2.2,6.5c4,12.4,7.7,23.8,12.4,38.1c-5.7,1.8-19.1,6.2-20.9,6.8l-19.9,6.5c-13.3,4.3-26,8.9-40.8,13.3
	c-3.1,0.9,0,0-6.6,2.2C400.9,388.6,400.8,388.4,398.7,379z"/>
<linearGradient id="SVGID_34_" gradientUnits="userSpaceOnUse" x1="165.6687" y1="38.2345" x2="165.6687" y2="144.8856" gradientTransform="matrix(1 0 0 -1 0 1138)">
	<stop  offset="0" style="stop-color:#808080;stop-opacity:0.25"/>
	<stop  offset="0.54" style="stop-color:#808080;stop-opacity:0.12"/>
	<stop  offset="1" style="stop-color:#808080;stop-opacity:0.1"/>
</linearGradient>
<rect x="110.2" y="993.1" fill="url(#SVGID_34_)" width="111" height="106.7"/>
<rect x="111.9" y="995.7" fill="#F5F5F5" width="107.5" height="101.9"/>
<g opacity="0.5">
	
		<linearGradient id="SVGID_35_" gradientUnits="userSpaceOnUse" x1="318.1687" y1="32.2339" x2="318.1687" y2="63.141" gradientTransform="matrix(1 0 0 -1 -152.5 1071.5)">
		<stop  offset="0" style="stop-color:#808080;stop-opacity:0.25"/>
		<stop  offset="0.54" style="stop-color:#808080;stop-opacity:0.12"/>
		<stop  offset="1" style="stop-color:#808080;stop-opacity:0.1"/>
	</linearGradient>
	<path fill="url(#SVGID_35_)" d="M175.2,1013.6v-5.2h-19v5.2h-13.3v25.7h45.6v-25.7H175.2z M158.5,1010.3h14.3v3.3h-14.3V1010.3z"/>
</g>
<rect x="144.8" y="1014.4" opacity="0.6" fill="#25DDDF" enable-background="new    " width="41.8" height="23.5"/>
<polygon opacity="0.6" fill="#25DDDF" enable-background="new    " points="157,1009.7 157,1015.8 159.1,1015.8 159.1,1011.4 
	172.2,1011.4 172.2,1015.8 174.4,1015.8 174.4,1009.7 "/>
<g opacity="0.6">
	<rect x="147.2" y="1056.2" fill="#25DDDF" width="38.7" height="5.2"/>
</g>
<rect x="132.6" y="1065.8" fill="#BDBDBD" width="66.2" height="5.2"/>
<linearGradient id="SVGID_36_" gradientUnits="userSpaceOnUse" x1="304.7505" y1="38.2345" x2="304.7505" y2="147.9328" gradientTransform="matrix(1 0 0 -1 0 1138)">
	<stop  offset="0" style="stop-color:#808080;stop-opacity:0.25"/>
	<stop  offset="0.54" style="stop-color:#808080;stop-opacity:0.12"/>
	<stop  offset="1" style="stop-color:#808080;stop-opacity:0.1"/>
</linearGradient>
<rect x="249.5" y="990.1" fill="url(#SVGID_36_)" width="110.6" height="109.7"/>
<rect x="251.2" y="995.7" fill="#F5F5F5" width="107.5" height="101.9"/>
<g opacity="0.5">
	
		<linearGradient id="SVGID_37_" gradientUnits="userSpaceOnUse" x1="457.4681" y1="32.2339" x2="457.4681" y2="63.141" gradientTransform="matrix(1 0 0 -1 -152.5 1071.5)">
		<stop  offset="0" style="stop-color:#808080;stop-opacity:0.25"/>
		<stop  offset="0.54" style="stop-color:#808080;stop-opacity:0.12"/>
		<stop  offset="1" style="stop-color:#808080;stop-opacity:0.1"/>
	</linearGradient>
	<path fill="url(#SVGID_37_)" d="M314.5,1013.6v-5.2h-19v5.2h-13.3v25.7h45.6v-25.7H314.5z M297.8,1010.3h14.3v3.3h-14.3V1010.3z"/>
</g>
<rect x="284.1" y="1014.4" opacity="0.6" fill="#25DDDF" enable-background="new    " width="41.8" height="23.5"/>
<polygon fill="#25DDDF" points="296.3,1009.7 296.3,1015.8 298.4,1015.8 298.4,1011.4 311.5,1011.4 311.5,1015.8 313.7,1015.8 
	313.7,1009.7 "/>
<g opacity="0.6">
	<rect x="286.5" y="1056.2" fill="#25DDDF" width="38.7" height="5.2"/>
</g>
<rect x="271.9" y="1065.8" fill="#BDBDBD" width="66.2" height="5.2"/>
<linearGradient id="SVGID_38_" gradientUnits="userSpaceOnUse" x1="444.2676" y1="38.2345" x2="444.2676" y2="144.015" gradientTransform="matrix(1 0 0 -1 0 1138)">
	<stop  offset="0" style="stop-color:#808080;stop-opacity:0.25"/>
	<stop  offset="0.54" style="stop-color:#808080;stop-opacity:0.12"/>
	<stop  offset="1" style="stop-color:#808080;stop-opacity:0.1"/>
</linearGradient>
<rect x="388.8" y="994" fill="url(#SVGID_38_)" width="111" height="105.8"/>
<rect x="390.5" y="995.7" fill="#F5F5F5" width="107.5" height="101.9"/>
<g opacity="0.5">
	
		<linearGradient id="SVGID_39_" gradientUnits="userSpaceOnUse" x1="596.7676" y1="32.2339" x2="596.7676" y2="63.141" gradientTransform="matrix(1 0 0 -1 -152.5 1071.5)">
		<stop  offset="0" style="stop-color:#808080;stop-opacity:0.25"/>
		<stop  offset="0.54" style="stop-color:#808080;stop-opacity:0.12"/>
		<stop  offset="1" style="stop-color:#808080;stop-opacity:0.1"/>
	</linearGradient>
	<path fill="url(#SVGID_39_)" d="M453.8,1013.6v-5.2h-19v5.2h-13.3v25.7h45.6v-25.7H453.8z M437.1,1010.3h14.3v3.3h-14.3V1010.3z"/>
</g>
<rect x="423.4" y="1014.4" opacity="0.6" fill="#25DDDF" enable-background="new    " width="41.8" height="23.5"/>
<polygon opacity="0.6" fill="#25DDDF" enable-background="new    " points="435.6,1009.7 435.6,1015.8 437.7,1015.8 437.7,1011.4 
	450.8,1011.4 450.8,1015.8 453,1015.8 453,1009.7 "/>
<g opacity="0.6">
	<rect x="425.8" y="1056.2" fill="#25DDDF" width="38.7" height="5.2"/>
</g>
<rect x="411.2" y="1065.8" fill="#BDBDBD" width="66.2" height="5.2"/>
<g opacity="0.5">
	
		<linearGradient id="SVGID_40_" gradientUnits="userSpaceOnUse" x1="311.7177" y1="113.1079" x2="311.7177" y2="372.1178" gradientTransform="matrix(1 0 0 -1 0 1138)">
		<stop  offset="0" style="stop-color:#808080;stop-opacity:0.25"/>
		<stop  offset="0.54" style="stop-color:#808080;stop-opacity:0.12"/>
		<stop  offset="1" style="stop-color:#808080;stop-opacity:0.1"/>
	</linearGradient>
	<rect x="201.5" y="765.9" fill="url(#SVGID_40_)" width="220.4" height="259"/>
</g>
<rect x="208.3" y="770.1" fill="#FFFFFF" width="209" height="249.1"/>
<g opacity="0.5">
	
		<linearGradient id="SVGID_41_" gradientUnits="userSpaceOnUse" x1="465.258" y1="231.0926" x2="465.258" y2="268.0941" gradientTransform="matrix(1 0 0 -1 -152.5 1071.5)">
		<stop  offset="0" style="stop-color:#808080;stop-opacity:0.25"/>
		<stop  offset="0.54" style="stop-color:#808080;stop-opacity:0.12"/>
		<stop  offset="1" style="stop-color:#808080;stop-opacity:0.1"/>
	</linearGradient>
	<path fill="url(#SVGID_41_)" d="M324.1,809.7v-6.3h-22.7v6.3h-15.9v30.7h54.6v-30.7H324.1z M304.2,805.7h17.1v4h-17.1L304.2,805.7z
		"/>
</g>
<rect x="287.7" y="810.7" fill="#25DDDF" width="50" height="28.1"/>
<polygon fill="#25DDDF" points="302.3,805 302.3,812.3 304.9,812.3 304.9,807.1 320.6,807.1 320.6,812.3 323.2,812.3 323.2,805 "/>
<rect x="239.5" y="879.3" fill="#E0E0E0" width="147" height="6.3"/>
<rect x="239.5" y="920.5" fill="#E0E0E0" width="147" height="6.3"/>
<rect x="239.5" y="931.5" fill="#E0E0E0" width="147" height="6.3"/>
<rect x="239.5" y="909.6" fill="#E0E0E0" width="62" height="6.3"/>
<rect x="340.1" y="909.6" opacity="0.6" fill="#3AD29F" enable-background="new    " width="46.4" height="6.3"/>
<rect x="291.1" y="957" fill="#25DDDF" width="46.4" height="6.3"/>
<g opacity="0.5">
	
		<linearGradient id="SVGID_42_" gradientUnits="userSpaceOnUse" x1="205.0643" y1="287.6675" x2="205.0643" y2="329.4574" gradientTransform="matrix(1 0 0 -1 0 1138)">
		<stop  offset="0" style="stop-color:#808080;stop-opacity:0.25"/>
		<stop  offset="0.54" style="stop-color:#808080;stop-opacity:0.12"/>
		<stop  offset="1" style="stop-color:#808080;stop-opacity:0.1"/>
	</linearGradient>
	<circle fill="url(#SVGID_42_)" cx="205.1" cy="829.4" r="20.9"/>
</g>
<circle fill="#69F0AE" cx="205.1" cy="829.4" r="19.7"/>
<polygon fill="#FFFFFF" points="196.8,826.5 204.2,833.2 214.6,817.9 218.3,820.9 204.2,839.4 193.7,827.7 "/>
<circle fill="#FFFFFF" cx="47.4" cy="720.9" r="24.4"/>
<g>
	<path fill="#25DDDF" d="M57.6,731.5c0.6,0,1.1,0.2,1.5,0.5c0.4,0.4,0.6,0.8,0.6,1.4v3.6H35.9v-2c0-0.4,0.1-0.8,0.3-1.3
		c0.2-0.4,0.4-0.8,0.8-1.2L47.5,722c0.9-0.9,1.7-1.8,2.4-2.6c0.7-0.8,1.3-1.6,1.7-2.4c0.5-0.8,0.8-1.6,1.1-2.4s0.4-1.7,0.4-2.6
		c0-0.8-0.1-1.6-0.4-2.2s-0.6-1.2-1-1.6c-0.4-0.4-1-0.8-1.6-1c-0.6-0.2-1.3-0.3-2.1-0.3c-0.7,0-1.4,0.1-2,0.3
		c-0.6,0.2-1.1,0.5-1.6,0.8c-0.5,0.4-0.9,0.8-1.2,1.3c-0.3,0.5-0.6,1-0.7,1.6c-0.3,0.7-0.6,1.2-1.1,1.5c-0.4,0.2-1.1,0.3-1.9,0.2
		l-3.1-0.6c0.2-1.7,0.7-3.1,1.4-4.4c0.7-1.3,1.5-2.3,2.6-3.1c1-0.8,2.2-1.5,3.6-1.9c1.3-0.4,2.8-0.6,4.3-0.6c1.6,0,3.1,0.2,4.4,0.7
		s2.5,1.1,3.4,2c0.9,0.9,1.7,1.9,2.2,3.1s0.8,2.6,0.8,4.1c0,1.3-0.2,2.5-0.6,3.6c-0.4,1.1-0.9,2.1-1.5,3.1s-1.4,2-2.2,2.9
		c-0.8,0.9-1.7,1.9-2.7,2.8l-7.8,8c0.8-0.2,1.5-0.4,2.2-0.5c0.7-0.1,1.5-0.2,2.1-0.2H57.6z"/>
	<path fill="#25DDDF" d="M117.1,715.7c1-1.1,2.2-2.1,3.4-2.8c1.3-0.7,2.8-1.1,4.5-1.1c1.3,0,2.6,0.3,3.7,0.8
		c1.1,0.6,2.1,1.4,2.9,2.4c0.8,1.1,1.4,2.4,1.9,3.9c0.4,1.6,0.7,3.3,0.7,5.4c0,1.8-0.2,3.5-0.7,5.1c-0.5,1.6-1.2,2.9-2.1,4.1
		c-0.9,1.2-2,2.1-3.3,2.7c-1.3,0.6-2.8,1-4.4,1c-1.4,0-2.6-0.2-3.5-0.6c-1-0.4-1.8-1-2.6-1.8V745h-5.9v-32.7h3.6
		c0.8,0,1.3,0.4,1.5,1.1L117.1,715.7z M117.4,730.6c0.7,0.8,1.4,1.4,2.2,1.7c0.8,0.3,1.7,0.5,2.6,0.5c0.9,0,1.7-0.2,2.4-0.5
		c0.7-0.3,1.3-0.8,1.8-1.5c0.5-0.7,0.9-1.6,1.2-2.6c0.3-1,0.4-2.3,0.4-3.7c0-1.4-0.1-2.7-0.3-3.7c-0.2-1-0.6-1.8-1-2.4
		s-1-1.1-1.6-1.4c-0.6-0.3-1.3-0.4-2.1-0.4c-1.2,0-2.3,0.3-3.1,0.8c-0.9,0.5-1.7,1.3-2.4,2.2V730.6z"/>
	<path fill="#25DDDF" d="M149.6,712c1.8,0,3.5,0.3,5,0.9c1.5,0.6,2.8,1.4,3.8,2.5c1.1,1.1,1.9,2.4,2.5,4s0.9,3.3,0.9,5.3
		c0,2-0.3,3.7-0.9,5.3s-1.4,2.9-2.5,4c-1.1,1.1-2.3,2-3.8,2.5c-1.5,0.6-3.2,0.9-5,0.9c-1.8,0-3.5-0.3-5-0.9
		c-1.5-0.6-2.8-1.4-3.9-2.5c-1.1-1.1-1.9-2.4-2.5-4s-0.9-3.3-0.9-5.3c0-1.9,0.3-3.7,0.9-5.3s1.4-2.9,2.5-4c1.1-1.1,2.3-1.9,3.9-2.5
		C146.1,712.3,147.8,712,149.6,712z M149.6,732.8c2,0,3.6-0.7,4.5-2.1c1-1.4,1.5-3.4,1.5-6c0-2.7-0.5-4.7-1.5-6.1
		c-1-1.4-2.5-2.1-4.5-2.1c-2.1,0-3.6,0.7-4.6,2.1s-1.5,3.4-1.5,6.1c0,2.6,0.5,4.7,1.5,6S147.6,732.8,149.6,732.8z"/>
	<path fill="#25DDDF" d="M174.1,737.4c-2.1,0-3.8-0.6-4.9-1.8c-1.1-1.2-1.7-2.9-1.7-5v-13.8h-2.5c-0.3,0-0.6-0.1-0.8-0.3
		c-0.2-0.2-0.3-0.5-0.3-0.9v-2.4l4-0.6l1.2-6.7c0.1-0.3,0.2-0.6,0.5-0.7c0.2-0.2,0.5-0.3,0.9-0.3h3.1v7.8h6.6v4.2h-6.6v13.3
		c0,0.8,0.2,1.4,0.6,1.8c0.4,0.4,0.9,0.6,1.5,0.6c0.4,0,0.7,0,0.9-0.1s0.5-0.2,0.6-0.3c0.2-0.1,0.3-0.2,0.5-0.3
		c0.1-0.1,0.3-0.1,0.4-0.1c0.2,0,0.3,0,0.4,0.1s0.2,0.2,0.4,0.4l1.8,2.9c-0.9,0.7-1.9,1.3-3,1.6
		C176.4,737.2,175.3,737.4,174.1,737.4z"/>
	<path fill="#25DDDF" d="M188.1,725.4c0.1,1.3,0.3,2.4,0.7,3.3s0.8,1.7,1.4,2.3c0.6,0.6,1.3,1,2.1,1.3s1.7,0.4,2.6,0.4
		s1.8-0.1,2.5-0.3c0.7-0.2,1.3-0.5,1.8-0.7c0.5-0.3,1-0.5,1.4-0.7c0.4-0.2,0.8-0.3,1.1-0.3c0.5,0,0.9,0.2,1.1,0.6l1.7,2.2
		c-0.7,0.8-1.4,1.4-2.2,1.9c-0.8,0.5-1.7,0.9-2.6,1.2c-0.9,0.3-1.8,0.5-2.7,0.7c-0.9,0.1-1.8,0.2-2.7,0.2c-1.7,0-3.3-0.3-4.8-0.9
		c-1.5-0.6-2.8-1.4-3.8-2.5c-1.1-1.1-1.9-2.5-2.6-4.1c-0.6-1.6-0.9-3.5-0.9-5.7c0-1.7,0.3-3.3,0.8-4.7s1.3-2.8,2.3-3.9
		c1-1.1,2.3-2,3.7-2.6c1.5-0.6,3.1-1,5-1c1.6,0,3,0.2,4.3,0.7c1.3,0.5,2.4,1.2,3.4,2.2c0.9,1,1.7,2.1,2.2,3.5s0.8,3,0.8,4.7
		c0,0.9-0.1,1.5-0.3,1.8c-0.2,0.3-0.6,0.5-1.1,0.5H188.1z M199.4,721.9c0-0.8-0.1-1.5-0.3-2.2c-0.2-0.7-0.5-1.3-1-1.8
		c-0.4-0.5-1-0.9-1.6-1.2c-0.7-0.3-1.4-0.4-2.3-0.4c-1.7,0-3.1,0.5-4,1.5c-1,1-1.6,2.4-1.9,4.2H199.4z"/>
	<path fill="#25DDDF" d="M214.7,715.4c0.5-0.5,1-1,1.6-1.4c0.6-0.4,1.1-0.8,1.8-1.1c0.6-0.3,1.3-0.5,2-0.7s1.5-0.3,2.3-0.3
		c1.3,0,2.5,0.2,3.6,0.7s1.9,1.1,2.6,1.9c0.7,0.8,1.2,1.8,1.6,3c0.4,1.1,0.5,2.4,0.5,3.8V737h-5.9v-15.7c0-1.5-0.3-2.7-1-3.5
		c-0.7-0.8-1.7-1.2-3.1-1.2c-1,0-2,0.2-2.9,0.7c-0.9,0.5-1.7,1.1-2.5,1.9V737h-5.9v-24.6h3.6c0.8,0,1.3,0.4,1.5,1.1L214.7,715.4z"/>
	<path fill="#25DDDF" d="M260.7,737h-5.9v-20.2h-11.4v13.3c0,0.8,0.2,1.4,0.6,1.8c0.4,0.4,0.9,0.6,1.5,0.6c0.4,0,0.7,0,0.9-0.1
		s0.5-0.2,0.6-0.3c0.2-0.1,0.3-0.2,0.5-0.3c0.1-0.1,0.3-0.1,0.4-0.1c0.2,0,0.3,0,0.4,0.1s0.2,0.2,0.4,0.4l1.8,2.9
		c-0.9,0.7-1.9,1.3-3,1.6c-1.1,0.4-2.3,0.6-3.5,0.6c-2.1,0-3.8-0.6-4.9-1.8c-1.1-1.2-1.7-2.9-1.7-5v-13.8h-2.5
		c-0.3,0-0.6-0.1-0.8-0.3c-0.2-0.2-0.3-0.5-0.3-0.9v-2.4l4-0.7l1.2-6.7c0.1-0.3,0.2-0.6,0.5-0.7c0.2-0.2,0.5-0.3,0.9-0.3h3.1v7.8
		h17.4V737z M261.8,705.1c0,0.5-0.1,1-0.3,1.5s-0.5,0.9-0.8,1.2s-0.8,0.6-1.2,0.8c-0.5,0.2-1,0.3-1.5,0.3c-0.5,0-1-0.1-1.4-0.3
		s-0.8-0.5-1.2-0.8s-0.6-0.7-0.8-1.2c-0.2-0.5-0.3-0.9-0.3-1.5c0-0.5,0.1-1,0.3-1.5c0.2-0.5,0.5-0.9,0.8-1.2
		c0.3-0.3,0.7-0.6,1.2-0.8c0.4-0.2,0.9-0.3,1.4-0.3c0.5,0,1,0.1,1.5,0.3c0.5,0.2,0.9,0.5,1.2,0.8c0.3,0.3,0.6,0.7,0.8,1.2
		S261.8,704.6,261.8,705.1z"/>
	<path fill="#25DDDF" d="M266.2,715.8c2.8-2.6,6.2-3.9,10.2-3.9c1.4,0,2.7,0.2,3.9,0.7c1.1,0.5,2.1,1.1,2.9,2c0.8,0.8,1.4,1.8,1.8,3
		c0.4,1.2,0.6,2.4,0.6,3.8V737h-2.7c-0.6,0-1-0.1-1.3-0.3c-0.3-0.2-0.5-0.5-0.7-1l-0.5-1.8c-0.6,0.6-1.2,1.1-1.8,1.5
		s-1.2,0.8-1.8,1.1c-0.6,0.3-1.3,0.5-2.1,0.7c-0.7,0.2-1.5,0.2-2.4,0.2c-1,0-2-0.1-2.9-0.4c-0.9-0.3-1.6-0.7-2.3-1.3
		c-0.6-0.6-1.1-1.3-1.5-2.1s-0.5-1.8-0.5-2.9c0-0.6,0.1-1.2,0.3-1.9c0.2-0.6,0.5-1.2,1-1.8c0.5-0.6,1.1-1.1,1.8-1.6
		c0.8-0.5,1.7-0.9,2.8-1.3s2.4-0.7,3.8-0.9c1.5-0.2,3.1-0.4,5-0.4v-1.4c0-1.6-0.4-2.9-1.1-3.7s-1.7-1.2-3-1.2c-1,0-1.8,0.1-2.4,0.3
		c-0.6,0.2-1.2,0.5-1.7,0.8c-0.5,0.3-0.9,0.5-1.3,0.8c-0.4,0.2-0.8,0.3-1.3,0.3c-0.4,0-0.8-0.1-1.1-0.3s-0.5-0.5-0.7-0.8
		L266.2,715.8z M279.8,726.5c-1.7,0.1-3.2,0.2-4.3,0.4s-2.1,0.5-2.8,0.8c-0.7,0.3-1.2,0.7-1.5,1.2c-0.3,0.4-0.5,0.9-0.5,1.5
		c0,1,0.3,1.8,0.9,2.2c0.6,0.4,1.4,0.7,2.4,0.7c1.2,0,2.3-0.2,3.2-0.7c0.9-0.4,1.8-1.1,2.6-2V726.5z"/>
	<path fill="#25DDDF" d="M297.1,701.3V737h-5.9v-35.7H297.1z"/>
	<path fill="#25DDDF" d="M316.5,737v-20.2l-2.1-0.3c-0.5-0.1-0.8-0.3-1.1-0.5c-0.3-0.2-0.4-0.6-0.4-1v-2.4h3.7v-0.8
		c0-1.5,0.2-2.9,0.7-4.2c0.5-1.3,1.2-2.4,2.3-3.3c1-0.9,2.3-1.7,3.8-2.2s3.4-0.8,5.5-0.8c0.7,0,1.4,0,2.1,0.1
		c0.7,0.1,1.3,0.2,1.8,0.3l-0.2,3.1c0,0.4-0.2,0.6-0.6,0.7s-0.8,0.1-1.4,0.1c-1.6,0-2.9,0.1-3.9,0.4c-1,0.3-1.9,0.7-2.5,1.2
		c-0.6,0.5-1.1,1.2-1.4,2s-0.4,1.7-0.4,2.8v0.6h15.3V737h-5.9v-20.2h-9.1V737H316.5z"/>
	<path fill="#25DDDF" d="M365.5,737h-5.7c-0.4,0-0.8-0.1-1-0.3c-0.3-0.2-0.5-0.5-0.7-0.8l-5.2-8.6c-0.1,0.3-0.2,0.5-0.3,0.8
		c-0.1,0.2-0.2,0.5-0.3,0.7l-4.6,7.1c-0.2,0.3-0.4,0.5-0.6,0.8c-0.3,0.2-0.6,0.3-1,0.3h-5.3l8.4-12.7l-8.1-11.9h5.7
		c0.4,0,0.8,0.1,1,0.2s0.4,0.3,0.6,0.6l5.2,8.2c0.2-0.5,0.4-1.1,0.7-1.6l4.2-6.5c0.4-0.6,0.8-0.9,1.4-0.9h5.4l-8.1,11.7L365.5,737z"
		/>
	<path fill="#25DDDF" d="M372.1,725.4c0.1,1.3,0.3,2.4,0.7,3.3s0.8,1.7,1.4,2.3c0.6,0.6,1.3,1,2.1,1.3s1.7,0.4,2.6,0.4
		s1.8-0.1,2.5-0.3c0.7-0.2,1.3-0.5,1.8-0.7c0.5-0.3,1-0.5,1.4-0.7c0.4-0.2,0.8-0.3,1.1-0.3c0.5,0,0.9,0.2,1.1,0.6l1.7,2.2
		c-0.7,0.8-1.4,1.4-2.2,1.9c-0.8,0.5-1.7,0.9-2.6,1.2c-0.9,0.3-1.8,0.5-2.7,0.7c-0.9,0.1-1.8,0.2-2.7,0.2c-1.7,0-3.3-0.3-4.8-0.9
		c-1.5-0.6-2.8-1.4-3.8-2.5c-1.1-1.1-1.9-2.5-2.6-4.1c-0.6-1.6-0.9-3.5-0.9-5.7c0-1.7,0.3-3.3,0.8-4.7s1.3-2.8,2.3-3.9
		c1-1.1,2.3-2,3.7-2.6c1.5-0.6,3.1-1,5-1c1.6,0,3,0.2,4.3,0.7c1.3,0.5,2.4,1.2,3.4,2.2c0.9,1,1.7,2.1,2.2,3.5s0.8,3,0.8,4.7
		c0,0.9-0.1,1.5-0.3,1.8c-0.2,0.3-0.6,0.5-1.1,0.5H372.1z M383.4,721.9c0-0.8-0.1-1.5-0.3-2.2c-0.2-0.7-0.5-1.3-1-1.8
		c-0.4-0.5-1-0.9-1.6-1.2c-0.7-0.3-1.4-0.4-2.3-0.4c-1.7,0-3.1,0.5-4,1.5c-1,1-1.6,2.4-1.9,4.2H383.4z"/>
	<path fill="#25DDDF" d="M408.1,717.2c-0.2,0.3-0.3,0.4-0.5,0.5c-0.2,0.1-0.4,0.2-0.7,0.2c-0.3,0-0.6-0.1-0.9-0.2
		c-0.3-0.2-0.7-0.3-1.1-0.5c-0.4-0.2-0.9-0.4-1.5-0.5s-1.2-0.2-2-0.2c-1.2,0-2.1,0.2-2.7,0.7s-1,1.1-1,1.9c0,0.5,0.2,1,0.5,1.3
		c0.3,0.4,0.8,0.7,1.4,0.9c0.6,0.3,1.2,0.5,1.9,0.7c0.7,0.2,1.5,0.5,2.2,0.7c0.7,0.3,1.5,0.5,2.2,0.9s1.4,0.7,1.9,1.2
		c0.6,0.5,1,1.1,1.4,1.8c0.3,0.7,0.5,1.6,0.5,2.5c0,1.2-0.2,2.3-0.6,3.3s-1.1,1.9-1.9,2.6c-0.8,0.7-1.9,1.3-3.1,1.7
		c-1.2,0.4-2.6,0.6-4.2,0.6c-0.8,0-1.7-0.1-2.5-0.2c-0.8-0.2-1.6-0.4-2.3-0.6c-0.7-0.3-1.4-0.6-2.1-1c-0.6-0.4-1.2-0.8-1.7-1.2
		l1.4-2.3c0.2-0.3,0.4-0.5,0.6-0.6c0.2-0.1,0.5-0.2,0.9-0.2s0.7,0.1,1,0.3s0.7,0.4,1.1,0.7c0.4,0.2,0.9,0.5,1.5,0.7s1.3,0.3,2.2,0.3
		c0.7,0,1.3-0.1,1.8-0.3s0.9-0.4,1.2-0.7c0.3-0.3,0.6-0.6,0.7-0.9c0.2-0.4,0.2-0.7,0.2-1.1c0-0.6-0.2-1-0.5-1.4s-0.8-0.7-1.4-1
		c-0.6-0.3-1.2-0.5-1.9-0.7c-0.7-0.2-1.5-0.5-2.2-0.7c-0.8-0.3-1.5-0.6-2.2-0.9c-0.7-0.3-1.4-0.8-1.9-1.3c-0.6-0.5-1-1.2-1.4-1.9
		c-0.3-0.8-0.5-1.7-0.5-2.8c0-1,0.2-2,0.6-2.9c0.4-0.9,1-1.7,1.8-2.4c0.8-0.7,1.7-1.2,2.9-1.6s2.5-0.6,4-0.6c1.7,0,3.2,0.3,4.6,0.8
		c1.4,0.6,2.6,1.3,3.5,2.2L408.1,717.2z"/>
</g>
<circle fill="#FFFFFF" cx="42.4" cy="203.9" r="24.4"/>
<g>
	<path fill="#25DDDF" d="M53.6,214.7v4.4H34.4v-4.4h7v-20.2c0-0.8,0-1.6,0.1-2.5l-5,4.2c-0.3,0.2-0.6,0.4-0.9,0.4
		c-0.3,0.1-0.5,0.1-0.8,0s-0.5-0.1-0.7-0.3c-0.2-0.1-0.3-0.3-0.4-0.4l-1.9-2.6l10.6-9h4.9v30.3H53.6z"/>
	<path fill="#FFFFFF" d="M107.9,219.1V199l-2.1-0.3c-0.5-0.1-0.8-0.3-1.1-0.5c-0.3-0.2-0.4-0.6-0.4-1v-2.4h3.7v-1.8
		c0-1.4,0.2-2.7,0.6-3.8c0.4-1.1,1-2.1,1.8-2.9s1.8-1.4,2.9-1.8c1.1-0.4,2.4-0.6,3.8-0.6c1.1,0,2.2,0.2,3.2,0.5l-0.1,3
		c0,0.2-0.1,0.4-0.2,0.5c-0.1,0.1-0.3,0.2-0.4,0.3c-0.2,0.1-0.4,0.1-0.6,0.1c-0.2,0-0.5,0-0.8,0c-0.7,0-1.3,0.1-1.9,0.2
		c-0.6,0.2-1,0.4-1.4,0.8c-0.4,0.4-0.7,0.9-0.9,1.5s-0.3,1.4-0.3,2.3v1.6h6.4v4.2h-6.2v20.2H107.9z"/>
	<path fill="#FFFFFF" d="M144.6,194.5v24.6h-3.6c-0.8,0-1.3-0.4-1.5-1.1l-0.4-2c-1,1-2.1,1.9-3.3,2.5c-1.2,0.6-2.6,0.9-4.3,0.9
		c-1.3,0-2.5-0.2-3.6-0.7c-1-0.5-1.9-1.1-2.6-1.9c-0.7-0.8-1.2-1.8-1.6-3c-0.4-1.1-0.5-2.4-0.5-3.8v-15.6h5.9v15.6
		c0,1.5,0.3,2.7,1,3.5c0.7,0.8,1.7,1.2,3.1,1.2c1,0,2-0.2,2.9-0.7s1.7-1.1,2.5-1.9v-17.8H144.6z"/>
	<path fill="#FFFFFF" d="M156,197.5c0.5-0.5,1-1,1.6-1.4c0.6-0.4,1.1-0.8,1.8-1.1c0.6-0.3,1.3-0.5,2-0.7s1.5-0.3,2.3-0.3
		c1.3,0,2.5,0.2,3.6,0.7s1.9,1.1,2.6,1.9c0.7,0.8,1.2,1.8,1.6,3c0.4,1.1,0.5,2.4,0.5,3.8v15.7h-5.9v-15.7c0-1.5-0.3-2.7-1-3.5
		s-1.7-1.2-3.1-1.2c-1,0-2,0.2-2.9,0.7s-1.7,1.1-2.5,1.9v17.8h-5.9v-24.6h3.6c0.8,0,1.3,0.4,1.5,1.1L156,197.5z"/>
	<path fill="#FFFFFF" d="M183,197.5c0.5-0.5,1-1,1.6-1.4c0.6-0.4,1.1-0.8,1.8-1.1c0.6-0.3,1.3-0.5,2-0.7s1.5-0.3,2.3-0.3
		c1.3,0,2.5,0.2,3.6,0.7s1.9,1.1,2.6,1.9c0.7,0.8,1.2,1.8,1.6,3c0.4,1.1,0.5,2.4,0.5,3.8v15.7H193v-15.7c0-1.5-0.3-2.7-1-3.5
		s-1.7-1.2-3.1-1.2c-1,0-2,0.2-2.9,0.7s-1.7,1.1-2.5,1.9v17.8h-5.9v-24.6h3.6c0.8,0,1.3,0.4,1.5,1.1L183,197.5z"/>
	<path fill="#FFFFFF" d="M209.1,207.5c0.1,1.3,0.3,2.4,0.7,3.3c0.4,0.9,0.8,1.7,1.4,2.3c0.6,0.6,1.3,1,2.1,1.3s1.7,0.4,2.6,0.4
		s1.8-0.1,2.5-0.3c0.7-0.2,1.3-0.5,1.8-0.7c0.5-0.3,1-0.5,1.4-0.7c0.4-0.2,0.8-0.3,1.1-0.3c0.5,0,0.9,0.2,1.1,0.6l1.7,2.2
		c-0.7,0.8-1.4,1.4-2.2,1.9c-0.8,0.5-1.7,0.9-2.6,1.2c-0.9,0.3-1.8,0.5-2.7,0.7c-0.9,0.1-1.8,0.2-2.7,0.2c-1.7,0-3.3-0.3-4.8-0.9
		c-1.5-0.6-2.8-1.4-3.8-2.5c-1.1-1.1-1.9-2.5-2.6-4.1c-0.6-1.6-0.9-3.5-0.9-5.7c0-1.7,0.3-3.3,0.8-4.7s1.3-2.8,2.3-3.9
		c1-1.1,2.3-2,3.7-2.6c1.5-0.6,3.1-1,5-1c1.6,0,3,0.2,4.3,0.7c1.3,0.5,2.4,1.2,3.4,2.2c0.9,1,1.7,2.1,2.2,3.5s0.8,3,0.8,4.7
		c0,0.9-0.1,1.5-0.3,1.8c-0.2,0.3-0.6,0.5-1.1,0.5H209.1z M220.4,204c0-0.8-0.1-1.5-0.3-2.2c-0.2-0.7-0.5-1.3-1-1.8
		c-0.4-0.5-1-0.9-1.6-1.2c-0.7-0.3-1.4-0.4-2.3-0.4c-1.7,0-3.1,0.5-4,1.5c-1,1-1.6,2.4-1.9,4.2H220.4z"/>
	<path fill="#FFFFFF" d="M236.2,183.5v35.7h-5.9v-35.7H236.2z"/>
	<path fill="#FFFFFF" d="M253.2,197.9c2.8-2.6,6.2-3.9,10.2-3.9c1.4,0,2.7,0.2,3.9,0.7c1.1,0.5,2.1,1.1,2.9,2c0.8,0.8,1.4,1.8,1.8,3
		c0.4,1.2,0.6,2.4,0.6,3.8v15.6h-2.7c-0.6,0-1-0.1-1.3-0.3c-0.3-0.2-0.5-0.5-0.7-1l-0.5-1.8c-0.6,0.6-1.2,1.1-1.8,1.5
		c-0.6,0.4-1.2,0.8-1.8,1.1c-0.6,0.3-1.3,0.5-2.1,0.7c-0.7,0.2-1.5,0.2-2.4,0.2c-1,0-2-0.1-2.9-0.4c-0.9-0.3-1.6-0.7-2.3-1.3
		c-0.6-0.6-1.1-1.3-1.5-2.1c-0.4-0.8-0.5-1.8-0.5-2.9c0-0.6,0.1-1.2,0.3-1.9c0.2-0.6,0.5-1.2,1-1.8c0.5-0.6,1.1-1.1,1.8-1.6
		c0.8-0.5,1.7-0.9,2.8-1.3c1.1-0.4,2.4-0.7,3.8-0.9c1.5-0.2,3.1-0.4,5-0.4v-1.4c0-1.6-0.4-2.9-1.1-3.7s-1.7-1.2-3-1.2
		c-1,0-1.8,0.1-2.4,0.3c-0.6,0.2-1.2,0.5-1.7,0.8c-0.5,0.3-0.9,0.5-1.3,0.8c-0.4,0.2-0.8,0.3-1.3,0.3c-0.4,0-0.8-0.1-1.1-0.3
		s-0.5-0.5-0.7-0.8L253.2,197.9z M266.8,208.6c-1.7,0.1-3.2,0.2-4.3,0.4c-1.2,0.2-2.1,0.5-2.8,0.8c-0.7,0.3-1.2,0.7-1.5,1.2
		c-0.3,0.4-0.5,0.9-0.5,1.5c0,1,0.3,1.8,0.9,2.2c0.6,0.4,1.4,0.7,2.4,0.7c1.2,0,2.3-0.2,3.2-0.7c0.9-0.4,1.8-1.1,2.6-2V208.6z"/>
	<path fill="#FFFFFF" d="M283.7,197.5c0.5-0.5,1-1,1.6-1.4c0.6-0.4,1.1-0.8,1.8-1.1c0.6-0.3,1.3-0.5,2-0.7s1.5-0.3,2.3-0.3
		c1.3,0,2.5,0.2,3.6,0.7s1.9,1.1,2.6,1.9c0.7,0.8,1.2,1.8,1.6,3c0.4,1.1,0.5,2.4,0.5,3.8v15.7h-5.9v-15.7c0-1.5-0.3-2.7-1-3.5
		s-1.7-1.2-3.1-1.2c-1,0-2,0.2-2.9,0.7s-1.7,1.1-2.5,1.9v17.8h-5.9v-24.6h3.6c0.8,0,1.3,0.4,1.5,1.1L283.7,197.5z"/>
	<path fill="#FFFFFF" d="M304.6,197.9c2.8-2.6,6.2-3.9,10.2-3.9c1.4,0,2.7,0.2,3.9,0.7c1.1,0.5,2.1,1.1,2.9,2c0.8,0.8,1.4,1.8,1.8,3
		c0.4,1.2,0.6,2.4,0.6,3.8v15.6h-2.7c-0.6,0-1-0.1-1.3-0.3c-0.3-0.2-0.5-0.5-0.7-1l-0.5-1.8c-0.6,0.6-1.2,1.1-1.8,1.5
		c-0.6,0.4-1.2,0.8-1.8,1.1c-0.6,0.3-1.3,0.5-2.1,0.7c-0.7,0.2-1.5,0.2-2.4,0.2c-1,0-2-0.1-2.9-0.4c-0.9-0.3-1.6-0.7-2.3-1.3
		c-0.6-0.6-1.1-1.3-1.5-2.1c-0.4-0.8-0.5-1.8-0.5-2.9c0-0.6,0.1-1.2,0.3-1.9c0.2-0.6,0.5-1.2,1-1.8c0.5-0.6,1.1-1.1,1.8-1.6
		c0.8-0.5,1.7-0.9,2.8-1.3c1.1-0.4,2.4-0.7,3.8-0.9c1.5-0.2,3.1-0.4,5-0.4v-1.4c0-1.6-0.4-2.9-1.1-3.7s-1.7-1.2-3-1.2
		c-1,0-1.8,0.1-2.4,0.3c-0.6,0.2-1.2,0.5-1.7,0.8c-0.5,0.3-0.9,0.5-1.3,0.8c-0.4,0.2-0.8,0.3-1.3,0.3c-0.4,0-0.8-0.1-1.1-0.3
		s-0.5-0.5-0.7-0.8L304.6,197.9z M318.2,208.6c-1.7,0.1-3.2,0.2-4.3,0.4c-1.2,0.2-2.1,0.5-2.8,0.8c-0.7,0.3-1.2,0.7-1.5,1.2
		c-0.3,0.4-0.5,0.9-0.5,1.5c0,1,0.3,1.8,0.9,2.2c0.6,0.4,1.4,0.7,2.4,0.7c1.2,0,2.3-0.2,3.2-0.7c0.9-0.4,1.8-1.1,2.6-2V208.6z"/>
	<path fill="#FFFFFF" d="M335.6,183.5v35.7h-5.9v-35.7H335.6z"/>
	<path fill="#FFFFFF" d="M348.5,187.3c0,0.5-0.1,1-0.3,1.4c-0.2,0.4-0.5,0.8-0.8,1.2c-0.3,0.3-0.7,0.6-1.2,0.8
		c-0.5,0.2-1,0.3-1.5,0.3c-0.5,0-1-0.1-1.5-0.3s-0.9-0.5-1.2-0.8c-0.3-0.3-0.6-0.7-0.8-1.2c-0.2-0.4-0.3-0.9-0.3-1.4
		c0-0.5,0.1-1,0.3-1.5s0.5-0.9,0.8-1.2c0.3-0.3,0.7-0.6,1.2-0.8s0.9-0.3,1.5-0.3c0.5,0,1,0.1,1.5,0.3c0.5,0.2,0.9,0.5,1.2,0.8
		c0.3,0.3,0.6,0.7,0.8,1.2C348.4,186.3,348.5,186.8,348.5,187.3z M347.6,194.5v24.6h-6v-24.6H347.6z"/>
	<path fill="#FFFFFF" d="M368.7,199.3c-0.2,0.3-0.3,0.4-0.5,0.5c-0.2,0.1-0.4,0.2-0.7,0.2c-0.3,0-0.6-0.1-0.9-0.2s-0.7-0.3-1.1-0.5
		c-0.4-0.2-0.9-0.4-1.5-0.5c-0.6-0.2-1.2-0.2-2-0.2c-1.2,0-2.1,0.2-2.7,0.7c-0.7,0.5-1,1.1-1,1.9c0,0.5,0.2,1,0.5,1.3
		c0.3,0.4,0.8,0.7,1.4,0.9c0.6,0.3,1.2,0.5,1.9,0.7s1.5,0.5,2.2,0.7s1.5,0.5,2.2,0.9c0.7,0.3,1.4,0.7,1.9,1.2c0.6,0.5,1,1.1,1.4,1.8
		c0.3,0.7,0.5,1.6,0.5,2.5c0,1.2-0.2,2.3-0.6,3.3s-1.1,1.9-1.9,2.6c-0.8,0.7-1.9,1.3-3.1,1.7c-1.2,0.4-2.6,0.6-4.2,0.6
		c-0.8,0-1.7-0.1-2.5-0.2c-0.8-0.2-1.6-0.4-2.3-0.6c-0.7-0.3-1.4-0.6-2.1-1s-1.2-0.8-1.7-1.2l1.4-2.3c0.2-0.3,0.4-0.5,0.6-0.6
		c0.2-0.1,0.5-0.2,0.9-0.2c0.4,0,0.7,0.1,1,0.3c0.3,0.2,0.7,0.4,1.1,0.7c0.4,0.2,0.9,0.5,1.5,0.7c0.6,0.2,1.3,0.3,2.2,0.3
		c0.7,0,1.3-0.1,1.8-0.3c0.5-0.2,0.9-0.4,1.2-0.7c0.3-0.3,0.6-0.6,0.7-0.9c0.2-0.4,0.2-0.7,0.2-1.1c0-0.6-0.2-1-0.5-1.4
		c-0.3-0.4-0.8-0.7-1.4-1c-0.6-0.3-1.2-0.5-1.9-0.7c-0.7-0.2-1.5-0.5-2.2-0.7c-0.8-0.3-1.5-0.6-2.2-0.9c-0.7-0.3-1.4-0.8-1.9-1.3
		c-0.6-0.5-1-1.2-1.4-1.9c-0.3-0.8-0.5-1.7-0.5-2.8c0-1,0.2-2,0.6-2.9c0.4-0.9,1-1.7,1.8-2.4c0.8-0.7,1.7-1.2,2.9-1.6
		c1.2-0.4,2.5-0.6,4-0.6c1.7,0,3.2,0.3,4.6,0.8c1.4,0.6,2.6,1.3,3.5,2.2L368.7,199.3z"/>
	<path fill="#FFFFFF" d="M381.8,187.3c0,0.5-0.1,1-0.3,1.4c-0.2,0.4-0.5,0.8-0.8,1.2c-0.3,0.3-0.7,0.6-1.2,0.8
		c-0.5,0.2-1,0.3-1.5,0.3c-0.5,0-1-0.1-1.5-0.3s-0.9-0.5-1.2-0.8c-0.3-0.3-0.6-0.7-0.8-1.2c-0.2-0.4-0.3-0.9-0.3-1.4
		c0-0.5,0.1-1,0.3-1.5s0.5-0.9,0.8-1.2c0.3-0.3,0.7-0.6,1.2-0.8s0.9-0.3,1.5-0.3c0.5,0,1,0.1,1.5,0.3c0.5,0.2,0.9,0.5,1.2,0.8
		c0.3,0.3,0.6,0.7,0.8,1.2C381.6,186.3,381.8,186.8,381.8,187.3z M380.9,194.5v24.6h-6v-24.6H380.9z"/>
	<path fill="#FFFFFF" d="M402,199.3c-0.2,0.3-0.3,0.4-0.5,0.5c-0.2,0.1-0.4,0.2-0.7,0.2c-0.3,0-0.6-0.1-0.9-0.2
		c-0.3-0.2-0.7-0.3-1.1-0.5c-0.4-0.2-0.9-0.4-1.5-0.5s-1.2-0.2-2-0.2c-1.2,0-2.1,0.2-2.7,0.7s-1,1.1-1,1.9c0,0.5,0.2,1,0.5,1.3
		c0.3,0.4,0.8,0.7,1.4,0.9c0.6,0.3,1.2,0.5,1.9,0.7c0.7,0.2,1.5,0.5,2.2,0.7c0.7,0.3,1.5,0.5,2.2,0.9s1.4,0.7,1.9,1.2
		c0.6,0.5,1,1.1,1.4,1.8c0.3,0.7,0.5,1.6,0.5,2.5c0,1.2-0.2,2.3-0.6,3.3s-1.1,1.9-1.9,2.6c-0.8,0.7-1.9,1.3-3.1,1.7
		c-1.2,0.4-2.6,0.6-4.2,0.6c-0.8,0-1.7-0.1-2.5-0.2c-0.8-0.2-1.6-0.4-2.3-0.6c-0.7-0.3-1.4-0.6-2.1-1c-0.6-0.4-1.2-0.8-1.7-1.2
		l1.4-2.3c0.2-0.3,0.4-0.5,0.6-0.6c0.2-0.1,0.5-0.2,0.9-0.2s0.7,0.1,1,0.3s0.7,0.4,1.1,0.7c0.4,0.2,0.9,0.5,1.5,0.7s1.3,0.3,2.2,0.3
		c0.7,0,1.3-0.1,1.8-0.3s0.9-0.4,1.2-0.7c0.3-0.3,0.6-0.6,0.7-0.9c0.2-0.4,0.2-0.7,0.2-1.1c0-0.6-0.2-1-0.5-1.4s-0.8-0.7-1.4-1
		c-0.6-0.3-1.2-0.5-1.9-0.7c-0.7-0.2-1.5-0.5-2.2-0.7c-0.8-0.3-1.5-0.6-2.2-0.9c-0.7-0.3-1.4-0.8-1.9-1.3c-0.6-0.5-1-1.2-1.4-1.9
		c-0.3-0.8-0.5-1.7-0.5-2.8c0-1,0.2-2,0.6-2.9c0.4-0.9,1-1.7,1.8-2.4c0.8-0.7,1.7-1.2,2.9-1.6s2.5-0.6,4-0.6c1.7,0,3.2,0.3,4.6,0.8
		c1.4,0.6,2.6,1.3,3.5,2.2L402,199.3z"/>
</g>
</svg>
