<?xml version="1.0" encoding="utf-8"?>
<!-- Generator: Adobe Illustrator 18.0.0, SVG Export Plug-In . SVG Version: 6.00 Build 0)  -->
<!DOCTYPE svg PUBLIC "-//W3C//DTD SVG 1.1//EN" "http://www.w3.org/Graphics/SVG/1.1/DTD/svg11.dtd">
<svg version="1.1" id="Calque_1" xmlns="http://www.w3.org/2000/svg" xmlns:xlink="http://www.w3.org/1999/xlink" x="0px" y="0px"
	 viewBox="0 240 800 800" enable-background="new 0 240 800 800" xml:space="preserve">
<g>
	<g>
		<path fill="#FFFFFF" d="M400,1040C179.6,1040,0,860.4,0,640s179.6-400,400-400s400,179.6,400,400S620.4,1040,400,1040L400,1040z
			 M400,257.8C188.4,257.8,17.8,428.4,17.8,640s170.7,382.2,382.2,382.2S782.2,851.6,782.2,640S611.6,257.8,400,257.8L400,257.8z"/>
	</g>
</g>
<g>
	<g id="XMLID_1_">
		<g>
			<path fill="#FFFFFF" d="M397.8,575.2c27.4,20.5,45,52.2,45,87.7c0,3.8-0.2,7.5-0.6,11.2c-12.9,4.5-26.7,7-41.2,7
				c-17,0-33.2-3.4-47.8-9.5c-0.2-2.8-0.4-5.7-0.4-8.7C352.8,627.4,370.4,595.7,397.8,575.2z"/>
		</g>
		<g>
			<path fill="none" stroke="#FFFFFF" stroke-width="17" stroke-miterlimit="10" d="M397.8,575.2c20.2-15.1,45.7-24.1,73.5-24.1
				c17,0,33.2,3.4,47.8,9.5c-4.7-57.7-55.8-103.2-118.1-103.2c-61.5,0-112,44.2-117.9,100.7c12.9-4.5,26.8-7,41.2-7
				C352.1,551.1,377.6,560.1,397.8,575.2z"/>
			<path fill="none" stroke="#FFFFFF" stroke-width="17" stroke-miterlimit="10" d="M353.2,671.6c-41.6-17.3-70.7-56.6-70.7-102.4
				c0-3.8,0.2-7.5,0.6-11.2c-45.1,15.8-77.2,56.8-77.2,104.9c0,61.8,53,111.8,118.5,111.8c27.8,0,53.3-9,73.5-24.1
				C372.6,731.8,355.8,703.6,353.2,671.6z"/>
			<path fill="none" stroke="#FFFFFF" stroke-width="17" stroke-miterlimit="10" d="M519.1,560.5c0.2,2.9,0.3,5.7,0.3,8.7
				c0,48.1-32.1,89.1-77.2,104.9c-3.2,31-19.9,58.2-44.4,76.6c20.2,15.1,45.7,24.1,73.5,24.1c65.4,0,118.5-50.1,118.5-111.8
				C589.8,617.2,560.7,577.9,519.1,560.5z"/>
			<path fill="none" stroke="#FFFFFF" stroke-width="17" stroke-miterlimit="10" d="M397.8,575.2c-27.4,20.5-45,52.2-45,87.7
				c0,2.9,0.1,5.8,0.4,8.7c14.6,6.1,30.8,9.5,47.8,9.5c14.5,0,28.4-2.5,41.2-7c0.4-3.7,0.6-7.4,0.6-11.2
				C442.8,627.4,425.2,595.7,397.8,575.2z"/>
		</g>
	</g>
</g>
</svg>
