<?xml version="1.0" encoding="utf-8"?>
<!-- Generator: Adobe Illustrator 18.0.0, SVG Export Plug-In . SVG Version: 6.00 Build 0)  -->
<!DOCTYPE svg PUBLIC "-//W3C//DTD SVG 1.1//EN" "http://www.w3.org/Graphics/SVG/1.1/DTD/svg11.dtd">
<svg version="1.1" id="Calque_1" xmlns="http://www.w3.org/2000/svg" xmlns:xlink="http://www.w3.org/1999/xlink" x="0px" y="0px"
	 viewBox="0 0 300 300" enable-background="new 0 0 300 300" xml:space="preserve">
<polygon fill="none" stroke="#FFFFFF" stroke-width="5" stroke-miterlimit="10" points="91.4,71.2 70.9,66.1 55,80.1 53.6,59 
	35.4,48.2 55,40.3 59.7,19.7 73.2,35.9 94.3,33.9 83,51.8 "/>
<polygon fill="none" stroke="#FFFFFF" stroke-width="5" stroke-miterlimit="10" points="266.2,231.5 247.2,222.1 228.7,232.4 
	231.8,211.5 216.3,197.1 237.1,193.5 246,174.4 255.8,193.1 276.8,195.6 262.1,210.7 "/>
<rect x="55" y="161" transform="matrix(-0.6867 0.7269 -0.7269 -0.6867 330.035 195.077)" fill="#3A006D" stroke="#3A006D" stroke-miterlimit="10" width="136" height="15.3"/>
<polyline fill="none" stroke="#3A006D" stroke-width="5" stroke-miterlimit="10" points="171.1,107 192.5,84.5 203.6,95 
	182.2,117.7 "/>
<path fill="none" stroke="#3A006D" stroke-width="5" stroke-miterlimit="10" d="M221.4,262.6c-20,12.2-43.6,19.3-68.7,19.3
	c-73,0-132.2-59.2-132.2-132.2c0-21.9,5.3-42.5,14.7-60.6"/>
<path fill="none" stroke="#3A006D" stroke-width="5" stroke-miterlimit="10" d="M152.7,17.6c73,0,132.2,59.2,132.2,132.2"/>
<path fill="none" stroke="#FFFFFF" stroke-width="5" stroke-miterlimit="10" d="M63.9,192.1C55.1,177.2,50,159.8,50,141.2"/>
<path fill="none" stroke="#FFFFFF" stroke-width="5" stroke-miterlimit="10" d="M151.7,250.9"/>
<circle fill="#FFFFFF" cx="152.5" cy="39.6" r="9.6"/>
<circle fill="#FFFFFF" cx="132.5" cy="72.9" r="9.6"/>
<circle fill="#FFFFFF" cx="184.5" cy="166.9" r="9.6"/>
<circle fill="#FFFFFF" cx="42.5" cy="267.6" r="9.6"/>
<circle fill="#FFFFFF" cx="257.1" cy="278.9" r="9.6"/>
<circle fill="#FFFFFF" cx="11.8" cy="72.3" r="9.6"/>
<circle fill="#FFFFFF" cx="287.4" cy="68.9" r="9.6"/>
<path fill="none" stroke="#FFFFFF" stroke-width="5" stroke-miterlimit="10" d="M258.8,144.5c0.3-17.3-3.9-34.9-13-51"/>
<ellipse fill="#FFFFFF" cx="82.5" cy="94" rx="3.6" ry="3.2"/>
<ellipse fill="#FFFFFF" cx="90" cy="105.3" rx="3.6" ry="3.2"/>
<ellipse fill="#FFFFFF" cx="70.6" cy="137.2" rx="3.6" ry="3.2"/>
<ellipse fill="#FFFFFF" cx="135" cy="105.1" rx="3.6" ry="3.2"/>
<ellipse fill="#FFFFFF" cx="130.5" cy="212.1" rx="3.6" ry="3.2"/>
<ellipse fill="#FFFFFF" cx="138" cy="223.4" rx="3.6" ry="3.2"/>
<ellipse fill="#FFFFFF" cx="118.6" cy="255.3" rx="3.6" ry="3.2"/>
<ellipse fill="#FFFFFF" cx="183" cy="223.2" rx="3.6" ry="3.2"/>
<ellipse fill="#FFFFFF" cx="232.8" cy="9.6" rx="3.6" ry="3.2"/>
<ellipse fill="#FFFFFF" cx="240.3" cy="20.9" rx="3.6" ry="3.2"/>
<ellipse fill="#FFFFFF" cx="213.9" cy="44.8" rx="3.6" ry="3.2"/>
<ellipse fill="#FFFFFF" cx="285.3" cy="20.7" rx="3.6" ry="3.2"/>
<polygon fill="none" stroke="#FFFFFF" stroke-width="5" stroke-miterlimit="10" points="181.3,69.3 177.8,64 171.4,63.9 175.4,58.9 
	173.5,52.8 179.5,55 184.7,51.4 184.4,57.7 189.5,61.6 183.4,63.3 "/>
<polygon fill="none" stroke="#FFFFFF" stroke-width="5" stroke-miterlimit="10" points="220.7,92.5 217.1,87.2 210.8,87.1 
	214.7,82.1 212.8,76 218.8,78.2 224,74.5 223.8,80.9 228.9,84.7 222.7,86.4 "/>
<polygon fill="none" stroke="#FFFFFF" stroke-width="5" stroke-miterlimit="10" points="197.4,134.5 197.8,128.2 192.8,124.2 
	199,122.6 201.2,116.6 204.6,122 211,122.2 206.9,127.2 208.7,133.3 202.7,131 "/>
<ellipse fill="#FFFFFF" cx="19.9" cy="225.5" rx="3.6" ry="3.2"/>
<ellipse fill="#FFFFFF" cx="27.3" cy="236.8" rx="3.6" ry="3.2"/>
</svg>
