<?xml version="1.0" encoding="utf-8"?>
<!-- Generator: Adobe Illustrator 18.0.0, SVG Export Plug-In . SVG Version: 6.00 Build 0)  -->
<!DOCTYPE svg PUBLIC "-//W3C//DTD SVG 1.1//EN" "http://www.w3.org/Graphics/SVG/1.1/DTD/svg11.dtd">
<svg version="1.1" id="Calque_1" xmlns="http://www.w3.org/2000/svg" xmlns:xlink="http://www.w3.org/1999/xlink" x="0px" y="0px"
	 viewBox="0 0 640 1136" enable-background="new 0 0 640 1136" xml:space="preserve">
<rect x="-0.9" y="1.1" fill="none" width="640.4" height="1137.3"/>
<g id="Calque_2">
	<rect x="-1" y="-1.6" fill="#DBDBDB" width="641.7" height="1135.4"/>
</g>
<rect x="-0.1" y="-2.7" fill="#25DDDF" width="640.1" height="242.3"/>
<path fill="#FFFFFF" d="M618.5,59"/>
<g>
	<defs>
		<path id="SVGID_1_" d="M379.7,9h19.6c1.7,0,3.1,1.4,3.1,3.1v7c0,1.7-1.4,3.1-3.1,3.1h-19.6c-1.7,0-3.1-1.4-3.1-3.1v-7
			C376.5,10.4,377.9,9,379.7,9z"/>
	</defs>
	<clipPath id="SVGID_2_">
		<use xlink:href="#SVGID_1_"  overflow="visible"/>
	</clipPath>
	<g clip-path="url(#SVGID_2_)">
		<defs>
			<rect id="SVGID_3_" x="-18" y="-11.3" width="440.4" height="51.7"/>
		</defs>
		<clipPath id="SVGID_4_">
			<use xlink:href="#SVGID_3_"  overflow="visible"/>
		</clipPath>
		<path opacity="0.35" clip-path="url(#SVGID_4_)" fill="none" stroke="#FFFFFF" stroke-width="2" stroke-miterlimit="10" d="
			M379.7,9h19.6c1.7,0,3.1,1.4,3.1,3.1v7c0,1.7-1.4,3.1-3.1,3.1h-19.6c-1.7,0-3.1-1.4-3.1-3.1v-7C376.5,10.4,377.9,9,379.7,9z"/>
	</g>
</g>
<g>
	<defs>
		<path id="SVGID_5_" d="M403.6,13.3V18c0.9-0.4,1.6-1.3,1.6-2.3S404.5,13.7,403.6,13.3"/>
	</defs>
	<clipPath id="SVGID_6_">
		<use xlink:href="#SVGID_5_"  overflow="visible"/>
	</clipPath>
	<g clip-path="url(#SVGID_6_)">
		<defs>
			<rect id="SVGID_7_" x="-18" y="-11.3" width="440.4" height="51.7"/>
		</defs>
		<clipPath id="SVGID_8_">
			<use xlink:href="#SVGID_7_"  overflow="visible"/>
		</clipPath>
		<rect x="397.7" y="7.5" opacity="0.4" clip-path="url(#SVGID_8_)" fill="#FFFFFF" width="13.3" height="16.4"/>
	</g>
</g>
<g>
	<defs>
		<path id="SVGID_9_" d="M380.5,11.4h18c0.9,0,1.6,0.7,1.6,1.6v5.5c0,0.9-0.7,1.6-1.6,1.6h-18c-0.9,0-1.6-0.7-1.6-1.6v-5.5
			C378.9,12.1,379.6,11.4,380.5,11.4z"/>
	</defs>
	<clipPath id="SVGID_10_">
		<use xlink:href="#SVGID_9_"  overflow="visible"/>
	</clipPath>
	<g clip-path="url(#SVGID_10_)">
		<defs>
			<rect id="SVGID_11_" x="-18" y="-11.3" width="440.4" height="51.7"/>
		</defs>
		<clipPath id="SVGID_12_">
			<use xlink:href="#SVGID_11_"  overflow="visible"/>
		</clipPath>
		<rect x="373" y="5.5" clip-path="url(#SVGID_12_)" fill="#FFFFFF" width="32.9" height="20.4"/>
	</g>
</g>
<g>
	<defs>
		<path id="SVGID_13_" d="M364.3,19.4c0.1-0.1,0.1-0.2,0.1-0.3c0-0.1,0-0.2-0.1-0.3c-1.5-1.3-3.7-1.3-5.2,0
			c-0.1,0.1-0.1,0.2-0.1,0.3c0,0.1,0,0.2,0.1,0.3l2.3,2.4c0.1,0.1,0.2,0.1,0.3,0.1c0.1,0,0.2,0,0.3-0.1L364.3,19.4z M361.7,16.2
			c1.4,0,2.8,0.5,3.9,1.5c0.1,0.1,0.4,0.1,0.5,0l1.4-1.4c0.1-0.1,0.1-0.2,0.1-0.3c0-0.1,0-0.2-0.1-0.3c-3.2-3-8.2-3-11.5,0
			c-0.1,0.1-0.1,0.2-0.1,0.3c0,0.1,0,0.2,0.1,0.3l1.4,1.4c0.1,0.1,0.4,0.1,0.5,0C358.9,16.7,360.2,16.2,361.7,16.2z M361.7,11.7
			c2.6,0,5.1,1,7,2.8c0.1,0.1,0.4,0.1,0.5,0l1.4-1.4c0.1-0.1,0.1-0.2,0.1-0.3c0-0.1,0-0.2-0.1-0.3c-4.9-4.7-12.8-4.7-17.7,0
			c-0.1,0.1-0.1,0.2-0.1,0.3c0,0.1,0,0.2,0.1,0.3l1.4,1.4c0.1,0.1,0.4,0.1,0.5,0C356.6,12.7,359.1,11.7,361.7,11.7z"/>
	</defs>
	<clipPath id="SVGID_14_">
		<use xlink:href="#SVGID_13_"  overflow="visible"/>
	</clipPath>
	<g clip-path="url(#SVGID_14_)">
		<defs>
			<rect id="SVGID_15_" x="-18" y="-11.3" width="440.4" height="51.7"/>
		</defs>
		<clipPath id="SVGID_16_">
			<use xlink:href="#SVGID_15_"  overflow="visible"/>
		</clipPath>
		<rect x="346.8" y="3.2" clip-path="url(#SVGID_16_)" fill="#FFFFFF" width="29.7" height="24.6"/>
	</g>
</g>
<g>
	<defs>
		<path id="SVGID_17_" d="M344.4,9.4h1.2c0.6,0,1.2,0.5,1.2,1.2v10.2c0,0.6-0.5,1.2-1.2,1.2h-1.2c-0.6,0-1.2-0.5-1.2-1.2V10.6
			C343.3,10,343.8,9.4,344.4,9.4z M339,12.2h1.2c0.6,0,1.2,0.5,1.2,1.2v7.4c0,0.6-0.5,1.2-1.2,1.2H339c-0.6,0-1.2-0.5-1.2-1.2v-7.4
			C337.8,12.7,338.3,12.2,339,12.2z M333.5,14.9h1.2c0.6,0,1.2,0.5,1.2,1.2v4.7c0,0.6-0.5,1.2-1.2,1.2h-1.2c-0.6,0-1.2-0.5-1.2-1.2
			v-4.7C332.3,15.4,332.8,14.9,333.5,14.9z M328,17.3h1.2c0.6,0,1.2,0.5,1.2,1.2v2.3c0,0.6-0.5,1.2-1.2,1.2H328
			c-0.6,0-1.2-0.5-1.2-1.2v-2.3C326.8,17.8,327.4,17.3,328,17.3z"/>
	</defs>
	<clipPath id="SVGID_18_">
		<use xlink:href="#SVGID_17_"  overflow="visible"/>
	</clipPath>
	<g clip-path="url(#SVGID_18_)">
		<defs>
			<rect id="SVGID_19_" x="-18" y="-11.3" width="440.4" height="51.7"/>
		</defs>
		<clipPath id="SVGID_20_">
			<use xlink:href="#SVGID_19_"  overflow="visible"/>
		</clipPath>
		<rect x="321" y="3.6" clip-path="url(#SVGID_20_)" fill="#FFFFFF" width="31.7" height="24.3"/>
	</g>
</g>
<g>
	<defs>
		<path id="SVGID_21_" d="M573.1,21.7h18c0.9,0,1.6,0.7,1.6,1.6v5.5c0,0.9-0.7,1.6-1.6,1.6h-18c-0.9,0-1.6-0.7-1.6-1.6v-5.5
			C571.6,22.4,572.3,21.7,573.1,21.7z"/>
	</defs>
	<clipPath id="SVGID_22_">
		<use xlink:href="#SVGID_21_"  overflow="visible"/>
	</clipPath>
	<g clip-path="url(#SVGID_22_)">
		<defs>
			<rect id="SVGID_23_" x="174.6" y="-1" width="440.4" height="51.7"/>
		</defs>
		<clipPath id="SVGID_24_">
			<use xlink:href="#SVGID_23_"  overflow="visible"/>
		</clipPath>
		<rect x="565.7" y="15.8" clip-path="url(#SVGID_24_)" fill="#FFFFFF" width="32.9" height="20.4"/>
	</g>
</g>
<g>
	<defs>
		<path id="SVGID_25_" d="M556.9,29.8c0.1-0.1,0.1-0.2,0.1-0.3c0-0.1,0-0.2-0.1-0.3c-1.5-1.3-3.7-1.3-5.2,0
			c-0.1,0.1-0.1,0.2-0.1,0.3c0,0.1,0,0.2,0.1,0.3l2.3,2.4c0.1,0.1,0.2,0.1,0.3,0.1c0.1,0,0.2,0,0.3-0.1L556.9,29.8z M554.3,26.5
			c1.4,0,2.8,0.5,3.9,1.5c0.1,0.1,0.4,0.1,0.5,0l1.4-1.4c0.1-0.1,0.1-0.2,0.1-0.3c0-0.1,0-0.2-0.1-0.3c-3.2-3-8.2-3-11.5,0
			c-0.1,0.1-0.1,0.2-0.1,0.3c0,0.1,0,0.2,0.1,0.3L550,28c0.1,0.1,0.4,0.1,0.5,0C551.5,27,552.9,26.5,554.3,26.5z M554.3,22
			c2.6,0,5.1,1,7,2.8c0.1,0.1,0.4,0.1,0.5,0l1.4-1.4c0.1-0.1,0.1-0.2,0.1-0.3c0-0.1,0-0.2-0.1-0.3c-4.9-4.7-12.8-4.7-17.7,0
			c-0.1,0.1-0.1,0.2-0.1,0.3c0,0.1,0,0.2,0.1,0.3l1.4,1.4c0.1,0.1,0.4,0.1,0.5,0C549.2,23,551.7,22,554.3,22z"/>
	</defs>
	<clipPath id="SVGID_26_">
		<use xlink:href="#SVGID_25_"  overflow="visible"/>
	</clipPath>
	<g clip-path="url(#SVGID_26_)">
		<defs>
			<rect id="SVGID_27_" x="174.6" y="-1" width="440.4" height="51.7"/>
		</defs>
		<clipPath id="SVGID_28_">
			<use xlink:href="#SVGID_27_"  overflow="visible"/>
		</clipPath>
		<rect x="539.5" y="13.5" clip-path="url(#SVGID_28_)" fill="#FFFFFF" width="29.7" height="24.6"/>
	</g>
</g>
<g>
	<defs>
		<path id="SVGID_29_" d="M537.1,19.7h1.2c0.6,0,1.2,0.5,1.2,1.2v10.2c0,0.6-0.5,1.2-1.2,1.2h-1.2c-0.6,0-1.2-0.5-1.2-1.2V20.9
			C535.9,20.3,536.5,19.7,537.1,19.7z M531.6,22.5h1.2c0.6,0,1.2,0.5,1.2,1.2v7.4c0,0.6-0.5,1.2-1.2,1.2h-1.2
			c-0.6,0-1.2-0.5-1.2-1.2v-7.4C530.5,23,531,22.5,531.6,22.5z M526.1,25.2h1.2c0.6,0,1.2,0.5,1.2,1.2v4.7c0,0.6-0.5,1.2-1.2,1.2
			h-1.2c-0.6,0-1.2-0.5-1.2-1.2v-4.7C525,25.8,525.5,25.2,526.1,25.2z M520.7,27.6h1.2c0.6,0,1.2,0.5,1.2,1.2v2.3
			c0,0.6-0.5,1.2-1.2,1.2h-1.2c-0.6,0-1.2-0.5-1.2-1.2v-2.3C519.5,28.1,520,27.6,520.7,27.6z"/>
	</defs>
	<clipPath id="SVGID_30_">
		<use xlink:href="#SVGID_29_"  overflow="visible"/>
	</clipPath>
	<g clip-path="url(#SVGID_30_)">
		<defs>
			<rect id="SVGID_31_" x="174.6" y="-1" width="440.4" height="51.7"/>
		</defs>
		<clipPath id="SVGID_32_">
			<use xlink:href="#SVGID_31_"  overflow="visible"/>
		</clipPath>
		<rect x="513.6" y="13.9" clip-path="url(#SVGID_32_)" fill="#FFFFFF" width="31.7" height="24.3"/>
	</g>
</g>
<path fill="#FFFFFF" d="M448.6,51.4H180.4c-22.3,0-40.6-18.3-40.6-40.6V-8.3c0-22.3,18.3-40.6,40.6-40.6h268.3
	c22.3,0,40.6,18.3,40.6,40.6v19.1C489.2,33.1,470.9,51.4,448.6,51.4z"/>
<g>
	<path fill="#FFFFFF" d="M69.1,25.6c0,4.6-1.7,7.2-4.7,7.2c-2.7,0-4.5-2.5-4.5-7c0-4.6,2-7.1,4.7-7.1C67.5,18.6,69.1,21.2,69.1,25.6
		z M61.7,25.8c0,3.5,1.1,5.6,2.8,5.6c1.9,0,2.8-2.2,2.8-5.7c0-3.4-0.9-5.6-2.8-5.6C62.9,20.1,61.7,22.1,61.7,25.8z"/>
	<path fill="#FFFFFF" d="M71.9,31.2c0.4,0,0.9,0,1.5-0.1c1.1-0.1,2.1-0.6,2.9-1.3c0.9-0.8,1.6-2,1.8-3.6H78
		c-0.8,0.9-1.8,1.5-3.2,1.5c-2.5,0-4-1.8-4-4.2c0-2.6,1.9-4.9,4.7-4.9s4.5,2.3,4.5,5.8c0,3-1,5.1-2.4,6.4c-1,1-2.5,1.7-4,1.8
		c-0.7,0.1-1.3,0.1-1.7,0.1V31.2z M72.6,23.4c0,1.7,1,2.9,2.6,2.9c1.2,0,2.2-0.6,2.7-1.4c0.1-0.2,0.2-0.4,0.2-0.7
		c0-2.3-0.9-4.1-2.8-4.1C73.7,20.1,72.6,21.4,72.6,23.4z"/>
	<path fill="#FFFFFF" d="M81.8,24c0-0.8,0.5-1.3,1.3-1.3s1.2,0.5,1.2,1.3c0,0.7-0.5,1.3-1.3,1.3C82.3,25.3,81.8,24.8,81.8,24z
		 M81.8,31.5c0-0.8,0.5-1.3,1.3-1.3s1.2,0.5,1.2,1.3c0,0.7-0.5,1.3-1.3,1.3C82.3,32.8,81.8,32.2,81.8,31.5z"/>
	<path fill="#FFFFFF" d="M91.7,32.5v-3.7h-6.3v-1.2l6.1-8.7h2v8.5h1.9v1.4h-1.9v3.7H91.7z M91.7,27.4v-4.6c0-0.7,0-1.4,0.1-2.1h-0.1
		c-0.4,0.8-0.8,1.4-1.1,2l-3.3,4.6v0H91.7z"/>
	<path fill="#FFFFFF" d="M100.8,20.6L100.8,20.6l-2.4,1.3L98,20.5l3-1.6h1.6v13.6h-1.8V20.6z"/>
</g>
<linearGradient id="SVGID_33_" gradientUnits="userSpaceOnUse" x1="312.7491" y1="523.4031" x2="312.7491" y2="878.5698" gradientTransform="matrix(1 0 0 -1 0 1138)">
	<stop  offset="0" style="stop-color:#808080;stop-opacity:0.25"/>
	<stop  offset="0.54" style="stop-color:#808080;stop-opacity:0.12"/>
	<stop  offset="1" style="stop-color:#808080;stop-opacity:0.1"/>
</linearGradient>
<polygon fill="url(#SVGID_33_)" points="89.4,259.4 89.4,277.4 89.4,614.6 536.1,614.6 536.1,277.4 536.1,259.4 "/>
<rect x="95.7" y="281.5" fill="#FFFFFF" width="435.7" height="326.8"/>
<rect x="93.7" y="264.2" fill="#F5F5F5" width="435.7" height="17.4"/>
<circle fill="#FF5252" cx="106.3" cy="272.6" r="4.2"/>
<circle fill="#FFFF00" cx="117.9" cy="272.6" r="4.2"/>
<circle fill="#69F0AE" cx="129.5" cy="272.6" r="4.2"/>
<rect x="313.5" y="281.5" fill="#25DDDF" width="217.8" height="326.8"/>
<linearGradient id="SVGID_34_" gradientUnits="userSpaceOnUse" x1="190.1508" y1="730.7152" x2="190.1508" y2="743.8695" gradientTransform="matrix(1 0 0 -1 0 1138)">
	<stop  offset="0" style="stop-color:#808080;stop-opacity:0.25"/>
	<stop  offset="0.54" style="stop-color:#808080;stop-opacity:0.12"/>
	<stop  offset="1" style="stop-color:#808080;stop-opacity:0.1"/>
</linearGradient>
<rect x="130.4" y="394.1" fill="url(#SVGID_34_)" width="119.4" height="13.2"/>
<linearGradient id="SVGID_35_" gradientUnits="userSpaceOnUse" x1="419.5621" y1="730.7152" x2="419.5621" y2="743.8695" gradientTransform="matrix(1 0 0 -1 0 1138)">
	<stop  offset="0" style="stop-color:#000000;stop-opacity:0.12"/>
	<stop  offset="0.55" style="stop-color:#000000;stop-opacity:9.000000e-02"/>
	<stop  offset="1" style="stop-color:#000000;stop-opacity:2.000000e-02"/>
</linearGradient>
<rect x="359.8" y="394.1" fill="url(#SVGID_35_)" width="119.4" height="13.2"/>
<rect x="132.5" y="395.7" fill="#25DDDF" width="115.8" height="9.5"/>
<linearGradient id="SVGID_36_" gradientUnits="userSpaceOnUse" x1="193.5709" y1="705.9851" x2="193.5709" y2="714.4039" gradientTransform="matrix(1 0 0 -1 0 1138)">
	<stop  offset="0" style="stop-color:#808080;stop-opacity:0.25"/>
	<stop  offset="0.54" style="stop-color:#808080;stop-opacity:0.12"/>
	<stop  offset="1" style="stop-color:#808080;stop-opacity:0.1"/>
</linearGradient>
<rect x="114.1" y="423.6" fill="url(#SVGID_36_)" width="158.9" height="8.4"/>
<linearGradient id="SVGID_37_" gradientUnits="userSpaceOnUse" x1="422.9822" y1="705.9851" x2="422.9822" y2="714.4039" gradientTransform="matrix(1 0 0 -1 0 1138)">
	<stop  offset="0" style="stop-color:#000000;stop-opacity:0.12"/>
	<stop  offset="0.55" style="stop-color:#000000;stop-opacity:9.000000e-02"/>
	<stop  offset="1" style="stop-color:#000000;stop-opacity:2.000000e-02"/>
</linearGradient>
<rect x="343.5" y="423.6" fill="url(#SVGID_37_)" width="158.9" height="8.4"/>
<linearGradient id="SVGID_38_" gradientUnits="userSpaceOnUse" x1="422.9822" y1="692.8307" x2="422.9822" y2="701.2495" gradientTransform="matrix(1 0 0 -1 0 1138)">
	<stop  offset="0" style="stop-color:#000000;stop-opacity:0.12"/>
	<stop  offset="0.55" style="stop-color:#000000;stop-opacity:9.000000e-02"/>
	<stop  offset="1" style="stop-color:#000000;stop-opacity:2.000000e-02"/>
</linearGradient>
<rect x="343.5" y="436.8" fill="url(#SVGID_38_)" width="158.9" height="8.4"/>
<linearGradient id="SVGID_39_" gradientUnits="userSpaceOnUse" x1="422.9822" y1="679.6765" x2="422.9822" y2="688.0952" gradientTransform="matrix(1 0 0 -1 0 1138)">
	<stop  offset="0" style="stop-color:#000000;stop-opacity:0.12"/>
	<stop  offset="0.55" style="stop-color:#000000;stop-opacity:9.000000e-02"/>
	<stop  offset="1" style="stop-color:#000000;stop-opacity:2.000000e-02"/>
</linearGradient>
<rect x="343.5" y="449.9" fill="url(#SVGID_39_)" width="158.9" height="8.4"/>
<linearGradient id="SVGID_40_" gradientUnits="userSpaceOnUse" x1="422.9822" y1="666.5222" x2="422.9822" y2="674.9409" gradientTransform="matrix(1 0 0 -1 0 1138)">
	<stop  offset="0" style="stop-color:#000000;stop-opacity:0.12"/>
	<stop  offset="0.55" style="stop-color:#000000;stop-opacity:9.000000e-02"/>
	<stop  offset="1" style="stop-color:#000000;stop-opacity:2.000000e-02"/>
</linearGradient>
<rect x="343.5" y="463.1" fill="url(#SVGID_40_)" width="158.9" height="8.4"/>
<linearGradient id="SVGID_41_" gradientUnits="userSpaceOnUse" x1="422.9822" y1="653.3678" x2="422.9822" y2="661.7866" gradientTransform="matrix(1 0 0 -1 0 1138)">
	<stop  offset="0" style="stop-color:#000000;stop-opacity:0.12"/>
	<stop  offset="0.55" style="stop-color:#000000;stop-opacity:9.000000e-02"/>
	<stop  offset="1" style="stop-color:#000000;stop-opacity:2.000000e-02"/>
</linearGradient>
<rect x="343.5" y="476.2" fill="url(#SVGID_41_)" width="158.9" height="8.4"/>
<linearGradient id="SVGID_42_" gradientUnits="userSpaceOnUse" x1="193.5709" y1="692.8307" x2="193.5709" y2="701.2495" gradientTransform="matrix(1 0 0 -1 0 1138)">
	<stop  offset="0" style="stop-color:#808080;stop-opacity:0.25"/>
	<stop  offset="0.54" style="stop-color:#808080;stop-opacity:0.12"/>
	<stop  offset="1" style="stop-color:#808080;stop-opacity:0.1"/>
</linearGradient>
<rect x="114.1" y="436.8" fill="url(#SVGID_42_)" width="158.9" height="8.4"/>
<linearGradient id="SVGID_43_" gradientUnits="userSpaceOnUse" x1="193.5709" y1="679.6765" x2="193.5709" y2="688.0952" gradientTransform="matrix(1 0 0 -1 0 1138)">
	<stop  offset="0" style="stop-color:#808080;stop-opacity:0.25"/>
	<stop  offset="0.54" style="stop-color:#808080;stop-opacity:0.12"/>
	<stop  offset="1" style="stop-color:#808080;stop-opacity:0.1"/>
</linearGradient>
<rect x="114.1" y="449.9" fill="url(#SVGID_43_)" width="158.9" height="8.4"/>
<linearGradient id="SVGID_44_" gradientUnits="userSpaceOnUse" x1="193.5709" y1="666.5222" x2="193.5709" y2="674.9409" gradientTransform="matrix(1 0 0 -1 0 1138)">
	<stop  offset="0" style="stop-color:#808080;stop-opacity:0.25"/>
	<stop  offset="0.54" style="stop-color:#808080;stop-opacity:0.12"/>
	<stop  offset="1" style="stop-color:#808080;stop-opacity:0.1"/>
</linearGradient>
<rect x="114.1" y="463.1" fill="url(#SVGID_44_)" width="158.9" height="8.4"/>
<linearGradient id="SVGID_45_" gradientUnits="userSpaceOnUse" x1="193.5709" y1="653.3678" x2="193.5709" y2="661.7866" gradientTransform="matrix(1 0 0 -1 0 1138)">
	<stop  offset="0" style="stop-color:#808080;stop-opacity:0.25"/>
	<stop  offset="0.54" style="stop-color:#808080;stop-opacity:0.12"/>
	<stop  offset="1" style="stop-color:#808080;stop-opacity:0.1"/>
</linearGradient>
<rect x="114.1" y="476.2" fill="url(#SVGID_45_)" width="158.9" height="8.4"/>
<rect x="115.7" y="424.6" fill="#25DDDF" width="156.3" height="5.8"/>
<rect x="115.7" y="437.8" fill="#25DDDF" width="156.3" height="5.8"/>
<rect x="115.7" y="451" fill="#25DDDF" width="156.3" height="5.8"/>
<rect x="115.7" y="464.1" fill="#25DDDF" width="156.3" height="5.8"/>
<rect x="115.7" y="477.3" fill="#25DDDF" width="156.3" height="5.8"/>
<rect x="361.4" y="395.7" fill="#FFFFFF" width="115.8" height="9.5"/>
<rect x="344.6" y="424.6" fill="#FFFFFF" width="156.3" height="5.8"/>
<rect x="344.6" y="437.8" fill="#FFFFFF" width="156.3" height="5.8"/>
<rect x="344.6" y="451" fill="#FFFFFF" width="156.3" height="5.8"/>
<rect x="344.6" y="464.1" fill="#FFFFFF" width="156.3" height="5.8"/>
<rect x="344.6" y="477.3" fill="#FFFFFF" width="156.3" height="5.8"/>
<g>
	<path fill="#25DDDF" d="M184.1,342l-5.5,16.8h-7.1l18.1-53.3h8.3l18.2,53.3h-7.4L203,342H184.1z M201.6,336.7l-5.2-15.3
		c-1.2-3.5-2-6.6-2.8-9.7h-0.2c-0.8,3.2-1.7,6.4-2.7,9.7l-5.2,15.4H201.6z"/>
</g>
<g>
	<path fill="#FFFFFF" d="M406.1,307.2c2.7-0.6,7.1-1,11.4-1c6.3,0,10.3,1.1,13.3,3.5c2.5,1.9,4,4.8,4,8.6c0,4.7-3.1,8.8-8.2,10.7
		v0.1c4.6,1.2,10,5,10,12.2c0,4.2-1.7,7.3-4.1,9.7c-3.4,3.1-8.9,4.5-16.8,4.5c-4.3,0-7.6-0.3-9.7-0.6V307.2z M412.4,327.1h5.7
		c6.6,0,10.5-3.5,10.5-8.1c0-5.7-4.3-7.9-10.7-7.9c-2.9,0-4.5,0.2-5.5,0.4V327.1z M412.4,350.4c1.2,0.2,3,0.3,5.3,0.3
		c6.5,0,12.5-2.4,12.5-9.4c0-6.6-5.7-9.4-12.5-9.4h-5.2V350.4z"/>
</g>
<g>
	<path fill="#FDCBA9" d="M142.1,529.5v16.9h16.3v4.3h-16.3v17.1h-4.6v-17.1h-16.3v-4.3h16.3v-16.9H142.1z"/>
	<path fill="#FDCBA9" d="M178.3,526.9h-0.1l-8.1,4.4l-1.2-4.8L179,521h5.4v46.8h-6.1V526.9z"/>
	<path fill="#FDCBA9" d="M221,567.8V555h-21.7v-4.2l20.9-29.9h6.8v29.1h6.6v5H227v12.7H221z M221,550.1v-15.6c0-2.4,0.1-4.9,0.2-7.3
		H221c-1.4,2.7-2.6,4.8-3.9,6.9l-11.4,15.9v0.1H221z"/>
	<path fill="#FDCBA9" d="M259.5,534.1c0,9.9-5.2,14.8-11.2,14.8c-5.8,0-10.9-4.7-10.9-14.1c0-9.4,5.1-14.6,11.3-14.6
		C255.2,520.2,259.5,525.2,259.5,534.1z M242.3,534.6c-0.1,6,2.1,10.5,6,10.5c4.2,0,6-4.5,6-10.7c0-5.7-1.7-10.4-6-10.4
		C244.4,524,242.3,528.7,242.3,534.6z M247.8,568.6l27.5-48.4h4l-27.5,48.4H247.8z M289.9,553.5c0,9.9-5.2,14.8-11.2,14.8
		c-5.8,0-10.9-4.7-10.9-14c0-9.4,5.1-14.7,11.3-14.7C285.7,539.5,289.9,544.6,289.9,553.5z M272.8,553.9c-0.1,6,2.2,10.5,6.1,10.5
		c4.2,0,6-4.5,6-10.7c0-5.7-1.7-10.4-6-10.4C275,543.4,272.8,548,272.8,553.9z"/>
</g>
<linearGradient id="SVGID_46_" gradientUnits="userSpaceOnUse" x1="317.1127" y1="30.0285" x2="317.1127" y2="382.8654" gradientTransform="matrix(1 0 0 -1 0 1138)">
	<stop  offset="0" style="stop-color:#808080;stop-opacity:0.25"/>
	<stop  offset="0.54" style="stop-color:#808080;stop-opacity:0.12"/>
	<stop  offset="1" style="stop-color:#808080;stop-opacity:0.1"/>
</linearGradient>
<rect x="159" y="755.1" fill="url(#SVGID_46_)" width="316.1" height="352.8"/>
<rect x="164.3" y="990.7" fill="#ECEFF1" width="305.7" height="109.6"/>
<g opacity="0.5">
	<rect x="282.9" y="1016.7" fill="#64FFDA" width="11.8" height="56.1"/>
</g>
<g opacity="0.4">
	<rect x="306.3" y="1016.7" fill="#64FFDA" width="11.8" height="56.1"/>
</g>
<g opacity="0.3">
	<rect x="329.7" y="1016.7" fill="#64FFDA" width="11.8" height="56.1"/>
</g>
<circle fill="#25DDDF" cx="426.7" cy="1044.4" r="28.6"/>
<rect x="164.3" y="876.9" fill="#ECEFF1" width="305.7" height="109.6"/>
<g opacity="0.5">
	<rect x="282.9" y="902.9" fill="#64FFDA" width="11.8" height="56.1"/>
</g>
<g opacity="0.4">
	<rect x="306.3" y="902.9" fill="#64FFDA" width="11.8" height="56.1"/>
</g>
<g opacity="0.3">
	<rect x="329.7" y="902.9" fill="#64FFDA" width="11.8" height="56.1"/>
</g>
<circle fill="#25DDDF" cx="426.7" cy="930.6" r="28.6"/>
<rect x="164.3" y="763" fill="#ECEFF1" width="305.7" height="109.6"/>
<g opacity="0.5">
	<rect x="282.9" y="789" fill="#64FFDA" width="11.8" height="56.1"/>
</g>
<g opacity="0.4">
	<rect x="306.3" y="789" fill="#64FFDA" width="11.8" height="56.1"/>
</g>
<g opacity="0.3">
	<rect x="329.7" y="789" fill="#64FFDA" width="11.8" height="56.1"/>
</g>
<linearGradient id="SVGID_47_" gradientUnits="userSpaceOnUse" x1="426.6747" y1="290.4563" x2="426.6747" y2="352.0779" gradientTransform="matrix(1 0 0 -1 0 1138)">
	<stop  offset="0" style="stop-color:#808080;stop-opacity:0.25"/>
	<stop  offset="0.54" style="stop-color:#808080;stop-opacity:0.12"/>
	<stop  offset="1" style="stop-color:#808080;stop-opacity:0.1"/>
</linearGradient>
<circle fill="url(#SVGID_47_)" cx="426.7" cy="816.7" r="30.8"/>
<linearGradient id="SVGID_48_" gradientUnits="userSpaceOnUse" x1="426.6747" y1="175.8497" x2="426.6747" y2="237.4713" gradientTransform="matrix(1 0 0 -1 0 1138)">
	<stop  offset="0" style="stop-color:#808080;stop-opacity:0.25"/>
	<stop  offset="0.54" style="stop-color:#808080;stop-opacity:0.12"/>
	<stop  offset="1" style="stop-color:#808080;stop-opacity:0.1"/>
</linearGradient>
<circle fill="url(#SVGID_48_)" cx="426.7" cy="931.3" r="30.8"/>
<linearGradient id="SVGID_49_" gradientUnits="userSpaceOnUse" x1="426.6747" y1="62.012" x2="426.6747" y2="123.6336" gradientTransform="matrix(1 0 0 -1 0 1138)">
	<stop  offset="0" style="stop-color:#808080;stop-opacity:0.25"/>
	<stop  offset="0.54" style="stop-color:#808080;stop-opacity:0.12"/>
	<stop  offset="1" style="stop-color:#808080;stop-opacity:0.1"/>
</linearGradient>
<circle fill="url(#SVGID_49_)" cx="426.7" cy="1045.2" r="30.8"/>
<circle fill="#25DDDF" cx="426.7" cy="816.7" r="28.6"/>
<path fill="none" stroke="#FDCBA9" stroke-width="3" stroke-miterlimit="10" d="M426.2,1092.7c-31.7,17.2-67.2,26.2-103.3,26.2
	c-70.7,0-133.5-33.8-173.1-86.2"/>
<g>
	<path fill="none" stroke="#FDCBA9" stroke-width="3" stroke-miterlimit="10" d="M463.2,943c-0.3,1.1-0.7,2.3-1,3.4"/>
	<path fill="none" stroke="#FDCBA9" stroke-width="3" stroke-miterlimit="10" d="M459.9,953c-20.7,55.6-74.2,95.1-137,95.1
		c-80.7,0-146.1-65.4-146.1-146.1S242.2,756,322.9,756c32,0,63.2,10.5,88.6,29.9"/>
	<path fill="none" stroke="#FDCBA9" stroke-width="3" stroke-miterlimit="10" d="M414.3,788.1c0.9,0.7,1.8,1.5,2.7,2.3"/>
</g>
<g>
	<path fill="none" stroke="#FDCBA9" stroke-width="3" stroke-miterlimit="10" d="M310.5,820.2c1.2-0.2,2.4-0.3,3.5-0.4"/>
	<path fill="none" stroke="#FDCBA9" stroke-width="3" stroke-miterlimit="10" d="M320.8,819.3c0.7,0,1.4,0,2.1,0
		c45.7,0,82.8,37.1,82.8,82.8c0,14.1-3.6,28-10.5,40.3"/>
	<path fill="none" stroke="#FDCBA9" stroke-width="3" stroke-miterlimit="10" d="M393.5,945.4c-0.6,1-1.3,2-1.9,3"/>
</g>
<circle fill="#25DDDF" cx="53.7" cy="712.2" r="29.7"/>
<g>
	<path fill="#FFFFFF" d="M66.4,714.6v3.4c0,0.3-0.1,0.6-0.3,0.8c-0.2,0.2-0.5,0.3-0.9,0.3h-3.2v8.5h-5.2v-8.5H42.3
		c-0.4,0-0.8-0.1-1.1-0.4c-0.3-0.2-0.5-0.6-0.6-0.9l-0.6-3l16.4-22h5.6v21.6H66.4z M56.9,714.6v-11.4c0-1.1,0.1-2.3,0.2-3.6
		l-10.8,14.9H56.9z"/>
	<path fill="#25DDDF" d="M112.5,695.8c0,0.5-0.1,1-0.3,1.4c-0.2,0.4-0.5,0.8-0.8,1.2c-0.3,0.3-0.7,0.6-1.2,0.8
		c-0.5,0.2-1,0.3-1.5,0.3c-0.5,0-1-0.1-1.5-0.3c-0.5-0.2-0.9-0.5-1.2-0.8c-0.3-0.3-0.6-0.7-0.8-1.2c-0.2-0.4-0.3-0.9-0.3-1.4
		c0-0.5,0.1-1,0.3-1.5c0.2-0.5,0.5-0.9,0.8-1.2c0.3-0.3,0.7-0.6,1.2-0.8c0.5-0.2,0.9-0.3,1.5-0.3c0.5,0,1,0.1,1.5,0.3
		c0.5,0.2,0.9,0.5,1.2,0.8c0.3,0.3,0.6,0.7,0.8,1.2C112.4,694.8,112.5,695.3,112.5,695.8z M111.7,703v24.6h-6V703H111.7z"/>
	<path fill="#25DDDF" d="M126,728c-2.1,0-3.8-0.6-4.9-1.8c-1.1-1.2-1.7-2.9-1.7-5v-13.8h-2.5c-0.3,0-0.6-0.1-0.8-0.3
		s-0.3-0.5-0.3-0.9v-2.4l4-0.6l1.2-6.7c0.1-0.3,0.2-0.6,0.5-0.7c0.2-0.2,0.5-0.3,0.9-0.3h3.1v7.8h6.6v4.2h-6.6v13.3
		c0,0.8,0.2,1.4,0.6,1.8c0.4,0.4,0.9,0.6,1.5,0.6c0.4,0,0.7,0,0.9-0.1c0.2-0.1,0.5-0.2,0.6-0.3c0.2-0.1,0.3-0.2,0.5-0.3
		c0.1-0.1,0.3-0.1,0.4-0.1c0.2,0,0.3,0,0.4,0.1c0.1,0.1,0.2,0.2,0.4,0.4l1.8,2.9c-0.9,0.7-1.9,1.3-3,1.6
		C128.3,727.8,127.2,728,126,728z"/>
	<path fill="#25DDDF" d="M140,716.1c0.1,1.3,0.3,2.4,0.7,3.3c0.4,0.9,0.8,1.7,1.4,2.3c0.6,0.6,1.3,1,2.1,1.3s1.7,0.4,2.6,0.4
		s1.8-0.1,2.5-0.3c0.7-0.2,1.3-0.5,1.8-0.7c0.5-0.3,1-0.5,1.4-0.7c0.4-0.2,0.8-0.3,1.1-0.3c0.5,0,0.9,0.2,1.1,0.6l1.7,2.2
		c-0.7,0.8-1.4,1.4-2.2,1.9c-0.8,0.5-1.7,0.9-2.6,1.2c-0.9,0.3-1.8,0.5-2.7,0.7c-0.9,0.1-1.8,0.2-2.7,0.2c-1.7,0-3.3-0.3-4.8-0.9
		c-1.5-0.6-2.8-1.4-3.8-2.5c-1.1-1.1-1.9-2.5-2.6-4.1c-0.6-1.6-0.9-3.5-0.9-5.7c0-1.7,0.3-3.3,0.8-4.7s1.3-2.8,2.3-3.9
		c1-1.1,2.3-2,3.7-2.6c1.5-0.6,3.1-1,5-1c1.6,0,3,0.2,4.3,0.7c1.3,0.5,2.4,1.2,3.4,2.2c0.9,1,1.7,2.1,2.2,3.5s0.8,3,0.8,4.7
		c0,0.9-0.1,1.5-0.3,1.8c-0.2,0.3-0.6,0.5-1.1,0.5H140z M151.3,712.5c0-0.8-0.1-1.5-0.3-2.2c-0.2-0.7-0.5-1.3-1-1.8
		c-0.4-0.5-1-0.9-1.6-1.2c-0.7-0.3-1.4-0.4-2.3-0.4c-1.7,0-3.1,0.5-4,1.5c-1,1-1.6,2.4-1.9,4.2H151.3z"/>
	<path fill="#25DDDF" d="M166.6,707.3c0.8-1.5,1.7-2.6,2.7-3.5c1.1-0.8,2.3-1.3,3.7-1.3c1.1,0,2,0.2,2.7,0.7l-0.4,4.4
		c-0.1,0.3-0.2,0.5-0.3,0.6c-0.2,0.1-0.4,0.2-0.6,0.2c-0.2,0-0.6,0-1.1-0.1c-0.5-0.1-0.9-0.1-1.4-0.1c-0.7,0-1.2,0.1-1.8,0.3
		c-0.5,0.2-1,0.5-1.4,0.8c-0.4,0.4-0.8,0.8-1.1,1.3s-0.6,1.1-0.9,1.8v15.2h-5.9V703h3.5c0.6,0,1,0.1,1.3,0.3
		c0.2,0.2,0.4,0.6,0.5,1.2L166.6,707.3z"/>
	<path fill="#25DDDF" d="M178.1,706.4c2.8-2.6,6.2-3.9,10.2-3.9c1.4,0,2.7,0.2,3.9,0.7c1.1,0.5,2.1,1.1,2.9,2c0.8,0.8,1.4,1.8,1.8,3
		c0.4,1.2,0.6,2.4,0.6,3.8v15.6h-2.7c-0.6,0-1-0.1-1.3-0.3c-0.3-0.2-0.5-0.5-0.7-1l-0.5-1.8c-0.6,0.6-1.2,1.1-1.8,1.5
		c-0.6,0.4-1.2,0.8-1.8,1.1c-0.6,0.3-1.3,0.5-2.1,0.7c-0.7,0.2-1.5,0.2-2.4,0.2c-1,0-2-0.1-2.9-0.4c-0.9-0.3-1.6-0.7-2.3-1.3
		c-0.6-0.6-1.1-1.3-1.5-2.1c-0.4-0.8-0.5-1.8-0.5-2.9c0-0.6,0.1-1.2,0.3-1.9c0.2-0.6,0.5-1.2,1-1.8c0.5-0.6,1.1-1.1,1.8-1.6
		c0.8-0.5,1.7-0.9,2.8-1.3c1.1-0.4,2.4-0.7,3.8-0.9c1.5-0.2,3.1-0.4,5-0.4v-1.4c0-1.6-0.4-2.9-1.1-3.7s-1.7-1.2-3-1.2
		c-1,0-1.8,0.1-2.4,0.3c-0.6,0.2-1.2,0.5-1.7,0.8c-0.5,0.3-0.9,0.5-1.3,0.8c-0.4,0.2-0.8,0.3-1.3,0.3c-0.4,0-0.8-0.1-1.1-0.3
		s-0.5-0.5-0.7-0.8L178.1,706.4z M191.7,717.1c-1.7,0.1-3.2,0.2-4.3,0.4c-1.2,0.2-2.1,0.5-2.8,0.8c-0.7,0.3-1.2,0.7-1.5,1.2
		c-0.3,0.4-0.5,0.9-0.5,1.5c0,1,0.3,1.8,0.9,2.2c0.6,0.4,1.4,0.7,2.4,0.7c1.2,0,2.3-0.2,3.2-0.7c0.9-0.4,1.8-1.1,2.6-2V717.1z"/>
	<path fill="#25DDDF" d="M227.5,727.6h-5.9v-20.2h-11.4v13.3c0,0.8,0.2,1.4,0.6,1.8c0.4,0.4,0.9,0.6,1.5,0.6c0.4,0,0.7,0,0.9-0.1
		c0.2-0.1,0.5-0.2,0.6-0.3c0.2-0.1,0.3-0.2,0.5-0.3c0.1-0.1,0.3-0.1,0.4-0.1c0.2,0,0.3,0,0.4,0.1c0.1,0.1,0.2,0.2,0.4,0.4l1.8,2.9
		c-0.9,0.7-1.9,1.3-3,1.6c-1.1,0.4-2.3,0.6-3.5,0.6c-2.1,0-3.8-0.6-4.9-1.8c-1.1-1.2-1.7-2.9-1.7-5v-13.8h-2.5
		c-0.3,0-0.6-0.1-0.8-0.3s-0.3-0.5-0.3-0.9v-2.4l4-0.7l1.2-6.7c0.1-0.3,0.2-0.6,0.5-0.7c0.2-0.2,0.5-0.3,0.9-0.3h3.1v7.8h17.4V727.6
		z M228.5,695.7c0,0.5-0.1,1-0.3,1.5s-0.5,0.9-0.8,1.2c-0.3,0.3-0.8,0.6-1.2,0.8c-0.5,0.2-1,0.3-1.5,0.3c-0.5,0-1-0.1-1.4-0.3
		c-0.4-0.2-0.8-0.5-1.2-0.8s-0.6-0.7-0.8-1.2c-0.2-0.5-0.3-0.9-0.3-1.5c0-0.5,0.1-1,0.3-1.5c0.2-0.5,0.5-0.9,0.8-1.2
		c0.3-0.3,0.7-0.6,1.2-0.8c0.4-0.2,0.9-0.3,1.4-0.3c0.5,0,1,0.1,1.5,0.3c0.5,0.2,0.9,0.5,1.2,0.8c0.3,0.3,0.6,0.7,0.8,1.2
		S228.5,695.2,228.5,695.7z"/>
	<path fill="#25DDDF" d="M244.5,702.6c1.8,0,3.5,0.3,5,0.9c1.5,0.6,2.8,1.4,3.8,2.5c1.1,1.1,1.9,2.4,2.5,4s0.9,3.3,0.9,5.3
		c0,2-0.3,3.7-0.9,5.3s-1.4,2.9-2.5,4c-1.1,1.1-2.3,2-3.8,2.5c-1.5,0.6-3.2,0.9-5,0.9c-1.8,0-3.5-0.3-5-0.9
		c-1.5-0.6-2.8-1.4-3.9-2.5c-1.1-1.1-1.9-2.4-2.5-4s-0.9-3.3-0.9-5.3c0-1.9,0.3-3.7,0.9-5.3s1.4-2.9,2.5-4c1.1-1.1,2.3-1.9,3.9-2.5
		C240.9,702.9,242.6,702.6,244.5,702.6z M244.5,723.4c2,0,3.6-0.7,4.5-2.1c1-1.4,1.5-3.4,1.5-6c0-2.7-0.5-4.7-1.5-6.1
		c-1-1.4-2.5-2.1-4.5-2.1c-2.1,0-3.6,0.7-4.6,2.1c-1,1.4-1.5,3.4-1.5,6.1c0,2.6,0.5,4.7,1.5,6C240.8,722.7,242.4,723.4,244.5,723.4z
		"/>
	<path fill="#25DDDF" d="M266.7,706c0.5-0.5,1-1,1.6-1.4c0.6-0.4,1.1-0.8,1.8-1.1c0.6-0.3,1.3-0.5,2-0.7s1.5-0.3,2.3-0.3
		c1.3,0,2.5,0.2,3.6,0.7s1.9,1.1,2.6,1.9c0.7,0.8,1.2,1.8,1.6,3c0.4,1.1,0.5,2.4,0.5,3.8v15.7h-5.9V712c0-1.5-0.3-2.7-1-3.5
		s-1.7-1.2-3.1-1.2c-1,0-2,0.2-2.9,0.7s-1.7,1.1-2.5,1.9v17.8h-5.9V703h3.6c0.8,0,1.3,0.4,1.5,1.1L266.7,706z"/>
</g>
<circle fill="#FFFFFF" cx="50.7" cy="203.2" r="29.7"/>
<g>
	<path fill="#25DDDF" d="M39.3,195.7c0.2-1.7,0.7-3.1,1.4-4.4c0.7-1.3,1.5-2.3,2.6-3.1c1-0.8,2.2-1.5,3.6-1.9
		c1.3-0.4,2.8-0.6,4.3-0.6c1.6,0,3,0.2,4.3,0.7c1.3,0.5,2.4,1.1,3.3,1.9c0.9,0.8,1.6,1.8,2.1,2.8c0.5,1.1,0.7,2.3,0.7,3.5
		c0,1.1-0.1,2.1-0.4,2.9c-0.2,0.8-0.6,1.6-1.1,2.2s-1,1.2-1.7,1.6c-0.7,0.4-1.5,0.8-2.3,1.1c2.1,0.7,3.6,1.7,4.7,3
		c1,1.3,1.5,3,1.5,5.1c0,1.7-0.3,3.3-1,4.6s-1.5,2.4-2.6,3.3s-2.3,1.6-3.8,2.1s-2.9,0.7-4.5,0.7c-1.7,0-3.3-0.2-4.6-0.6
		c-1.3-0.4-2.4-1-3.4-1.8c-1-0.8-1.8-1.7-2.4-2.9c-0.7-1.1-1.2-2.4-1.7-3.9l2.6-1.1c0.7-0.3,1.3-0.4,1.9-0.2c0.6,0.1,1,0.5,1.3,1
		c0.3,0.6,0.6,1.1,0.9,1.7c0.3,0.5,0.8,1,1.2,1.5c0.5,0.4,1,0.8,1.7,1c0.6,0.3,1.4,0.4,2.3,0.4c1,0,1.9-0.2,2.6-0.5
		c0.8-0.3,1.4-0.8,1.9-1.3c0.5-0.5,0.9-1.1,1.1-1.8s0.4-1.3,0.4-2c0-0.8-0.1-1.6-0.3-2.3c-0.2-0.7-0.5-1.3-1.1-1.7
		c-0.6-0.5-1.4-0.9-2.4-1.1c-1-0.3-2.5-0.4-4.2-0.4v-4.2c1.5,0,2.7-0.2,3.6-0.4s1.7-0.6,2.3-1.1s1-1,1.2-1.6
		c0.2-0.6,0.3-1.3,0.3-2.1c0-1.6-0.5-2.9-1.4-3.7c-0.9-0.8-2.1-1.3-3.6-1.3c-0.7,0-1.4,0.1-1.9,0.3c-0.6,0.2-1.1,0.5-1.6,0.8
		s-0.9,0.8-1.2,1.3c-0.3,0.5-0.6,1-0.7,1.6c-0.3,0.7-0.6,1.2-1.1,1.5c-0.4,0.2-1.1,0.3-1.9,0.2L39.3,195.7z"/>
	<path fill="#FFFFFF" d="M113.4,195.7c1.8,0,3.5,0.3,5,0.9c1.5,0.6,2.8,1.4,3.8,2.5c1.1,1.1,1.9,2.4,2.5,4c0.6,1.6,0.9,3.3,0.9,5.3
		c0,2-0.3,3.7-0.9,5.3c-0.6,1.6-1.4,2.9-2.5,4s-2.3,2-3.8,2.5s-3.2,0.9-5,0.9c-1.8,0-3.5-0.3-5-0.9s-2.8-1.4-3.9-2.5
		c-1.1-1.1-1.9-2.4-2.5-4c-0.6-1.6-0.9-3.3-0.9-5.3c0-1.9,0.3-3.7,0.9-5.3c0.6-1.6,1.4-2.9,2.5-4c1.1-1.1,2.3-1.9,3.9-2.5
		C109.9,196,111.5,195.7,113.4,195.7z M113.4,216.6c2,0,3.6-0.7,4.5-2.1c1-1.4,1.5-3.4,1.5-6c0-2.7-0.5-4.7-1.5-6.1
		c-1-1.4-2.5-2.1-4.5-2.1c-2.1,0-3.6,0.7-4.6,2.1c-1,1.4-1.5,3.4-1.5,6.1s0.5,4.7,1.5,6C109.7,215.9,111.3,216.6,113.4,216.6z"/>
	<path fill="#FFFFFF" d="M135.7,199.5c1-1.1,2.2-2.1,3.4-2.8s2.8-1.1,4.5-1.1c1.3,0,2.6,0.3,3.7,0.8c1.1,0.6,2.1,1.4,2.9,2.4
		c0.8,1.1,1.4,2.4,1.9,3.9c0.4,1.6,0.7,3.3,0.7,5.4c0,1.8-0.2,3.5-0.7,5.1c-0.5,1.6-1.2,2.9-2.1,4.1s-2,2.1-3.3,2.7
		c-1.3,0.6-2.8,1-4.4,1c-1.4,0-2.6-0.2-3.5-0.6s-1.8-1-2.6-1.8v10.1H130v-32.7h3.6c0.8,0,1.3,0.4,1.5,1.1L135.7,199.5z M136,214.4
		c0.7,0.8,1.4,1.4,2.2,1.7c0.8,0.3,1.7,0.5,2.6,0.5c0.9,0,1.7-0.2,2.4-0.5c0.7-0.3,1.3-0.8,1.8-1.5s0.9-1.6,1.2-2.6
		c0.3-1,0.4-2.3,0.4-3.7c0-1.4-0.1-2.7-0.3-3.7c-0.2-1-0.6-1.8-1-2.4c-0.4-0.6-1-1.1-1.6-1.4c-0.6-0.3-1.3-0.4-2.1-0.4
		c-1.2,0-2.3,0.3-3.1,0.8c-0.9,0.5-1.7,1.3-2.4,2.2V214.4z"/>
	<path fill="#FFFFFF" d="M181.8,220.8h-5.9v-20.2h-11.4v13.3c0,0.8,0.2,1.4,0.6,1.8s0.9,0.6,1.5,0.6c0.4,0,0.7,0,0.9-0.1
		c0.2-0.1,0.5-0.2,0.6-0.3c0.2-0.1,0.3-0.2,0.5-0.3c0.1-0.1,0.3-0.1,0.4-0.1c0.2,0,0.3,0,0.4,0.1c0.1,0.1,0.2,0.2,0.4,0.4l1.8,2.9
		c-0.9,0.7-1.9,1.3-3,1.6c-1.1,0.4-2.3,0.6-3.5,0.6c-2.1,0-3.8-0.6-4.9-1.8c-1.1-1.2-1.7-2.9-1.7-5v-13.8H156
		c-0.3,0-0.6-0.1-0.8-0.3c-0.2-0.2-0.3-0.5-0.3-0.9V197l4-0.7l1.2-6.7c0.1-0.3,0.2-0.6,0.5-0.7c0.2-0.2,0.5-0.3,0.9-0.3h3.1v7.8
		h17.4V220.8z M182.8,188.9c0,0.5-0.1,1-0.3,1.5s-0.5,0.9-0.8,1.2c-0.3,0.3-0.8,0.6-1.2,0.8c-0.5,0.2-1,0.3-1.5,0.3
		c-0.5,0-1-0.1-1.4-0.3c-0.4-0.2-0.8-0.5-1.2-0.8s-0.6-0.7-0.8-1.2s-0.3-0.9-0.3-1.5c0-0.5,0.1-1,0.3-1.5s0.5-0.9,0.8-1.2
		s0.7-0.6,1.2-0.8c0.4-0.2,0.9-0.3,1.4-0.3c0.5,0,1,0.1,1.5,0.3c0.5,0.2,0.9,0.5,1.2,0.8c0.3,0.3,0.6,0.7,0.8,1.2
		S182.8,188.3,182.8,188.9z"/>
	<path fill="#FFFFFF" d="M187.9,220.8v-24.6h3.6c0.8,0,1.3,0.4,1.5,1.1l0.4,1.8c0.4-0.5,0.9-0.9,1.4-1.3c0.5-0.4,1-0.7,1.5-1
		c0.5-0.3,1.1-0.5,1.7-0.7c0.6-0.2,1.3-0.3,2-0.3c1.6,0,2.8,0.4,3.8,1.3s1.7,2,2.2,3.3c0.4-0.8,0.9-1.5,1.4-2.1
		c0.6-0.6,1.2-1.1,1.9-1.4c0.7-0.4,1.4-0.6,2.2-0.8c0.8-0.2,1.6-0.3,2.3-0.3c1.4,0,2.6,0.2,3.6,0.6s1.9,1,2.7,1.8
		c0.7,0.8,1.3,1.8,1.6,2.9c0.4,1.2,0.6,2.5,0.6,4v15.7h-5.9v-15.7c0-1.6-0.3-2.7-1-3.5c-0.7-0.8-1.7-1.2-3-1.2
		c-0.6,0-1.2,0.1-1.7,0.3c-0.5,0.2-1,0.5-1.4,0.9c-0.4,0.4-0.7,0.9-0.9,1.5c-0.2,0.6-0.3,1.3-0.3,2v15.7h-6v-15.7
		c0-1.6-0.3-2.8-1-3.6c-0.7-0.8-1.6-1.1-2.9-1.1c-0.9,0-1.7,0.2-2.4,0.6c-0.7,0.4-1.4,1-2.1,1.7v18H187.9z"/>
	<path fill="#FFFFFF" d="M235,189c0,0.5-0.1,1-0.3,1.4c-0.2,0.4-0.5,0.8-0.8,1.2c-0.3,0.3-0.7,0.6-1.2,0.8c-0.5,0.2-1,0.3-1.5,0.3
		c-0.5,0-1-0.1-1.5-0.3s-0.9-0.5-1.2-0.8c-0.3-0.3-0.6-0.7-0.8-1.2s-0.3-0.9-0.3-1.4c0-0.5,0.1-1,0.3-1.5c0.2-0.5,0.5-0.9,0.8-1.2
		c0.3-0.3,0.7-0.6,1.2-0.8c0.5-0.2,0.9-0.3,1.5-0.3c0.5,0,1,0.1,1.5,0.3c0.5,0.2,0.9,0.5,1.2,0.8c0.3,0.3,0.6,0.7,0.8,1.2
		C234.9,187.9,235,188.4,235,189z M234.2,196.1v24.6h-6v-24.6H234.2z"/>
	<path fill="#FFFFFF" d="M257.9,198.6c0,0.4-0.1,0.8-0.2,1.2c-0.1,0.4-0.3,0.7-0.6,1l-11.7,15.4h12.1v4.6h-19v-2.5
		c0-0.3,0.1-0.6,0.2-1s0.3-0.7,0.6-1.1l11.8-15.6h-11.9v-4.5h18.7V198.6z"/>
	<path fill="#FFFFFF" d="M261.7,199.6c2.8-2.6,6.2-3.9,10.2-3.9c1.4,0,2.7,0.2,3.9,0.7c1.1,0.5,2.1,1.1,2.9,2c0.8,0.8,1.4,1.8,1.8,3
		c0.4,1.2,0.6,2.4,0.6,3.8v15.6h-2.7c-0.6,0-1-0.1-1.3-0.3s-0.5-0.5-0.7-1l-0.5-1.8c-0.6,0.6-1.2,1.1-1.8,1.5
		c-0.6,0.4-1.2,0.8-1.8,1.1s-1.3,0.5-2.1,0.7c-0.7,0.2-1.5,0.2-2.4,0.2c-1,0-2-0.1-2.9-0.4s-1.6-0.7-2.3-1.3s-1.1-1.3-1.5-2.1
		c-0.4-0.8-0.5-1.8-0.5-2.9c0-0.6,0.1-1.2,0.3-1.9c0.2-0.6,0.5-1.2,1-1.8c0.5-0.6,1.1-1.1,1.8-1.6c0.8-0.5,1.7-0.9,2.8-1.3
		c1.1-0.4,2.4-0.7,3.8-0.9s3.1-0.4,5-0.4v-1.4c0-1.6-0.4-2.9-1.1-3.7s-1.7-1.2-3-1.2c-1,0-1.8,0.1-2.4,0.3s-1.2,0.5-1.7,0.8
		c-0.5,0.3-0.9,0.5-1.3,0.8c-0.4,0.2-0.8,0.3-1.3,0.3c-0.4,0-0.8-0.1-1.1-0.3s-0.5-0.5-0.7-0.8L261.7,199.6z M275.3,210.2
		c-1.7,0.1-3.2,0.2-4.3,0.4c-1.2,0.2-2.1,0.5-2.8,0.8c-0.7,0.3-1.2,0.7-1.5,1.2c-0.3,0.4-0.5,0.9-0.5,1.5c0,1,0.3,1.8,0.9,2.2
		c0.6,0.4,1.4,0.7,2.4,0.7c1.2,0,2.3-0.2,3.2-0.7c0.9-0.4,1.8-1.1,2.6-2V210.2z"/>
	<path fill="#FFFFFF" d="M311.2,220.8h-5.9v-20.2h-11.4v13.3c0,0.8,0.2,1.4,0.6,1.8s0.9,0.6,1.5,0.6c0.4,0,0.7,0,0.9-0.1
		c0.2-0.1,0.5-0.2,0.6-0.3c0.2-0.1,0.3-0.2,0.5-0.3c0.1-0.1,0.3-0.1,0.4-0.1c0.2,0,0.3,0,0.4,0.1c0.1,0.1,0.2,0.2,0.4,0.4l1.8,2.9
		c-0.9,0.7-1.9,1.3-3,1.6c-1.1,0.4-2.3,0.6-3.5,0.6c-2.1,0-3.8-0.6-4.9-1.8c-1.1-1.2-1.7-2.9-1.7-5v-13.8h-2.5
		c-0.3,0-0.6-0.1-0.8-0.3c-0.2-0.2-0.3-0.5-0.3-0.9V197l4-0.7l1.2-6.7c0.1-0.3,0.2-0.6,0.5-0.7c0.2-0.2,0.5-0.3,0.9-0.3h3.1v7.8
		h17.4V220.8z M312.2,188.9c0,0.5-0.1,1-0.3,1.5s-0.5,0.9-0.8,1.2c-0.3,0.3-0.8,0.6-1.2,0.8c-0.5,0.2-1,0.3-1.5,0.3
		c-0.5,0-1-0.1-1.4-0.3c-0.4-0.2-0.8-0.5-1.2-0.8s-0.6-0.7-0.8-1.2s-0.3-0.9-0.3-1.5c0-0.5,0.1-1,0.3-1.5s0.5-0.9,0.8-1.2
		s0.7-0.6,1.2-0.8c0.4-0.2,0.9-0.3,1.4-0.3c0.5,0,1,0.1,1.5,0.3c0.5,0.2,0.9,0.5,1.2,0.8c0.3,0.3,0.6,0.7,0.8,1.2
		S312.2,188.3,312.2,188.9z"/>
	<path fill="#FFFFFF" d="M328.1,195.7c1.8,0,3.5,0.3,5,0.9c1.5,0.6,2.8,1.4,3.8,2.5c1.1,1.1,1.9,2.4,2.5,4c0.6,1.6,0.9,3.3,0.9,5.3
		c0,2-0.3,3.7-0.9,5.3c-0.6,1.6-1.4,2.9-2.5,4s-2.3,2-3.8,2.5s-3.2,0.9-5,0.9c-1.8,0-3.5-0.3-5-0.9s-2.8-1.4-3.9-2.5
		c-1.1-1.1-1.9-2.4-2.5-4c-0.6-1.6-0.9-3.3-0.9-5.3c0-1.9,0.3-3.7,0.9-5.3c0.6-1.6,1.4-2.9,2.5-4c1.1-1.1,2.3-1.9,3.9-2.5
		C324.6,196,326.3,195.7,328.1,195.7z M328.1,216.6c2,0,3.6-0.7,4.5-2.1c1-1.4,1.5-3.4,1.5-6c0-2.7-0.5-4.7-1.5-6.1
		c-1-1.4-2.5-2.1-4.5-2.1c-2.1,0-3.6,0.7-4.6,2.1c-1,1.4-1.5,3.4-1.5,6.1s0.5,4.7,1.5,6C324.5,215.9,326,216.6,328.1,216.6z"/>
	<path fill="#FFFFFF" d="M350.3,199.2c0.5-0.5,1-1,1.6-1.4c0.6-0.4,1.1-0.8,1.8-1.1c0.6-0.3,1.3-0.5,2-0.7s1.5-0.3,2.3-0.3
		c1.3,0,2.5,0.2,3.6,0.7c1,0.5,1.9,1.1,2.6,1.9s1.2,1.8,1.6,3c0.4,1.1,0.5,2.4,0.5,3.8v15.7h-5.9v-15.7c0-1.5-0.3-2.7-1-3.5
		c-0.7-0.8-1.7-1.2-3.1-1.2c-1,0-2,0.2-2.9,0.7c-0.9,0.5-1.7,1.1-2.5,1.9v17.8h-5.9v-24.6h3.6c0.8,0,1.3,0.4,1.5,1.1L350.3,199.2z"
		/>
</g>
</svg>
