<?xml version="1.0" encoding="utf-8"?>
<!-- Generator: Adobe Illustrator 18.0.0, SVG Export Plug-In . SVG Version: 6.00 Build 0)  -->
<!DOCTYPE svg PUBLIC "-//W3C//DTD SVG 1.1//EN" "http://www.w3.org/Graphics/SVG/1.1/DTD/svg11.dtd">
<svg version="1.1" id="Calque_1" xmlns="http://www.w3.org/2000/svg" xmlns:xlink="http://www.w3.org/1999/xlink" x="0px" y="0px"
	 viewBox="0 240 800 800" enable-background="new 0 240 800 800" xml:space="preserve">
<g>
	<g>
		<path fill="#FFFFFF" d="M400,1040C179.6,1040,0,860.4,0,640s179.6-400,400-400s400,179.6,400,400S620.4,1040,400,1040L400,1040z
			 M400,257.8C188.4,257.8,17.8,428.4,17.8,640s170.7,382.2,382.2,382.2S782.2,851.6,782.2,640S611.6,257.8,400,257.8L400,257.8z"/>
	</g>
</g>
<g>
	<g>
		<path fill="#FFFFFF" d="M275.1,438.1c0.9,0,1.7,0.1,2.6,0.4l111.6,32.9c2.4,0.7,4.4,2.3,5.5,4.5c1.2,2.2,1.5,4.7,0.7,7.1
			L330,705.7c-0.7,2.4-2.3,4.4-4.5,5.5c-2.2,1.2-4.7,1.5-7.1,0.7L206.8,679c-4.9-1.5-7.7-6.6-6.3-11.5l65.6-222.8
			C267.3,440.7,271,438.1,275.1,438.1L275.1,438.1z M221,663.9l93.8,27.7l60.4-205l-93.8-27.6L221,663.9L221,663.9z"/>
	</g>
	<g>
		<path fill="#FFFFFF" d="M520.3,526.4c23.2,0,38.9,7.8,44.3,22.1c0.8,2.3,1.5,4.6,2,6.9c14.7,7.3,24.4,21.7,25.3,37.8
			c0.1,1.5,0.2,3,0.1,4.6c10.2,8,16.6,19.9,17.3,32.8c0.3,4.9-0.2,9.9-1.6,14.7c8.3,9.5,12.8,21.3,12.8,33.9
			c0,28.7-23.4,52.1-52.3,52.1l-7.9-0.1c-53.5,0-78,7.1-80.7,10.9c0,5.5,0.3,11.4,0.8,17.7c0.4,3,0.8,6,1.3,8.9
			c0.7,4.9,1.4,9.7,1.8,14.1c2.7,33.5-3.6,61.3-17.3,76.2c-5.9,6.4-12.8,9.8-19.9,9.8c-0.2,0-23-0.1-33.1-11.5
			c-3.8-4.2-5.4-9.4-4.8-15c0.4-3.8,3.8-38-4.2-64.7c-13.9-25.5-57.6-73.3-82.4-93c-3-2.4-4.2-6.3-3.1-9.9l40-135.8
			c1.4-4.7,6.2-7.6,11.1-6.4c8.9,2.1,28.1,4.7,60,1.8l28.9-2.5c19.6-1.7,36.8-3.1,48.1-4.6C510.8,526.8,515.5,526.4,520.3,526.4
			L520.3,526.4z M402.8,554.2c-10.8,0-20.4-0.7-28.8-2L338.1,674c27,23,68.1,68.6,83,96.4c9.9,32,6.1,69.7,5.6,74.2
			c1.1,2.6,12.5,5.6,19.4,5.6c1.7,0,4-1.4,6.2-3.8c7.8-8.4,15.1-29.1,12.5-62.1c-0.3-4-1-8.3-1.7-12.9c-0.4-3-0.9-6.1-1.3-9.7
			c-0.6-7.2-0.9-13.7-0.9-19.3c-0.1-3.3,0.8-8.2,5.3-12.8c13.7-14.1,58.7-17,94-17c5,0,8.1,0.1,8.2,0.1c18.5,0,33.5-15.1,33.5-33.5
			c0-9.4-4-18.2-11.1-24.7c-3-2.7-3.9-6.9-2.3-10.6c1.8-4,2.5-8.1,2.3-12.3c-0.5-8.8-5.4-16.8-13.3-21.4c-3.4-2-5.2-5.9-4.4-9.7
			c0.4-2.2,0.5-4.1,0.4-6.1c-0.6-10.8-7.8-20.1-18.2-23.8c-3.4-1.2-5.7-4.2-6.1-7.8c-0.3-2.7-0.9-5.3-1.9-8
			c-3.5-9.2-21.4-9.9-26.8-9.9c-4.1,0-8,0.4-11.4,0.8c-11.4,1.5-28.8,2.9-48.8,4.6l-28.8,2.5C420.9,553.7,411.4,554.2,402.8,554.2
			L402.8,554.2z"/>
	</g>
</g>
</svg>
