<?xml version="1.0" encoding="utf-8"?>
<!-- Generator: Adobe Illustrator 18.0.0, SVG Export Plug-In . SVG Version: 6.00 Build 0)  -->
<!DOCTYPE svg PUBLIC "-//W3C//DTD SVG 1.1//EN" "http://www.w3.org/Graphics/SVG/1.1/DTD/svg11.dtd">
<svg version="1.1" id="Calque_1" xmlns="http://www.w3.org/2000/svg" xmlns:xlink="http://www.w3.org/1999/xlink" x="0px" y="0px"
	 viewBox="0 0 45 45" enable-background="new 0 0 45 45" xml:space="preserve">
<g>
	<g>
		<path fill="#321C52" d="M22.5,45C10.1,45,0,34.9,0,22.5C0,10.1,10.1,0,22.5,0C34.9,0,45,10.1,45,22.5C45,34.9,34.9,45,22.5,45
			L22.5,45z M22.5,1C10.6,1,1,10.6,1,22.5C1,34.4,10.6,44,22.5,44S44,34.4,44,22.5C44,10.6,34.4,1,22.5,1L22.5,1z"/>
	</g>
</g>
<g>
	<circle fill="#321C52" cx="17.1" cy="23.1" r="0.9"/>
	<g>
		<path fill="#321C52" d="M27.3,21c-0.1,0-0.2,0-0.2-0.1c-1.7-0.9-3.8-1.4-6-1.2c-0.3,0-0.5-0.2-0.5-0.5c0-0.3,0.2-0.5,0.5-0.5
			c2.3-0.2,4.6,0.3,6.5,1.3c0.2,0.1,0.3,0.4,0.2,0.7C27.6,21,27.5,21,27.3,21L27.3,21z"/>
	</g>
	<g>
		<path fill="#321C52" d="M24.9,19.9c-2.7,0-5-2.2-5-5c0-2.7,2.2-5,5-5c2.7,0,5,2.2,5,5C29.9,17.7,27.7,19.9,24.9,19.9L24.9,19.9z
			 M24.9,11c-2.2,0-4,1.8-4,4c0,2.2,1.8,4,4,4c2.2,0,4-1.8,4-4C28.9,12.8,27.1,11,24.9,11L24.9,11z"/>
	</g>
	<g>
		<path fill="#321C52" d="M24.9,17.6c-1.4,0-2.6-1.2-2.6-2.6c0-1.4,1.2-2.6,2.6-2.6c1.4,0,2.6,1.2,2.6,2.6
			C27.6,16.4,26.4,17.6,24.9,17.6L24.9,17.6z M24.9,13.4c-0.9,0-1.6,0.7-1.6,1.6c0,0.9,0.7,1.6,1.6,1.6c0.9,0,1.6-0.7,1.6-1.6
			C26.6,14.1,25.8,13.4,24.9,13.4L24.9,13.4z"/>
	</g>
	<g>
		<path fill="#321C52" d="M28.2,35h-1.5c-1,0-1.8-0.8-1.8-1.8v-0.1c-1.5,0.3-3.1,0.3-4.6,0.1c0,1-0.8,1.8-1.8,1.8h-1.5
			c-1,0-1.8-0.8-1.8-1.8V31c-1.1-0.9-2-2.1-2.5-3.3h-0.2c-1,0-1.8-0.8-1.8-1.8v-1.5c0-1,0.8-1.8,1.8-1.8h0.2
			c0.5-1.2,1.4-2.4,2.5-3.3v-1.7c0-0.2,0.1-0.4,0.3-0.4c1-0.5,2.3-0.3,3,0.4c0.8-0.3,1.7-0.4,2.6-0.5l0.1,1
			c-0.9,0.1-1.8,0.3-2.7,0.6c-0.2,0.1-0.4,0-0.6-0.2c-0.4-0.5-1.1-0.8-1.8-0.5v1.7c0,0.2-0.1,0.3-0.2,0.4c-1.2,0.9-2.1,2.1-2.5,3.3
			c-0.1,0.2-0.3,0.3-0.5,0.3h-0.6c-0.4,0-0.8,0.4-0.8,0.8v1.5c0,0.4,0.4,0.8,0.8,0.8h0.6c0.2,0,0.4,0.1,0.5,0.3
			c0.4,1.3,1.3,2.4,2.5,3.3c0.1,0.1,0.2,0.2,0.2,0.4v2.4c0,0.4,0.4,0.8,0.8,0.8h1.5c0.4,0,0.8-0.4,0.8-0.8v-0.6
			c0-0.2,0.1-0.3,0.2-0.4c0.1-0.1,0.3-0.1,0.4-0.1c1.8,0.4,3.6,0.4,5.3-0.1c0.1,0,0.3,0,0.4,0.1c0.1,0.1,0.2,0.2,0.2,0.4v0.7
			c0,0.4,0.4,0.8,0.8,0.8h1.5c0.4,0,0.8-0.4,0.8-0.8v-2.8c0-0.1,0.1-0.3,0.2-0.4c1.5-1.3,2.4-3.1,2.4-4.9c0-0.2,0.1-0.5,0.4-0.6
			c0.6-0.2,1-0.6,1.2-1.2c-0.2,0.3-0.6,0.6-1,0.8c-0.1,0.1-0.3,0.1-0.4,0c-0.1-0.1-0.2-0.2-0.3-0.3c-0.4-2-2-3.8-4.2-4.8l0.4-0.9
			c2.2,1.1,3.8,2.8,4.5,4.8c0.2-0.3,0.4-0.7,0.4-1c0-0.1,0-0.2,0-0.3c0-0.2,0.1-0.4,0.3-0.5c0.2-0.1,0.4-0.1,0.6,0.1
			c0.5,0.5,0.8,1.1,0.8,1.8c0,1.1-0.6,2-1.6,2.4c-0.1,2-1,3.8-2.6,5.2v2.6C30,34.2,29.2,35,28.2,35L28.2,35z"/>
	</g>
</g>
</svg>
