<?xml version="1.0" encoding="utf-8"?>
<!-- Generator: Adobe Illustrator 18.0.0, SVG Export Plug-In . SVG Version: 6.00 Build 0)  -->
<!DOCTYPE svg PUBLIC "-//W3C//DTD SVG 1.1//EN" "http://www.w3.org/Graphics/SVG/1.1/DTD/svg11.dtd">
<svg version="1.1" id="Calque_1" xmlns="http://www.w3.org/2000/svg" xmlns:xlink="http://www.w3.org/1999/xlink" x="0px" y="0px"
	 viewBox="0 0 45 45" enable-background="new 0 0 45 45" xml:space="preserve">
<g>
	<g>
		<path fill="#321C52" d="M22.5,45C10.1,45,0,34.9,0,22.5C0,10.1,10.1,0,22.5,0C34.9,0,45,10.1,45,22.5C45,34.9,34.9,45,22.5,45
			L22.5,45z M22.5,1C10.6,1,1,10.6,1,22.5C1,34.4,10.6,44,22.5,44C34.4,44,44,34.4,44,22.5C44,10.6,34.4,1,22.5,1L22.5,1z"/>
	</g>
</g>
<g>
	<g>
		<path fill="#321C52" d="M29.5,34h-14c-0.3,0-0.5-0.2-0.5-0.5v-22c0-0.3,0.2-0.5,0.5-0.5h14c0.3,0,0.5,0.2,0.5,0.5v22
			C30,33.8,29.8,34,29.5,34L29.5,34z M16,33h13V12H16V33L16,33z"/>
	</g>
	<g>
		<path fill="#321C52" d="M27.5,28h-10c-0.3,0-0.5-0.2-0.5-0.5V14.8c0-0.3,0.2-0.5,0.5-0.5h10c0.3,0,0.5,0.2,0.5,0.5v12.7
			C28,27.8,27.8,28,27.5,28L27.5,28z M18,27h9V15.3h-9V27L18,27z"/>
	</g>
	<circle fill="#321C52" cx="22.5" cy="30.2" r="1.2"/>
</g>
</svg>
