<?xml version="1.0" encoding="utf-8"?>
<!-- Generator: Adobe Illustrator 18.0.0, SVG Export Plug-In . SVG Version: 6.00 Build 0)  -->
<!DOCTYPE svg PUBLIC "-//W3C//DTD SVG 1.1//EN" "http://www.w3.org/Graphics/SVG/1.1/DTD/svg11.dtd">
<svg version="1.1" id="Calque_1" xmlns="http://www.w3.org/2000/svg" xmlns:xlink="http://www.w3.org/1999/xlink" x="0px" y="0px"
	 viewBox="0 0 1280 800" enable-background="new 0 0 1280 800" xml:space="preserve">
<g opacity="0.5">
	
		<linearGradient id="SVGID_1_" gradientUnits="userSpaceOnUse" x1="650.1703" y1="127.2994" x2="650.1703" y2="768.0611" gradientTransform="matrix(1 0 0 -1 0 800)">
		<stop  offset="0" style="stop-color:#808080;stop-opacity:0.25"/>
		<stop  offset="0.54" style="stop-color:#808080;stop-opacity:0.12"/>
		<stop  offset="1" style="stop-color:#808080;stop-opacity:0.1"/>
	</linearGradient>
	<rect x="377.5" y="31.9" fill="url(#SVGID_1_)" width="545.4" height="640.8"/>
</g>
<rect x="394.2" y="42.3" fill="#FFFFFF" width="517" height="616.3"/>
<rect x="471.6" y="312.6" fill="#E0E0E0" width="363.6" height="15.5"/>
<rect x="471.6" y="414.5" fill="#E0E0E0" width="363.6" height="15.5"/>
<rect x="471.6" y="441.6" fill="#E0E0E0" width="363.6" height="15.5"/>
<rect x="471.6" y="387.4" fill="#E0E0E0" width="153.4" height="15.5"/>
<rect x="697.1" y="208.4" fill="#FD953A" width="136.9" height="47.4"/>
<g opacity="0.5">
	
		<linearGradient id="SVGID_2_" gradientUnits="userSpaceOnUse" x1="386.3219" y1="559.1404" x2="386.3219" y2="662.5239" gradientTransform="matrix(1 0 0 -1 0 800)">
		<stop  offset="0" style="stop-color:#808080;stop-opacity:0.25"/>
		<stop  offset="0.54" style="stop-color:#808080;stop-opacity:0.12"/>
		<stop  offset="1" style="stop-color:#808080;stop-opacity:0.1"/>
	</linearGradient>
	<circle fill="url(#SVGID_2_)" cx="386.3" cy="189.2" r="51.7"/>
</g>
<circle fill="#69F0AE" cx="386.3" cy="189.2" r="48.7"/>
<polygon fill="#FFFFFF" points="365.9,181.8 384.2,198.5 410,160.5 419.1,168.1 384.2,213.7 358.3,184.9 "/>
<g opacity="0.5">
	<rect x="478.3" y="96.9" fill="#25DDDF" width="209.3" height="162.5"/>
</g>
<path opacity="5.000000e-02" enable-background="new    " d="M579.4,166.9c2.3,0.8,3.2,1.4,5.8,1.4c5.3,0,10.5-2,14.4-5.5v-0.2
	h-20.2V166.9z"/>
<circle fill="#FFFF00" cx="566.5" cy="139.5" r="0"/>
<path fill="#FFFF00" d="M566.4,139.5"/>
<rect x="617" y="227.2" fill="#FDA57D" width="12.7" height="31.8"/>
<polygon fill="#FFFFFF" points="616.2,218.2 616.2,227.2 633,227.2 632,216.9 "/>
<polygon fill="#FDA57D" points="546.2,227.2 546.2,259.6 556.5,259.6 557.7,229.6 "/>
<polygon fill="#FFFFFF" points="548.8,216.9 544.9,227.2 557.6,233.1 557.8,227.2 "/>
<polygon opacity="5.000000e-02" enable-background="new    " points="573.5,176.4 578.6,187.8 585.9,181.8 578.8,173.5 "/>
<polygon opacity="5.000000e-02" enable-background="new    " points="600.6,170.2 605.2,173.3 592,185.7 587.4,181.7 "/>
<path opacity="5.000000e-02" enable-background="new    " d="M558.8,224.4c0-10,3.2-19.8,9.3-27.8"/>
<polygon opacity="5.000000e-02" enable-background="new    " points="610.6,216.6 610.6,212 615.2,215.1 612.2,214.3 "/>
<polygon opacity="5.000000e-02" enable-background="new    " points="616.8,227.5 617,228.3 629.8,228.3 629.9,227.5 "/>
<polygon opacity="5.000000e-02" enable-background="new    " points="546.2,227.8 546.2,228.7 557.5,233.6 557.2,232.9 "/>
<ellipse fill="#FDA57D" cx="606" cy="145.9" rx="2.2" ry="3.6"/>
<ellipse fill="#FFFF00" cx="586.1" cy="143.4" rx="26.1" ry="31.1"/>
<circle fill="#FDA57D" cx="586.7" cy="140.3" r="18.6"/>
<circle fill="#FDA57D" cx="585.9" cy="145.9" r="21.6"/>
<rect x="569.9" y="119.8" fill="#FFFF00" width="32.3" height="16.2"/>
<rect x="578.7" y="161.8" fill="#FDA57D" width="21.6" height="31.7"/>
<path fill="#235067" d="M586.4,181.9l-7.5-9.1c0,0-30.1,10.4-30.1,44.1l9.1,10.4l-1.3,32.4h53.2c0,0,3.9-33.7,2.6-44.1l3.9,2.6h15.6
	c0,0,6-36.3-31.6-48L586.4,181.9z"/>
<polygon fill="#FFFFFF" points="573.5,175 578.6,186.4 585.9,180.4 578.8,172.2 "/>
<polygon fill="#FFFFFF" points="600.6,168.8 605.2,171.9 592,184.3 587.4,180.3 "/>
<g>
	<path fill="#E0E0E0" d="M706.1,120.7L706.1,120.7l-4.8,2.5l-0.7-2.8l5.9-3.2h3.1v27.1h-3.5V120.7z"/>
	<path fill="#E0E0E0" d="M719.5,144.4v-2.3l2.9-2.8c6.9-6.6,10.1-10.1,10.1-14.2c0-2.8-1.3-5.3-5.4-5.3c-2.5,0-4.5,1.3-5.8,2.3
		l-1.2-2.6c1.9-1.6,4.5-2.8,7.7-2.8c5.8,0,8.3,4,8.3,7.9c0,5-3.6,9.1-9.3,14.6l-2.2,2v0.1h12.2v3H719.5z"/>
	<path fill="#E0E0E0" d="M759,130.5c0,9.2-3.4,14.3-9.4,14.3c-5.3,0-8.9-5-9-13.9c0-9.1,3.9-14.1,9.4-14.1
		C755.7,116.8,759,121.9,759,130.5z M744.2,130.9c0,7,2.2,11.1,5.5,11.1c3.8,0,5.5-4.4,5.5-11.3c0-6.7-1.7-11.1-5.5-11.1
		C746.6,119.6,744.2,123.5,744.2,130.9z"/>
</g>
<rect x="699.9" y="172.4" fill="#E0E0E0" width="163.5" height="7"/>
<rect x="699.9" y="184.5" fill="#E0E0E0" width="163.5" height="7"/>
<rect x="699.9" y="160.2" fill="#E0E0E0" width="69" height="7"/>
</svg>
