<?xml version="1.0" encoding="utf-8"?>
<!-- Generator: Adobe Illustrator 18.0.0, SVG Export Plug-In . SVG Version: 6.00 Build 0)  -->
<!DOCTYPE svg PUBLIC "-//W3C//DTD SVG 1.1//EN" "http://www.w3.org/Graphics/SVG/1.1/DTD/svg11.dtd">
<svg version="1.1" id="Calque_1" xmlns="http://www.w3.org/2000/svg" xmlns:xlink="http://www.w3.org/1999/xlink" x="0px" y="0px"
	 viewBox="0 0 1280 800" enable-background="new 0 0 1280 800" xml:space="preserve">
<linearGradient id="SVGID_1_" gradientUnits="userSpaceOnUse" x1="437.3074" y1="521.9504" x2="437.3074" y2="534.6704" gradientTransform="matrix(1 0 0 -1 0 800)">
	<stop  offset="0" style="stop-color:#808080;stop-opacity:0.25"/>
	<stop  offset="0.54" style="stop-color:#808080;stop-opacity:0.12"/>
	<stop  offset="1" style="stop-color:#808080;stop-opacity:0.1"/>
</linearGradient>
<rect x="241" y="265.3" fill="url(#SVGID_1_)" width="392.5" height="12.7"/>
<linearGradient id="SVGID_2_" gradientUnits="userSpaceOnUse" x1="437.3074" y1="503.7704" x2="437.3074" y2="516.4904" gradientTransform="matrix(1 0 0 -1 0 800)">
	<stop  offset="0" style="stop-color:#808080;stop-opacity:0.25"/>
	<stop  offset="0.54" style="stop-color:#808080;stop-opacity:0.12"/>
	<stop  offset="1" style="stop-color:#808080;stop-opacity:0.1"/>
</linearGradient>
<rect x="241" y="283.5" fill="url(#SVGID_2_)" width="392.5" height="12.7"/>
<linearGradient id="SVGID_3_" gradientUnits="userSpaceOnUse" x1="437.3074" y1="485.6004" x2="437.3074" y2="498.3204" gradientTransform="matrix(1 0 0 -1 0 800)">
	<stop  offset="0" style="stop-color:#808080;stop-opacity:0.25"/>
	<stop  offset="0.54" style="stop-color:#808080;stop-opacity:0.12"/>
	<stop  offset="1" style="stop-color:#808080;stop-opacity:0.1"/>
</linearGradient>
<rect x="241" y="301.7" fill="url(#SVGID_3_)" width="392.5" height="12.7"/>
<linearGradient id="SVGID_4_" gradientUnits="userSpaceOnUse" x1="437.3074" y1="467.4304" x2="437.3074" y2="480.1504" gradientTransform="matrix(1 0 0 -1 0 800)">
	<stop  offset="0" style="stop-color:#808080;stop-opacity:0.25"/>
	<stop  offset="0.54" style="stop-color:#808080;stop-opacity:0.12"/>
	<stop  offset="1" style="stop-color:#808080;stop-opacity:0.1"/>
</linearGradient>
<rect x="241" y="319.8" fill="url(#SVGID_4_)" width="392.5" height="12.7"/>
<rect x="242.9" y="267.1" fill="#E0E0E0" width="388.9" height="9.1"/>
<rect x="242.9" y="285.3" fill="#E0E0E0" width="388.9" height="9.1"/>
<rect x="242.9" y="303.5" fill="#E0E0E0" width="388.9" height="9.1"/>
<rect x="242.9" y="321.7" fill="#E0E0E0" width="388.9" height="9.1"/>
<linearGradient id="SVGID_5_" gradientUnits="userSpaceOnUse" x1="938.0551" y1="16.7505" x2="938.0551" y2="562.9409" gradientTransform="matrix(1 0 0 -1 -147 692.7)">
	<stop  offset="0" style="stop-color:#808080;stop-opacity:0.25"/>
	<stop  offset="0.54" style="stop-color:#808080;stop-opacity:0.12"/>
	<stop  offset="1" style="stop-color:#808080;stop-opacity:0.1"/>
</linearGradient>
<path fill="url(#SVGID_5_)" d="M980.3,468.2l-3.5-25.6l-8.2-22.1l-22.1-82.7l-0.2,0.1l0,0l-0.1,0.1c0.4-1.3,0.4-2.6,0-3.9
	c-2.3-11.7-6.5-22.9-11.1-33.9c-4.1-9.8-8.6-19.4-15-27.9l-0.9-1.2c1.5,0.7,2.9,1.4,4.4,2s3.2,1.4,4.8,2.2l0.8,0.4
	c0.5,0.3,1,0.6,1.4,1c0.2,0.2,0.4,0.3,0.7,0.5c0.4,0.4,0.8,0.7,1.2,1.1c0.2,0.2,0.4,0.4,0.5,0.6c0.5,0.7,0.9,1.4,1.2,2.2
	c0.1,0.3,0.2,0.6,0.3,0.9c0.2,0.6,0.3,1.2,0.4,1.8c0.2,0.9,0.3,1.8,0.5,2.7c1.2,4.7,5.4,7.8,10.2,8.8c0.6,0.1,1.2,0.2,1.8,0.3
	c0.6,0.1,1.2,0.1,1.8,0.1c2.1,0,4.1-0.5,5.9-1.5c1.3-0.7,2.5-1.7,3.4-2.8c3.8-4.9,3.8-11.9,7.1-17.1c1.7-2.7,4.2-4.9,5.7-7.7
	c4.6-8.7-1.7-18.8-4-28.4c-2.4-10-0.4-20.4-0.7-30.6c-0.6-21.2-11.6-41.5-27.8-55.2c-16.2-13.7-37.3-21-58.5-22.3
	c-12.9-0.8-26.8,1-37.4,7.8l0,0c-0.7,0.5-1.4,1-2.1,1.5l-0.6,0.5c-0.5,0.4-1,0.8-1.5,1.2l-0.6,0.5c-0.7,0.6-1.3,1.2-1.9,1.8
	c-1.6,1.7-3.1,3.5-4.4,5.4c-4.4,6.3-7.5,13.6-11.5,20.2c-0.3,0.5-0.6,1-1,1.5l-0.3,0.5l-0.7,1l-0.4,0.6l-0.6,0.8l-0.5,0.7l-0.6,0.8
	l-0.6,0.7l-0.6,0.7l-0.6,0.7l-0.6,0.6l-0.7,0.7l-0.6,0.6c-0.2,0.2-0.5,0.4-0.7,0.6c-2.6,2.4-5.6,4.3-8.8,5.5
	c-0.4,0.1-0.9,0.3-1.3,0.4l-0.3,0.1c-0.4,0.1-0.7,0.2-1.1,0.3l-0.7,0.1l-0.8,0.1c-0.6,0.1-1.1,0.1-1.7,0.1c0.2,3,3.8,3.4,7.1,2.6
	c0.8-0.2,1.5-0.4,2.3-0.8c1.6-0.7,3.7-1.9,6-3.2l1-0.6l2.1-1.2l1.1-0.6l2.3-1.2c1.1-0.6,2.3-1.2,3.5-1.8l0.4-0.2
	c-9.4,12.8-6.6,30.8,6.2,40.2c1.2,0.9,2.4,1.6,3.7,2.3v8.9h-3c-2.6,0-5.2,0.9-7.3,2.5c-1.8,0.7-4,1.6-6.2,2.8
	c-0.7,0.4-1.5,0.7-2.2,1.1l-1.1,0.6c-0.8,0.4-1.5,0.8-2.2,1.3c-1.5,0.9-3,1.9-4.3,2.9c-2,1.5-3.9,3.2-5.5,5.1l0,0
	c-0.3,0.4-0.6,0.7-1,1c-0.1,0.1-0.2,0.2-0.4,0.3s-0.5,0.4-0.7,0.5l-0.5,0.3c-0.2,0.1-0.4,0.3-0.7,0.4l-0.6,0.3l-0.6,0.2
	c-0.2,0.1-0.5,0.2-0.7,0.2l-0.5,0.1c-1.1,0.3-2.3,0.5-3.4,0.6l0,0c-4.2,0.4-9-0.2-13.3-0.4l0,0c-0.7,0-1.3,0-1.9,0l0,0
	c-14.4,0.1-29.2,0.3-43.6,0.4l-70.8-1.7l0,0l-2.3,0h-1.2v-0.6h-65.2c-2.8,1.9-1.1,3.8-0.3,4.4c0.3,0.3,0.6,0.6,0.9,0.8l16.3,3.4
	l-1.2,2l-0.8-0.2l-2,3.4c1,1.2,1.9,2.2,2.8,3.1c14.6,15.4,19.9-2.6,19.9-2.6l30.3,3.5l37.6,5.5l37,5.5v-0.1c1.1,0.5,2.6,0.3,4,0.7
	c14.1,3.4,28.6,3.3,43.2,3.5h2.9h1.8c1.5,0,3.1,0.2,4.6,0.5c0.6,0.1,1.2,0.3,1.7,0.5c1.9,0.6,3.6,1.8,4.6,3.6
	c0.7,1.5,1.1,3.1,1.2,4.8l2.5,19.3c0.2,1.4,0.4,2.8,0.4,4.2c0,0.5,0,1,0.1,1.5c0.1,1.9-0.2,3.8-0.9,5.6c-0.4,1-0.9,2-1.6,3
	c-0.4,0.6-0.9,1.2-1.3,1.8c-0.4,0.6-0.9,1.2-1.4,1.8l-0.7,0.9c-1.8,2.4-3.3,5-4.6,7.8c-0.3,0.7-0.6,1.4-0.9,2.1
	c-2.2,5.6-3.1,11.7-2.8,17.7c0,0.8,0.1,1.5,0.2,2.2c0.2,1.5,0.4,3,0.8,4.5c0.1,0.6,0.3,1.1,0.5,1.7c0.2,0.6,0.6,1.2,1,1.7
	c0,0,0.1,0.1,0.1,0.2l0,0c0.2,0.2,0.5,0.4,0.8,0.6c0.2,0.1,0.4,0.2,0.6,0.3c0.4,0.2,0.8,0.3,1.2,0.4c0.5,0.1,1,0.2,1.5,0.2h0.7h-0.3
	l-6.4,109.1c0,0-10.5,8.2-1.2,14h1.1l-10.4,156.7c0,0-7,7-29.1,0c-4.3-1.4-6.1-0.6-5.8,1.3c-0.8,6.1,25.9,29.6,50,26.1
	c6.1-0.9,11-5.7,11.9-11.9L828,491.1c1-1,3.4-4.2-0.4-9l11.7-90.9l8.2,90.9c0,0-7.7,2.2-1.7,8.7l0,0c0,0-15.2,23.3,73.4,142.1
	c0,0,7,7-3.5,21c0,0-11.7,0-9.3,9.3h0.4c0,0.2,0.1,0.4,0.1,0.6h21c0,0,19.8-23.3,18.6-29.1c-1.2-5.8-60.6-128.2-60.6-128.2v-15.1
	h3.5c0,0,4.7-2.3,0-9.3l-1.7-108.6c0-1.3-0.4-2.5-1.2-3.5c5.2-16.1,4.5-33.5-2.1-49.1c-2-4.8-4.7-9.5-5.4-14.6
	c-0.8-5.2,0.8-11.1,5.3-13.8l27.7,57.8l0.1,0.1c0.2,0.5,0.5,1,0.9,1.4c0.1,0.1,0.3,0.3,0.5,0.4c0.2,0.1,0.4,0.2,0.7,0.2h0.1
	l32.3,77.3l12.8,24.5l3.5,29.1l12.8,12.8h0.1h0.5l0,0l0.4-0.1l0,0c1-0.2,2.4-0.7,2.4-2.2c0,0,3.5-1.2,3.5-3.5c0,0,4.7-1.2,4.7-3.5
	c1.9,0,3.5-1.4,3.5-3.3c0-0.1,0-0.1,0-0.2L980.3,468.2z M857.9,221.5c1.8-0.9,3.5-2,5-3.3c1.4,3.5,3.2,6.8,5.4,9.9
	c0.9,1.4,1.9,2.7,2.9,4c0.4,0.5,0.8,1,1.2,1.5c-1.1-0.3-2.2-0.6-3.2-0.9l-0.3-0.1l-1-0.2c-2-1.4-4.4-2.1-6.8-2.1h-3.2V221.5z"/>
<path fill="#25DDDF" d="M793.2,370L787,474.4l39.1,4.5l11.2-87.2l7.8,87.2h40.2l-1.6-104.1c0-3.3-2.7-5.9-6-5.8L793.2,370z"/>
<g opacity="0.2">
	<path fill="#FFFFFF" d="M797.7,372.2l84.6-1h0.2c-1.1-1.4-2.9-2.3-4.7-2.2l-84.6,1L787,474.4l4.6,0.5L797.7,372.2z"/>
	<polygon fill="#FFFFFF" points="837.9,392.3 839.3,413.6 845.1,478.9 849.4,478.9 	"/>
</g>
<path fill="#263238" d="M844,487.8c0,0-14.5,22.3,70.4,136.3c0,0,6.7,6.7-3.3,20.1c0,0-11.2,0-8.9,8.9h20.1c0,0,19-22.3,17.9-27.9
	C939,619.7,882,502.4,882,502.4v-14.5H844z"/>
<path opacity="0.2" fill="#FFFFFF" enable-background="new    " d="M915,643.7c10.1-13.4,3.3-20.1,3.3-20.1
	c-84.9-114-70.4-136.3-70.4-136.3h-4.5c0,0-14.5,22.3,70.4,136.3c0,0,6.7,6.7-3.3,20.1c0,0-11.2,0-8.9,8.9h4.5
	C903.8,643.7,915,643.7,915,643.7z"/>
<path fill="#263238" d="M787,487.8L777,638.7c0,0-6.7,6.7-27.9,0c-18.9-6,13.7,29.8,42.4,25.7c5.9-0.9,10.5-5.5,11.4-11.4
	l23.9-166.9L787,487.8z"/>
<path opacity="0.2" fill="#FFFFFF" enable-background="new    " d="M753.5,642.6c21.2,6.7,27.9,0,27.9,0l10.6-155.4h-5L777,638.1
	c0,0-6.7,6.7-27.9,0c-9-2.8-6.4,3.7,1.9,10.9C746.6,643.9,746.5,640.4,753.5,642.6z"/>
<path fill="#25DDDF" d="M828.1,237.5h29.6c6.6,0,12,5.4,12,12v20.7c0,6.6-5.4,12-12,12h-29.6c-6.6,0-12-5.4-12-12v-20.7
	C816.1,242.9,821.5,237.5,828.1,237.5z"/>
<circle fill="#FFBEC5" cx="842.9" cy="205.1" r="26.8"/>
<path fill="#FFBEC5" d="M838.8,220.2h8.2c4.5,0,8.2,3.7,8.2,8.2V240c0,6.1-4.9,11-11,11h-2.6c-6.1,0-11-4.9-11-11v-11.6
	C830.6,223.9,834.3,220.2,838.8,220.2z"/>
<polygon fill="#25DDDF" points="664.1,255.4 735.1,257.1 736.2,282.8 664.1,272.2 "/>
<path fill="#FFBEC5" d="M601.6,255.4h62.6v16.8l-29.1-3.4c0,0-5.6,19-21.2,0l3.3-5.6l-15.6-3.4C601.6,259.9,598.2,257.7,601.6,255.4
	z"/>
<polygon fill="#25DDDF" points="908.8,353.8 940.1,428.6 961.4,419.7 940.1,340.3 "/>
<path fill="#FFBEC5" d="M940.1,428.6l12.3,23.5l3.3,27.9l12.3,12.3c0,0,3.3,0,3.3-2.2c0,0,3.3-1.1,3.3-3.3c0,0,4.5-1.1,4.5-3.3
	c1.8,0,3.3-1.4,3.3-3.2c0,0,0-0.1,0-0.1l-10.1-14.5l-3.3-24.6l-7.8-21.2L940.1,428.6z"/>
<path fill="#25DDDF" d="M787,474.4c0,0-10.1,7.8-1.1,13.4h40.2c0,0,4.5-3.3,0-8.9L787,474.4z"/>
<path fill="#25DDDF" d="M845.1,478.9c0,0-7.8,2.2-1.1,8.9h41.3c0,0,4.5-2.2,0-8.9H845.1z"/>
<path opacity="0.2" enable-background="new    " d="M787,474.4c0,0-10.1,7.8-1.1,13.4h40.2c0,0,4.5-3.3,0-8.9L787,474.4z"/>
<path opacity="0.2" enable-background="new    " d="M845.1,478.9c0,0-7.8,2.2-1.1,8.9h41.3c0,0,4.5-2.2,0-8.9H845.1z"/>
<polygon opacity="0.2" enable-background="new    " points="666.9,272.2 666.9,255.5 664.7,255.4 664.7,272.2 735.6,282.8 
	735.6,282.5 "/>
<polygon opacity="0.2" enable-background="new    " points="940.1,340.3 939.9,340.4 960.2,416.3 939,425.3 909.1,353.6 
	908.8,353.8 940.1,428.6 961.4,419.7 "/>
<path opacity="0.2" fill="#FFFFFF" enable-background="new    " d="M821.1,204.6c0-13.7,10.4-25.2,24-26.7c-0.9-0.1-1.9-0.1-2.8-0.1
	c-14.8-0.3-27,11.5-27.3,26.3c-0.3,14.8,11.5,27,26.3,27.3c0.3,0,0.7,0,1,0c0.9,0,1.9,0,2.8-0.1
	C831.5,229.8,821.1,218.3,821.1,204.6z"/>
<g opacity="0.2">
	<path fill="#FFFFFF" d="M604.3,258.2h59.2v-3.4H601c-3.3,2.2,0,4.5,0,4.5l2,0.4C603.3,259.1,603.7,258.6,604.3,258.2z"/>
	<path fill="#FFFFFF" d="M616.6,271.6l3.3-5.6l-4.8-1l-2,3.2c1.4,1.7,2.9,3.3,4.5,4.7C617.4,272.6,617,272.1,616.6,271.6z"/>
</g>
<path fill="#00695C" d="M828,263.5c8.1,4.6,17.9,5.2,27.2,4.8c2.2,0,4.4-0.4,6.4-1.4c5.6-3.1,2.1-21.4,0.9-27.7
	c19.3,2.1,40.6,22.8,52.3,38.3c6.1,8.1,10.4,17.4,14.4,26.7c4.4,10.5,8.5,21.3,10.7,32.5c0.4,1.3,0.3,2.6-0.1,3.9
	c-0.7,1.5-2.3,2.2-3.7,2.8l-24.4,10.5c-1,0.4-2.2,0.9-3.2,0.3c-0.6-0.4-1.1-1.1-1.3-1.8l-26.6-55.4c-4.3,2.5-5.8,8.2-5,13.2
	c0.8,5,3.3,9.4,5.2,14c6.4,15.1,7,32,1.9,47.5c-29.4-0.1-58.8-0.7-88.2-1.8c-1.9-0.1-4-0.2-5.3-1.6c-0.8-1-1.3-2.1-1.5-3.4
	c-2.6-11.4-0.1-23.4,6.9-32.9c1.7-2.3,3.7-4.5,4.7-7.1c1.3-3.4,0.8-7.2,0.4-10.8l-2.4-18.5c-0.1-1.6-0.5-3.1-1.2-4.6
	c-2.2-4-7.7-4.4-12.2-4.4c-14.9-0.2-29.7,0.2-44.2-3.3c-1.9-0.5-3.9,0.1-4.9-1.6c-0.7-1.3-0.9-2.8-0.7-4.3c0.1-5.8,0-14.7,0.1-20.4
	c14.1-0.1,28.6-0.3,42.7-0.4c7.9,0,18.2,2.6,23.2-3.5c7.8-9.5,25.7-15.1,25.7-15.1S821.1,259.5,828,263.5z"/>
<line fill="none" stroke="#FFFFFF" stroke-width="2" stroke-miterlimit="10" x1="842.9" y1="268" x2="841.3" y2="368.8"/>
<g opacity="0.2">
	<path fill="#FFFFFF" d="M861.9,268.2c2.2,0,4.4-0.4,6.4-1.4c5.2-2.9,2.5-18.9,1.2-26.2c-2.3-0.7-4.6-1.2-7-1.5
		c1.2,6.2,4.7,24.6-0.9,27.7c-2,0.9-4.2,1.4-6.4,1.4l-1.3,0C856.5,268.4,859.2,268.4,861.9,268.2z"/>
	<path fill="#FFFFFF" d="M806.6,253.2c4.6-5.6,12.6-9.8,18.5-12.3c0.3-1.7,0.5-2.8,0.5-2.8s-17.9,5.6-25.7,15.1
		c-2.1,2.6-5.2,3.6-8.7,3.9C797.2,257.4,803.1,257.4,806.6,253.2z"/>
	<path fill="#FFFFFF" d="M913.8,352.5l-26.6-55.4c-2,1.2-3.5,3-4.2,5.2l24.1,50.3c0.3,0.7,0.7,1.3,1.3,1.8c1,0.5,2.2,0.1,3.2-0.3
		l2.3-1L913.8,352.5z"/>
	<path fill="#FFFFFF" d="M801,370c-1.9-0.1-4-0.2-5.3-1.6c-0.8-1-1.3-2.1-1.5-3.4c-2.6-11.4-0.1-23.4,6.9-32.9
		c1.7-2.3,3.7-4.5,4.7-7.1c1.3-3.4,0.8-7.2,0.4-10.8l-2.4-18.5c-0.1-1.6-0.5-3.1-1.2-4.6c-2.2-4-7.7-4.4-12.2-4.4
		c-14.9-0.2-29.7,0.2-44.2-3.3c-1.9-0.5-3.9,0.1-4.9-1.6c-0.7-1.3-0.9-2.8-0.7-4.3c0.1-5.8,0-14.7,0.1-20.4
		c12.5,0,25.3-0.3,37.8-0.4c-0.6,0-1.2,0-1.8,0c-14.1,0.1-28.6,0.3-42.7,0.4c-0.1,5.8,0,14.7-0.1,20.4c-0.2,1.5,0.1,3,0.7,4.3
		c1,1.6,3.1,1.1,4.9,1.6c14.5,3.5,29.3,3.1,44.2,3.3c4.5,0.1,10,0.5,12.2,4.4c0.7,1.4,1.1,3,1.2,4.6l2.4,18.5
		c0.5,3.6,0.9,7.4-0.4,10.8c-1,2.7-3,4.8-4.7,7.1c-7,9.4-9.5,21.4-6.9,32.9c0.2,1.2,0.7,2.4,1.5,3.4c1.3,1.4,3.4,1.5,5.3,1.6
		c29.4,1.1,58.8,1.7,88.2,1.8v0C855.4,371.6,828.2,371,801,370z"/>
</g>
<path fill="#5D4037" d="M849.4,201.5c1.3,0.4,2.8,0.3,4.1,0.7c5.2,1.7,4.5,9.1,4.6,14.6c0.2,8.3,4.7,15.8,9.8,22.4
	c13.2,17.1,30.5,30.5,50.3,39.1c4,1.8,8.6,3.7,10.2,7.8c0.5,1.7,0.9,3.4,1.2,5.2c2.3,9,16.3,12,22.1,4.7c3.7-4.7,3.6-11.4,6.8-16.4
	c1.6-2.6,4-4.7,5.5-7.4c4.4-8.3-1.6-18.1-3.8-27.2c-2.3-9.5-0.4-19.5-0.7-29.4c-0.6-20.4-11.1-39.9-26.7-53
	c-15.6-13.1-35.8-20.1-56.1-21.4c-15.2-0.9-31.8,1.9-42.4,12.8c-6.7,6.9-10.2,16.3-15.2,24.6c-5,8.3-12.7,16.1-22.3,16.5
	c0.2,3.6,5.7,3.3,9,1.8c7-3.2,23.4-14.9,31.3-12.6C844.6,186.5,841.9,198.6,849.4,201.5z"/>
<g opacity="0.2">
	<path fill="#FFFFFF" d="M823.3,175.1c5-8.3,8.5-17.6,15.2-24.6c0.7-0.7,1.4-1.3,2.1-2c-2.4,1.5-4.6,3.3-6.5,5.3
		c-6.7,6.9-10.2,16.3-15.2,24.6c-2.2,3.7-4.9,7.1-8.1,10.1C815.9,185.4,820.1,180.3,823.3,175.1z"/>
	<path fill="#FFFFFF" d="M934,287.9c-0.3-1.7-0.7-3.5-1.2-5.2c-1.6-4.1-6.2-6-10.2-7.8c-19.8-8.6-37.1-22-50.2-39.1
		c-5.1-6.6-9.6-14.1-9.8-22.4c-0.1-5.5,0.6-12.9-4.6-14.6c-1.3-0.4-2.8-0.3-4.1-0.7c-7.6-2.8-4.8-15-12.7-17.3
		c-7.9-2.3-24.3,9.4-31.3,12.6c-2.3,1.1-5.8,1.5-7.7,0.4c-1.8,0.7-3.8,1.1-5.8,1.2c0.2,3.6,5.7,3.3,9,1.8c7-3.2,23.5-14.9,31.3-12.6
		c7.8,2.3,5.1,14.5,12.7,17.3c1.3,0.4,2.8,0.3,4.1,0.7c5.2,1.7,4.5,9.1,4.6,14.6c0.2,8.3,4.7,15.8,9.8,22.4
		c13.2,17,30.4,30.5,50.2,39.1c4,1.8,8.6,3.7,10.2,7.8c0.5,1.7,0.9,3.4,1.2,5.2c2.3,9,16.3,12,22.1,4.7l0.1-0.1
		C945.1,298.4,935.8,295.1,934,287.9z"/>
</g>
<path opacity="0.2" fill="#FFFFFF" enable-background="new    " d="M956.9,480l-3.3-27.9l-12.3-23.5l20.3-8.5l-0.2-0.4l-21.2,8.9
	l12.3,23.5l3.3,27.9l12.3,12.3c0.3,0,0.7,0,1-0.1L956.9,480z"/>
<polygon opacity="0.2" fill="#FFFFFF" enable-background="new    " points="943.5,426.4 912.5,352.2 908.8,353.8 940.1,428.6 
	961.4,419.7 961.2,418.9 "/>
<linearGradient id="SVGID_6_" gradientUnits="userSpaceOnUse" x1="436.9767" y1="542.897" x2="436.9767" y2="677.5374" gradientTransform="matrix(1 0 0 -1 0 800)">
	<stop  offset="0" style="stop-color:#808080;stop-opacity:0.25"/>
	<stop  offset="0.54" style="stop-color:#808080;stop-opacity:0.12"/>
	<stop  offset="1" style="stop-color:#808080;stop-opacity:0.1"/>
</linearGradient>
<rect x="245.6" y="122.5" fill="url(#SVGID_6_)" width="382.8" height="134.6"/>
<rect x="256.7" y="128" fill="#FFFFFF" width="365" height="105.7"/>
<linearGradient id="SVGID_7_" gradientUnits="userSpaceOnUse" x1="297.329" y1="589.6317" x2="297.329" y2="650.8318" gradientTransform="matrix(1 0 0 -1 0 800)">
	<stop  offset="0" style="stop-color:#808080;stop-opacity:0.25"/>
	<stop  offset="0.54" style="stop-color:#808080;stop-opacity:0.12"/>
	<stop  offset="1" style="stop-color:#808080;stop-opacity:0.1"/>
</linearGradient>
<rect x="272.3" y="149.2" fill="url(#SVGID_7_)" width="50.1" height="61.2"/>
<rect x="275.1" y="151.9" fill="#25DDDF" width="44.5" height="56.7"/>
<rect x="553.8" y="192.6" fill="#69F0AE" width="44.5" height="17.8"/>
<rect x="470.4" y="169.2" fill="#FF9800" width="44.5" height="40.1"/>
<rect x="372.4" y="175.9" fill="#FF5252" width="44.5" height="33.4"/>
</svg>
