<?xml version="1.0" encoding="utf-8"?>
<!-- Generator: Adobe Illustrator 18.0.0, SVG Export Plug-In . SVG Version: 6.00 Build 0)  -->
<!DOCTYPE svg PUBLIC "-//W3C//DTD SVG 1.1//EN" "http://www.w3.org/Graphics/SVG/1.1/DTD/svg11.dtd">
<svg version="1.1" id="Calque_1" xmlns="http://www.w3.org/2000/svg" xmlns:xlink="http://www.w3.org/1999/xlink" x="0px" y="0px"
	 viewBox="0 0 45 45" enable-background="new 0 0 45 45" xml:space="preserve">
<g>
	<g>
		<path fill="#321C52" d="M22.5,45C10.1,45,0,34.9,0,22.5C0,10.1,10.1,0,22.5,0C34.9,0,45,10.1,45,22.5C45,34.9,34.9,45,22.5,45
			L22.5,45z M22.5,1C10.6,1,1,10.6,1,22.5C1,34.4,10.6,44,22.5,44C34.4,44,44,34.4,44,22.5C44,10.6,34.4,1,22.5,1L22.5,1z"/>
	</g>
</g>
<g>
	<g>
		<path fill="#321C52" d="M22.5,34.8c-2.5,0-5-2.1-9-6.2c-1-1.1-1.6-3-1.6-4.1v-9.9c0-1.3,1-2.6,2.2-3c5.4-1.8,11.4-1.8,16.9,0
			c1.2,0.4,2.2,1.7,2.2,3v9.9c0,1.2-0.6,3.1-1.6,4.1C27.5,32.7,25,34.8,22.5,34.8L22.5,34.8z M22.5,11.2c-2.8,0-5.5,0.4-8.1,1.3
			c-0.9,0.3-1.5,1.2-1.5,2.1v9.9c0,1,0.6,2.6,1.4,3.4c3.8,3.9,6.1,5.9,8.3,5.9c2.2,0,4.5-2,8.3-5.9c0.8-0.8,1.4-2.5,1.4-3.4v-9.9
			c0-0.9-0.7-1.8-1.5-2.1C28,11.7,25.3,11.2,22.5,11.2L22.5,11.2z"/>
	</g>
	<g>
		<path fill="#321C52" d="M22.5,31.8c-1.6,0-4.3-2.6-6.9-5.3c-0.4-0.4-0.8-1.5-0.8-2v-9.6c0-0.2,0.1-0.4,0.3-0.5
			c4.8-1.5,9.9-1.5,14.7,0c0.2,0.1,0.3,0.3,0.3,0.5v9.6c0,0.5-0.4,1.6-0.8,2.1C26.8,29.2,24.1,31.8,22.5,31.8L22.5,31.8z M15.8,15.2
			v9.2c0,0.3,0.3,1.2,0.5,1.4c1.5,1.5,4.9,5,6.2,5c1.3,0,4.7-3.5,6.1-5c0.2-0.2,0.5-1.1,0.5-1.4v-9.2C24.9,13.9,20.2,13.9,15.8,15.2
			L15.8,15.2z"/>
	</g>
	<g>
		<path fill="#321C52" d="M22.5,31.5c-0.3,0-0.5-0.2-0.5-0.5V13.8c0-0.3,0.2-0.5,0.5-0.5c0.3,0,0.5,0.2,0.5,0.5V31
			C23,31.3,22.8,31.5,22.5,31.5L22.5,31.5z"/>
	</g>
</g>
</svg>
