<?xml version="1.0" encoding="utf-8"?>
<!-- Generator: Adobe Illustrator 18.0.0, SVG Export Plug-In . SVG Version: 6.00 Build 0)  -->
<!DOCTYPE svg PUBLIC "-//W3C//DTD SVG 1.1//EN" "http://www.w3.org/Graphics/SVG/1.1/DTD/svg11.dtd">
<svg version="1.1" id="Calque_1" xmlns="http://www.w3.org/2000/svg" xmlns:xlink="http://www.w3.org/1999/xlink" x="0px" y="0px"
	 viewBox="0 0 1280 800" enable-background="new 0 0 1280 800" xml:space="preserve">
<linearGradient id="SVGID_1_" gradientUnits="userSpaceOnUse" x1="572.823" y1="-41.6653" x2="799.0674" y2="492.5692" gradientTransform="matrix(0.9208 -0.3899 -0.3899 -0.9208 43.284 850.8831)">
	<stop  offset="0" style="stop-color:#808080;stop-opacity:0.25"/>
	<stop  offset="0.54" style="stop-color:#808080;stop-opacity:0.12"/>
	<stop  offset="1" style="stop-color:#808080;stop-opacity:0.1"/>
</linearGradient>
<path fill="url(#SVGID_1_)" d="M364.7,189.6L608.1,86.6c5.5-2.3,11.9,0.2,14.2,5.8l192.8,455.4c2.3,5.5-0.2,11.9-5.8,14.2L566,665
	c-5.5,2.3-11.9-0.2-14.2-5.8L358.9,203.9C356.6,198.4,359.2,192,364.7,189.6z"/>
<path fill="#FFFFFF" d="M372.1,194.1l234-99.1c6.2-2.6,13.3,0.3,15.9,6.4l186.4,440.3c2.6,6.2-0.3,13.3-6.4,15.9l-234,99.1
	c-6.2,2.6-13.3-0.3-15.9-6.4L365.7,209.9C363.1,203.8,365.9,196.7,372.1,194.1z"/>
<path fill="#25DDDF" d="M558.4,128.9c2.8,10.8-2.8,22-13,26.3l-88.5,37.5c-10.3,4.3-22.1,0.5-28-9L382,203.5
	c-5.4,2.3-7.9,8.5-5.6,13.8c0,0,0,0,0,0l177.8,419.9c2.3,5.4,8.5,7.9,13.8,5.6c0,0,0,0,0,0L792,548.1c5.4-2.3,7.9-8.5,5.6-13.8
	c0,0,0,0,0,0L619.8,114.3c-2.3-5.4-8.5-7.9-13.8-5.6c0,0,0,0,0,0L558.4,128.9z"/>
<path fill="#DBDBDB" d="M469.8,172.9l53.8-22.8c0.9-0.4,1.9,0,2.3,0.9l0.1,0.3c0.4,0.9,0,1.9-0.9,2.3l-53.8,22.8
	c-0.9,0.4-1.9,0-2.3-0.9l-0.1-0.3C468.5,174.3,468.9,173.3,469.8,172.9z"/>
<circle fill="#DBDBDB" cx="575" cy="145.7" r="2.3"/>
<g opacity="0.2">
	<path fill="#FFFFFF" d="M472.8,198.9l88.5-37.5c10.2-4.4,15.8-15.6,13-26.3l45.2-19.2l-0.7-1.6c-2.3-5.4-8.5-7.9-13.8-5.6
		c0,0,0,0,0,0l-47.6,20.2c2.8,10.8-2.8,22-13,26.3L456,192.7c-2.4,1-4.9,1.6-7.5,1.7C455,200.6,464.6,202.4,472.8,198.9z"/>
	<path fill="#FFFFFF" d="M392.4,223.6c-2.3-5.4,0.2-11.6,5.6-13.9c0,0,0,0,0,0l40.4-17.1c-4.3-1.8-7.9-5-10.4-9l-46.9,19.9
		c-5.4,2.3-7.9,8.5-5.6,13.8c0,0,0,0,0,0l177.8,419.9c2.3,5.4,8.5,7.9,13.8,5.6c0,0,0,0,0,0l2.3-1L392.4,223.6z"/>
</g>
</svg>
