<?xml version="1.0" encoding="utf-8"?>
<!-- Generator: Adobe Illustrator 18.0.0, SVG Export Plug-In . SVG Version: 6.00 Build 0)  -->
<!DOCTYPE svg PUBLIC "-//W3C//DTD SVG 1.1//EN" "http://www.w3.org/Graphics/SVG/1.1/DTD/svg11.dtd">
<svg version="1.1" id="Calque_1" xmlns="http://www.w3.org/2000/svg" xmlns:xlink="http://www.w3.org/1999/xlink" x="0px" y="0px"
	 viewBox="0 0 45 45" enable-background="new 0 0 45 45" xml:space="preserve">
<g>
	<g>
		<path fill="#321C52" d="M22.5,45C10.1,45,0,34.9,0,22.5C0,10.1,10.1,0,22.5,0C34.9,0,45,10.1,45,22.5C45,34.9,34.9,45,22.5,45
			L22.5,45z M22.5,1C10.6,1,1,10.6,1,22.5C1,34.4,10.6,44,22.5,44S44,34.4,44,22.5C44,10.6,34.4,1,22.5,1L22.5,1z"/>
	</g>
</g>
<g>
	<g>
		<path fill="#321C52" d="M22.2,25.6c-0.1,0-0.1,0-0.2,0l-11.2-4.9c-0.2-0.1-0.3-0.3-0.3-0.5s0.1-0.4,0.3-0.5L22,14.8
			c0.1-0.1,0.3-0.1,0.4,0l11.2,4.9c0.2,0.1,0.3,0.3,0.3,0.5s-0.1,0.4-0.3,0.5l-11.2,4.9C22.4,25.6,22.3,25.6,22.2,25.6L22.2,25.6z
			 M12.3,20.2l10,4.3l10-4.3l-10-4.3L12.3,20.2L12.3,20.2z"/>
	</g>
	<g>
		<path fill="#321C52" d="M22.2,30.2c-2.9,0-5.9-0.9-8.5-2.6c-0.1-0.1-0.2-0.2-0.2-0.4v-5.3c0-0.3,0.2-0.5,0.5-0.5
			c0.3,0,0.5,0.2,0.5,0.5v5.1c4.8,3.1,10.6,3.1,15.4,0v-5.1c0-0.3,0.2-0.5,0.5-0.5c0.3,0,0.5,0.2,0.5,0.5v5.3c0,0.2-0.1,0.3-0.2,0.4
			C28.1,29.3,25.2,30.2,22.2,30.2L22.2,30.2z"/>
	</g>
	<g>
		<path fill="#321C52" d="M34,28c-0.3,0-0.5-0.2-0.5-0.5v-7.3c0-0.3,0.2-0.5,0.5-0.5c0.3,0,0.5,0.2,0.5,0.5v7.3
			C34.5,27.8,34.3,28,34,28L34,28z"/>
	</g>
	<g>
		<path fill="#321C52" d="M34,28c-0.3,0-0.5-0.2-0.5-0.5V24c0-0.3,0.2-0.5,0.5-0.5c0.3,0,0.5,0.2,0.5,0.5v3.5
			C34.5,27.8,34.3,28,34,28L34,28z"/>
	</g>
</g>
</svg>
